<svg width="375" height="213" viewBox="0 0 375 213" fill="none" xmlns="http://www.w3.org/2000/svg">
<g clip-path="url(#clip0_560_9220)">
<path opacity="0.8" d="M375 -1.9502H0V182.05C0 198.618 13.4315 212.05 30 212.05H345C361.569 212.05 375 198.618 375 182.05V-1.9502Z" fill="url(#paint0_linear_560_9220)"/>
<path d="M93.691 130.373C93.691 130.373 98.4286 125.7 107.658 137.492C116.888 149.283 120.874 156.343 120.874 156.343C120.874 156.343 123.173 158.75 124.715 156.587C126.256 154.425 127.837 148.839 131.218 149.132C134.728 149.435 136.549 152.959 136.969 158.495C137.388 164.03 138.779 176.242 138.909 177.34C139.039 178.437 139.952 179.873 141.231 178.567C142.51 177.261 149.176 166.13 154.27 169.61C159.365 173.089 158.006 188.814 157.895 190.526C157.784 192.238 158.225 192.851 159.086 193.136C159.947 193.421 161.834 189.434 163.855 186.344C165.877 183.255 168.772 180.027 171.546 182.287C174.32 184.547 177.212 195.589 170.111 215.782L166.164 224.939L156.332 226.316C134.976 227.936 125.066 222.294 123.608 219.024C122.149 215.754 126.014 213.833 129.525 212.658C133.036 211.482 137.339 210.7 137.316 209.806C137.294 208.912 136.798 208.308 135.102 207.972C133.406 207.635 117.873 204.884 115.837 199.062C113.802 193.239 126.277 189.689 127.866 188.789C129.455 187.889 128.279 186.627 127.286 186.222C126.293 185.817 114.874 181.3 109.583 179.452C104.291 177.604 101.406 174.935 102.019 171.474C102.632 168.013 108.421 168.041 110.904 167.119C113.387 166.196 111.67 163.353 111.67 163.353C111.67 163.353 105.899 157.657 96.8784 145.701C87.8581 133.745 93.7958 130.291 93.7958 130.291" fill="#EAF7FC" fill-opacity="0.5"/>
<path d="M101.964 140.927C102.031 140.99 102.094 141.059 102.151 141.132L102.643 141.76C103.086 142.334 103.724 143.159 104.527 144.201L111.413 153.196C117.271 160.784 125.337 171.247 134.247 182.801C143.157 194.355 151.242 204.839 156.96 212.483C159.818 216.302 162.151 219.394 163.748 221.559C164.533 222.629 165.14 223.459 165.576 224.042L166.042 224.698C166.1 224.768 166.148 224.845 166.185 224.927L166.006 224.721L165.514 224.092C165.071 223.519 164.472 222.687 163.63 221.652L156.743 212.649C150.93 205.053 142.849 194.592 133.901 183.045C124.952 171.498 116.913 161.006 111.188 153.363C108.33 149.545 105.997 146.452 104.399 144.287L102.571 141.805L102.106 141.148C102.009 141.006 101.964 140.927 101.964 140.927Z" fill="white"/>
<path d="M129.331 157.037C129.369 157.928 129.349 158.821 129.27 159.709C129.197 161.462 129.101 163.711 128.993 166.114C128.884 168.517 128.783 170.918 128.646 172.531C128.574 173.338 128.513 174.025 128.45 174.481C128.436 174.722 128.39 174.96 128.312 175.188C128.283 174.297 128.304 173.405 128.374 172.516C128.438 170.764 128.511 168.519 128.595 166.065C128.679 163.611 128.835 161.256 128.987 159.64C129.067 158.831 129.129 158.145 129.192 157.689C129.213 157.467 129.26 157.248 129.331 157.037Z" fill="white"/>
<path d="M127.465 175.608C127.482 175.708 122.753 175.382 116.96 174.878C111.166 174.374 106.455 173.878 106.49 173.76C106.525 173.643 111.201 173.986 116.989 174.459C122.777 174.933 127.47 175.503 127.465 175.608Z" fill="white"/>
<path d="M144.194 195.238C143.973 195.345 143.738 195.424 143.497 195.472C143.044 195.607 142.382 195.772 141.567 195.971C139.919 196.357 137.636 196.839 135.084 197.233C132.531 197.628 130.214 197.87 128.529 198C127.691 198.068 127.006 198.102 126.533 198.121C126.288 198.15 126.041 198.142 125.798 198.1C126.692 197.921 127.596 197.796 128.505 197.726C130.179 197.534 132.488 197.246 135.024 196.847C137.559 196.447 139.847 195.996 141.504 195.704C142.389 195.487 143.288 195.331 144.194 195.238Z" fill="white"/>
<path d="M149.584 178.81C149.419 179.635 149.19 180.445 148.9 181.235C148.423 182.725 147.751 184.766 146.979 187.016C146.208 189.265 145.494 191.298 144.957 192.759C144.698 193.562 144.382 194.345 144.012 195.103C144.173 194.275 144.402 193.461 144.695 192.67C145.163 191.181 145.844 189.139 146.615 186.889C147.387 184.64 148.102 182.615 148.638 181.146C148.889 180.343 149.206 179.562 149.584 178.81Z" fill="white"/>
<path d="M166.562 194.257C166.52 194.544 166.444 194.824 166.335 195.092C166.142 195.709 165.901 196.458 165.612 197.341C164.977 199.24 164.078 201.846 163.067 204.718C162.056 207.589 161.115 210.186 160.39 212.062L159.548 214.276C159.457 214.553 159.336 214.819 159.188 215.071C159.23 214.786 159.304 214.506 159.407 214.238C159.609 213.63 159.851 212.88 160.138 211.987C160.766 210.097 161.664 207.484 162.683 204.611C163.702 201.737 164.634 199.142 165.36 197.266L166.21 195.058C166.292 194.777 166.41 194.508 166.562 194.257Z" fill="white"/>
<path d="M219.873 217.223C214.195 216.283 208.842 213.936 204.305 210.394L204.232 210.317C195.123 198.486 194.197 181.392 201.565 160.874C201.752 160.351 201.926 159.817 202.099 159.284C202.821 157.083 203.569 154.776 205.289 153.18C207.415 151.171 211.227 150.414 213.494 152.514C214.978 153.88 215.355 155.885 215.734 157.834C215.82 158.295 215.906 158.755 216.002 159.201C216.685 162.195 218.194 164.939 220.358 167.119C221.355 168.089 223.332 169.717 225.445 169.311C228.001 168.832 229.239 165.817 230.057 163.252L234.759 148.255C235.605 145.575 236.475 142.805 238.193 140.454C240.132 137.793 242.903 136.271 245.608 136.383C246.447 136.426 247.269 136.639 248.024 137.009C248.778 137.38 249.449 137.9 249.995 138.539C250.447 139.033 250.792 139.615 251.007 140.25C251.222 140.884 251.303 141.556 251.244 142.223C251.14 142.949 250.946 143.66 250.665 144.338C250.506 144.786 250.353 145.204 250.245 145.638C250.011 146.558 250.048 147.836 250.901 148.407C251.568 148.859 252.571 148.758 253.872 148.137C257.478 146.389 260.411 143.585 263.337 140.645L264.012 139.97C266.657 137.314 269.391 134.562 272.641 132.577C276.69 130.113 280.954 129.276 284.648 130.221C289.023 131.366 292.266 135.41 292.043 139.47C291.849 142.916 289.473 146.112 284.758 149.245C279.673 152.651 274.121 155.301 268.275 157.112C267.272 157.298 266.353 157.791 265.643 158.523C265.417 158.867 265.281 159.263 265.248 159.673C265.214 160.084 265.284 160.496 265.451 160.873C265.795 161.747 266.38 162.506 267.139 163.061C268.334 163.851 269.634 164.471 271.001 164.902C271.749 165.169 272.495 165.443 273.17 165.761C274.427 166.332 277.378 167.981 277.602 170.904C277.88 174.688 273.37 176.88 271.462 177.656C265.632 179.974 259.448 181.273 253.178 181.495L252.379 181.521C250.467 181.455 248.558 181.741 246.749 182.363C244.946 183.126 243.209 185.044 243.531 187.095C243.852 189.146 246.125 190.405 248.073 190.669C249.506 190.797 250.948 190.753 252.371 190.537C253.124 190.455 253.902 190.37 254.679 190.332C258.771 190.148 263.859 191.887 265.327 196.182C265.732 197.564 265.804 199.023 265.537 200.439C265.269 201.854 264.67 203.186 263.788 204.325C262.052 206.53 259.894 208.367 257.44 209.728C249.199 214.885 239.738 217.762 230.021 218.066C226.619 218.116 223.22 217.834 219.873 217.223ZM204.823 209.802C211.679 215.078 219.446 217.346 229.993 217.148C239.57 216.843 248.895 214.005 257.018 208.923C259.382 207.616 261.462 205.852 263.137 203.733C263.946 202.696 264.498 201.482 264.748 200.191C264.997 198.9 264.938 197.568 264.574 196.304C263.225 192.419 258.508 190.833 254.694 191.01C253.942 191.044 253.181 191.125 252.435 191.208C250.952 191.429 249.448 191.474 247.955 191.339C245.724 191.057 243.152 189.603 242.733 187.114C242.314 184.624 244.265 182.434 246.403 181.532C248.3 180.865 250.305 180.558 252.314 180.628L253.113 180.602C259.294 180.381 265.392 179.102 271.14 176.82C272.918 176.109 277.027 174.116 276.785 170.848C276.599 168.344 273.941 166.882 272.809 166.365C272.133 166.055 271.402 165.783 270.701 165.524C269.263 165.072 267.896 164.419 266.641 163.585C265.762 162.941 265.09 162.055 264.707 161.035C264.491 160.541 264.404 160 264.454 159.462C264.504 158.925 264.69 158.409 264.995 157.964C265.796 157.089 266.855 156.493 268.019 156.264C273.803 154.478 279.298 151.863 284.333 148.502C288.832 145.514 291.072 142.54 291.249 139.33C291.478 135.239 287.961 131.846 284.437 130.923C279.737 129.689 275.277 131.818 273.042 133.188C269.864 135.122 267.168 137.841 264.566 140.433L263.883 141.107C260.995 143.966 257.923 146.928 254.209 148.752C252.625 149.53 251.364 149.609 250.448 148.995C249.261 148.198 249.178 146.554 249.493 145.394C249.616 144.928 249.765 144.469 249.942 144.02C250.196 143.399 250.375 142.75 250.474 142.087C250.522 141.529 250.454 140.966 250.275 140.436C250.095 139.905 249.807 139.417 249.429 139.003C248.955 138.449 248.374 137.997 247.721 137.673C247.069 137.349 246.357 137.16 245.63 137.118C243.262 137.026 240.627 138.452 238.874 140.868C237.239 143.114 236.411 145.829 235.568 148.445L230.858 163.441C229.987 166.219 228.611 169.472 225.643 170.037C223.178 170.5 220.964 168.728 219.855 167.626C217.592 165.348 216.011 162.483 215.292 159.353C215.189 158.898 215.106 158.423 215.014 157.954C214.675 156.138 214.323 154.257 213.031 153.068C211.085 151.263 207.769 151.957 205.891 153.731C204.316 155.225 203.599 157.403 202.909 159.514C202.735 160.047 202.56 160.588 202.371 161.119C197.273 175.252 193.557 195.159 204.823 209.802Z" fill="white"/>
<path d="M204.4 216.933C207.041 210.741 207.019 208.656 212.044 201.335C217.578 193.42 223.567 185.833 229.979 178.612L234.959 172.896C236.608 171.025 238.246 169.169 239.961 167.422C243.259 164.136 246.736 161.036 250.377 158.135C253.834 155.336 257.228 152.804 260.407 150.457C263.586 148.11 266.621 145.991 269.459 144.18C273.919 141.284 278.601 138.746 283.462 136.59C285.186 135.822 286.538 135.274 287.46 134.912L288.508 134.509L288.872 134.382C288.759 134.444 288.643 134.501 288.525 134.551L287.485 134.996C286.574 135.383 285.234 135.957 283.53 136.745C278.707 138.958 274.057 141.529 269.62 144.438C266.802 146.27 263.804 148.402 260.626 150.75C257.447 153.097 254.073 155.649 250.632 158.45C247.004 161.355 243.539 164.457 240.253 167.743C238.553 169.454 236.933 171.297 235.322 173.182L230.341 178.898C223.944 186.109 217.957 193.674 212.41 201.558C207.378 208.878 207.395 210.899 204.719 217.061" fill="white"/>
<path d="M240.096 167.469C240.096 167.06 240.136 166.652 240.215 166.251C240.312 165.474 240.498 164.331 240.735 162.942C241.227 160.153 242.005 156.325 242.883 152.111C243.762 147.896 244.493 144.06 244.906 141.273C245.151 139.878 245.28 138.741 245.378 137.963C245.413 137.552 245.484 137.144 245.592 136.746C245.609 137.157 245.595 137.569 245.55 137.978C245.507 138.765 245.392 139.912 245.216 141.311C244.872 144.119 244.193 147.972 243.298 152.192C242.403 156.412 241.615 160.158 241.02 162.992C240.785 164.326 240.535 165.426 240.369 166.278C240.307 166.681 240.215 167.079 240.096 167.469Z" fill="white"/>
<path d="M277.023 172.249C276.895 172.245 276.768 172.222 276.646 172.182L275.584 171.939C274.66 171.729 273.333 171.415 271.684 171.077C268.382 170.383 263.787 169.589 258.682 168.935C253.578 168.281 248.925 167.906 245.555 167.733C243.865 167.625 242.506 167.584 241.558 167.552L240.469 167.511C240.343 167.508 240.219 167.486 240.099 167.446C240.221 167.418 240.346 167.406 240.471 167.408L241.566 167.371C242.507 167.354 243.874 167.349 245.572 167.41C248.946 167.512 253.614 167.851 258.737 168.492C263.859 169.133 268.458 169.999 271.743 170.785C273.394 171.156 274.721 171.517 275.628 171.78L276.667 172.106C276.792 172.136 276.912 172.184 277.023 172.249Z" fill="white"/>
<path d="M212.626 200.833C212.575 200.67 212.544 200.502 212.531 200.332C212.486 199.958 212.413 199.517 212.347 198.901C212.186 197.649 211.997 195.836 211.797 193.592C211.388 189.111 211.012 182.903 210.688 176.045C210.364 169.187 210.037 162.979 209.707 158.496C209.54 156.289 209.4 154.469 209.294 153.179L209.182 151.737C209.158 151.569 209.156 151.397 209.177 151.228C209.227 151.391 209.259 151.559 209.271 151.729C209.317 152.103 209.383 152.583 209.455 153.168C209.617 154.412 209.805 156.225 210.006 158.469C210.415 162.951 210.789 169.166 211.113 176.024C211.437 182.882 211.766 189.082 212.094 193.573C212.263 195.772 212.401 197.6 212.509 198.882L212.62 200.324C212.639 200.493 212.641 200.664 212.626 200.833Z" fill="white"/>
<path d="M263.693 200.987C263.521 201.021 263.345 201.033 263.17 201.022L261.685 201.022L256.214 201.003C251.593 200.983 245.219 201.042 238.165 201.125C231.111 201.209 224.729 201.219 220.107 201.119C217.796 201.069 215.93 201.018 214.639 200.95L213.151 200.87C212.978 200.872 212.805 200.855 212.636 200.819C212.808 200.791 212.983 200.781 213.157 200.792L214.644 200.784L220.114 200.811C224.734 200.831 231.118 200.765 238.164 200.68C245.21 200.596 251.598 200.594 256.222 200.686C258.535 200.729 260.401 200.78 261.69 200.856L263.178 200.936C263.351 200.939 263.523 200.956 263.693 200.987Z" fill="white"/>
<path d="M225.374 219.647C246.794 198.227 246.794 163.498 225.374 142.078C203.954 120.658 169.225 120.658 147.805 142.078C126.385 163.498 126.385 198.227 147.805 219.647C169.225 241.067 203.954 241.067 225.374 219.647Z" fill="white"/>
<path d="M220.496 164.816C220.353 160.775 222.838 156.634 221.374 152.871C220.281 150.072 217.29 148.387 216.09 145.638C214.891 142.889 215.648 139.926 216.133 137.07C216.619 134.214 216.719 130.901 214.705 128.823C213.041 127.117 210.378 126.739 208.629 125.118C207.037 123.69 206.451 121.384 206.316 119.22C206.18 117.057 206.423 114.879 206.144 112.73C205.841 110.524 205.009 108.425 203.72 106.61C202.431 104.795 200.722 103.318 198.74 102.305C194.77 100.328 189.808 100.47 186.095 104.298L199.425 154.992C206.915 156.298 213.87 159.875 220.496 164.816Z" fill="#263238"/>
<path d="M220.789 144.096C220.941 144.137 221.082 144.21 221.203 144.31C221.564 144.596 221.806 145.006 221.881 145.46C221.961 145.815 221.951 146.184 221.853 146.534C221.754 146.885 221.57 147.205 221.317 147.466C220.955 147.786 220.515 148.005 220.041 148.101C219.568 148.198 219.077 148.168 218.618 148.016C218.065 147.831 217.565 147.513 217.163 147.089C216.761 146.666 216.469 146.151 216.312 145.588C215.939 144.315 215.959 142.959 216.369 141.697C216.726 140.362 217.347 139.055 217.797 137.656C218.284 136.22 218.395 134.684 218.118 133.193C217.869 131.75 217.282 130.386 216.404 129.214C215.527 128.041 214.385 127.093 213.07 126.446C211.857 125.861 210.607 125.475 209.5 124.932C208.542 124.51 207.692 123.875 207.014 123.076C206.336 122.277 205.849 121.335 205.588 120.32C205.403 119.636 205.326 118.928 205.359 118.221C205.38 117.774 205.45 117.331 205.566 116.9C205.599 116.742 205.649 116.589 205.716 116.443C205.577 117.021 205.498 117.612 205.481 118.206C205.444 119.576 205.818 120.926 206.553 122.082C207.288 123.238 208.352 124.149 209.608 124.697C210.693 125.211 211.935 125.589 213.178 126.182C214.536 126.841 215.719 127.814 216.626 129.021C217.534 130.228 218.141 131.634 218.397 133.122C218.682 134.66 218.569 136.245 218.068 137.727C217.604 139.155 216.983 140.455 216.64 141.754C216.241 142.965 216.212 144.268 216.555 145.496C216.698 146.025 216.968 146.512 217.341 146.913C217.714 147.315 218.179 147.62 218.697 147.802C219.122 147.948 219.577 147.981 220.019 147.899C220.461 147.816 220.874 147.62 221.217 147.331C221.456 147.089 221.632 146.793 221.73 146.469C221.828 146.144 221.846 145.8 221.781 145.467C221.72 145.034 221.507 144.637 221.182 144.346C220.939 144.167 220.782 144.118 220.789 144.096Z" fill="#263238"/>
<path d="M173.5 108.967C171.587 114.165 170.73 118.384 168.852 122.533C167.795 124.875 166.389 127.224 166.517 129.794C166.61 131.551 167.431 133.236 167.381 134.999C167.303 138.105 164.668 140.44 162.326 142.482C159.984 144.524 157.542 147.223 158.042 150.286C158.249 151.621 159.013 152.835 159.127 154.184C159.27 155.827 158.413 157.397 157.407 158.697C156.299 159.92 155.28 161.22 154.358 162.588L153.994 165.066L183.268 155.784" fill="#263238"/>
<path d="M245.043 154.185C244.329 149.286 245.008 144.324 244.815 141.768C244.458 137.013 244.029 137.027 243.48 137.156C242.002 137.484 243.794 145.531 242.401 144.003C241.009 142.475 241.352 133.928 239.824 134.335C237.832 134.864 239.867 143.267 239.981 143.989C240.095 144.71 239.06 144.881 238.989 144.224C238.881 143.275 237.561 133.379 235.576 133.886C234.49 134.164 235.219 136.028 235.219 136.028C235.219 136.028 237.168 145.217 236.232 145.424C235.297 145.631 233.955 140.269 233.641 138.434C233.326 136.599 232.334 136.013 231.641 136.799C231.17 137.334 232.013 142.975 232.355 144.781C232.698 146.588 233.783 151.536 231.263 149.472C228.743 147.409 226.051 146.752 225.208 147.066C224.366 147.38 224.537 148.68 225.508 148.944C226.525 149.339 227.486 149.867 228.364 150.515C229.065 151.046 229.703 151.657 230.263 152.335C230.906 153.049 233.219 155.855 233.776 158.697L245.008 154.149" fill="#FFBE9D"/>
<path d="M241.923 151.671C241.923 151.721 241.616 151.793 241.209 152.092C240.611 152.492 240.176 153.092 239.981 153.785L239.874 154.185L239.667 153.828C239.368 153.329 238.984 152.886 238.531 152.521C237.648 151.806 236.571 151.374 235.44 151.279C234.569 151.2 234.012 151.357 234.012 151.279C234.454 151.058 234.948 150.964 235.44 151.007C236.647 151.028 237.812 151.456 238.746 152.221C239.233 152.616 239.64 153.101 239.945 153.649L239.638 153.692C239.746 153.315 239.928 152.963 240.173 152.656C240.418 152.35 240.722 152.095 241.066 151.907C241.32 151.741 241.62 151.659 241.923 151.671Z" fill="#EB996E"/>
<path d="M245.422 153.235L232.984 158.141L236.597 185.987L233.976 181.988L229.057 175.562C215.869 152.864 198.983 156.448 198.983 156.448L176.756 154.72C176.756 154.72 162.683 154.97 154.572 164.174C152.487 166.537 140.421 190.67 135.437 200.723C138.493 208.558 143.31 215.584 149.517 221.258L162.198 195.054L164.34 204.244C165.783 209.232 165.803 214.524 164.397 219.523L160.984 229.341C169.161 233.638 178.289 235.803 187.525 235.636C196.76 235.468 205.804 232.974 213.82 228.384L210.578 220.687C208.4 215.48 207.83 209.741 208.943 204.208L211.321 192.334L224.601 204.972C225.984 206.523 227.493 207.956 229.114 209.256C235.261 214.14 240.067 214.254 240.067 214.254C261.122 213.418 245.422 153.235 245.422 153.235Z" fill="#FFD64F"/>
<path d="M169.638 177.954C169.638 178.116 169.59 178.275 169.499 178.41C169.409 178.545 169.281 178.65 169.131 178.713C168.981 178.775 168.816 178.791 168.656 178.759C168.497 178.728 168.351 178.649 168.236 178.535C168.121 178.42 168.043 178.273 168.011 178.114C167.98 177.955 167.996 177.79 168.058 177.64C168.12 177.49 168.225 177.361 168.36 177.271C168.495 177.181 168.654 177.133 168.817 177.133C168.925 177.132 169.032 177.152 169.132 177.193C169.232 177.234 169.323 177.295 169.399 177.371C169.476 177.448 169.536 177.539 169.577 177.639C169.618 177.739 169.639 177.846 169.638 177.954Z" fill="#FAFAFA"/>
<path d="M163.754 186.451C163.754 186.612 163.707 186.769 163.617 186.903C163.528 187.037 163.401 187.141 163.252 187.203C163.103 187.264 162.939 187.28 162.782 187.249C162.624 187.218 162.479 187.14 162.365 187.026C162.251 186.912 162.173 186.767 162.142 186.609C162.111 186.452 162.127 186.288 162.188 186.139C162.25 185.99 162.354 185.863 162.488 185.774C162.622 185.684 162.779 185.637 162.94 185.637C163.156 185.637 163.363 185.722 163.516 185.875C163.669 186.028 163.754 186.235 163.754 186.451Z" fill="#FAFAFA"/>
<path d="M182.311 177.954C182.31 178.115 182.261 178.271 182.17 178.404C182.08 178.537 181.953 178.64 181.804 178.701C181.655 178.761 181.491 178.776 181.334 178.744C181.177 178.712 181.032 178.634 180.919 178.52C180.806 178.406 180.729 178.261 180.698 178.103C180.668 177.945 180.684 177.782 180.746 177.634C180.808 177.485 180.912 177.359 181.046 177.27C181.179 177.18 181.336 177.133 181.497 177.133C181.605 177.133 181.711 177.154 181.81 177.195C181.91 177.237 182 177.297 182.075 177.374C182.151 177.45 182.211 177.541 182.251 177.64C182.292 177.74 182.312 177.846 182.311 177.954Z" fill="#FAFAFA"/>
<path d="M163.526 160.925C163.524 161.085 163.475 161.242 163.385 161.375C163.295 161.508 163.167 161.611 163.018 161.672C162.869 161.732 162.706 161.747 162.549 161.715C162.391 161.683 162.247 161.605 162.134 161.491C162.02 161.376 161.944 161.231 161.913 161.074C161.882 160.916 161.899 160.753 161.96 160.604C162.022 160.456 162.126 160.329 162.26 160.24C162.394 160.151 162.551 160.104 162.712 160.104C162.819 160.104 162.926 160.125 163.025 160.166C163.124 160.208 163.214 160.268 163.29 160.344C163.365 160.421 163.425 160.511 163.466 160.611C163.506 160.711 163.527 160.817 163.526 160.925Z" fill="#FAFAFA"/>
<path d="M188.18 187.657C188.179 187.818 188.13 187.974 188.04 188.107C187.949 188.24 187.822 188.343 187.673 188.404C187.524 188.464 187.361 188.48 187.203 188.447C187.046 188.415 186.901 188.337 186.788 188.223C186.675 188.109 186.598 187.964 186.567 187.806C186.537 187.648 186.553 187.485 186.615 187.337C186.677 187.188 186.781 187.062 186.915 186.973C187.049 186.884 187.206 186.836 187.366 186.836C187.474 186.836 187.58 186.857 187.679 186.899C187.779 186.94 187.869 187.001 187.944 187.077C188.02 187.153 188.08 187.244 188.12 187.343C188.161 187.443 188.181 187.55 188.18 187.657Z" fill="#FAFAFA"/>
<path d="M198.241 184.222C198.241 184.385 198.192 184.544 198.102 184.679C198.012 184.814 197.884 184.919 197.734 184.981C197.584 185.043 197.419 185.059 197.259 185.028C197.1 184.996 196.954 184.918 196.839 184.803C196.724 184.688 196.646 184.542 196.614 184.383C196.582 184.223 196.599 184.058 196.661 183.908C196.723 183.758 196.828 183.63 196.963 183.54C197.098 183.45 197.257 183.401 197.419 183.401C197.637 183.401 197.846 183.488 198 183.642C198.154 183.796 198.241 184.005 198.241 184.222Z" fill="#FAFAFA"/>
<path d="M214.455 176.09C214.455 176.251 214.408 176.409 214.318 176.543C214.229 176.676 214.102 176.781 213.953 176.842C213.804 176.904 213.64 176.92 213.483 176.889C213.325 176.857 213.18 176.78 213.066 176.666C212.952 176.552 212.874 176.407 212.843 176.249C212.812 176.091 212.828 175.928 212.889 175.779C212.951 175.63 213.055 175.503 213.189 175.414C213.323 175.324 213.48 175.276 213.641 175.276C213.857 175.276 214.064 175.362 214.217 175.515C214.37 175.667 214.455 175.874 214.455 176.09Z" fill="#FAFAFA"/>
<path d="M229.492 189.471C229.492 189.632 229.444 189.789 229.355 189.923C229.266 190.057 229.138 190.161 228.99 190.223C228.841 190.284 228.677 190.3 228.519 190.269C228.362 190.238 228.217 190.16 228.103 190.046C227.989 189.932 227.911 189.787 227.88 189.629C227.848 189.472 227.865 189.308 227.926 189.159C227.988 189.01 228.092 188.883 228.226 188.794C228.36 188.704 228.517 188.657 228.678 188.657C228.894 188.657 229.101 188.742 229.254 188.895C229.406 189.048 229.492 189.255 229.492 189.471Z" fill="#FAFAFA"/>
<path d="M237.432 194.026C237.433 194.189 237.386 194.348 237.297 194.484C237.208 194.62 237.08 194.726 236.93 194.79C236.78 194.853 236.615 194.87 236.455 194.839C236.295 194.808 236.148 194.731 236.033 194.616C235.917 194.502 235.838 194.355 235.806 194.196C235.774 194.036 235.79 193.871 235.852 193.72C235.914 193.57 236.019 193.441 236.154 193.351C236.289 193.26 236.448 193.212 236.611 193.212C236.718 193.211 236.825 193.231 236.925 193.272C237.024 193.312 237.115 193.372 237.191 193.448C237.267 193.523 237.328 193.614 237.369 193.713C237.411 193.812 237.432 193.918 237.432 194.026Z" fill="#FAFAFA"/>
<path d="M239.688 205.528C239.688 205.689 239.64 205.847 239.551 205.981C239.461 206.114 239.334 206.219 239.185 206.28C239.037 206.342 238.873 206.358 238.715 206.327C238.557 206.295 238.412 206.218 238.298 206.104C238.185 205.99 238.107 205.845 238.076 205.687C238.044 205.529 238.06 205.366 238.122 205.217C238.184 205.068 238.288 204.941 238.422 204.852C238.556 204.762 238.713 204.714 238.874 204.714C239.09 204.714 239.297 204.8 239.449 204.953C239.602 205.105 239.688 205.312 239.688 205.528Z" fill="#FAFAFA"/>
<path d="M247.428 197.353C247.427 197.514 247.378 197.671 247.288 197.804C247.197 197.936 247.07 198.04 246.921 198.1C246.772 198.161 246.609 198.176 246.451 198.144C246.294 198.111 246.149 198.033 246.036 197.919C245.923 197.805 245.846 197.66 245.815 197.502C245.785 197.345 245.801 197.181 245.863 197.033C245.925 196.885 246.029 196.758 246.163 196.669C246.296 196.58 246.454 196.532 246.614 196.532C246.722 196.532 246.828 196.554 246.927 196.595C247.027 196.636 247.117 196.697 247.192 196.773C247.268 196.849 247.328 196.94 247.368 197.04C247.409 197.139 247.429 197.246 247.428 197.353Z" fill="#FAFAFA"/>
<path d="M242.216 186.451C242.217 186.613 242.17 186.773 242.081 186.909C241.991 187.045 241.864 187.151 241.714 187.214C241.564 187.278 241.399 187.295 241.239 187.264C241.079 187.233 240.932 187.155 240.817 187.041C240.701 186.926 240.622 186.78 240.59 186.621C240.558 186.461 240.573 186.296 240.635 186.145C240.697 185.995 240.802 185.866 240.938 185.776C241.073 185.685 241.232 185.637 241.395 185.637C241.611 185.637 241.819 185.722 241.973 185.875C242.126 186.027 242.214 186.234 242.216 186.451Z" fill="#FAFAFA"/>
<path d="M247.428 177.133C247.428 177.294 247.38 177.451 247.291 177.585C247.202 177.719 247.074 177.823 246.926 177.885C246.777 177.946 246.613 177.963 246.455 177.931C246.298 177.9 246.153 177.822 246.039 177.708C245.925 177.595 245.847 177.449 245.816 177.292C245.785 177.134 245.801 176.97 245.862 176.821C245.924 176.673 246.028 176.545 246.162 176.456C246.296 176.367 246.453 176.319 246.614 176.319C246.83 176.321 247.036 176.407 247.188 176.559C247.34 176.712 247.426 176.918 247.428 177.133Z" fill="#FAFAFA"/>
<path d="M240.924 168.986C240.925 169.149 240.878 169.309 240.788 169.445C240.699 169.581 240.57 169.687 240.42 169.75C240.27 169.813 240.104 169.83 239.944 169.799C239.784 169.767 239.637 169.689 239.522 169.574C239.407 169.458 239.328 169.311 239.297 169.151C239.265 168.991 239.282 168.826 239.345 168.675C239.408 168.525 239.515 168.397 239.651 168.307C239.787 168.218 239.947 168.17 240.11 168.172C240.326 168.172 240.533 168.258 240.685 168.41C240.838 168.563 240.924 168.77 240.924 168.986Z" fill="#FAFAFA"/>
<path d="M245.508 160.104C245.518 160.218 245.505 160.333 245.469 160.441C245.433 160.549 245.374 160.649 245.297 160.733C245.22 160.818 245.126 160.885 245.022 160.932C244.917 160.978 244.804 161.002 244.69 161.002C244.576 161.002 244.463 160.978 244.358 160.932C244.254 160.885 244.16 160.818 244.083 160.733C244.006 160.649 243.948 160.549 243.911 160.441C243.875 160.333 243.862 160.218 243.873 160.104C243.892 159.9 243.986 159.711 244.137 159.573C244.288 159.436 244.486 159.359 244.69 159.359C244.895 159.359 245.092 159.436 245.243 159.573C245.394 159.711 245.489 159.9 245.508 160.104Z" fill="#FAFAFA"/>
<path d="M227.643 201.409C227.643 201.571 227.595 201.73 227.505 201.865C227.415 202 227.286 202.105 227.136 202.167C226.986 202.229 226.821 202.246 226.662 202.214C226.503 202.182 226.356 202.104 226.242 201.989C226.127 201.874 226.049 201.728 226.017 201.569C225.985 201.409 226.001 201.244 226.064 201.094C226.126 200.944 226.231 200.816 226.366 200.726C226.501 200.636 226.66 200.587 226.822 200.587C226.93 200.586 227.037 200.607 227.138 200.648C227.238 200.689 227.329 200.749 227.405 200.826C227.481 200.902 227.542 200.993 227.583 201.093C227.624 201.193 227.644 201.3 227.643 201.409Z" fill="#FAFAFA"/>
<path d="M218.568 188.471C218.568 188.632 218.52 188.79 218.431 188.923C218.341 189.057 218.214 189.162 218.065 189.223C217.917 189.285 217.753 189.301 217.595 189.27C217.437 189.238 217.292 189.161 217.178 189.047C217.065 188.933 216.987 188.788 216.956 188.63C216.924 188.472 216.94 188.308 217.002 188.16C217.063 188.011 217.168 187.884 217.302 187.794C217.436 187.705 217.593 187.657 217.754 187.657C217.97 187.657 218.177 187.743 218.329 187.896C218.482 188.048 218.568 188.255 218.568 188.471Z" fill="#FAFAFA"/>
<path d="M229.492 179.853C229.492 180.014 229.444 180.171 229.355 180.305C229.266 180.439 229.138 180.543 228.99 180.605C228.841 180.667 228.677 180.683 228.519 180.651C228.362 180.62 228.217 180.542 228.103 180.429C227.989 180.315 227.911 180.17 227.88 180.012C227.848 179.854 227.865 179.69 227.926 179.542C227.988 179.393 228.092 179.266 228.226 179.176C228.36 179.087 228.517 179.039 228.678 179.039C228.894 179.041 229.099 179.127 229.252 179.28C229.404 179.432 229.49 179.638 229.492 179.853Z" fill="#FAFAFA"/>
<path d="M173.236 168.172C173.686 168.172 174.05 167.808 174.05 167.358C174.05 166.909 173.686 166.544 173.236 166.544C172.787 166.544 172.422 166.909 172.422 167.358C172.422 167.808 172.787 168.172 173.236 168.172Z" fill="#FAFAFA"/>
<path d="M152.074 185.637C152.072 185.797 152.023 185.954 151.933 186.087C151.843 186.22 151.715 186.323 151.566 186.383C151.417 186.444 151.254 186.459 151.096 186.427C150.939 186.395 150.795 186.317 150.682 186.202C150.568 186.088 150.492 185.943 150.461 185.786C150.43 185.628 150.447 185.465 150.508 185.316C150.57 185.168 150.674 185.041 150.808 184.952C150.942 184.863 151.099 184.815 151.26 184.815C151.367 184.815 151.474 184.837 151.573 184.878C151.672 184.919 151.762 184.98 151.838 185.056C151.913 185.133 151.973 185.223 152.014 185.323C152.054 185.422 152.075 185.529 152.074 185.637Z" fill="#FAFAFA"/>
<path d="M151.259 207.121C151.261 207.284 151.214 207.443 151.124 207.579C151.034 207.716 150.906 207.822 150.756 207.885C150.605 207.948 150.44 207.965 150.28 207.933C150.12 207.902 149.973 207.824 149.858 207.708C149.742 207.593 149.664 207.446 149.632 207.286C149.601 207.126 149.618 206.961 149.681 206.81C149.744 206.66 149.85 206.532 149.986 206.442C150.123 206.352 150.282 206.305 150.445 206.307C150.661 206.307 150.868 206.392 151.021 206.545C151.173 206.698 151.259 206.905 151.259 207.121Z" fill="#FAFAFA"/>
<path d="M143.448 212.604C143.898 212.604 144.262 212.24 144.262 211.791C144.262 211.341 143.898 210.977 143.448 210.977C142.999 210.977 142.634 211.341 142.634 211.791C142.634 212.24 142.999 212.604 143.448 212.604Z" fill="#FAFAFA"/>
<path d="M171.265 189.471C171.265 189.632 171.218 189.789 171.128 189.923C171.039 190.057 170.912 190.161 170.763 190.223C170.614 190.284 170.451 190.3 170.293 190.269C170.135 190.238 169.99 190.16 169.876 190.046C169.762 189.932 169.684 189.787 169.653 189.629C169.622 189.472 169.638 189.308 169.699 189.159C169.761 189.01 169.865 188.883 169.999 188.794C170.133 188.704 170.29 188.657 170.451 188.657C170.667 188.657 170.874 188.742 171.027 188.895C171.18 189.048 171.265 189.255 171.265 189.471Z" fill="#FAFAFA"/>
<path d="M182.597 194.84C182.598 195.003 182.551 195.163 182.461 195.299C182.372 195.435 182.244 195.541 182.093 195.604C181.943 195.667 181.777 195.684 181.617 195.653C181.457 195.621 181.31 195.543 181.195 195.428C181.08 195.312 181.002 195.165 180.97 195.005C180.939 194.845 180.956 194.68 181.019 194.529C181.082 194.379 181.188 194.251 181.324 194.161C181.46 194.072 181.62 194.024 181.783 194.026C181.999 194.026 182.206 194.112 182.358 194.264C182.511 194.417 182.597 194.624 182.597 194.84Z" fill="#FAFAFA"/>
<path d="M202.86 195.654C202.86 195.815 202.812 195.972 202.723 196.106C202.633 196.24 202.506 196.344 202.357 196.406C202.209 196.467 202.045 196.484 201.887 196.452C201.729 196.421 201.584 196.343 201.47 196.229C201.356 196.116 201.279 195.97 201.248 195.813C201.216 195.655 201.232 195.491 201.294 195.342C201.355 195.194 201.46 195.066 201.594 194.977C201.728 194.888 201.885 194.84 202.046 194.84C202.261 194.842 202.467 194.928 202.619 195.08C202.772 195.233 202.858 195.439 202.86 195.654Z" fill="#FAFAFA"/>
<path d="M208.144 184.815C208.155 184.929 208.141 185.044 208.105 185.152C208.069 185.261 208.01 185.36 207.934 185.445C207.857 185.529 207.763 185.597 207.658 185.643C207.554 185.689 207.441 185.713 207.326 185.713C207.212 185.713 207.099 185.689 206.995 185.643C206.89 185.597 206.796 185.529 206.719 185.445C206.642 185.36 206.584 185.261 206.548 185.152C206.512 185.044 206.498 184.929 206.509 184.815C206.528 184.612 206.622 184.423 206.774 184.285C206.925 184.147 207.122 184.071 207.326 184.071C207.531 184.071 207.728 184.147 207.879 184.285C208.031 184.423 208.125 184.612 208.144 184.815Z" fill="#FAFAFA"/>
<path d="M207.322 208.77C207.322 208.931 207.275 209.088 207.185 209.222C207.096 209.356 206.969 209.46 206.82 209.522C206.671 209.584 206.508 209.6 206.35 209.568C206.192 209.537 206.047 209.459 205.933 209.346C205.819 209.232 205.742 209.087 205.71 208.929C205.679 208.771 205.695 208.607 205.756 208.459C205.818 208.31 205.922 208.183 206.056 208.093C206.19 208.004 206.347 207.956 206.508 207.956C206.724 207.958 206.93 208.044 207.082 208.197C207.234 208.349 207.321 208.555 207.322 208.77Z" fill="#FAFAFA"/>
<path d="M193.349 202.201C193.349 202.362 193.302 202.52 193.212 202.653C193.123 202.787 192.996 202.892 192.847 202.953C192.698 203.015 192.535 203.031 192.377 202.999C192.219 202.968 192.074 202.891 191.96 202.777C191.846 202.663 191.769 202.518 191.737 202.36C191.706 202.202 191.722 202.038 191.784 201.89C191.845 201.741 191.949 201.614 192.083 201.524C192.217 201.435 192.375 201.387 192.536 201.387C192.751 201.387 192.958 201.473 193.111 201.626C193.264 201.778 193.349 201.985 193.349 202.201Z" fill="#FAFAFA"/>
<path d="M196.605 212.604C196.605 212.765 196.557 212.922 196.468 213.056C196.379 213.19 196.251 213.294 196.103 213.356C195.954 213.418 195.79 213.434 195.632 213.402C195.475 213.371 195.33 213.293 195.216 213.18C195.102 213.066 195.024 212.921 194.993 212.763C194.962 212.605 194.978 212.441 195.039 212.293C195.101 212.144 195.205 212.017 195.339 211.927C195.473 211.838 195.63 211.79 195.791 211.79C196.007 211.79 196.214 211.876 196.367 212.028C196.519 212.181 196.605 212.388 196.605 212.604Z" fill="#FAFAFA"/>
<path d="M180.962 207.956C180.962 208.117 180.914 208.274 180.824 208.408C180.735 208.542 180.608 208.646 180.459 208.708C180.31 208.77 180.147 208.786 179.989 208.754C179.831 208.723 179.686 208.645 179.572 208.532C179.458 208.418 179.381 208.273 179.349 208.115C179.318 207.957 179.334 207.793 179.396 207.645C179.457 207.496 179.562 207.369 179.695 207.279C179.829 207.19 179.987 207.142 180.148 207.142C180.363 207.142 180.57 207.228 180.723 207.38C180.876 207.533 180.962 207.74 180.962 207.956Z" fill="#FAFAFA"/>
<path d="M170.452 202.201C170.453 202.364 170.406 202.524 170.316 202.66C170.227 202.796 170.098 202.903 169.948 202.966C169.798 203.029 169.632 203.045 169.472 203.014C169.312 202.983 169.165 202.904 169.05 202.789C168.935 202.674 168.856 202.527 168.825 202.367C168.793 202.207 168.81 202.041 168.873 201.891C168.936 201.74 169.043 201.612 169.179 201.523C169.315 201.433 169.475 201.386 169.638 201.387C169.854 201.387 170.061 201.473 170.213 201.626C170.366 201.778 170.452 201.985 170.452 202.201Z" fill="#FAFAFA"/>
<path d="M142.798 198.167C142.8 198.33 142.752 198.49 142.663 198.626C142.573 198.762 142.445 198.868 142.295 198.931C142.144 198.994 141.979 199.011 141.819 198.98C141.659 198.948 141.512 198.87 141.397 198.755C141.281 198.639 141.203 198.493 141.171 198.333C141.14 198.173 141.157 198.007 141.22 197.857C141.283 197.706 141.389 197.578 141.525 197.488C141.661 197.399 141.821 197.352 141.984 197.353C142.2 197.353 142.407 197.439 142.56 197.591C142.712 197.744 142.798 197.951 142.798 198.167Z" fill="#FAFAFA"/>
<path d="M154.794 197.353C154.792 197.514 154.743 197.671 154.653 197.804C154.563 197.936 154.435 198.04 154.286 198.1C154.137 198.161 153.974 198.176 153.817 198.144C153.659 198.111 153.515 198.033 153.402 197.919C153.289 197.805 153.212 197.66 153.181 197.502C153.15 197.345 153.167 197.181 153.228 197.033C153.29 196.885 153.395 196.758 153.528 196.669C153.662 196.58 153.819 196.532 153.98 196.532C154.087 196.532 154.194 196.554 154.293 196.595C154.392 196.636 154.482 196.697 154.558 196.773C154.633 196.849 154.693 196.94 154.734 197.04C154.774 197.139 154.795 197.246 154.794 197.353Z" fill="#FAFAFA"/>
<path d="M158.742 171.999C158.723 172.203 158.629 172.392 158.478 172.53C158.326 172.667 158.129 172.744 157.925 172.744C157.72 172.744 157.523 172.667 157.372 172.53C157.221 172.392 157.126 172.203 157.107 171.999C157.097 171.885 157.11 171.771 157.146 171.662C157.182 171.554 157.241 171.454 157.318 171.37C157.395 171.285 157.488 171.218 157.593 171.172C157.697 171.125 157.81 171.102 157.925 171.102C158.039 171.102 158.152 171.125 158.257 171.172C158.361 171.218 158.455 171.285 158.532 171.37C158.609 171.454 158.667 171.554 158.703 171.662C158.74 171.771 158.753 171.885 158.742 171.999Z" fill="#FAFAFA"/>
<g opacity="0.2">
<path d="M162.198 195.111C162.198 195.111 164.34 190.213 164.247 190.284C164.154 190.356 166.304 208.948 165.354 214.261C165.354 214.261 164.519 203.415 162.198 195.111Z" fill="black"/>
</g>
<g opacity="0.2">
<path d="M196.434 166.715L191.122 172.477C190.936 175.162 192.629 179.075 194.192 181.267C194.906 182.259 195.842 183.245 197.048 183.337C197.691 183.339 198.327 183.21 198.919 182.959L213.099 178.061C212.706 177.425 212.314 176.79 211.928 176.155C212.821 176.741 213.832 177.123 214.89 177.272C215.947 177.422 217.025 177.335 218.045 177.019C219.065 176.703 220.003 176.166 220.791 175.444C221.579 174.723 222.197 173.837 222.602 172.849C220.203 171.839 218.148 170.155 216.686 168C215.225 165.846 214.42 163.314 214.37 160.711L211.742 159.226L196.434 166.715Z" fill="black"/>
</g>
<g opacity="0.2">
<path d="M205.281 205.329C205.424 205.728 199.062 208.413 191.229 211.755C183.397 215.096 177.035 217.752 176.849 217.367C176.664 216.981 182.768 213.69 190.644 210.362C198.519 207.035 205.138 204.979 205.281 205.329Z" fill="black"/>
</g>
<path d="M238.474 197.26C238.396 197.26 237.846 194.726 237.246 191.548C236.841 189.647 236.531 187.726 236.318 185.793C236.83 187.674 237.24 189.581 237.546 191.505C237.956 193.406 238.266 195.327 238.474 197.26Z" fill="#263238"/>
<path d="M241.266 196.104C240.898 195.699 240.577 195.253 240.309 194.776C239.616 193.658 238.996 192.496 238.453 191.299C237.913 190.098 237.455 188.862 237.082 187.6C236.9 187.085 236.778 186.551 236.718 186.008C236.945 186.502 237.133 187.013 237.282 187.536C237.617 188.485 238.103 189.778 238.71 191.17C239.317 192.562 239.988 193.79 240.473 194.669C240.771 195.128 241.036 195.607 241.266 196.104Z" fill="#263238"/>
<path d="M164.511 186.465C164.511 186.465 164.511 186.372 164.511 186.186C164.511 186.001 164.511 185.708 164.546 185.394C164.589 184.68 164.639 183.673 164.711 182.474C164.942 179.276 164.757 176.063 164.161 172.913C163.522 169.767 162.021 166.86 159.827 164.517C158.881 163.587 157.824 162.779 156.678 162.11C156.768 162.136 156.854 162.172 156.935 162.217C157.182 162.322 157.42 162.444 157.649 162.582C158.501 163.071 159.285 163.669 159.984 164.359C162.255 166.703 163.804 169.65 164.447 172.849C165.05 176.024 165.209 179.269 164.918 182.488C164.832 183.723 164.732 184.716 164.654 185.401C164.618 185.715 164.589 185.979 164.561 186.194C164.557 186.286 164.54 186.377 164.511 186.465Z" fill="#263238"/>
<path d="M210.778 176.504C210.939 177.1 211.044 177.71 211.092 178.325C211.228 179.46 211.364 181.038 211.407 182.788C211.449 184.537 211.407 186.115 211.3 187.257C211.287 187.875 211.21 188.49 211.071 189.092C211.031 188.476 211.031 187.859 211.071 187.243C211.107 186.108 211.128 184.53 211.071 182.795C211.014 181.06 210.928 179.482 210.843 178.347C210.779 177.735 210.757 177.119 210.778 176.504Z" fill="#263238"/>
<path d="M179.334 154.185C179.783 148.516 186.324 151.965 185.595 146.331C183.953 133.628 183.339 120.813 183.76 108.011" fill="#263238"/>
<path d="M199.176 154.328L201.704 115.593C195.278 106.725 186.531 104.883 175.928 108.003C175.928 108.003 171.43 126.724 171.965 135.671C172.522 145.053 179.484 146.923 179.484 146.923C179.484 146.923 179.241 150.079 178.898 153.949C177.099 154.242 175.207 154.627 173.236 155.113C172.48 155.306 187.252 176.654 187.252 176.654L205.695 156.662C203.637 155.594 201.444 154.808 199.176 154.328Z" fill="#FFBE9D"/>
<path d="M175.942 122.676C175.908 122.984 175.996 123.293 176.186 123.537C176.377 123.782 176.656 123.941 176.963 123.982C177.113 124.009 177.267 124.005 177.415 123.972C177.563 123.938 177.703 123.875 177.827 123.787C177.951 123.698 178.056 123.586 178.135 123.457C178.215 123.327 178.268 123.183 178.291 123.033C178.326 122.725 178.238 122.415 178.048 122.171C177.857 121.927 177.578 121.767 177.27 121.726C177.121 121.699 176.967 121.702 176.818 121.735C176.669 121.768 176.529 121.831 176.405 121.919C176.281 122.008 176.176 122.121 176.097 122.251C176.017 122.381 175.965 122.525 175.942 122.676Z" fill="#263238"/>
<path d="M174.521 121.655C174.65 121.819 175.614 121.248 176.892 121.376C178.17 121.505 179.034 122.233 179.191 122.09C179.348 121.948 179.141 121.733 178.763 121.376C178.25 120.938 177.614 120.671 176.942 120.612C176.278 120.541 175.61 120.686 175.036 121.027C174.614 121.312 174.457 121.576 174.521 121.655Z" fill="#263238"/>
<path d="M188.966 124.182C188.935 124.491 189.025 124.799 189.217 125.043C189.408 125.286 189.687 125.446 189.994 125.489C190.144 125.517 190.298 125.514 190.446 125.481C190.595 125.447 190.735 125.385 190.859 125.296C190.983 125.207 191.088 125.095 191.168 124.965C191.247 124.835 191.3 124.69 191.322 124.539C191.353 124.231 191.263 123.923 191.071 123.679C190.879 123.436 190.601 123.276 190.294 123.233C190.144 123.206 189.991 123.21 189.842 123.244C189.694 123.277 189.554 123.34 189.43 123.428C189.306 123.517 189.202 123.629 189.122 123.759C189.042 123.888 188.989 124.032 188.966 124.182Z" fill="#263238"/>
<path d="M187.566 123.14C187.695 123.311 188.659 122.733 189.937 122.861C191.215 122.99 192.079 123.718 192.236 123.575C192.393 123.432 192.186 123.225 191.808 122.861C191.291 122.453 190.665 122.208 190.008 122.154C189.345 122.091 188.679 122.235 188.102 122.568C187.659 122.797 187.502 123.061 187.566 123.14Z" fill="#263238"/>
<path d="M181.847 131.929C181.199 131.65 180.518 131.455 179.82 131.351C179.491 131.287 179.191 131.187 179.163 130.958C179.166 130.62 179.273 130.291 179.47 130.016L180.676 127.631C182.361 124.24 183.618 121.434 183.475 121.362C183.333 121.291 181.862 123.997 180.177 127.396L179.013 129.795C178.769 130.168 178.666 130.616 178.72 131.058C178.757 131.177 178.819 131.286 178.903 131.377C178.987 131.469 179.09 131.54 179.206 131.587C179.379 131.655 179.562 131.698 179.748 131.715C180.436 131.875 181.141 131.947 181.847 131.929Z" fill="#263238"/>
<path d="M179.484 146.923C183.818 147.414 188.203 146.692 192.15 144.838C192.15 144.838 188.523 150.893 179.37 149.122L179.484 146.923Z" fill="#EB996E"/>
<path d="M182.09 135.049C182.362 134.769 182.702 134.562 183.077 134.448C183.451 134.335 183.849 134.318 184.232 134.4C184.51 134.455 184.774 134.565 185.009 134.723C185.245 134.881 185.446 135.084 185.602 135.321C185.753 135.55 185.828 135.819 185.819 136.093C185.81 136.366 185.717 136.63 185.552 136.849C185.325 137.058 185.041 137.195 184.735 137.241C184.43 137.286 184.117 137.239 183.839 137.106C183.257 136.835 182.735 136.452 182.304 135.978C182.173 135.86 182.064 135.72 181.982 135.564C181.943 135.488 181.926 135.403 181.933 135.318C181.941 135.233 181.973 135.152 182.025 135.085" fill="#EB996E"/>
<path d="M185.517 133.179C185.31 133.143 185.167 134.528 183.889 135.392C182.611 136.256 181.147 135.963 181.119 136.156C181.119 136.242 181.419 136.456 182.04 136.535C182.85 136.625 183.666 136.427 184.346 135.978C184.997 135.543 185.453 134.872 185.617 134.107C185.724 133.536 185.61 133.179 185.517 133.179Z" fill="#263238"/>
<path d="M178.884 119.784C178.806 119.977 177.927 119.784 176.856 119.784C175.785 119.784 174.907 119.941 174.836 119.784C174.764 119.627 175.636 119.07 176.864 119.07C178.092 119.07 178.963 119.606 178.884 119.784Z" fill="#263238"/>
<path d="M191.714 120.334C191.672 120.334 191.672 120.234 191.714 120.113V120.306C191.072 120.062 190.404 119.897 189.722 119.813C188.516 119.684 187.58 120.077 187.452 119.891C187.323 119.706 187.602 119.584 188.016 119.384C188.569 119.128 189.18 119.024 189.787 119.085C190.184 119.103 190.575 119.201 190.934 119.372C191.293 119.544 191.614 119.786 191.879 120.084L191.964 120.227L191.907 120.27C191.821 120.341 191.75 120.363 191.714 120.334Z" fill="#263238"/>
<path d="M192.043 128.638C191.943 128.638 191.843 128.509 191.822 128.331C191.8 128.152 191.865 127.988 191.965 127.974C192.065 127.959 192.165 128.102 192.186 128.288C192.207 128.473 192.15 128.631 192.043 128.638Z" fill="#EB996E"/>
<path d="M189.115 128.517C189.016 128.517 188.951 128.345 189.023 128.167C189.094 127.988 189.265 127.924 189.337 127.995C189.369 128.041 189.387 128.096 189.387 128.152C189.387 128.209 189.369 128.264 189.337 128.31C189.294 128.424 189.223 128.524 189.115 128.517Z" fill="#EB996E"/>
<path d="M190.722 129.773C190.676 129.78 190.628 129.773 190.586 129.752C190.543 129.731 190.508 129.698 190.486 129.656C190.463 129.615 190.454 129.567 190.46 129.52C190.466 129.474 190.485 129.43 190.517 129.394C190.549 129.359 190.59 129.335 190.636 129.325C190.682 129.314 190.73 129.318 190.774 129.336C190.818 129.354 190.855 129.385 190.88 129.425C190.905 129.465 190.917 129.512 190.915 129.559C190.917 129.586 190.913 129.613 190.905 129.638C190.896 129.664 190.882 129.687 190.864 129.707C190.846 129.727 190.824 129.743 190.8 129.754C190.776 129.766 190.749 129.772 190.722 129.773Z" fill="#EB996E"/>
<path d="M174.021 127.945C173.921 127.945 173.857 127.774 173.879 127.588C173.9 127.403 174 127.267 174.1 127.281C174.2 127.296 174.264 127.453 174.243 127.631C174.221 127.81 174.121 127.952 174.021 127.945Z" fill="#EB996E"/>
<path d="M176.964 128.002C176.864 128.002 176.785 127.867 176.792 127.724C176.799 127.581 176.892 127.453 176.992 127.46C177.092 127.467 177.171 127.588 177.164 127.738C177.156 127.888 177.064 128.01 176.964 128.002Z" fill="#EB996E"/>
<path d="M175.528 128.93C175.428 128.93 175.342 128.788 175.342 128.602C175.342 128.416 175.421 128.273 175.521 128.273C175.621 128.273 175.707 128.416 175.707 128.602C175.707 128.788 175.628 128.93 175.528 128.93Z" fill="#EB996E"/>
<path d="M184.853 103.548C184.46 108.017 182.62 112.236 179.612 115.564C176.613 118.856 173.236 121.733 168.852 122.526C170.045 118.749 170.28 115.714 171.266 112.53C172.251 109.345 173.579 106.218 176.042 104.033C177.602 102.691 179.502 101.805 181.533 101.475C183.565 101.145 185.648 101.383 187.552 102.163" fill="#263238"/>
<path d="M169.795 118.97C170.736 118.962 171.673 118.845 172.587 118.62C173.559 118.317 174.477 117.862 175.307 117.271C176.328 116.546 177.283 115.734 178.163 114.843C179.744 113.194 181.146 111.382 182.347 109.438L183.447 107.675C183.566 107.449 183.707 107.236 183.868 107.039C183.79 107.289 183.682 107.529 183.547 107.753C183.318 108.189 182.975 108.817 182.526 109.574C181.372 111.571 179.979 113.419 178.377 115.079C177.481 115.983 176.503 116.802 175.457 117.528C174.597 118.121 173.644 118.565 172.637 118.841C171.957 119.021 171.254 119.1 170.552 119.077C170.296 119.078 170.041 119.042 169.795 118.97Z" fill="#455A64"/>
<path d="M172.629 119.435C172.553 119.557 172.464 119.672 172.365 119.777C172.186 120.006 171.929 120.334 171.651 120.791C170.804 122.061 170.201 123.477 169.873 124.968C169.639 125.993 169.543 127.045 169.588 128.095C169.664 129.299 169.843 130.493 170.123 131.665C170.452 132.995 170.655 134.353 170.73 135.721C170.779 137.2 170.47 138.67 169.83 140.005C169.197 141.334 168.26 142.495 167.096 143.396C165.96 144.253 164.718 144.824 163.754 145.646C163.276 145.992 162.88 146.441 162.598 146.96C162.315 147.479 162.151 148.054 162.119 148.644C162.199 149.685 162.538 150.688 163.104 151.565C163.575 152.307 163.977 153.091 164.304 153.906C164.542 154.535 164.646 155.206 164.611 155.877C164.588 156.302 164.457 156.715 164.233 157.077C164.156 157.203 164.062 157.319 163.954 157.419C164.022 157.291 164.099 157.167 164.183 157.048C164.378 156.685 164.485 156.282 164.497 155.87C164.508 155.218 164.389 154.569 164.147 153.964C163.802 153.167 163.391 152.4 162.919 151.672C162.319 150.767 161.958 149.726 161.869 148.644C161.861 148.028 162.022 147.42 162.333 146.888C162.661 146.343 163.082 145.86 163.576 145.46C164.575 144.603 165.818 144.032 166.917 143.189C168.041 142.314 168.943 141.186 169.552 139.898C170.17 138.614 170.474 137.202 170.437 135.778C170.362 134.445 170.169 133.121 169.859 131.822C169.579 130.629 169.407 129.413 169.345 128.188C169.309 127.119 169.42 126.05 169.673 125.011C170.029 123.502 170.668 122.075 171.558 120.805C171.799 120.463 172.061 120.136 172.344 119.827C172.421 119.685 172.517 119.553 172.629 119.435Z" fill="#455A64"/>
<path d="M162.162 139.033C162.162 139.033 162.226 139.198 162.412 139.476C162.673 139.876 163.039 140.196 163.468 140.404C164.146 140.744 164.915 140.854 165.66 140.719C166.148 140.624 166.608 140.425 167.011 140.135C167.414 139.845 167.75 139.472 167.995 139.041C168.607 137.989 168.844 136.76 168.666 135.556C168.433 134.177 167.886 132.87 167.067 131.736C166.26 130.494 165.146 129.38 164.261 127.981C163.802 127.268 163.487 126.472 163.333 125.639C163.182 124.776 163.228 123.89 163.468 123.047C163.715 122.221 164.128 121.454 164.682 120.794C165.236 120.133 165.918 119.593 166.689 119.206C167.419 118.858 168.196 118.618 168.995 118.492C169.759 118.335 170.509 118.178 171.223 117.978C174.121 117.264 176.221 115.386 177.913 113.965C179.274 112.825 180.474 111.506 181.483 110.045C181.83 109.494 182.129 108.913 182.375 108.31C182.337 108.477 182.29 108.641 182.232 108.803C182.055 109.256 181.837 109.694 181.583 110.109C180.588 111.611 179.386 112.964 178.013 114.129C177.09 114.951 176.119 115.719 175.107 116.428C173.937 117.253 172.632 117.867 171.251 118.242C170.537 118.456 169.773 118.613 169.016 118.777C168.24 118.903 167.487 119.144 166.781 119.491C166.049 119.863 165.399 120.379 164.871 121.008C164.343 121.638 163.949 122.368 163.711 123.154C163.484 123.953 163.44 124.792 163.583 125.61C163.732 126.406 164.035 127.165 164.475 127.845C165.325 129.202 166.439 130.337 167.26 131.601C168.096 132.774 168.648 134.126 168.873 135.549C169.051 136.804 168.799 138.082 168.159 139.176C167.695 139.976 166.938 140.565 166.049 140.818C165.159 141.071 164.206 140.969 163.39 140.533C162.952 140.3 162.587 139.952 162.333 139.526C162.25 139.372 162.192 139.206 162.162 139.033Z" fill="#263238"/>
<path d="M216.947 161.989C217.375 161.421 217.754 160.82 218.082 160.189C218.426 159.44 218.666 158.647 218.796 157.833C218.988 156.753 218.974 155.645 218.754 154.57C218.501 153.263 217.933 152.037 217.097 151C216.093 149.844 214.968 148.798 213.741 147.88C212.353 146.859 211.146 145.611 210.171 144.189C209.674 143.412 209.339 142.542 209.186 141.633C209.053 140.684 209.179 139.717 209.55 138.834C210.264 137.056 211.528 135.656 212.199 134.05C212.558 133.298 212.696 132.46 212.599 131.632C212.502 130.805 212.172 130.022 211.649 129.373C210.694 128.183 209.519 127.189 208.186 126.446C207.045 125.772 205.977 124.98 205.002 124.082C204.192 123.304 203.552 122.365 203.124 121.326C202.802 120.538 202.694 119.678 202.81 118.835C202.856 118.528 202.93 118.227 203.031 117.935C203.138 117.692 203.217 117.478 203.303 117.321L203.517 116.964C203.567 116.885 203.588 116.85 203.595 116.85C203.602 116.85 203.595 116.9 203.545 116.985L203.36 117.349C203.281 117.506 203.21 117.721 203.117 117.963C203.029 118.253 202.967 118.549 202.931 118.849C202.836 119.67 202.957 120.502 203.281 121.262C203.713 122.27 204.35 123.177 205.152 123.925C206.144 124.816 207.231 125.594 208.393 126.246C209.766 126.997 210.978 128.008 211.963 129.223C212.517 129.91 212.866 130.74 212.971 131.616C213.076 132.492 212.932 133.38 212.556 134.178C211.842 135.842 210.6 137.249 209.914 138.962C209.566 139.796 209.445 140.708 209.564 141.604C209.716 142.472 210.036 143.301 210.507 144.046C211.458 145.44 212.633 146.668 213.984 147.68C215.217 148.617 216.347 149.682 217.354 150.857C218.206 151.924 218.78 153.185 219.025 154.527C219.236 155.629 219.236 156.76 219.025 157.862C218.868 158.69 218.596 159.493 218.218 160.247C217.974 160.716 217.685 161.161 217.354 161.575L217.083 161.889L216.947 161.989Z" fill="#455A64"/>
<path d="M212.213 160.461C211.728 156.22 210.9 154.47 210.921 150.201C210.921 146.288 207.351 141.083 209.565 136.485C208.777 133.587 207.74 130.764 206.466 128.045C205.716 126.346 202.989 121.198 202.296 119.477C202.753 116.3 205.038 116.535 204.595 113.365C204.067 109.56 202.275 105.754 199.047 103.676C196.958 102.461 194.613 101.752 192.2 101.606C190.534 101.38 188.841 101.457 187.202 101.834C185.55 102.228 184.117 103.254 183.211 104.69L184.053 103.89C183.726 105.677 183.809 107.515 184.295 109.265C184.781 111.015 185.658 112.632 186.859 113.994C189.3 116.704 192.52 118.593 196.077 119.399C196.046 120.586 196.314 121.762 196.855 122.819L196.77 122.94L196.977 123.054C197.199 123.451 197.457 123.826 197.748 124.175C198.144 124.632 198.597 125.035 199.097 125.375C199.451 126.091 199.635 126.879 199.635 127.677C199.635 128.476 199.451 129.264 199.097 129.98C198.212 131.629 196.434 132.836 196.077 134.642C195.67 136.706 197.241 138.684 197.205 140.783C197.127 141.896 196.768 142.972 196.163 143.91C192.35 148.808 193.021 153.849 195.177 159.661C195.977 161.803 197.212 164.081 196.605 166.301C196.013 168.393 193.907 169.771 193.25 171.842C192.329 174.698 194.449 177.597 196.434 179.874C200.668 177.973 205.088 176.513 209.622 175.519C209.163 173.616 208.938 171.664 208.951 169.707C209.141 170.744 209.65 171.696 210.407 172.43C211.165 173.163 212.132 173.642 213.175 173.8C214.217 173.957 215.283 173.785 216.223 173.307C217.163 172.829 217.931 172.07 218.418 171.135C214.627 169.1 212.706 164.709 212.213 160.461Z" fill="#263238"/>
<path d="M206.137 115.107C206.137 115.107 206.073 115.193 205.93 115.315C205.726 115.507 205.512 115.689 205.287 115.857C204.462 116.483 203.563 117.006 202.61 117.414C201.201 118.036 199.697 118.412 198.162 118.528C196.276 118.686 194.378 118.442 192.592 117.814C190.813 117.161 189.2 116.125 187.866 114.779C186.043 112.947 184.742 110.662 184.096 108.16C183.996 107.803 183.953 107.525 183.917 107.339C183.894 107.243 183.879 107.145 183.875 107.046C184.005 107.399 184.114 107.759 184.203 108.125C184.504 109.111 184.896 110.067 185.374 110.981C186.074 112.322 186.98 113.546 188.059 114.608C189.373 115.914 190.954 116.922 192.692 117.564C194.441 118.168 196.295 118.411 198.14 118.278C199.65 118.168 201.132 117.819 202.531 117.242C203.815 116.678 205.025 115.961 206.137 115.107Z" fill="#455A64"/>
<path d="M205.481 110.395C205.266 110.492 205.041 110.561 204.809 110.602C204.191 110.756 203.56 110.859 202.924 110.909C200.81 111.096 198.681 110.796 196.701 110.033C194.721 109.269 192.942 108.062 191.5 106.504C191.065 106.038 190.667 105.539 190.308 105.012C190.167 104.825 190.05 104.621 189.958 104.405C190.008 104.405 190.537 105.219 191.658 106.354C193.11 107.847 194.867 109.01 196.808 109.765C198.75 110.52 200.831 110.85 202.91 110.731C204.502 110.609 205.466 110.338 205.481 110.395Z" fill="#455A64"/>
<path d="M206.137 112.487C205.578 113.312 204.818 113.981 203.928 114.431C203.039 114.88 202.049 115.096 201.054 115.058C201.995 114.847 202.913 114.546 203.795 114.158C204.629 113.68 205.414 113.12 206.137 112.487Z" fill="#455A64"/>
<path d="M205.088 176.654C205.088 176.654 205.031 176.419 204.902 175.99C204.727 175.363 204.363 174.805 203.86 174.391C203.531 174.12 203.146 173.877 202.725 173.527C202.288 173.145 201.944 172.669 201.718 172.135C201.594 171.84 201.492 171.537 201.411 171.228C201.318 170.9 201.263 170.562 201.247 170.221C201.191 169.464 201.389 168.71 201.811 168.079C202.279 167.401 202.916 166.857 203.66 166.501C204.429 166.146 205.047 165.528 205.402 164.759C205.575 164.356 205.66 163.92 205.652 163.481C205.622 163.023 205.513 162.574 205.331 162.153C204.921 161.27 204.444 160.42 203.903 159.611C202.763 157.773 202.233 155.621 202.389 153.464C202.535 151.146 203.45 148.942 204.988 147.202C205.702 146.317 206.416 145.353 206.416 144.239C206.341 143.147 205.927 142.106 205.231 141.261C204.595 140.376 203.803 139.598 203.253 138.691C202.609 137.828 202.27 136.776 202.289 135.699C202.438 134.691 202.891 133.751 203.589 133.008C204.207 132.329 204.72 131.561 205.109 130.73C205.451 129.985 205.617 129.172 205.596 128.353C205.575 127.533 205.367 126.73 204.988 126.003C204.623 125.393 204.137 124.863 203.56 124.447C203.017 124.033 202.468 123.69 201.975 123.333C201.495 123.017 201.07 122.624 200.718 122.169C200.432 121.782 200.205 121.353 200.047 120.898C199.803 120.276 199.746 119.596 199.883 118.942C199.934 118.714 200.034 118.499 200.176 118.313C200.079 118.52 200.003 118.735 199.947 118.956C199.832 119.599 199.906 120.261 200.161 120.862C200.321 121.302 200.547 121.713 200.833 122.083C201.182 122.519 201.602 122.893 202.075 123.19C202.568 123.54 203.117 123.904 203.681 124.297C204.29 124.721 204.805 125.265 205.195 125.896C205.598 126.651 205.824 127.488 205.853 128.343C205.883 129.198 205.716 130.049 205.366 130.83C204.969 131.683 204.447 132.473 203.817 133.172C203.16 133.878 202.732 134.767 202.589 135.721C202.58 136.732 202.903 137.718 203.51 138.527C204.081 139.412 204.838 140.183 205.488 141.09C206.227 141.984 206.664 143.089 206.737 144.246C206.726 144.845 206.564 145.432 206.266 145.952C205.969 146.456 205.63 146.934 205.252 147.38C203.752 149.072 202.857 151.215 202.71 153.471C202.551 155.563 203.05 157.653 204.138 159.447C204.682 160.272 205.16 161.139 205.566 162.039C205.764 162.49 205.878 162.974 205.902 163.467C205.912 163.943 205.817 164.416 205.623 164.852C205.245 165.673 204.583 166.329 203.76 166.701C203.048 167.033 202.436 167.545 201.982 168.186C201.581 168.775 201.387 169.481 201.432 170.193C201.472 170.832 201.62 171.459 201.868 172.049C202.074 172.564 202.396 173.023 202.81 173.391C203.189 173.741 203.596 173.991 203.924 174.277C204.438 174.709 204.801 175.295 204.959 175.948C205.004 176.112 205.037 176.279 205.059 176.447C205.082 176.514 205.091 176.584 205.088 176.654Z" fill="#455A64"/>
<path d="M206.237 113.993C206.192 114.082 206.135 114.164 206.066 114.236C205.887 114.463 205.697 114.68 205.495 114.886C204.748 115.641 203.882 116.268 202.931 116.742C201.514 117.452 199.954 117.828 198.369 117.842C196.426 117.853 194.508 117.405 192.771 116.535C191.874 116.076 191.066 115.459 190.386 114.715C189.763 114.014 189.253 113.222 188.873 112.366C188.159 110.745 187.709 109.21 187.216 107.982C186.867 107 186.387 106.071 185.788 105.218C185.346 104.626 185.031 104.354 185.074 104.333C185.158 104.385 185.235 104.447 185.303 104.519C185.515 104.714 185.713 104.924 185.895 105.147C186.552 105.982 187.079 106.911 187.459 107.903C187.98 109.131 188.437 110.659 189.173 112.244C189.544 113.072 190.04 113.837 190.643 114.515C191.307 115.23 192.089 115.824 192.957 116.271C194.652 117.114 196.518 117.556 198.412 117.563C201.025 117.562 203.541 116.575 205.459 114.8C205.952 114.3 206.209 113.972 206.237 113.993Z" fill="#455A64"/>
<path d="M363.602 168.633C361.807 168.958 359.967 168.958 358.172 168.633C359.967 168.307 361.807 168.307 363.602 168.633Z" fill="white"/>
<path d="M363.602 168.633C361.807 168.958 359.967 168.958 358.172 168.633C359.967 168.307 361.807 168.307 363.602 168.633Z" stroke="white"/>
<path d="M363.602 168.633C361.807 168.958 359.967 168.958 358.172 168.633C359.967 168.307 361.807 168.307 363.602 168.633Z" stroke="white"/>
<path d="M366.506 160.007C366.832 162.14 366.832 164.31 366.506 166.443C366.254 165.392 366.168 164.308 366.252 163.23C366.168 162.149 366.254 161.061 366.506 160.007Z" fill="white"/>
<path d="M366.506 160.007C366.832 162.14 366.832 164.31 366.506 166.443C366.254 165.392 366.168 164.308 366.252 163.23C366.168 162.149 366.254 161.061 366.506 160.007Z" stroke="white"/>
<path d="M366.506 160.007C366.832 162.14 366.832 164.31 366.506 166.443C366.254 165.392 366.168 164.308 366.252 163.23C366.168 162.149 366.254 161.061 366.506 160.007Z" stroke="white"/>
<path d="M369.569 168.426C371.365 168.1 373.204 168.1 375 168.426C373.204 168.752 371.365 168.752 369.569 168.426Z" fill="white"/>
<path d="M369.569 168.426C371.365 168.1 373.204 168.1 375 168.426C373.204 168.752 371.365 168.752 369.569 168.426Z" stroke="white"/>
<path d="M369.569 168.426C371.365 168.1 373.204 168.1 375 168.426C373.204 168.752 371.365 168.752 369.569 168.426Z" stroke="white"/>
<path d="M366.684 177.061C366.359 174.928 366.359 172.758 366.684 170.625C367.023 172.757 367.023 174.929 366.684 177.061Z" fill="white"/>
<path d="M366.684 177.061C366.359 174.928 366.359 172.758 366.684 170.625C367.023 172.757 367.023 174.929 366.684 177.061Z" stroke="white"/>
<path d="M366.684 177.061C366.359 174.928 366.359 172.758 366.684 170.625C367.023 172.757 367.023 174.929 366.684 177.061Z" stroke="white"/>
<path d="M371.12 173.359C371.016 173.434 370.49 172.898 369.955 172.147C369.419 171.395 369.081 170.737 369.194 170.653C369.306 170.568 369.823 171.122 370.359 171.865C370.894 172.607 371.186 173.274 371.12 173.359Z" fill="white"/>
<path d="M371.12 173.359C371.016 173.434 370.49 172.898 369.955 172.147C369.419 171.395 369.081 170.737 369.194 170.653C369.306 170.568 369.823 171.122 370.359 171.865C370.894 172.607 371.186 173.274 371.12 173.359Z" stroke="white"/>
<path d="M371.12 173.359C371.016 173.434 370.49 172.898 369.955 172.147C369.419 171.395 369.081 170.737 369.194 170.653C369.306 170.568 369.823 171.122 370.359 171.865C370.894 172.607 371.186 173.274 371.12 173.359Z" stroke="white"/>
<path d="M370.819 163.568C370.922 163.662 370.556 164.254 370.011 164.912C369.466 165.57 368.921 166.021 368.817 165.936C368.714 165.852 369.08 165.25 369.635 164.592C370.189 163.935 370.715 163.484 370.819 163.568Z" fill="white"/>
<path d="M370.819 163.568C370.922 163.662 370.556 164.254 370.011 164.912C369.466 165.57 368.921 166.021 368.817 165.936C368.714 165.852 369.08 165.25 369.635 164.592C370.189 163.935 370.715 163.484 370.819 163.568Z" stroke="white"/>
<path d="M370.819 163.568C370.922 163.662 370.556 164.254 370.011 164.912C369.466 165.57 368.921 166.021 368.817 165.936C368.714 165.852 369.08 165.25 369.635 164.592C370.189 163.935 370.715 163.484 370.819 163.568Z" stroke="white"/>
<path d="M364.598 166.068C364.504 166.162 364.006 165.823 363.48 165.316C362.954 164.809 362.597 164.311 362.691 164.207C362.785 164.104 363.292 164.451 363.818 164.959C364.345 165.466 364.692 165.964 364.598 166.068Z" fill="white"/>
<path d="M364.598 166.068C364.504 166.162 364.006 165.823 363.48 165.316C362.954 164.809 362.597 164.311 362.691 164.207C362.785 164.104 363.292 164.451 363.818 164.959C364.345 165.466 364.692 165.964 364.598 166.068Z" stroke="white"/>
<path d="M364.598 166.068C364.504 166.162 364.006 165.823 363.48 165.316C362.954 164.809 362.597 164.311 362.691 164.207C362.785 164.104 363.292 164.451 363.818 164.959C364.345 165.466 364.692 165.964 364.598 166.068Z" stroke="white"/>
<path d="M364.354 170.38C364.467 170.465 364.138 171.047 363.64 171.696C363.142 172.344 362.663 172.758 362.541 172.758C362.419 172.758 362.757 172.081 363.255 171.442C363.753 170.803 364.251 170.296 364.354 170.38Z" fill="white"/>
<path d="M364.354 170.38C364.467 170.465 364.138 171.047 363.64 171.696C363.142 172.344 362.663 172.758 362.541 172.758C362.419 172.758 362.757 172.081 363.255 171.442C363.753 170.803 364.251 170.296 364.354 170.38Z" stroke="white"/>
<path d="M364.354 170.38C364.467 170.465 364.138 171.047 363.64 171.696C363.142 172.344 362.663 172.758 362.541 172.758C362.419 172.758 362.757 172.081 363.255 171.442C363.753 170.803 364.251 170.296 364.354 170.38Z" stroke="white"/>
<path d="M286.808 115.263L287.09 115.949C287.593 117.143 288.549 118.089 289.749 118.58L290.491 118.88L289.777 119.171C289.175 119.42 288.628 119.785 288.168 120.246C287.709 120.708 287.345 121.256 287.099 121.859L286.902 122.357L286.601 121.727C286.055 120.581 285.08 119.696 283.886 119.265L283.237 119.031L284.083 118.617C285.152 118.102 285.995 117.213 286.451 116.118L286.808 115.263Z" fill="white"/>
<path d="M286.808 115.263L287.09 115.949C287.593 117.143 288.549 118.089 289.749 118.58L290.491 118.88L289.777 119.171C289.175 119.42 288.628 119.785 288.168 120.246C287.709 120.708 287.345 121.256 287.099 121.859L286.902 122.357L286.601 121.727C286.055 120.581 285.08 119.696 283.886 119.265L283.237 119.031L284.083 118.617C285.152 118.102 285.995 117.213 286.451 116.118L286.808 115.263Z" stroke="white"/>
<path d="M286.808 115.263L287.09 115.949C287.593 117.143 288.549 118.089 289.749 118.58L290.491 118.88L289.777 119.171C289.175 119.42 288.628 119.785 288.168 120.246C287.709 120.708 287.345 121.256 287.099 121.859L286.902 122.357L286.601 121.727C286.055 120.581 285.08 119.696 283.886 119.265L283.237 119.031L284.083 118.617C285.152 118.102 285.995 117.213 286.451 116.118L286.808 115.263Z" stroke="white"/>
<path d="M354.571 89.0498L354.852 89.7357C355.356 90.9301 356.312 91.8762 357.512 92.3666L358.254 92.6673L357.54 92.9586C356.938 93.2067 356.391 93.5721 355.931 94.0334C355.471 94.4947 355.108 95.0429 354.862 95.6459L354.664 96.1439L354.364 95.5144C353.818 94.3682 352.842 93.4836 351.648 93.0526L351 92.8177L351.846 92.4042C352.915 91.8895 353.757 91.0001 354.213 89.9049L354.571 89.0498Z" fill="white"/>
<path d="M354.571 89.0498L354.852 89.7357C355.356 90.9301 356.312 91.8762 357.512 92.3666L358.254 92.6673L357.54 92.9586C356.938 93.2067 356.391 93.5721 355.931 94.0334C355.471 94.4947 355.108 95.0429 354.862 95.6459L354.664 96.1439L354.364 95.5144C353.818 94.3682 352.842 93.4836 351.648 93.0526L351 92.8177L351.846 92.4042C352.915 91.8895 353.757 91.0001 354.213 89.9049L354.571 89.0498Z" stroke="white"/>
<path d="M354.571 89.0498L354.852 89.7357C355.356 90.9301 356.312 91.8762 357.512 92.3666L358.254 92.6673L357.54 92.9586C356.938 93.2067 356.391 93.5721 355.931 94.0334C355.471 94.4947 355.108 95.0429 354.862 95.6459L354.664 96.1439L354.364 95.5144C353.818 94.3682 352.842 93.4836 351.648 93.0526L351 92.8177L351.846 92.4042C352.915 91.8895 353.757 91.0001 354.213 89.9049L354.571 89.0498Z" stroke="white"/>
<path d="M6.45512 203.765L6.7276 204.413C6.95938 204.979 7.30255 205.493 7.73674 205.924C8.17094 206.355 8.6873 206.694 9.25517 206.922L9.96927 207.213L9.28335 207.486C8.70844 207.718 8.18645 208.064 7.74884 208.503C7.31123 208.942 6.96704 209.465 6.737 210.041L6.53968 210.52L6.25779 209.919C5.72614 208.835 4.79745 207.997 3.66446 207.579L3.05371 207.354L3.86178 206.959C4.88019 206.467 5.68253 205.617 6.11685 204.573L6.45512 203.765Z" fill="white"/>
<path d="M6.45512 203.765L6.7276 204.413C6.95938 204.979 7.30255 205.493 7.73674 205.924C8.17094 206.355 8.6873 206.694 9.25517 206.922L9.96927 207.213L9.28335 207.486C8.70844 207.718 8.18645 208.064 7.74884 208.503C7.31123 208.942 6.96704 209.465 6.737 210.041L6.53968 210.52L6.25779 209.919C5.72614 208.835 4.79745 207.997 3.66446 207.579L3.05371 207.354L3.86178 206.959C4.88019 206.467 5.68253 205.617 6.11685 204.573L6.45512 203.765Z" stroke="white"/>
<path d="M6.45512 203.765L6.7276 204.413C6.95938 204.979 7.30255 205.493 7.73674 205.924C8.17094 206.355 8.6873 206.694 9.25517 206.922L9.96927 207.213L9.28335 207.486C8.70844 207.718 8.18645 208.064 7.74884 208.503C7.31123 208.942 6.96704 209.465 6.737 210.041L6.53968 210.52L6.25779 209.919C5.72614 208.835 4.79745 207.997 3.66446 207.579L3.05371 207.354L3.86178 206.959C4.88019 206.467 5.68253 205.617 6.11685 204.573L6.45512 203.765Z" stroke="white"/>
<path d="M316.787 107.717C313.199 108.043 309.588 108.043 306 107.717C309.588 107.391 313.199 107.391 316.787 107.717Z" fill="white" fill-opacity="0.25" stroke="white" stroke-opacity="0.25"/>
<path d="M322.509 93.0498C322.756 94.8646 322.838 96.6981 322.754 98.5278C322.838 100.354 322.756 102.185 322.509 103.996C322.268 102.184 322.186 100.354 322.265 98.5278C322.186 96.6981 322.268 94.8651 322.509 93.0498Z" fill="white" fill-opacity="0.25" stroke="white" stroke-opacity="0.25"/>
<path d="M328.607 107.388C332.196 107.063 335.806 107.063 339.394 107.388C335.806 107.714 332.196 107.714 328.607 107.388Z" fill="white" fill-opacity="0.25" stroke="white" stroke-opacity="0.25"/>
<path d="M322.885 122.037C322.638 120.225 322.556 118.395 322.641 116.568C322.556 114.739 322.638 112.905 322.885 111.09C323.126 112.906 323.208 114.739 323.129 116.568C323.208 118.395 323.126 120.225 322.885 122.037Z" fill="white" fill-opacity="0.25" stroke="white" stroke-opacity="0.25"/>
<path d="M331.595 115.741C330.781 115.151 330.07 114.43 329.491 113.608C328.788 112.884 328.205 112.053 327.762 111.146C328.573 111.74 329.283 112.46 329.866 113.279C330.572 114.001 331.156 114.832 331.595 115.741Z" fill="white" fill-opacity="0.25" stroke="white" stroke-opacity="0.25"/>
<path d="M331.097 99.1104C330.615 99.9335 329.999 100.67 329.274 101.29C328.664 102.033 327.934 102.669 327.113 103.169C327.588 102.341 328.201 101.601 328.927 100.98C329.539 100.238 330.273 99.6056 331.097 99.1104Z" fill="white" fill-opacity="0.25" stroke="white" stroke-opacity="0.25"/>
<path d="M318.732 103.348C317.965 103.023 317.269 102.55 316.684 101.957C315.641 101.093 314.861 100.304 314.945 100.2C315.03 100.097 315.951 100.717 316.994 101.581C318.037 102.446 318.816 103.245 318.732 103.348Z" fill="white" fill-opacity="0.25" stroke="white" stroke-opacity="0.25"/>
<path d="M318.253 110.677C317.841 111.484 317.291 112.212 316.627 112.829C315.622 113.919 314.748 114.708 314.635 114.642C315.038 113.838 315.582 113.112 316.242 112.5C316.797 111.776 317.478 111.159 318.253 110.677Z" fill="white" fill-opacity="0.25" stroke="white" stroke-opacity="0.25"/>
<path d="M1.78677 145.717C0.000306129 145.964 -1.80513 146.046 -3.60661 145.962C-5.4081 146.046 -7.21354 145.964 -9 145.717C-7.21303 145.476 -5.4081 145.394 -3.60661 145.473C-1.80513 145.394 -0.000202179 145.476 1.78677 145.717Z" fill="white" fill-opacity="0.25" stroke="white" stroke-opacity="0.25"/>
<path d="M7.50899 131.05C7.75591 132.861 7.83768 134.692 7.7533 136.518C7.83789 138.348 7.75612 140.181 7.50899 141.996C7.26751 140.181 7.18576 138.348 7.26469 136.518C7.18597 134.692 7.26772 132.862 7.50899 131.05Z" fill="white" fill-opacity="0.25" stroke="white" stroke-opacity="0.25"/>
<path d="M13.6072 145.369C15.3936 145.122 17.1991 145.04 19.0006 145.125C20.8021 145.04 22.6075 145.122 24.394 145.369C22.607 145.611 20.8021 145.693 19.0006 145.614C17.1991 145.693 15.3941 145.611 13.6072 145.369Z" fill="white" fill-opacity="0.25" stroke="white" stroke-opacity="0.25"/>
<path d="M7.88485 160.037C7.64357 158.225 7.56182 156.395 7.64055 154.568C7.56161 152.739 7.64336 150.906 7.88485 149.09C8.12634 150.906 8.20809 152.739 8.12915 154.568C8.20787 156.395 8.12613 158.225 7.88485 160.037Z" fill="white" fill-opacity="0.25" stroke="white" stroke-opacity="0.25"/>
<path d="M16.6045 153.732C15.7751 153.151 15.0506 152.433 14.4622 151.609C13.7572 150.89 13.1734 150.062 12.7333 149.156C13.5476 149.746 14.2588 150.467 14.838 151.289C15.5519 152.005 16.1481 152.83 16.6045 153.732Z" fill="white" fill-opacity="0.25" stroke="white" stroke-opacity="0.25"/>
<path d="M16.097 137.11C15.6206 137.935 15.0073 138.672 14.2835 139.29C13.6738 140.037 12.9395 140.673 12.113 141.169C12.595 140.346 13.2111 139.61 13.9359 138.99C14.5442 138.245 15.275 137.609 16.097 137.11Z" fill="white" fill-opacity="0.25" stroke="white" stroke-opacity="0.25"/>
<path d="M3.74116 141.348C2.97065 141.024 2.27145 140.551 1.68341 139.957C0.640436 139.084 -0.139446 138.294 -0.0548805 138.191C0.712159 138.516 1.40805 138.989 1.99348 139.582C3.04585 140.455 3.82572 141.245 3.74116 141.348Z" fill="white" fill-opacity="0.25" stroke="white" stroke-opacity="0.25"/>
<path d="M3.25252 148.677C2.84482 149.486 2.29411 150.215 1.62699 150.828C0.631 151.918 -0.252237 152.708 -0.36499 152.642C0.0626608 151.835 0.62878 151.11 1.30752 150.5C1.84545 149.784 2.50356 149.167 3.25252 148.677Z" fill="white" fill-opacity="0.25" stroke="white" stroke-opacity="0.25"/>
<path d="M73.7868 181.717C72.0003 181.964 70.1949 182.046 68.3934 181.962C66.5919 182.046 64.7865 181.964 63 181.717C64.787 181.476 66.5919 181.394 68.3934 181.473C70.1949 181.394 71.9998 181.476 73.7868 181.717Z" fill="white"/>
<path d="M73.7868 181.717C72.0003 181.964 70.1949 182.046 68.3934 181.962C66.5919 182.046 64.7865 181.964 63 181.717C64.787 181.476 66.5919 181.394 68.3934 181.473C70.1949 181.394 71.9998 181.476 73.7868 181.717Z" stroke="white"/>
<path d="M73.7868 181.717C72.0003 181.964 70.1949 182.046 68.3934 181.962C66.5919 182.046 64.7865 181.964 63 181.717C64.787 181.476 66.5919 181.394 68.3934 181.473C70.1949 181.394 71.9998 181.476 73.7868 181.717Z" stroke="white"/>
<path d="M79.509 167.05C79.7559 168.861 79.8377 170.692 79.7533 172.518C79.8379 174.348 79.7561 176.181 79.509 177.996C79.2675 176.181 79.1858 174.348 79.2647 172.518C79.186 170.692 79.2677 168.862 79.509 167.05Z" fill="white"/>
<path d="M79.509 167.05C79.7559 168.861 79.8377 170.692 79.7533 172.518C79.8379 174.348 79.7561 176.181 79.509 177.996C79.2675 176.181 79.1858 174.348 79.2647 172.518C79.186 170.692 79.2677 168.862 79.509 167.05Z" stroke="white"/>
<path d="M79.509 167.05C79.7559 168.861 79.8377 170.692 79.7533 172.518C79.8379 174.348 79.7561 176.181 79.509 177.996C79.2675 176.181 79.1858 174.348 79.2647 172.518C79.186 170.692 79.2677 168.862 79.509 167.05Z" stroke="white"/>
<path d="M85.6072 181.369C87.3936 181.122 89.1991 181.04 91.0006 181.125C92.8021 181.04 94.6075 181.122 96.394 181.369C94.607 181.611 92.8021 181.693 91.0006 181.614C89.1991 181.693 87.3941 181.611 85.6072 181.369Z" fill="white"/>
<path d="M85.6072 181.369C87.3936 181.122 89.1991 181.04 91.0006 181.125C92.8021 181.04 94.6075 181.122 96.394 181.369C94.607 181.611 92.8021 181.693 91.0006 181.614C89.1991 181.693 87.3941 181.611 85.6072 181.369Z" stroke="white"/>
<path d="M85.6072 181.369C87.3936 181.122 89.1991 181.04 91.0006 181.125C92.8021 181.04 94.6075 181.122 96.394 181.369C94.607 181.611 92.8021 181.693 91.0006 181.614C89.1991 181.693 87.3941 181.611 85.6072 181.369Z" stroke="white"/>
<path d="M79.8848 196.037C79.6436 194.225 79.5618 192.395 79.6405 190.568C79.5616 188.739 79.6434 186.906 79.8848 185.09C80.1263 186.906 80.2081 188.739 80.1292 190.568C80.2079 192.395 80.1261 194.225 79.8848 196.037Z" fill="white"/>
<path d="M79.8848 196.037C79.6436 194.225 79.5618 192.395 79.6405 190.568C79.5616 188.739 79.6434 186.906 79.8848 185.09C80.1263 186.906 80.2081 188.739 80.1292 190.568C80.2079 192.395 80.1261 194.225 79.8848 196.037Z" stroke="white"/>
<path d="M79.8848 196.037C79.6436 194.225 79.5618 192.395 79.6405 190.568C79.5616 188.739 79.6434 186.906 79.8848 185.09C80.1263 186.906 80.2081 188.739 80.1292 190.568C80.2079 192.395 80.1261 194.225 79.8848 196.037Z" stroke="white"/>
<path d="M88.6045 189.732C87.7751 189.151 87.0506 188.433 86.4622 187.609C85.7572 186.89 85.1734 186.062 84.7333 185.156C85.5476 185.746 86.2588 186.467 86.838 187.289C87.5519 188.005 88.1481 188.83 88.6045 189.732Z" fill="white"/>
<path d="M88.6045 189.732C87.7751 189.151 87.0506 188.433 86.4622 187.609C85.7572 186.89 85.1734 186.062 84.7333 185.156C85.5476 185.746 86.2588 186.467 86.838 187.289C87.5519 188.005 88.1481 188.83 88.6045 189.732Z" stroke="white"/>
<path d="M88.6045 189.732C87.7751 189.151 87.0506 188.433 86.4622 187.609C85.7572 186.89 85.1734 186.062 84.7333 185.156C85.5476 185.746 86.2588 186.467 86.838 187.289C87.5519 188.005 88.1481 188.83 88.6045 189.732Z" stroke="white"/>
<path d="M88.097 173.11C87.6206 173.935 87.0073 174.672 86.2835 175.29C85.6738 176.037 84.9395 176.673 84.113 177.169C84.595 176.346 85.2111 175.61 85.9359 174.99C86.5442 174.245 87.275 173.609 88.097 173.11Z" fill="white"/>
<path d="M88.097 173.11C87.6206 173.935 87.0073 174.672 86.2835 175.29C85.6738 176.037 84.9395 176.673 84.113 177.169C84.595 176.346 85.2111 175.61 85.9359 174.99C86.5442 174.245 87.275 173.609 88.097 173.11Z" stroke="white"/>
<path d="M88.097 173.11C87.6206 173.935 87.0073 174.672 86.2835 175.29C85.6738 176.037 84.9395 176.673 84.113 177.169C84.595 176.346 85.2111 175.61 85.9359 174.99C86.5442 174.245 87.275 173.609 88.097 173.11Z" stroke="white"/>
<path d="M75.7412 177.348C74.9707 177.024 74.2715 176.551 73.6834 175.957C72.6404 175.084 71.8606 174.294 71.9451 174.191C72.7122 174.516 73.408 174.989 73.9935 175.582C75.0458 176.455 75.8257 177.245 75.7412 177.348Z" fill="white"/>
<path d="M75.7412 177.348C74.9707 177.024 74.2715 176.551 73.6834 175.957C72.6404 175.084 71.8606 174.294 71.9451 174.191C72.7122 174.516 73.408 174.989 73.9935 175.582C75.0458 176.455 75.8257 177.245 75.7412 177.348Z" stroke="white"/>
<path d="M75.7412 177.348C74.9707 177.024 74.2715 176.551 73.6834 175.957C72.6404 175.084 71.8606 174.294 71.9451 174.191C72.7122 174.516 73.408 174.989 73.9935 175.582C75.0458 176.455 75.8257 177.245 75.7412 177.348Z" stroke="white"/>
<path d="M75.2525 184.677C74.8448 185.486 74.2941 186.215 73.627 186.828C72.631 187.918 71.7478 188.708 71.635 188.642C72.0627 187.835 72.6288 187.11 73.3075 186.5C73.8455 185.784 74.5036 185.167 75.2525 184.677Z" fill="white"/>
<path d="M75.2525 184.677C74.8448 185.486 74.2941 186.215 73.627 186.828C72.631 187.918 71.7478 188.708 71.635 188.642C72.0627 187.835 72.6288 187.11 73.3075 186.5C73.8455 185.784 74.5036 185.167 75.2525 184.677Z" stroke="white"/>
<path d="M75.2525 184.677C74.8448 185.486 74.2941 186.215 73.627 186.828C72.631 187.918 71.7478 188.708 71.635 188.642C72.0627 187.835 72.6288 187.11 73.3075 186.5C73.8455 185.784 74.5036 185.167 75.2525 184.677Z" stroke="white"/>
</g>
<defs>
<linearGradient id="paint0_linear_560_9220" x1="187.5" y1="-1.9502" x2="187.5" y2="212.05" gradientUnits="userSpaceOnUse">
<stop stop-color="#32959D"/>
<stop offset="1" stop-color="#036696" stop-opacity="0.8"/>
</linearGradient>
<clipPath id="clip0_560_9220">
<rect width="375" height="212" fill="white" transform="translate(0 0.0498047)"/>
</clipPath>
</defs>
</svg>
