<svg width="266" height="110" viewBox="0 0 266 110" fill="none" xmlns="http://www.w3.org/2000/svg">
<path d="M10.8711 10.2969V43H3.00977V10.2969H10.8711ZM28.8623 18.6973V23.9531H14.2178V18.6973H28.8623ZM17.2949 12.6553H24.8643V35.0713C24.8643 35.7152 24.9391 36.2168 25.0889 36.5762C25.2386 36.9206 25.4932 37.1676 25.8525 37.3174C26.2269 37.4521 26.721 37.5195 27.335 37.5195C27.7692 37.5195 28.1286 37.512 28.4131 37.4971C28.6976 37.4671 28.9671 37.4297 29.2217 37.3848V42.7979C28.5778 43.0075 27.904 43.1647 27.2002 43.2695C26.4964 43.3893 25.7477 43.4492 24.9541 43.4492C23.3369 43.4492 21.9518 43.1947 20.7988 42.6855C19.6608 42.1764 18.7923 41.3753 18.1934 40.2822C17.5944 39.1891 17.2949 37.7666 17.2949 36.0146V12.6553ZM39.1943 8.5V12.1836C39.1943 13.1868 38.9922 14.2126 38.5879 15.2607C38.1986 16.3089 37.6895 17.2972 37.0605 18.2256C36.4466 19.139 35.7878 19.9102 35.084 20.5391L31.7598 18.7422C32.2389 17.8887 32.6732 16.9453 33.0625 15.9121C33.4668 14.8639 33.6689 13.6136 33.6689 12.1611V8.5H39.1943ZM51.1211 36.1719C51.1211 35.7526 50.9788 35.3932 50.6943 35.0938C50.4248 34.7793 49.9456 34.4948 49.2568 34.2402C48.568 33.9707 47.6022 33.7012 46.3594 33.4316C45.1764 33.1771 44.0609 32.8402 43.0127 32.4209C41.9795 32.0016 41.0736 31.4925 40.2949 30.8936C39.5163 30.2946 38.9023 29.5833 38.4531 28.7598C38.0189 27.9362 37.8018 26.9928 37.8018 25.9297C37.8018 24.8965 38.0189 23.9232 38.4531 23.0098C38.9023 22.0814 39.5537 21.2653 40.4072 20.5615C41.2757 19.8428 42.3314 19.2812 43.5742 18.877C44.8171 18.4577 46.2321 18.248 47.8193 18.248C50.0055 18.248 51.8923 18.585 53.4795 19.2588C55.0667 19.9176 56.2871 20.846 57.1406 22.0439C58.0091 23.2269 58.4434 24.597 58.4434 26.1543H50.874C50.874 25.5404 50.7692 25.0163 50.5596 24.582C50.3649 24.1478 50.043 23.8184 49.5938 23.5938C49.1445 23.3542 48.5456 23.2344 47.7969 23.2344C47.2728 23.2344 46.7936 23.3317 46.3594 23.5264C45.9401 23.721 45.6032 23.9906 45.3486 24.335C45.0941 24.6794 44.9668 25.0837 44.9668 25.5479C44.9668 25.8773 45.0417 26.1768 45.1914 26.4463C45.3561 26.7008 45.6032 26.9404 45.9326 27.165C46.262 27.3747 46.6813 27.5693 47.1904 27.749C47.6995 27.9137 48.3135 28.0635 49.0322 28.1982C50.6644 28.4977 52.1917 28.9245 53.6143 29.4785C55.0368 30.0326 56.1898 30.8187 57.0732 31.8369C57.9717 32.8551 58.4209 34.2253 58.4209 35.9473C58.4209 37.0254 58.1738 38.0212 57.6797 38.9346C57.1855 39.833 56.4743 40.6266 55.5459 41.3154C54.6175 41.9893 53.502 42.5133 52.1992 42.8877C50.8965 43.262 49.429 43.4492 47.7969 43.4492C45.4759 43.4492 43.5143 43.0374 41.9121 42.2139C40.3099 41.3753 39.097 40.3271 38.2734 39.0693C37.4648 37.7965 37.0605 36.5088 37.0605 35.2061H44.1133C44.1432 35.9548 44.3229 36.5687 44.6523 37.0479C44.9967 37.527 45.4535 37.8789 46.0225 38.1035C46.5915 38.3281 47.2503 38.4404 47.999 38.4404C48.6878 38.4404 49.2568 38.3431 49.7061 38.1484C50.1702 37.9538 50.5221 37.6917 50.7617 37.3623C51.0013 37.0179 51.1211 36.6211 51.1211 36.1719ZM115.427 8.47754V43H107.857V8.47754H115.427ZM130.97 18.6973L120.413 31.0732L114.888 36.5986L111.586 31.792L116.19 25.7949L121.896 18.6973H130.97ZM122.861 43L116.37 31.9268L121.963 27.9512L131.531 43H122.861ZM145.569 36.8906V26.873C145.569 26.1842 145.472 25.5928 145.277 25.0986C145.083 24.6045 144.776 24.2227 144.356 23.9531C143.937 23.6686 143.376 23.5264 142.672 23.5264C142.103 23.5264 141.616 23.6237 141.212 23.8184C140.808 24.013 140.501 24.305 140.291 24.6943C140.081 25.0837 139.977 25.5778 139.977 26.1768H132.407C132.407 25.0537 132.654 24.013 133.148 23.0547C133.658 22.0814 134.376 21.2354 135.305 20.5166C136.248 19.7979 137.371 19.2438 138.674 18.8545C139.992 18.4502 141.459 18.248 143.076 18.248C145.008 18.248 146.73 18.57 148.242 19.2139C149.77 19.8577 150.975 20.8236 151.858 22.1113C152.742 23.3841 153.184 24.9863 153.184 26.918V36.8682C153.184 38.4554 153.273 39.6608 153.453 40.4844C153.633 41.293 153.887 42.0042 154.217 42.6182V43H146.625C146.266 42.2513 145.996 41.3379 145.816 40.2598C145.652 39.1667 145.569 38.0436 145.569 36.8906ZM146.49 28.1533L146.535 32.1963H143.188C142.485 32.1963 141.886 32.2936 141.392 32.4883C140.912 32.6829 140.523 32.9525 140.224 33.2969C139.939 33.6263 139.729 34.0007 139.595 34.4199C139.475 34.8392 139.415 35.2809 139.415 35.7451C139.415 36.1943 139.52 36.5986 139.729 36.958C139.954 37.3024 140.254 37.5719 140.628 37.7666C141.002 37.9613 141.422 38.0586 141.886 38.0586C142.724 38.0586 143.436 37.9014 144.02 37.5869C144.618 37.2575 145.075 36.8607 145.39 36.3965C145.704 35.9323 145.861 35.498 145.861 35.0938L147.523 38.1934C147.224 38.7923 146.88 39.3988 146.49 40.0127C146.116 40.6266 145.644 41.1956 145.075 41.7197C144.521 42.2288 143.84 42.6481 143.031 42.9775C142.223 43.292 141.242 43.4492 140.089 43.4492C138.591 43.4492 137.214 43.1423 135.956 42.5283C134.713 41.9144 133.717 41.0609 132.969 39.9678C132.22 38.8597 131.846 37.5869 131.846 36.1494C131.846 34.8916 132.07 33.7686 132.52 32.7803C132.984 31.792 133.68 30.9535 134.608 30.2646C135.537 29.5758 136.72 29.0518 138.157 28.6924C139.595 28.333 141.287 28.1533 143.233 28.1533H146.49ZM164.481 40.1475L170.771 18.6973H178.901L169.131 46.6162C168.921 47.2301 168.644 47.889 168.3 48.5928C167.955 49.3115 167.484 49.9928 166.885 50.6367C166.286 51.2806 165.515 51.8047 164.571 52.209C163.643 52.6133 162.49 52.8154 161.112 52.8154C160.379 52.8154 159.84 52.778 159.495 52.7031C159.166 52.6432 158.657 52.5309 157.968 52.3662V46.9531C158.162 46.9531 158.327 46.9531 158.462 46.9531C158.612 46.9531 158.776 46.9531 158.956 46.9531C159.765 46.9531 160.409 46.8708 160.888 46.7061C161.382 46.5413 161.756 46.3018 162.011 45.9873C162.28 45.6729 162.49 45.291 162.64 44.8418L164.481 40.1475ZM162.887 18.6973L167.671 35.7002L168.502 43.7188H163.426L154.778 18.6973H162.887ZM205.136 18.6973V23.9531H190.491V18.6973H205.136ZM193.568 12.6553H201.138V35.0713C201.138 35.7152 201.213 36.2168 201.362 36.5762C201.512 36.9206 201.767 37.1676 202.126 37.3174C202.5 37.4521 202.994 37.5195 203.608 37.5195C204.043 37.5195 204.402 37.512 204.687 37.4971C204.971 37.4671 205.241 37.4297 205.495 37.3848V42.7979C204.851 43.0075 204.177 43.1647 203.474 43.2695C202.77 43.3893 202.021 43.4492 201.228 43.4492C199.61 43.4492 198.225 43.1947 197.072 42.6855C195.934 42.1764 195.066 41.3753 194.467 40.2822C193.868 39.1891 193.568 37.7666 193.568 36.0146V12.6553ZM206.528 31.0957V30.624C206.528 28.8421 206.783 27.2025 207.292 25.7051C207.801 24.1927 208.55 22.8825 209.538 21.7744C210.526 20.6663 211.747 19.8053 213.199 19.1914C214.652 18.5625 216.329 18.248 218.23 18.248C220.147 18.248 221.832 18.5625 223.284 19.1914C224.752 19.8053 225.979 20.6663 226.968 21.7744C227.956 22.8825 228.705 24.1927 229.214 25.7051C229.723 27.2025 229.978 28.8421 229.978 30.624V31.0957C229.978 32.8626 229.723 34.5023 229.214 36.0146C228.705 37.512 227.956 38.8223 226.968 39.9453C225.979 41.0534 224.759 41.9144 223.307 42.5283C221.854 43.1423 220.177 43.4492 218.275 43.4492C216.374 43.4492 214.689 43.1423 213.222 42.5283C211.754 41.9144 210.526 41.0534 209.538 39.9453C208.55 38.8223 207.801 37.512 207.292 36.0146C206.783 34.5023 206.528 32.8626 206.528 31.0957ZM214.098 30.624V31.0957C214.098 32.0091 214.165 32.8626 214.3 33.6562C214.435 34.4499 214.659 35.1462 214.974 35.7451C215.288 36.3291 215.715 36.7858 216.254 37.1152C216.793 37.4447 217.467 37.6094 218.275 37.6094C219.069 37.6094 219.728 37.4447 220.252 37.1152C220.791 36.7858 221.218 36.3291 221.532 35.7451C221.847 35.1462 222.071 34.4499 222.206 33.6562C222.341 32.8626 222.408 32.0091 222.408 31.0957V30.624C222.408 29.7406 222.341 28.9095 222.206 28.1309C222.071 27.3372 221.847 26.641 221.532 26.042C221.218 25.4281 220.791 24.9489 220.252 24.6045C219.713 24.2601 219.039 24.0879 218.23 24.0879C217.437 24.0879 216.771 24.2601 216.231 24.6045C215.707 24.9489 215.288 25.4281 214.974 26.042C214.659 26.641 214.435 27.3372 214.3 28.1309C214.165 28.9095 214.098 29.7406 214.098 30.624Z" fill="#455A64" fill-opacity="0.5"/>
<path d="M29.8057 66.2969V99H21.9443L10.377 78.6504V99H2.49316V66.2969H10.377L21.9443 86.6465V66.2969H29.8057ZM33.4893 87.0957V86.624C33.4893 84.8421 33.7438 83.2025 34.2529 81.7051C34.762 80.1927 35.5107 78.8825 36.499 77.7744C37.4873 76.6663 38.7077 75.8053 40.1602 75.1914C41.6126 74.5625 43.2897 74.248 45.1914 74.248C47.1081 74.248 48.7926 74.5625 50.2451 75.1914C51.7126 75.8053 52.9404 76.6663 53.9287 77.7744C54.917 78.8825 55.6657 80.1927 56.1748 81.7051C56.6839 83.2025 56.9385 84.8421 56.9385 86.624V87.0957C56.9385 88.8626 56.6839 90.5023 56.1748 92.0146C55.6657 93.512 54.917 94.8223 53.9287 95.9453C52.9404 97.0534 51.7201 97.9144 50.2676 98.5283C48.8151 99.1423 47.138 99.4492 45.2363 99.4492C43.3346 99.4492 41.6501 99.1423 40.1826 98.5283C38.7152 97.9144 37.4873 97.0534 36.499 95.9453C35.5107 94.8223 34.762 93.512 34.2529 92.0146C33.7438 90.5023 33.4893 88.8626 33.4893 87.0957ZM41.0586 86.624V87.0957C41.0586 88.0091 41.126 88.8626 41.2607 89.6562C41.3955 90.4499 41.6201 91.1462 41.9346 91.7451C42.249 92.3291 42.6758 92.7858 43.2148 93.1152C43.7539 93.4447 44.4277 93.6094 45.2363 93.6094C46.0299 93.6094 46.6888 93.4447 47.2129 93.1152C47.752 92.7858 48.1787 92.3291 48.4932 91.7451C48.8076 91.1462 49.0322 90.4499 49.167 89.6562C49.3018 88.8626 49.3691 88.0091 49.3691 87.0957V86.624C49.3691 85.7406 49.3018 84.9095 49.167 84.1309C49.0322 83.3372 48.8076 82.641 48.4932 82.042C48.1787 81.4281 47.752 80.9489 47.2129 80.6045C46.6738 80.2601 46 80.0879 45.1914 80.0879C44.3978 80.0879 43.7314 80.2601 43.1924 80.6045C42.6683 80.9489 42.249 81.4281 41.9346 82.042C41.6201 82.641 41.3955 83.3372 41.2607 84.1309C41.126 84.9095 41.0586 85.7406 41.0586 86.624ZM73.1104 74.6973V79.9531H58.4658V74.6973H73.1104ZM61.543 68.6553H69.1123V91.0713C69.1123 91.7152 69.1872 92.2168 69.3369 92.5762C69.4867 92.9206 69.7412 93.1676 70.1006 93.3174C70.4749 93.4521 70.9691 93.5195 71.583 93.5195C72.0173 93.5195 72.3766 93.512 72.6611 93.4971C72.9456 93.4671 73.2152 93.4297 73.4697 93.3848V98.7979C72.8258 99.0075 72.152 99.1647 71.4482 99.2695C70.7445 99.3893 69.9958 99.4492 69.2021 99.4492C67.585 99.4492 66.1999 99.1947 65.0469 98.6855C63.9089 98.1764 63.0404 97.3753 62.4414 96.2822C61.8424 95.1891 61.543 93.7666 61.543 92.0146V68.6553ZM101.276 85.0967H92.8535L92.8086 79.9307H99.6367C100.865 79.9307 101.845 79.7959 102.579 79.5264C103.313 79.2419 103.844 78.8301 104.174 78.291C104.518 77.752 104.69 77.0781 104.69 76.2695C104.69 75.3411 104.518 74.5924 104.174 74.0234C103.829 73.4544 103.283 73.0426 102.534 72.7881C101.8 72.5186 100.85 72.3838 99.6816 72.3838H95.8184V99H87.9346V66.2969H99.6816C101.703 66.2969 103.507 66.484 105.095 66.8584C106.682 67.2178 108.03 67.7718 109.138 68.5205C110.261 69.2692 111.114 70.2126 111.698 71.3506C112.282 72.4736 112.574 73.7988 112.574 75.3262C112.574 76.6589 112.29 77.9092 111.721 79.0771C111.152 80.2451 110.201 81.196 108.868 81.9297C107.55 82.6484 105.746 83.0228 103.455 83.0527L101.276 85.0967ZM100.962 99H90.9443L93.6396 92.9355H100.962C102.04 92.9355 102.901 92.7708 103.545 92.4414C104.204 92.097 104.675 91.6478 104.96 91.0938C105.259 90.5247 105.409 89.8958 105.409 89.207C105.409 88.3685 105.267 87.6423 104.982 87.0283C104.713 86.4144 104.279 85.9427 103.68 85.6133C103.081 85.2689 102.28 85.0967 101.276 85.0967H94.6504L94.6953 79.9307H102.624L104.466 81.9971C106.652 81.9072 108.382 82.2142 109.654 82.918C110.942 83.6217 111.863 84.5501 112.417 85.7031C112.971 86.8561 113.248 88.0615 113.248 89.3193C113.248 91.4606 112.784 93.25 111.855 94.6875C110.942 96.125 109.572 97.2031 107.745 97.9219C105.918 98.6406 103.657 99 100.962 99ZM129.038 99.4492C127.062 99.4492 125.295 99.1423 123.737 98.5283C122.18 97.8994 120.862 97.0384 119.784 95.9453C118.721 94.8522 117.905 93.5944 117.336 92.1719C116.782 90.7493 116.505 89.2445 116.505 87.6572V86.8037C116.505 85.0218 116.752 83.3747 117.246 81.8623C117.74 80.335 118.474 79.0023 119.447 77.8643C120.421 76.7262 121.641 75.8428 123.108 75.2139C124.576 74.57 126.283 74.248 128.229 74.248C129.951 74.248 131.494 74.5251 132.856 75.0791C134.219 75.6331 135.372 76.4268 136.315 77.46C137.274 78.4932 138 79.7435 138.494 81.2109C139.003 82.6784 139.258 84.3255 139.258 86.1523V89.2295H119.402V84.4902H131.868V83.9062C131.883 83.0977 131.741 82.4089 131.441 81.8398C131.157 81.2708 130.738 80.8366 130.184 80.5371C129.63 80.2376 128.956 80.0879 128.162 80.0879C127.339 80.0879 126.657 80.2676 126.118 80.627C125.594 80.9863 125.182 81.4805 124.883 82.1094C124.598 82.7233 124.396 83.4346 124.276 84.2432C124.157 85.0518 124.097 85.9053 124.097 86.8037V87.6572C124.097 88.5557 124.216 89.3717 124.456 90.1055C124.711 90.8392 125.07 91.4681 125.534 91.9922C126.013 92.5013 126.582 92.8981 127.241 93.1826C127.915 93.4671 128.679 93.6094 129.532 93.6094C130.565 93.6094 131.584 93.4147 132.587 93.0254C133.59 92.6361 134.451 91.9922 135.17 91.0938L138.606 95.1816C138.112 95.8854 137.409 96.5667 136.495 97.2256C135.597 97.8844 134.519 98.4235 133.261 98.8428C132.003 99.2471 130.595 99.4492 129.038 99.4492ZM195.792 64.4775V99H188.223V64.4775H195.792ZM211.335 74.6973L200.778 87.0732L195.253 92.5986L191.951 87.792L196.556 81.7949L202.261 74.6973H211.335ZM203.227 99L196.735 87.9268L202.328 83.9512L211.896 99H203.227ZM225.935 92.8906V82.873C225.935 82.1842 225.837 81.5928 225.643 81.0986C225.448 80.6045 225.141 80.2227 224.722 79.9531C224.302 79.6686 223.741 79.5264 223.037 79.5264C222.468 79.5264 221.981 79.6237 221.577 79.8184C221.173 80.013 220.866 80.305 220.656 80.6943C220.447 81.0837 220.342 81.5778 220.342 82.1768H212.772C212.772 81.0537 213.02 80.013 213.514 79.0547C214.023 78.0814 214.742 77.2354 215.67 76.5166C216.613 75.7979 217.736 75.2438 219.039 74.8545C220.357 74.4502 221.824 74.248 223.441 74.248C225.373 74.248 227.095 74.57 228.607 75.2139C230.135 75.8577 231.34 76.8236 232.224 78.1113C233.107 79.3841 233.549 80.9863 233.549 82.918V92.8682C233.549 94.4554 233.639 95.6608 233.818 96.4844C233.998 97.293 234.253 98.0042 234.582 98.6182V99H226.99C226.631 98.2513 226.361 97.3379 226.182 96.2598C226.017 95.1667 225.935 94.0436 225.935 92.8906ZM226.855 84.1533L226.9 88.1963H223.554C222.85 88.1963 222.251 88.2936 221.757 88.4883C221.278 88.6829 220.888 88.9525 220.589 89.2969C220.304 89.6263 220.095 90.0007 219.96 90.4199C219.84 90.8392 219.78 91.2809 219.78 91.7451C219.78 92.1943 219.885 92.5986 220.095 92.958C220.319 93.3024 220.619 93.5719 220.993 93.7666C221.368 93.9613 221.787 94.0586 222.251 94.0586C223.09 94.0586 223.801 93.9014 224.385 93.5869C224.984 93.2575 225.44 92.8607 225.755 92.3965C226.069 91.9323 226.227 91.498 226.227 91.0938L227.889 94.1934C227.589 94.7923 227.245 95.3988 226.855 96.0127C226.481 96.6266 226.009 97.1956 225.44 97.7197C224.886 98.2288 224.205 98.6481 223.396 98.9775C222.588 99.292 221.607 99.4492 220.454 99.4492C218.957 99.4492 217.579 99.1423 216.321 98.5283C215.078 97.9144 214.083 97.0609 213.334 95.9678C212.585 94.8597 212.211 93.5869 212.211 92.1494C212.211 90.8916 212.436 89.7686 212.885 88.7803C213.349 87.792 214.045 86.9535 214.974 86.2646C215.902 85.5758 217.085 85.0518 218.522 84.6924C219.96 84.333 221.652 84.1533 223.599 84.1533H226.855ZM244.847 96.1475L251.136 74.6973H259.267L249.496 102.616C249.286 103.23 249.009 103.889 248.665 104.593C248.321 105.312 247.849 105.993 247.25 106.637C246.651 107.281 245.88 107.805 244.937 108.209C244.008 108.613 242.855 108.815 241.478 108.815C240.744 108.815 240.205 108.778 239.86 108.703C239.531 108.643 239.022 108.531 238.333 108.366V102.953C238.528 102.953 238.692 102.953 238.827 102.953C238.977 102.953 239.142 102.953 239.321 102.953C240.13 102.953 240.774 102.871 241.253 102.706C241.747 102.541 242.121 102.302 242.376 101.987C242.646 101.673 242.855 101.291 243.005 100.842L244.847 96.1475ZM243.252 74.6973L248.036 91.7002L248.867 99.7188H243.791L235.144 74.6973H243.252Z" fill="#455A64" fill-opacity="0.5"/>
<path d="M167 71C163.287 71 159.726 72.475 157.1 75.1005C154.475 77.7262 153 81.2874 153 85C153 88.7126 154.475 92.2738 157.1 94.8995C159.726 97.525 163.287 99 167 99C170.713 99 174.274 97.525 176.9 94.8995C179.525 92.2738 181 88.7126 181 85C180.996 81.2881 179.52 77.7297 176.895 75.1051C174.27 72.4802 170.712 71.0041 167 71.0001L167 71ZM167 97.0002C163.817 97.0002 160.765 95.7359 158.515 93.4854C156.264 91.235 155 88.1827 155 85.0002C155 81.8177 156.264 78.7653 158.515 76.515C160.765 74.2645 163.818 73.0002 167 73.0002C170.182 73.0002 173.235 74.2645 175.485 76.515C177.736 78.7655 179 81.8177 179 85.0002C178.997 88.1817 177.731 91.2317 175.481 93.482C173.232 95.7318 170.181 96.9972 167 97.0006L167 97.0002Z" fill="#01818C" stroke="#01818C" stroke-width="1.5"/>
<path d="M166.999 87.0005C162.511 87.0005 161.235 89.2916 161.104 89.5534C160.99 89.7856 160.971 90.0532 161.051 90.2994C161.131 90.5454 161.305 90.7501 161.535 90.8695C161.767 90.9901 162.037 91.0158 162.289 90.941C162.54 90.8664 162.752 90.6974 162.881 90.4695C162.916 90.4106 163.76 89.0006 167 89.0006C170.239 89.0006 171.083 90.4106 171.104 90.4477C171.264 90.7673 171.582 90.9776 171.939 90.9992C172.296 91.0206 172.637 90.8503 172.834 90.5521C173.031 90.2539 173.054 89.8733 172.895 89.5534C172.764 89.2916 171.487 87.0005 167 87.0005L166.999 87.0005Z" fill="#01818C" stroke="#01818C" stroke-width="1.5"/>
<path d="M165 81.5005C165 82.3289 164.328 83.0005 163.5 83.0005C162.672 83.0005 162 82.3289 162 81.5005C162 80.6722 162.672 80.0005 163.5 80.0005C164.328 80.0005 165 80.6722 165 81.5005Z" fill="#01818C" stroke="#01818C" stroke-width="1.5"/>
<path d="M172 81.5005C172 82.3289 171.328 83.0005 170.5 83.0005C169.672 83.0005 169 82.3289 169 81.5005C169 80.6722 169.672 80.0005 170.5 80.0005C171.328 80.0005 172 80.6722 172 81.5005Z" fill="#01818C" stroke="#01818C" stroke-width="1.5"/>
<path d="M90 15C86.287 15 82.7262 16.475 80.1005 19.1005C77.475 21.7262 76 25.2874 76 29C76 32.7126 77.475 36.2738 80.1005 38.8995C82.7262 41.525 86.2874 43 90 43C93.7126 43 97.2738 41.525 99.8995 38.8995C102.525 36.2738 104 32.7126 104 29C103.996 25.2881 102.52 21.7297 99.8951 19.1051C97.2705 16.4802 93.7116 15.0041 90.0001 15.0001L90 15ZM90 41.0002C86.8174 41.0002 83.7651 39.7359 81.5148 37.4854C79.2643 35.235 78 32.1827 78 29.0002C78 25.8177 79.2643 22.7653 81.5148 20.515C83.7653 18.2645 86.8175 17.0002 90 17.0002C93.1825 17.0002 96.2349 18.2645 98.4852 20.515C100.736 22.7655 102 25.8177 102 29.0002C101.997 32.1817 100.731 35.2317 98.4814 37.482C96.2317 39.7318 93.1814 40.9972 89.9997 41.0006L90 41.0002Z" fill="#01818C" stroke="#01818C" stroke-width="1.5"/>
<path d="M95.4654 31.1305C95.2326 31.0104 94.9625 30.9852 94.7116 31.0597C94.4605 31.1343 94.248 31.3028 94.1185 31.5305C94.0835 31.5885 93.2395 32.9995 90.0005 32.9995C86.7614 32.9995 85.9174 31.5886 85.8955 31.5524C85.7357 31.2327 85.4176 31.0225 85.0609 31.0008C84.704 30.9794 84.3629 31.1497 84.1658 31.4479C83.9687 31.7461 83.9457 32.1267 84.1053 32.4466C84.2364 32.7076 85.5125 34.9996 90.0002 34.9996C94.488 34.9996 95.7643 32.7076 95.9003 32.4466C96.0148 32.214 96.0333 31.9457 95.9519 31.6995C95.8706 31.4535 95.6958 31.2491 95.4653 31.1306L95.4654 31.1305Z" fill="#01818C" stroke="#01818C" stroke-width="1.5"/>
<path d="M88 25.5005C88 26.3289 87.3284 27.0005 86.5 27.0005C85.6717 27.0005 85 26.3289 85 25.5005C85 24.6722 85.6717 24.0005 86.5 24.0005C87.3284 24.0005 88 24.6722 88 25.5005Z" fill="#01818C" stroke="#01818C" stroke-width="1.5"/>
<path d="M95 25.5005C95 26.3289 94.3284 27.0005 93.5 27.0005C92.6717 27.0005 92 26.3289 92 25.5005C92 24.6722 92.6717 24.0005 93.5 24.0005C94.3284 24.0005 95 24.6722 95 25.5005Z" fill="#01818C" stroke="#01818C" stroke-width="1.5"/>
</svg>
