<svg width="356" height="125" viewBox="0 0 356 125" fill="none" xmlns="http://www.w3.org/2000/svg">
<path fill-rule="evenodd" clip-rule="evenodd" d="M30 0C13.4315 0 0 13.4315 0 30V95C0 111.569 13.4315 125 30 125H205.149H294H310.19C316.329 125 322.217 122.688 326.559 118.572C330.9 114.456 333.339 108.873 333.339 103.052V78.9248L356 57.4394H333.339V21.948C333.339 16.127 330.9 10.5445 326.559 6.42842C322.217 2.31237 316.329 0 310.19 0H294H205.149H30Z" fill="#FFFBEE"/>
<path d="M80.5039 47.2095C80.5039 47.019 80.4746 46.8481 80.416 46.6968C80.3623 46.5405 80.2598 46.3989 80.1084 46.272C79.957 46.1401 79.7446 46.0107 79.4712 45.8838C79.1978 45.7568 78.8438 45.625 78.4092 45.4883C77.9258 45.332 77.4668 45.1562 77.0322 44.9609C76.6025 44.7656 76.2217 44.5386 75.8896 44.2798C75.5625 44.0161 75.3037 43.7109 75.1133 43.3643C74.9277 43.0176 74.835 42.6147 74.835 42.1558C74.835 41.7114 74.9326 41.3086 75.1279 40.9473C75.3232 40.5811 75.5967 40.2686 75.9482 40.0098C76.2998 39.7461 76.7148 39.5435 77.1934 39.4019C77.6768 39.2603 78.2065 39.1895 78.7827 39.1895C79.5688 39.1895 80.2549 39.3311 80.8408 39.6143C81.4268 39.8975 81.8809 40.2856 82.2031 40.7788C82.5303 41.272 82.6938 41.8359 82.6938 42.4707H80.5112C80.5112 42.1582 80.4453 41.8848 80.3135 41.6504C80.1865 41.4111 79.9912 41.2231 79.7275 41.0864C79.4688 40.9497 79.1416 40.8813 78.7461 40.8813C78.3652 40.8813 78.0479 40.9399 77.7939 41.0571C77.54 41.1694 77.3496 41.3232 77.2227 41.5186C77.0957 41.709 77.0322 41.9238 77.0322 42.1631C77.0322 42.3438 77.0762 42.5073 77.1641 42.6538C77.2568 42.8003 77.3936 42.937 77.5742 43.064C77.7549 43.1909 77.9771 43.3105 78.2407 43.4229C78.5044 43.5352 78.8096 43.645 79.1562 43.7524C79.7373 43.9282 80.2476 44.126 80.687 44.3457C81.1313 44.5654 81.5024 44.812 81.8003 45.0854C82.0981 45.3589 82.3228 45.6689 82.4741 46.0156C82.6255 46.3623 82.7012 46.7554 82.7012 47.1948C82.7012 47.6587 82.6108 48.0737 82.4302 48.4399C82.2495 48.8062 81.9883 49.1162 81.6465 49.3701C81.3047 49.624 80.897 49.8169 80.4233 49.9487C79.9497 50.0806 79.4199 50.1465 78.834 50.1465C78.3066 50.1465 77.7866 50.0781 77.2739 49.9414C76.7612 49.7998 76.2949 49.5874 75.875 49.3042C75.46 49.021 75.1279 48.6597 74.8789 48.2202C74.6299 47.7808 74.5054 47.2607 74.5054 46.6602H76.71C76.71 46.9922 76.7612 47.2729 76.8638 47.5024C76.9663 47.7319 77.1104 47.9175 77.2959 48.0591C77.4863 48.2007 77.7109 48.3032 77.9697 48.3667C78.2334 48.4302 78.5215 48.4619 78.834 48.4619C79.2148 48.4619 79.5273 48.4082 79.7715 48.3008C80.0205 48.1934 80.2036 48.0444 80.3208 47.854C80.4429 47.6636 80.5039 47.4487 80.5039 47.2095ZM86.29 42.0752V50H84.1733V42.0752H86.29ZM84.0415 40.0098C84.0415 39.7021 84.1489 39.4482 84.3638 39.248C84.5786 39.0479 84.8667 38.9478 85.228 38.9478C85.5845 38.9478 85.8701 39.0479 86.085 39.248C86.3047 39.4482 86.4146 39.7021 86.4146 40.0098C86.4146 40.3174 86.3047 40.5713 86.085 40.7715C85.8701 40.9717 85.5845 41.0718 85.228 41.0718C84.8667 41.0718 84.5786 40.9717 84.3638 40.7715C84.1489 40.5713 84.0415 40.3174 84.0415 40.0098ZM90.1426 43.7158V50H88.0259V42.0752H90.0107L90.1426 43.7158ZM89.8496 45.7593H89.2637C89.2637 45.2075 89.3296 44.6997 89.4614 44.2358C89.5981 43.7671 89.7959 43.3618 90.0547 43.02C90.3184 42.6733 90.6431 42.4048 91.0288 42.2144C91.4146 42.0239 91.8613 41.9287 92.3691 41.9287C92.7207 41.9287 93.043 41.9824 93.3359 42.0898C93.6289 42.1924 93.8804 42.356 94.0903 42.5806C94.3052 42.8003 94.4712 43.0884 94.5884 43.4448C94.7056 43.7964 94.7642 44.2188 94.7642 44.7119V50H92.6548V44.9463C92.6548 44.585 92.606 44.3066 92.5083 44.1113C92.4106 43.916 92.2715 43.7793 92.0908 43.7012C91.915 43.623 91.7026 43.584 91.4536 43.584C91.1802 43.584 90.9409 43.6401 90.7358 43.7524C90.5356 43.8647 90.3696 44.021 90.2378 44.2212C90.106 44.4165 90.0083 44.646 89.9448 44.9097C89.8813 45.1733 89.8496 45.4565 89.8496 45.7593ZM94.5664 45.5176L93.812 45.6128C93.812 45.0952 93.8755 44.6143 94.0024 44.1699C94.1343 43.7256 94.3271 43.335 94.5811 42.998C94.8398 42.6611 95.1597 42.3999 95.5405 42.2144C95.9214 42.0239 96.3608 41.9287 96.8589 41.9287C97.2397 41.9287 97.5864 41.9849 97.8989 42.0972C98.2114 42.2046 98.4775 42.3779 98.6973 42.6172C98.9219 42.8516 99.0928 43.1592 99.21 43.54C99.332 43.9209 99.3931 44.3872 99.3931 44.939V50H97.2764V44.939C97.2764 44.5728 97.2275 44.2944 97.1299 44.104C97.0371 43.9087 96.9004 43.7744 96.7197 43.7012C96.5439 43.623 96.334 43.584 96.0898 43.584C95.8359 43.584 95.6138 43.6353 95.4233 43.7378C95.2329 43.8354 95.0742 43.9722 94.9473 44.1479C94.8203 44.3237 94.7251 44.5288 94.6616 44.7632C94.5981 44.9927 94.5664 45.2441 94.5664 45.5176ZM103.253 42.0752V50H101.136V42.0752H103.253ZM101.004 40.0098C101.004 39.7021 101.112 39.4482 101.327 39.248C101.542 39.0479 101.83 38.9478 102.191 38.9478C102.547 38.9478 102.833 39.0479 103.048 39.248C103.268 39.4482 103.377 39.7021 103.377 40.0098C103.377 40.3174 103.268 40.5713 103.048 40.7715C102.833 40.9717 102.547 41.0718 102.191 41.0718C101.83 41.0718 101.542 40.9717 101.327 40.7715C101.112 40.5713 101.004 40.3174 101.004 40.0098ZM107.223 38.75V50H105.106V38.75H107.223ZM113.243 48.2129V44.6826C113.243 44.4287 113.202 44.2114 113.119 44.0308C113.036 43.8452 112.906 43.7012 112.73 43.5986C112.56 43.4961 112.337 43.4448 112.064 43.4448C111.83 43.4448 111.627 43.4863 111.456 43.5693C111.285 43.6475 111.153 43.7622 111.061 43.9136C110.968 44.0601 110.921 44.2334 110.921 44.4336H108.812C108.812 44.0967 108.89 43.7769 109.046 43.4741C109.203 43.1714 109.43 42.9053 109.728 42.6758C110.025 42.4414 110.379 42.2583 110.79 42.1265C111.205 41.9946 111.668 41.9287 112.181 41.9287C112.796 41.9287 113.343 42.0312 113.822 42.2363C114.3 42.4414 114.676 42.749 114.95 43.1592C115.228 43.5693 115.367 44.082 115.367 44.6973V48.0884C115.367 48.5229 115.394 48.8794 115.448 49.1577C115.501 49.4312 115.58 49.6704 115.682 49.8755V50H113.551C113.448 49.7852 113.37 49.5166 113.316 49.1943C113.268 48.8672 113.243 48.54 113.243 48.2129ZM113.521 45.1733L113.536 46.3672H112.357C112.079 46.3672 111.837 46.3989 111.632 46.4624C111.427 46.5259 111.258 46.6162 111.126 46.7334C110.995 46.8457 110.897 46.9775 110.833 47.1289C110.775 47.2803 110.746 47.4463 110.746 47.627C110.746 47.8076 110.787 47.9712 110.87 48.1177C110.953 48.2593 111.073 48.3716 111.229 48.4546C111.385 48.5327 111.568 48.5718 111.778 48.5718C112.096 48.5718 112.372 48.5083 112.606 48.3813C112.84 48.2544 113.021 48.0981 113.148 47.9126C113.28 47.7271 113.348 47.5513 113.353 47.3853L113.91 48.2788C113.832 48.479 113.724 48.6865 113.587 48.9014C113.456 49.1162 113.287 49.3188 113.082 49.5093C112.877 49.6948 112.63 49.8486 112.342 49.9707C112.054 50.0879 111.712 50.1465 111.317 50.1465C110.814 50.1465 110.357 50.0464 109.947 49.8462C109.542 49.6411 109.22 49.3604 108.98 49.0039C108.746 48.6426 108.629 48.2324 108.629 47.7734C108.629 47.3584 108.707 46.9897 108.863 46.6675C109.02 46.3452 109.249 46.0742 109.552 45.8545C109.859 45.6299 110.243 45.4614 110.702 45.3491C111.161 45.2319 111.693 45.1733 112.298 45.1733H113.521ZM119.103 43.8037V50H116.993V42.0752H118.978L119.103 43.8037ZM121.49 42.0239L121.454 43.9795C121.351 43.9648 121.227 43.9526 121.08 43.9429C120.938 43.9282 120.809 43.9209 120.692 43.9209C120.394 43.9209 120.135 43.96 119.916 44.0381C119.701 44.1113 119.52 44.2212 119.374 44.3677C119.232 44.5142 119.125 44.6924 119.051 44.9023C118.983 45.1123 118.944 45.3516 118.934 45.6201L118.509 45.4883C118.509 44.9756 118.561 44.5044 118.663 44.0747C118.766 43.6401 118.915 43.2617 119.11 42.9395C119.31 42.6172 119.554 42.3682 119.842 42.1924C120.13 42.0166 120.46 41.9287 120.831 41.9287C120.948 41.9287 121.068 41.9385 121.19 41.958C121.312 41.9727 121.412 41.9946 121.49 42.0239ZM128.331 43.5986V53.0469H126.222V42.0752H128.177L128.331 43.5986ZM133.348 45.9497V46.1035C133.348 46.6797 133.28 47.2144 133.143 47.7075C133.011 48.2007 132.816 48.6304 132.557 48.9966C132.298 49.3579 131.976 49.6411 131.59 49.8462C131.209 50.0464 130.77 50.1465 130.272 50.1465C129.789 50.1465 129.369 50.0488 129.012 49.8535C128.656 49.6582 128.355 49.3848 128.111 49.0332C127.872 48.6768 127.679 48.2642 127.533 47.7954C127.386 47.3267 127.274 46.8237 127.196 46.2866V45.8838C127.274 45.3076 127.386 44.7803 127.533 44.3018C127.679 43.8184 127.872 43.4009 128.111 43.0493C128.355 42.6929 128.653 42.417 129.005 42.2217C129.361 42.0264 129.779 41.9287 130.257 41.9287C130.76 41.9287 131.202 42.0239 131.583 42.2144C131.969 42.4048 132.291 42.6782 132.55 43.0347C132.813 43.3911 133.011 43.8159 133.143 44.3091C133.28 44.8022 133.348 45.3491 133.348 45.9497ZM131.231 46.1035V45.9497C131.231 45.6128 131.202 45.3027 131.144 45.0195C131.09 44.7314 131.002 44.48 130.88 44.2651C130.763 44.0503 130.606 43.8843 130.411 43.7671C130.221 43.645 129.989 43.584 129.715 43.584C129.427 43.584 129.181 43.6304 128.976 43.7231C128.775 43.8159 128.612 43.9502 128.485 44.126C128.358 44.3018 128.263 44.5117 128.199 44.7559C128.136 45 128.097 45.2759 128.082 45.5835V46.6016C128.106 46.9629 128.175 47.2876 128.287 47.5757C128.399 47.8589 128.573 48.0835 128.807 48.2495C129.042 48.4155 129.349 48.4985 129.73 48.4985C130.008 48.4985 130.243 48.4375 130.433 48.3154C130.624 48.1885 130.777 48.0151 130.895 47.7954C131.017 47.5757 131.102 47.3218 131.151 47.0337C131.205 46.7456 131.231 46.4355 131.231 46.1035ZM134.322 46.1182V45.9644C134.322 45.3833 134.405 44.8486 134.571 44.3604C134.737 43.8672 134.979 43.4399 135.296 43.0786C135.614 42.7173 136.004 42.4365 136.468 42.2363C136.932 42.0312 137.464 41.9287 138.065 41.9287C138.666 41.9287 139.2 42.0312 139.669 42.2363C140.138 42.4365 140.531 42.7173 140.848 43.0786C141.17 43.4399 141.415 43.8672 141.581 44.3604C141.747 44.8486 141.83 45.3833 141.83 45.9644V46.1182C141.83 46.6943 141.747 47.229 141.581 47.7222C141.415 48.2104 141.17 48.6377 140.848 49.0039C140.531 49.3652 140.14 49.646 139.676 49.8462C139.212 50.0464 138.68 50.1465 138.08 50.1465C137.479 50.1465 136.944 50.0464 136.476 49.8462C136.012 49.646 135.619 49.3652 135.296 49.0039C134.979 48.6377 134.737 48.2104 134.571 47.7222C134.405 47.229 134.322 46.6943 134.322 46.1182ZM136.432 45.9644V46.1182C136.432 46.4502 136.461 46.7603 136.52 47.0483C136.578 47.3364 136.671 47.5903 136.798 47.8101C136.93 48.0249 137.101 48.1934 137.311 48.3154C137.521 48.4375 137.777 48.4985 138.08 48.4985C138.373 48.4985 138.624 48.4375 138.834 48.3154C139.044 48.1934 139.212 48.0249 139.339 47.8101C139.466 47.5903 139.559 47.3364 139.618 47.0483C139.681 46.7603 139.713 46.4502 139.713 46.1182V45.9644C139.713 45.6421 139.681 45.3394 139.618 45.0562C139.559 44.7681 139.464 44.5142 139.332 44.2944C139.205 44.0698 139.037 43.894 138.827 43.7671C138.617 43.6401 138.363 43.5767 138.065 43.5767C137.767 43.5767 137.513 43.6401 137.303 43.7671C137.098 43.894 136.93 44.0698 136.798 44.2944C136.671 44.5142 136.578 44.7681 136.52 45.0562C136.461 45.3394 136.432 45.6421 136.432 45.9644ZM147.411 47.8101C147.411 47.6587 147.367 47.522 147.279 47.3999C147.191 47.2778 147.027 47.1655 146.788 47.063C146.554 46.9556 146.214 46.8579 145.77 46.77C145.37 46.6821 144.996 46.5723 144.649 46.4404C144.308 46.3037 144.01 46.1401 143.756 45.9497C143.507 45.7593 143.312 45.5347 143.17 45.2759C143.028 45.0122 142.958 44.7119 142.958 44.375C142.958 44.043 143.028 43.7305 143.17 43.4375C143.316 43.1445 143.524 42.8857 143.792 42.6611C144.066 42.4316 144.398 42.2534 144.789 42.1265C145.184 41.9946 145.628 41.9287 146.122 41.9287C146.81 41.9287 147.401 42.0386 147.894 42.2583C148.392 42.478 148.773 42.7808 149.037 43.1665C149.305 43.5474 149.439 43.9819 149.439 44.4702H147.33C147.33 44.2651 147.286 44.082 147.198 43.9209C147.115 43.7549 146.983 43.6255 146.803 43.5327C146.627 43.4351 146.397 43.3862 146.114 43.3862C145.88 43.3862 145.677 43.4277 145.506 43.5107C145.335 43.5889 145.204 43.6963 145.111 43.833C145.023 43.9648 144.979 44.1113 144.979 44.2725C144.979 44.3945 145.003 44.5044 145.052 44.6021C145.106 44.6948 145.191 44.7803 145.309 44.8584C145.426 44.9365 145.577 45.0098 145.763 45.0781C145.953 45.1416 146.188 45.2002 146.466 45.2539C147.037 45.3711 147.547 45.5249 147.997 45.7153C148.446 45.9009 148.802 46.1548 149.066 46.4771C149.33 46.7944 149.461 47.2119 149.461 47.7295C149.461 48.0811 149.383 48.4033 149.227 48.6963C149.071 48.9893 148.846 49.2456 148.553 49.4653C148.26 49.6802 147.909 49.8486 147.499 49.9707C147.093 50.0879 146.637 50.1465 146.129 50.1465C145.392 50.1465 144.767 50.0146 144.254 49.751C143.746 49.4873 143.36 49.1528 143.097 48.7476C142.838 48.3374 142.708 47.9175 142.708 47.4878H144.708C144.718 47.7759 144.791 48.0078 144.928 48.1836C145.069 48.3594 145.248 48.4863 145.462 48.5645C145.682 48.6426 145.919 48.6816 146.173 48.6816C146.446 48.6816 146.673 48.645 146.854 48.5718C147.035 48.4937 147.171 48.3911 147.264 48.2642C147.362 48.1323 147.411 47.981 147.411 47.8101ZM153.058 42.0752V50H150.941V42.0752H153.058ZM150.809 40.0098C150.809 39.7021 150.917 39.4482 151.131 39.248C151.346 39.0479 151.634 38.9478 151.996 38.9478C152.352 38.9478 152.638 39.0479 152.853 39.248C153.072 39.4482 153.182 39.7021 153.182 40.0098C153.182 40.3174 153.072 40.5713 152.853 40.7715C152.638 40.9717 152.352 41.0718 151.996 41.0718C151.634 41.0718 151.346 40.9717 151.131 40.7715C150.917 40.5713 150.809 40.3174 150.809 40.0098ZM158.683 42.0752V43.5693H154.068V42.0752H158.683ZM155.211 40.1196H157.32V47.6123C157.32 47.8418 157.35 48.0176 157.408 48.1396C157.472 48.2617 157.564 48.3472 157.687 48.396C157.809 48.4399 157.962 48.4619 158.148 48.4619C158.28 48.4619 158.397 48.457 158.5 48.4473C158.607 48.4326 158.697 48.418 158.771 48.4033L158.778 49.9561C158.597 50.0146 158.402 50.061 158.192 50.0952C157.982 50.1294 157.75 50.1465 157.496 50.1465C157.032 50.1465 156.627 50.0708 156.28 49.9194C155.938 49.7632 155.675 49.5142 155.489 49.1724C155.304 48.8306 155.211 48.3813 155.211 47.8247V40.1196ZM162.11 42.0752V50H159.994V42.0752H162.11ZM159.862 40.0098C159.862 39.7021 159.969 39.4482 160.184 39.248C160.399 39.0479 160.687 38.9478 161.048 38.9478C161.405 38.9478 161.69 39.0479 161.905 39.248C162.125 39.4482 162.235 39.7021 162.235 40.0098C162.235 40.3174 162.125 40.5713 161.905 40.7715C161.69 40.9717 161.405 41.0718 161.048 41.0718C160.687 41.0718 160.399 40.9717 160.184 40.7715C159.969 40.5713 159.862 40.3174 159.862 40.0098ZM166.549 48.4619L168.307 42.0752H170.511L167.838 50H166.505L166.549 48.4619ZM165.34 42.0752L167.105 48.4692L167.142 50H165.802L163.128 42.0752H165.34ZM175.001 50.1465C174.386 50.1465 173.834 50.0488 173.346 49.8535C172.857 49.6533 172.442 49.3774 172.101 49.0259C171.764 48.6743 171.505 48.2666 171.324 47.8027C171.144 47.334 171.053 46.8359 171.053 46.3086V46.0156C171.053 45.415 171.139 44.8657 171.31 44.3677C171.48 43.8696 171.725 43.4375 172.042 43.0713C172.364 42.7051 172.755 42.4243 173.214 42.229C173.673 42.0288 174.19 41.9287 174.767 41.9287C175.328 41.9287 175.826 42.0215 176.261 42.207C176.695 42.3926 177.059 42.6562 177.352 42.998C177.65 43.3398 177.875 43.75 178.026 44.2285C178.177 44.7021 178.253 45.2295 178.253 45.8105V46.6895H171.954V45.2832H176.18V45.1221C176.18 44.8291 176.126 44.5679 176.019 44.3384C175.917 44.104 175.76 43.9185 175.55 43.7817C175.34 43.645 175.072 43.5767 174.745 43.5767C174.466 43.5767 174.227 43.6377 174.027 43.7598C173.827 43.8818 173.663 44.0527 173.536 44.2725C173.414 44.4922 173.321 44.751 173.258 45.0488C173.199 45.3418 173.17 45.6641 173.17 46.0156V46.3086C173.17 46.626 173.214 46.9189 173.302 47.1875C173.395 47.4561 173.524 47.688 173.69 47.8833C173.861 48.0786 174.066 48.23 174.305 48.3374C174.549 48.4448 174.825 48.4985 175.133 48.4985C175.514 48.4985 175.868 48.4253 176.195 48.2788C176.527 48.1274 176.812 47.9004 177.052 47.5977L178.077 48.7109C177.911 48.9502 177.684 49.1797 177.396 49.3994C177.113 49.6191 176.771 49.7998 176.371 49.9414C175.97 50.0781 175.514 50.1465 175.001 50.1465ZM186.837 50.1465C186.222 50.1465 185.67 50.0488 185.182 49.8535C184.693 49.6533 184.278 49.3774 183.937 49.0259C183.6 48.6743 183.341 48.2666 183.16 47.8027C182.979 47.334 182.889 46.8359 182.889 46.3086V46.0156C182.889 45.415 182.975 44.8657 183.146 44.3677C183.316 43.8696 183.561 43.4375 183.878 43.0713C184.2 42.7051 184.591 42.4243 185.05 42.229C185.509 42.0288 186.026 41.9287 186.603 41.9287C187.164 41.9287 187.662 42.0215 188.097 42.207C188.531 42.3926 188.895 42.6562 189.188 42.998C189.486 43.3398 189.71 43.75 189.862 44.2285C190.013 44.7021 190.089 45.2295 190.089 45.8105V46.6895H183.79V45.2832H188.016V45.1221C188.016 44.8291 187.962 44.5679 187.855 44.3384C187.752 44.104 187.596 43.9185 187.386 43.7817C187.176 43.645 186.908 43.5767 186.581 43.5767C186.302 43.5767 186.063 43.6377 185.863 43.7598C185.663 43.8818 185.499 44.0527 185.372 44.2725C185.25 44.4922 185.157 44.751 185.094 45.0488C185.035 45.3418 185.006 45.6641 185.006 46.0156V46.3086C185.006 46.626 185.05 46.9189 185.138 47.1875C185.23 47.4561 185.36 47.688 185.526 47.8833C185.697 48.0786 185.902 48.23 186.141 48.3374C186.385 48.4448 186.661 48.4985 186.969 48.4985C187.35 48.4985 187.704 48.4253 188.031 48.2788C188.363 48.1274 188.648 47.9004 188.888 47.5977L189.913 48.7109C189.747 48.9502 189.52 49.1797 189.232 49.3994C188.949 49.6191 188.607 49.7998 188.207 49.9414C187.806 50.0781 187.35 50.1465 186.837 50.1465ZM192.989 42.0752L194.3 44.4849L195.648 42.0752H197.896L195.655 45.9497L197.999 50H195.743L194.315 47.4512L192.887 50H190.631L192.975 45.9497L190.733 42.0752H192.989ZM201.031 43.5986V53.0469H198.922V42.0752H200.877L201.031 43.5986ZM206.048 45.9497V46.1035C206.048 46.6797 205.98 47.2144 205.843 47.7075C205.711 48.2007 205.516 48.6304 205.257 48.9966C204.999 49.3579 204.676 49.6411 204.291 49.8462C203.91 50.0464 203.47 50.1465 202.972 50.1465C202.489 50.1465 202.069 50.0488 201.712 49.8535C201.356 49.6582 201.056 49.3848 200.812 49.0332C200.572 48.6768 200.379 48.2642 200.233 47.7954C200.086 47.3267 199.974 46.8237 199.896 46.2866V45.8838C199.974 45.3076 200.086 44.7803 200.233 44.3018C200.379 43.8184 200.572 43.4009 200.812 43.0493C201.056 42.6929 201.354 42.417 201.705 42.2217C202.062 42.0264 202.479 41.9287 202.958 41.9287C203.46 41.9287 203.902 42.0239 204.283 42.2144C204.669 42.4048 204.991 42.6782 205.25 43.0347C205.514 43.3911 205.711 43.8159 205.843 44.3091C205.98 44.8022 206.048 45.3491 206.048 45.9497ZM203.932 46.1035V45.9497C203.932 45.6128 203.902 45.3027 203.844 45.0195C203.79 44.7314 203.702 44.48 203.58 44.2651C203.463 44.0503 203.307 43.8843 203.111 43.7671C202.921 43.645 202.689 43.584 202.416 43.584C202.127 43.584 201.881 43.6304 201.676 43.7231C201.476 43.8159 201.312 43.9502 201.185 44.126C201.058 44.3018 200.963 44.5117 200.899 44.7559C200.836 45 200.797 45.2759 200.782 45.5835V46.6016C200.807 46.9629 200.875 47.2876 200.987 47.5757C201.1 47.8589 201.273 48.0835 201.507 48.2495C201.742 48.4155 202.049 48.4985 202.43 48.4985C202.708 48.4985 202.943 48.4375 203.133 48.3154C203.324 48.1885 203.478 48.0151 203.595 47.7954C203.717 47.5757 203.802 47.3218 203.851 47.0337C203.905 46.7456 203.932 46.4355 203.932 46.1035ZM211.007 50.1465C210.392 50.1465 209.84 50.0488 209.352 49.8535C208.863 49.6533 208.448 49.3774 208.106 49.0259C207.77 48.6743 207.511 48.2666 207.33 47.8027C207.149 47.334 207.059 46.8359 207.059 46.3086V46.0156C207.059 45.415 207.145 44.8657 207.315 44.3677C207.486 43.8696 207.73 43.4375 208.048 43.0713C208.37 42.7051 208.761 42.4243 209.22 42.229C209.679 42.0288 210.196 41.9287 210.772 41.9287C211.334 41.9287 211.832 42.0215 212.267 42.207C212.701 42.3926 213.065 42.6562 213.358 42.998C213.656 43.3398 213.88 43.75 214.032 44.2285C214.183 44.7021 214.259 45.2295 214.259 45.8105V46.6895H207.96V45.2832H212.186V45.1221C212.186 44.8291 212.132 44.5679 212.025 44.3384C211.922 44.104 211.766 43.9185 211.556 43.7817C211.346 43.645 211.078 43.5767 210.75 43.5767C210.472 43.5767 210.233 43.6377 210.033 43.7598C209.833 43.8818 209.669 44.0527 209.542 44.2725C209.42 44.4922 209.327 44.751 209.264 45.0488C209.205 45.3418 209.176 45.6641 209.176 46.0156V46.3086C209.176 46.626 209.22 46.9189 209.308 47.1875C209.4 47.4561 209.53 47.688 209.696 47.8833C209.867 48.0786 210.072 48.23 210.311 48.3374C210.555 48.4448 210.831 48.4985 211.139 48.4985C211.52 48.4985 211.874 48.4253 212.201 48.2788C212.533 48.1274 212.818 47.9004 213.058 47.5977L214.083 48.7109C213.917 48.9502 213.69 49.1797 213.402 49.3994C213.119 49.6191 212.777 49.7998 212.376 49.9414C211.976 50.0781 211.52 50.1465 211.007 50.1465ZM217.569 43.8037V50H215.46V42.0752H217.445L217.569 43.8037ZM219.957 42.0239L219.92 43.9795C219.818 43.9648 219.693 43.9526 219.547 43.9429C219.405 43.9282 219.276 43.9209 219.159 43.9209C218.861 43.9209 218.602 43.96 218.382 44.0381C218.167 44.1113 217.987 44.2212 217.84 44.3677C217.699 44.5142 217.591 44.6924 217.518 44.9023C217.45 45.1123 217.411 45.3516 217.401 45.6201L216.976 45.4883C216.976 44.9756 217.027 44.5044 217.13 44.0747C217.232 43.6401 217.381 43.2617 217.577 42.9395C217.777 42.6172 218.021 42.3682 218.309 42.1924C218.597 42.0166 218.927 41.9287 219.298 41.9287C219.415 41.9287 219.535 41.9385 219.657 41.958C219.779 41.9727 219.879 41.9946 219.957 42.0239ZM223.18 42.0752V50H221.063V42.0752H223.18ZM220.931 40.0098C220.931 39.7021 221.039 39.4482 221.253 39.248C221.468 39.0479 221.756 38.9478 222.118 38.9478C222.474 38.9478 222.76 39.0479 222.975 39.248C223.194 39.4482 223.304 39.7021 223.304 40.0098C223.304 40.3174 223.194 40.5713 222.975 40.7715C222.76 40.9717 222.474 41.0718 222.118 41.0718C221.756 41.0718 221.468 40.9717 221.253 40.7715C221.039 40.5713 220.931 40.3174 220.931 40.0098ZM228.57 50.1465C227.955 50.1465 227.403 50.0488 226.915 49.8535C226.427 49.6533 226.012 49.3774 225.67 49.0259C225.333 48.6743 225.074 48.2666 224.894 47.8027C224.713 47.334 224.623 46.8359 224.623 46.3086V46.0156C224.623 45.415 224.708 44.8657 224.879 44.3677C225.05 43.8696 225.294 43.4375 225.611 43.0713C225.934 42.7051 226.324 42.4243 226.783 42.229C227.242 42.0288 227.76 41.9287 228.336 41.9287C228.897 41.9287 229.396 42.0215 229.83 42.207C230.265 42.3926 230.628 42.6562 230.921 42.998C231.219 43.3398 231.444 43.75 231.595 44.2285C231.747 44.7021 231.822 45.2295 231.822 45.8105V46.6895H225.523V45.2832H229.75V45.1221C229.75 44.8291 229.696 44.5679 229.588 44.3384C229.486 44.104 229.33 43.9185 229.12 43.7817C228.91 43.645 228.641 43.5767 228.314 43.5767C228.036 43.5767 227.796 43.6377 227.596 43.7598C227.396 43.8818 227.232 44.0527 227.105 44.2725C226.983 44.4922 226.891 44.751 226.827 45.0488C226.769 45.3418 226.739 45.6641 226.739 46.0156V46.3086C226.739 46.626 226.783 46.9189 226.871 47.1875C226.964 47.4561 227.093 47.688 227.259 47.8833C227.43 48.0786 227.635 48.23 227.875 48.3374C228.119 48.4448 228.395 48.4985 228.702 48.4985C229.083 48.4985 229.437 48.4253 229.764 48.2788C230.096 48.1274 230.382 47.9004 230.621 47.5977L231.646 48.7109C231.48 48.9502 231.253 49.1797 230.965 49.3994C230.682 49.6191 230.34 49.7998 229.94 49.9414C229.54 50.0781 229.083 50.1465 228.57 50.1465ZM235.089 43.7671V50H232.979V42.0752H234.957L235.089 43.7671ZM234.781 45.7593H234.21C234.21 45.1733 234.286 44.646 234.437 44.1772C234.588 43.7036 234.801 43.3008 235.074 42.9688C235.348 42.6318 235.672 42.3755 236.048 42.1997C236.429 42.019 236.854 41.9287 237.323 41.9287C237.694 41.9287 238.033 41.9824 238.341 42.0898C238.648 42.1973 238.912 42.3682 239.132 42.6025C239.356 42.8369 239.527 43.147 239.645 43.5327C239.767 43.9185 239.828 44.3896 239.828 44.9463V50H237.704V44.939C237.704 44.5874 237.655 44.314 237.557 44.1187C237.459 43.9233 237.315 43.7866 237.125 43.7085C236.939 43.6255 236.71 43.584 236.437 43.584C236.153 43.584 235.907 43.6401 235.697 43.7524C235.492 43.8647 235.321 44.021 235.184 44.2212C235.052 44.4165 234.952 44.646 234.884 44.9097C234.815 45.1733 234.781 45.4565 234.781 45.7593ZM244.706 48.4985C244.964 48.4985 245.194 48.4497 245.394 48.3521C245.594 48.2495 245.75 48.1079 245.863 47.9272C245.98 47.7417 246.041 47.5244 246.046 47.2754H248.031C248.026 47.832 247.877 48.3276 247.584 48.7622C247.291 49.1919 246.898 49.5312 246.405 49.7803C245.912 50.0244 245.36 50.1465 244.75 50.1465C244.134 50.1465 243.597 50.0439 243.138 49.8389C242.684 49.6338 242.306 49.3506 242.003 48.9893C241.7 48.623 241.473 48.1982 241.322 47.7148C241.17 47.2266 241.095 46.7041 241.095 46.1475V45.9351C241.095 45.3735 241.17 44.8511 241.322 44.3677C241.473 43.8794 241.7 43.4546 242.003 43.0933C242.306 42.7271 242.684 42.4414 243.138 42.2363C243.592 42.0312 244.125 41.9287 244.735 41.9287C245.384 41.9287 245.953 42.0532 246.441 42.3022C246.935 42.5513 247.32 42.9077 247.599 43.3716C247.882 43.8306 248.026 44.375 248.031 45.0049H246.046C246.041 44.7412 245.985 44.502 245.877 44.2871C245.775 44.0723 245.624 43.9014 245.423 43.7744C245.228 43.6426 244.986 43.5767 244.698 43.5767C244.391 43.5767 244.139 43.6426 243.944 43.7744C243.749 43.9014 243.597 44.0771 243.49 44.3018C243.382 44.5215 243.307 44.7729 243.263 45.0562C243.224 45.3345 243.204 45.6274 243.204 45.9351V46.1475C243.204 46.4551 243.224 46.7505 243.263 47.0337C243.302 47.3169 243.375 47.5684 243.482 47.7881C243.595 48.0078 243.749 48.1812 243.944 48.3081C244.139 48.4351 244.393 48.4985 244.706 48.4985ZM252.901 50.1465C252.286 50.1465 251.734 50.0488 251.246 49.8535C250.758 49.6533 250.343 49.3774 250.001 49.0259C249.664 48.6743 249.405 48.2666 249.225 47.8027C249.044 47.334 248.954 46.8359 248.954 46.3086V46.0156C248.954 45.415 249.039 44.8657 249.21 44.3677C249.381 43.8696 249.625 43.4375 249.942 43.0713C250.265 42.7051 250.655 42.4243 251.114 42.229C251.573 42.0288 252.091 41.9287 252.667 41.9287C253.229 41.9287 253.727 42.0215 254.161 42.207C254.596 42.3926 254.959 42.6562 255.252 42.998C255.55 43.3398 255.775 43.75 255.926 44.2285C256.078 44.7021 256.153 45.2295 256.153 45.8105V46.6895H249.854V45.2832H254.081V45.1221C254.081 44.8291 254.027 44.5679 253.919 44.3384C253.817 44.104 253.661 43.9185 253.451 43.7817C253.241 43.645 252.972 43.5767 252.645 43.5767C252.367 43.5767 252.127 43.6377 251.927 43.7598C251.727 43.8818 251.563 44.0527 251.437 44.2725C251.314 44.4922 251.222 44.751 251.158 45.0488C251.1 45.3418 251.07 45.6641 251.07 46.0156V46.3086C251.07 46.626 251.114 46.9189 251.202 47.1875C251.295 47.4561 251.424 47.688 251.59 47.8833C251.761 48.0786 251.966 48.23 252.206 48.3374C252.45 48.4448 252.726 48.4985 253.033 48.4985C253.414 48.4985 253.768 48.4253 254.095 48.2788C254.427 48.1274 254.713 47.9004 254.952 47.5977L255.978 48.7109C255.812 48.9502 255.584 49.1797 255.296 49.3994C255.013 49.6191 254.671 49.7998 254.271 49.9414C253.871 50.0781 253.414 50.1465 252.901 50.1465ZM263.778 50H261.654V41.3721C261.654 40.7715 261.771 40.2661 262.005 39.856C262.245 39.4409 262.579 39.1284 263.009 38.9185C263.443 38.7036 263.958 38.5962 264.554 38.5962C264.75 38.5962 264.938 38.6108 265.118 38.6401C265.299 38.6646 265.475 38.6963 265.646 38.7354L265.624 40.3247C265.531 40.3003 265.433 40.2832 265.331 40.2734C265.228 40.2637 265.108 40.2588 264.972 40.2588C264.718 40.2588 264.5 40.3027 264.32 40.3906C264.144 40.4736 264.01 40.5981 263.917 40.7642C263.824 40.9302 263.778 41.1328 263.778 41.3721V50ZM265.36 42.0752V43.5693H260.475V42.0752H265.36ZM268.575 43.8037V50H266.466V42.0752H268.451L268.575 43.8037ZM270.963 42.0239L270.926 43.9795C270.824 43.9648 270.699 43.9526 270.553 43.9429C270.411 43.9282 270.282 43.9209 270.165 43.9209C269.867 43.9209 269.608 43.96 269.388 44.0381C269.173 44.1113 268.993 44.2212 268.846 44.3677C268.705 44.5142 268.597 44.6924 268.524 44.9023C268.456 45.1123 268.417 45.3516 268.407 45.6201L267.982 45.4883C267.982 44.9756 268.033 44.5044 268.136 44.0747C268.238 43.6401 268.387 43.2617 268.583 42.9395C268.783 42.6172 269.027 42.3682 269.315 42.1924C269.603 42.0166 269.933 41.9287 270.304 41.9287C270.421 41.9287 270.541 41.9385 270.663 41.958C270.785 41.9727 270.885 41.9946 270.963 42.0239ZM271.402 46.1182V45.9644C271.402 45.3833 271.485 44.8486 271.651 44.3604C271.817 43.8672 272.059 43.4399 272.376 43.0786C272.694 42.7173 273.084 42.4365 273.548 42.2363C274.012 42.0312 274.544 41.9287 275.145 41.9287C275.746 41.9287 276.28 42.0312 276.749 42.2363C277.218 42.4365 277.611 42.7173 277.928 43.0786C278.25 43.4399 278.495 43.8672 278.661 44.3604C278.827 44.8486 278.91 45.3833 278.91 45.9644V46.1182C278.91 46.6943 278.827 47.229 278.661 47.7222C278.495 48.2104 278.25 48.6377 277.928 49.0039C277.611 49.3652 277.22 49.646 276.756 49.8462C276.292 50.0464 275.76 50.1465 275.16 50.1465C274.559 50.1465 274.024 50.0464 273.556 49.8462C273.092 49.646 272.699 49.3652 272.376 49.0039C272.059 48.6377 271.817 48.2104 271.651 47.7222C271.485 47.229 271.402 46.6943 271.402 46.1182ZM273.512 45.9644V46.1182C273.512 46.4502 273.541 46.7603 273.6 47.0483C273.658 47.3364 273.751 47.5903 273.878 47.8101C274.01 48.0249 274.181 48.1934 274.391 48.3154C274.601 48.4375 274.857 48.4985 275.16 48.4985C275.453 48.4985 275.704 48.4375 275.914 48.3154C276.124 48.1934 276.292 48.0249 276.419 47.8101C276.546 47.5903 276.639 47.3364 276.698 47.0483C276.761 46.7603 276.793 46.4502 276.793 46.1182V45.9644C276.793 45.6421 276.761 45.3394 276.698 45.0562C276.639 44.7681 276.544 44.5142 276.412 44.2944C276.285 44.0698 276.117 43.894 275.907 43.7671C275.697 43.6401 275.443 43.5767 275.145 43.5767C274.847 43.5767 274.593 43.6401 274.383 43.7671C274.178 43.894 274.01 44.0698 273.878 44.2944C273.751 44.5142 273.658 44.7681 273.6 45.0562C273.541 45.3394 273.512 45.6421 273.512 45.9644ZM282.315 43.7158V50H280.199V42.0752H282.184L282.315 43.7158ZM282.022 45.7593H281.437C281.437 45.2075 281.502 44.6997 281.634 44.2358C281.771 43.7671 281.969 43.3618 282.228 43.02C282.491 42.6733 282.816 42.4048 283.202 42.2144C283.587 42.0239 284.034 41.9287 284.542 41.9287C284.894 41.9287 285.216 41.9824 285.509 42.0898C285.802 42.1924 286.053 42.356 286.263 42.5806C286.478 42.8003 286.644 43.0884 286.761 43.4448C286.878 43.7964 286.937 44.2188 286.937 44.7119V50H284.828V44.9463C284.828 44.585 284.779 44.3066 284.681 44.1113C284.583 43.916 284.444 43.7793 284.264 43.7012C284.088 43.623 283.875 43.584 283.626 43.584C283.353 43.584 283.114 43.6401 282.909 43.7524C282.708 43.8647 282.542 44.021 282.411 44.2212C282.279 44.4165 282.181 44.646 282.118 44.9097C282.054 45.1733 282.022 45.4565 282.022 45.7593ZM286.739 45.5176L285.985 45.6128C285.985 45.0952 286.048 44.6143 286.175 44.1699C286.307 43.7256 286.5 43.335 286.754 42.998C287.013 42.6611 287.333 42.3999 287.713 42.2144C288.094 42.0239 288.534 41.9287 289.032 41.9287C289.413 41.9287 289.759 41.9849 290.072 42.0972C290.384 42.2046 290.65 42.3779 290.87 42.6172C291.095 42.8516 291.266 43.1592 291.383 43.54C291.505 43.9209 291.566 44.3872 291.566 44.939V50H289.449V44.939C289.449 44.5728 289.4 44.2944 289.303 44.104C289.21 43.9087 289.073 43.7744 288.893 43.7012C288.717 43.623 288.507 43.584 288.263 43.584C288.009 43.584 287.787 43.6353 287.596 43.7378C287.406 43.8354 287.247 43.9722 287.12 44.1479C286.993 44.3237 286.898 44.5288 286.834 44.7632C286.771 44.9927 286.739 45.2441 286.739 45.5176ZM79.874 62.314V73H77.7646V64.7456L75.2305 65.5513V63.8887L79.647 62.314H79.874ZM90.5234 66.7305V68.5762C90.5234 69.377 90.438 70.0679 90.2671 70.6489C90.0962 71.2251 89.8496 71.6987 89.5273 72.0698C89.21 72.436 88.8315 72.707 88.3921 72.8828C87.9526 73.0586 87.4644 73.1465 86.9272 73.1465C86.4976 73.1465 86.0972 73.0928 85.7261 72.9854C85.355 72.873 85.0205 72.6997 84.7227 72.4653C84.4297 72.231 84.1758 71.9355 83.9609 71.5791C83.751 71.2178 83.5898 70.7881 83.4775 70.29C83.3652 69.792 83.3091 69.2207 83.3091 68.5762V66.7305C83.3091 65.9297 83.3945 65.2437 83.5654 64.6724C83.7412 64.0962 83.9878 63.625 84.3052 63.2588C84.6274 62.8926 85.0083 62.624 85.4478 62.4531C85.8872 62.2773 86.3755 62.1895 86.9126 62.1895C87.3423 62.1895 87.7402 62.2456 88.1064 62.3579C88.4775 62.4653 88.812 62.6338 89.1099 62.8633C89.4077 63.0928 89.6616 63.3882 89.8716 63.7495C90.0815 64.106 90.2427 64.5332 90.355 65.0312C90.4673 65.5244 90.5234 66.0908 90.5234 66.7305ZM88.4067 68.8545V66.4448C88.4067 66.0591 88.3848 65.7222 88.3408 65.4341C88.3018 65.146 88.2407 64.9019 88.1577 64.7017C88.0747 64.4966 87.9722 64.3306 87.8501 64.2036C87.728 64.0767 87.5889 63.9839 87.4326 63.9253C87.2764 63.8667 87.103 63.8374 86.9126 63.8374C86.6733 63.8374 86.4609 63.8838 86.2754 63.9766C86.0947 64.0693 85.9409 64.2183 85.814 64.4233C85.687 64.6235 85.5894 64.8921 85.521 65.229C85.4575 65.561 85.4258 65.9663 85.4258 66.4448V68.8545C85.4258 69.2402 85.4453 69.5796 85.4844 69.8726C85.5283 70.1655 85.5918 70.417 85.6748 70.627C85.7627 70.832 85.8652 71.0005 85.9824 71.1323C86.1045 71.2593 86.2437 71.3521 86.3999 71.4106C86.561 71.4692 86.7368 71.4985 86.9272 71.4985C87.1616 71.4985 87.3691 71.4521 87.5498 71.3594C87.7354 71.2617 87.8916 71.1104 88.0186 70.9053C88.1504 70.6953 88.248 70.4219 88.3115 70.085C88.375 69.748 88.4067 69.3379 88.4067 68.8545ZM99.1367 66.7305V68.5762C99.1367 69.377 99.0513 70.0679 98.8804 70.6489C98.7095 71.2251 98.4629 71.6987 98.1406 72.0698C97.8232 72.436 97.4448 72.707 97.0054 72.8828C96.5659 73.0586 96.0776 73.1465 95.5405 73.1465C95.1108 73.1465 94.7104 73.0928 94.3394 72.9854C93.9683 72.873 93.6338 72.6997 93.3359 72.4653C93.043 72.231 92.7891 71.9355 92.5742 71.5791C92.3643 71.2178 92.2031 70.7881 92.0908 70.29C91.9785 69.792 91.9224 69.2207 91.9224 68.5762V66.7305C91.9224 65.9297 92.0078 65.2437 92.1787 64.6724C92.3545 64.0962 92.6011 63.625 92.9185 63.2588C93.2407 62.8926 93.6216 62.624 94.061 62.4531C94.5005 62.2773 94.9888 62.1895 95.5259 62.1895C95.9556 62.1895 96.3535 62.2456 96.7197 62.3579C97.0908 62.4653 97.4253 62.6338 97.7231 62.8633C98.021 63.0928 98.2749 63.3882 98.4849 63.7495C98.6948 64.106 98.856 64.5332 98.9683 65.0312C99.0806 65.5244 99.1367 66.0908 99.1367 66.7305ZM97.02 68.8545V66.4448C97.02 66.0591 96.998 65.7222 96.9541 65.4341C96.915 65.146 96.854 64.9019 96.771 64.7017C96.688 64.4966 96.5854 64.3306 96.4634 64.2036C96.3413 64.0767 96.2021 63.9839 96.0459 63.9253C95.8896 63.8667 95.7163 63.8374 95.5259 63.8374C95.2866 63.8374 95.0742 63.8838 94.8887 63.9766C94.708 64.0693 94.5542 64.2183 94.4272 64.4233C94.3003 64.6235 94.2026 64.8921 94.1343 65.229C94.0708 65.561 94.0391 65.9663 94.0391 66.4448V68.8545C94.0391 69.2402 94.0586 69.5796 94.0977 69.8726C94.1416 70.1655 94.2051 70.417 94.2881 70.627C94.376 70.832 94.4785 71.0005 94.5957 71.1323C94.7178 71.2593 94.8569 71.3521 95.0132 71.4106C95.1743 71.4692 95.3501 71.4985 95.5405 71.4985C95.7749 71.4985 95.9824 71.4521 96.1631 71.3594C96.3486 71.2617 96.5049 71.1104 96.6318 70.9053C96.7637 70.6953 96.8613 70.4219 96.9248 70.085C96.9883 69.748 97.02 69.3379 97.02 68.8545ZM107.75 66.7305V68.5762C107.75 69.377 107.665 70.0679 107.494 70.6489C107.323 71.2251 107.076 71.6987 106.754 72.0698C106.437 72.436 106.058 72.707 105.619 72.8828C105.179 73.0586 104.691 73.1465 104.154 73.1465C103.724 73.1465 103.324 73.0928 102.953 72.9854C102.582 72.873 102.247 72.6997 101.949 72.4653C101.656 72.231 101.402 71.9355 101.188 71.5791C100.978 71.2178 100.816 70.7881 100.704 70.29C100.592 69.792 100.536 69.2207 100.536 68.5762V66.7305C100.536 65.9297 100.621 65.2437 100.792 64.6724C100.968 64.0962 101.214 63.625 101.532 63.2588C101.854 62.8926 102.235 62.624 102.674 62.4531C103.114 62.2773 103.602 62.1895 104.139 62.1895C104.569 62.1895 104.967 62.2456 105.333 62.3579C105.704 62.4653 106.039 62.6338 106.336 62.8633C106.634 63.0928 106.888 63.3882 107.098 63.7495C107.308 64.106 107.469 64.5332 107.582 65.0312C107.694 65.5244 107.75 66.0908 107.75 66.7305ZM105.633 68.8545V66.4448C105.633 66.0591 105.611 65.7222 105.567 65.4341C105.528 65.146 105.467 64.9019 105.384 64.7017C105.301 64.4966 105.199 64.3306 105.077 64.2036C104.955 64.0767 104.815 63.9839 104.659 63.9253C104.503 63.8667 104.33 63.8374 104.139 63.8374C103.9 63.8374 103.688 63.8838 103.502 63.9766C103.321 64.0693 103.167 64.2183 103.041 64.4233C102.914 64.6235 102.816 64.8921 102.748 65.229C102.684 65.561 102.652 65.9663 102.652 66.4448V68.8545C102.652 69.2402 102.672 69.5796 102.711 69.8726C102.755 70.1655 102.818 70.417 102.901 70.627C102.989 70.832 103.092 71.0005 103.209 71.1323C103.331 71.2593 103.47 71.3521 103.626 71.4106C103.788 71.4692 103.963 71.4985 104.154 71.4985C104.388 71.4985 104.596 71.4521 104.776 71.3594C104.962 71.2617 105.118 71.1104 105.245 70.9053C105.377 70.6953 105.475 70.4219 105.538 70.085C105.602 69.748 105.633 69.3379 105.633 68.8545ZM116.173 67.0601V68.8984H108.863V67.0601H116.173ZM113.521 64.167V71.9307H111.522V64.167H113.521ZM120.846 69.1182V68.9644C120.846 68.3833 120.929 67.8486 121.095 67.3604C121.261 66.8672 121.502 66.4399 121.82 66.0786C122.137 65.7173 122.528 65.4365 122.992 65.2363C123.456 65.0312 123.988 64.9287 124.588 64.9287C125.189 64.9287 125.724 65.0312 126.192 65.2363C126.661 65.4365 127.054 65.7173 127.372 66.0786C127.694 66.4399 127.938 66.8672 128.104 67.3604C128.27 67.8486 128.353 68.3833 128.353 68.9644V69.1182C128.353 69.6943 128.27 70.229 128.104 70.7222C127.938 71.2104 127.694 71.6377 127.372 72.0039C127.054 72.3652 126.664 72.646 126.2 72.8462C125.736 73.0464 125.204 73.1465 124.603 73.1465C124.002 73.1465 123.468 73.0464 122.999 72.8462C122.535 72.646 122.142 72.3652 121.82 72.0039C121.502 71.6377 121.261 71.2104 121.095 70.7222C120.929 70.229 120.846 69.6943 120.846 69.1182ZM122.955 68.9644V69.1182C122.955 69.4502 122.984 69.7603 123.043 70.0483C123.102 70.3364 123.194 70.5903 123.321 70.8101C123.453 71.0249 123.624 71.1934 123.834 71.3154C124.044 71.4375 124.3 71.4985 124.603 71.4985C124.896 71.4985 125.147 71.4375 125.357 71.3154C125.567 71.1934 125.736 71.0249 125.863 70.8101C125.99 70.5903 126.083 70.3364 126.141 70.0483C126.205 69.7603 126.236 69.4502 126.236 69.1182V68.9644C126.236 68.6421 126.205 68.3394 126.141 68.0562C126.083 67.7681 125.987 67.5142 125.855 67.2944C125.729 67.0698 125.56 66.894 125.35 66.7671C125.14 66.6401 124.886 66.5767 124.588 66.5767C124.291 66.5767 124.037 66.6401 123.827 66.7671C123.622 66.894 123.453 67.0698 123.321 67.2944C123.194 67.5142 123.102 67.7681 123.043 68.0562C122.984 68.3394 122.955 68.6421 122.955 68.9644ZM133.531 65.0752V66.5693H128.917V65.0752H133.531ZM130.06 63.1196H132.169V70.6123C132.169 70.8418 132.198 71.0176 132.257 71.1396C132.32 71.2617 132.413 71.3472 132.535 71.396C132.657 71.4399 132.811 71.4619 132.997 71.4619C133.128 71.4619 133.246 71.457 133.348 71.4473C133.456 71.4326 133.546 71.418 133.619 71.4033L133.626 72.9561C133.446 73.0146 133.25 73.061 133.041 73.0952C132.831 73.1294 132.599 73.1465 132.345 73.1465C131.881 73.1465 131.476 73.0708 131.129 72.9194C130.787 72.7632 130.523 72.5142 130.338 72.1724C130.152 71.8306 130.06 71.3813 130.06 70.8247V63.1196ZM136.791 61.75V73H134.681V61.75H136.791ZM136.49 68.7593H135.912C135.917 68.2075 135.99 67.6997 136.131 67.2358C136.273 66.7671 136.476 66.3618 136.739 66.02C137.003 65.6733 137.318 65.4048 137.684 65.2144C138.055 65.0239 138.465 64.9287 138.915 64.9287C139.305 64.9287 139.659 64.9849 139.977 65.0972C140.299 65.2046 140.575 65.3804 140.804 65.6245C141.039 65.8638 141.219 66.1787 141.346 66.5693C141.473 66.96 141.537 67.4336 141.537 67.9902V73H139.413V67.9756C139.413 67.624 139.361 67.3481 139.259 67.1479C139.161 66.9429 139.017 66.7988 138.827 66.7158C138.641 66.6279 138.412 66.584 138.138 66.584C137.835 66.584 137.577 66.6401 137.362 66.7524C137.152 66.8647 136.983 67.021 136.856 67.2212C136.729 67.4165 136.637 67.646 136.578 67.9097C136.52 68.1733 136.49 68.4565 136.49 68.7593ZM146.788 73.1465C146.173 73.1465 145.621 73.0488 145.133 72.8535C144.645 72.6533 144.229 72.3774 143.888 72.0259C143.551 71.6743 143.292 71.2666 143.111 70.8027C142.931 70.334 142.84 69.8359 142.84 69.3086V69.0156C142.84 68.415 142.926 67.8657 143.097 67.3677C143.268 66.8696 143.512 66.4375 143.829 66.0713C144.151 65.7051 144.542 65.4243 145.001 65.229C145.46 65.0288 145.978 64.9287 146.554 64.9287C147.115 64.9287 147.613 65.0215 148.048 65.207C148.482 65.3926 148.846 65.6562 149.139 65.998C149.437 66.3398 149.662 66.75 149.813 67.2285C149.964 67.7021 150.04 68.2295 150.04 68.8105V69.6895H143.741V68.2832H147.967V68.1221C147.967 67.8291 147.914 67.5679 147.806 67.3384C147.704 67.104 147.547 66.9185 147.337 66.7817C147.127 66.645 146.859 66.5767 146.532 66.5767C146.253 66.5767 146.014 66.6377 145.814 66.7598C145.614 66.8818 145.45 67.0527 145.323 67.2725C145.201 67.4922 145.108 67.751 145.045 68.0488C144.986 68.3418 144.957 68.6641 144.957 69.0156V69.3086C144.957 69.626 145.001 69.9189 145.089 70.1875C145.182 70.4561 145.311 70.688 145.477 70.8833C145.648 71.0786 145.853 71.23 146.092 71.3374C146.336 71.4448 146.612 71.4985 146.92 71.4985C147.301 71.4985 147.655 71.4253 147.982 71.2788C148.314 71.1274 148.6 70.9004 148.839 70.5977L149.864 71.7109C149.698 71.9502 149.471 72.1797 149.183 72.3994C148.9 72.6191 148.558 72.7998 148.158 72.9414C147.757 73.0781 147.301 73.1465 146.788 73.1465ZM153.351 66.8037V73H151.241V65.0752H153.226L153.351 66.8037ZM155.738 65.0239L155.702 66.9795C155.599 66.9648 155.475 66.9526 155.328 66.9429C155.187 66.9282 155.057 66.9209 154.94 66.9209C154.642 66.9209 154.383 66.96 154.164 67.0381C153.949 67.1113 153.768 67.2212 153.622 67.3677C153.48 67.5142 153.373 67.6924 153.299 67.9023C153.231 68.1123 153.192 68.3516 153.182 68.6201L152.757 68.4883C152.757 67.9756 152.809 67.5044 152.911 67.0747C153.014 66.6401 153.163 66.2617 153.358 65.9395C153.558 65.6172 153.802 65.3682 154.09 65.1924C154.378 65.0166 154.708 64.9287 155.079 64.9287C155.196 64.9287 155.316 64.9385 155.438 64.958C155.56 64.9727 155.66 64.9946 155.738 65.0239ZM161.019 70.8101C161.019 70.6587 160.975 70.522 160.887 70.3999C160.799 70.2778 160.636 70.1655 160.396 70.063C160.162 69.9556 159.823 69.8579 159.378 69.77C158.978 69.6821 158.604 69.5723 158.258 69.4404C157.916 69.3037 157.618 69.1401 157.364 68.9497C157.115 68.7593 156.92 68.5347 156.778 68.2759C156.637 68.0122 156.566 67.7119 156.566 67.375C156.566 67.043 156.637 66.7305 156.778 66.4375C156.925 66.1445 157.132 65.8857 157.401 65.6611C157.674 65.4316 158.006 65.2534 158.397 65.1265C158.792 64.9946 159.237 64.9287 159.73 64.9287C160.418 64.9287 161.009 65.0386 161.502 65.2583C162 65.478 162.381 65.7808 162.645 66.1665C162.914 66.5474 163.048 66.9819 163.048 67.4702H160.938C160.938 67.2651 160.895 67.082 160.807 66.9209C160.724 66.7549 160.592 66.6255 160.411 66.5327C160.235 66.4351 160.006 66.3862 159.723 66.3862C159.488 66.3862 159.286 66.4277 159.115 66.5107C158.944 66.5889 158.812 66.6963 158.719 66.833C158.631 66.9648 158.587 67.1113 158.587 67.2725C158.587 67.3945 158.612 67.5044 158.661 67.6021C158.714 67.6948 158.8 67.7803 158.917 67.8584C159.034 67.9365 159.186 68.0098 159.371 68.0781C159.562 68.1416 159.796 68.2002 160.074 68.2539C160.646 68.3711 161.156 68.5249 161.605 68.7153C162.054 68.9009 162.411 69.1548 162.674 69.4771C162.938 69.7944 163.07 70.2119 163.07 70.7295C163.07 71.0811 162.992 71.4033 162.835 71.6963C162.679 71.9893 162.455 72.2456 162.162 72.4653C161.869 72.6802 161.517 72.8486 161.107 72.9707C160.702 73.0879 160.245 73.1465 159.737 73.1465C159 73.1465 158.375 73.0146 157.862 72.751C157.354 72.4873 156.969 72.1528 156.705 71.7476C156.446 71.3374 156.317 70.9175 156.317 70.4878H158.316C158.326 70.7759 158.399 71.0078 158.536 71.1836C158.678 71.3594 158.856 71.4863 159.071 71.5645C159.291 71.6426 159.527 71.6816 159.781 71.6816C160.055 71.6816 160.282 71.645 160.462 71.5718C160.643 71.4937 160.78 71.3911 160.873 71.2642C160.97 71.1323 161.019 70.981 161.019 70.8101ZM168.175 61.75H170.284V71.1836L170.072 73H168.175V61.75ZM175.301 68.957V69.1108C175.301 69.7017 175.238 70.2437 175.111 70.7368C174.989 71.23 174.798 71.6572 174.54 72.0186C174.281 72.375 173.958 72.6533 173.573 72.8535C173.192 73.0488 172.743 73.1465 172.225 73.1465C171.742 73.1465 171.322 73.0488 170.965 72.8535C170.614 72.6582 170.318 72.3823 170.079 72.0259C169.84 71.6694 169.647 71.252 169.5 70.7734C169.354 70.2949 169.244 69.7725 169.171 69.2061V68.8691C169.244 68.3027 169.354 67.7803 169.5 67.3018C169.647 66.8232 169.84 66.4058 170.079 66.0493C170.318 65.6929 170.614 65.417 170.965 65.2217C171.317 65.0264 171.732 64.9287 172.21 64.9287C172.733 64.9287 173.187 65.0288 173.573 65.229C173.963 65.4243 174.286 65.7026 174.54 66.064C174.798 66.4204 174.989 66.8452 175.111 67.3384C175.238 67.8267 175.301 68.3662 175.301 68.957ZM173.192 69.1108V68.957C173.192 68.6348 173.167 68.332 173.119 68.0488C173.075 67.7607 172.997 67.5093 172.884 67.2944C172.772 67.0747 172.618 66.9014 172.423 66.7744C172.232 66.6475 171.986 66.584 171.683 66.584C171.395 66.584 171.151 66.6328 170.951 66.7305C170.75 66.8281 170.584 66.9648 170.453 67.1406C170.326 67.3164 170.23 67.5264 170.167 67.7705C170.104 68.0098 170.064 68.2734 170.05 68.5615V69.521C170.064 69.9067 170.128 70.2485 170.24 70.5464C170.357 70.8394 170.533 71.0713 170.768 71.2422C171.007 71.4082 171.317 71.4912 171.698 71.4912C171.996 71.4912 172.242 71.4326 172.438 71.3154C172.633 71.1982 172.784 71.0322 172.892 70.8174C173.004 70.6025 173.082 70.3511 173.126 70.063C173.17 69.77 173.192 69.4526 173.192 69.1108ZM180.89 71.2129V67.6826C180.89 67.4287 180.848 67.2114 180.765 67.0308C180.682 66.8452 180.553 66.7012 180.377 66.5986C180.206 66.4961 179.984 66.4448 179.71 66.4448C179.476 66.4448 179.273 66.4863 179.103 66.5693C178.932 66.6475 178.8 66.7622 178.707 66.9136C178.614 67.0601 178.568 67.2334 178.568 67.4336H176.458C176.458 67.0967 176.537 66.7769 176.693 66.4741C176.849 66.1714 177.076 65.9053 177.374 65.6758C177.672 65.4414 178.026 65.2583 178.436 65.1265C178.851 64.9946 179.315 64.9287 179.828 64.9287C180.443 64.9287 180.99 65.0312 181.468 65.2363C181.947 65.4414 182.323 65.749 182.596 66.1592C182.875 66.5693 183.014 67.082 183.014 67.6973V71.0884C183.014 71.5229 183.041 71.8794 183.094 72.1577C183.148 72.4312 183.226 72.6704 183.329 72.8755V73H181.197C181.095 72.7852 181.017 72.5166 180.963 72.1943C180.914 71.8672 180.89 71.54 180.89 71.2129ZM181.168 68.1733L181.183 69.3672H180.003C179.725 69.3672 179.483 69.3989 179.278 69.4624C179.073 69.5259 178.905 69.6162 178.773 69.7334C178.641 69.8457 178.543 69.9775 178.48 70.1289C178.421 70.2803 178.392 70.4463 178.392 70.627C178.392 70.8076 178.434 70.9712 178.517 71.1177C178.6 71.2593 178.719 71.3716 178.875 71.4546C179.032 71.5327 179.215 71.5718 179.425 71.5718C179.742 71.5718 180.018 71.5083 180.252 71.3813C180.487 71.2544 180.667 71.0981 180.794 70.9126C180.926 70.7271 180.995 70.5513 181 70.3853L181.556 71.2788C181.478 71.479 181.371 71.6865 181.234 71.9014C181.102 72.1162 180.934 72.3188 180.729 72.5093C180.523 72.6948 180.277 72.8486 179.989 72.9707C179.701 73.0879 179.359 73.1465 178.963 73.1465C178.46 73.1465 178.004 73.0464 177.594 72.8462C177.188 72.6411 176.866 72.3604 176.627 72.0039C176.393 71.6426 176.275 71.2324 176.275 70.7734C176.275 70.3584 176.354 69.9897 176.51 69.6675C176.666 69.3452 176.896 69.0742 177.198 68.8545C177.506 68.6299 177.889 68.4614 178.348 68.3491C178.807 68.2319 179.339 68.1733 179.945 68.1733H181.168ZM188.521 65.0752V66.5693H183.907V65.0752H188.521ZM185.05 63.1196H187.159V70.6123C187.159 70.8418 187.188 71.0176 187.247 71.1396C187.311 71.2617 187.403 71.3472 187.525 71.396C187.647 71.4399 187.801 71.4619 187.987 71.4619C188.119 71.4619 188.236 71.457 188.338 71.4473C188.446 71.4326 188.536 71.418 188.609 71.4033L188.617 72.9561C188.436 73.0146 188.241 73.061 188.031 73.0952C187.821 73.1294 187.589 73.1465 187.335 73.1465C186.871 73.1465 186.466 73.0708 186.119 72.9194C185.777 72.7632 185.514 72.5142 185.328 72.1724C185.143 71.8306 185.05 71.3813 185.05 70.8247V63.1196ZM193.604 65.0752V66.5693H188.99V65.0752H193.604ZM190.133 63.1196H192.242V70.6123C192.242 70.8418 192.271 71.0176 192.33 71.1396C192.394 71.2617 192.486 71.3472 192.608 71.396C192.73 71.4399 192.884 71.4619 193.07 71.4619C193.202 71.4619 193.319 71.457 193.421 71.4473C193.529 71.4326 193.619 71.418 193.692 71.4033L193.7 72.9561C193.519 73.0146 193.324 73.061 193.114 73.0952C192.904 73.1294 192.672 73.1465 192.418 73.1465C191.954 73.1465 191.549 73.0708 191.202 72.9194C190.86 72.7632 190.597 72.5142 190.411 72.1724C190.226 71.8306 190.133 71.3813 190.133 70.8247V63.1196ZM197.032 61.75V73H194.916V61.75H197.032ZM201.002 65.0752V73H198.885V65.0752H201.002ZM198.753 63.0098C198.753 62.7021 198.861 62.4482 199.076 62.248C199.291 62.0479 199.579 61.9478 199.94 61.9478C200.296 61.9478 200.582 62.0479 200.797 62.248C201.017 62.4482 201.126 62.7021 201.126 63.0098C201.126 63.3174 201.017 63.5713 200.797 63.7715C200.582 63.9717 200.296 64.0718 199.94 64.0718C199.579 64.0718 199.291 63.9717 199.076 63.7715C198.861 63.5713 198.753 63.3174 198.753 63.0098ZM204.811 66.7671V73H202.701V65.0752H204.679L204.811 66.7671ZM204.503 68.7593H203.932C203.932 68.1733 204.007 67.646 204.159 67.1772C204.31 66.7036 204.522 66.3008 204.796 65.9688C205.069 65.6318 205.394 65.3755 205.77 65.1997C206.151 65.019 206.576 64.9287 207.044 64.9287C207.416 64.9287 207.755 64.9824 208.062 65.0898C208.37 65.1973 208.634 65.3682 208.854 65.6025C209.078 65.8369 209.249 66.147 209.366 66.5327C209.488 66.9185 209.549 67.3896 209.549 67.9463V73H207.425V67.939C207.425 67.5874 207.376 67.314 207.279 67.1187C207.181 66.9233 207.037 66.7866 206.847 66.7085C206.661 66.6255 206.432 66.584 206.158 66.584C205.875 66.584 205.628 66.6401 205.418 66.7524C205.213 66.8647 205.042 67.021 204.906 67.2212C204.774 67.4165 204.674 67.646 204.605 67.9097C204.537 68.1733 204.503 68.4565 204.503 68.7593ZM216.17 65.0752H218.082V72.7363C218.082 73.459 217.921 74.0718 217.599 74.5747C217.281 75.0825 216.837 75.4658 216.266 75.7246C215.694 75.9883 215.03 76.1201 214.273 76.1201C213.941 76.1201 213.59 76.0762 213.219 75.9883C212.853 75.9004 212.501 75.7637 212.164 75.5781C211.832 75.3926 211.554 75.1582 211.329 74.875L212.259 73.6299C212.503 73.9131 212.787 74.1328 213.109 74.2891C213.431 74.4502 213.788 74.5308 214.178 74.5308C214.559 74.5308 214.881 74.46 215.145 74.3184C215.409 74.1816 215.611 73.979 215.753 73.7104C215.895 73.4468 215.965 73.127 215.965 72.751V66.9062L216.17 65.0752ZM210.838 69.1328V68.979C210.838 68.3735 210.912 67.8242 211.058 67.3311C211.209 66.833 211.422 66.4058 211.695 66.0493C211.974 65.6929 212.311 65.417 212.706 65.2217C213.102 65.0264 213.548 64.9287 214.046 64.9287C214.574 64.9287 215.016 65.0264 215.372 65.2217C215.729 65.417 216.021 65.6953 216.251 66.0566C216.48 66.4131 216.659 66.8354 216.786 67.3237C216.917 67.8071 217.02 68.3369 217.093 68.9131V69.25C217.02 69.8018 216.91 70.3145 216.764 70.7881C216.617 71.2617 216.424 71.6768 216.185 72.0332C215.946 72.3848 215.648 72.6582 215.292 72.8535C214.94 73.0488 214.52 73.1465 214.032 73.1465C213.543 73.1465 213.102 73.0464 212.706 72.8462C212.315 72.646 211.981 72.3652 211.703 72.0039C211.424 71.6426 211.209 71.2178 211.058 70.7295C210.912 70.2412 210.838 69.709 210.838 69.1328ZM212.948 68.979V69.1328C212.948 69.46 212.979 69.7651 213.043 70.0483C213.106 70.3315 213.204 70.583 213.336 70.8027C213.473 71.0176 213.641 71.186 213.841 71.3081C214.046 71.4253 214.288 71.4839 214.566 71.4839C214.952 71.4839 215.267 71.4033 215.511 71.2422C215.755 71.0762 215.938 70.8491 216.061 70.561C216.183 70.2729 216.253 69.9409 216.273 69.5649V68.6055C216.263 68.2979 216.222 68.022 216.148 67.7778C216.075 67.5288 215.973 67.3164 215.841 67.1406C215.709 66.9648 215.538 66.8281 215.328 66.7305C215.118 66.6328 214.869 66.584 214.581 66.584C214.303 66.584 214.061 66.6475 213.856 66.7744C213.656 66.8965 213.487 67.0649 213.351 67.2798C213.219 67.4946 213.119 67.7485 213.05 68.0415C212.982 68.3296 212.948 68.6421 212.948 68.979ZM227.735 71.2129V67.6826C227.735 67.4287 227.694 67.2114 227.611 67.0308C227.528 66.8452 227.398 66.7012 227.223 66.5986C227.052 66.4961 226.83 66.4448 226.556 66.4448C226.322 66.4448 226.119 66.4863 225.948 66.5693C225.777 66.6475 225.646 66.7622 225.553 66.9136C225.46 67.0601 225.414 67.2334 225.414 67.4336H223.304C223.304 67.0967 223.382 66.7769 223.539 66.4741C223.695 66.1714 223.922 65.9053 224.22 65.6758C224.518 65.4414 224.872 65.2583 225.282 65.1265C225.697 64.9946 226.161 64.9287 226.673 64.9287C227.289 64.9287 227.835 65.0312 228.314 65.2363C228.792 65.4414 229.168 65.749 229.442 66.1592C229.72 66.5693 229.859 67.082 229.859 67.6973V71.0884C229.859 71.5229 229.886 71.8794 229.94 72.1577C229.994 72.4312 230.072 72.6704 230.174 72.8755V73H228.043C227.94 72.7852 227.862 72.5166 227.809 72.1943C227.76 71.8672 227.735 71.54 227.735 71.2129ZM228.014 68.1733L228.028 69.3672H226.849C226.571 69.3672 226.329 69.3989 226.124 69.4624C225.919 69.5259 225.75 69.6162 225.619 69.7334C225.487 69.8457 225.389 69.9775 225.326 70.1289C225.267 70.2803 225.238 70.4463 225.238 70.627C225.238 70.8076 225.279 70.9712 225.362 71.1177C225.445 71.2593 225.565 71.3716 225.721 71.4546C225.877 71.5327 226.061 71.5718 226.271 71.5718C226.588 71.5718 226.864 71.5083 227.098 71.3813C227.333 71.2544 227.513 71.0981 227.64 70.9126C227.772 70.7271 227.84 70.5513 227.845 70.3853L228.402 71.2788C228.324 71.479 228.216 71.6865 228.08 71.9014C227.948 72.1162 227.779 72.3188 227.574 72.5093C227.369 72.6948 227.123 72.8486 226.834 72.9707C226.546 73.0879 226.205 73.1465 225.809 73.1465C225.306 73.1465 224.85 73.0464 224.439 72.8462C224.034 72.6411 223.712 72.3604 223.473 72.0039C223.238 71.6426 223.121 71.2324 223.121 70.7734C223.121 70.3584 223.199 69.9897 223.355 69.6675C223.512 69.3452 223.741 69.0742 224.044 68.8545C224.352 68.6299 224.735 68.4614 225.194 68.3491C225.653 68.2319 226.185 68.1733 226.791 68.1733H228.014ZM233.551 66.7671V73H231.441V65.0752H233.419L233.551 66.7671ZM233.243 68.7593H232.672C232.672 68.1733 232.748 67.646 232.899 67.1772C233.05 66.7036 233.263 66.3008 233.536 65.9688C233.81 65.6318 234.134 65.3755 234.51 65.1997C234.891 65.019 235.316 64.9287 235.785 64.9287C236.156 64.9287 236.495 64.9824 236.803 65.0898C237.11 65.1973 237.374 65.3682 237.594 65.6025C237.818 65.8369 237.989 66.147 238.106 66.5327C238.229 66.9185 238.29 67.3896 238.29 67.9463V73H236.166V67.939C236.166 67.5874 236.117 67.314 236.019 67.1187C235.921 66.9233 235.777 66.7866 235.587 66.7085C235.401 66.6255 235.172 66.584 234.898 66.584C234.615 66.584 234.369 66.6401 234.159 66.7524C233.954 66.8647 233.783 67.021 233.646 67.2212C233.514 67.4165 233.414 67.646 233.346 67.9097C233.277 68.1733 233.243 68.4565 233.243 68.7593ZM241.593 65.0752L242.904 67.4849L244.251 65.0752H246.5L244.259 68.9497L246.603 73H244.347L242.918 70.4512L241.49 73H239.234L241.578 68.9497L239.337 65.0752H241.593ZM249.752 65.0752V73H247.635V65.0752H249.752ZM247.503 63.0098C247.503 62.7021 247.611 62.4482 247.826 62.248C248.041 62.0479 248.329 61.9478 248.69 61.9478C249.046 61.9478 249.332 62.0479 249.547 62.248C249.767 62.4482 249.876 62.7021 249.876 63.0098C249.876 63.3174 249.767 63.5713 249.547 63.7715C249.332 63.9717 249.046 64.0718 248.69 64.0718C248.329 64.0718 248.041 63.9717 247.826 63.7715C247.611 63.5713 247.503 63.3174 247.503 63.0098ZM255.143 73.1465C254.527 73.1465 253.976 73.0488 253.487 72.8535C252.999 72.6533 252.584 72.3774 252.242 72.0259C251.905 71.6743 251.646 71.2666 251.466 70.8027C251.285 70.334 251.195 69.8359 251.195 69.3086V69.0156C251.195 68.415 251.28 67.8657 251.451 67.3677C251.622 66.8696 251.866 66.4375 252.184 66.0713C252.506 65.7051 252.896 65.4243 253.355 65.229C253.814 65.0288 254.332 64.9287 254.908 64.9287C255.47 64.9287 255.968 65.0215 256.402 65.207C256.837 65.3926 257.201 65.6562 257.494 65.998C257.792 66.3398 258.016 66.75 258.167 67.2285C258.319 67.7021 258.395 68.2295 258.395 68.8105V69.6895H252.096V68.2832H256.322V68.1221C256.322 67.8291 256.268 67.5679 256.161 67.3384C256.058 67.104 255.902 66.9185 255.692 66.7817C255.482 66.645 255.213 66.5767 254.886 66.5767C254.608 66.5767 254.369 66.6377 254.168 66.7598C253.968 66.8818 253.805 67.0527 253.678 67.2725C253.556 67.4922 253.463 67.751 253.399 68.0488C253.341 68.3418 253.312 68.6641 253.312 69.0156V69.3086C253.312 69.626 253.355 69.9189 253.443 70.1875C253.536 70.4561 253.666 70.688 253.832 70.8833C254.002 71.0786 254.208 71.23 254.447 71.3374C254.691 71.4448 254.967 71.4985 255.274 71.4985C255.655 71.4985 256.009 71.4253 256.336 71.2788C256.668 71.1274 256.954 70.9004 257.193 70.5977L258.219 71.7109C258.053 71.9502 257.826 72.1797 257.538 72.3994C257.254 72.6191 256.913 72.7998 256.512 72.9414C256.112 73.0781 255.655 73.1465 255.143 73.1465ZM263.478 65.0752V66.5693H258.863V65.0752H263.478ZM260.006 63.1196H262.115V70.6123C262.115 70.8418 262.145 71.0176 262.203 71.1396C262.267 71.2617 262.359 71.3472 262.481 71.396C262.604 71.4399 262.757 71.4619 262.943 71.4619C263.075 71.4619 263.192 71.457 263.294 71.4473C263.402 71.4326 263.492 71.418 263.565 71.4033L263.573 72.9561C263.392 73.0146 263.197 73.061 262.987 73.0952C262.777 73.1294 262.545 73.1465 262.291 73.1465C261.827 73.1465 261.422 73.0708 261.075 72.9194C260.733 72.7632 260.47 72.5142 260.284 72.1724C260.099 71.8306 260.006 71.3813 260.006 70.8247V63.1196ZM267.03 72.1064L269.132 65.0752H271.395L268.209 74.1938C268.141 74.394 268.048 74.6089 267.931 74.8384C267.818 75.0679 267.665 75.2852 267.469 75.4902C267.279 75.7002 267.037 75.8711 266.744 76.0029C266.456 76.1348 266.102 76.2007 265.682 76.2007C265.482 76.2007 265.318 76.1885 265.191 76.1641C265.064 76.1396 264.913 76.1055 264.737 76.0615V74.5161C264.791 74.5161 264.847 74.5161 264.906 74.5161C264.964 74.521 265.021 74.5234 265.074 74.5234C265.353 74.5234 265.58 74.4917 265.755 74.4282C265.931 74.3647 266.073 74.2671 266.18 74.1353C266.288 74.0083 266.373 73.8423 266.437 73.6372L267.03 72.1064ZM266.151 65.0752L267.872 70.8174L268.172 73.0513L266.737 73.2051L263.888 65.0752H266.151ZM273.153 71.2202L273.146 72.6338C273.146 73.1758 273.009 73.7227 272.735 74.2744C272.467 74.8262 272.125 75.2778 271.71 75.6294L270.611 75.0654C270.733 74.8408 270.853 74.6162 270.97 74.3916C271.087 74.167 271.185 73.9204 271.263 73.6519C271.341 73.3833 271.38 73.0781 271.38 72.7363V71.2202H273.153ZM79.5005 94.2715V84.75H81.6245V96H79.7129L79.5005 94.2715ZM74.4907 92.1328V91.979C74.4907 91.3735 74.5591 90.8242 74.6958 90.3311C74.8325 89.833 75.0327 89.4058 75.2964 89.0493C75.5601 88.6929 75.8848 88.417 76.2705 88.2217C76.6562 88.0264 77.0957 87.9287 77.5889 87.9287C78.0527 87.9287 78.458 88.0264 78.8047 88.2217C79.1562 88.417 79.4541 88.6953 79.6982 89.0566C79.9473 89.4131 80.1475 89.8354 80.2988 90.3237C80.4502 90.8071 80.5601 91.3369 80.6284 91.9131V92.25C80.5601 92.8018 80.4502 93.3145 80.2988 93.7881C80.1475 94.2617 79.9473 94.6768 79.6982 95.0332C79.4541 95.3848 79.1562 95.6582 78.8047 95.8535C78.4531 96.0488 78.043 96.1465 77.5742 96.1465C77.0811 96.1465 76.6416 96.0464 76.2559 95.8462C75.875 95.646 75.5527 95.3652 75.2891 95.0039C75.0303 94.6426 74.8325 94.2178 74.6958 93.7295C74.5591 93.2412 74.4907 92.709 74.4907 92.1328ZM76.6001 91.979V92.1328C76.6001 92.46 76.6245 92.7651 76.6733 93.0483C76.7271 93.3315 76.8125 93.583 76.9297 93.8027C77.0518 94.0176 77.208 94.186 77.3984 94.3081C77.5938 94.4253 77.8306 94.4839 78.1089 94.4839C78.4702 94.4839 78.7681 94.4033 79.0024 94.2422C79.2368 94.0762 79.415 93.8491 79.5371 93.561C79.6641 93.2729 79.7373 92.9409 79.7568 92.5649V91.6055C79.7422 91.2979 79.6982 91.022 79.625 90.7778C79.5566 90.5288 79.4541 90.3164 79.3174 90.1406C79.1855 89.9648 79.0195 89.8281 78.8193 89.7305C78.624 89.6328 78.3921 89.584 78.1235 89.584C77.8501 89.584 77.6157 89.6475 77.4204 89.7744C77.2251 89.8965 77.0664 90.0649 76.9443 90.2798C76.8271 90.4946 76.7393 90.7485 76.6807 91.0415C76.627 91.3296 76.6001 91.6421 76.6001 91.979ZM86.9199 96.1465C86.3047 96.1465 85.7529 96.0488 85.2646 95.8535C84.7764 95.6533 84.3613 95.3774 84.0195 95.0259C83.6826 94.6743 83.4238 94.2666 83.2432 93.8027C83.0625 93.334 82.9722 92.8359 82.9722 92.3086V92.0156C82.9722 91.415 83.0576 90.8657 83.2285 90.3677C83.3994 89.8696 83.6436 89.4375 83.9609 89.0713C84.2832 88.7051 84.6738 88.4243 85.1328 88.229C85.5918 88.0288 86.1094 87.9287 86.6855 87.9287C87.2471 87.9287 87.7451 88.0215 88.1797 88.207C88.6143 88.3926 88.978 88.6562 89.271 88.998C89.5688 89.3398 89.7935 89.75 89.9448 90.2285C90.0962 90.7021 90.1719 91.2295 90.1719 91.8105V92.6895H83.873V91.2832H88.0991V91.1221C88.0991 90.8291 88.0454 90.5679 87.938 90.3384C87.8354 90.104 87.6792 89.9185 87.4692 89.7817C87.2593 89.645 86.9907 89.5767 86.6636 89.5767C86.3853 89.5767 86.146 89.6377 85.9458 89.7598C85.7456 89.8818 85.582 90.0527 85.4551 90.2725C85.333 90.4922 85.2402 90.751 85.1768 91.0488C85.1182 91.3418 85.0889 91.6641 85.0889 92.0156V92.3086C85.0889 92.626 85.1328 92.9189 85.2207 93.1875C85.3135 93.4561 85.4429 93.688 85.6089 93.8833C85.7798 94.0786 85.9849 94.23 86.2241 94.3374C86.4683 94.4448 86.7441 94.4985 87.0518 94.4985C87.4326 94.4985 87.7866 94.4253 88.1138 94.2788C88.4458 94.1274 88.7314 93.9004 88.9707 93.5977L89.9961 94.7109C89.8301 94.9502 89.603 95.1797 89.3149 95.3994C89.0317 95.6191 88.6899 95.7998 88.2896 95.9414C87.8892 96.0781 87.4326 96.1465 86.9199 96.1465ZM93.4824 89.5986V99.0469H91.373V88.0752H93.3286L93.4824 89.5986ZM98.4995 91.9497V92.1035C98.4995 92.6797 98.4312 93.2144 98.2944 93.7075C98.1626 94.2007 97.9673 94.6304 97.7085 94.9966C97.4497 95.3579 97.1274 95.6411 96.7417 95.8462C96.3608 96.0464 95.9214 96.1465 95.4233 96.1465C94.9399 96.1465 94.52 96.0488 94.1636 95.8535C93.8071 95.6582 93.5068 95.3848 93.2627 95.0332C93.0234 94.6768 92.8306 94.2642 92.6841 93.7954C92.5376 93.3267 92.4253 92.8237 92.3472 92.2866V91.8838C92.4253 91.3076 92.5376 90.7803 92.6841 90.3018C92.8306 89.8184 93.0234 89.4009 93.2627 89.0493C93.5068 88.6929 93.8047 88.417 94.1562 88.2217C94.5127 88.0264 94.9302 87.9287 95.4087 87.9287C95.9116 87.9287 96.3535 88.0239 96.7344 88.2144C97.1201 88.4048 97.4424 88.6782 97.7012 89.0347C97.9648 89.3911 98.1626 89.8159 98.2944 90.3091C98.4312 90.8022 98.4995 91.3491 98.4995 91.9497ZM96.3828 92.1035V91.9497C96.3828 91.6128 96.3535 91.3027 96.2949 91.0195C96.2412 90.7314 96.1533 90.48 96.0312 90.2651C95.9141 90.0503 95.7578 89.8843 95.5625 89.7671C95.3721 89.645 95.1401 89.584 94.8667 89.584C94.5786 89.584 94.332 89.6304 94.127 89.7231C93.9268 89.8159 93.7632 89.9502 93.6362 90.126C93.5093 90.3018 93.4141 90.5117 93.3506 90.7559C93.2871 91 93.248 91.2759 93.2334 91.5835V92.6016C93.2578 92.9629 93.3262 93.2876 93.4385 93.5757C93.5508 93.8589 93.7241 94.0835 93.9585 94.2495C94.1929 94.4155 94.5005 94.4985 94.8813 94.4985C95.1597 94.4985 95.394 94.4375 95.5845 94.3154C95.7749 94.1885 95.9287 94.0151 96.0459 93.7954C96.168 93.5757 96.2534 93.3218 96.3022 93.0337C96.356 92.7456 96.3828 92.4355 96.3828 92.1035ZM101.92 89.8037V96H99.8105V88.0752H101.795L101.92 89.8037ZM104.308 88.0239L104.271 89.9795C104.168 89.9648 104.044 89.9526 103.897 89.9429C103.756 89.9282 103.626 89.9209 103.509 89.9209C103.211 89.9209 102.953 89.96 102.733 90.0381C102.518 90.1113 102.337 90.2212 102.191 90.3677C102.049 90.5142 101.942 90.6924 101.869 90.9023C101.8 91.1123 101.761 91.3516 101.751 91.6201L101.327 91.4883C101.327 90.9756 101.378 90.5044 101.48 90.0747C101.583 89.6401 101.732 89.2617 101.927 88.9395C102.127 88.6172 102.372 88.3682 102.66 88.1924C102.948 88.0166 103.277 87.9287 103.648 87.9287C103.766 87.9287 103.885 87.9385 104.007 87.958C104.129 87.9727 104.229 87.9946 104.308 88.0239ZM108.805 96.1465C108.189 96.1465 107.638 96.0488 107.149 95.8535C106.661 95.6533 106.246 95.3774 105.904 95.0259C105.567 94.6743 105.309 94.2666 105.128 93.8027C104.947 93.334 104.857 92.8359 104.857 92.3086V92.0156C104.857 91.415 104.942 90.8657 105.113 90.3677C105.284 89.8696 105.528 89.4375 105.846 89.0713C106.168 88.7051 106.559 88.4243 107.018 88.229C107.477 88.0288 107.994 87.9287 108.57 87.9287C109.132 87.9287 109.63 88.0215 110.064 88.207C110.499 88.3926 110.863 88.6562 111.156 88.998C111.454 89.3398 111.678 89.75 111.83 90.2285C111.981 90.7021 112.057 91.2295 112.057 91.8105V92.6895H105.758V91.2832H109.984V91.1221C109.984 90.8291 109.93 90.5679 109.823 90.3384C109.72 90.104 109.564 89.9185 109.354 89.7817C109.144 89.645 108.875 89.5767 108.548 89.5767C108.27 89.5767 108.031 89.6377 107.831 89.7598C107.63 89.8818 107.467 90.0527 107.34 90.2725C107.218 90.4922 107.125 90.751 107.062 91.0488C107.003 91.3418 106.974 91.6641 106.974 92.0156V92.3086C106.974 92.626 107.018 92.9189 107.105 93.1875C107.198 93.4561 107.328 93.688 107.494 93.8833C107.665 94.0786 107.87 94.23 108.109 94.3374C108.353 94.4448 108.629 94.4985 108.937 94.4985C109.317 94.4985 109.671 94.4253 109.999 94.2788C110.331 94.1274 110.616 93.9004 110.855 93.5977L111.881 94.7109C111.715 94.9502 111.488 95.1797 111.2 95.3994C110.917 95.6191 110.575 95.7998 110.174 95.9414C109.774 96.0781 109.317 96.1465 108.805 96.1465ZM117.542 93.8101C117.542 93.6587 117.499 93.522 117.411 93.3999C117.323 93.2778 117.159 93.1655 116.92 93.063C116.686 92.9556 116.346 92.8579 115.902 92.77C115.501 92.6821 115.128 92.5723 114.781 92.4404C114.439 92.3037 114.142 92.1401 113.888 91.9497C113.639 91.7593 113.443 91.5347 113.302 91.2759C113.16 91.0122 113.089 90.7119 113.089 90.375C113.089 90.043 113.16 89.7305 113.302 89.4375C113.448 89.1445 113.656 88.8857 113.924 88.6611C114.198 88.4316 114.53 88.2534 114.92 88.1265C115.316 87.9946 115.76 87.9287 116.253 87.9287C116.942 87.9287 117.533 88.0386 118.026 88.2583C118.524 88.478 118.905 88.7808 119.168 89.1665C119.437 89.5474 119.571 89.9819 119.571 90.4702H117.462C117.462 90.2651 117.418 90.082 117.33 89.9209C117.247 89.7549 117.115 89.6255 116.935 89.5327C116.759 89.4351 116.529 89.3862 116.246 89.3862C116.012 89.3862 115.809 89.4277 115.638 89.5107C115.467 89.5889 115.335 89.6963 115.243 89.833C115.155 89.9648 115.111 90.1113 115.111 90.2725C115.111 90.3945 115.135 90.5044 115.184 90.6021C115.238 90.6948 115.323 90.7803 115.44 90.8584C115.558 90.9365 115.709 91.0098 115.895 91.0781C116.085 91.1416 116.319 91.2002 116.598 91.2539C117.169 91.3711 117.679 91.5249 118.128 91.7153C118.578 91.9009 118.934 92.1548 119.198 92.4771C119.461 92.7944 119.593 93.2119 119.593 93.7295C119.593 94.0811 119.515 94.4033 119.359 94.6963C119.203 94.9893 118.978 95.2456 118.685 95.4653C118.392 95.6802 118.041 95.8486 117.63 95.9707C117.225 96.0879 116.769 96.1465 116.261 96.1465C115.523 96.1465 114.898 96.0146 114.386 95.751C113.878 95.4873 113.492 95.1528 113.229 94.7476C112.97 94.3374 112.84 93.9175 112.84 93.4878H114.84C114.85 93.7759 114.923 94.0078 115.06 94.1836C115.201 94.3594 115.379 94.4863 115.594 94.5645C115.814 94.6426 116.051 94.6816 116.305 94.6816C116.578 94.6816 116.805 94.645 116.986 94.5718C117.167 94.4937 117.303 94.3911 117.396 94.2642C117.494 94.1323 117.542 93.981 117.542 93.8101ZM125.248 93.8101C125.248 93.6587 125.204 93.522 125.116 93.3999C125.028 93.2778 124.864 93.1655 124.625 93.063C124.391 92.9556 124.051 92.8579 123.607 92.77C123.207 92.6821 122.833 92.5723 122.486 92.4404C122.145 92.3037 121.847 92.1401 121.593 91.9497C121.344 91.7593 121.148 91.5347 121.007 91.2759C120.865 91.0122 120.794 90.7119 120.794 90.375C120.794 90.043 120.865 89.7305 121.007 89.4375C121.153 89.1445 121.361 88.8857 121.629 88.6611C121.903 88.4316 122.235 88.2534 122.625 88.1265C123.021 87.9946 123.465 87.9287 123.958 87.9287C124.647 87.9287 125.238 88.0386 125.731 88.2583C126.229 88.478 126.61 88.7808 126.874 89.1665C127.142 89.5474 127.276 89.9819 127.276 90.4702H125.167C125.167 90.2651 125.123 90.082 125.035 89.9209C124.952 89.7549 124.82 89.6255 124.64 89.5327C124.464 89.4351 124.234 89.3862 123.951 89.3862C123.717 89.3862 123.514 89.4277 123.343 89.5107C123.172 89.5889 123.041 89.6963 122.948 89.833C122.86 89.9648 122.816 90.1113 122.816 90.2725C122.816 90.3945 122.84 90.5044 122.889 90.6021C122.943 90.6948 123.028 90.7803 123.146 90.8584C123.263 90.9365 123.414 91.0098 123.6 91.0781C123.79 91.1416 124.024 91.2002 124.303 91.2539C124.874 91.3711 125.384 91.5249 125.833 91.7153C126.283 91.9009 126.639 92.1548 126.903 92.4771C127.167 92.7944 127.298 93.2119 127.298 93.7295C127.298 94.0811 127.22 94.4033 127.064 94.6963C126.908 94.9893 126.683 95.2456 126.39 95.4653C126.097 95.6802 125.746 95.8486 125.335 95.9707C124.93 96.0879 124.474 96.1465 123.966 96.1465C123.229 96.1465 122.604 96.0146 122.091 95.751C121.583 95.4873 121.197 95.1528 120.934 94.7476C120.675 94.3374 120.545 93.9175 120.545 93.4878H122.545C122.555 93.7759 122.628 94.0078 122.765 94.1836C122.906 94.3594 123.084 94.4863 123.299 94.5645C123.519 94.6426 123.756 94.6816 124.01 94.6816C124.283 94.6816 124.51 94.645 124.691 94.5718C124.872 94.4937 125.008 94.3911 125.101 94.2642C125.199 94.1323 125.248 93.981 125.248 93.8101ZM130.895 88.0752V96H128.778V88.0752H130.895ZM128.646 86.0098C128.646 85.7021 128.753 85.4482 128.968 85.248C129.183 85.0479 129.471 84.9478 129.833 84.9478C130.189 84.9478 130.475 85.0479 130.689 85.248C130.909 85.4482 131.019 85.7021 131.019 86.0098C131.019 86.3174 130.909 86.5713 130.689 86.7715C130.475 86.9717 130.189 87.0718 129.833 87.0718C129.471 87.0718 129.183 86.9717 128.968 86.7715C128.753 86.5713 128.646 86.3174 128.646 86.0098ZM132.301 92.1182V91.9644C132.301 91.3833 132.384 90.8486 132.55 90.3604C132.716 89.8672 132.958 89.4399 133.275 89.0786C133.592 88.7173 133.983 88.4365 134.447 88.2363C134.911 88.0312 135.443 87.9287 136.043 87.9287C136.644 87.9287 137.179 88.0312 137.647 88.2363C138.116 88.4365 138.509 88.7173 138.827 89.0786C139.149 89.4399 139.393 89.8672 139.559 90.3604C139.725 90.8486 139.808 91.3833 139.808 91.9644V92.1182C139.808 92.6943 139.725 93.229 139.559 93.7222C139.393 94.2104 139.149 94.6377 138.827 95.0039C138.509 95.3652 138.119 95.646 137.655 95.8462C137.191 96.0464 136.659 96.1465 136.058 96.1465C135.458 96.1465 134.923 96.0464 134.454 95.8462C133.99 95.646 133.597 95.3652 133.275 95.0039C132.958 94.6377 132.716 94.2104 132.55 93.7222C132.384 93.229 132.301 92.6943 132.301 92.1182ZM134.41 91.9644V92.1182C134.41 92.4502 134.439 92.7603 134.498 93.0483C134.557 93.3364 134.649 93.5903 134.776 93.8101C134.908 94.0249 135.079 94.1934 135.289 94.3154C135.499 94.4375 135.755 94.4985 136.058 94.4985C136.351 94.4985 136.603 94.4375 136.812 94.3154C137.022 94.1934 137.191 94.0249 137.318 93.8101C137.445 93.5903 137.538 93.3364 137.596 93.0483C137.66 92.7603 137.691 92.4502 137.691 92.1182V91.9644C137.691 91.6421 137.66 91.3394 137.596 91.0562C137.538 90.7681 137.442 90.5142 137.311 90.2944C137.184 90.0698 137.015 89.894 136.805 89.7671C136.595 89.6401 136.341 89.5767 136.043 89.5767C135.746 89.5767 135.492 89.6401 135.282 89.7671C135.077 89.894 134.908 90.0698 134.776 90.2944C134.649 90.5142 134.557 90.7681 134.498 91.0562C134.439 91.3394 134.41 91.6421 134.41 91.9644ZM143.17 89.7671V96H141.061V88.0752H143.038L143.17 89.7671ZM142.862 91.7593H142.291C142.291 91.1733 142.367 90.646 142.518 90.1772C142.669 89.7036 142.882 89.3008 143.155 88.9688C143.429 88.6318 143.753 88.3755 144.129 88.1997C144.51 88.019 144.935 87.9287 145.404 87.9287C145.775 87.9287 146.114 87.9824 146.422 88.0898C146.729 88.1973 146.993 88.3682 147.213 88.6025C147.438 88.8369 147.608 89.147 147.726 89.5327C147.848 89.9185 147.909 90.3896 147.909 90.9463V96H145.785V90.939C145.785 90.5874 145.736 90.314 145.638 90.1187C145.541 89.9233 145.396 89.7866 145.206 89.7085C145.021 89.6255 144.791 89.584 144.518 89.584C144.234 89.584 143.988 89.6401 143.778 89.7524C143.573 89.8647 143.402 90.021 143.265 90.2212C143.133 90.4165 143.033 90.646 142.965 90.9097C142.896 91.1733 142.862 91.4565 142.862 91.7593ZM151.512 94.2202L151.505 95.6338C151.505 96.1758 151.368 96.7227 151.095 97.2744C150.826 97.8262 150.484 98.2778 150.069 98.6294L148.971 98.0654C149.093 97.8408 149.212 97.6162 149.33 97.3916C149.447 97.167 149.544 96.9204 149.623 96.6519C149.701 96.3833 149.74 96.0781 149.74 95.7363V94.2202H151.512ZM161.407 87.1597L158.507 96H156.17L160.133 85.3359H161.62L161.407 87.1597ZM163.817 96L160.909 87.1597L160.675 85.3359H162.176L166.161 96H163.817ZM163.685 92.0303V93.7515H158.053V92.0303H163.685ZM170.423 96H168.102L168.116 94.2861H170.423C171 94.2861 171.485 94.1567 171.881 93.8979C172.276 93.6343 172.574 93.251 172.774 92.748C172.979 92.2451 173.082 91.6372 173.082 90.9243V90.4043C173.082 89.8574 173.023 89.3765 172.906 88.9614C172.794 88.5464 172.625 88.1973 172.401 87.9141C172.176 87.6309 171.9 87.4185 171.573 87.2769C171.246 87.1304 170.87 87.0571 170.445 87.0571H168.058V85.3359H170.445C171.158 85.3359 171.81 85.458 172.401 85.7021C172.997 85.9414 173.512 86.2856 173.946 86.7349C174.381 87.1841 174.715 87.7212 174.95 88.3462C175.189 88.9663 175.309 89.6572 175.309 90.4189V90.9243C175.309 91.6812 175.189 92.3721 174.95 92.9971C174.715 93.6221 174.381 94.1592 173.946 94.6084C173.517 95.0527 173.001 95.397 172.401 95.6411C171.805 95.8804 171.146 96 170.423 96ZM169.347 85.3359V96H167.149V85.3359H169.347ZM184.017 89.6792V91.3931H178.451V89.6792H184.017ZM179.103 85.3359V96H176.905V85.3359H179.103ZM185.584 85.3359V96H183.395V85.3359H185.584ZM190.77 96H188.448L188.463 94.2861H190.77C191.346 94.2861 191.832 94.1567 192.228 93.8979C192.623 93.6343 192.921 93.251 193.121 92.748C193.326 92.2451 193.429 91.6372 193.429 90.9243V90.4043C193.429 89.8574 193.37 89.3765 193.253 88.9614C193.141 88.5464 192.972 88.1973 192.748 87.9141C192.523 87.6309 192.247 87.4185 191.92 87.2769C191.593 87.1304 191.217 87.0571 190.792 87.0571H188.404V85.3359H190.792C191.505 85.3359 192.157 85.458 192.748 85.7021C193.343 85.9414 193.858 86.2856 194.293 86.7349C194.728 87.1841 195.062 87.7212 195.296 88.3462C195.536 88.9663 195.655 89.6572 195.655 90.4189V90.9243C195.655 91.6812 195.536 92.3721 195.296 92.9971C195.062 93.6221 194.728 94.1592 194.293 94.6084C193.863 95.0527 193.348 95.397 192.748 95.6411C192.152 95.8804 191.493 96 190.77 96ZM189.693 85.3359V96H187.496V85.3359H189.693ZM198.27 94.2202L198.263 95.6338C198.263 96.1758 198.126 96.7227 197.853 97.2744C197.584 97.8262 197.242 98.2778 196.827 98.6294L195.729 98.0654C195.851 97.8408 195.97 97.6162 196.087 97.3916C196.205 97.167 196.302 96.9204 196.38 96.6519C196.458 96.3833 196.498 96.0781 196.498 95.7363V94.2202H198.27ZM208.714 88.0752H210.626V95.7363C210.626 96.459 210.465 97.0718 210.143 97.5747C209.825 98.0825 209.381 98.4658 208.81 98.7246C208.238 98.9883 207.574 99.1201 206.817 99.1201C206.485 99.1201 206.134 99.0762 205.763 98.9883C205.396 98.9004 205.045 98.7637 204.708 98.5781C204.376 98.3926 204.098 98.1582 203.873 97.875L204.803 96.6299C205.047 96.9131 205.331 97.1328 205.653 97.2891C205.975 97.4502 206.332 97.5308 206.722 97.5308C207.103 97.5308 207.425 97.46 207.689 97.3184C207.953 97.1816 208.155 96.979 208.297 96.7104C208.438 96.4468 208.509 96.127 208.509 95.751V89.9062L208.714 88.0752ZM203.382 92.1328V91.979C203.382 91.3735 203.456 90.8242 203.602 90.3311C203.753 89.833 203.966 89.4058 204.239 89.0493C204.518 88.6929 204.854 88.417 205.25 88.2217C205.646 88.0264 206.092 87.9287 206.59 87.9287C207.118 87.9287 207.56 88.0264 207.916 88.2217C208.272 88.417 208.565 88.6953 208.795 89.0566C209.024 89.4131 209.203 89.8354 209.33 90.3237C209.461 90.8071 209.564 91.3369 209.637 91.9131V92.25C209.564 92.8018 209.454 93.3145 209.308 93.7881C209.161 94.2617 208.968 94.6768 208.729 95.0332C208.49 95.3848 208.192 95.6582 207.835 95.8535C207.484 96.0488 207.064 96.1465 206.576 96.1465C206.087 96.1465 205.646 96.0464 205.25 95.8462C204.859 95.646 204.525 95.3652 204.247 95.0039C203.968 94.6426 203.753 94.2178 203.602 93.7295C203.456 93.2412 203.382 92.709 203.382 92.1328ZM205.492 91.979V92.1328C205.492 92.46 205.523 92.7651 205.587 93.0483C205.65 93.3315 205.748 93.583 205.88 93.8027C206.017 94.0176 206.185 94.186 206.385 94.3081C206.59 94.4253 206.832 94.4839 207.11 94.4839C207.496 94.4839 207.811 94.4033 208.055 94.2422C208.299 94.0762 208.482 93.8491 208.604 93.561C208.727 93.2729 208.797 92.9409 208.817 92.5649V91.6055C208.807 91.2979 208.766 91.022 208.692 90.7778C208.619 90.5288 208.517 90.3164 208.385 90.1406C208.253 89.9648 208.082 89.8281 207.872 89.7305C207.662 89.6328 207.413 89.584 207.125 89.584C206.847 89.584 206.605 89.6475 206.4 89.7744C206.2 89.8965 206.031 90.0649 205.895 90.2798C205.763 90.4946 205.663 90.7485 205.594 91.0415C205.526 91.3296 205.492 91.6421 205.492 91.979ZM214.376 89.8037V96H212.267V88.0752H214.251L214.376 89.8037ZM216.764 88.0239L216.727 89.9795C216.625 89.9648 216.5 89.9526 216.354 89.9429C216.212 89.9282 216.083 89.9209 215.965 89.9209C215.667 89.9209 215.409 89.96 215.189 90.0381C214.974 90.1113 214.793 90.2212 214.647 90.3677C214.505 90.5142 214.398 90.6924 214.325 90.9023C214.256 91.1123 214.217 91.3516 214.208 91.6201L213.783 91.4883C213.783 90.9756 213.834 90.5044 213.937 90.0747C214.039 89.6401 214.188 89.2617 214.383 88.9395C214.583 88.6172 214.828 88.3682 215.116 88.1924C215.404 88.0166 215.733 87.9287 216.104 87.9287C216.222 87.9287 216.341 87.9385 216.463 87.958C216.585 87.9727 216.686 87.9946 216.764 88.0239ZM219.986 88.0752V96H217.87V88.0752H219.986ZM217.738 86.0098C217.738 85.7021 217.845 85.4482 218.06 85.248C218.275 85.0479 218.563 84.9478 218.924 84.9478C219.281 84.9478 219.566 85.0479 219.781 85.248C220.001 85.4482 220.111 85.7021 220.111 86.0098C220.111 86.3174 220.001 86.5713 219.781 86.7715C219.566 86.9717 219.281 87.0718 218.924 87.0718C218.563 87.0718 218.275 86.9717 218.06 86.7715C217.845 86.5713 217.738 86.3174 217.738 86.0098ZM225.377 96.1465C224.762 96.1465 224.21 96.0488 223.722 95.8535C223.233 95.6533 222.818 95.3774 222.477 95.0259C222.14 94.6743 221.881 94.2666 221.7 93.8027C221.52 93.334 221.429 92.8359 221.429 92.3086V92.0156C221.429 91.415 221.515 90.8657 221.686 90.3677C221.856 89.8696 222.101 89.4375 222.418 89.0713C222.74 88.7051 223.131 88.4243 223.59 88.229C224.049 88.0288 224.566 87.9287 225.143 87.9287C225.704 87.9287 226.202 88.0215 226.637 88.207C227.071 88.3926 227.435 88.6562 227.728 88.998C228.026 89.3398 228.25 89.75 228.402 90.2285C228.553 90.7021 228.629 91.2295 228.629 91.8105V92.6895H222.33V91.2832H226.556V91.1221C226.556 90.8291 226.502 90.5679 226.395 90.3384C226.292 90.104 226.136 89.9185 225.926 89.7817C225.716 89.645 225.448 89.5767 225.121 89.5767C224.842 89.5767 224.603 89.6377 224.403 89.7598C224.203 89.8818 224.039 90.0527 223.912 90.2725C223.79 90.4922 223.697 90.751 223.634 91.0488C223.575 91.3418 223.546 91.6641 223.546 92.0156V92.3086C223.546 92.626 223.59 92.9189 223.678 93.1875C223.771 93.4561 223.9 93.688 224.066 93.8833C224.237 94.0786 224.442 94.23 224.681 94.3374C224.925 94.4448 225.201 94.4985 225.509 94.4985C225.89 94.4985 226.244 94.4253 226.571 94.2788C226.903 94.1274 227.188 93.9004 227.428 93.5977L228.453 94.7109C228.287 94.9502 228.06 95.1797 227.772 95.3994C227.489 95.6191 227.147 95.7998 226.747 95.9414C226.346 96.0781 225.89 96.1465 225.377 96.1465ZM232.518 96H230.394V87.3721C230.394 86.7715 230.511 86.2661 230.746 85.856C230.985 85.4409 231.319 85.1284 231.749 84.9185C232.184 84.7036 232.699 84.5962 233.294 84.5962C233.49 84.5962 233.678 84.6108 233.858 84.6401C234.039 84.6646 234.215 84.6963 234.386 84.7354L234.364 86.3247C234.271 86.3003 234.173 86.2832 234.071 86.2734C233.968 86.2637 233.849 86.2588 233.712 86.2588C233.458 86.2588 233.241 86.3027 233.06 86.3906C232.884 86.4736 232.75 86.5981 232.657 86.7642C232.564 86.9302 232.518 87.1328 232.518 87.3721V96ZM234.1 88.0752V89.5693H229.215V88.0752H234.1ZM243.219 94.2129V90.6826C243.219 90.4287 243.177 90.2114 243.094 90.0308C243.011 89.8452 242.882 89.7012 242.706 89.5986C242.535 89.4961 242.313 89.4448 242.04 89.4448C241.805 89.4448 241.603 89.4863 241.432 89.5693C241.261 89.6475 241.129 89.7622 241.036 89.9136C240.943 90.0601 240.897 90.2334 240.897 90.4336H238.788C238.788 90.0967 238.866 89.7769 239.022 89.4741C239.178 89.1714 239.405 88.9053 239.703 88.6758C240.001 88.4414 240.355 88.2583 240.765 88.1265C241.18 87.9946 241.644 87.9287 242.157 87.9287C242.772 87.9287 243.319 88.0312 243.797 88.2363C244.276 88.4414 244.652 88.749 244.925 89.1592C245.204 89.5693 245.343 90.082 245.343 90.6973V94.0884C245.343 94.5229 245.37 94.8794 245.423 95.1577C245.477 95.4312 245.555 95.6704 245.658 95.8755V96H243.526C243.424 95.7852 243.346 95.5166 243.292 95.1943C243.243 94.8672 243.219 94.54 243.219 94.2129ZM243.497 91.1733L243.512 92.3672H242.333C242.054 92.3672 241.812 92.3989 241.607 92.4624C241.402 92.5259 241.234 92.6162 241.102 92.7334C240.97 92.8457 240.873 92.9775 240.809 93.1289C240.75 93.2803 240.721 93.4463 240.721 93.627C240.721 93.8076 240.763 93.9712 240.846 94.1177C240.929 94.2593 241.048 94.3716 241.205 94.4546C241.361 94.5327 241.544 94.5718 241.754 94.5718C242.071 94.5718 242.347 94.5083 242.582 94.3813C242.816 94.2544 242.997 94.0981 243.124 93.9126C243.255 93.7271 243.324 93.5513 243.329 93.3853L243.885 94.2788C243.807 94.479 243.7 94.6865 243.563 94.9014C243.431 95.1162 243.263 95.3188 243.058 95.5093C242.853 95.6948 242.606 95.8486 242.318 95.9707C242.03 96.0879 241.688 96.1465 241.292 96.1465C240.79 96.1465 240.333 96.0464 239.923 95.8462C239.518 95.6411 239.195 95.3604 238.956 95.0039C238.722 94.6426 238.604 94.2324 238.604 93.7734C238.604 93.3584 238.683 92.9897 238.839 92.6675C238.995 92.3452 239.225 92.0742 239.527 91.8545C239.835 91.6299 240.218 91.4614 240.677 91.3491C241.136 91.2319 241.668 91.1733 242.274 91.1733H243.497ZM249.034 89.7671V96H246.925V88.0752H248.902L249.034 89.7671ZM248.727 91.7593H248.155C248.155 91.1733 248.231 90.646 248.382 90.1772C248.534 89.7036 248.746 89.3008 249.02 88.9688C249.293 88.6318 249.618 88.3755 249.994 88.1997C250.375 88.019 250.799 87.9287 251.268 87.9287C251.639 87.9287 251.979 87.9824 252.286 88.0898C252.594 88.1973 252.857 88.3682 253.077 88.6025C253.302 88.8369 253.473 89.147 253.59 89.5327C253.712 89.9185 253.773 90.3896 253.773 90.9463V96H251.649V90.939C251.649 90.5874 251.6 90.314 251.502 90.1187C251.405 89.9233 251.261 89.7866 251.07 89.7085C250.885 89.6255 250.655 89.584 250.382 89.584C250.099 89.584 249.852 89.6401 249.642 89.7524C249.437 89.8647 249.266 90.021 249.129 90.2212C248.998 90.4165 248.897 90.646 248.829 90.9097C248.761 91.1733 248.727 91.4565 248.727 91.7593ZM260.057 94.2715V84.75H262.181V96H260.27L260.057 94.2715ZM255.047 92.1328V91.979C255.047 91.3735 255.116 90.8242 255.252 90.3311C255.389 89.833 255.589 89.4058 255.853 89.0493C256.117 88.6929 256.441 88.417 256.827 88.2217C257.213 88.0264 257.652 87.9287 258.146 87.9287C258.609 87.9287 259.015 88.0264 259.361 88.2217C259.713 88.417 260.011 88.6953 260.255 89.0566C260.504 89.4131 260.704 89.8354 260.855 90.3237C261.007 90.8071 261.117 91.3369 261.185 91.9131V92.25C261.117 92.8018 261.007 93.3145 260.855 93.7881C260.704 94.2617 260.504 94.6768 260.255 95.0332C260.011 95.3848 259.713 95.6582 259.361 95.8535C259.01 96.0488 258.6 96.1465 258.131 96.1465C257.638 96.1465 257.198 96.0464 256.812 95.8462C256.432 95.646 256.109 95.3652 255.846 95.0039C255.587 94.6426 255.389 94.2178 255.252 93.7295C255.116 93.2412 255.047 92.709 255.047 92.1328ZM257.157 91.979V92.1328C257.157 92.46 257.181 92.7651 257.23 93.0483C257.284 93.3315 257.369 93.583 257.486 93.8027C257.608 94.0176 257.765 94.186 257.955 94.3081C258.15 94.4253 258.387 94.4839 258.666 94.4839C259.027 94.4839 259.325 94.4033 259.559 94.2422C259.793 94.0762 259.972 93.8491 260.094 93.561C260.221 93.2729 260.294 92.9409 260.313 92.5649V91.6055C260.299 91.2979 260.255 91.022 260.182 90.7778C260.113 90.5288 260.011 90.3164 259.874 90.1406C259.742 89.9648 259.576 89.8281 259.376 89.7305C259.181 89.6328 258.949 89.584 258.68 89.584C258.407 89.584 258.172 89.6475 257.977 89.7744C257.782 89.8965 257.623 90.0649 257.501 90.2798C257.384 90.4946 257.296 90.7485 257.237 91.0415C257.184 91.3296 257.157 91.6421 257.157 91.979ZM271.446 88.0752V89.5693H266.832V88.0752H271.446ZM267.975 86.1196H270.084V93.6123C270.084 93.8418 270.113 94.0176 270.172 94.1396C270.235 94.2617 270.328 94.3472 270.45 94.396C270.572 94.4399 270.726 94.4619 270.912 94.4619C271.043 94.4619 271.161 94.457 271.263 94.4473C271.371 94.4326 271.461 94.418 271.534 94.4033L271.542 95.9561C271.361 96.0146 271.166 96.061 270.956 96.0952C270.746 96.1294 270.514 96.1465 270.26 96.1465C269.796 96.1465 269.391 96.0708 269.044 95.9194C268.702 95.7632 268.438 95.5142 268.253 95.1724C268.067 94.8306 267.975 94.3813 267.975 93.8247V86.1196ZM274.757 89.8037V96H272.647V88.0752H274.632L274.757 89.8037ZM277.145 88.0239L277.108 89.9795C277.005 89.9648 276.881 89.9526 276.734 89.9429C276.593 89.9282 276.463 89.9209 276.346 89.9209C276.048 89.9209 275.79 89.96 275.57 90.0381C275.355 90.1113 275.174 90.2212 275.028 90.3677C274.886 90.5142 274.779 90.6924 274.706 90.9023C274.637 91.1123 274.598 91.3516 274.588 91.6201L274.164 91.4883C274.164 90.9756 274.215 90.5044 274.317 90.0747C274.42 89.6401 274.569 89.2617 274.764 88.9395C274.964 88.6172 275.208 88.3682 275.497 88.1924C275.785 88.0166 276.114 87.9287 276.485 87.9287C276.603 87.9287 276.722 87.9385 276.844 87.958C276.966 87.9727 277.066 87.9946 277.145 88.0239ZM282.169 94.2129V90.6826C282.169 90.4287 282.127 90.2114 282.044 90.0308C281.961 89.8452 281.832 89.7012 281.656 89.5986C281.485 89.4961 281.263 89.4448 280.99 89.4448C280.755 89.4448 280.553 89.4863 280.382 89.5693C280.211 89.6475 280.079 89.7622 279.986 89.9136C279.894 90.0601 279.847 90.2334 279.847 90.4336H277.738C277.738 90.0967 277.816 89.7769 277.972 89.4741C278.128 89.1714 278.355 88.9053 278.653 88.6758C278.951 88.4414 279.305 88.2583 279.715 88.1265C280.13 87.9946 280.594 87.9287 281.107 87.9287C281.722 87.9287 282.269 88.0312 282.748 88.2363C283.226 88.4414 283.602 88.749 283.875 89.1592C284.154 89.5693 284.293 90.082 284.293 90.6973V94.0884C284.293 94.5229 284.32 94.8794 284.374 95.1577C284.427 95.4312 284.505 95.6704 284.608 95.8755V96H282.477C282.374 95.7852 282.296 95.5166 282.242 95.1943C282.193 94.8672 282.169 94.54 282.169 94.2129ZM282.447 91.1733L282.462 92.3672H281.283C281.004 92.3672 280.763 92.3989 280.558 92.4624C280.353 92.5259 280.184 92.6162 280.052 92.7334C279.92 92.8457 279.823 92.9775 279.759 93.1289C279.701 93.2803 279.671 93.4463 279.671 93.627C279.671 93.8076 279.713 93.9712 279.796 94.1177C279.879 94.2593 279.999 94.3716 280.155 94.4546C280.311 94.5327 280.494 94.5718 280.704 94.5718C281.021 94.5718 281.297 94.5083 281.532 94.3813C281.766 94.2544 281.947 94.0981 282.074 93.9126C282.206 93.7271 282.274 93.5513 282.279 93.3853L282.835 94.2788C282.757 94.479 282.65 94.6865 282.513 94.9014C282.381 95.1162 282.213 95.3188 282.008 95.5093C281.803 95.6948 281.556 95.8486 281.268 95.9707C280.98 96.0879 280.638 96.1465 280.243 96.1465C279.74 96.1465 279.283 96.0464 278.873 95.8462C278.468 95.6411 278.146 95.3604 277.906 95.0039C277.672 94.6426 277.555 94.2324 277.555 93.7734C277.555 93.3584 277.633 92.9897 277.789 92.6675C277.945 92.3452 278.175 92.0742 278.478 91.8545C278.785 91.6299 279.168 91.4614 279.627 91.3491C280.086 91.2319 280.619 91.1733 281.224 91.1733H282.447ZM290.606 94.103V88.0752H292.716V96H290.731L290.606 94.103ZM290.841 92.4771L291.463 92.4624C291.463 92.9897 291.402 93.4805 291.28 93.9346C291.158 94.3838 290.975 94.7744 290.731 95.1064C290.487 95.4336 290.179 95.6899 289.808 95.8755C289.437 96.0562 289 96.1465 288.497 96.1465C288.111 96.1465 287.755 96.0928 287.428 95.9854C287.105 95.873 286.827 95.6997 286.593 95.4653C286.363 95.2261 286.183 94.9209 286.051 94.5498C285.924 94.1738 285.86 93.7222 285.86 93.1948V88.0752H287.97V93.2095C287.97 93.4438 287.997 93.6416 288.05 93.8027C288.109 93.9639 288.189 94.0957 288.292 94.1982C288.395 94.3008 288.514 94.374 288.651 94.418C288.792 94.4619 288.949 94.4839 289.12 94.4839C289.554 94.4839 289.896 94.396 290.145 94.2202C290.399 94.0444 290.577 93.8052 290.68 93.5024C290.787 93.1948 290.841 92.853 290.841 92.4771ZM296.437 89.7158V96H294.32V88.0752H296.305L296.437 89.7158ZM296.144 91.7593H295.558C295.558 91.2075 295.624 90.6997 295.755 90.2358C295.892 89.7671 296.09 89.3618 296.349 89.02C296.612 88.6733 296.937 88.4048 297.323 88.2144C297.708 88.0239 298.155 87.9287 298.663 87.9287C299.015 87.9287 299.337 87.9824 299.63 88.0898C299.923 88.1924 300.174 88.356 300.384 88.5806C300.599 88.8003 300.765 89.0884 300.882 89.4448C301 89.7964 301.058 90.2188 301.058 90.7119V96H298.949V90.9463C298.949 90.585 298.9 90.3066 298.802 90.1113C298.705 89.916 298.565 89.7793 298.385 89.7012C298.209 89.623 297.997 89.584 297.748 89.584C297.474 89.584 297.235 89.6401 297.03 89.7524C296.83 89.8647 296.664 90.021 296.532 90.2212C296.4 90.4165 296.302 90.646 296.239 90.9097C296.175 91.1733 296.144 91.4565 296.144 91.7593ZM300.86 91.5176L300.106 91.6128C300.106 91.0952 300.169 90.6143 300.296 90.1699C300.428 89.7256 300.621 89.335 300.875 88.998C301.134 88.6611 301.454 88.3999 301.834 88.2144C302.215 88.0239 302.655 87.9287 303.153 87.9287C303.534 87.9287 303.88 87.9849 304.193 88.0972C304.505 88.2046 304.771 88.3779 304.991 88.6172C305.216 88.8516 305.387 89.1592 305.504 89.54C305.626 89.9209 305.687 90.3872 305.687 90.939V96H303.57V90.939C303.57 90.5728 303.521 90.2944 303.424 90.104C303.331 89.9087 303.194 89.7744 303.014 89.7012C302.838 89.623 302.628 89.584 302.384 89.584C302.13 89.584 301.908 89.6353 301.717 89.7378C301.527 89.8354 301.368 89.9722 301.241 90.1479C301.114 90.3237 301.019 90.5288 300.956 90.7632C300.892 90.9927 300.86 91.2441 300.86 91.5176ZM311.598 94.2129V90.6826C311.598 90.4287 311.556 90.2114 311.473 90.0308C311.39 89.8452 311.261 89.7012 311.085 89.5986C310.914 89.4961 310.692 89.4448 310.418 89.4448C310.184 89.4448 309.981 89.4863 309.811 89.5693C309.64 89.6475 309.508 89.7622 309.415 89.9136C309.322 90.0601 309.276 90.2334 309.276 90.4336H307.167C307.167 90.0967 307.245 89.7769 307.401 89.4741C307.557 89.1714 307.784 88.9053 308.082 88.6758C308.38 88.4414 308.734 88.2583 309.144 88.1265C309.559 87.9946 310.023 87.9287 310.536 87.9287C311.151 87.9287 311.698 88.0312 312.176 88.2363C312.655 88.4414 313.031 88.749 313.304 89.1592C313.583 89.5693 313.722 90.082 313.722 90.6973V94.0884C313.722 94.5229 313.749 94.8794 313.802 95.1577C313.856 95.4312 313.934 95.6704 314.037 95.8755V96H311.905C311.803 95.7852 311.725 95.5166 311.671 95.1943C311.622 94.8672 311.598 94.54 311.598 94.2129ZM311.876 91.1733L311.891 92.3672H310.711C310.433 92.3672 310.191 92.3989 309.986 92.4624C309.781 92.5259 309.613 92.6162 309.481 92.7334C309.349 92.8457 309.251 92.9775 309.188 93.1289C309.129 93.2803 309.1 93.4463 309.1 93.627C309.1 93.8076 309.142 93.9712 309.225 94.1177C309.308 94.2593 309.427 94.3716 309.583 94.4546C309.74 94.5327 309.923 94.5718 310.133 94.5718C310.45 94.5718 310.726 94.5083 310.96 94.3813C311.195 94.2544 311.375 94.0981 311.502 93.9126C311.634 93.7271 311.703 93.5513 311.708 93.3853L312.264 94.2788C312.186 94.479 312.079 94.6865 311.942 94.9014C311.81 95.1162 311.642 95.3188 311.437 95.5093C311.231 95.6948 310.985 95.8486 310.697 95.9707C310.409 96.0879 310.067 96.1465 309.671 96.1465C309.168 96.1465 308.712 96.0464 308.302 95.8462C307.896 95.6411 307.574 95.3604 307.335 95.0039C307.101 94.6426 306.983 94.2324 306.983 93.7734C306.983 93.3584 307.062 92.9897 307.218 92.6675C307.374 92.3452 307.604 92.0742 307.906 91.8545C308.214 91.6299 308.597 91.4614 309.056 91.3491C309.515 91.2319 310.047 91.1733 310.653 91.1733H311.876Z" fill="#455A64"/>
<path d="M51.1418 14C44.0702 14 38.1123 19.0114 36.6646 25.6375C36.7202 25.6375 36.7759 25.6375 36.7759 25.6375C37.5555 25.7489 38.335 26.0273 39.0032 26.417C40.1168 20.7375 45.0725 16.45 51.0861 16.45C57.8793 16.45 63.3918 21.9625 63.3918 28.7557C63.3918 34.5466 59.3827 39.4466 53.9259 40.7273C54.3157 41.4511 54.5941 42.2307 54.7055 43.1216C61.1089 41.5068 65.8418 35.6602 65.8418 28.8114C65.8975 20.6261 59.2714 14 51.1418 14Z" fill="#01818C"/>
<path d="M43.625 29.591C43.9591 33.4887 47.1886 36.5512 51.142 36.5512C55.0398 36.5512 58.2693 33.4887 58.6034 29.591C58.6034 29.2569 58.3807 29.0342 58.0466 29.0342H44.1818C43.9034 29.0342 43.625 29.3126 43.625 29.591Z" fill="#01818C"/>
<path d="M53.0352 48.7453C53.0352 47.6316 52.5341 46.5737 51.6432 45.8498C52.033 45.2373 52.2557 44.5691 52.2557 43.8453C52.2557 41.8407 50.5852 40.1703 48.5807 40.1703H39.5045C39.8386 39.1123 40.2841 37.5532 40.4511 35.9385C40.5625 34.8248 40.5068 33.5441 40.2841 32.2078C39.95 30.2032 38.3909 28.6441 36.3864 28.3101C34.7716 28.0316 33.2125 29.0896 32.8784 30.7044L32.0989 34.268C31.7091 36.1055 30.7625 37.776 29.4261 39.0566L25.25 42.9544C24.8602 43.3441 24.3591 43.5112 23.8023 43.5112H22.7443C22.5773 42.7873 21.9091 42.2862 21.1295 42.2862H14.6705C13.7239 42.2862 13 43.01 13 43.9566V58.1555C13 59.1021 13.7795 59.826 14.6705 59.826H21.0739C21.8534 59.826 22.5216 59.3248 22.6886 58.601H24.5818L24.8602 59.0464C26.4193 61.4964 29.0364 62.9998 31.8761 62.9998H32.6C35.2727 62.9998 39.2261 62.8328 42.8455 61.9975C43.2352 62.1089 43.5693 62.1646 43.9591 62.1646H47.8011C49.8057 62.1646 51.4761 60.4941 51.4761 58.4896C51.4761 57.7657 51.2534 57.0419 50.808 56.4294C51.6989 55.7055 52.1443 54.7032 52.1443 53.5896C52.1443 52.8657 51.9216 52.1975 51.5318 51.5851C52.4784 50.9169 53.0352 49.8589 53.0352 48.7453ZM17.9 57.0419C17.0648 57.0419 16.3966 56.3737 16.3966 55.5385C16.3966 54.7032 17.0648 54.0351 17.9 54.0351C18.7352 54.0351 19.4034 54.7032 19.4034 55.5385C19.4034 56.3737 18.7352 57.0419 17.9 57.0419ZM43.3466 42.6203H48.525C49.1932 42.6203 49.75 43.1771 49.75 43.8453C49.75 44.5135 49.1932 45.0703 48.525 45.0703H43.3466C42.6784 45.0703 42.1216 44.5135 42.1216 43.8453C42.1216 43.1771 42.6784 42.6203 43.3466 42.6203ZM40.6182 59.9373C38.2239 60.3271 35.4955 60.5498 32.4886 60.5498H32.0432C30.0386 60.5498 28.1455 59.4919 27.0875 57.7657L26.4193 56.7078C26.1966 56.318 25.8068 56.151 25.3614 56.151H22.8V46.0169H23.8023C24.9716 46.0169 26.0852 45.5714 26.9205 44.7919L31.0966 40.7828C32.8227 39.1123 33.992 37.0521 34.4932 34.7135L35.2727 31.1498C35.3284 30.8157 35.6625 30.6487 35.9409 30.7044C36.8875 30.8714 37.6114 31.5953 37.7784 32.5976C37.9455 33.7112 38.0011 34.7691 37.8898 35.6601C37.6114 38.2771 36.5534 40.8385 36.5534 40.9498C36.3864 41.3396 36.442 41.7851 36.6648 42.1191C36.8875 42.4532 37.2773 42.676 37.7227 42.676H39.783L39.7273 42.9544C38.2239 49.4135 32.9898 48.9123 32.767 48.8566C32.433 48.801 32.0989 48.9123 31.8761 49.135C31.5977 49.3578 31.4307 49.6362 31.4307 49.9703C31.375 50.3044 31.4864 50.6385 31.7091 50.9169C31.9318 51.1953 32.2102 51.3623 32.5443 51.3623C32.5443 51.3623 32.767 51.418 33.1011 51.418C34.1034 51.418 36.7205 51.1953 38.9477 49.3021C39.0591 50.193 39.5602 51.0839 40.2841 51.6407C39.8943 52.2532 39.6716 52.9214 39.6716 53.6453C39.6716 54.7589 40.1727 55.7612 41.008 56.4851C40.5625 57.0976 40.3398 57.8214 40.3398 58.5453C40.3398 58.9907 40.4511 59.4919 40.6182 59.9373ZM47.8011 59.7146H44.0148C43.3466 59.7146 42.7898 59.1578 42.7898 58.4896C42.7898 57.8214 43.3466 57.2646 44.0148 57.2646H47.8011C48.4693 57.2646 49.0261 57.8214 49.0261 58.4896C49.0261 59.1578 48.4693 59.7146 47.8011 59.7146ZM48.525 54.8146H43.3466C42.6784 54.8146 42.1216 54.2578 42.1216 53.5896C42.1216 52.9214 42.6784 52.3646 43.3466 52.3646H48.525C49.1932 52.3646 49.75 52.9214 49.75 53.5896C49.6943 54.3135 49.1932 54.8146 48.525 54.8146ZM49.3045 49.9146H42.5114C41.8432 49.9146 41.2864 49.3578 41.2864 48.6896C41.2864 48.0214 41.8432 47.4646 42.5114 47.4646H49.3045C49.9727 47.4646 50.5295 48.0214 50.5295 48.6896C50.5295 49.4135 49.9727 49.9146 49.3045 49.9146Z" fill="#01818C"/>
<path d="M47.0217 26.1386C48.2518 26.1386 49.249 25.1414 49.249 23.9114C49.249 22.6813 48.2518 21.6841 47.0217 21.6841C45.7916 21.6841 44.7944 22.6813 44.7944 23.9114C44.7944 25.1414 45.7916 26.1386 47.0217 26.1386Z" fill="#01818C"/>
<path d="M55.2068 26.1386C56.4369 26.1386 57.434 25.1414 57.434 23.9114C57.434 22.6813 56.4369 21.6841 55.2068 21.6841C53.9767 21.6841 52.9795 22.6813 52.9795 23.9114C52.9795 25.1414 53.9767 26.1386 55.2068 26.1386Z" fill="#01818C"/>
</svg>
