<svg width="14" height="16" viewBox="0 0 14 16" fill="none" xmlns="http://www.w3.org/2000/svg">
<path d="M6.89968 9.70364L6.90019 9.70381L6.90392 9.7055L6.90612 9.70651L6.91289 9.70922C6.93913 9.71955 6.96623 9.72514 6.99315 9.72632H6.99484L6.99823 9.72649H7.01042L7.0138 9.72632H7.0155C7.04242 9.72514 7.06951 9.71955 7.09575 9.70922L7.10252 9.70651L7.10472 9.7055L7.10845 9.70381L7.10896 9.70364L7.1098 9.7033L7.11488 9.70093C12.8255 7.06795 12.4054 0.25671 12.4046 0.237205L12.1555 0.249903L12.4053 0.236866C12.3983 0.103449 12.2878 -0.000173159 12.1555 2.17243e-07H1.85396C1.7219 -0.000169084 1.61133 0.103449 1.60423 0.236866L1.85396 0.249903L1.6049 0.237205C1.60389 0.256845 1.18399 7.06778 6.8946 9.70093C6.89629 9.70177 6.89799 9.70262 6.89968 9.7033L6.90053 9.70364H6.89968Z" fill="#F7CF6A"/>
<path d="M2.72482 5.82727C2.86027 5.80255 2.94983 5.67269 2.92495 5.53724C2.90006 5.40196 2.77019 5.31222 2.63491 5.33711C2.18708 5.42058 1.74194 5.30325 1.38301 5.04386C1.02034 4.78176 0.745376 4.37506 0.642781 3.88324C0.540008 3.39155 0.629236 2.90869 0.856961 2.52298C1.08198 2.14185 1.44228 1.85604 1.88486 1.75362C2.01913 1.72297 2.10311 1.58905 2.07229 1.45478C2.04148 1.32052 1.90772 1.23654 1.77346 1.26736C1.19117 1.40213 0.719331 1.77409 0.427236 2.26899C0.138899 2.75761 0.0252899 3.36681 0.154472 3.98481C0.28349 4.60263 0.631776 5.11548 1.09196 5.44801C1.55773 5.78461 2.13833 5.9365 2.72464 5.8271L2.72482 5.82727Z" fill="#F7CF6A"/>
<path d="M11.3644 5.28592C11.229 5.26103 11.0991 5.35076 11.0744 5.48605C11.0497 5.62133 11.1393 5.75119 11.2745 5.77608C11.861 5.88545 12.4414 5.73341 12.9072 5.39699C13.3676 5.06446 13.7157 4.55143 13.8449 3.93378C13.9739 3.31578 13.8605 2.70663 13.5721 2.21797C13.2799 1.72289 12.8082 1.35109 12.2258 1.21633C12.0915 1.18552 11.9577 1.2695 11.9269 1.40376C11.8961 1.53803 11.9801 1.67178 12.1144 1.70259C12.5569 1.80503 12.9172 2.09083 13.1423 2.47195C13.37 2.85764 13.4592 3.34069 13.3564 3.83221C13.2537 4.32408 12.9789 4.73073 12.6162 4.99266C12.2573 5.25188 11.8121 5.36938 11.3643 5.28591L11.3644 5.28592Z" fill="#F7CF6A"/>
<path d="M7.23452 9.49324C7.23452 9.35525 7.12261 9.24316 6.98445 9.24316C6.84646 9.24316 6.73438 9.35508 6.73438 9.49324V12.9865C6.73438 13.1245 6.84629 13.2366 6.98445 13.2366C7.12244 13.2366 7.23452 13.1247 7.23452 12.9865V9.49324Z" fill="#F7CF6A"/>
<path d="M3.93757 12.79H10.0365C10.1745 12.79 10.2866 12.902 10.2866 13.0401V15.7498C10.2866 15.8878 10.1747 15.9999 10.0365 15.9999H3.93757C3.79941 15.9999 3.6875 15.888 3.6875 15.7498V13.0401C3.6875 12.9021 3.79941 12.79 3.93757 12.79Z" fill="#F7CF6A"/>
</svg>
