<svg width="148" height="200" viewBox="0 0 148 200" fill="none" xmlns="http://www.w3.org/2000/svg">
<g clip-path="url(#clip0_560_8821)">
<path d="M87.5852 119.37L64.0391 111.811C63.9762 111.791 63.9103 111.783 63.8445 111.787L45.7347 113.129C42.5521 105.415 38.5646 95.7737 36.7503 91.3703C36.448 90.6484 35.9609 90.0188 35.338 89.5449C34.7151 89.071 33.9785 88.7695 33.2021 88.6706L13.5898 86.1084C13.3567 86.0801 13.1201 86.1135 12.9039 86.2053C12.6877 86.2971 12.4994 86.4441 12.3578 86.6315C12.2162 86.8189 12.1263 87.0403 12.0971 87.2733C12.0679 87.5064 12.1004 87.7431 12.1914 87.9596L23.235 113.712C23.3812 114.054 23.5968 114.362 23.8681 114.616C24.1394 114.87 24.4606 115.065 24.8112 115.188L47.2439 124.139C47.7566 124.343 48.3121 124.417 48.8604 124.354L50.2957 124.196C55.2659 123.676 79.808 121.178 87.4846 120.373C87.6062 120.367 87.7216 120.317 87.8098 120.233C87.898 120.149 87.9532 120.036 87.9653 119.915C87.9775 119.793 87.9458 119.672 87.8761 119.572C87.8064 119.472 87.7031 119.4 87.5852 119.37Z" fill="#E0E0E0"/>
<path d="M87.585 119.37C87.6635 119.396 87.7349 119.439 87.7932 119.498C87.8515 119.556 87.8951 119.627 87.9204 119.706C87.9509 119.805 87.9515 119.911 87.9223 120.011C87.8931 120.11 87.8353 120.199 87.7561 120.266C87.6504 120.348 87.5208 120.392 87.3872 120.393L86.9445 120.44L81.4344 121.024L61.1649 123.133L54.4575 123.831L50.8859 124.2L49.0514 124.398C48.4161 124.497 47.7658 124.421 47.17 124.18L32.1657 118.203L28.1581 116.604L26.1157 115.792L25.0861 115.383C24.9151 115.309 24.7507 115.249 24.5663 115.172C24.3908 115.094 24.2243 114.997 24.0699 114.883C23.7594 114.653 23.4991 114.362 23.3053 114.028C23.1175 113.693 22.9968 113.341 22.8425 112.995L21.9471 110.913C21.3456 109.517 20.7409 108.108 20.1327 106.684C17.6946 100.982 15.1659 95.1067 12.5803 89.0768L12.2248 88.2484C12.0745 87.9729 11.9971 87.6635 12.0001 87.3496C12.0194 87.0299 12.1451 86.7258 12.3572 86.4857C12.5693 86.2457 12.8556 86.0835 13.1705 86.0249C13.2476 86.0082 13.3281 86.0249 13.4086 86.0015L13.64 86.0182L14.0827 86.0786L14.9647 86.1926L16.722 86.4207L23.6574 87.3295L30.4318 88.2149L32.1087 88.4329C32.662 88.5167 33.2154 88.5536 33.7855 88.6844C34.8871 88.9683 35.8435 89.6521 36.4684 90.6027C36.7479 91.0761 36.9826 91.5746 37.1694 92.0917C37.375 92.5925 37.5807 93.0911 37.7864 93.5875L39.0038 96.542L41.3782 102.297C42.9276 106.06 44.42 109.675 45.8386 113.116L45.7648 113.069L63.4118 111.764L63.9014 111.727C63.9897 111.727 64.0774 111.742 64.1597 111.774L64.3911 111.852L65.2764 112.147L67.0606 112.72L70.4243 113.823L76.3603 115.738L84.6606 118.421L86.8405 119.136C87.3335 119.297 87.585 119.384 87.585 119.384C87.585 119.384 87.3302 119.31 86.8338 119.156L84.6472 118.465L76.3436 115.802L70.4042 113.904L67.017 112.817L65.2328 112.247L64.3173 111.955C64.1734 111.897 64.0223 111.857 63.8679 111.838L63.3783 111.875L45.7346 113.216H45.6843L45.6608 113.166C44.2389 109.729 42.7465 106.123 41.1904 102.354L38.8127 96.5991C38.4102 95.6243 38.0033 94.6394 37.5919 93.6445C37.3873 93.1481 37.1794 92.6384 36.9748 92.1487C36.7908 91.6424 36.5607 91.1541 36.2873 90.6899C35.6884 89.7773 34.7716 89.1198 33.7151 88.8454C33.1919 88.7179 32.6285 88.6777 32.0785 88.5972L30.4017 88.3792L23.6239 87.4972L16.6885 86.5917L14.9278 86.3637L14.0458 86.2463C13.7634 86.1892 13.4746 86.1711 13.1873 86.1926C12.9112 86.245 12.6605 86.3878 12.4747 86.5986C12.2888 86.8093 12.1785 87.0759 12.1611 87.3563C12.159 87.6439 12.2318 87.9271 12.3723 88.178L12.7379 89.0063L20.287 106.616C20.8974 108.038 21.501 109.448 22.098 110.845C22.3998 111.543 22.6949 112.237 22.9934 112.928C23.1443 113.263 23.2751 113.632 23.4495 113.934C23.6303 114.248 23.8747 114.521 24.1672 114.736C24.3123 114.843 24.4686 114.934 24.6333 115.007C24.7943 115.078 24.9687 115.141 25.1431 115.212L26.1727 115.624L28.2117 116.439L32.2361 118.039L47.2337 124.032C47.8067 124.267 48.4331 124.34 49.0447 124.243L50.8825 124.045L54.4542 123.683L61.1615 123.013L81.4378 120.957L86.9512 120.403L87.3939 120.363C87.5219 120.363 87.6464 120.322 87.7494 120.246C87.8256 120.182 87.8818 120.098 87.911 120.004C87.9402 119.909 87.9411 119.808 87.9137 119.713C87.8817 119.594 87.8046 119.493 87.6991 119.431C87.6253 119.387 87.585 119.374 87.585 119.37Z" fill="#263238"/>
<path d="M57.2812 114.709L66.1115 118.404L77.1148 117.257L67.8621 113.438L57.2812 114.709Z" fill="#F5F5F5"/>
<path d="M50.6244 121.694L67.8622 120.138L51.4024 113.612L46.1104 114.011L48.9073 120.758L50.6244 121.694Z" fill="#F5F5F5"/>
<path d="M85.878 119.36L85.7606 119.38L85.4085 119.424L84.0671 119.561L79.0835 120.047L62.6505 121.58L49.7322 122.747H49.6785L49.6584 122.697L46.7977 115.718L46.013 113.766C45.9258 113.542 45.8587 113.371 45.8118 113.253C45.7872 113.194 45.7659 113.133 45.748 113.072C45.748 113.072 45.7782 113.129 45.8319 113.243L46.0532 113.749L46.8749 115.684C47.5791 117.361 48.5852 119.759 49.7926 122.643L49.7188 122.596L62.6338 121.399L79.0835 119.917L84.057 119.494L85.3985 119.387L85.7506 119.363L85.878 119.36Z" fill="black"/>
<path d="M12.7615 87.041H12.909L13.345 87.0913L15.0218 87.3093L21.1725 88.1477C23.7682 88.5099 26.8737 88.9459 30.2911 89.4523L32.9204 89.8581L33.5911 89.9721C33.7018 89.9889 33.8192 90.0157 33.9265 90.0425C33.9835 90.0425 34.0438 90.066 34.1009 90.0828C34.3837 90.1964 34.6405 90.3664 34.8554 90.5825C34.9426 90.6753 35.0119 90.7833 35.06 90.9011L35.1908 91.2364C35.8917 92.9871 36.6161 94.8014 37.3606 96.656C40.3253 104.084 43.0049 110.812 44.95 115.688C45.9125 118.119 46.6905 120.091 47.2338 121.46C47.4954 122.13 47.7 122.667 47.8442 123.036C47.9113 123.21 47.9616 123.344 47.9985 123.445C48.0175 123.491 48.0332 123.538 48.0454 123.586C48.0218 123.542 48.0005 123.498 47.9817 123.452L47.8107 123.046L47.1701 121.487C46.6167 120.118 45.8286 118.156 44.8225 115.732L37.2164 96.7197C36.4719 94.8651 35.7475 93.0508 35.0466 91.3002L34.9158 90.9648C34.8754 90.8658 34.8175 90.7749 34.7448 90.6965C34.5948 90.5334 34.4134 90.4022 34.2115 90.3108C34.1613 90.2868 34.1098 90.2655 34.0573 90.2471L33.8963 90.2069C33.789 90.1834 33.6817 90.1599 33.5609 90.1432L32.8902 90.0258L30.2609 89.6133L21.1524 88.2718L15.0084 87.3764L13.3316 87.1282L12.899 87.0578L12.7615 87.041Z" fill="black"/>
<path d="M30.0964 102.458C30.9349 103.581 31.1025 104.872 30.4754 105.342C29.8483 105.811 28.6544 105.285 27.8159 104.161C26.9775 103.038 26.8098 101.75 27.437 101.277C28.0641 100.804 29.258 101.337 30.0964 102.458Z" fill="white"/>
<path d="M136.2 83.3051C135.076 76.9331 128.03 73.0932 125.703 70.9736L129.201 75.652C130.991 83.0356 131.669 90.6451 131.213 98.2289C131.166 99.0572 131.256 100.174 131.847 100.291C132.06 100.309 132.272 100.243 132.437 100.107C134.503 98.7822 135.844 95.7472 136.143 92.6216C136.441 89.4959 136.709 86.2529 136.2 83.3051Z" fill="#32959D"/>
<path d="M131.042 76.1683C130.706 75.5277 130.844 73.4853 129.03 75.6183L128.912 74.8201L117.701 66.2012L92.7128 67.499C90.3149 67.65 86.7131 71.8018 85.8143 73.5356C85.0765 79.9847 84.9289 85.7095 84.9289 85.7095C84.9289 85.7095 84.0704 92.8796 84.9289 96.2702C85.7875 99.6607 86.8036 100.885 88.1317 103.521C89.1035 105.322 90.3152 106.982 91.7335 108.457L92.9006 117.512L119.006 119.86L130.955 119.189C130.955 119.189 129.885 101.331 129.885 101.016C129.885 100.868 131.377 97.4205 132.98 93.7616C135.703 87.5003 134.167 82.2116 131.042 76.1683Z" fill="#455A64"/>
<path d="M65.4844 108.648C65.6152 108.648 66.9197 99.8317 67.7749 97.8296C68.5798 95.9414 85.8143 73.5322 85.8143 73.5322L89.8722 86.6115L88.1317 93.6073L78.7414 104.906L76.0887 113.095L65.4844 108.648Z" fill="#455A64"/>
<path d="M134.516 82.8691C133.279 75.0249 127.168 75.3669 127.168 75.3669L121.095 85.9344V107.787L91.7938 110.322L91.2505 117.68C91.2505 117.68 120.444 124.354 127.188 122.117C131.652 120.638 135.422 116.905 135.834 110.805C136.247 104.705 135.757 90.7167 134.516 82.8691Z" fill="#455A64"/>
<path d="M78.7716 104.892C78.6864 104.393 78.5744 103.898 78.4362 103.41C78.0687 102.238 77.4052 101.181 76.51 100.34C75.6147 99.4998 74.5178 98.9041 73.3252 98.611C72.8292 98.4996 72.3277 98.4145 71.8228 98.3561C71.9609 98.3396 72.1005 98.3396 72.2386 98.3561C72.6146 98.3715 72.9884 98.4209 73.3554 98.5037C74.5791 98.7747 75.7068 99.3715 76.619 100.231C77.5311 101.091 78.1938 102.181 78.5368 103.387C78.6424 103.748 78.7143 104.119 78.7514 104.493C78.7746 104.625 78.7814 104.759 78.7716 104.892Z" fill="black"/>
<path d="M92.7966 110.02C92.8384 110.009 92.881 110.001 92.9241 109.997L93.2963 109.943L94.7317 109.752L100.02 109.081L117.46 106.962L121.336 106.499L121.259 106.583C121.484 100.64 121.595 95.4015 121.554 91.6487C121.554 89.774 121.514 88.2682 121.491 87.232C121.491 86.7222 121.467 86.3231 121.46 86.0448V85.7362C121.46 85.6658 121.46 85.6323 121.46 85.6289C121.464 85.6646 121.464 85.7005 121.46 85.7362C121.46 85.8134 121.46 85.914 121.481 86.0414C121.481 86.3231 121.514 86.7121 121.538 87.232C121.581 88.2649 121.628 89.7707 121.655 91.6487C121.715 95.4015 121.635 100.647 121.417 106.586V106.66H121.343L117.466 107.126L100.01 109.195L94.7183 109.802L93.2762 109.956L92.9006 109.993L92.7966 110.02Z" fill="black"/>
<path d="M136.233 110.02C136.238 110.065 136.238 110.11 136.233 110.154C136.233 110.248 136.233 110.379 136.213 110.543C136.183 111.043 136.126 111.542 136.042 112.036C135.91 112.819 135.719 113.592 135.469 114.346C135.126 115.343 134.667 116.295 134.1 117.183C133.411 118.265 132.541 119.22 131.528 120.007C130.364 120.911 129.019 121.553 127.584 121.889C126.812 122.074 126.027 122.205 125.237 122.281C124.414 122.355 123.588 122.386 122.762 122.375C121.029 122.34 119.302 122.179 117.594 121.892L107.697 120.265L103.381 119.548L99.6213 118.854C97.3307 118.424 95.4728 118.099 94.185 117.904L92.6993 117.686L92.3136 117.633C92.2692 117.629 92.2253 117.62 92.1829 117.606H92.3136L92.7027 117.646C93.038 117.683 93.5478 117.74 94.1951 117.831C95.4862 118.005 97.3475 118.314 99.6448 118.726L103.398 119.397L107.717 120.098L117.614 121.714C119.316 122.004 121.038 122.169 122.765 122.207C123.603 122.207 124.422 122.184 125.223 122.12C126.005 122.048 126.78 121.92 127.544 121.738C128.96 121.41 130.29 120.781 131.441 119.893C132.444 119.121 133.308 118.183 133.996 117.12C134.564 116.242 135.026 115.301 135.375 114.316C135.631 113.569 135.832 112.805 135.975 112.029C136.086 111.388 136.153 110.885 136.176 110.543L136.217 110.154C136.219 110.109 136.225 110.064 136.233 110.02Z" fill="black"/>
<path d="M92.005 110.56C91.9913 110.515 91.9823 110.469 91.9782 110.423C91.9614 110.319 91.9379 110.181 91.9144 110.013C91.8608 109.638 91.7837 109.115 91.6897 108.451V108.474L89.4696 106.016C89.0369 105.399 88.6458 104.753 88.2992 104.084C87.9117 103.322 87.569 102.538 87.273 101.737C86.6186 99.9243 86.1687 98.0447 85.9315 96.1326C85.6974 94.0629 85.6491 91.9764 85.7873 89.8981C85.8913 87.9865 86.0891 86.2694 86.2769 84.8341C86.4647 83.3987 86.6425 82.2417 86.7699 81.4401L86.9208 80.5212C86.9376 80.424 86.951 80.3468 86.9644 80.2831C86.967 80.2554 86.9738 80.2283 86.9846 80.2026C86.9875 80.2294 86.9875 80.2564 86.9846 80.2831C86.9846 80.3502 86.9845 80.4273 86.9577 80.5246C86.9275 80.7526 86.8906 81.0612 86.8403 81.4502C86.733 82.2517 86.5754 83.4121 86.401 84.8508C86.2266 86.2895 86.069 87.9999 85.965 89.9115C85.8369 91.9791 85.8886 94.0538 86.1193 96.1124C86.353 98.0128 86.7938 99.8818 87.4339 101.686C87.7236 102.48 88.0595 103.256 88.44 104.01C88.7795 104.676 89.1614 105.319 89.5836 105.935L91.7736 108.424L91.9547 109.99C91.9714 110.161 91.9849 110.298 91.9983 110.402C92.0099 110.454 92.0121 110.508 92.005 110.56Z" fill="black"/>
<path d="M125.559 111.375C125.337 111.13 125.135 110.869 124.952 110.594C124.586 110.101 124.073 109.43 123.473 108.716C122.872 108.001 122.306 107.374 121.886 106.932C121.646 106.702 121.421 106.455 121.216 106.194C121.488 106.383 121.74 106.601 121.967 106.844C122.543 107.401 123.088 107.989 123.6 108.605C124.115 109.218 124.598 109.857 125.045 110.52C125.245 110.787 125.417 111.074 125.559 111.375Z" fill="black"/>
<path d="M72.6545 109.725C72.4064 108.293 71.1018 107.176 71.1018 107.176C71.1018 107.176 70.478 105.432 69.5457 104.973C68.6134 104.514 67.8688 105.432 67.0572 105.184C66.2457 104.936 64.5051 104.872 63.945 105.184C63.385 105.496 62.7008 107.237 62.7008 107.237C62.1362 107.259 61.5839 107.408 61.0844 107.673C60.661 107.891 60.2946 108.206 60.0145 108.592C59.7715 108.497 59.5053 108.478 59.2514 108.538C58.9975 108.598 58.7677 108.734 58.5926 108.927C58.2524 109.325 57.9978 109.788 57.8447 110.289L57.402 111.476C57.3168 111.657 57.2776 111.856 57.288 112.056C57.3222 112.22 57.4111 112.368 57.5403 112.475C57.6694 112.583 57.8312 112.643 57.999 112.646C58.1695 112.647 58.3382 112.612 58.4942 112.543C58.6503 112.474 58.79 112.373 58.9045 112.247C59.1327 112.022 59.3341 111.771 59.5048 111.499L59.6155 112.277C59.6155 112.277 59.7999 113.508 60.796 113.582C61.4835 113.636 62.228 112.837 62.228 112.837L63.9685 112.65L64.2167 114.39C64.3313 114.726 64.5505 115.015 64.8421 115.217C65.1337 115.419 65.4822 115.521 65.8365 115.51C66.4603 115.51 67.2652 114.454 67.2652 114.454L68.885 115.074C68.885 115.074 70.7496 116.382 71.6216 115.946C71.8654 115.823 72.06 115.62 72.1734 115.371C72.2867 115.123 72.3121 114.843 72.2454 114.578C72.6177 114.156 72.9118 113.671 73.114 113.146C73.3487 112.401 72.9161 111.157 72.6545 109.725Z" fill="#FFBE9D"/>
<path d="M59.575 111.979C59.5041 111.363 59.5256 110.74 59.6388 110.131C59.6968 109.514 59.8484 108.911 60.0882 108.34C60.1351 108.34 59.9507 109.155 59.8098 110.158C59.669 111.16 59.6388 111.979 59.575 111.979Z" fill="#EB996E"/>
<path d="M62.295 110.342C62.4008 110.765 62.4504 111.201 62.4426 111.637C62.4783 111.952 62.4463 112.271 62.3487 112.572C62.2515 112.807 62.1139 112.908 62.1039 112.881C62.0938 112.854 62.1743 112.75 62.2313 112.546C62.2888 112.253 62.3013 111.953 62.2682 111.657C62.2171 111.22 62.2261 110.777 62.295 110.342Z" fill="#EB996E"/>
<path d="M63.4554 109.601C63.489 109.634 63.2609 109.936 62.9423 110.245C62.6237 110.553 62.342 110.801 62.3051 110.768C62.2682 110.734 62.4996 110.432 62.8182 110.124C63.1368 109.815 63.4219 109.567 63.4554 109.601Z" fill="#EB996E"/>
<path d="M63.6866 106.254C63.7243 106.568 63.7377 106.884 63.7269 107.2C63.7269 107.787 63.7504 108.591 63.7973 109.48C63.8443 110.369 63.9147 111.174 63.965 111.757C64.0126 112.07 64.0328 112.387 64.0254 112.703C63.9327 112.399 63.872 112.087 63.8443 111.771C63.7604 111.191 63.6732 110.386 63.6229 109.49C63.5726 108.595 63.5793 107.787 63.6028 107.2C63.5979 106.882 63.626 106.565 63.6866 106.254Z" fill="#EB996E"/>
<path d="M70.2131 106.921C70.2131 106.921 70.1393 107.089 70.0219 107.391C69.8583 107.818 69.7283 108.258 69.6329 108.706C69.5725 108.994 69.5088 109.306 69.4384 109.638C69.3717 110.001 69.273 110.358 69.1432 110.704C68.9984 111.095 68.7546 111.442 68.4356 111.71C68.2614 111.862 68.0539 111.969 67.83 112.025C67.6062 112.08 67.3724 112.081 67.1478 112.029C66.9144 111.976 66.7034 111.852 66.5441 111.674C66.3972 111.496 66.3031 111.281 66.2725 111.053C66.2249 110.646 66.217 110.235 66.249 109.826C66.287 109.139 66.3926 108.459 66.5643 107.793C66.6795 107.345 66.8274 106.905 67.007 106.479C67.0707 106.328 67.121 106.214 67.1612 106.143C67.1783 106.102 67.2009 106.064 67.2283 106.029C67.1865 106.192 67.1338 106.353 67.0707 106.509C66.9167 106.94 66.7879 107.38 66.685 107.827C66.5325 108.488 66.4404 109.161 66.41 109.839C66.3834 110.235 66.3935 110.632 66.4402 111.026C66.4675 111.223 66.5487 111.409 66.6749 111.563C66.8116 111.713 66.9905 111.818 67.188 111.865C67.3871 111.91 67.5942 111.909 67.7924 111.859C67.9906 111.809 68.1742 111.714 68.3283 111.58C68.6275 111.328 68.8582 111.005 68.999 110.641C69.2098 109.995 69.3833 109.338 69.5188 108.672C69.6241 108.222 69.7723 107.783 69.9615 107.361C70.0138 107.245 70.0731 107.133 70.1393 107.025C70.1795 106.955 70.2064 106.918 70.2131 106.921Z" fill="#EB996E"/>
<path d="M70.8702 107.676C70.8231 108.048 70.659 108.395 70.4016 108.667C70.1442 108.94 69.8068 109.123 69.4382 109.192C69.732 108.998 70.0111 108.783 70.2733 108.548C70.4937 108.272 70.6932 107.981 70.8702 107.676Z" fill="#EB996E"/>
<path d="M67.2686 112.012C67.3786 112.478 67.407 112.959 67.3524 113.434C67.3346 113.857 67.2751 114.277 67.1747 114.688V114.712C67.1621 114.718 67.1482 114.722 67.1341 114.722C67.12 114.723 67.1059 114.72 67.093 114.714C67.0801 114.708 67.0687 114.7 67.0596 114.689C67.0505 114.678 67.044 114.665 67.0405 114.652C67.0405 114.618 67.0405 114.605 67.0405 114.605C67.0405 114.605 67.0405 114.621 67.064 114.635C67.0875 114.648 67.111 114.662 67.121 114.635L67.1009 114.662C67.1009 114.434 67.1512 113.957 67.1814 113.407C67.1777 112.941 67.2068 112.475 67.2686 112.012Z" fill="#EB996E"/>
<path d="M71.2159 110.624C71.0867 110.837 70.9337 111.035 70.7598 111.214C70.3755 111.661 70.0384 112.147 69.7537 112.663C69.4707 113.179 69.31 113.752 69.2842 114.34C69.2842 114.793 69.3614 115.068 69.3312 115.074C69.2136 114.848 69.1548 114.595 69.1601 114.34C69.1501 113.725 69.3016 113.118 69.5995 112.579C69.895 112.05 70.2604 111.562 70.6861 111.13C70.8404 110.94 71.0185 110.77 71.2159 110.624Z" fill="#EB996E"/>
<path d="M70.5282 113.716C70.4233 113.339 70.4409 112.938 70.5783 112.572C70.7157 112.205 70.9659 111.892 71.2929 111.677C72.4633 110.845 75.9679 108.659 76.0417 108.659C76.1155 108.659 80.1566 107.317 81.8569 107.143C83.5572 106.968 90.999 110.664 90.999 110.664C90.999 110.664 92.7262 113.152 92.4478 115.54C92.1695 117.928 90.6134 118.066 90.6134 118.066L88.4536 117.539L86.2268 117.113C86.2268 117.113 81.3002 118.485 80.5255 118.233C79.7508 117.982 79.4825 117.14 80.321 116.684C81.1594 116.228 83.5707 115.513 83.5707 115.513L85.4252 114.729L79.3886 115.591C79.3886 115.591 74.2844 116.597 73.6874 116.456C73.0904 116.315 72.9999 115.869 72.9496 115.45C72.9496 115.45 70.8938 116.456 70.2834 115.906C69.6731 115.356 69.4048 114.159 70.5282 113.716Z" fill="#FFBE9D"/>
<path d="M83.5572 112.247C83.4076 112.271 83.2558 112.279 83.1045 112.27C82.8161 112.27 82.3969 112.27 81.8804 112.304C81.278 112.331 80.6795 112.415 80.0929 112.555C79.7471 112.644 79.4103 112.764 79.0868 112.914C78.7514 113.069 78.4161 113.25 78.0807 113.451C77.7386 113.647 77.3821 113.816 77.0142 113.957C76.6703 114.084 76.3101 114.162 75.9444 114.189C75.3418 114.189 74.7412 114.256 74.1536 114.39C73.77 114.512 73.4315 114.746 73.181 115.061C73.0962 115.183 73.0211 115.312 72.9563 115.446C72.9563 115.446 72.9563 115.403 72.9764 115.329C73.0111 115.221 73.0608 115.118 73.124 115.024C73.3656 114.675 73.7123 114.413 74.1133 114.276C74.707 114.121 75.3174 114.038 75.931 114.031C76.6611 113.946 77.3627 113.697 77.9835 113.303C78.3188 113.112 78.6542 112.918 79.0097 112.76C79.3407 112.609 79.6855 112.49 80.0392 112.405C80.6364 112.265 81.2471 112.192 81.8603 112.187C82.3835 112.187 82.8027 112.187 83.0944 112.207C83.2496 112.206 83.4046 112.219 83.5572 112.247Z" fill="#EB996E"/>
<path d="M81.733 109.702C81.6983 109.725 81.6611 109.744 81.6223 109.759C81.5519 109.792 81.4412 109.836 81.2869 109.886C80.8754 110.013 80.455 110.109 80.0293 110.175C79.4961 110.268 78.8522 110.339 78.168 110.51C77.4308 110.733 76.7227 111.042 76.0586 111.432C74.821 112.121 73.5288 112.706 72.1951 113.183C71.6854 113.364 71.2662 113.498 70.9744 113.585C70.8265 113.639 70.6737 113.678 70.5183 113.703C70.6573 113.628 70.8034 113.567 70.9543 113.521L72.1515 113.065C73.4658 112.559 74.7433 111.962 75.9747 111.278C76.6514 110.881 77.3746 110.571 78.1278 110.352C78.7496 110.212 79.3789 110.107 80.0125 110.037C80.4347 109.984 80.8534 109.906 81.2668 109.806C81.4201 109.762 81.5758 109.728 81.733 109.702Z" fill="#EB996E"/>
<path d="M86.6327 111.14C86.5883 111.009 86.5557 110.875 86.5354 110.738C86.4553 110.424 86.3006 110.135 86.0846 109.894C85.8686 109.652 85.5975 109.467 85.2945 109.353C85.1611 109.317 85.031 109.27 84.9055 109.212C84.9055 109.192 85.0732 109.172 85.3348 109.236C85.6746 109.327 85.9808 109.515 86.2168 109.776C86.451 110.038 86.6037 110.363 86.6561 110.711C86.6913 110.853 86.6831 111.003 86.6327 111.14Z" fill="#EB996E"/>
<path d="M89.423 114.906C89.4168 114.718 89.4 114.53 89.3727 114.343C89.2583 113.907 89.0008 113.522 88.6416 113.25C88.2717 112.981 87.8636 112.77 87.4309 112.623C87.2425 112.573 87.062 112.497 86.8943 112.398C87.0902 112.401 87.2842 112.437 87.4678 112.505C87.9306 112.624 88.3665 112.83 88.7522 113.112C89.1435 113.408 89.4083 113.84 89.4934 114.323C89.542 114.52 89.517 114.727 89.423 114.906Z" fill="#EB996E"/>
<path d="M72.9698 115.443C72.8844 115.519 72.7854 115.578 72.678 115.618C72.3978 115.75 72.1087 115.862 71.8127 115.953C71.609 116.024 71.4005 116.081 71.189 116.124C70.9338 116.158 70.6742 116.131 70.431 116.047C70.2937 115.997 70.1684 115.918 70.0633 115.816C69.9581 115.715 69.8755 115.592 69.8207 115.457C69.6819 115.181 69.626 114.871 69.6597 114.565C69.6946 114.333 69.8141 114.123 69.995 113.974C70.1493 113.839 70.322 113.726 70.5082 113.639L70.4646 113.74C70.328 113.324 70.3593 112.871 70.5518 112.479C70.7114 112.184 70.9267 111.923 71.1856 111.711C71.3516 111.572 71.5289 111.448 71.7155 111.338C71.7796 111.292 71.851 111.257 71.9268 111.234C71.9435 111.258 71.6551 111.426 71.256 111.788C71.0204 112.003 70.8251 112.258 70.6792 112.542C70.5138 112.905 70.4946 113.317 70.6255 113.693L70.6457 113.756L70.5819 113.79C70.2667 113.954 69.8877 114.196 69.8508 114.591C69.8228 114.864 69.8716 115.14 69.9917 115.386C70.0362 115.502 70.1045 115.607 70.1923 115.695C70.2802 115.783 70.3855 115.852 70.5015 115.896C70.7158 115.975 70.9449 116.004 71.1722 115.983C71.3781 115.946 71.5818 115.898 71.7826 115.839C72.1548 115.735 72.4533 115.631 72.6545 115.557C72.7553 115.508 72.8609 115.47 72.9698 115.443Z" fill="#EB996E"/>
<path d="M98.954 47.6016C98.2263 40.3375 96.687 33.107 97.0056 25.8027L91.0327 29.532C91.3311 32.4229 88.7321 34.6631 87.2263 37.1448C86.3251 38.6609 85.7966 40.3692 85.6841 42.1293C85.5716 43.8894 85.8783 45.6511 86.579 47.2696C87.1156 48.4769 87.8769 49.6171 88.0747 50.9251C88.4101 53.1318 87.0452 55.3754 87.5482 57.5519C88.125 60.0571 91.1903 61.4321 93.662 60.7278C96.1336 60.0236 97.9043 57.7095 98.6321 55.258C99.3598 52.8065 99.2089 50.1604 98.954 47.6016Z" fill="#263238"/>
<path d="M91.3545 28.3047C91.685 26.5323 92.4807 24.8796 93.6603 23.516C94.8398 22.1524 96.3607 21.127 98.0671 20.5448C99.7734 19.9625 101.604 19.8445 103.371 20.2027C105.138 20.561 106.778 21.3826 108.123 22.5834C109.213 23.5593 110.105 24.7767 111.366 25.5178C112.791 26.3529 112.976 26.0712 114.545 26.5776C116.115 27.084 119.19 31.1822 119.24 32.8322L120.461 40.009C120.501 41.7026 118.388 42.7926 116.752 42.3566C115.115 41.9206 113.962 40.4752 113.023 39.06C112.084 37.6447 111.191 36.1121 109.746 35.2234C107.348 33.7511 104.27 34.5023 101.553 35.2234C98.8366 35.9444 95.6808 36.5648 93.4204 34.888C91.4887 33.4291 90.9118 30.6791 91.3545 28.3047Z" fill="#263238"/>
<path d="M90.4893 38.7009C90.4893 33.979 93.2695 28.0195 97.9847 28.2342L112.841 31.0512C113.533 31.0818 114.188 31.3712 114.676 31.8619C115.164 32.3526 115.45 33.0089 115.477 33.7006L116.038 69.0818H116.138C116.138 69.0818 110.977 82.0605 101.117 79.6258C99.1619 79.1428 100.607 74.2767 100.091 72.1437L99.9936 72.1638C99.9734 71.9056 99.9567 71.6675 99.9366 71.4227C99.648 69.8266 99.5277 68.2046 99.5777 66.5833C99.3731 63.7361 99.3027 62.5589 99.3027 62.5958C99.3027 62.6327 93.2326 61.9586 91.5155 54.1949C90.6637 50.3516 90.4725 43.9494 90.4893 38.7009Z" fill="#FFBE9D"/>
<path d="M93.1121 44.8787C93.1251 45.1408 93.2401 45.3875 93.4324 45.566C93.6248 45.7446 93.8793 45.8409 94.1417 45.8345C94.2703 45.8372 94.3982 45.8141 94.5177 45.7665C94.6373 45.7189 94.7461 45.6478 94.8377 45.5575C94.9293 45.4671 95.0019 45.3593 95.0511 45.2404C95.1003 45.1215 95.1252 44.994 95.1243 44.8653C95.1112 44.6032 94.9963 44.3565 94.8039 44.1779C94.6116 43.9994 94.3571 43.903 94.0947 43.9095C93.9661 43.9068 93.8382 43.9299 93.7186 43.9775C93.5991 44.0251 93.4903 44.0962 93.3987 44.1865C93.3071 44.2769 93.2345 44.3847 93.1853 44.5036C93.136 44.6225 93.1112 44.75 93.1121 44.8787Z" fill="#263238"/>
<path d="M92.0759 41.9441C92.2066 42.0682 92.9344 41.4578 94.0176 41.3975C95.1009 41.3371 95.9259 41.8267 96.0298 41.6892C96.0868 41.6255 95.9426 41.3975 95.5838 41.1661C95.0956 40.869 94.5273 40.7307 93.9573 40.7703C93.3999 40.8102 92.8694 41.0249 92.4414 41.384C92.106 41.6456 92.0088 41.8905 92.0759 41.9441Z" fill="#263238"/>
<path d="M102.871 44.3321C102.884 44.5942 102.999 44.8409 103.191 45.0195C103.384 45.198 103.638 45.2944 103.9 45.2879C104.029 45.2906 104.157 45.2675 104.277 45.2199C104.396 45.1723 104.505 45.1012 104.596 45.0109C104.688 44.9205 104.761 44.8127 104.81 44.6938C104.859 44.5749 104.884 44.4474 104.883 44.3187C104.87 44.0548 104.754 43.8066 104.559 43.6278C104.365 43.4489 104.108 43.3538 103.843 43.3629C103.716 43.3616 103.589 43.3857 103.47 43.4339C103.352 43.4821 103.244 43.5534 103.154 43.6436C103.063 43.7338 102.992 43.8412 102.943 43.9594C102.895 44.0776 102.87 44.2043 102.871 44.3321Z" fill="#263238"/>
<path d="M102.724 41.508C102.854 41.6288 103.582 41.0218 104.665 40.958C105.749 40.8943 106.574 41.3907 106.678 41.2498C106.731 41.1861 106.594 40.958 106.232 40.7266C105.743 40.431 105.175 40.2928 104.605 40.3309C104.043 40.3648 103.505 40.5748 103.069 40.9312C102.757 41.2062 102.657 41.451 102.724 41.508Z" fill="#263238"/>
<path d="M99.2795 49.7684C99.2795 49.7047 98.6087 49.6309 97.502 49.5571C97.2237 49.5571 96.9587 49.5035 96.9017 49.319C96.8612 49.0346 96.908 48.7445 97.0359 48.4873C97.2572 47.8166 97.4853 47.0888 97.7267 46.3376C98.6825 43.2723 99.3532 40.7604 99.2292 40.7236C99.1051 40.6867 98.2231 43.1382 97.2773 46.2001L96.6234 48.3666C96.4685 48.7091 96.4412 49.0956 96.5462 49.4565C96.5917 49.5522 96.6587 49.6362 96.7418 49.7019C96.825 49.7676 96.9222 49.8133 97.0258 49.8355C97.1812 49.8679 97.3401 49.8803 97.4987 49.8724C98.5987 49.8657 99.2795 49.8288 99.2795 49.7684Z" fill="#263238"/>
<path d="M99.3027 62.6163C102.997 62.4489 106.573 61.2601 109.632 59.1821C109.632 59.1821 107.311 64.7995 99.4235 64.548L99.3027 62.6163Z" fill="#EB996E"/>
<path d="M99.8931 52.347C100.083 52.0752 100.339 51.8564 100.637 51.7114C100.935 51.5665 101.266 51.5001 101.597 51.5187C101.837 51.5246 102.073 51.5794 102.291 51.6798C102.509 51.7801 102.704 51.9238 102.864 52.1022C103.02 52.2737 103.119 52.4888 103.149 52.7186C103.178 52.9483 103.136 53.1815 103.029 53.3867C102.867 53.5914 102.648 53.7432 102.399 53.8226C102.151 53.9021 101.884 53.9056 101.634 53.8327C101.111 53.6828 100.624 53.4296 100.202 53.0882C100.071 53.0101 99.9576 52.9076 99.8662 52.7864C99.8229 52.7292 99.7975 52.6604 99.7933 52.5887C99.7892 52.5171 99.8064 52.4458 99.8428 52.3839" fill="#EB996E"/>
<path d="M102.502 50.3247C102.324 50.3247 102.391 51.4985 101.439 52.3905C100.487 53.2826 99.2256 53.2323 99.2256 53.3966C99.2256 53.4704 99.5173 53.6079 100.047 53.5911C100.736 53.56 101.391 53.2868 101.898 52.8198C102.385 52.3709 102.677 51.7501 102.713 51.0893C102.737 50.5963 102.586 50.3113 102.502 50.3247Z" fill="#263238"/>
<path d="M102.204 37.4063C102.328 37.6947 103.401 37.4902 104.679 37.5673C105.956 37.6444 107.006 37.9261 107.157 37.6511C107.224 37.5203 107.03 37.2554 106.6 36.9804C106.027 36.6643 105.388 36.4832 104.734 36.4506C104.08 36.4181 103.426 36.535 102.824 36.7926C102.371 37.024 102.167 37.2688 102.204 37.4063Z" fill="#263238"/>
<path d="M92.2838 38.7884C92.4883 39.0232 93.2194 38.7247 94.1149 38.6576C95.0103 38.5905 95.7917 38.7247 95.9393 38.4564C96.0097 38.3256 95.8755 38.0875 95.5268 37.8762C95.065 37.6228 94.5381 37.5129 94.0135 37.5607C93.489 37.6085 92.9906 37.8118 92.5822 38.1445C92.2804 38.4162 92.1932 38.6744 92.2838 38.7884Z" fill="#263238"/>
<path d="M98.1189 26.2153L98.7293 25.3232C103.29 25.5596 107.797 26.4148 112.127 27.8653C113.858 28.4455 115.615 29.1598 116.856 30.4979C118.566 32.3358 118.985 34.9919 119.321 37.4803C120.602 46.9477 121.782 56.7102 119.354 65.9529C118.563 64.8395 117.121 64.4069 115.766 64.2291C114.411 64.0514 112.999 64.0581 111.741 63.5115C111.058 63.1987 110.448 62.7465 109.951 62.184C109.453 61.6214 109.078 60.9609 108.851 60.245C108.403 58.8001 108.477 57.2436 109.062 55.8483C109.696 54.2956 110.9 52.7596 110.481 51.1532C110.041 49.4529 108.006 48.591 107.435 46.9309C106.453 44.0602 110.387 41.1827 109.377 38.3221C109.002 37.2657 108.016 36.5413 106.983 36.1053C105.95 35.6693 104.836 35.458 103.793 35.0522C102.059 34.3338 100.586 33.1022 99.5718 31.5227C98.5575 29.9432 98.0505 28.0912 98.1189 26.2153Z" fill="#263238"/>
<path d="M121.319 30.8936C116.443 24.0588 113.14 23.2305 108.552 22.9756L114.924 37.2622C115.88 39.5628 117.194 42.3531 117.399 44.8314C117.641 47.7726 116.621 50.2342 115.256 52.8467C113.619 55.9857 111.822 58.9772 109.008 61.1236C106.194 63.2699 99.9298 65.9696 96.6768 64.5778L101.214 67.1166L112.053 67.1568L124.68 67.2071C124.68 67.2071 126.155 65.9126 127.453 62.5723C130.71 54.2049 126.759 38.5165 121.319 30.8936Z" fill="#32959D"/>
<path d="M130.311 75.4101C130.311 75.4101 127.594 69.8363 124.049 66.7711C120.505 63.7058 118.328 63.736 113.271 64.1652C108.213 64.5945 101.137 65.3927 99.4604 64.9668L99.3027 62.6192C98.471 62.5354 95.0603 60.8753 94.3963 59.8726C93.1286 61.1704 92.5753 62.5555 92.8637 64.0277L92.0353 64.3396C90.8133 64.7867 89.7987 65.6681 89.1851 66.8155C88.5715 67.9629 88.4018 69.2961 88.7085 70.5607C89.0237 71.768 89.785 72.5092 91.3143 72.7741C97.3844 73.8238 113.613 69.4372 118.499 69.4205C123.385 69.4037 130.311 75.4101 130.311 75.4101Z" fill="#32959D"/>
<path d="M90.7644 72.7106C90.9068 72.7064 91.0493 72.7143 91.1903 72.7341C91.4653 72.7609 91.861 72.8045 92.3943 72.8414C93.8737 72.9567 95.3588 72.9813 96.8412 72.9152C99.0375 72.8021 101.22 72.506 103.367 72.0298C104.582 71.7649 105.846 71.4429 107.144 71.0673L111.148 69.8298C113.895 68.9948 116.648 68.4246 119.167 68.6728C121.386 68.8757 123.533 69.5626 125.458 70.685C126.75 71.4423 127.919 72.3936 128.922 73.5054C129.195 73.8058 129.45 74.1216 129.687 74.4512C129.775 74.5568 129.854 74.6689 129.925 74.7865C129.819 74.6927 129.725 74.5869 129.643 74.4713C129.472 74.2533 129.201 73.9481 128.842 73.5658C126.283 70.8852 122.835 69.2281 119.143 68.9042C116.675 68.6762 113.965 69.2396 111.228 70.0713C109.857 70.4838 108.525 70.9231 107.221 71.3021C105.916 71.681 104.645 71.9963 103.421 72.2545C101.259 72.7238 99.0592 73.0021 96.848 73.0862C95.358 73.136 93.8664 73.0811 92.3842 72.9219C91.861 72.8682 91.4553 72.8079 91.1836 72.7643C91.0426 72.7585 90.9023 72.7405 90.7644 72.7106Z" fill="#263238"/>
<path d="M130.603 73.579C124.479 65.6174 112.738 62.5756 103.515 66.5598L93.7893 68.6223C91.2238 69.065 87.1088 69.9 86.9143 72.2778C86.7367 74.796 87.2849 77.3123 88.4939 79.5284C90.7543 83.4656 89.5268 88.7409 91.7872 92.6781C92.8537 94.5394 93.9436 96.4275 95.4997 97.9065C97.0558 99.3855 99.1686 100.422 101.302 100.19C103.676 99.9355 105.621 98.2016 107.13 96.3504C110.38 92.3629 112.409 87.5202 115.451 83.3751C118.492 79.2299 122.081 76.1781 128.473 75.7857C129.633 75.7119 132.943 77.258 132.943 77.258C133.037 76.7885 130.894 73.9513 130.603 73.579Z" fill="#32959D"/>
<g opacity="0.3">
<path d="M117.513 68.8438C113.284 68.8438 109.129 70.8761 105.031 71.7816C88.5442 75.4103 88.5442 69.1926 88.5442 69.1926C88.0278 72.1136 90.7711 73.4551 93.6586 74.1258C99.172 75.4002 105.061 76.0844 109.038 74.8133C112.245 73.8072 115.592 73.0594 118.828 72.1304C122.064 71.2014 126.726 71.5569 129.177 73.8575C126.984 70.2523 121.742 68.8337 117.513 68.8438Z" fill="black"/>
</g>
<g opacity="0.3">
<path d="M96.0866 68.3979C96.2836 68.8297 96.5713 69.2141 96.93 69.5248C97.2888 69.8356 97.7103 70.0655 98.1658 70.1988C99.079 70.462 100.035 70.5441 100.98 70.4403C104.427 70.2055 107.741 69.0552 111.004 67.915C108.395 67.8244 105.869 68.7333 103.31 69.2564C100.752 69.7796 97.8674 69.8132 95.7881 68.2503" fill="black"/>
</g>
<path d="M131.431 76.1313C131.431 76.1313 131.401 76.1078 131.354 76.0575L131.149 75.8228C130.971 75.6115 130.7 75.3164 130.341 74.9407C129.331 73.8783 128.109 73.0388 126.756 72.4758C125.811 72.1194 124.819 71.9046 123.811 71.8386C122.656 71.7449 121.494 71.7821 120.347 71.9493C117.912 72.2846 115.34 73.1398 112.61 73.9179C109.88 74.6959 107.274 75.5075 104.796 75.6383C102.611 75.7325 100.422 75.5761 98.2731 75.1721C96.442 74.8368 94.9832 74.4478 93.9737 74.1962L92.8133 73.9011L92.5149 73.8206L92.4109 73.7871C92.4465 73.7818 92.4826 73.7818 92.5182 73.7871L92.8234 73.8508L93.9905 74.1157C94.9966 74.3471 96.4655 74.7127 98.2966 75.0346C100.437 75.4211 102.614 75.5651 104.786 75.4639C107.237 75.3264 109.847 74.5517 112.563 73.7368C115.28 72.9218 117.869 72.1002 120.323 71.7749C121.483 71.6113 122.658 71.5798 123.825 71.681C125.076 71.7529 126.301 72.0728 127.427 72.622C128.554 73.1713 129.56 73.9389 130.388 74.8804C130.743 75.2661 131.008 75.5679 131.176 75.7859L131.367 76.0307L131.431 76.1313Z" fill="black"/>
<path d="M125.273 67.9285C125.248 67.9119 125.225 67.8928 125.203 67.8715L125.009 67.6937C124.844 67.5328 124.586 67.3081 124.251 67.023C123.285 66.2424 122.226 65.5845 121.098 65.0645C119.424 64.2976 117.645 63.7866 115.819 63.5486C113.582 63.2708 111.318 63.2764 109.082 63.5654C106.844 63.8613 104.623 64.2754 102.428 64.8062C101.459 65.034 100.46 65.1132 99.467 65.041C98.5935 64.9757 97.7548 64.6717 97.0423 64.1623C96.4705 63.7281 95.982 63.1941 95.6002 62.5861C95.3122 62.1324 95.062 61.6557 94.8523 61.1608C94.6813 60.755 94.5673 60.4297 94.4935 60.2084L94.4164 59.9568C94.4053 59.929 94.3985 59.8995 94.3962 59.8696C94.3962 59.8696 94.413 59.8965 94.4331 59.9501C94.4533 60.0038 94.4901 60.0977 94.527 60.1983C94.6109 60.4129 94.735 60.7315 94.9161 61.134C95.135 61.6195 95.3918 62.0871 95.6841 62.5324C96.0662 63.1236 96.5512 63.6416 97.1161 64.0617C97.8149 64.5498 98.6334 64.8385 99.4838 64.8968C100.461 64.9602 101.442 64.8766 102.395 64.6486C104.592 64.1068 106.818 63.688 109.062 63.3943C111.313 63.1039 113.592 63.1039 115.843 63.3943C117.682 63.6438 119.472 64.1719 121.152 64.9605C122.283 65.4907 123.339 66.1672 124.294 66.9727C124.553 67.1924 124.8 67.4252 125.035 67.6703L125.216 67.8581C125.257 67.905 125.277 67.9251 125.273 67.9285Z" fill="black"/>
<path d="M123.295 67.7638H123.211L122.963 67.7236L122.007 67.566C120.836 67.3856 119.656 67.2658 118.472 67.2071C116.715 67.1207 114.955 67.1768 113.207 67.3748C111.069 67.6618 108.95 68.0772 106.862 68.619C104.635 69.1556 102.468 69.6251 100.46 69.5949C99.5114 69.6009 98.5662 69.4882 97.6459 69.2596C96.8434 69.0326 96.1012 68.6306 95.4727 68.0824C94.5709 67.2943 93.8384 66.3314 93.3197 65.2519C93.1223 64.8611 92.9661 64.4509 92.8535 64.0278C92.8695 64.0516 92.8819 64.0776 92.8904 64.105L92.9809 64.3397C93.0648 64.5477 93.1922 64.8461 93.38 65.2184C93.9162 66.2751 94.6546 67.2162 95.5532 67.9885C96.1722 68.516 96.899 68.9017 97.6828 69.1187C98.5916 69.3398 99.5244 69.4468 100.46 69.4373C102.445 69.4373 104.595 68.9913 106.832 68.4513C108.928 67.9054 111.056 67.4909 113.204 67.2105C114.96 67.0213 116.729 66.9776 118.492 67.0797C119.68 67.1487 120.862 67.2864 122.034 67.4922C122.45 67.5693 122.768 67.633 122.986 67.6833L123.231 67.7403C123.271 67.7504 123.295 67.7605 123.295 67.7638Z" fill="black"/>
<path d="M123.603 52.7129C123.573 52.9033 123.531 53.0915 123.476 53.2763C123.424 53.4967 123.359 53.7139 123.281 53.9269C123.194 54.1784 123.11 54.4669 122.976 54.772C122.842 55.0772 122.711 55.4193 122.534 55.7781C122.356 56.137 122.158 56.4958 121.94 56.8815C120.961 58.5299 119.686 59.9839 118.181 61.1708C117.828 61.4391 117.51 61.6974 117.174 61.9053C116.839 62.1132 116.537 62.3111 116.245 62.4754C115.954 62.6398 115.685 62.7739 115.451 62.8913C115.25 62.9965 115.042 63.0895 114.83 63.1696C114.656 63.2501 114.475 63.3173 114.29 63.3708C114.454 63.2699 114.626 63.1824 114.803 63.1093C114.971 63.0321 115.176 62.9349 115.407 62.8041C115.638 62.6733 115.907 62.5492 116.185 62.3681C116.463 62.187 116.779 62.0126 117.094 61.7846C117.409 61.5565 117.741 61.3117 118.1 61.0468C119.577 59.8549 120.837 58.4161 121.823 56.7943C122.041 56.4153 122.255 56.0599 122.423 55.7111C122.591 55.3623 122.758 55.0403 122.882 54.7318C123.006 54.4233 123.114 54.1483 123.218 53.9034C123.322 53.6586 123.382 53.4406 123.436 53.2662C123.476 53.0774 123.532 52.8922 123.603 52.7129Z" fill="black"/>
<path d="M123.097 72.7039C123.006 72.7038 122.915 72.696 122.825 72.6805L122.49 72.6369C122.362 72.6201 122.212 72.6369 122.047 72.6134C121.099 72.5906 120.154 72.7371 119.257 73.046C118.638 73.2584 118.037 73.5162 117.456 73.8174C116.791 74.1677 116.145 74.5527 115.521 74.971C114.2 75.853 112.818 76.9329 111.336 78.0229L103.77 83.6402L101.459 85.3171L100.825 85.7531C100.755 85.8102 100.678 85.8597 100.597 85.9006C100.661 85.8377 100.729 85.7794 100.802 85.7262L101.415 85.25L103.693 83.5229L111.238 77.882C112.721 76.7954 114.102 75.7155 115.44 74.8369C116.071 74.4187 116.724 74.0347 117.396 73.6866C117.986 73.389 118.599 73.1357 119.227 72.9286C120.138 72.6267 121.098 72.4971 122.057 72.5463C122.225 72.5463 122.376 72.5631 122.503 72.5832L122.839 72.6436C122.926 72.656 123.013 72.6762 123.097 72.7039Z" fill="black"/>
<path d="M133.919 82.9863C133.854 82.8341 133.805 82.6756 133.772 82.5134C133.691 82.2083 133.577 81.7622 133.416 81.2189C133.235 80.5818 133.005 79.9595 132.729 79.3576C132.392 78.6252 131.933 77.956 131.37 77.379C130.811 76.7999 130.111 76.3759 129.338 76.1482C128.702 75.9779 128.042 75.92 127.386 75.9771C126.779 76.0453 126.177 76.1483 125.582 76.2857C125.618 76.2617 125.658 76.2436 125.699 76.232C125.78 76.2018 125.897 76.1616 126.035 76.118C126.473 75.9881 126.922 75.9005 127.376 75.8564C128.05 75.7778 128.732 75.8244 129.388 75.9939C130.191 76.2212 130.92 76.6561 131.501 77.2549C132.079 77.8463 132.547 78.5355 132.883 79.2906C133.158 79.9028 133.382 80.5365 133.554 81.1854C133.698 81.7354 133.795 82.1915 133.856 82.5C133.891 82.66 133.912 82.8227 133.919 82.9863Z" fill="black"/>
<path d="M53.049 63.4339C59.6431 63.1275 64.7402 57.5336 64.4339 50.9396C64.1275 44.3455 58.5337 39.2483 51.9396 39.5547C45.3455 39.861 40.2483 45.4549 40.5547 52.049C40.8611 58.643 46.4549 63.7402 53.049 63.4339Z" fill="white"/>
<path d="M69.9279 56.1602C70.0384 56.1291 70.1503 56.1034 70.2633 56.0831C70.5861 56.0431 70.9133 56.1053 71.199 56.2608C71.3956 56.3631 71.5673 56.5074 71.702 56.6834C71.8515 56.888 71.9388 57.1314 71.9536 57.3843C71.985 57.6752 71.9266 57.9688 71.7862 58.2255C71.6457 58.4822 71.43 58.6897 71.1681 58.8201C70.9062 58.9505 70.6106 58.9976 70.3211 58.9549C70.0316 58.9123 69.7622 58.782 69.549 58.5816C69.3569 58.4174 69.2151 58.2024 69.1398 57.9611C69.0779 57.7431 69.0653 57.514 69.1029 57.2904C69.1523 56.9686 69.2999 56.6699 69.5255 56.4352C69.6865 56.2709 69.8039 56.2139 69.7972 56.2038C69.7673 56.2129 69.7391 56.2265 69.7133 56.2441C69.6793 56.2615 69.6468 56.2817 69.6161 56.3044C69.5739 56.3356 69.5336 56.3692 69.4953 56.405C69.2884 56.6028 69.1383 56.8524 69.0604 57.1278C68.9826 57.4032 68.9799 57.6944 69.0526 57.9712C69.127 58.232 69.2762 58.4652 69.4819 58.6419C69.706 58.841 69.9813 58.9735 70.2767 59.0243C70.5948 59.0914 70.9262 59.049 71.2172 58.9042C71.5081 58.7593 71.7416 58.5203 71.8798 58.2261C72.0162 57.9591 72.0765 57.6598 72.0542 57.3608C72.036 57.0898 71.9393 56.8299 71.7758 56.613C71.6328 56.4262 71.4478 56.2757 71.2359 56.1736C70.9346 56.018 70.5908 55.965 70.2566 56.0227C70.2053 56.0303 70.1547 56.0426 70.1057 56.0596C70.0676 56.0693 70.0305 56.0828 69.995 56.0999C69.9548 56.1368 69.9246 56.1602 69.9279 56.1602Z" fill="#263238"/>
<path d="M42.5419 58.2953L42.4447 58.1242L42.1495 57.6346C42.0858 57.5239 42.0121 57.4032 41.9316 57.2724C41.8511 57.1416 41.7907 56.9806 41.7102 56.813C41.6297 56.6453 41.5459 56.4776 41.4553 56.2764C41.4059 56.1793 41.3644 56.0783 41.3313 55.9745C41.2944 55.8672 41.2541 55.7599 41.2139 55.6392C40.8077 54.5513 40.5691 53.4081 40.5063 52.2486C40.4135 50.713 40.6161 49.1738 41.1032 47.7145L41.3145 47.1041C41.3983 46.8995 41.4956 46.7016 41.5861 46.4971C41.6297 46.3965 41.6767 46.2959 41.7236 46.1919C41.7663 46.087 41.8179 45.986 41.8779 45.8901L42.2133 45.2898C42.2703 45.1891 42.3273 45.0885 42.3877 44.9879L42.5956 44.6995L43.0148 44.116C43.159 43.9248 43.33 43.7471 43.491 43.5593L43.7358 43.2809C43.7761 43.2373 43.8163 43.187 43.8599 43.1434L43.9974 43.016C44.3572 42.6545 44.7416 42.3183 45.1477 42.0099C45.3557 41.8589 45.5569 41.6745 45.7782 41.5437L46.449 41.1312C46.563 41.0641 46.6736 40.987 46.7843 40.9266L47.1499 40.7522C47.3947 40.6382 47.6361 40.5108 47.8877 40.4169C48.4049 40.2111 48.9347 40.0386 49.474 39.9004L49.8831 39.7964L50.091 39.7461L50.3023 39.716L51.1508 39.5885C51.4392 39.5583 51.7276 39.5516 52.0194 39.5349C52.1636 39.5349 52.3112 39.5114 52.4587 39.5349L52.8981 39.555C53.4929 39.5767 54.0856 39.6384 54.6721 39.7394L55.5542 39.9507L55.7755 40.0044C55.8493 40.0245 55.9197 40.0513 55.9935 40.0748L56.4261 40.2257L56.8621 40.3733L57.2847 40.5611L57.7072 40.7556L57.9185 40.8495C57.9889 40.8864 58.0526 40.9266 58.1231 40.9669L58.9347 41.433L59.706 41.983C61.7759 43.5342 63.2831 45.7184 63.9987 48.2041C64.0792 48.5093 64.1563 48.8178 64.2335 49.1196L64.3743 50.0486L64.4078 50.28V50.5114L64.4313 50.9742L64.4548 51.437L64.4347 51.8965L64.4145 52.3559V52.584L64.3844 52.8087C64.3408 53.1105 64.3005 53.409 64.2603 53.7075C64.1414 54.292 63.9834 54.8679 63.7874 55.4312L63.6466 55.8471C63.5996 55.9879 63.5292 56.1154 63.4722 56.2495C63.3481 56.5145 63.2408 56.7828 63.1066 57.0376C62.9725 57.2925 62.8216 57.5373 62.6807 57.7855L62.5734 57.97C62.5331 58.0303 62.4895 58.0873 62.4493 58.1444L62.2045 58.4797C61.8807 58.9315 61.5278 59.3617 61.1481 59.7675C60.9569 59.9654 60.7523 60.1431 60.5578 60.331L60.2594 60.606C60.1621 60.6965 60.0481 60.7736 59.9441 60.8541L59.3136 61.3371C59.099 61.488 58.8676 61.6154 58.6429 61.7529C58.2129 62.0209 57.7646 62.2585 57.3014 62.4639L57.1337 62.5444L56.9593 62.6114L56.624 62.7355C56.3892 62.816 56.1645 62.9133 55.9331 62.9803L55.2356 63.1581L54.9002 63.2453L54.5648 63.2989L53.8941 63.4029C53.7833 63.4224 53.6712 63.4336 53.5587 63.4364H53.2234C53.002 63.4364 52.7807 63.4666 52.5526 63.47L51.9054 63.4432C50.3688 63.3676 48.8612 62.9963 47.4651 62.3499C47.3108 62.2794 47.1566 62.2157 47.009 62.1453L46.5932 61.9038L46.1907 61.6758C46.1236 61.6355 46.0566 61.602 45.9962 61.5617L45.8185 61.4343L45.1477 60.9514C44.9364 60.7904 44.7553 60.616 44.5709 60.4617L44.3093 60.2337C44.2252 60.1639 44.1457 60.0889 44.0712 60.009L43.6185 59.6066C43.4944 59.4724 43.3736 59.3517 43.2831 59.2343L43.0249 58.8989L42.6895 58.4462C42.6123 58.3456 42.5688 58.2953 42.5688 58.2953L42.6828 58.4529C42.7599 58.5602 42.8739 58.7111 43.0181 58.9123L43.2697 59.2477C43.3703 59.3684 43.491 59.4892 43.605 59.6233L44.0075 60.0627C44.0811 60.1445 44.1606 60.2207 44.2456 60.2907L44.5072 60.5221C44.6883 60.6764 44.8694 60.8575 45.0807 61.0151L45.7514 61.5047L45.9291 61.6322C45.9928 61.6758 46.0599 61.7093 46.1236 61.7496L46.5261 61.981L46.9453 62.2258L47.4014 62.4337C48.8033 63.0899 50.3192 63.468 51.8651 63.5471L52.5157 63.5773C52.7337 63.5773 52.9584 63.5572 53.1865 63.5471L53.5218 63.527C53.6343 63.5266 53.7465 63.5165 53.8572 63.4968L54.5447 63.3928L54.8801 63.3392L55.2154 63.252L55.9197 63.0743C56.1511 63.0072 56.3792 62.9133 56.6139 62.8328L56.9661 62.7054C57.0231 62.6819 57.0834 62.6651 57.1404 62.6383L57.3115 62.5578C57.7822 62.351 58.2382 62.1124 58.6764 61.8435C58.8978 61.706 59.1292 61.5785 59.3472 61.4276L59.9844 60.9413C60.0917 60.8575 60.2023 60.7837 60.3197 60.6931L60.6182 60.4148C60.8127 60.227 61.024 60.0459 61.2152 59.848C61.5983 59.4389 61.9545 59.0053 62.2816 58.5502C62.3621 58.4328 62.4459 58.3188 62.5298 58.2148C62.57 58.1578 62.6136 58.1008 62.6539 58.0404L62.7612 57.8526L63.1938 57.1014C63.328 56.8431 63.4386 56.5715 63.5627 56.3066C63.6197 56.1691 63.6935 56.0383 63.7405 55.9008L63.8813 55.4782C64.08 54.9108 64.2391 54.3304 64.3575 53.741C64.4011 53.4425 64.4447 53.1373 64.485 52.8355L64.5185 52.6075V52.3761L64.5386 51.9166L64.5588 51.4504L64.5353 50.9843L64.5084 50.5181V50.28L64.4716 50.0486L64.3307 49.1129C64.2536 48.8044 64.1764 48.4959 64.096 48.1873C63.3883 45.6724 61.8757 43.4589 59.7898 41.8858L59.0118 41.3291L58.1901 40.8596C58.1231 40.8193 58.056 40.7791 57.9856 40.7422L57.7709 40.6449L57.345 40.4504L56.9191 40.2626L56.4798 40.1117L56.0404 39.9608L55.8224 39.887L55.5978 39.8367C55.3026 39.7629 55.0042 39.6925 54.709 39.6254C54.1171 39.5216 53.5187 39.4588 52.9182 39.4376L52.4755 39.4175C52.3279 39.4175 52.1804 39.4175 52.0328 39.4175C51.7377 39.4376 51.4459 39.441 51.1575 39.4711L50.299 39.6019L50.0877 39.6355C50.0172 39.6355 49.9468 39.669 49.8797 39.6858L49.4639 39.7931C48.9207 39.9304 48.3874 40.1041 47.8675 40.3129C47.6127 40.4202 47.3679 40.551 47.1197 40.665L46.7541 40.8428C46.6334 40.9032 46.5227 40.9803 46.4188 41.0507L45.748 41.4666C45.5267 41.6141 45.3221 41.7852 45.1142 41.9394C44.7049 42.2479 44.3172 42.5841 43.9538 42.9455L43.8163 43.0763C43.7727 43.1199 43.7325 43.1702 43.6922 43.2172C43.652 43.2641 43.5279 43.405 43.4441 43.4955C43.2831 43.6867 43.1087 43.8644 42.9678 44.0556L42.5453 44.6458L42.3374 44.9376C42.277 45.0382 42.22 45.1422 42.163 45.2428L41.8276 45.8465C41.7693 45.944 41.7188 46.0461 41.6767 46.1516L41.5358 46.4602C41.4453 46.6648 41.348 46.866 41.2675 47.0706C41.187 47.2751 41.1267 47.4831 41.0562 47.6876C40.5697 49.1562 40.3716 50.7049 40.4727 52.2486C40.5397 53.4138 40.7851 54.5619 41.2005 55.6526L41.3212 55.988C41.3544 56.0917 41.3959 56.1927 41.4453 56.2898L41.7069 56.8264C41.7907 56.9907 41.8578 57.145 41.9349 57.2825L42.1563 57.6413L42.4614 58.1276C42.5017 58.2383 42.5419 58.2953 42.5419 58.2953Z" fill="#263238"/>
<path d="M46.4592 51.7956L48.23 50.0249L51.644 53.0599L58.3446 46.6108L59.9879 48.3816L51.3925 56.474L46.4592 51.7956Z" fill="#32959D"/>
<rect width="148" height="200" rx="15" fill="#D2B89D" fill-opacity="0.15"/>
<path d="M38.8717 55.5488C52.9817 55.3988 60.7217 44.8288 60.6017 29.6188C60.5417 13.5388 53.9917 -2.22119 42.6317 -13.6112C34.8517 -20.8312 24.1017 -10.1112 31.3017 -2.31119C39.7117 6.11881 44.5517 17.7688 44.6017 29.6788C44.4617 39.9488 41.0017 41.1988 32.1017 38.0788C34.5317 31.0988 34.1917 22.4488 31.0217 12.5588C29.3017 7.19881 26.8316 1.12881 21.5017 -3.24119C15.3017 -8.32119 4.83165 -9.78118 -1.94835 -3.43118C-13.1084 6.71881 -4.32835 27.5988 4.62165 37.6988C0.0616493 36.1488 -3.89835 32.3488 -7.00835 26.8288C-9.15835 22.9688 -14.0284 21.5788 -17.8884 23.7288C-21.7484 25.8788 -23.1384 30.7488 -20.9883 34.6088C-17.5883 40.7188 -11.4283 48.7888 -1.43835 52.5188C6.39165 55.4388 14.9216 54.7288 21.5517 50.9288C26.7416 53.5288 33.3417 55.6088 38.8817 55.5488H38.8717ZM9.15165 8.31882C14.5117 8.38881 17.7217 22.6888 17.6617 28.2388C13.8117 24.0288 10.8917 18.9588 9.35165 13.5188C8.56165 10.7088 8.72165 8.89881 8.95165 8.32881H9.15165V8.31882Z" fill="#D2B89D" fill-opacity="0.1"/>
<path d="M27.6177 145.336V156H25.23V145.336H27.6177ZM31.8145 149.833V151.679H26.9512V149.833H31.8145ZM32.2832 145.336V147.189H26.9512V145.336H32.2832ZM35.4326 149.921V156H33.1475V148.075H35.2935L35.4326 149.921ZM37.7983 148.017L37.7617 150.148C37.6641 150.133 37.5371 150.121 37.3809 150.111C37.2246 150.097 37.0903 150.089 36.978 150.089C36.6851 150.089 36.4312 150.126 36.2163 150.199C36.0063 150.268 35.8306 150.37 35.689 150.507C35.5522 150.644 35.4497 150.814 35.3813 151.02C35.313 151.22 35.2788 151.452 35.2788 151.715L34.8467 151.503C34.8467 150.98 34.8979 150.502 35.0005 150.067C35.103 149.633 35.252 149.257 35.4473 148.939C35.6426 148.617 35.8818 148.368 36.165 148.192C36.4482 148.017 36.7705 147.929 37.1318 147.929C37.249 147.929 37.3687 147.936 37.4907 147.951C37.6128 147.965 37.7153 147.987 37.7983 148.017ZM42.3247 156.146C41.6948 156.146 41.1309 156.046 40.6328 155.846C40.1348 155.646 39.7124 155.37 39.3657 155.019C39.0239 154.662 38.7627 154.252 38.582 153.788C38.4014 153.324 38.311 152.829 38.311 152.301V152.023C38.311 151.432 38.394 150.888 38.5601 150.39C38.7261 149.892 38.9678 149.459 39.2852 149.093C39.6074 148.722 40.0029 148.437 40.4717 148.236C40.9404 148.031 41.4751 147.929 42.0757 147.929C42.6372 147.929 43.1377 148.021 43.5771 148.207C44.0166 148.388 44.3877 148.649 44.6904 148.991C44.9932 149.328 45.2227 149.735 45.3789 150.214C45.54 150.688 45.6206 151.22 45.6206 151.811V152.748H39.2339V151.276H43.3794V151.1C43.3794 150.822 43.3281 150.578 43.2256 150.368C43.1279 150.158 42.9814 149.997 42.7861 149.884C42.5957 149.767 42.354 149.708 42.061 149.708C41.7827 149.708 41.5508 149.767 41.3652 149.884C41.1797 150.001 41.0308 150.167 40.9185 150.382C40.811 150.592 40.7329 150.839 40.6841 151.122C40.6353 151.4 40.6108 151.701 40.6108 152.023V152.301C40.6108 152.609 40.6523 152.89 40.7354 153.144C40.8184 153.397 40.9404 153.615 41.1016 153.795C41.2627 153.976 41.458 154.118 41.6875 154.22C41.917 154.323 42.1782 154.374 42.4712 154.374C42.8325 154.374 43.1768 154.306 43.5039 154.169C43.8311 154.027 44.1143 153.808 44.3535 153.51L45.4229 154.733C45.2617 154.967 45.0347 155.194 44.7417 155.414C44.4536 155.629 44.1069 155.805 43.7017 155.941C43.2964 156.078 42.8374 156.146 42.3247 156.146ZM50.4692 156.146C49.8394 156.146 49.2754 156.046 48.7773 155.846C48.2793 155.646 47.8569 155.37 47.5103 155.019C47.1685 154.662 46.9072 154.252 46.7266 153.788C46.5459 153.324 46.4556 152.829 46.4556 152.301V152.023C46.4556 151.432 46.5386 150.888 46.7046 150.39C46.8706 149.892 47.1123 149.459 47.4297 149.093C47.752 148.722 48.1475 148.437 48.6162 148.236C49.085 148.031 49.6196 147.929 50.2202 147.929C50.7817 147.929 51.2822 148.021 51.7217 148.207C52.1611 148.388 52.5322 148.649 52.835 148.991C53.1377 149.328 53.3672 149.735 53.5234 150.214C53.6846 150.688 53.7651 151.22 53.7651 151.811V152.748H47.3784V151.276H51.5239V151.1C51.5239 150.822 51.4727 150.578 51.3701 150.368C51.2725 150.158 51.126 149.997 50.9307 149.884C50.7402 149.767 50.4985 149.708 50.2056 149.708C49.9272 149.708 49.6953 149.767 49.5098 149.884C49.3242 150.001 49.1753 150.167 49.063 150.382C48.9556 150.592 48.8774 150.839 48.8286 151.122C48.7798 151.4 48.7554 151.701 48.7554 152.023V152.301C48.7554 152.609 48.7969 152.89 48.8799 153.144C48.9629 153.397 49.085 153.615 49.2461 153.795C49.4072 153.976 49.6025 154.118 49.832 154.22C50.0615 154.323 50.3228 154.374 50.6157 154.374C50.9771 154.374 51.3213 154.306 51.6484 154.169C51.9756 154.027 52.2588 153.808 52.498 153.51L53.5674 154.733C53.4062 154.967 53.1792 155.194 52.8862 155.414C52.5981 155.629 52.2515 155.805 51.8462 155.941C51.4409 156.078 50.9819 156.146 50.4692 156.146ZM61.2505 154.667L63.3745 145.336H64.5977L65.0811 146.493L62.8179 156H61.4775L61.2505 154.667ZM60.4229 145.336L62.2026 154.711L61.895 156H60.3716L58.0571 145.336H60.4229ZM66.5972 154.66L68.355 145.336H70.7134L68.3989 156H66.8901L66.5972 154.66ZM65.396 145.336L67.5493 154.718L67.3003 156H65.9673L63.6675 146.486L64.1729 145.336H65.396ZM75.1958 156.146C74.5659 156.146 74.002 156.046 73.5039 155.846C73.0059 155.646 72.5835 155.37 72.2368 155.019C71.895 154.662 71.6338 154.252 71.4531 153.788C71.2725 153.324 71.1821 152.829 71.1821 152.301V152.023C71.1821 151.432 71.2651 150.888 71.4312 150.39C71.5972 149.892 71.8389 149.459 72.1562 149.093C72.4785 148.722 72.874 148.437 73.3428 148.236C73.8115 148.031 74.3462 147.929 74.9468 147.929C75.5083 147.929 76.0088 148.021 76.4482 148.207C76.8877 148.388 77.2588 148.649 77.5615 148.991C77.8643 149.328 78.0938 149.735 78.25 150.214C78.4111 150.688 78.4917 151.22 78.4917 151.811V152.748H72.105V151.276H76.2505V151.1C76.2505 150.822 76.1992 150.578 76.0967 150.368C75.999 150.158 75.8525 149.997 75.6572 149.884C75.4668 149.767 75.2251 149.708 74.9321 149.708C74.6538 149.708 74.4219 149.767 74.2363 149.884C74.0508 150.001 73.9019 150.167 73.7896 150.382C73.6821 150.592 73.604 150.839 73.5552 151.122C73.5063 151.4 73.4819 151.701 73.4819 152.023V152.301C73.4819 152.609 73.5234 152.89 73.6064 153.144C73.6895 153.397 73.8115 153.615 73.9727 153.795C74.1338 153.976 74.3291 154.118 74.5586 154.22C74.7881 154.323 75.0493 154.374 75.3423 154.374C75.7036 154.374 76.0479 154.306 76.375 154.169C76.7021 154.027 76.9854 153.808 77.2246 153.51L78.2939 154.733C78.1328 154.967 77.9058 155.194 77.6128 155.414C77.3247 155.629 76.978 155.805 76.5728 155.941C76.1675 156.078 75.7085 156.146 75.1958 156.146ZM82.0146 144.75V156H79.7222V144.75H82.0146ZM86.0723 144.75V156H83.7798V144.75H86.0723ZM87.7275 144.75H90.0127V154.118L89.7783 156H87.7275V144.75ZM94.9565 151.95V152.104C94.9565 152.704 94.8931 153.251 94.7661 153.744C94.644 154.237 94.4561 154.665 94.2021 155.026C93.9482 155.382 93.6284 155.658 93.2427 155.854C92.8569 156.049 92.4028 156.146 91.8804 156.146C91.397 156.146 90.9819 156.046 90.6353 155.846C90.2886 155.641 89.998 155.358 89.7637 154.997C89.5293 154.635 89.3389 154.213 89.1924 153.729C89.0508 153.246 88.9409 152.726 88.8628 152.169V151.906C88.9409 151.349 89.0508 150.829 89.1924 150.346C89.3389 149.862 89.5293 149.44 89.7637 149.079C89.998 148.717 90.2861 148.437 90.6279 148.236C90.9746 148.031 91.3872 147.929 91.8657 147.929C92.3931 147.929 92.8496 148.029 93.2354 148.229C93.626 148.429 93.9482 148.71 94.2021 149.071C94.4561 149.428 94.644 149.853 94.7661 150.346C94.8931 150.834 94.9565 151.369 94.9565 151.95ZM92.6714 152.104V151.95C92.6714 151.647 92.6494 151.361 92.6055 151.093C92.5664 150.824 92.4956 150.587 92.3931 150.382C92.2954 150.172 92.1562 150.009 91.9756 149.892C91.7998 149.77 91.5728 149.708 91.2944 149.708C91.021 149.708 90.7891 149.755 90.5986 149.848C90.4082 149.94 90.2544 150.072 90.1372 150.243C90.02 150.409 89.9346 150.612 89.8809 150.851C89.8271 151.09 89.7979 151.356 89.793 151.649V152.426C89.7979 152.816 89.8491 153.158 89.9468 153.451C90.0444 153.744 90.2031 153.971 90.4229 154.132C90.6426 154.289 90.938 154.367 91.3091 154.367C91.5923 154.367 91.8218 154.313 91.9976 154.206C92.1782 154.093 92.3149 153.937 92.4077 153.737C92.5054 153.537 92.5737 153.297 92.6128 153.019C92.6519 152.741 92.6714 152.436 92.6714 152.104ZM99.9077 156.146C99.2778 156.146 98.7139 156.046 98.2158 155.846C97.7178 155.646 97.2954 155.37 96.9487 155.019C96.6069 154.662 96.3457 154.252 96.165 153.788C95.9844 153.324 95.894 152.829 95.894 152.301V152.023C95.894 151.432 95.9771 150.888 96.1431 150.39C96.3091 149.892 96.5508 149.459 96.8682 149.093C97.1904 148.722 97.5859 148.437 98.0547 148.236C98.5234 148.031 99.0581 147.929 99.6587 147.929C100.22 147.929 100.721 148.021 101.16 148.207C101.6 148.388 101.971 148.649 102.273 148.991C102.576 149.328 102.806 149.735 102.962 150.214C103.123 150.688 103.204 151.22 103.204 151.811V152.748H96.8169V151.276H100.962V151.1C100.962 150.822 100.911 150.578 100.809 150.368C100.711 150.158 100.564 149.997 100.369 149.884C100.179 149.767 99.937 149.708 99.644 149.708C99.3657 149.708 99.1338 149.767 98.9482 149.884C98.7627 150.001 98.6138 150.167 98.5015 150.382C98.394 150.592 98.3159 150.839 98.2671 151.122C98.2183 151.4 98.1938 151.701 98.1938 152.023V152.301C98.1938 152.609 98.2354 152.89 98.3184 153.144C98.4014 153.397 98.5234 153.615 98.6846 153.795C98.8457 153.976 99.041 154.118 99.2705 154.22C99.5 154.323 99.7612 154.374 100.054 154.374C100.416 154.374 100.76 154.306 101.087 154.169C101.414 154.027 101.697 153.808 101.937 153.51L103.006 154.733C102.845 154.967 102.618 155.194 102.325 155.414C102.037 155.629 101.69 155.805 101.285 155.941C100.879 156.078 100.42 156.146 99.9077 156.146ZM106.727 148.075V156H104.434V148.075H106.727ZM104.295 146.024C104.295 145.692 104.412 145.421 104.646 145.211C104.881 144.997 105.188 144.889 105.569 144.889C105.95 144.889 106.258 144.997 106.492 145.211C106.731 145.421 106.851 145.692 106.851 146.024C106.851 146.352 106.731 146.623 106.492 146.837C106.258 147.047 105.95 147.152 105.569 147.152C105.188 147.152 104.881 147.047 104.646 146.837C104.412 146.623 104.295 146.352 104.295 146.024ZM110.616 149.767V156H108.323V148.075H110.477L110.616 149.767ZM110.315 151.759L109.744 151.774C109.744 151.178 109.817 150.644 109.964 150.17C110.11 149.696 110.318 149.293 110.586 148.961C110.86 148.625 111.185 148.368 111.561 148.192C111.941 148.017 112.361 147.929 112.82 147.929C113.191 147.929 113.531 147.982 113.838 148.09C114.146 148.197 114.41 148.371 114.629 148.61C114.854 148.844 115.025 149.157 115.142 149.547C115.259 149.933 115.318 150.409 115.318 150.976V156H113.018V150.968C113.018 150.636 112.972 150.38 112.879 150.199C112.786 150.019 112.649 149.892 112.469 149.818C112.293 149.745 112.078 149.708 111.824 149.708C111.556 149.708 111.326 149.762 111.136 149.87C110.945 149.972 110.789 150.116 110.667 150.302C110.545 150.487 110.455 150.705 110.396 150.954C110.342 151.203 110.315 151.471 110.315 151.759ZM121.807 148.075H123.887V155.714C123.887 156.442 123.721 157.06 123.389 157.567C123.062 158.075 122.605 158.461 122.02 158.725C121.434 158.988 120.748 159.12 119.961 159.12C119.62 159.12 119.263 159.074 118.892 158.981C118.521 158.893 118.172 158.759 117.845 158.578C117.518 158.402 117.244 158.178 117.024 157.904L117.999 156.557C118.223 156.811 118.492 157.016 118.804 157.172C119.117 157.333 119.473 157.414 119.874 157.414C120.24 157.414 120.55 157.348 120.804 157.216C121.058 157.084 121.25 156.891 121.382 156.637C121.519 156.383 121.587 156.076 121.587 155.714V149.928L121.807 148.075ZM116.512 152.133V151.979C116.512 151.378 116.585 150.832 116.731 150.338C116.878 149.84 117.09 149.413 117.369 149.057C117.652 148.695 117.991 148.417 118.387 148.222C118.787 148.026 119.236 147.929 119.734 147.929C120.271 147.929 120.716 148.031 121.067 148.236C121.419 148.437 121.705 148.72 121.924 149.086C122.144 149.447 122.317 149.875 122.444 150.368C122.571 150.856 122.674 151.386 122.752 151.957V152.221C122.674 152.768 122.562 153.278 122.415 153.751C122.269 154.225 122.078 154.643 121.844 155.004C121.609 155.36 121.316 155.641 120.965 155.846C120.618 156.046 120.203 156.146 119.72 156.146C119.227 156.146 118.782 156.046 118.387 155.846C117.991 155.646 117.652 155.365 117.369 155.004C117.09 154.643 116.878 154.218 116.731 153.729C116.585 153.241 116.512 152.709 116.512 152.133ZM118.797 151.979V152.133C118.797 152.445 118.826 152.736 118.885 153.004C118.948 153.273 119.041 153.51 119.163 153.715C119.29 153.92 119.446 154.081 119.632 154.198C119.822 154.311 120.044 154.367 120.298 154.367C120.669 154.367 120.97 154.289 121.199 154.132C121.434 153.971 121.604 153.749 121.712 153.466C121.824 153.183 121.883 152.853 121.888 152.477V151.708C121.888 151.396 121.856 151.115 121.792 150.866C121.729 150.617 121.634 150.407 121.507 150.236C121.385 150.065 121.224 149.936 121.023 149.848C120.828 149.755 120.591 149.708 120.313 149.708C120.064 149.708 119.844 149.767 119.654 149.884C119.463 149.997 119.305 150.155 119.178 150.36C119.051 150.565 118.956 150.807 118.892 151.085C118.829 151.359 118.797 151.657 118.797 151.979ZM61.646 163.336V174H59.2656V163.336H61.646ZM64.8906 163.336V165.189H56.0869V163.336H64.8906ZM69.0142 174.146C68.3843 174.146 67.8203 174.046 67.3223 173.846C66.8242 173.646 66.4019 173.37 66.0552 173.019C65.7134 172.662 65.4521 172.252 65.2715 171.788C65.0908 171.324 65.0005 170.829 65.0005 170.301V170.023C65.0005 169.432 65.0835 168.888 65.2495 168.39C65.4155 167.892 65.6572 167.459 65.9746 167.093C66.2969 166.722 66.6924 166.437 67.1611 166.236C67.6299 166.031 68.1646 165.929 68.7651 165.929C69.3267 165.929 69.8271 166.021 70.2666 166.207C70.7061 166.388 71.0771 166.649 71.3799 166.991C71.6826 167.328 71.9121 167.735 72.0684 168.214C72.2295 168.688 72.3101 169.22 72.3101 169.811V170.748H65.9233V169.276H70.0688V169.1C70.0688 168.822 70.0176 168.578 69.915 168.368C69.8174 168.158 69.6709 167.997 69.4756 167.884C69.2852 167.767 69.0435 167.708 68.7505 167.708C68.4722 167.708 68.2402 167.767 68.0547 167.884C67.8691 168.001 67.7202 168.167 67.6079 168.382C67.5005 168.592 67.4224 168.839 67.3735 169.122C67.3247 169.4 67.3003 169.701 67.3003 170.023V170.301C67.3003 170.609 67.3418 170.89 67.4248 171.144C67.5078 171.397 67.6299 171.615 67.791 171.795C67.9521 171.976 68.1475 172.118 68.377 172.22C68.6064 172.323 68.8677 172.374 69.1606 172.374C69.522 172.374 69.8662 172.306 70.1934 172.169C70.5205 172.027 70.8037 171.808 71.043 171.51L72.1123 172.733C71.9512 172.967 71.7241 173.194 71.4312 173.414C71.1431 173.629 70.7964 173.805 70.3911 173.941C69.9858 174.078 69.5269 174.146 69.0142 174.146ZM77.6421 171.795C77.6421 171.649 77.5957 171.52 77.5029 171.407C77.415 171.295 77.2539 171.192 77.0195 171.1C76.79 171.007 76.4653 170.914 76.0454 170.821C75.6499 170.738 75.2812 170.631 74.9395 170.499C74.5977 170.362 74.2998 170.199 74.0459 170.008C73.792 169.813 73.5942 169.583 73.4526 169.32C73.311 169.051 73.2402 168.746 73.2402 168.404C73.2402 168.072 73.311 167.757 73.4526 167.459C73.5991 167.162 73.8091 166.898 74.0825 166.668C74.3608 166.439 74.6978 166.258 75.0933 166.126C75.4937 165.995 75.9478 165.929 76.4556 165.929C77.1538 165.929 77.7568 166.039 78.2646 166.258C78.7725 166.473 79.1631 166.776 79.4365 167.167C79.71 167.552 79.8467 167.994 79.8467 168.492H77.5615C77.5615 168.287 77.5225 168.109 77.4443 167.958C77.3662 167.806 77.2466 167.689 77.0854 167.606C76.9243 167.518 76.7119 167.474 76.4482 167.474C76.2432 167.474 76.0625 167.511 75.9062 167.584C75.7549 167.652 75.6353 167.748 75.5474 167.87C75.4644 167.992 75.4229 168.133 75.4229 168.294C75.4229 168.407 75.4473 168.509 75.4961 168.602C75.5498 168.69 75.6304 168.773 75.7378 168.851C75.8501 168.924 75.9941 168.99 76.1699 169.049C76.3506 169.107 76.5703 169.164 76.8291 169.217C77.3809 169.32 77.8838 169.464 78.3379 169.649C78.7969 169.835 79.1631 170.091 79.4365 170.418C79.7148 170.746 79.854 171.178 79.854 171.715C79.854 172.066 79.7734 172.389 79.6123 172.682C79.4561 172.975 79.229 173.231 78.9312 173.451C78.6333 173.67 78.2769 173.841 77.8618 173.963C77.4468 174.085 76.978 174.146 76.4556 174.146C75.7085 174.146 75.0762 174.012 74.5586 173.744C74.041 173.475 73.6504 173.138 73.3867 172.733C73.1279 172.323 72.9985 171.903 72.9985 171.473H75.1445C75.1543 171.737 75.2202 171.952 75.3423 172.118C75.4692 172.284 75.6328 172.406 75.833 172.484C76.0332 172.557 76.2578 172.594 76.5068 172.594C76.7559 172.594 76.9634 172.56 77.1294 172.491C77.2954 172.423 77.4224 172.33 77.5103 172.213C77.5981 172.091 77.6421 171.952 77.6421 171.795ZM85.1567 166.075V167.679H80.4546V166.075H85.1567ZM81.5312 164.112H83.8237V171.517C83.8237 171.737 83.8506 171.905 83.9043 172.022C83.958 172.14 84.0459 172.223 84.168 172.271C84.29 172.315 84.4463 172.337 84.6367 172.337C84.7734 172.337 84.8906 172.333 84.9883 172.323C85.0859 172.313 85.1763 172.301 85.2593 172.286V173.941C85.064 174.005 84.8564 174.054 84.6367 174.088C84.417 174.127 84.1777 174.146 83.9189 174.146C83.4258 174.146 82.9985 174.066 82.6372 173.905C82.2808 173.744 82.0073 173.49 81.8169 173.143C81.6265 172.792 81.5312 172.335 81.5312 171.773V164.112ZM90.4741 171.795C90.4741 171.649 90.4277 171.52 90.335 171.407C90.2471 171.295 90.0859 171.192 89.8516 171.1C89.6221 171.007 89.2974 170.914 88.8774 170.821C88.4819 170.738 88.1133 170.631 87.7715 170.499C87.4297 170.362 87.1318 170.199 86.8779 170.008C86.624 169.813 86.4263 169.583 86.2847 169.32C86.1431 169.051 86.0723 168.746 86.0723 168.404C86.0723 168.072 86.1431 167.757 86.2847 167.459C86.4312 167.162 86.6411 166.898 86.9146 166.668C87.1929 166.439 87.5298 166.258 87.9253 166.126C88.3257 165.995 88.7798 165.929 89.2876 165.929C89.9858 165.929 90.5889 166.039 91.0967 166.258C91.6045 166.473 91.9951 166.776 92.2686 167.167C92.542 167.552 92.6787 167.994 92.6787 168.492H90.3936C90.3936 168.287 90.3545 168.109 90.2764 167.958C90.1982 167.806 90.0786 167.689 89.9175 167.606C89.7563 167.518 89.5439 167.474 89.2803 167.474C89.0752 167.474 88.8945 167.511 88.7383 167.584C88.5869 167.652 88.4673 167.748 88.3794 167.87C88.2964 167.992 88.2549 168.133 88.2549 168.294C88.2549 168.407 88.2793 168.509 88.3281 168.602C88.3818 168.69 88.4624 168.773 88.5698 168.851C88.6821 168.924 88.8262 168.99 89.002 169.049C89.1826 169.107 89.4023 169.164 89.6611 169.217C90.2129 169.32 90.7158 169.464 91.1699 169.649C91.6289 169.835 91.9951 170.091 92.2686 170.418C92.5469 170.746 92.686 171.178 92.686 171.715C92.686 172.066 92.6055 172.389 92.4443 172.682C92.2881 172.975 92.061 173.231 91.7632 173.451C91.4653 173.67 91.1089 173.841 90.6938 173.963C90.2788 174.085 89.8101 174.146 89.2876 174.146C88.5405 174.146 87.9082 174.012 87.3906 173.744C86.873 173.475 86.4824 173.138 86.2188 172.733C85.96 172.323 85.8306 171.903 85.8306 171.473H87.9766C87.9863 171.737 88.0522 171.952 88.1743 172.118C88.3013 172.284 88.4648 172.406 88.665 172.484C88.8652 172.557 89.0898 172.594 89.3389 172.594C89.5879 172.594 89.7954 172.56 89.9614 172.491C90.1274 172.423 90.2544 172.33 90.3423 172.213C90.4302 172.091 90.4741 171.952 90.4741 171.795Z" fill="#4D4C4C"/>
</g>
<defs>
<clipPath id="clip0_560_8821">
<rect width="148" height="200" fill="white"/>
</clipPath>
</defs>
</svg>
