<svg width="148" height="200" viewBox="0 0 148 200" fill="none" xmlns="http://www.w3.org/2000/svg">
<g clip-path="url(#clip0_560_8826)">
<rect width="148" height="200" rx="15" fill="#EAF7FC"/>
<path d="M-19.2686 120.549C-33.3786 120.399 -41.1186 109.829 -40.9986 94.6188C-40.9386 78.5388 -34.3886 62.7788 -23.0286 51.3888C-15.2486 44.1688 -4.49863 54.8888 -11.6986 62.6888C-20.1086 71.1188 -24.9486 82.7688 -24.9986 94.6788C-24.8586 104.949 -21.3986 106.199 -12.4986 103.079C-14.9286 96.0988 -14.5886 87.4488 -11.4186 77.5588C-9.69863 72.1988 -7.22862 66.1288 -1.89862 61.7588C4.30138 56.6788 14.7714 55.2188 21.5514 61.5688C32.7114 71.7188 23.9314 92.5988 14.9814 102.699C19.5414 101.149 23.5014 97.3488 26.6114 91.8288C28.7614 87.9688 33.6314 86.5788 37.4914 88.7288C41.3514 90.8788 42.7414 95.7488 40.5914 99.6088C37.1914 105.719 31.0314 113.789 21.0414 117.519C13.2114 120.439 4.68138 119.729 -1.94862 115.929C-7.13862 118.529 -13.7386 120.609 -19.2786 120.549H-19.2686ZM10.4514 73.3188C5.09138 73.3888 1.88137 87.6888 1.94138 93.2388C5.79137 89.0288 8.71138 83.9588 10.2514 78.5188C11.0414 75.7088 10.8814 73.8988 10.6514 73.3288H10.4514V73.3188Z" fill="#036696" fill-opacity="0.1"/>
<path d="M32.5391 145.336H34.5166L37.0801 152.96L39.6362 145.336H41.6138L37.8784 156H36.2744L32.5391 145.336ZM31.3965 145.336H33.4106L33.7842 153.239V156H31.3965V145.336ZM40.7422 145.336H42.7637V156H40.3687V153.239L40.7422 145.336ZM46.8286 148.075V156H44.5361V148.075H46.8286ZM44.397 146.024C44.397 145.692 44.5142 145.421 44.7485 145.211C44.9829 144.997 45.2905 144.889 45.6714 144.889C46.0522 144.889 46.3599 144.997 46.5942 145.211C46.8335 145.421 46.9531 145.692 46.9531 146.024C46.9531 146.352 46.8335 146.623 46.5942 146.837C46.3599 147.047 46.0522 147.152 45.6714 147.152C45.2905 147.152 44.9829 147.047 44.7485 146.837C44.5142 146.623 44.397 146.352 44.397 146.024ZM50.7178 149.767V156H48.4253V148.075H50.5786L50.7178 149.767ZM50.4175 151.759L49.8462 151.774C49.8462 151.178 49.9194 150.644 50.0659 150.17C50.2124 149.696 50.4199 149.293 50.6885 148.961C50.9619 148.625 51.2866 148.368 51.6626 148.192C52.0435 148.017 52.4634 147.929 52.9224 147.929C53.2935 147.929 53.6328 147.982 53.9404 148.09C54.248 148.197 54.5117 148.371 54.7314 148.61C54.9561 148.844 55.127 149.157 55.2441 149.547C55.3613 149.933 55.4199 150.409 55.4199 150.976V156H53.1201V150.968C53.1201 150.636 53.0737 150.38 52.981 150.199C52.8882 150.019 52.7515 149.892 52.5708 149.818C52.395 149.745 52.1802 149.708 51.9263 149.708C51.6577 149.708 51.4282 149.762 51.2378 149.87C51.0474 149.972 50.8911 150.116 50.769 150.302C50.647 150.487 50.5566 150.705 50.498 150.954C50.4443 151.203 50.4175 151.471 50.4175 151.759ZM61.5283 154.228V144.75H63.8281V156H61.7627L61.5283 154.228ZM56.5918 152.133V151.979C56.5918 151.378 56.6577 150.832 56.7896 150.338C56.9263 149.84 57.124 149.413 57.3828 149.057C57.6465 148.695 57.9712 148.417 58.3569 148.222C58.7427 148.026 59.1846 147.929 59.6826 147.929C60.1416 147.929 60.542 148.031 60.8838 148.236C61.2256 148.437 61.5161 148.72 61.7554 149.086C61.9995 149.447 62.1973 149.875 62.3486 150.368C62.5 150.856 62.6147 151.386 62.6929 151.957V152.221C62.6196 152.768 62.5049 153.278 62.3486 153.751C62.1973 154.225 61.9995 154.643 61.7554 155.004C61.5161 155.36 61.2231 155.641 60.8765 155.846C60.5347 156.046 60.1318 156.146 59.668 156.146C59.1699 156.146 58.728 156.046 58.3423 155.846C57.9614 155.646 57.6416 155.365 57.3828 155.004C57.124 154.643 56.9263 154.218 56.7896 153.729C56.6577 153.241 56.5918 152.709 56.5918 152.133ZM58.877 151.979V152.133C58.877 152.445 58.8989 152.736 58.9429 153.004C58.9917 153.273 59.0698 153.51 59.1772 153.715C59.2847 153.92 59.4263 154.081 59.6021 154.198C59.7778 154.311 59.9927 154.367 60.2466 154.367C60.5884 154.367 60.8691 154.289 61.0889 154.132C61.3086 153.971 61.4746 153.749 61.5869 153.466C61.6992 153.183 61.7578 152.853 61.7627 152.477V151.708C61.7627 151.396 61.731 151.115 61.6675 150.866C61.604 150.617 61.5088 150.407 61.3818 150.236C61.2598 150.065 61.106 149.936 60.9204 149.848C60.7349 149.755 60.5151 149.708 60.2612 149.708C60.0122 149.708 59.7998 149.767 59.624 149.884C59.4482 149.997 59.3042 150.155 59.1919 150.36C59.0845 150.565 59.0039 150.807 58.9502 151.085C58.9014 151.359 58.877 151.657 58.877 151.979ZM68.2007 156H65.9009V147.401C65.9009 146.791 66.0205 146.278 66.2598 145.863C66.5039 145.448 66.8481 145.133 67.2925 144.918C67.7368 144.704 68.2617 144.596 68.8672 144.596C69.0771 144.596 69.2725 144.611 69.4531 144.64C69.6387 144.665 69.8193 144.699 69.9951 144.743V146.449C69.9023 146.425 69.8071 146.408 69.7095 146.398C69.6118 146.388 69.4946 146.383 69.3579 146.383C69.1138 146.383 68.9038 146.422 68.728 146.5C68.5571 146.574 68.4253 146.688 68.3325 146.845C68.2446 146.996 68.2007 147.182 68.2007 147.401V156ZM69.7681 148.075V149.679H64.7437V148.075H69.7681ZM75.4077 154.088V148.075H77.7075V156H75.5542L75.4077 154.088ZM75.6494 152.47L76.2793 152.455C76.2793 152.987 76.2158 153.478 76.0889 153.927C75.9668 154.376 75.7812 154.767 75.5322 155.099C75.2881 155.431 74.9829 155.69 74.6167 155.875C74.2554 156.056 73.833 156.146 73.3496 156.146C72.959 156.146 72.6001 156.093 72.2729 155.985C71.9507 155.873 71.6724 155.7 71.438 155.465C71.2036 155.226 71.0229 154.921 70.896 154.55C70.769 154.174 70.7056 153.725 70.7056 153.202V148.075H72.9907V153.217C72.9907 153.422 73.0151 153.598 73.064 153.744C73.1177 153.886 73.1885 154.003 73.2764 154.096C73.3691 154.188 73.4814 154.257 73.6133 154.301C73.75 154.345 73.8989 154.367 74.0601 154.367C74.4653 154.367 74.7827 154.284 75.0122 154.118C75.2466 153.947 75.4102 153.72 75.5029 153.437C75.6006 153.148 75.6494 152.826 75.6494 152.47ZM81.604 144.75V156H79.3115V144.75H81.604ZM85.4932 149.767V156H83.2007V148.075H85.354L85.4932 149.767ZM85.1929 151.759L84.6216 151.774C84.6216 151.178 84.6948 150.644 84.8413 150.17C84.9878 149.696 85.1953 149.293 85.4639 148.961C85.7373 148.625 86.062 148.368 86.438 148.192C86.8188 148.017 87.2388 147.929 87.6978 147.929C88.0688 147.929 88.4082 147.982 88.7158 148.09C89.0234 148.197 89.2871 148.371 89.5068 148.61C89.7314 148.844 89.9023 149.157 90.0195 149.547C90.1367 149.933 90.1953 150.409 90.1953 150.976V156H87.8955V150.968C87.8955 150.636 87.8491 150.38 87.7563 150.199C87.6636 150.019 87.5269 149.892 87.3462 149.818C87.1704 149.745 86.9556 149.708 86.7017 149.708C86.4331 149.708 86.2036 149.762 86.0132 149.87C85.8228 149.972 85.6665 150.116 85.5444 150.302C85.4224 150.487 85.332 150.705 85.2734 150.954C85.2197 151.203 85.1929 151.471 85.1929 151.759ZM95.4248 156.146C94.7949 156.146 94.231 156.046 93.7329 155.846C93.2349 155.646 92.8125 155.37 92.4658 155.019C92.124 154.662 91.8628 154.252 91.6821 153.788C91.5015 153.324 91.4111 152.829 91.4111 152.301V152.023C91.4111 151.432 91.4941 150.888 91.6602 150.39C91.8262 149.892 92.0679 149.459 92.3853 149.093C92.7075 148.722 93.103 148.437 93.5718 148.236C94.0405 148.031 94.5752 147.929 95.1758 147.929C95.7373 147.929 96.2378 148.021 96.6772 148.207C97.1167 148.388 97.4878 148.649 97.7905 148.991C98.0933 149.328 98.3228 149.735 98.479 150.214C98.6401 150.688 98.7207 151.22 98.7207 151.811V152.748H92.334V151.276H96.4795V151.1C96.4795 150.822 96.4282 150.578 96.3257 150.368C96.228 150.158 96.0815 149.997 95.8862 149.884C95.6958 149.767 95.4541 149.708 95.1611 149.708C94.8828 149.708 94.6509 149.767 94.4653 149.884C94.2798 150.001 94.1309 150.167 94.0186 150.382C93.9111 150.592 93.833 150.839 93.7842 151.122C93.7354 151.4 93.7109 151.701 93.7109 152.023V152.301C93.7109 152.609 93.7524 152.89 93.8354 153.144C93.9185 153.397 94.0405 153.615 94.2017 153.795C94.3628 153.976 94.5581 154.118 94.7876 154.22C95.0171 154.323 95.2783 154.374 95.5713 154.374C95.9326 154.374 96.2769 154.306 96.604 154.169C96.9312 154.027 97.2144 153.808 97.4536 153.51L98.5229 154.733C98.3618 154.967 98.1348 155.194 97.8418 155.414C97.5537 155.629 97.207 155.805 96.8018 155.941C96.3965 156.078 95.9375 156.146 95.4248 156.146ZM104.053 153.795C104.053 153.649 104.006 153.52 103.914 153.407C103.826 153.295 103.665 153.192 103.43 153.1C103.201 153.007 102.876 152.914 102.456 152.821C102.061 152.738 101.692 152.631 101.35 152.499C101.008 152.362 100.71 152.199 100.457 152.008C100.203 151.813 100.005 151.583 99.8633 151.32C99.7217 151.051 99.6509 150.746 99.6509 150.404C99.6509 150.072 99.7217 149.757 99.8633 149.459C100.01 149.162 100.22 148.898 100.493 148.668C100.771 148.439 101.108 148.258 101.504 148.126C101.904 147.995 102.358 147.929 102.866 147.929C103.564 147.929 104.167 148.039 104.675 148.258C105.183 148.473 105.574 148.776 105.847 149.167C106.121 149.552 106.257 149.994 106.257 150.492H103.972C103.972 150.287 103.933 150.109 103.855 149.958C103.777 149.806 103.657 149.689 103.496 149.606C103.335 149.518 103.123 149.474 102.859 149.474C102.654 149.474 102.473 149.511 102.317 149.584C102.166 149.652 102.046 149.748 101.958 149.87C101.875 149.992 101.833 150.133 101.833 150.294C101.833 150.407 101.858 150.509 101.907 150.602C101.96 150.69 102.041 150.773 102.148 150.851C102.261 150.924 102.405 150.99 102.581 151.049C102.761 151.107 102.981 151.164 103.24 151.217C103.792 151.32 104.294 151.464 104.749 151.649C105.208 151.835 105.574 152.091 105.847 152.418C106.125 152.746 106.265 153.178 106.265 153.715C106.265 154.066 106.184 154.389 106.023 154.682C105.867 154.975 105.64 155.231 105.342 155.451C105.044 155.67 104.688 155.841 104.272 155.963C103.857 156.085 103.389 156.146 102.866 156.146C102.119 156.146 101.487 156.012 100.969 155.744C100.452 155.475 100.061 155.138 99.7974 154.733C99.5386 154.323 99.4092 153.903 99.4092 153.473H101.555C101.565 153.737 101.631 153.952 101.753 154.118C101.88 154.284 102.043 154.406 102.244 154.484C102.444 154.557 102.668 154.594 102.917 154.594C103.167 154.594 103.374 154.56 103.54 154.491C103.706 154.423 103.833 154.33 103.921 154.213C104.009 154.091 104.053 153.952 104.053 153.795ZM111.758 153.795C111.758 153.649 111.711 153.52 111.619 153.407C111.531 153.295 111.37 153.192 111.135 153.1C110.906 153.007 110.581 152.914 110.161 152.821C109.766 152.738 109.397 152.631 109.055 152.499C108.713 152.362 108.416 152.199 108.162 152.008C107.908 151.813 107.71 151.583 107.568 151.32C107.427 151.051 107.356 150.746 107.356 150.404C107.356 150.072 107.427 149.757 107.568 149.459C107.715 149.162 107.925 148.898 108.198 148.668C108.477 148.439 108.813 148.258 109.209 148.126C109.609 147.995 110.063 147.929 110.571 147.929C111.27 147.929 111.873 148.039 112.38 148.258C112.888 148.473 113.279 148.776 113.552 149.167C113.826 149.552 113.962 149.994 113.962 150.492H111.677C111.677 150.287 111.638 150.109 111.56 149.958C111.482 149.806 111.362 149.689 111.201 149.606C111.04 149.518 110.828 149.474 110.564 149.474C110.359 149.474 110.178 149.511 110.022 149.584C109.871 149.652 109.751 149.748 109.663 149.87C109.58 149.992 109.539 150.133 109.539 150.294C109.539 150.407 109.563 150.509 109.612 150.602C109.666 150.69 109.746 150.773 109.854 150.851C109.966 150.924 110.11 150.99 110.286 151.049C110.466 151.107 110.686 151.164 110.945 151.217C111.497 151.32 112 151.464 112.454 151.649C112.913 151.835 113.279 152.091 113.552 152.418C113.831 152.746 113.97 153.178 113.97 153.715C113.97 154.066 113.889 154.389 113.728 154.682C113.572 154.975 113.345 155.231 113.047 155.451C112.749 155.67 112.393 155.841 111.978 155.963C111.562 156.085 111.094 156.146 110.571 156.146C109.824 156.146 109.192 156.012 108.674 155.744C108.157 155.475 107.766 155.138 107.502 154.733C107.244 154.323 107.114 153.903 107.114 153.473H109.26C109.27 153.737 109.336 153.952 109.458 154.118C109.585 154.284 109.749 154.406 109.949 154.484C110.149 154.557 110.374 154.594 110.623 154.594C110.872 154.594 111.079 154.56 111.245 154.491C111.411 154.423 111.538 154.33 111.626 154.213C111.714 154.091 111.758 153.952 111.758 153.795ZM30.3491 172.154V174H24.6729V172.154H30.3491ZM25.4858 163.336V174H23.0981V163.336H25.4858ZM29.6167 167.628V169.415H24.6729V167.628H29.6167ZM30.3564 163.336V165.189H24.6729V163.336H30.3564ZM33.9893 172.381L35.6445 166.075H38.0469L35.4175 174H33.9746L33.9893 172.381ZM32.9199 166.075L34.5679 172.389L34.5825 174H33.1396L30.5103 166.075H32.9199ZM42.522 174.146C41.8921 174.146 41.3281 174.046 40.8301 173.846C40.332 173.646 39.9097 173.37 39.563 173.019C39.2212 172.662 38.96 172.252 38.7793 171.788C38.5986 171.324 38.5083 170.829 38.5083 170.301V170.023C38.5083 169.432 38.5913 168.888 38.7573 168.39C38.9233 167.892 39.165 167.459 39.4824 167.093C39.8047 166.722 40.2002 166.437 40.6689 166.236C41.1377 166.031 41.6724 165.929 42.2729 165.929C42.8345 165.929 43.335 166.021 43.7744 166.207C44.2139 166.388 44.585 166.649 44.8877 166.991C45.1904 167.328 45.4199 167.735 45.5762 168.214C45.7373 168.688 45.8179 169.22 45.8179 169.811V170.748H39.4312V169.276H43.5767V169.1C43.5767 168.822 43.5254 168.578 43.4229 168.368C43.3252 168.158 43.1787 167.997 42.9834 167.884C42.793 167.767 42.5513 167.708 42.2583 167.708C41.98 167.708 41.748 167.767 41.5625 167.884C41.377 168.001 41.228 168.167 41.1157 168.382C41.0083 168.592 40.9302 168.839 40.8813 169.122C40.8325 169.4 40.8081 169.701 40.8081 170.023V170.301C40.8081 170.609 40.8496 170.89 40.9326 171.144C41.0156 171.397 41.1377 171.615 41.2988 171.795C41.46 171.976 41.6553 172.118 41.8848 172.22C42.1143 172.323 42.3755 172.374 42.6685 172.374C43.0298 172.374 43.374 172.306 43.7012 172.169C44.0283 172.027 44.3115 171.808 44.5508 171.51L45.6201 172.733C45.459 172.967 45.2319 173.194 44.939 173.414C44.6509 173.629 44.3042 173.805 43.8989 173.941C43.4937 174.078 43.0347 174.146 42.522 174.146ZM49.1724 167.767V174H46.8799V166.075H49.0332L49.1724 167.767ZM48.8721 169.759L48.3008 169.774C48.3008 169.178 48.374 168.644 48.5205 168.17C48.667 167.696 48.8745 167.293 49.1431 166.961C49.4165 166.625 49.7412 166.368 50.1172 166.192C50.498 166.017 50.918 165.929 51.377 165.929C51.748 165.929 52.0874 165.982 52.395 166.09C52.7026 166.197 52.9663 166.371 53.186 166.61C53.4106 166.844 53.5815 167.157 53.6987 167.547C53.8159 167.933 53.8745 168.409 53.8745 168.976V174H51.5747V168.968C51.5747 168.636 51.5283 168.38 51.4355 168.199C51.3428 168.019 51.2061 167.892 51.0254 167.818C50.8496 167.745 50.6348 167.708 50.3809 167.708C50.1123 167.708 49.8828 167.762 49.6924 167.87C49.502 167.972 49.3457 168.116 49.2236 168.302C49.1016 168.487 49.0112 168.705 48.9526 168.954C48.8989 169.203 48.8721 169.471 48.8721 169.759ZM59.397 166.075V167.679H54.6948V166.075H59.397ZM55.7715 164.112H58.064V171.517C58.064 171.737 58.0908 171.905 58.1445 172.022C58.1982 172.14 58.2861 172.223 58.4082 172.271C58.5303 172.315 58.6865 172.337 58.877 172.337C59.0137 172.337 59.1309 172.333 59.2285 172.323C59.3262 172.313 59.4165 172.301 59.4995 172.286V173.941C59.3042 174.005 59.0967 174.054 58.877 174.088C58.6572 174.127 58.418 174.146 58.1592 174.146C57.666 174.146 57.2388 174.066 56.8774 173.905C56.521 173.744 56.2476 173.49 56.0571 173.143C55.8667 172.792 55.7715 172.335 55.7715 171.773V164.112ZM64.7144 171.795C64.7144 171.649 64.668 171.52 64.5752 171.407C64.4873 171.295 64.3262 171.192 64.0918 171.1C63.8623 171.007 63.5376 170.914 63.1177 170.821C62.7222 170.738 62.3535 170.631 62.0117 170.499C61.6699 170.362 61.3721 170.199 61.1182 170.008C60.8643 169.813 60.6665 169.583 60.5249 169.32C60.3833 169.051 60.3125 168.746 60.3125 168.404C60.3125 168.072 60.3833 167.757 60.5249 167.459C60.6714 167.162 60.8813 166.898 61.1548 166.668C61.4331 166.439 61.77 166.258 62.1655 166.126C62.5659 165.995 63.02 165.929 63.5278 165.929C64.2261 165.929 64.8291 166.039 65.3369 166.258C65.8447 166.473 66.2354 166.776 66.5088 167.167C66.7822 167.552 66.9189 167.994 66.9189 168.492H64.6338C64.6338 168.287 64.5947 168.109 64.5166 167.958C64.4385 167.806 64.3188 167.689 64.1577 167.606C63.9966 167.518 63.7842 167.474 63.5205 167.474C63.3154 167.474 63.1348 167.511 62.9785 167.584C62.8271 167.652 62.7075 167.748 62.6196 167.87C62.5366 167.992 62.4951 168.133 62.4951 168.294C62.4951 168.407 62.5195 168.509 62.5684 168.602C62.6221 168.69 62.7026 168.773 62.8101 168.851C62.9224 168.924 63.0664 168.99 63.2422 169.049C63.4229 169.107 63.6426 169.164 63.9014 169.217C64.4531 169.32 64.9561 169.464 65.4102 169.649C65.8691 169.835 66.2354 170.091 66.5088 170.418C66.7871 170.746 66.9263 171.178 66.9263 171.715C66.9263 172.066 66.8457 172.389 66.6846 172.682C66.5283 172.975 66.3013 173.231 66.0034 173.451C65.7056 173.67 65.3491 173.841 64.9341 173.963C64.519 174.085 64.0503 174.146 63.5278 174.146C62.7808 174.146 62.1484 174.012 61.6309 173.744C61.1133 173.475 60.7227 173.138 60.459 172.733C60.2002 172.323 60.0708 171.903 60.0708 171.473H62.2168C62.2266 171.737 62.2925 171.952 62.4146 172.118C62.5415 172.284 62.7051 172.406 62.9053 172.484C63.1055 172.557 63.3301 172.594 63.5791 172.594C63.8281 172.594 64.0356 172.56 64.2017 172.491C64.3677 172.423 64.4946 172.33 64.5825 172.213C64.6704 172.091 64.7144 171.952 64.7144 171.795ZM74.4409 163.336V174H72.0532V163.336H74.4409ZM78.6377 167.833V169.679H73.7744V167.833H78.6377ZM79.1064 163.336V165.189H73.7744V163.336H79.1064ZM79.6631 170.118V169.964C79.6631 169.383 79.7461 168.849 79.9121 168.36C80.0781 167.867 80.3223 167.44 80.6445 167.079C80.9668 166.717 81.3623 166.437 81.8311 166.236C82.2998 166.031 82.8369 165.929 83.4424 165.929C84.0576 165.929 84.5996 166.031 85.0684 166.236C85.542 166.437 85.9399 166.717 86.2622 167.079C86.5845 167.44 86.8286 167.867 86.9946 168.36C87.1606 168.849 87.2437 169.383 87.2437 169.964V170.118C87.2437 170.694 87.1606 171.229 86.9946 171.722C86.8286 172.21 86.5845 172.638 86.2622 173.004C85.9399 173.365 85.5444 173.646 85.0757 173.846C84.6069 174.046 84.0674 174.146 83.457 174.146C82.8516 174.146 82.312 174.046 81.8384 173.846C81.3647 173.646 80.9668 173.365 80.6445 173.004C80.3223 172.638 80.0781 172.21 79.9121 171.722C79.7461 171.229 79.6631 170.694 79.6631 170.118ZM81.9556 169.964V170.118C81.9556 170.431 81.98 170.724 82.0288 170.997C82.0825 171.271 82.168 171.51 82.2852 171.715C82.4023 171.92 82.5562 172.081 82.7466 172.198C82.9419 172.311 83.1787 172.367 83.457 172.367C83.7354 172.367 83.9697 172.311 84.1602 172.198C84.3506 172.081 84.5044 171.92 84.6216 171.715C84.7388 171.51 84.8218 171.271 84.8706 170.997C84.9243 170.724 84.9512 170.431 84.9512 170.118V169.964C84.9512 169.657 84.9243 169.369 84.8706 169.1C84.8218 168.827 84.7388 168.585 84.6216 168.375C84.5044 168.165 84.3481 168.001 84.1528 167.884C83.9624 167.767 83.7256 167.708 83.4424 167.708C83.1689 167.708 82.937 167.767 82.7466 167.884C82.5562 168.001 82.4023 168.165 82.2852 168.375C82.168 168.585 82.0825 168.827 82.0288 169.1C81.98 169.369 81.9556 169.657 81.9556 169.964ZM90.7373 167.921V174H88.4521V166.075H90.5981L90.7373 167.921ZM93.103 166.017L93.0664 168.148C92.9688 168.133 92.8418 168.121 92.6855 168.111C92.5293 168.097 92.395 168.089 92.2827 168.089C91.9897 168.089 91.7358 168.126 91.521 168.199C91.311 168.268 91.1353 168.37 90.9937 168.507C90.8569 168.644 90.7544 168.814 90.686 169.02C90.6177 169.22 90.5835 169.452 90.5835 169.715L90.1514 169.503C90.1514 168.98 90.2026 168.502 90.3052 168.067C90.4077 167.633 90.5566 167.257 90.752 166.939C90.9473 166.617 91.1865 166.368 91.4697 166.192C91.7529 166.017 92.0752 165.929 92.4365 165.929C92.5537 165.929 92.6733 165.936 92.7954 165.951C92.9175 165.965 93.02 165.987 93.103 166.017ZM99.5996 163.336L101.687 168.082L103.789 163.336H106.367L102.903 170.147V174H100.479V170.147L97.0068 163.336H99.5996ZM106.323 170.118V169.964C106.323 169.383 106.406 168.849 106.572 168.36C106.738 167.867 106.982 167.44 107.305 167.079C107.627 166.717 108.022 166.437 108.491 166.236C108.96 166.031 109.497 165.929 110.103 165.929C110.718 165.929 111.26 166.031 111.729 166.236C112.202 166.437 112.6 166.717 112.922 167.079C113.245 167.44 113.489 167.867 113.655 168.36C113.821 168.849 113.904 169.383 113.904 169.964V170.118C113.904 170.694 113.821 171.229 113.655 171.722C113.489 172.21 113.245 172.638 112.922 173.004C112.6 173.365 112.205 173.646 111.736 173.846C111.267 174.046 110.728 174.146 110.117 174.146C109.512 174.146 108.972 174.046 108.499 173.846C108.025 173.646 107.627 173.365 107.305 173.004C106.982 172.638 106.738 172.21 106.572 171.722C106.406 171.229 106.323 170.694 106.323 170.118ZM108.616 169.964V170.118C108.616 170.431 108.64 170.724 108.689 170.997C108.743 171.271 108.828 171.51 108.945 171.715C109.062 171.92 109.216 172.081 109.407 172.198C109.602 172.311 109.839 172.367 110.117 172.367C110.396 172.367 110.63 172.311 110.82 172.198C111.011 172.081 111.165 171.92 111.282 171.715C111.399 171.51 111.482 171.271 111.531 170.997C111.584 170.724 111.611 170.431 111.611 170.118V169.964C111.611 169.657 111.584 169.369 111.531 169.1C111.482 168.827 111.399 168.585 111.282 168.375C111.165 168.165 111.008 168.001 110.813 167.884C110.623 167.767 110.386 167.708 110.103 167.708C109.829 167.708 109.597 167.767 109.407 167.884C109.216 168.001 109.062 168.165 108.945 168.375C108.828 168.585 108.743 168.827 108.689 169.1C108.64 169.369 108.616 169.657 108.616 169.964ZM119.756 172.088V166.075H122.056V174H119.902L119.756 172.088ZM119.998 170.47L120.627 170.455C120.627 170.987 120.564 171.478 120.437 171.927C120.315 172.376 120.129 172.767 119.88 173.099C119.636 173.431 119.331 173.69 118.965 173.875C118.604 174.056 118.181 174.146 117.698 174.146C117.307 174.146 116.948 174.093 116.621 173.985C116.299 173.873 116.021 173.7 115.786 173.465C115.552 173.226 115.371 172.921 115.244 172.55C115.117 172.174 115.054 171.725 115.054 171.202V166.075H117.339V171.217C117.339 171.422 117.363 171.598 117.412 171.744C117.466 171.886 117.537 172.003 117.625 172.096C117.717 172.188 117.83 172.257 117.961 172.301C118.098 172.345 118.247 172.367 118.408 172.367C118.813 172.367 119.131 172.284 119.36 172.118C119.595 171.947 119.758 171.72 119.851 171.437C119.949 171.148 119.998 170.826 119.998 170.47Z" fill="#036696"/>
<path d="M54.9343 35.0873L57.1646 35.1933C58.335 36.6355 60.0026 37.5879 61.8396 37.8631C63.6766 38.1383 65.55 37.7165 67.0918 36.6806C68.6335 35.6446 69.7321 34.0695 70.1715 32.2648C70.6109 30.46 70.3594 28.5562 69.4664 26.9275C68.5734 25.2988 67.1035 24.0629 65.3457 23.4629C63.5878 22.8629 61.6691 22.942 59.9666 23.6848C58.2641 24.4276 56.901 25.7803 56.1452 27.4771C55.3894 29.1738 55.2956 31.0919 55.8822 32.8543L54.9343 35.0873Z" fill="white"/>
<path d="M54.9341 35.0874L54.9871 34.948L55.1599 34.5215C55.3188 34.134 55.5502 33.5709 55.8485 32.8488C55.8521 32.8413 55.8584 32.8355 55.8662 32.8324C55.8739 32.8293 55.8825 32.8292 55.8903 32.8321C55.8958 32.831 55.9015 32.831 55.907 32.8321L55.8485 32.86C55.5172 31.8942 55.3903 30.8702 55.4757 29.8528C55.5611 28.8354 55.8571 27.8468 56.3447 26.9498C56.7685 26.15 57.3354 25.4346 58.0174 24.8395C58.8548 24.1103 59.8439 23.5767 60.9131 23.2772C61.9823 22.9778 63.1048 22.9201 64.1991 23.1082C65.2933 23.2964 66.332 23.7257 67.2398 24.3651C68.1476 25.0045 68.9017 25.8379 69.4474 26.8049C70.0548 27.868 70.3881 29.0656 70.4175 30.2896C70.4483 31.4563 70.2098 32.6144 69.7206 33.674C69.1853 34.8249 68.3655 35.8204 67.3386 36.5664C66.3117 37.3125 65.1117 37.7845 63.8517 37.938C62.5917 38.0914 61.3134 37.9212 60.1375 37.4434C58.9615 36.9657 57.9268 36.1961 57.1309 35.2073H57.1532L55.4805 35.1097L55.0568 35.0846C55.0113 35.0874 54.9657 35.0874 54.9202 35.0846H55.0707L55.5028 35.0986L57.1504 35.1571C57.1576 35.1546 57.1655 35.1546 57.1727 35.1571C57.9658 36.122 58.9902 36.8704 60.1505 37.3325C61.3108 37.7947 62.5692 37.9557 63.8084 37.8004C65.0477 37.6451 66.2275 37.1786 67.2379 36.4444C68.2482 35.7102 69.0563 34.7322 69.5868 33.6015C70.0627 32.5609 70.2944 31.4252 70.2642 30.2813C70.2331 29.0817 69.9055 27.9084 69.3108 26.8662C68.7735 25.9201 68.0335 25.1047 67.1439 24.4785C66.2542 23.8523 65.2369 23.4308 64.1651 23.2442C63.0932 23.0577 61.9934 23.1107 60.9444 23.3996C59.8955 23.6884 58.9235 24.2058 58.0983 24.9147C57.418 25.4964 56.851 26.1986 56.4256 26.9861C56.0424 27.6811 55.7767 28.4346 55.6394 29.2163C55.4217 30.4265 55.508 31.6718 55.8903 32.8405C55.8931 32.8486 55.8926 32.8575 55.8889 32.8653C55.8853 32.8731 55.8788 32.8791 55.8708 32.8823C55.8653 32.8868 55.8584 32.8893 55.8513 32.8893C55.8442 32.8893 55.8373 32.8868 55.8318 32.8823H55.8903C55.5781 33.5987 55.3328 34.1507 55.1711 34.5299L54.9843 34.9592C54.9592 35.0372 54.9341 35.0874 54.9341 35.0874Z" fill="#263238"/>
<path d="M60.8584 30.507C60.8584 30.6564 60.8141 30.8024 60.7311 30.9267C60.6481 31.0509 60.5301 31.1478 60.392 31.2049C60.254 31.2621 60.1021 31.2771 59.9555 31.2479C59.809 31.2188 59.6743 31.1468 59.5687 31.0412C59.463 30.9355 59.3911 30.8009 59.3619 30.6543C59.3328 30.5078 59.3477 30.3559 59.4049 30.2178C59.4621 30.0798 59.5589 29.9618 59.6832 29.8788C59.8074 29.7958 59.9535 29.7515 60.1029 29.7515C60.3033 29.7515 60.4954 29.8311 60.6371 29.9727C60.7788 30.1144 60.8584 30.3066 60.8584 30.507Z" fill="#263238"/>
<path d="M63.8801 30.507C63.8801 30.6564 63.8358 30.8024 63.7528 30.9267C63.6698 31.0509 63.5518 31.1478 63.4137 31.2049C63.2757 31.2621 63.1238 31.2771 62.9772 31.2479C62.8307 31.2188 62.6961 31.1468 62.5904 31.0412C62.4848 30.9355 62.4128 30.8009 62.3837 30.6543C62.3545 30.5078 62.3695 30.3559 62.4267 30.2178C62.4838 30.0798 62.5807 29.9618 62.7049 29.8788C62.8291 29.7958 62.9752 29.7515 63.1246 29.7515C63.325 29.7515 63.5172 29.8311 63.6588 29.9727C63.8005 30.1144 63.8801 30.3066 63.8801 30.507Z" fill="#263238"/>
<path d="M66.8938 30.1277C66.9682 30.2573 67.0025 30.406 66.9924 30.5551C66.9823 30.7041 66.9282 30.8469 66.837 30.9652C66.7458 31.0836 66.6215 31.1722 66.4799 31.2199C66.3383 31.2676 66.1858 31.2723 66.0415 31.2333C65.8973 31.1943 65.7678 31.1135 65.6696 31.0009C65.5713 30.8884 65.5086 30.7492 65.4894 30.601C65.4702 30.4528 65.4954 30.3023 65.5618 30.1684C65.6281 30.0345 65.7327 29.9234 65.8623 29.8489C66.0362 29.7498 66.2422 29.7236 66.4355 29.7758C66.6287 29.828 66.7934 29.9545 66.8938 30.1277Z" fill="#263238"/>
<path d="M85.7395 52.7646L86.8825 44.7943C87.401 38.5803 87.2839 31.0254 88.2095 29.0544C89.9184 25.4135 95.0842 25.3271 95.0842 25.3271C101.945 25.1822 102.89 30.4957 103.347 35.3158C103.423 36.1326 103.696 37.5934 104.05 39.2828C104.886 42.8038 105.976 46.4335 108.385 48.9202C109.307 49.8988 109.888 51.1497 110.041 52.4858C110.194 53.7989 109.425 55.3322 108.112 55.4827C108.431 55.8174 108.67 56.2209 108.81 56.6624C108.949 57.1038 108.986 57.5714 108.916 58.0291C108.847 58.4868 108.673 58.9225 108.409 59.3027C108.145 59.6828 107.797 59.9973 107.392 60.222C106.277 60.8548 104.883 60.7043 103.595 60.5008C102.307 60.2972 101 60.0045 100.033 59.1543C99.0652 58.304 98.6163 57.016 98.2874 55.7671C97.8877 54.2658 97.608 52.7351 97.451 51.1895L85.7395 52.7646Z" fill="#263238"/>
<path d="M94.0803 27.2087L94.5264 26.8379L99.0537 28.9343C99.3753 28.9685 99.6723 29.122 99.886 29.3647C100.1 29.6073 100.215 29.9213 100.208 30.2446L98.7527 45.6778C98.7053 46.7009 99.1095 47.1944 98.4516 47.9778L93.9353 53.1909C92.3574 55.0699 92.7115 50.7739 91.6493 48.5632C91.5741 48.4071 91.9588 47.8635 91.9281 47.7575C91.904 47.6453 91.8863 47.5317 91.8752 47.4174C91.7999 46.1991 91.8445 45.1481 91.8445 45.1481C91.8445 43.8128 91.8445 43.2664 91.8278 43.2775C91.811 43.2887 89.0149 42.8092 88.435 39.1377C88.1562 37.3116 88.343 34.8305 88.5716 32.3884C88.9034 28.9956 91.3566 27.0693 94.0803 27.2087Z" fill="#FFBE9D"/>
<path d="M93.9549 35.0118C93.9534 35.1346 94.0001 35.2531 94.0851 35.3417C94.1701 35.4304 94.2865 35.4821 94.4093 35.4857C94.4691 35.4903 94.5292 35.4829 94.586 35.464C94.6429 35.445 94.6955 35.415 94.7406 35.3755C94.7858 35.3361 94.8226 35.288 94.849 35.2342C94.8754 35.1804 94.8908 35.1218 94.8944 35.062C94.8952 34.9391 94.8483 34.8207 94.7635 34.7318C94.6787 34.6429 94.5627 34.5903 94.44 34.5853C94.3799 34.5807 94.3196 34.5882 94.2626 34.6073C94.2055 34.6264 94.1528 34.6567 94.1076 34.6965C94.0625 34.7362 94.0257 34.7846 93.9994 34.8387C93.9732 34.8929 93.958 34.9517 93.9549 35.0118Z" fill="#263238"/>
<path d="M89.2881 34.7666C89.2873 34.8892 89.3343 35.0072 89.4191 35.0957C89.504 35.1842 89.62 35.2361 89.7425 35.2405C89.8024 35.2454 89.8626 35.2383 89.9197 35.2195C89.9767 35.2008 90.0294 35.1707 90.0747 35.1312C90.1199 35.0917 90.1567 35.0435 90.183 34.9895C90.2093 34.9355 90.2244 34.8767 90.2276 34.8168C90.2298 34.6942 90.1837 34.5757 90.0991 34.487C90.0146 34.3983 89.8985 34.3465 89.776 34.3428C89.716 34.3379 89.6556 34.345 89.5984 34.3638C89.5411 34.3825 89.4883 34.4125 89.4428 34.452C89.3973 34.4914 89.3602 34.5396 89.3337 34.5936C89.3071 34.6477 89.2916 34.7065 89.2881 34.7666Z" fill="#263238"/>
<path d="M89.0178 33.3668C89.0764 33.4282 89.4332 33.1633 89.9406 33.1661C90.448 33.1689 90.8188 33.4198 90.8745 33.3585C90.9303 33.2971 90.8411 33.2191 90.6794 33.102C90.4598 32.9503 90.1991 32.8695 89.9322 32.8706C89.6691 32.8713 89.4128 32.9541 89.199 33.1076C89.0429 33.2275 88.99 33.339 89.0178 33.3668Z" fill="#263238"/>
<path d="M94.1445 33.6791C94.2086 33.732 94.5376 33.4338 95.0422 33.3836C95.5468 33.3334 95.9426 33.5481 95.99 33.4811C96.0374 33.4142 95.9426 33.3445 95.7698 33.2442C95.5362 33.115 95.2684 33.0615 95.0031 33.0909C94.7412 33.1186 94.4945 33.2278 94.2978 33.4031C94.1556 33.5285 94.1138 33.654 94.1445 33.6791Z" fill="#263238"/>
<path d="M92.1932 37.2674C91.9214 37.1846 91.6406 37.135 91.3569 37.1196C91.2258 37.1196 91.106 37.0806 91.0781 36.9914C91.0666 36.8582 91.0968 36.7247 91.1645 36.6094C91.2844 36.2944 91.4126 35.9682 91.5464 35.6226C92.0789 34.2287 92.4636 33.0662 92.4079 33.0466C92.3521 33.0271 91.8726 34.145 91.3429 35.5557L90.9749 36.5481C90.8927 36.7038 90.8689 36.8838 90.908 37.0555C90.9262 37.1014 90.9548 37.1424 90.9916 37.1753C91.0284 37.2082 91.0723 37.2321 91.1199 37.2451C91.1919 37.2635 91.2658 37.2738 91.3401 37.2757C91.6236 37.3118 91.9106 37.309 92.1932 37.2674Z" fill="#263238"/>
<path d="M91.8501 43.2635C93.5788 43.2916 95.2813 42.8389 96.7678 41.9561C96.7678 41.9561 95.53 44.4957 91.8557 44.1501L91.8501 43.2635Z" fill="#EB996E"/>
<path d="M92.8286 38.2205C93.0126 37.978 93.5534 37.6044 93.8712 37.6378C93.9722 37.66 94.0675 37.7027 94.1514 37.7631C94.2353 37.8235 94.306 37.9004 94.3591 37.9891C94.4929 38.1675 94.3591 38.661 94.2308 38.8254C94.1619 38.9285 94.0639 39.0088 93.9492 39.056C93.8345 39.1031 93.7083 39.1151 93.5868 39.0903C93.3443 39.0234 93.0293 38.6638 92.8341 38.5048C92.7764 38.4658 92.7271 38.4155 92.6892 38.3571C92.6557 38.2958 92.7756 38.2539 92.8174 38.2038" fill="#EB996E"/>
<path d="M93.7597 31.6831C93.8238 31.8141 94.3173 31.6998 94.9194 31.711C95.5216 31.7221 96.0123 31.8336 96.0792 31.711C96.1098 31.6496 96.0123 31.527 95.8004 31.4155C95.5253 31.2806 95.223 31.2104 94.9166 31.2104C94.6103 31.2104 94.308 31.2806 94.0329 31.4155C93.8322 31.5019 93.7318 31.6218 93.7597 31.6831Z" fill="#263238"/>
<path d="M89.2017 31.1981C89.2909 31.3124 89.6393 31.1981 90.0603 31.1981C90.4813 31.1981 90.8353 31.2762 90.9162 31.1535C90.9524 31.0949 90.8966 30.9806 90.7405 30.8747C90.5308 30.7412 90.2857 30.6738 90.0371 30.6812C89.7886 30.6887 89.548 30.7707 89.3466 30.9165C89.21 31.0197 89.1626 31.1423 89.2017 31.1981Z" fill="#263238"/>
<path d="M99.7895 36.6513C99.7895 36.6513 97.1607 37.3259 96.0177 30.8638C95.6274 28.6531 93.6926 26.7825 93.6926 26.7825L94.529 26.5762C94.529 26.5762 99.547 28.2739 99.6446 28.3408C99.7421 28.4078 100.799 31.0478 100.799 31.0478L99.7895 36.6513Z" fill="#263238"/>
<path d="M99.1653 36.3833C99.1653 36.1046 99.4804 35.4634 99.7508 35.4215C100.473 35.31 101.772 35.3686 101.783 37.2002C101.8 39.7092 99.2741 39.2018 99.2741 39.1293C99.2741 39.0568 99.1625 37.3256 99.1653 36.3833Z" fill="#FFBE9D"/>
<path d="M100.035 38.1789C100.035 38.1789 100.08 38.2068 100.155 38.2403C100.259 38.2835 100.377 38.2835 100.481 38.2403C100.743 38.1427 100.963 37.7217 100.975 37.2701C100.979 37.055 100.935 36.8417 100.846 36.6456C100.823 36.5674 100.781 36.496 100.724 36.4381C100.666 36.3802 100.595 36.3375 100.517 36.3139C100.467 36.3005 100.414 36.3052 100.367 36.3272C100.32 36.3491 100.283 36.3868 100.261 36.4338C100.227 36.5035 100.244 36.5536 100.23 36.5592C100.216 36.5648 100.177 36.5174 100.197 36.4143C100.21 36.3517 100.245 36.2955 100.294 36.2553C100.328 36.229 100.366 36.2097 100.408 36.1987C100.449 36.1877 100.492 36.1851 100.534 36.1912C100.637 36.2105 100.733 36.2561 100.813 36.3235C100.893 36.3909 100.955 36.4779 100.991 36.5759C101.099 36.7921 101.153 37.0313 101.147 37.2729C101.147 37.7775 100.869 38.2514 100.517 38.3573C100.45 38.3775 100.38 38.3822 100.311 38.3711C100.242 38.36 100.176 38.3333 100.119 38.2932C100.041 38.2375 100.027 38.1817 100.035 38.1789Z" fill="#EB996E"/>
<path d="M98.0947 35.3408C97.9703 35.3166 97.8474 35.285 97.7267 35.246C97.3989 35.1306 97.1028 34.9396 96.8625 34.6884C96.6961 34.5204 96.5501 34.3332 96.4276 34.1309C96.2895 33.8929 96.1756 33.6416 96.0875 33.381C95.9012 32.7774 95.7522 32.1629 95.6415 31.541C95.5117 30.9191 95.3508 30.304 95.1592 29.6983C95.001 29.2036 94.8072 28.7209 94.5793 28.2542C94.4242 27.9407 94.2482 27.638 94.0524 27.3482C93.9827 27.245 93.9214 27.1697 93.8852 27.1168C93.8662 27.0897 93.8447 27.0645 93.821 27.0415C93.8361 27.071 93.8538 27.099 93.874 27.1251C93.9075 27.1809 93.966 27.259 94.0301 27.3621C94.2173 27.6565 94.3867 27.9619 94.5375 28.2765C94.7567 28.7434 94.943 29.225 95.0951 29.7178C95.2707 30.2753 95.4268 30.8942 95.569 31.5549C95.681 32.1801 95.8328 32.7974 96.0234 33.4033C96.114 33.6666 96.2317 33.9198 96.3747 34.1587C96.5015 34.3619 96.6522 34.5491 96.8235 34.7163C97.0704 34.9715 97.3756 35.1628 97.7128 35.2739C97.8362 35.3146 97.9649 35.3371 98.0947 35.3408Z" fill="#263238"/>
<path d="M86.5227 46.793C86.5227 46.793 82.6727 50.2889 83.5648 54.7521C84.4569 59.2154 84.4011 68.5462 84.4011 68.5462C84.4011 68.5462 84.0192 72.1703 83.5007 76.115C83.0044 79.8813 81.9312 86.0814 81.9312 86.0814L86.0682 87.8572C86.0682 87.8572 89.6924 76.0342 90.1858 72.3125C90.8159 67.5091 89.5335 56.3802 89.5335 56.3802L86.5227 46.793Z" fill="#FFBE9D"/>
<path d="M81.9256 85.4795L73.3838 87.1354C73.3838 87.1354 72.9795 87.6735 73.788 87.7404C74.5965 87.8073 85.9567 87.7404 85.9567 87.7404L81.9256 85.4795Z" fill="#FFBE9D"/>
<path d="M88.7668 68.4571C88.7668 68.499 87.9444 68.3679 86.9352 68.3038C85.926 68.2397 85.1036 68.2592 85.1008 68.2202C85.2763 68.1739 85.4574 68.1523 85.6389 68.1561C86.0735 68.1329 86.509 68.1329 86.9436 68.1561C87.3782 68.1847 87.8109 68.2368 88.2399 68.3122C88.4212 68.3366 88.5985 68.3854 88.7668 68.4571Z" fill="#EB996E"/>
<path d="M116.915 88.6322C116.915 88.6322 127.277 89.3766 132.323 89.0532C135.39 88.858 137.793 85.4792 134.997 83.0706C133.645 81.9081 116.678 78.1445 116.678 78.1445C113.447 80.4194 115.334 86.0368 116.915 88.6322Z" fill="#FFBE9D"/>
<path d="M135.554 83.4611C135.554 83.4946 133.299 82.7697 130.536 81.8358C127.774 80.9019 125.56 80.1186 125.582 80.0851C125.605 80.0516 127.838 80.7765 130.6 81.7104C133.363 82.6443 135.566 83.4304 135.554 83.4611Z" fill="#EB996E"/>
<path d="M122.917 68.6885C122.917 68.6885 132.36 73.149 136.472 76.0873C138.964 77.8715 139.226 82.0141 135.577 82.5773C133.815 82.8561 117.425 77.0686 117.425 77.0686C115.887 73.4277 120.202 70.0489 122.917 68.6885Z" fill="#FFBE9D"/>
<path d="M109.436 65.0864L110.356 65.9395C110.356 65.9395 113.662 64.2668 118.951 66.5389C122.168 67.9328 130.152 71.911 130.152 71.911C130.152 71.911 125.616 73.4415 125.691 77.3081C125.767 81.1748 125.616 81.1999 124.342 82.0362C123.068 82.8726 118.374 82.4265 117.897 85.4903C117.42 88.5541 117.258 88.8217 117.258 88.8217C117.258 88.8217 103.749 88.3868 99.7705 86.6361C95.7924 84.8854 94.3399 75.0584 94.3399 75.0584L93.8521 73.0902L109.436 65.0864Z" fill="#263238"/>
<path d="M123.377 79.5972C123.309 79.5889 123.241 79.573 123.177 79.5498L122.619 79.3881L120.534 78.772L113.665 76.6978C112.405 76.3069 111.11 76.0408 109.798 75.9033C108.73 75.8033 107.654 75.8738 106.609 76.1124C105.904 76.2749 105.229 76.5447 104.607 76.9125C104.39 77.0435 104.225 77.155 104.116 77.2359C104.063 77.2796 104.006 77.3188 103.946 77.353C103.994 77.3036 104.045 77.2579 104.1 77.2164C104.252 77.0898 104.412 76.9725 104.579 76.8651C105.199 76.481 105.877 76.1986 106.586 76.0288C107.64 75.7734 108.729 75.6915 109.809 75.7862C111.124 75.9166 112.423 76.1772 113.687 76.564C116.374 77.3697 118.794 78.1308 120.548 78.6772L122.622 79.3351L123.179 79.5219C123.248 79.5402 123.314 79.5654 123.377 79.5972Z" fill="#455A64"/>
<path d="M112.516 72.3125C112.176 72.8371 111.895 73.3982 111.68 73.9852C111.514 74.5843 111.42 75.201 111.401 75.8223C111.351 75.641 111.332 75.4524 111.345 75.2648C111.348 74.814 111.421 74.3665 111.56 73.9378C111.699 73.5097 111.901 73.1048 112.159 72.7363C112.253 72.5757 112.374 72.4324 112.516 72.3125Z" fill="#455A64"/>
<path d="M91.014 66.9157L94.0164 73.0795C94.0164 73.0795 105.628 69.9181 107.465 67.7408C109.302 65.5636 109.915 64.6464 109.915 64.6464L105.474 56.506L104.518 46.0267L99.461 45.2656C96.7708 46.6344 93.0491 46.9383 91.9953 45.3967C91.9953 45.3967 88.9817 45.4162 86.8044 46.6316L84.6021 52.5195L91.014 66.9157Z" fill="#32959D"/>
<path d="M83.4589 60.9717H89.3997L87.2977 46.4194C87.2977 46.4194 84.0165 47.5345 83.4589 50.9468C82.9822 53.8796 83.4589 60.9717 83.4589 60.9717Z" fill="#32959D"/>
<path d="M86.3248 51.8306C86.3364 51.8791 86.3438 51.9285 86.3471 51.9783C86.3471 52.0926 86.3722 52.2348 86.3862 52.4104C86.4001 52.5861 86.4224 52.8286 86.4531 53.0934C86.4837 53.3583 86.5116 53.651 86.5618 53.9911C86.6482 54.6574 86.782 55.4463 86.9632 56.3161C87.1445 57.1859 87.3954 58.1282 87.702 59.1039C88.0087 60.0797 88.3627 60.9941 88.7084 61.8109C89.0541 62.6277 89.4054 63.347 89.7204 63.9408C89.8709 64.2418 90.0242 64.4983 90.1497 64.7381C90.2751 64.9778 90.3922 65.1702 90.4898 65.3319L90.7045 65.7082C90.7329 65.7505 90.7554 65.7964 90.7714 65.8448C90.7374 65.8072 90.7075 65.7661 90.6822 65.7222L90.4452 65.3597C90.3421 65.2036 90.2194 65.0085 90.0856 64.7743C89.9518 64.5401 89.7901 64.2837 89.6367 63.9854C89.3106 63.3971 88.9537 62.6751 88.5941 61.8611C88.2345 61.047 87.886 60.1271 87.5738 59.1457C87.2615 58.1644 87.0162 57.2138 86.8406 56.3412C86.665 55.4686 86.5395 54.6685 86.467 54.005C86.4224 53.6705 86.4029 53.3666 86.3778 53.099C86.3527 52.8314 86.3416 52.6028 86.3332 52.4132C86.3248 52.2236 86.3332 52.0954 86.3332 51.9811C86.3224 51.9317 86.3196 51.8809 86.3248 51.8306Z" fill="#263238"/>
<path d="M104.325 46.0207C105.438 46.0538 106.515 46.4157 107.421 47.0607C108.328 47.7058 109.023 48.605 109.419 49.6449C110.813 53.2049 111.072 57.8298 111.072 57.8298L103.578 59.4217L104.395 53.0432C104.395 53.0432 103.511 50.4366 103.425 48.9396C103.227 45.321 104.325 46.0207 104.325 46.0207Z" fill="#32959D"/>
<path d="M111.086 57.8357C111.044 57.8561 110.998 57.8702 110.952 57.8775L110.559 57.9639L109.109 58.2622L104.27 59.2072H104.2V59.132C104.183 59.0121 104.169 58.8811 104.153 58.75L103.528 53.601C103.458 52.9542 103.403 52.4245 103.361 52.037C103.344 51.8642 103.333 51.722 103.322 51.6105C103.317 51.5604 103.317 51.51 103.322 51.46C103.34 51.5075 103.351 51.5572 103.355 51.6077C103.372 51.7192 103.391 51.8586 103.417 52.0287C103.47 52.4162 103.542 52.9431 103.628 53.5898C103.796 54.9224 104.022 56.7373 104.27 58.7389C104.286 58.8699 104.303 59.0009 104.317 59.1236L104.236 59.0623L109.084 58.159L110.542 57.9026L110.938 57.8384L111.086 57.8357Z" fill="#263238"/>
<path d="M110.707 57.9136L105.153 58.8977L105.452 60.6122L103.314 60.4226L98.959 62.466C98.959 62.466 102.597 66.4052 104.861 67.4841C107.124 68.563 110.782 69.0564 111.256 65.0949C111.577 62.4075 110.707 57.9136 110.707 57.9136Z" fill="#FFBE9D"/>
<path d="M109.745 63.3385C109.728 63.3385 109.55 63.1099 109.218 62.7614C108.786 62.3118 108.296 61.9218 107.76 61.6017C107.223 61.2839 106.645 61.0401 106.043 60.8769C105.58 60.7514 105.282 60.7124 105.285 60.6901C105.287 60.6678 105.36 60.6901 105.497 60.6901C105.684 60.7073 105.87 60.7371 106.054 60.7793C106.676 60.919 107.271 61.1561 107.819 61.4818C108.366 61.8074 108.859 62.2166 109.28 62.6945C109.407 62.8387 109.524 62.9914 109.631 63.1517C109.717 63.2688 109.754 63.3329 109.745 63.3385Z" fill="#EB996E"/>
<path d="M100.171 57.8746C100.171 57.8746 100.779 57.0745 101.236 56.8961C101.449 56.8081 101.665 56.7317 101.886 56.6675C101.886 56.6675 101.657 55.8311 102.519 55.7559C102.691 55.9043 102.902 56.0009 103.127 56.0346C103.19 56.0235 103.255 56.0253 103.317 56.0397C103.38 56.0541 103.439 56.081 103.491 56.1187C103.543 56.1564 103.587 56.2042 103.62 56.2592C103.653 56.3142 103.675 56.3753 103.684 56.4389C103.762 56.7678 103.963 57.6794 103.684 58.1115C103.405 58.5437 102.901 58.973 103.127 60.1355C103.127 60.1355 102.823 61.4262 102.165 61.7552C101.865 61.9346 101.527 62.0388 101.178 62.0591C101.178 62.0591 100.57 62.795 100.063 62.6919C99.5554 62.5888 99.3296 62.5665 99.3296 62.5665C99.3296 62.5665 98.9253 63.1937 98.0388 62.703C97.8945 62.7995 97.7275 62.8565 97.5543 62.8682C97.3811 62.88 97.2079 62.8461 97.0519 62.77C96.815 62.6417 95.658 61.4792 95.6078 60.5927C95.5577 59.7062 95.5939 59.0984 95.8114 58.7695C96.1375 58.2844 96.6087 58.7249 96.6087 58.7249C96.6087 58.7249 96.723 57.8885 97.0519 57.554C97.3809 57.2195 97.6346 57.2752 97.6346 57.2752C97.6346 57.2752 97.5314 56.2605 98.3176 56.1852C99.1037 56.1099 99.0257 57.0466 99.0508 57.5512L99.0982 58.0614C99.0982 58.0614 99.3993 57.317 100.171 57.8746Z" fill="#FFBE9D"/>
<path d="M100.172 57.8747C100.172 57.8914 100.071 57.8078 99.8708 57.7353C99.7483 57.6893 99.6143 57.6844 99.4888 57.7213C99.3238 57.787 99.1915 57.9153 99.1208 58.0782L99.0539 58.2203V58.0642C99.04 57.8468 99.0205 57.607 99.0121 57.3366C99.022 57.0508 98.9727 56.7661 98.8672 56.5003C98.7529 56.2215 98.3598 56.1741 98.0782 56.3274C97.7966 56.4808 97.6963 56.885 97.7214 57.2613V57.3422H97.6294C97.4907 57.3577 97.3581 57.4077 97.2437 57.4875C97.1293 57.5674 97.0366 57.6746 96.9742 57.7994C96.8312 58.0925 96.737 58.407 96.6955 58.7305L96.6704 58.8783L96.5589 58.7779C96.4906 58.701 96.3981 58.6497 96.2967 58.6324C96.1954 58.6152 96.0911 58.6331 96.0013 58.6831C95.8377 58.8474 95.7387 59.0651 95.7225 59.2964C95.6873 59.5485 95.6733 59.8031 95.6807 60.0575C95.6754 60.3233 95.6997 60.5888 95.7532 60.8492C95.934 61.3642 96.2241 61.834 96.6035 62.2264C96.6982 62.3323 96.7986 62.4327 96.9017 62.5275C96.9511 62.5752 97.0032 62.6198 97.0579 62.6613C97.1101 62.6974 97.1674 62.7256 97.2279 62.7449C97.3553 62.7839 97.4897 62.7939 97.6214 62.7741C97.7531 62.7543 97.8787 62.7053 97.989 62.6306L98.042 62.5972L98.0894 62.6251C98.3256 62.7712 98.608 62.8239 98.8811 62.7728C99.0299 62.7311 99.161 62.642 99.2546 62.5191L99.2937 62.4689H99.3467L99.8708 62.5609C99.9544 62.5609 100.055 62.5944 100.124 62.6C100.198 62.6067 100.272 62.5981 100.342 62.5749C100.642 62.4497 100.907 62.2513 101.111 61.9978L101.139 61.9644H101.189C101.432 61.9449 101.669 61.8826 101.889 61.7804C102.115 61.7068 102.314 61.5692 102.463 61.3845C102.74 61.0035 102.938 60.5714 103.046 60.1133V60.1495C102.919 59.6349 102.988 59.0916 103.238 58.6246C103.361 58.4043 103.517 58.2176 103.64 58.0308C103.729 57.8344 103.768 57.6187 103.751 57.4035C103.745 57.1892 103.722 56.9757 103.682 56.7651C103.671 56.5675 103.61 56.3758 103.506 56.2076C103.446 56.1471 103.368 56.1088 103.283 56.0988C103.199 56.0793 103.096 56.0988 103.004 56.0682C102.818 56.0104 102.645 55.9156 102.497 55.7894L102.544 55.8033C102.44 55.803 102.336 55.8282 102.244 55.8768C102.151 55.9254 102.071 55.9958 102.012 56.0821C101.927 56.2552 101.906 56.4527 101.953 56.6397V56.6871L101.906 56.701L101.446 56.8543C101.31 56.8895 101.18 56.9449 101.061 57.0188C100.878 57.146 100.708 57.2907 100.554 57.4509C100.426 57.5819 100.334 57.6851 100.275 57.7548C100.216 57.8245 100.18 57.8635 100.177 57.8579C100.197 57.8144 100.224 57.774 100.255 57.7381C100.311 57.6628 100.398 57.5541 100.52 57.4147C100.672 57.2442 100.841 57.09 101.025 56.9547C101.148 56.8735 101.282 56.8115 101.424 56.7707L101.886 56.6034L101.853 56.6648C101.793 56.4553 101.812 56.2312 101.906 56.0347C101.973 55.9294 102.064 55.8421 102.173 55.7804C102.281 55.7187 102.403 55.6844 102.528 55.6807H102.553L102.572 55.6974C102.706 55.8097 102.862 55.8932 103.029 55.9427C103.172 55.9734 103.445 55.926 103.615 56.1128C103.692 56.1985 103.745 56.3034 103.768 56.4166C103.79 56.5198 103.815 56.6229 103.835 56.7289C103.878 56.9468 103.905 57.1677 103.916 57.3896C103.934 57.6327 103.89 57.8764 103.788 58.0977C103.659 58.3151 103.509 58.488 103.392 58.6943C103.162 59.1271 103.103 59.6307 103.227 60.1049V60.1244V60.1439C103.117 60.6294 102.909 61.0875 102.617 61.4904C102.538 61.5963 102.444 61.6902 102.338 61.7692C102.225 61.838 102.106 61.8977 101.984 61.9476C101.738 62.0632 101.472 62.1304 101.201 62.1456L101.281 62.1121C101.054 62.3935 100.76 62.6131 100.426 62.7505C100.33 62.7813 100.23 62.7927 100.13 62.784C100.024 62.784 99.9544 62.7561 99.8652 62.7422L99.3494 62.6529L99.4414 62.6111C99.3217 62.7732 99.1508 62.89 98.9564 62.9429C98.6355 63.0097 98.3012 62.9508 98.0224 62.7784H98.1256C97.9906 62.8696 97.8368 62.9293 97.6756 62.953C97.5144 62.9766 97.35 62.9636 97.1945 62.915C97.1148 62.8908 97.0396 62.8541 96.9714 62.8063C96.9101 62.7589 96.8516 62.7087 96.7986 62.6585C96.6899 62.5582 96.5867 62.4522 96.4892 62.3435C96.0894 61.9286 95.7858 61.4308 95.5999 60.8855C95.5466 60.6148 95.5241 60.3389 95.5329 60.0631C95.5253 59.7984 95.5402 59.5335 95.5775 59.2713C95.6016 58.9964 95.7267 58.7401 95.9288 58.5521C95.988 58.5082 96.0564 58.4782 96.1287 58.4642C96.2011 58.4502 96.2757 58.4526 96.347 58.4712C96.476 58.5072 96.5952 58.572 96.6955 58.6608L96.5589 58.711C96.6049 58.3693 96.7076 58.0376 96.8627 57.7297C96.9436 57.5792 97.0592 57.4502 97.2 57.3533C97.3368 57.2476 97.5069 57.1942 97.6795 57.2028L97.5931 57.2809C97.5774 57.0773 97.602 56.8727 97.6656 56.6787C97.7237 56.4849 97.8532 56.3205 98.028 56.2187C98.1986 56.1271 98.3956 56.0976 98.5856 56.1351C98.6748 56.1512 98.7588 56.1888 98.8302 56.2446C98.9016 56.3005 98.9583 56.3729 98.9954 56.4557C99.1035 56.7343 99.151 57.0327 99.1348 57.331C99.1348 57.6098 99.1515 57.8412 99.1571 58.0559L99.0818 58.0419C99.1235 57.9533 99.1824 57.8738 99.2552 57.8082C99.3279 57.7427 99.4131 57.6923 99.5055 57.66C99.643 57.6248 99.7882 57.6366 99.9181 57.6934C100.012 57.7396 100.098 57.8008 100.172 57.8747Z" fill="#EB996E"/>
<path d="M102.837 57.66C102.837 57.6823 102.745 57.7018 102.605 57.66C102.418 57.6142 102.251 57.5108 102.126 57.3645C102.001 57.2201 101.922 57.0413 101.9 56.8515C101.9 56.7065 101.919 56.6201 101.942 56.6201C101.964 56.6201 102.02 56.9547 102.271 57.239C102.522 57.5234 102.848 57.607 102.837 57.66Z" fill="#EB996E"/>
<path d="M101.699 60.2217C101.646 60.2412 101.421 59.6474 101 58.9951C100.579 58.3427 100.13 57.9023 100.163 57.8605C100.197 57.8186 100.721 58.2117 101.156 58.8919C101.591 59.5722 101.747 60.2078 101.699 60.2217Z" fill="#EB996E"/>
<path d="M99.0983 57.8608C99.129 57.8608 99.0816 58.1034 99.1625 58.4714C99.2952 58.9494 99.5002 59.4044 99.7702 59.8207C99.9122 60.0641 100.034 60.3186 100.135 60.5817C100.204 60.7996 100.261 61.0211 100.305 61.2452C100.355 61.4381 100.469 61.6082 100.629 61.7275C100.629 61.7275 100.559 61.7275 100.462 61.6773C100.329 61.5803 100.232 61.4435 100.183 61.287C100.11 61.0947 100.074 60.8745 99.9765 60.6459C99.8701 60.3936 99.7472 60.1487 99.6085 59.9127C99.327 59.4813 99.132 58.9994 99.0342 58.4937C98.9825 58.2816 99.0051 58.0582 99.0983 57.8608Z" fill="#EB996E"/>
<path d="M98.6886 61.3175C98.4929 61.2127 98.3196 61.0706 98.1784 60.8993C98.0066 60.7239 97.8678 60.519 97.7686 60.2944C97.6656 60.0152 97.6064 59.7218 97.593 59.4246C97.4759 58.1896 97.6153 57.1943 97.6655 57.1943C97.7156 57.1943 97.6655 58.1896 97.7826 59.4051C97.7952 59.6848 97.8458 59.9614 97.9331 60.2275C98.0183 60.4377 98.1359 60.6334 98.2816 60.8073C98.5408 61.1279 98.7109 61.2952 98.6886 61.3175Z" fill="#EB996E"/>
<path d="M97.2807 61.5515C97.2529 61.5515 97.172 61.4066 96.9713 61.1919C96.8488 61.0659 96.736 60.9308 96.634 60.7877C96.5071 60.5983 96.4312 60.3794 96.4137 60.1521C96.4074 59.7603 96.4476 59.3691 96.5336 58.9868C96.5432 58.8276 96.5684 58.6698 96.6089 58.5156C96.6751 58.6682 96.6964 58.8365 96.6702 59.0007C96.6242 59.3771 96.6028 59.7561 96.6061 60.1353C96.6584 60.5007 96.823 60.8407 97.0772 61.1083C97.2584 61.3508 97.3058 61.546 97.2807 61.5515Z" fill="#EB996E"/>
<path d="M93.6343 39.1492C93.7973 39.1056 93.9499 39.0297 94.0831 38.9261C94.2154 38.8106 94.304 38.6531 94.334 38.4801C94.3469 38.3755 94.3371 38.2693 94.3054 38.1688C94.2736 38.0683 94.2206 37.9757 94.15 37.8974C94.0658 37.7968 93.9546 37.7223 93.8294 37.6828H93.8768C93.474 37.8741 93.0838 38.0911 92.7087 38.3323C93.0102 37.984 93.3934 37.7158 93.8239 37.5518H93.849H93.874C94.0241 37.5991 94.1581 37.6869 94.2615 37.8054C94.3402 37.8889 94.4001 37.9881 94.4375 38.0965C94.4748 38.2049 94.4886 38.32 94.4781 38.4342C94.4676 38.5483 94.4328 38.6589 94.3763 38.7587C94.3197 38.8584 94.2426 38.9449 94.15 39.0126C94.0808 39.0742 93.998 39.1186 93.9085 39.1424C93.8189 39.1661 93.7249 39.1684 93.6343 39.1492Z" fill="#263238"/>
<path d="M39.3501 26.4477L39.6818 26.4282C42.9965 26.2442 45.9014 28.5636 46.3586 31.7613C46.7824 34.7358 47.2117 38.0226 47.287 39.6256C47.4403 42.9459 44.0559 43.654 44.0559 43.654L44.1786 45.0033C44.3793 47.2335 43.2419 50.4897 40.9475 50.6737L40.1558 50.2109C37.8893 50.3921 36.1218 47.9388 35.9072 45.7504L34.7 33.4228C34.1843 29.9938 35.8152 26.838 39.3501 26.4477Z" fill="#FFBF9D"/>
<path d="M44.0838 43.6486C42.5024 43.7376 40.9277 43.3832 39.5369 42.6255C39.5369 42.6255 40.73 44.9533 44.1172 44.4654L44.0838 43.6486Z" fill="#FF9A6C"/>
<path d="M45.4024 34.8446C45.4094 34.97 45.3668 35.0931 45.2839 35.1875C45.201 35.2818 45.0844 35.3399 44.9592 35.3492C44.8984 35.3578 44.8365 35.3544 44.777 35.339C44.7176 35.3236 44.6617 35.2966 44.6128 35.2595C44.5638 35.2225 44.5226 35.1761 44.4917 35.1231C44.4607 35.07 44.4405 35.0114 44.4323 34.9505C44.4246 34.8254 44.4665 34.7023 44.549 34.6079C44.6314 34.5134 44.7477 34.4552 44.8728 34.4459C44.9338 34.4369 44.996 34.4401 45.0558 34.4553C45.1155 34.4705 45.1717 34.4974 45.221 34.5345C45.2703 34.5716 45.3117 34.6181 45.3428 34.6713C45.374 34.7246 45.3943 34.7835 45.4024 34.8446Z" fill="#263238"/>
<path d="M45.7205 33.4259C45.662 33.49 45.2772 33.2447 44.7531 33.2754C44.229 33.3061 43.8583 33.582 43.7997 33.5235C43.7412 33.465 43.8248 33.3813 43.9837 33.2447C44.2033 33.0768 44.4687 32.9796 44.7448 32.9659C45.0162 32.9489 45.2862 33.0171 45.517 33.1611C45.687 33.2865 45.7484 33.3953 45.7205 33.4259Z" fill="#263238"/>
<path d="M40.8666 35.1567C40.8736 35.2821 40.831 35.4052 40.7481 35.4996C40.6652 35.5939 40.5486 35.652 40.4234 35.6613C40.3625 35.6707 40.3003 35.6678 40.2405 35.6527C40.1808 35.6377 40.1247 35.6107 40.0755 35.5736C40.0264 35.5364 39.9852 35.4897 39.9544 35.4363C39.9237 35.3829 39.904 35.3238 39.8965 35.2627C39.8895 35.1377 39.9317 35.015 40.014 34.9207C40.0963 34.8264 40.2122 34.7681 40.337 34.7581C40.3979 34.7494 40.46 34.7529 40.5196 34.7682C40.5793 34.7836 40.6353 34.8105 40.6845 34.8476C40.7337 34.8846 40.7751 34.931 40.8063 34.984C40.8376 35.0371 40.8581 35.0957 40.8666 35.1567Z" fill="#263238"/>
<path d="M40.5685 33.8074C40.5128 33.8716 40.128 33.629 39.6039 33.6597C39.0798 33.6903 38.7091 33.9663 38.6477 33.9078C38.5864 33.8492 38.6728 33.7656 38.8345 33.629C39.0536 33.4622 39.3178 33.3651 39.5928 33.3502C39.8653 33.3349 40.136 33.404 40.3678 33.5482C40.5351 33.6708 40.5964 33.7796 40.5685 33.8074Z" fill="#263238"/>
<path d="M42.6956 37.4821C42.9659 37.385 43.2465 37.3195 43.5319 37.287C43.6629 37.2647 43.7884 37.2312 43.8107 37.142C43.8132 37.0059 43.7732 36.8724 43.6964 36.7601L43.242 35.7927C42.6092 34.3988 42.1436 33.2837 42.1994 33.2474C42.2551 33.2112 42.8182 34.3235 43.4511 35.7035L43.8888 36.6792C43.9813 36.8311 44.0169 37.0109 43.9891 37.1866C43.9719 37.2341 43.9441 37.2771 43.9079 37.3124C43.8717 37.3476 43.828 37.3742 43.78 37.3901C43.7069 37.4141 43.631 37.4291 43.5542 37.4347C43.2711 37.4863 42.9826 37.5022 42.6956 37.4821Z" fill="#263238"/>
<path d="M40.585 31.8031C40.5431 31.9425 40.0135 31.9063 39.4029 32.015C38.7924 32.1237 38.3045 32.3105 38.2153 32.1906C38.1763 32.1349 38.2544 31.9983 38.4467 31.8533C38.7069 31.6728 39.0041 31.5527 39.3166 31.5016C39.6291 31.4505 39.9491 31.4697 40.2532 31.5578C40.4846 31.6331 40.6045 31.7362 40.585 31.8031Z" fill="#263238"/>
<path d="M45.4386 31.9591C45.3549 32.0817 44.9842 31.9814 44.5493 31.9981C44.1144 32.0148 43.752 32.1208 43.66 31.9981C43.6209 31.9396 43.66 31.8197 43.8244 31.7026C44.0329 31.556 44.2805 31.4754 44.5353 31.4712C44.7903 31.461 45.0423 31.5291 45.2574 31.6664C45.4191 31.7835 45.4776 31.9005 45.4386 31.9591Z" fill="#263238"/>
<path d="M45.9377 30.2559C45.9377 30.2559 44.9146 28.2291 43.8552 27.8026C42.5728 27.2841 42.1156 28.6389 40.9057 28.3908C39.6958 28.1427 38.4748 27.6353 37.3122 28.5971C36.0382 29.6509 36.7017 30.3005 36.7073 31.778C36.7268 37.7662 35.7065 39.5169 35.2214 36.7235C35.1684 36.4169 34.2735 36.2217 34.0672 34.9254C33.7885 33.2527 33.61 31.2037 33.9279 29.9854C34.1927 28.9567 34.7447 28.2263 35.7594 27.3984C37.3652 26.0909 39.6624 25.9348 41.2375 26.0045C42.8126 26.0742 45.9265 27.6465 45.9377 30.2559Z" fill="#263238"/>
<path d="M35.4335 36.6203C35.4198 36.4972 35.3815 36.378 35.3208 36.27C35.2601 36.162 35.1783 36.0673 35.0802 35.9916C34.9821 35.9159 34.8698 35.8607 34.7499 35.8294C34.63 35.798 34.5051 35.7911 34.3825 35.8091C33.7496 35.9039 33.0611 36.2942 33.1782 37.571C33.3872 39.8347 35.6872 39.1628 35.6872 39.0987C35.6872 39.0346 35.5366 37.5682 35.4335 36.6203Z" fill="#FFBF9D"/>
<path d="M35.096 38.2902C35.096 38.2902 35.0569 38.3209 34.9928 38.3571C34.8994 38.4062 34.7908 38.4182 34.6889 38.3906C34.4352 38.3237 34.1927 37.9612 34.1314 37.5542C34.1084 37.3606 34.1293 37.1643 34.1927 36.9799C34.2099 36.907 34.2441 36.8391 34.2925 36.7819C34.341 36.7247 34.4023 36.6799 34.4715 36.651C34.5164 36.6343 34.5658 36.6338 34.6111 36.6496C34.6564 36.6654 34.6947 36.6964 34.7196 36.7374C34.7586 36.7987 34.7475 36.8461 34.7586 36.8489C34.7698 36.8517 34.806 36.8071 34.7781 36.7151C34.7643 36.6684 34.7372 36.6268 34.7001 36.5952C34.6307 36.5534 34.548 36.5395 34.4687 36.5562C34.3757 36.5815 34.2909 36.6306 34.2225 36.6985C34.154 36.7664 34.1044 36.8509 34.0784 36.9437C33.9973 37.148 33.9685 37.3694 33.9948 37.5877C34.0533 38.0421 34.3321 38.4491 34.6778 38.5132C34.7417 38.5263 34.8077 38.5247 34.8709 38.5088C34.9341 38.4929 34.9929 38.463 35.043 38.4212C35.096 38.346 35.1043 38.293 35.096 38.2902Z" fill="#FF9A6C"/>
<path d="M46.434 27.8027C46.0744 27.5406 45.581 27.5016 45.2269 27.2451C44.5774 26.7628 44.5495 25.6644 43.7884 25.3773C43.3368 25.2072 42.8294 25.4163 42.3499 25.3773C41.5693 25.2965 41.2682 24.725 40.0862 24.7222C38.5501 24.7222 38.0567 25.8373 38.0567 25.8373C37.7723 25.7109 37.4604 25.6595 37.1505 25.6878C36.8407 25.7161 36.5432 25.8232 36.2864 25.999C36.0732 26.1588 35.8962 26.3618 35.7669 26.5948C35.6377 26.8279 35.5592 27.0856 35.5365 27.3511C35.5365 27.3511 35.294 27.2312 34.5552 27.7971C34.0869 28.1595 33.7022 28.9345 33.5321 29.4921C33.2784 30.3284 33.6492 31.1982 34.0144 32.0011C34.2095 32.4276 34.4549 32.8988 34.9121 33.0493C35.4696 33.2305 36.0801 32.8096 36.306 32.2771C36.5318 31.7446 36.8635 31.2122 37.1423 30.702C37.6023 29.8155 38.0706 28.9903 37.6859 28.4216C38.2205 28.2543 38.7934 28.2543 39.3279 28.4216C39.8604 28.5916 40.3287 28.9262 40.8612 29.1102C41.3937 29.2942 42.0655 29.2802 42.4252 28.862C42.5048 29.0135 42.617 29.1456 42.7536 29.2487C42.8901 29.3518 43.0478 29.4236 43.2153 29.4587C43.3828 29.4939 43.556 29.4916 43.7226 29.4521C43.8891 29.4125 44.0449 29.3367 44.1787 29.23C44.3945 29.5666 44.7271 29.8114 45.1126 29.9174C45.4981 30.0235 45.9092 29.9832 46.2668 29.8043C46.947 29.3806 47.0752 28.271 46.434 27.8027Z" fill="#263238"/>
<path d="M33.7886 31.4574C33.9008 31.6191 33.9943 31.7931 34.0674 31.9759C34.1512 32.1615 34.2842 32.3206 34.4521 32.4359C34.6755 32.5478 34.9315 32.5765 35.1741 32.5167C35.4243 32.4737 35.6626 32.3787 35.8738 32.238C36.0413 32.1127 36.1937 31.9687 36.3283 31.8086C36.4478 31.6528 36.5783 31.5056 36.7185 31.3682C36.6405 31.5503 36.5353 31.7195 36.4063 31.87C36.2753 32.0448 36.1215 32.2014 35.9491 32.3355C35.7277 32.4996 35.4708 32.6094 35.1992 32.6561C34.9534 32.7332 34.687 32.71 34.4582 32.5914C34.2295 32.4729 34.0569 32.2686 33.9781 32.0233C33.8903 31.8438 33.8265 31.6535 33.7886 31.4574Z" fill="#455A64"/>
<path d="M33.8638 33.2082C34.0071 33.31 34.1625 33.3933 34.3265 33.4564C34.5071 33.511 34.6972 33.5262 34.8841 33.501C35.1122 33.4683 35.3308 33.3876 35.5253 33.264C35.8753 33.0276 36.1732 32.7222 36.4007 32.3663C36.4915 32.2126 36.598 32.0688 36.7185 31.937C36.6661 32.1082 36.5871 32.27 36.4843 32.4165C36.27 32.8035 35.966 33.1333 35.5978 33.3783C35.3865 33.5133 35.1471 33.5981 34.898 33.6264C34.6928 33.6471 34.4856 33.6195 34.2931 33.5456C34.112 33.4923 33.9583 33.3716 33.8638 33.2082Z" fill="#455A64"/>
<path d="M41.207 38.3184C41.1282 38.5647 41.0841 38.8209 41.0759 39.0794C41.0671 39.2027 41.0852 39.3264 41.129 39.442C41.1728 39.5575 41.2413 39.6621 41.3296 39.7485C41.4236 39.8563 41.5398 39.9425 41.6702 40.0012C41.8006 40.0599 41.9421 40.0897 42.0851 40.0886C42.3421 40.0904 42.5913 40.0008 42.7884 39.8359C42.9855 39.671 43.1176 39.4414 43.1612 39.1882L43.2532 38.6306C42.7124 38.4801 41.2488 38.3546 41.207 38.3184Z" fill="#FF9A6C"/>
<path d="M42.6426 39.9408C42.6426 39.9408 42.5729 39.9408 42.4559 39.9575C42.2923 39.9819 42.126 39.9819 41.9624 39.9575C41.7277 39.9196 41.5147 39.7978 41.363 39.6146C41.1869 39.389 41.1023 39.1053 41.1261 38.8201C41.1359 38.6598 41.1786 38.5032 41.2515 38.3601L41.179 38.3936C41.7031 38.4716 42.1631 38.533 42.4921 38.5692C42.6656 38.6025 42.8425 38.6146 43.019 38.6055C42.8524 38.5478 42.6806 38.5067 42.506 38.4828C42.1799 38.4215 41.7254 38.3434 41.2013 38.2598H41.1512L41.1289 38.3044C41.0143 38.5249 40.966 38.7738 40.9898 39.0211C41.0135 39.2684 41.1083 39.5036 41.2627 39.6983C41.4377 39.8994 41.6831 40.0261 41.9485 40.0523C42.1228 40.07 42.2988 40.0539 42.467 40.0049C42.529 39.9947 42.5886 39.9729 42.6426 39.9408Z" fill="#263238"/>
<path d="M31.2572 74.5539L23.7301 68.1113L22.8938 76.3409L37.697 87.2384L42.8182 86.5777L46.9051 84.7461C46.9051 84.7461 55.4413 73.1294 55.4413 72.3376L52.0458 73.7036L31.2572 74.5539Z" fill="#263238"/>
<path d="M31.2571 74.5542C31.4132 75.0141 42.9407 86.0594 42.9407 86.0594L36.0939 93.6199C36.0939 93.6199 22.7766 82.0366 20.5073 80.2608C18.2381 78.485 15.2496 74.95 15.0126 72.625C14.7756 70.3 17.898 67.2334 17.898 67.2334C17.898 67.2334 20.9645 67.2334 22.693 67.791C24.4214 68.3485 31.2571 74.5542 31.2571 74.5542Z" fill="#263238"/>
<path d="M28.0987 91.8606C28.2744 90.9183 28.4639 89.9482 28.9797 89.1397C29.4954 88.3313 30.4238 87.7096 31.3744 87.8434C32.0072 87.9326 32.5564 88.334 33.1781 88.479C33.7998 88.624 34.4215 88.5152 35.0487 88.5069C35.676 88.4985 36.7437 88.5069 37.1368 88.9836L41.798 92.1673C40.3622 93.1792 37.9118 93.2824 36.1722 93.5305C34.4326 93.7786 32.6568 93.8929 31.0008 94.4811C30.2816 94.7376 29.4731 95.0777 28.7901 94.732C28.5607 94.5975 28.3667 94.4103 28.2242 94.1858C28.0816 93.9613 27.9947 93.7061 27.9705 93.4413C27.9283 92.9109 27.9716 92.3772 28.0987 91.8606Z" fill="#455A64"/>
<path d="M28.567 94.4898C28.5489 94.398 28.5433 94.3042 28.5502 94.211C28.5502 94.0326 28.5502 93.7705 28.5502 93.4499C28.5683 92.608 28.6872 91.7713 28.9043 90.9576C29.1287 90.138 29.5486 89.3851 30.1281 88.7636C30.3067 88.579 30.5049 88.4145 30.7192 88.273C30.7944 88.2173 30.8769 88.1723 30.9645 88.1392C30.697 88.3549 30.4428 88.5867 30.2034 88.8333C29.6606 89.4601 29.2644 90.2001 29.0437 90.9994C28.8315 91.803 28.7008 92.6258 28.6534 93.4555C28.6469 93.8017 28.618 94.1472 28.567 94.4898Z" fill="#263238"/>
<path d="M32.5618 93.7063C32.5172 93.7063 32.757 92.8951 32.8908 91.8831C33.0246 90.8711 33.0163 90.0376 33.0581 90.0376C33.1065 90.2193 33.1253 90.4075 33.1138 90.5952C33.1219 91.0361 33.0958 91.4769 33.0358 91.9138C32.976 92.3514 32.8828 92.7839 32.757 93.2073C32.7177 93.3826 32.6519 93.5509 32.5618 93.7063Z" fill="#263238"/>
<path d="M34.2097 92.9814C34.1679 92.9619 34.4355 92.4016 34.5582 91.6545C34.6808 90.9073 34.6195 90.2912 34.6641 90.2856C34.8704 91.2091 34.7073 92.1766 34.2097 92.9814Z" fill="#263238"/>
<path d="M35.7177 91.7213C35.7177 91.7213 35.8208 91.6572 35.9965 91.5345C36.2421 91.3633 36.4546 91.1488 36.6237 90.9017C36.6803 90.8206 36.7315 90.7358 36.7771 90.648C36.826 90.5602 36.8635 90.4665 36.8886 90.3692C36.8953 90.3485 36.8975 90.3267 36.8951 90.305C36.8927 90.2834 36.8858 90.2626 36.8747 90.2438C36.8636 90.2251 36.8487 90.209 36.8309 90.1965C36.8131 90.1839 36.7928 90.1754 36.7715 90.1713C36.6614 90.1565 36.5495 90.176 36.4509 90.227C36.2207 90.3318 36.0329 90.5117 35.9184 90.7372C35.7971 90.9774 35.7608 91.2515 35.8153 91.515C35.8746 91.7733 36.0013 92.0113 36.1825 92.2048C36.3636 92.3982 36.5929 92.5401 36.8468 92.6162C36.9551 92.6561 37.0688 92.6796 37.1841 92.6859C37.2816 92.6859 37.29 92.6134 37.2231 92.5326C37.071 92.3974 36.9078 92.2752 36.7352 92.1674C36.376 91.9535 36.0035 91.7626 35.6201 91.5959C35.7316 91.6101 35.8405 91.6401 35.9435 91.6851C36.2349 91.7884 36.5151 91.9211 36.7798 92.0809C36.9668 92.1887 37.1432 92.3137 37.3067 92.4545C37.3342 92.4819 37.3551 92.5153 37.3676 92.552C37.3802 92.5887 37.3842 92.6279 37.3792 92.6664C37.3665 92.7072 37.3415 92.7431 37.3075 92.769C37.2736 92.795 37.2324 92.8098 37.1896 92.8113C37.0566 92.8125 36.9244 92.7898 36.7994 92.7444C36.5326 92.6619 36.2891 92.5176 36.0885 92.3235C35.8733 92.1108 35.7259 91.8392 35.6647 91.5429C35.6027 91.2445 35.644 90.9338 35.7818 90.6619C35.9163 90.4133 36.1303 90.217 36.3896 90.1044C36.5147 90.0425 36.6566 90.0229 36.7938 90.0486C36.8309 90.0571 36.8659 90.0731 36.8966 90.0957C36.9272 90.1182 36.953 90.1468 36.9722 90.1797C37.0055 90.244 37.0153 90.3179 37.0001 90.3887C36.9712 90.5006 36.9261 90.6077 36.8663 90.7065C36.8174 90.7981 36.7614 90.8857 36.699 90.9686C36.5166 91.2197 36.2852 91.4312 36.0188 91.5903C35.9274 91.6523 35.8253 91.6967 35.7177 91.7213Z" fill="#263238"/>
<path d="M39.1217 84.6151C39.1217 84.6151 52.7206 74.3142 54.9369 72.5021C57.1532 70.69 62.7427 67.0408 64.9423 71.7327C67.1419 76.4245 64.2119 77.9578 62.9518 80.2215C61.6917 82.4852 53.989 88.9027 50.9392 90.9127C48.4776 92.5352 44.0032 92.5352 44.0032 92.5352L40.8892 94.6902L35.3303 87.6677L39.1217 84.6151Z" fill="#263238"/>
<path d="M50.9392 88.822C51.8397 88.164 52.5116 87.7068 53.1974 87.9856C53.8832 88.2644 54.3487 88.9195 54.6833 89.583C55.0942 90.4732 55.4236 91.3988 55.6674 92.3485C55.9127 93.1988 56.119 94.2247 55.5224 94.8771C55.3134 95.0782 55.0581 95.2247 54.7789 95.3035C54.4998 95.3823 54.2055 95.3909 53.9222 95.3287C53.3565 95.2009 52.8164 94.9785 52.3248 94.6708C50.8054 93.8344 47.4852 92.5269 45.9658 91.6906L50.9392 88.822Z" fill="#455A64"/>
<path d="M52.9155 88.4956C52.9155 88.4956 52.988 88.5653 53.0967 88.7075C53.2054 88.8496 53.3532 89.0643 53.5232 89.3375C53.9611 90.0522 54.3183 90.8133 54.5882 91.6068C54.7371 92.0442 54.86 92.4901 54.9562 92.9421C55.042 93.3082 55.0934 93.6816 55.1095 94.0573C55.1205 94.3169 55.0709 94.5756 54.9645 94.8127C54.9305 94.902 54.875 94.9815 54.8028 95.0441C54.9619 94.7418 55.0325 94.4007 55.0063 94.06C54.9764 93.6905 54.9158 93.324 54.8251 92.9644C54.7304 92.5546 54.6077 92.1086 54.4516 91.6486C54.1815 90.864 53.8409 90.1054 53.434 89.3821C53.119 88.8357 52.896 88.5068 52.9155 88.4956Z" fill="#263238"/>
<path d="M50.6854 92.7777C50.4907 92.358 50.3899 91.9008 50.3899 91.4382C50.3899 90.9755 50.4907 90.5184 50.6854 90.0986C50.6102 90.5423 50.5618 90.9901 50.5405 91.4396C50.5615 91.8881 50.6099 92.335 50.6854 92.7777Z" fill="#263238"/>
<path d="M48.918 92.1282C48.7322 91.9667 48.6179 91.7382 48.6002 91.4926C48.535 91.2538 48.5649 90.9989 48.6838 90.7817C48.7256 90.7817 48.6838 91.0995 48.7423 91.4675C48.8009 91.8355 48.9486 92.1059 48.918 92.1282Z" fill="#263238"/>
<path d="M53.8748 73.3472L53.7856 73.4224L53.5068 73.6343L52.4697 74.4511L48.5947 77.4731L35.3722 87.7238V87.6235L39.2751 92.5412L40.9478 94.6459L40.8474 94.632L43.5711 92.6387C45.0766 92.0187 46.5437 91.3094 47.9646 90.5144C49.339 89.7561 50.6186 88.97 51.8007 88.1755C52.9116 87.4262 53.9826 86.6195 55.0094 85.7584C55.9824 84.9667 56.8828 84.2335 57.6941 83.5561C59.3166 82.2068 60.5794 81.0833 61.4297 80.2916C61.8562 79.8957 62.1796 79.5863 62.3971 79.3744L62.648 79.1374L62.7344 79.0594C62.7344 79.0594 62.7093 79.09 62.6563 79.1458L62.4166 79.3939C62.2019 79.6113 61.8841 79.9264 61.4632 80.3278C60.6268 81.1335 59.3667 82.2793 57.7526 83.6286C56.9441 84.3088 56.0493 85.0476 55.0791 85.8449C54.053 86.711 52.9819 87.5225 51.8703 88.2758C50.6883 89.0759 49.4059 89.8704 48.0316 90.6315C46.6062 91.432 45.1344 92.147 43.624 92.7725H43.638L40.9171 94.7658L40.8613 94.8048L40.8167 94.7519C40.2592 94.0577 39.7016 93.358 39.1441 92.6471L35.2411 87.7266L35.1965 87.6709L35.2523 87.6291L48.5166 77.4174L52.4195 74.4288L53.4705 73.6315L53.7493 73.428C53.789 73.3979 53.8309 73.3708 53.8748 73.3472Z" fill="#455A64"/>
<path d="M30.103 74.3255C30.1309 74.2976 32.3054 76.1682 34.9593 78.5072C37.6133 80.8462 39.7488 82.767 39.7209 82.7976C39.693 82.8283 37.5213 80.9549 34.8646 78.6159C32.2078 76.277 30.0779 74.3562 30.103 74.3255Z" fill="#455A64"/>
<path d="M63.7155 56.2411C63.6374 56.1937 62.3467 54.8472 62.8791 53.0937C63.4116 51.3401 64.2452 50.3282 64.7051 49.6396C65.1651 48.951 65.7784 47.0135 66.1938 47.1306C66.6092 47.2477 66.9772 47.5822 66.9577 48.2791C66.9382 48.9761 65.8426 50.3031 66.244 50.9861C66.3274 51.1244 66.462 51.2243 66.6186 51.264C66.7752 51.3036 66.9411 51.2799 67.0803 51.198C67.0803 51.198 69.528 49.8738 70.4592 49.1712C71.3903 48.4687 72.4106 48.0952 72.5695 48.4604C72.7284 48.8256 72.6727 49.1238 71.9005 49.7037C71.1282 50.2836 69.7678 51.0669 69.8208 51.2928C69.8737 51.5186 70.225 51.4628 70.6794 51.1311C71.1338 50.7993 73.3808 49.3887 73.6986 49.542C73.7772 49.5797 73.8463 49.6345 73.9007 49.7025C73.9552 49.7705 73.9936 49.85 74.0132 49.9349C74.0327 50.0198 74.0329 50.108 74.0137 50.193C73.9944 50.278 73.9563 50.3575 73.9021 50.4258L73.4979 50.9387C73.4979 50.9387 74.0805 51.1617 73.9801 51.5548C73.8798 51.9479 73.2442 52.2295 73.2442 52.2295L70.211 54.0136C70.211 54.0136 70.1581 54.2924 70.3226 54.3621C70.487 54.4318 72.7089 52.801 72.8929 53.0379C73.0769 53.2749 73.3557 53.2637 72.7702 53.8743C72.1848 54.4848 70.4285 55.5776 69.6869 55.8062C68.9454 56.0348 66.2329 57.5764 66.2329 57.5764L63.7155 56.2411Z" fill="#FFBF9D"/>
<path d="M69.2049 53.25C69.2328 53.3029 70.2504 52.8792 71.4352 52.2408C72.62 51.6024 73.54 50.9891 73.5093 50.9389C73.4786 50.8887 72.5141 51.41 71.3237 52.054C70.1333 52.698 69.1771 53.1942 69.2049 53.25Z" fill="#FF9A6C"/>
<path d="M66.8685 54.1588C66.8824 54.1755 67.0943 54.0277 67.2588 53.6625C67.3616 53.4226 67.4087 53.1626 67.3966 52.9018C67.3846 52.6411 67.3136 52.3865 67.1891 52.1571C67.0408 51.9192 66.8699 51.6961 66.6789 51.4909C66.5357 51.3313 66.4147 51.1532 66.3193 50.9612C66.2471 50.7829 66.201 50.5951 66.1827 50.4036C66.1604 50.3869 66.0322 50.6406 66.1688 51.0281C66.251 51.2458 66.3687 51.4483 66.5172 51.6275C66.6893 51.8313 66.8477 52.0465 66.9911 52.2714C67.0993 52.4773 67.1654 52.7026 67.1855 52.9343C67.2056 53.166 67.1793 53.3993 67.1082 53.6207C66.9967 53.9581 66.8378 54.1365 66.8685 54.1588Z" fill="#FF9A6C"/>
<path d="M59.4475 60.8495L62.9462 54.7163L66.2637 57.8247C66.2637 57.8247 63.8104 65.0144 62.4862 67.0913C61.162 69.1682 59.6677 69.9182 59.6677 69.9182C59.6677 69.9182 57.0556 68.6692 55.9014 67.1109C54.7473 65.5525 51.7197 60.2585 51.7197 60.2585L56.0129 55.8732L59.4475 60.8495Z" fill="#FFBF9D"/>
<path d="M59.2719 63.7989C59.1654 63.2704 59.1438 62.7284 59.2078 62.1931C59.2266 61.6543 59.3301 61.1219 59.5144 60.6152C59.5562 60.6152 59.4168 61.3261 59.3527 62.2043C59.2886 63.0824 59.3137 63.7961 59.2719 63.7989Z" fill="#FF9A6C"/>
<path d="M57.7635 57.4623C57.7635 57.4623 55.0147 51.7724 53.5818 49.3609C52.1489 46.9495 46.8716 46.5425 46.8716 46.5425L49.8406 59.9852L51.3516 61.5548L57.7635 57.4623Z" fill="#32959D"/>
<path d="M52.0903 54.7163C52.0866 55.1291 52.0389 55.5403 51.9481 55.9429C51.8143 56.7235 51.6415 57.7439 51.4491 58.8729C51.2567 60.002 51.0895 61.0195 50.9557 61.8029C50.8999 62.1542 50.8525 62.4524 50.8135 62.6922C50.8014 62.8021 50.778 62.9105 50.7438 63.0156C50.7343 62.9049 50.739 62.7934 50.7577 62.6838C50.7745 62.472 50.8079 62.1653 50.8553 61.7889C50.9501 61.0335 51.109 59.9936 51.3069 58.8478C51.5049 57.702 51.7 56.6706 51.8478 55.9234L52.0234 55.0397C52.04 54.9308 52.0623 54.8228 52.0903 54.7163Z" fill="#263238"/>
<path d="M52.6814 52.5223C52.6396 52.5223 52.8069 51.6999 52.8654 50.6796C52.924 49.6592 52.8654 48.8313 52.9017 48.8257C52.9609 48.9999 52.992 49.1825 52.9937 49.3665C53.0314 49.806 53.0369 50.2476 53.0104 50.6879C52.9843 51.1283 52.9265 51.5662 52.8376 51.9982C52.813 52.1799 52.7604 52.3568 52.6814 52.5223Z" fill="#263238"/>
<path d="M49.8353 47.0776C49.8353 47.0776 51.7394 56.3471 50.917 59.9489L50.4263 68.6775C50.4263 68.6775 51.9345 73.0934 51.7171 73.7178C51.4996 74.3423 45.7791 79.6503 40.8837 79.338C35.9883 79.0258 32.5203 75.7947 32.0966 75.4825C31.6728 75.1703 29.8161 73.9994 29.8161 73.9994L30.1256 70.1132L29.7632 57.3228L28.885 47.6519L34.6028 46.258L35.7876 44.5352L42.1995 49.9184L44.3127 44.5352L45.0152 46.074L49.8353 47.0776Z" fill="#32959D"/>
<path d="M35.1379 69.9569C35.3437 70.0506 35.5562 70.1289 35.7736 70.1911C36.3796 70.3186 37.0096 70.2692 37.5884 70.0489C38.4514 69.7295 39.2572 69.2729 39.9748 68.6968C42.5396 66.8063 44.7356 64.461 46.4536 61.7775C46.8801 61.1168 47.1952 60.562 47.4126 60.1773L47.6579 59.734C47.6838 59.6805 47.7156 59.63 47.7527 59.5835C47.7347 59.6404 47.7113 59.6954 47.683 59.748L47.4628 60.2052C47.2621 60.5983 46.9582 61.1614 46.54 61.8332C44.8467 64.5526 42.644 66.9191 40.0528 68.8027C39.3222 69.381 38.5007 69.8341 37.6219 70.1437C37.0249 70.3614 36.3765 70.3964 35.7596 70.244C35.664 70.2197 35.5707 70.187 35.4808 70.1465C35.4137 70.1202 35.3493 70.0875 35.2885 70.0489C35.2352 70.0235 35.1848 69.9927 35.1379 69.9569Z" fill="#263238"/>
<path d="M42.0071 50.6851C42.0071 50.6851 41.9486 50.6349 41.8566 50.5262L41.4691 50.0495H41.5332C41.3157 50.4649 41.037 51.028 40.6522 51.7082C40.6206 51.755 40.5793 51.7946 40.5313 51.8244C40.4833 51.8542 40.4295 51.8735 40.3735 51.8811C40.2577 51.8833 40.1443 51.8481 40.0501 51.7807C39.8798 51.6497 39.7186 51.5072 39.5678 51.3542L38.5865 50.4203C37.5299 49.4139 36.5821 48.4967 35.899 47.8304L35.0962 47.0303C34.9924 46.9385 34.8989 46.8356 34.8174 46.7236C34.9312 46.8082 35.0384 46.9014 35.138 47.0024L35.9743 47.7663C36.6741 48.4158 37.647 49.3219 38.6924 50.3283L39.6709 51.265C39.8147 51.4126 39.9674 51.5513 40.1281 51.6803C40.1569 51.7109 40.1921 51.7346 40.2313 51.7496C40.2705 51.7646 40.3125 51.7706 40.3543 51.7671C40.3961 51.7636 40.4366 51.7508 40.4727 51.7295C40.5089 51.7082 40.5397 51.679 40.563 51.6441C40.9394 51.0001 41.2488 50.4203 41.4802 50.0244L41.5109 49.9714L41.5443 50.0188L41.904 50.5178C41.9435 50.5702 41.9781 50.6262 42.0071 50.6851Z" fill="#263238"/>
<path d="M45.1321 46.5313C45.1455 46.634 45.1455 46.738 45.1321 46.8407C45.1154 47.0359 45.0903 47.323 45.029 47.677C44.8766 48.5905 44.6155 49.4824 44.2512 50.3338C44.1062 50.6739 43.9473 50.9973 43.7884 51.2928L43.7131 51.4378L43.6629 51.2845C43.4009 50.5067 43.1807 49.8348 43.0301 49.3609H43.111C42.9865 49.6068 42.8429 49.8427 42.6816 50.0662C42.7811 49.8092 42.8985 49.5596 43.0329 49.3191L43.0803 49.2299L43.1137 49.3246C43.2866 49.793 43.5236 50.4593 43.794 51.2343H43.6657C43.8191 50.9388 43.9724 50.6182 44.1174 50.2836C44.4756 49.4398 44.7474 48.5618 44.9286 47.6631C45.0652 46.9634 45.1098 46.5285 45.1321 46.5313Z" fill="#263238"/>
<path d="M28.1655 58.368L23.8109 63.885C23.8109 63.885 24.678 65.7027 24.8926 66.2825C25.1073 66.8624 28.7342 72.5997 28.7342 72.5997L25.177 74.4173C25.177 74.4173 19.5177 69.2627 17.7057 67.1551C17.2213 66.5919 16.8706 65.9265 16.6799 65.2086C16.4892 64.4907 16.4634 63.7389 16.6045 63.0096C16.8833 61.6297 23.1893 54.0469 23.1893 54.0469L27.2399 54.518L28.1655 58.368Z" fill="#FFBF9D"/>
<path d="M28.7343 72.5999C28.7343 72.5999 30.9367 78.1309 31.1458 78.7721C31.3548 79.4133 31.4942 83.3608 31.3186 84.002C31.143 84.6432 30.17 86.5277 29.7519 86.6699C29.3337 86.8121 29.0159 87.0267 29.264 85.9562C29.4031 85.3348 29.601 84.7281 29.855 84.1442L29.9247 82.0087C29.9247 82.0087 29.4229 83.6814 29.0549 83.896C28.6869 84.1107 27.5913 83.7176 27.5913 83.7176V83.3608C27.5913 83.3608 26.6156 83.503 26.4762 83.1489C26.3368 82.7949 26.6016 82.1286 26.6016 82.1286C26.6016 82.1286 26.058 83.2186 25.5005 82.8729C24.9429 82.5272 25.3945 82.3154 25.5005 81.5905C25.632 80.7547 25.632 79.9034 25.5005 79.0676C25.3388 78.1504 25.0823 77.5008 24.9764 76.8987C24.8704 76.2965 25.1771 74.4259 25.1771 74.4259L27.1731 72.3462L28.7343 72.5999Z" fill="#FFBF9D"/>
<path d="M21.4775 55.2877C21.4775 55.2877 26.0635 49.6563 27.2092 48.4631C28.355 47.27 30.1838 47.6798 30.3483 47.6798C30.5128 47.6798 32.4364 50.7463 32.1074 53.7404C31.932 55.5079 31.1064 57.1472 29.7907 58.3403L27.003 61.8195L21.4775 55.2877Z" fill="#32959D"/>
<path d="M28.2687 81.0913C28.2225 81.9951 27.9799 82.8779 27.5579 83.6784C27.6529 83.241 27.772 82.8091 27.9147 82.3849C28.0087 81.9475 28.1269 81.5156 28.2687 81.0913Z" fill="#FF9A6C"/>
<path d="M26.8273 80.417C26.9402 81.2087 26.782 82.0154 26.3784 82.7058C26.3394 82.689 26.5318 82.2012 26.6572 81.5711C26.7827 80.9411 26.7854 80.417 26.8273 80.417Z" fill="#FF9A6C"/>
<path d="M30.3567 57.2254C30.4081 57.0931 30.4686 56.9645 30.5379 56.8406C30.6634 56.5953 30.8446 56.2413 31.0481 55.7952C31.6166 54.6534 31.9422 53.4061 32.0043 52.1321C32.0205 51.4345 31.8973 50.7407 31.6419 50.0914C31.4409 49.5806 31.1384 49.1159 30.7526 48.7254C30.3669 48.3349 29.906 48.0266 29.3977 47.8193C29.3977 47.8193 29.4367 47.8193 29.5064 47.8444C29.6093 47.8733 29.7099 47.9097 29.8075 47.9532C30.1665 48.1151 30.4954 48.3366 30.7805 48.6083C31.2036 49.0131 31.5386 49.5009 31.7645 50.0412C32.0344 50.7055 32.1654 51.418 32.1493 52.1348C32.0902 53.4288 31.7466 54.6938 31.1429 55.8398C30.9226 56.2803 30.7275 56.6288 30.5853 56.8657C30.5208 56.9926 30.4442 57.1131 30.3567 57.2254Z" fill="#263238"/>
<path d="M22.2024 61.0752C22.3767 61.2049 22.5316 61.3588 22.6624 61.5324C23.3377 62.3368 23.8211 63.2845 24.0758 64.3035C24.1425 64.5106 24.1754 64.7271 24.1734 64.9447C23.9653 64.246 23.7053 63.5639 23.3956 62.904C23.0422 62.2666 22.6435 61.6554 22.2024 61.0752Z" fill="#FF9A6C"/>
<path d="M81.714 68.6021C81.734 68.9179 81.6865 69.2343 81.5748 69.5303C81.4631 69.8264 81.2897 70.0952 81.0661 70.3191C80.8425 70.543 80.5739 70.7167 80.278 70.8287C79.9821 70.9408 79.6657 70.9886 79.3499 70.969C79.2802 70.969 79.2133 70.9522 79.1436 70.9383C78.3881 70.7989 77.7497 70.2999 77.1531 69.8232L73.7297 67.0772C73.1852 66.6779 72.6951 66.2093 72.2717 65.6833C71.8437 65.1494 71.6434 64.4682 71.7141 63.7876L71.9037 63.7402C72.2063 63.2316 72.6308 62.8065 73.139 62.5032C73.6472 62.2 74.2229 62.0282 74.8142 62.0034C76.007 61.9735 77.1654 62.4049 78.048 63.2077C78.6613 63.7514 79.1436 64.426 79.7625 64.9668C79.7625 64.9668 80.9473 65.1034 81.3516 66.1935C81.5707 66.9785 81.6924 67.7874 81.714 68.6021Z" fill="#263238"/>
<path d="M72.4361 63.9773C71.9749 63.5912 71.4282 63.3208 70.8415 63.1884C70.5482 63.1251 70.2453 63.1216 69.9507 63.1781C69.6561 63.2347 69.3759 63.35 69.127 63.5173C68.6725 63.8435 68.3966 64.3537 68.0788 64.8081C67.7609 65.2625 67.3651 65.8256 66.8131 65.9037C66.7122 65.9108 66.6155 65.9466 66.5343 66.0068C66.4089 66.1267 66.4785 66.2299 66.6347 66.3024C66.8004 66.3566 66.9791 66.3566 67.1448 66.3024C66.8684 66.6228 66.4888 66.8368 66.0715 66.9073C66.0981 67.0074 66.1441 67.1012 66.207 67.1834C66.2699 67.2656 66.3484 67.3346 66.438 67.3864C66.5276 67.4383 66.6266 67.4718 66.7292 67.4853C66.8319 67.4988 66.9362 67.4918 67.0361 67.4649C66.8489 68.1052 66.7421 68.7663 66.7183 69.433C66.6979 70.1058 66.9273 70.7622 67.3623 71.2758C67.8585 71.8138 68.6698 72.1121 68.89 72.8174" fill="#263238"/>
<path d="M77.2425 87.4726L68.3215 87.3555L69.3168 79.7671C69.3168 79.7671 68.7062 79.6388 68.6672 76.3353C68.6282 73.0318 68.4749 67.4144 68.4749 67.4144C70.3513 66.6073 72.4092 66.3162 74.4358 66.5711C76.4625 66.8259 78.3842 67.6175 80.0024 68.864L80.4931 69.2404L77.2425 87.4726Z" fill="#FFBF9D"/>
<path d="M79.4671 73.3106C79.5229 73.2883 81.7364 72.6415 81.6639 74.8969C81.5914 77.1522 79.3389 76.6169 79.3389 76.5528C79.3389 76.4887 79.4671 73.3106 79.4671 73.3106Z" fill="#FFBF9D"/>
<path d="M68.8649 72.8368C68.8092 72.8145 66.7964 72.2792 66.8689 74.529C66.9413 76.7787 69.1911 76.2462 69.1939 76.1821C69.1967 76.118 68.8649 72.8368 68.8649 72.8368Z" fill="#FFBF9D"/>
<path d="M80.1973 73.0597C79.8599 74.9498 79.9185 75.9451 79.6146 77.2079C79.1212 79.2068 78.1287 80.7401 76.3278 81.7381C74.5269 82.7361 72.0904 82.7194 70.5431 81.359C69.4698 80.4167 68.7088 79.3518 68.5499 77.93C68.3909 76.5082 67.9728 73.8431 67.9616 72.4129C67.9449 69.837 68.0313 67.5259 68.0313 67.5259L75.4023 66.1934L79.584 68.6857L80.1973 73.0597Z" fill="#263238"/>
<path d="M72.6147 82.8728C72.6147 82.9258 73.1723 83.068 73.9055 82.9871C74.6387 82.9063 75.1516 82.6498 75.1238 82.594C75.0959 82.5383 74.5662 82.7083 73.8665 82.7808C73.1667 82.8533 72.6147 82.8199 72.6147 82.8728Z" fill="#263238"/>
<path d="M79.8433 76.2743C80.058 74.3368 80.1974 72.1205 80.5012 70.077C80.6155 69.3104 80.8887 68.2036 80.819 67.4314C80.7493 66.6592 80.5403 66.8934 80.1974 66.1936C79.7708 65.3155 78.1344 64.7328 77.1754 64.5405C76.2164 64.3481 76.1021 63.5201 75.3661 64.1641C75.097 63.7596 74.711 63.4467 74.2595 63.2672C73.8081 63.0877 73.3126 63.0501 72.8392 63.1594C72.3658 63.2688 71.937 63.5198 71.6099 63.8792C71.2829 64.2385 71.0732 64.6889 71.0088 65.1705C70.7411 64.9285 70.4022 64.7796 70.0429 64.746C69.6836 64.7124 69.323 64.7959 69.0151 64.9841C68.7071 65.1722 68.4683 65.4549 68.3342 65.79C68.2001 66.1251 68.178 66.4945 68.2712 66.8432C68.0054 66.8873 67.7548 66.9968 67.542 67.1619C67.3291 67.3271 67.1608 67.5426 67.0521 67.7891C66.9433 68.0355 66.8977 68.3052 66.9193 68.5737C66.9408 68.8422 67.0289 69.1012 67.1756 69.3271C67.5157 69.8512 68.1318 70.1412 68.5081 70.643C68.7205 70.9359 68.8443 71.2838 68.8645 71.6451C68.8848 72.0064 68.8008 72.3659 68.6224 72.6808" fill="#263238"/>
<path d="M70.3564 75.8727C70.3062 75.8588 70.2059 76.7955 70.6101 77.8548C71.0143 78.9142 71.7029 79.5526 71.7252 79.5108C71.7475 79.469 71.1677 78.7999 70.7969 77.7823C70.4261 76.7648 70.4205 75.8699 70.3564 75.8727Z" fill="#455A64"/>
<path d="M69.3666 74.2304C69.322 74.2081 69.0349 75.011 69.2245 76.0174C69.414 77.0238 69.9549 77.6762 69.9883 77.6399C70.0218 77.6037 69.5925 76.9346 69.4308 75.9812C69.2691 75.0277 69.4308 74.2304 69.3666 74.2304Z" fill="#455A64"/>
<path d="M78.639 66.4249C78.1065 65.5171 77.3032 64.7986 76.3419 64.3703C75.3717 63.9828 74.1786 64.0636 73.384 64.741" fill="#263238"/>
<path d="M78.4689 71.418C78.452 71.1933 78.4766 70.9675 78.5413 70.7517C78.6452 70.2366 78.7021 69.7132 78.7114 69.1878C78.7109 68.67 78.5957 68.1587 78.3741 67.6907C78.1957 67.3367 78.0172 67.1527 78.0479 67.1332C78.0786 67.1136 78.2988 67.2503 78.533 67.6099C78.8236 68.0877 78.9761 68.6368 78.9734 69.1961C78.9685 69.7419 78.883 70.2839 78.7198 70.8047C78.5859 71.1922 78.4884 71.4264 78.4689 71.418Z" fill="#455A64"/>
<path d="M76.933 72.165C76.8661 72.1287 77.0501 71.6827 77.2257 71.1224C77.4014 70.562 77.5045 70.0909 77.5881 70.0992C77.6718 70.1076 77.6634 70.6122 77.4738 71.2004C77.2843 71.7886 76.9916 72.2012 76.933 72.165Z" fill="#455A64"/>
<path d="M69.8601 71.5849C69.627 71.3629 69.4535 71.0858 69.3555 70.7792C69.0585 70.054 68.9818 69.2573 69.135 68.4888C69.2883 67.7203 69.6646 67.0139 70.217 66.4581C70.6407 66.0371 70.9808 65.881 70.9948 65.9005C71.0087 65.9201 70.716 66.1431 70.3536 66.578C69.866 67.1339 69.5324 67.8077 69.3856 68.5324C69.2389 69.2572 69.2843 70.0077 69.5172 70.7095C69.704 71.2559 69.8964 71.5626 69.8601 71.5849Z" fill="#455A64"/>
<path d="M77.9114 63.1882C77.6576 63.115 77.4133 63.0121 77.1838 62.8815C76.6311 62.6103 76.0262 62.4619 75.4107 62.4466C75.1096 62.44 74.8105 62.4969 74.5329 62.6137C74.2552 62.7304 74.0053 62.9043 73.7994 63.1241C73.6457 63.3279 73.5078 63.5432 73.3868 63.768C73.3589 63.768 73.3505 63.4279 73.6656 63.007C73.847 62.7654 74.0817 62.5689 74.3514 62.4327C74.6819 62.2703 75.0452 62.1855 75.4135 62.1846C76.0704 62.1945 76.7129 62.3782 77.2758 62.717C77.6939 62.9624 77.9253 63.1575 77.9114 63.1882Z" fill="#455A64"/>
<path d="M67.842 65.2789C67.8141 65.2789 67.867 65.0169 68.104 64.6823C68.4211 64.2438 68.8754 63.9235 69.3949 63.7721C69.9144 63.6206 70.4696 63.6466 70.9726 63.846C71.3518 64.0021 71.5302 64.1861 71.5135 64.2084C71.4968 64.2307 71.2793 64.122 70.9141 64.0216C70.4417 63.8844 69.94 63.8844 69.4676 64.0216C68.9952 64.1588 68.5715 64.4276 68.2462 64.7966C67.9925 65.0782 67.8754 65.3096 67.842 65.2789Z" fill="#455A64"/>
<path d="M70.27 73.5757C70.27 73.545 70.6324 73.4447 71.2262 73.1798C72.0324 72.8174 72.7699 72.3185 73.4063 71.7051L73.8328 71.2925L73.5986 71.85C73.4525 72.1937 73.3459 72.5528 73.2808 72.9206C73.2446 73.1073 73.2139 73.3415 73.2808 73.3722C73.3478 73.4028 73.5345 73.3276 73.7018 73.2105C74.271 72.8412 74.7821 72.3892 75.2184 71.8696L75.6086 71.4012L75.4302 71.9839C75.2518 72.5665 75.0845 73.099 74.934 73.6008L74.7639 73.4976C75.7982 72.5191 76.1578 71.6465 76.2052 71.68C76.1552 71.8892 76.0694 72.0882 75.9516 72.2682C75.6702 72.7745 75.3182 73.2382 74.9061 73.6454L74.6273 73.9242L74.7333 73.5478L75.1905 71.9197L75.4051 72.0312C74.9599 72.5748 74.4322 73.0451 73.8412 73.4251C73.7481 73.4883 73.6502 73.5443 73.5485 73.5924C73.4822 73.6273 73.4078 73.6442 73.333 73.6412C73.2581 73.6383 73.1853 73.6157 73.1219 73.5757C73.0679 73.5273 73.0264 73.4665 73.0011 73.3985C72.9759 73.3305 72.9676 73.2573 72.977 73.1854C72.9861 73.0795 73.0019 72.9743 73.0244 72.8704C73.0952 72.486 73.2122 72.1116 73.3728 71.7553L73.568 71.8919C72.904 72.5132 72.1258 72.9998 71.2764 73.3248C70.9576 73.465 70.6173 73.5498 70.27 73.5757Z" fill="#455A64"/>
<path d="M74.5662 64.8722C74.4913 64.7357 74.3893 64.616 74.2667 64.5201C74.144 64.4243 74.0031 64.3544 73.8525 64.3146C73.5536 64.2361 73.2405 64.2285 72.9381 64.2923C72.1876 64.429 71.5082 64.8234 71.0173 65.4075C70.9058 65.5413 70.8083 65.7448 70.9254 65.8702C70.9966 65.929 71.0868 65.9597 71.179 65.9567C72.2893 66.0487 73.4066 66.0094 74.5077 65.8396" fill="#263238"/>
<path d="M55.7848 107.127C55.7848 107.127 49.0216 103.252 46.7719 103.377C44.72 103.494 42.5428 104.121 41.5894 105.836C40.6359 107.55 40.8534 110.146 41.9546 111.71C43.0557 113.274 54.1205 122.117 54.2683 122.482C54.416 122.847 58.6423 127.862 67.2454 127.904C75.7873 127.946 80.5628 128.004 81.2959 126.903C82.0291 125.802 82.5059 113.907 82.5059 113.907L55.7848 107.127Z" fill="#455A64"/>
<path d="M95.614 99.2179C94.1754 97.8854 91.909 97.9662 89.9241 98.4959C87.7468 99.073 82.5225 104.858 82.5225 104.858L80.2727 127.461C84.7192 125.995 87.2143 120.079 88.2124 118.509C88.4242 118.175 96.5311 106.745 97.0915 104.916C97.6518 103.087 97.0525 100.553 95.614 99.2179Z" fill="#455A64"/>
<path d="M54.9399 97.988C54.9399 97.988 54.9957 90.6227 56.49 88.1833C57.9842 85.744 59.038 85.1391 61.2543 84.8603C63.4706 84.5815 68.8984 84.3027 68.8984 84.3027L78.5916 84.9662C78.5916 84.9662 86.6762 84.8464 86.6762 86.9595C86.6762 87.347 83.6905 96.9565 83.6905 114.985C83.6905 115.161 85.182 115.643 84.2871 117.675C83.0298 120.53 78.7756 126.212 71.2625 126.212C65.1126 126.212 58.3188 123.24 57.764 118.919C57.2092 114.598 59.2638 102.025 59.2638 102.025V97.8152L54.9399 97.988Z" fill="#32959D"/>
<path d="M85.8316 85.9395C85.8316 85.9395 88.6723 86.7758 89.3944 89.8229C90.1164 92.8699 91.6748 99.5495 91.6748 99.5495L83.671 100.216C83.671 100.216 83.225 95.1643 83.3365 93.079C83.448 90.9937 85.2155 86.3409 85.8316 85.9395Z" fill="#32959D"/>
<path d="M61.7004 105.8C61.6724 105.748 61.6526 105.693 61.6419 105.635C61.6056 105.502 61.5638 105.357 61.5109 105.15C61.4021 104.729 61.2516 104.116 61.0732 103.358C60.7191 101.844 60.2368 99.7336 59.7852 97.4113C59.3336 95.0891 58.9489 92.9509 58.7426 91.4148C58.6366 90.6453 58.5697 90.0209 58.5307 89.5832C58.5168 89.3825 58.5056 89.218 58.4972 89.0814C58.4869 89.0233 58.4869 88.9639 58.4972 88.9058C58.5156 88.9619 58.5277 89.0198 58.5335 89.0786C58.553 89.2124 58.5753 89.3769 58.6004 89.5748C58.6617 90.0069 58.7509 90.6286 58.8792 91.3953C59.1217 92.9313 59.512 95.0473 59.9748 97.3751C60.4376 99.7029 60.8836 101.808 61.207 103.33C61.3631 104.069 61.4858 104.679 61.5861 105.134C61.6252 105.329 61.6558 105.49 61.6809 105.627C61.6943 105.684 61.7009 105.742 61.7004 105.8Z" fill="#263238"/>
<path d="M85.6085 91.1357C85.6183 91.1957 85.6183 91.2569 85.6085 91.3169C85.5917 91.4535 85.5666 91.6236 85.5415 91.8271L85.2767 93.7089C85.0648 95.3007 84.8139 97.5031 84.6104 99.9424C84.4069 102.382 84.2564 104.595 84.1393 106.198C84.0807 106.976 84.0306 107.617 83.9915 108.094C83.972 108.297 83.9553 108.467 83.9414 108.607C83.941 108.667 83.9316 108.728 83.9135 108.785C83.9025 108.725 83.9025 108.664 83.9135 108.604C83.9135 108.465 83.9135 108.295 83.9274 108.088C83.9497 107.612 83.9804 106.973 84.0138 106.19C84.0975 104.584 84.2229 102.371 84.4292 99.9257C84.6355 97.4808 84.9059 95.2784 85.154 93.6921C85.2767 92.8976 85.3882 92.2564 85.4774 91.816C85.5165 91.6124 85.5527 91.4452 85.5806 91.3086C85.5823 91.25 85.5916 91.1919 85.6085 91.1357Z" fill="#263238"/>
<path d="M70.5599 119.825C70.3746 119.844 70.1878 119.844 70.0024 119.825C69.7888 119.826 69.5754 119.811 69.364 119.78C69.0831 119.755 68.8039 119.714 68.5276 119.658C68.1895 119.598 67.8553 119.518 67.5268 119.418C67.1487 119.309 66.7765 119.181 66.4117 119.033C64.7307 118.348 63.2288 117.288 62.0209 115.933C61.7596 115.637 61.514 115.327 61.2849 115.005C61.0818 114.728 60.8956 114.44 60.7274 114.141C60.5804 113.898 60.4473 113.648 60.3287 113.391C60.2313 113.2 60.1465 113.004 60.075 112.802C59.9992 112.636 59.9404 112.462 59.8994 112.284C59.9384 112.267 60.1782 113.009 60.8417 114.071C61.0119 114.36 61.198 114.639 61.3992 114.907C61.6083 115.208 61.8732 115.498 62.1408 115.811C63.3434 117.138 64.8234 118.185 66.4758 118.877C66.8605 119.025 67.2202 119.175 67.5742 119.273C67.8972 119.378 68.2257 119.464 68.5583 119.532C69.7794 119.794 70.5627 119.783 70.5599 119.825Z" fill="#263238"/>
<g opacity="0.3">
<path d="M62.4224 114.537C61.8519 113.254 61.2785 111.971 60.7024 110.687C60.839 110.837 61.0078 110.954 61.1961 111.029C61.3844 111.104 61.5873 111.136 61.7896 111.122C62.2134 107.919 62.3472 105.493 60.9672 102.577C61.6 108.169 59.3614 113.834 56.9221 118.604C57.672 118.635 58.6478 117.107 58.9795 116.433C59.3113 115.758 59.9552 115.008 60.6522 115.273C61.2098 115.487 61.5443 116.315 62.1409 116.207C62.2977 116.159 62.4349 116.062 62.5315 115.93C62.6281 115.798 62.6789 115.637 62.6761 115.473C62.6635 115.146 62.5768 114.826 62.4224 114.537Z" fill="black"/>
</g>
<path d="M62.0211 112.8C61.982 112.836 61.4635 112.293 60.9924 111.487C60.5212 110.681 60.2592 109.996 60.301 109.973C60.3428 109.951 60.7052 110.603 61.1568 111.392C61.6085 112.181 62.0517 112.764 62.0211 112.8Z" fill="#263238"/>
<path d="M83.6904 115.512C83.6747 115.586 83.6484 115.658 83.6123 115.724C83.551 115.861 83.4757 116.067 83.3336 116.318C82.9788 117.032 82.5588 117.713 82.079 118.35C81.3712 119.303 80.5428 120.159 79.6146 120.898C78.0099 122.179 76.14 123.087 74.1408 123.555C72.1415 124.023 70.0631 124.04 68.0564 123.605C67.2759 123.439 66.5125 123.201 65.776 122.894C65.5112 122.791 65.3188 122.685 65.185 122.616C65.1154 122.586 65.049 122.55 64.9871 122.507C65.0609 122.524 65.1328 122.548 65.2017 122.579C65.3411 122.629 65.5363 122.727 65.8039 122.816C67.6481 123.51 69.6149 123.818 71.583 123.722C74.4718 123.599 77.2465 122.56 79.5059 120.756C80.4279 120.029 81.2566 119.191 81.9731 118.261C82.4586 117.635 82.8921 116.97 83.2694 116.273C83.4088 116.031 83.4952 115.83 83.5677 115.716C83.6 115.643 83.6412 115.575 83.6904 115.512Z" fill="#263238"/>
<path d="M84.0894 100.969C84.0894 100.988 83.7688 100.807 83.1611 100.612C82.2942 100.357 81.3883 100.263 80.4876 100.333C79.1507 100.443 77.8364 100.743 76.5847 101.225C75.1545 101.718 73.6157 102.399 71.8928 102.8C71.0551 103.004 70.1957 103.104 69.3336 103.098C68.5267 103.089 67.7276 102.939 66.9723 102.655C65.5338 102.098 64.4633 101.208 63.5182 100.548C62.798 99.9988 62.0344 99.5093 61.235 99.084C60.6635 98.8052 60.3206 98.6937 60.329 98.6714C60.4138 98.6878 60.4968 98.7121 60.5771 98.7439C60.8131 98.8225 61.044 98.9157 61.2685 99.0226C62.085 99.4266 62.864 99.9024 63.5963 100.444C64.5386 101.094 65.6286 101.953 67.0337 102.496C68.4387 103.04 70.1616 103.026 71.851 102.622C73.5404 102.217 75.0876 101.554 76.5289 101.066C77.7961 100.586 79.1272 100.296 80.4792 100.205C81.3938 100.148 82.3109 100.267 83.1806 100.556C83.4151 100.638 83.6434 100.736 83.8636 100.851C83.942 100.884 84.0176 100.923 84.0894 100.969Z" fill="white"/>
<path d="M55.7625 97.9688V105.638C55.7625 105.638 53.811 110.511 53.075 113.444C52.3391 116.377 50.3904 123.831 50.3904 123.831L53.075 126.218C53.075 126.218 57.7474 117.221 58.9294 114.23C59.6527 112.417 60.2243 110.548 60.6383 108.64C60.9296 107.427 61.1124 106.19 61.1847 104.944C61.2126 103.254 59.8828 97.9743 59.8828 97.9743L55.7625 97.9688Z" fill="#FFBF9D"/>
<path d="M39.7354 127.734C39.7354 127.734 42.3838 124.994 42.5232 125.025C42.6626 125.055 46.7969 124.272 46.7969 124.272L49.7185 124.029L50.4823 123.75L53.1196 126.148C53.1196 126.148 52.7878 127.414 52.0351 127.623C51.2824 127.832 48.0625 127.985 48.0625 127.985L47.0394 127.706L45.8964 127.796C45.8964 127.796 44.1178 128.699 43.7582 128.699C43.4951 128.682 43.2386 128.61 43.0055 128.487C43.0055 128.487 42.9441 128.158 43.5463 127.796L44.6001 127.163L41.9517 128.339L39.7214 128.278L39.7354 127.734Z" fill="#FFBF9D"/>
<path d="M47.9036 126.298C47.9036 126.329 47.6053 126.315 47.1425 126.412C46.5407 126.545 45.952 126.732 45.3834 126.97C44.8113 127.205 44.2586 127.485 43.7303 127.806C43.326 128.055 43.103 128.247 43.0835 128.227C43.2362 128.013 43.4306 127.832 43.655 127.695C44.1717 127.335 44.7272 127.034 45.3109 126.797C45.8902 126.549 46.4979 126.373 47.1202 126.273C47.3795 126.218 47.6483 126.227 47.9036 126.298Z" fill="#FF9A6C"/>
<path d="M46.4344 125.23C46.113 125.343 45.7801 125.42 45.4419 125.459C44.8314 125.587 44.0118 125.888 43.0946 126.156L42.9691 126.195H42.997C42.261 126.753 41.6171 127.291 41.1459 127.664C40.9033 127.883 40.6411 128.079 40.3625 128.25C40.571 127.998 40.8045 127.768 41.0595 127.564C41.5111 127.162 42.1384 126.613 42.8827 126.045H42.8967L43.0221 126.005C43.8032 125.745 44.598 125.529 45.4029 125.356C45.7427 125.286 46.0877 125.244 46.4344 125.23Z" fill="#FF9A6C"/>
<path d="M84.644 100.057L87.3621 112.265L96.8964 127.099L99.1099 124.478L92.9433 109.51L91.3738 99.5439L84.644 100.057Z" fill="#FFBF9D"/>
<path d="M107.863 127.416L102.82 124.483L98.5411 124.308L96.9019 127.037C96.9019 127.037 97.4064 127.731 98.9202 127.795C100.434 127.859 101.708 127.795 101.708 127.795C101.708 127.795 103.913 128.866 104.354 128.551C104.617 128.362 104.919 128.232 105.237 128.171C105.237 128.171 106.812 129.108 107.063 128.609C107.255 128.282 107.54 128.019 107.883 127.856L107.863 127.416Z" fill="#FFBF9D"/>
<path d="M100.819 126.488C101.034 126.413 101.26 126.375 101.488 126.374C101.736 126.353 101.986 126.36 102.232 126.396C102.541 126.442 102.835 126.562 103.088 126.745C104.081 127.559 104.817 128.261 104.789 128.3C104.761 128.339 103.952 127.692 102.979 126.906C102.537 126.623 102.016 126.485 101.491 126.513C101.267 126.531 101.041 126.522 100.819 126.488Z" fill="#FF9A6C"/>
<path d="M101.393 125.376C101.483 125.346 101.578 125.335 101.672 125.345C101.916 125.342 102.16 125.365 102.399 125.415C103.187 125.595 103.938 125.912 104.616 126.351C105.413 126.842 106.104 127.324 106.637 127.62C107.169 127.915 107.512 128.066 107.501 128.094C107.174 128.026 106.861 127.905 106.573 127.737C106.015 127.458 105.307 126.998 104.518 126.513C103.854 126.086 103.131 125.76 102.372 125.543C101.775 125.395 101.393 125.409 101.393 125.376Z" fill="#FF9A6C"/>
<g opacity="0.3">
<path d="M83.6906 115.512C83.4442 117.31 82.6112 118.976 81.321 120.251C79.1744 122.353 77.2703 123.669 74.3515 124.361C71.4326 125.052 67.4266 124.918 65.4612 122.638C65.4612 122.638 70.5824 124.673 74.8533 123.285C81.5942 121.096 83.6906 115.512 83.6906 115.512Z" fill="black"/>
</g>
<path d="M68.4328 64.3814C68.14 64.8163 67.8752 65.2986 67.418 65.569C67.1655 65.6941 66.9058 65.804 66.6402 65.898C66.371 65.993 66.1485 66.1875 66.0185 66.4416C65.9604 66.5697 65.9551 66.7154 66.0036 66.8474C66.0521 66.9794 66.1506 67.087 66.2778 67.1469C66.1031 67.2231 65.957 67.3526 65.8604 67.5168C65.7637 67.6811 65.7215 67.8716 65.7397 68.0613C65.7639 68.2505 65.8323 68.4314 65.9393 68.5893C66.0464 68.7472 66.189 68.8776 66.3558 68.9702C66.6962 69.1562 67.0852 69.234 67.471 69.1932L69.651 63.4336C69.1269 63.5089 68.7394 63.9465 68.4328 64.3814Z" fill="#263238"/>
</g>
<defs>
<clipPath id="clip0_560_8826">
<rect width="148" height="200" fill="white"/>
</clipPath>
</defs>
</svg>
