<svg width="148" height="200" viewBox="0 0 148 200" fill="none" xmlns="http://www.w3.org/2000/svg">
<g clip-path="url(#clip0_560_8971)">
<rect width="148" height="200" rx="15" fill="#04547B" fill-opacity="0.08"/>
<path d="M118.826 227.032C104.904 229.334 95.446 220.269 92.923 205.269C90.1898 189.423 93.9036 172.765 103.113 159.576C109.521 151.114 121.969 159.805 116.233 168.736C109.415 178.499 106.671 190.812 108.69 202.55C110.612 212.64 114.236 213.27 122.459 208.652C118.854 202.2 117.687 193.622 119.091 183.332C119.854 177.755 121.233 171.348 125.723 166.119C130.947 160.039 141.004 156.783 148.784 161.86C161.537 169.918 156.516 192.005 149.456 203.506C153.677 201.187 156.917 196.757 159.021 190.781C160.468 186.607 165.023 184.392 169.198 185.839C173.372 187.286 175.587 191.841 174.14 196.016C171.853 202.623 167.188 211.64 157.997 217.048C150.793 221.284 142.269 222.066 135.08 219.475C130.42 222.936 124.282 226.131 118.816 227.034L118.826 227.032ZM139.893 175.359C134.626 176.358 133.948 190.999 134.971 196.454C138.031 191.639 140.027 186.139 140.599 180.514C140.889 177.61 140.417 175.855 140.091 175.334L139.894 175.369L139.893 175.359Z" fill="#455A64" fill-opacity="0.1"/>
<path d="M23.6973 149.628V151.474H18.1748V149.628H23.6973ZM18.9292 145.336V156H16.5415V145.336H18.9292ZM25.3452 145.336V156H22.9648V145.336H25.3452ZM26.6709 152.118V151.964C26.6709 151.383 26.7539 150.849 26.9199 150.36C27.0859 149.867 27.3301 149.44 27.6523 149.079C27.9746 148.717 28.3701 148.437 28.8389 148.236C29.3076 148.031 29.8447 147.929 30.4502 147.929C31.0654 147.929 31.6074 148.031 32.0762 148.236C32.5498 148.437 32.9478 148.717 33.27 149.079C33.5923 149.44 33.8364 149.867 34.0024 150.36C34.1685 150.849 34.2515 151.383 34.2515 151.964V152.118C34.2515 152.694 34.1685 153.229 34.0024 153.722C33.8364 154.21 33.5923 154.638 33.27 155.004C32.9478 155.365 32.5522 155.646 32.0835 155.846C31.6147 156.046 31.0752 156.146 30.4648 156.146C29.8594 156.146 29.3198 156.046 28.8462 155.846C28.3726 155.646 27.9746 155.365 27.6523 155.004C27.3301 154.638 27.0859 154.21 26.9199 153.722C26.7539 153.229 26.6709 152.694 26.6709 152.118ZM28.9634 151.964V152.118C28.9634 152.431 28.9878 152.724 29.0366 152.997C29.0903 153.271 29.1758 153.51 29.293 153.715C29.4102 153.92 29.564 154.081 29.7544 154.198C29.9497 154.311 30.1865 154.367 30.4648 154.367C30.7432 154.367 30.9775 154.311 31.168 154.198C31.3584 154.081 31.5122 153.92 31.6294 153.715C31.7466 153.51 31.8296 153.271 31.8784 152.997C31.9321 152.724 31.959 152.431 31.959 152.118V151.964C31.959 151.657 31.9321 151.369 31.8784 151.1C31.8296 150.827 31.7466 150.585 31.6294 150.375C31.5122 150.165 31.356 150.001 31.1606 149.884C30.9702 149.767 30.7334 149.708 30.4502 149.708C30.1768 149.708 29.9448 149.767 29.7544 149.884C29.564 150.001 29.4102 150.165 29.293 150.375C29.1758 150.585 29.0903 150.827 29.0366 151.1C28.9878 151.369 28.9634 151.657 28.9634 151.964ZM37.8623 144.75V156H35.5698V144.75H37.8623ZM41.9199 148.075V156H39.6274V148.075H41.9199ZM39.4883 146.024C39.4883 145.692 39.6055 145.421 39.8398 145.211C40.0742 144.997 40.3818 144.889 40.7627 144.889C41.1436 144.889 41.4512 144.997 41.6855 145.211C41.9248 145.421 42.0444 145.692 42.0444 146.024C42.0444 146.352 41.9248 146.623 41.6855 146.837C41.4512 147.047 41.1436 147.152 40.7627 147.152C40.3818 147.152 40.0742 147.047 39.8398 146.837C39.6055 146.623 39.4883 146.352 39.4883 146.024ZM47.7866 153.795C47.7866 153.649 47.7402 153.52 47.6475 153.407C47.5596 153.295 47.3984 153.192 47.1641 153.1C46.9346 153.007 46.6099 152.914 46.1899 152.821C45.7944 152.738 45.4258 152.631 45.084 152.499C44.7422 152.362 44.4443 152.199 44.1904 152.008C43.9365 151.813 43.7388 151.583 43.5972 151.32C43.4556 151.051 43.3848 150.746 43.3848 150.404C43.3848 150.072 43.4556 149.757 43.5972 149.459C43.7437 149.162 43.9536 148.898 44.2271 148.668C44.5054 148.439 44.8423 148.258 45.2378 148.126C45.6382 147.995 46.0923 147.929 46.6001 147.929C47.2983 147.929 47.9014 148.039 48.4092 148.258C48.917 148.473 49.3076 148.776 49.5811 149.167C49.8545 149.552 49.9912 149.994 49.9912 150.492H47.7061C47.7061 150.287 47.667 150.109 47.5889 149.958C47.5107 149.806 47.3911 149.689 47.23 149.606C47.0688 149.518 46.8564 149.474 46.5928 149.474C46.3877 149.474 46.207 149.511 46.0508 149.584C45.8994 149.652 45.7798 149.748 45.6919 149.87C45.6089 149.992 45.5674 150.133 45.5674 150.294C45.5674 150.407 45.5918 150.509 45.6406 150.602C45.6943 150.69 45.7749 150.773 45.8823 150.851C45.9946 150.924 46.1387 150.99 46.3145 151.049C46.4951 151.107 46.7148 151.164 46.9736 151.217C47.5254 151.32 48.0283 151.464 48.4824 151.649C48.9414 151.835 49.3076 152.091 49.5811 152.418C49.8594 152.746 49.9985 153.178 49.9985 153.715C49.9985 154.066 49.918 154.389 49.7568 154.682C49.6006 154.975 49.3735 155.231 49.0757 155.451C48.7778 155.67 48.4214 155.841 48.0063 155.963C47.5913 156.085 47.1226 156.146 46.6001 156.146C45.853 156.146 45.2207 156.012 44.7031 155.744C44.1855 155.475 43.7949 155.138 43.5312 154.733C43.2725 154.323 43.1431 153.903 43.1431 153.473H45.2891C45.2988 153.737 45.3647 153.952 45.4868 154.118C45.6138 154.284 45.7773 154.406 45.9775 154.484C46.1777 154.557 46.4023 154.594 46.6514 154.594C46.9004 154.594 47.1079 154.56 47.2739 154.491C47.4399 154.423 47.5669 154.33 47.6548 154.213C47.7427 154.091 47.7866 153.952 47.7866 153.795ZM55.3013 148.075V149.679H50.5991V148.075H55.3013ZM51.6758 146.112H53.9683V153.517C53.9683 153.737 53.9951 153.905 54.0488 154.022C54.1025 154.14 54.1904 154.223 54.3125 154.271C54.4346 154.315 54.5908 154.337 54.7812 154.337C54.918 154.337 55.0352 154.333 55.1328 154.323C55.2305 154.313 55.3208 154.301 55.4038 154.286V155.941C55.2085 156.005 55.001 156.054 54.7812 156.088C54.5615 156.127 54.3223 156.146 54.0635 156.146C53.5703 156.146 53.1431 156.066 52.7817 155.905C52.4253 155.744 52.1519 155.49 51.9614 155.143C51.771 154.792 51.6758 154.335 51.6758 153.773V146.112ZM58.8096 148.075V156H56.5171V148.075H58.8096ZM56.3779 146.024C56.3779 145.692 56.4951 145.421 56.7295 145.211C56.9639 144.997 57.2715 144.889 57.6523 144.889C58.0332 144.889 58.3408 144.997 58.5752 145.211C58.8145 145.421 58.9341 145.692 58.9341 146.024C58.9341 146.352 58.8145 146.623 58.5752 146.837C58.3408 147.047 58.0332 147.152 57.6523 147.152C57.2715 147.152 56.9639 147.047 56.7295 146.837C56.4951 146.623 56.3779 146.352 56.3779 146.024ZM63.7681 154.367C64.0122 154.367 64.2246 154.32 64.4053 154.228C64.5859 154.135 64.7251 154.005 64.8228 153.839C64.9253 153.668 64.9766 153.463 64.9766 153.224H67.1299C67.1299 153.8 66.981 154.308 66.6831 154.748C66.3901 155.187 65.9946 155.531 65.4966 155.78C64.9985 156.024 64.437 156.146 63.812 156.146C63.1968 156.146 62.6597 156.046 62.2007 155.846C61.7417 155.641 61.3584 155.355 61.0508 154.989C60.7432 154.623 60.5112 154.198 60.355 153.715C60.2036 153.227 60.1279 152.699 60.1279 152.133V151.942C60.1279 151.381 60.2036 150.856 60.355 150.368C60.5112 149.879 60.7432 149.452 61.0508 149.086C61.3584 148.72 61.7393 148.437 62.1934 148.236C62.6523 148.031 63.1895 147.929 63.8047 147.929C64.4541 147.929 65.0278 148.053 65.5259 148.302C66.0288 148.551 66.4219 148.91 66.7051 149.379C66.9883 149.843 67.1299 150.402 67.1299 151.056H64.9766C64.9766 150.802 64.9302 150.575 64.8374 150.375C64.7495 150.17 64.6128 150.009 64.4272 149.892C64.2466 149.77 64.022 149.708 63.7534 149.708C63.4751 149.708 63.2456 149.77 63.0649 149.892C62.8892 150.009 62.7549 150.172 62.6621 150.382C62.5693 150.592 62.5059 150.832 62.4717 151.1C62.4375 151.364 62.4204 151.645 62.4204 151.942V152.133C62.4204 152.436 62.4375 152.724 62.4717 152.997C62.5059 153.266 62.5693 153.502 62.6621 153.708C62.7598 153.913 62.8965 154.074 63.0723 154.191C63.248 154.308 63.48 154.367 63.7681 154.367ZM74.6372 154.667L76.7612 145.336H77.9844L78.4678 146.493L76.2046 156H74.8643L74.6372 154.667ZM73.8096 145.336L75.5894 154.711L75.2817 156H73.7583L71.4438 145.336H73.8096ZM79.9839 154.66L81.7417 145.336H84.1001L81.7856 156H80.2769L79.9839 154.66ZM78.7827 145.336L80.936 154.718L80.687 156H79.354L77.0542 146.486L77.5596 145.336H78.7827ZM88.5825 156.146C87.9526 156.146 87.3887 156.046 86.8906 155.846C86.3926 155.646 85.9702 155.37 85.6235 155.019C85.2817 154.662 85.0205 154.252 84.8398 153.788C84.6592 153.324 84.5688 152.829 84.5688 152.301V152.023C84.5688 151.432 84.6519 150.888 84.8179 150.39C84.9839 149.892 85.2256 149.459 85.543 149.093C85.8652 148.722 86.2607 148.437 86.7295 148.236C87.1982 148.031 87.7329 147.929 88.3335 147.929C88.895 147.929 89.3955 148.021 89.835 148.207C90.2744 148.388 90.6455 148.649 90.9482 148.991C91.251 149.328 91.4805 149.735 91.6367 150.214C91.7979 150.688 91.8784 151.22 91.8784 151.811V152.748H85.4917V151.276H89.6372V151.1C89.6372 150.822 89.5859 150.578 89.4834 150.368C89.3857 150.158 89.2393 149.997 89.0439 149.884C88.8535 149.767 88.6118 149.708 88.3188 149.708C88.0405 149.708 87.8086 149.767 87.623 149.884C87.4375 150.001 87.2886 150.167 87.1763 150.382C87.0688 150.592 86.9907 150.839 86.9419 151.122C86.8931 151.4 86.8687 151.701 86.8687 152.023V152.301C86.8687 152.609 86.9102 152.89 86.9932 153.144C87.0762 153.397 87.1982 153.615 87.3594 153.795C87.5205 153.976 87.7158 154.118 87.9453 154.22C88.1748 154.323 88.436 154.374 88.729 154.374C89.0903 154.374 89.4346 154.306 89.7617 154.169C90.0889 154.027 90.3721 153.808 90.6113 153.51L91.6807 154.733C91.5195 154.967 91.2925 155.194 90.9995 155.414C90.7114 155.629 90.3647 155.805 89.9595 155.941C89.5542 156.078 89.0952 156.146 88.5825 156.146ZM95.4014 144.75V156H93.1089V144.75H95.4014ZM99.459 144.75V156H97.1665V144.75H99.459ZM103.348 149.767V156H101.056V148.075H103.209L103.348 149.767ZM103.048 151.759L102.477 151.774C102.477 151.178 102.55 150.644 102.696 150.17C102.843 149.696 103.05 149.293 103.319 148.961C103.592 148.625 103.917 148.368 104.293 148.192C104.674 148.017 105.094 147.929 105.553 147.929C105.924 147.929 106.263 147.982 106.571 148.09C106.878 148.197 107.142 148.371 107.362 148.61C107.586 148.844 107.757 149.157 107.875 149.547C107.992 149.933 108.05 150.409 108.05 150.976V156H105.75V150.968C105.75 150.636 105.704 150.38 105.611 150.199C105.519 150.019 105.382 149.892 105.201 149.818C105.025 149.745 104.811 149.708 104.557 149.708C104.288 149.708 104.059 149.762 103.868 149.87C103.678 149.972 103.521 150.116 103.399 150.302C103.277 150.487 103.187 150.705 103.128 150.954C103.075 151.203 103.048 151.471 103.048 151.759ZM113.28 156.146C112.65 156.146 112.086 156.046 111.588 155.846C111.09 155.646 110.667 155.37 110.321 155.019C109.979 154.662 109.718 154.252 109.537 153.788C109.356 153.324 109.266 152.829 109.266 152.301V152.023C109.266 151.432 109.349 150.888 109.515 150.39C109.681 149.892 109.923 149.459 110.24 149.093C110.562 148.722 110.958 148.437 111.427 148.236C111.896 148.031 112.43 147.929 113.031 147.929C113.592 147.929 114.093 148.021 114.532 148.207C114.972 148.388 115.343 148.649 115.646 148.991C115.948 149.328 116.178 149.735 116.334 150.214C116.495 150.688 116.576 151.22 116.576 151.811V152.748H110.189V151.276H114.334V151.1C114.334 150.822 114.283 150.578 114.181 150.368C114.083 150.158 113.937 149.997 113.741 149.884C113.551 149.767 113.309 149.708 113.016 149.708C112.738 149.708 112.506 149.767 112.32 149.884C112.135 150.001 111.986 150.167 111.874 150.382C111.766 150.592 111.688 150.839 111.639 151.122C111.59 151.4 111.566 151.701 111.566 152.023V152.301C111.566 152.609 111.607 152.89 111.69 153.144C111.773 153.397 111.896 153.615 112.057 153.795C112.218 153.976 112.413 154.118 112.643 154.22C112.872 154.323 113.133 154.374 113.426 154.374C113.788 154.374 114.132 154.306 114.459 154.169C114.786 154.027 115.069 153.808 115.309 153.51L116.378 154.733C116.217 154.967 115.99 155.194 115.697 155.414C115.409 155.629 115.062 155.805 114.657 155.941C114.251 156.078 113.792 156.146 113.28 156.146ZM121.908 153.795C121.908 153.649 121.861 153.52 121.769 153.407C121.681 153.295 121.52 153.192 121.285 153.1C121.056 153.007 120.731 152.914 120.311 152.821C119.916 152.738 119.547 152.631 119.205 152.499C118.863 152.362 118.565 152.199 118.312 152.008C118.058 151.813 117.86 151.583 117.718 151.32C117.577 151.051 117.506 150.746 117.506 150.404C117.506 150.072 117.577 149.757 117.718 149.459C117.865 149.162 118.075 148.898 118.348 148.668C118.626 148.439 118.963 148.258 119.359 148.126C119.759 147.995 120.213 147.929 120.721 147.929C121.419 147.929 122.022 148.039 122.53 148.258C123.038 148.473 123.429 148.776 123.702 149.167C123.976 149.552 124.112 149.994 124.112 150.492H121.827C121.827 150.287 121.788 150.109 121.71 149.958C121.632 149.806 121.512 149.689 121.351 149.606C121.19 149.518 120.978 149.474 120.714 149.474C120.509 149.474 120.328 149.511 120.172 149.584C120.021 149.652 119.901 149.748 119.813 149.87C119.73 149.992 119.688 150.133 119.688 150.294C119.688 150.407 119.713 150.509 119.762 150.602C119.815 150.69 119.896 150.773 120.003 150.851C120.116 150.924 120.26 150.99 120.436 151.049C120.616 151.107 120.836 151.164 121.095 151.217C121.646 151.32 122.149 151.464 122.604 151.649C123.062 151.835 123.429 152.091 123.702 152.418C123.98 152.746 124.12 153.178 124.12 153.715C124.12 154.066 124.039 154.389 123.878 154.682C123.722 154.975 123.495 155.231 123.197 155.451C122.899 155.67 122.542 155.841 122.127 155.963C121.712 156.085 121.244 156.146 120.721 156.146C119.974 156.146 119.342 156.012 118.824 155.744C118.307 155.475 117.916 155.138 117.652 154.733C117.394 154.323 117.264 153.903 117.264 153.473H119.41C119.42 153.737 119.486 153.952 119.608 154.118C119.735 154.284 119.898 154.406 120.099 154.484C120.299 154.557 120.523 154.594 120.772 154.594C121.021 154.594 121.229 154.56 121.395 154.491C121.561 154.423 121.688 154.33 121.776 154.213C121.864 154.091 121.908 153.952 121.908 153.795ZM129.613 153.795C129.613 153.649 129.566 153.52 129.474 153.407C129.386 153.295 129.225 153.192 128.99 153.1C128.761 153.007 128.436 152.914 128.016 152.821C127.621 152.738 127.252 152.631 126.91 152.499C126.568 152.362 126.271 152.199 126.017 152.008C125.763 151.813 125.565 151.583 125.423 151.32C125.282 151.051 125.211 150.746 125.211 150.404C125.211 150.072 125.282 149.757 125.423 149.459C125.57 149.162 125.78 148.898 126.053 148.668C126.332 148.439 126.668 148.258 127.064 148.126C127.464 147.995 127.918 147.929 128.426 147.929C129.125 147.929 129.728 148.039 130.235 148.258C130.743 148.473 131.134 148.776 131.407 149.167C131.681 149.552 131.817 149.994 131.817 150.492H129.532C129.532 150.287 129.493 150.109 129.415 149.958C129.337 149.806 129.217 149.689 129.056 149.606C128.895 149.518 128.683 149.474 128.419 149.474C128.214 149.474 128.033 149.511 127.877 149.584C127.726 149.652 127.606 149.748 127.518 149.87C127.435 149.992 127.394 150.133 127.394 150.294C127.394 150.407 127.418 150.509 127.467 150.602C127.521 150.69 127.601 150.773 127.708 150.851C127.821 150.924 127.965 150.99 128.141 151.049C128.321 151.107 128.541 151.164 128.8 151.217C129.352 151.32 129.854 151.464 130.309 151.649C130.768 151.835 131.134 152.091 131.407 152.418C131.686 152.746 131.825 153.178 131.825 153.715C131.825 154.066 131.744 154.389 131.583 154.682C131.427 154.975 131.2 155.231 130.902 155.451C130.604 155.67 130.248 155.841 129.833 155.963C129.417 156.085 128.949 156.146 128.426 156.146C127.679 156.146 127.047 156.012 126.529 155.744C126.012 155.475 125.621 155.138 125.357 154.733C125.099 154.323 124.969 153.903 124.969 153.473H127.115C127.125 153.737 127.191 153.952 127.313 154.118C127.44 154.284 127.604 154.406 127.804 154.484C128.004 154.557 128.229 154.594 128.478 154.594C128.727 154.594 128.934 154.56 129.1 154.491C129.266 154.423 129.393 154.33 129.481 154.213C129.569 154.091 129.613 153.952 129.613 153.795ZM51.1191 171.188C51.1191 171.007 51.0923 170.846 51.0386 170.704C50.9849 170.558 50.8872 170.423 50.7456 170.301C50.604 170.179 50.4038 170.057 50.145 169.935C49.8862 169.808 49.5469 169.679 49.127 169.547C48.6484 169.391 48.1919 169.215 47.7573 169.02C47.3276 168.819 46.9443 168.587 46.6074 168.324C46.2705 168.06 46.0044 167.752 45.8091 167.401C45.6187 167.049 45.5234 166.639 45.5234 166.17C45.5234 165.716 45.6235 165.306 45.8237 164.94C46.0239 164.574 46.3047 164.261 46.666 164.002C47.0273 163.739 47.4521 163.539 47.9404 163.402C48.4287 163.26 48.9658 163.189 49.5518 163.189C50.333 163.189 51.019 163.329 51.6099 163.607C52.2056 163.88 52.6694 164.266 53.0015 164.764C53.3335 165.257 53.4995 165.831 53.4995 166.485H51.1265C51.1265 166.197 51.0654 165.943 50.9434 165.724C50.8262 165.499 50.6455 165.323 50.4014 165.196C50.1621 165.069 49.8618 165.006 49.5005 165.006C49.1489 165.006 48.8535 165.06 48.6143 165.167C48.3799 165.27 48.2017 165.411 48.0796 165.592C47.9624 165.772 47.9038 165.97 47.9038 166.185C47.9038 166.356 47.9478 166.512 48.0356 166.654C48.1284 166.791 48.2603 166.92 48.4312 167.042C48.6069 167.159 48.8218 167.271 49.0757 167.379C49.3296 167.486 49.6201 167.589 49.9473 167.687C50.5186 167.867 51.0239 168.067 51.4634 168.287C51.9077 168.507 52.2812 168.756 52.584 169.034C52.8867 169.312 53.1138 169.627 53.2651 169.979C53.4214 170.331 53.4995 170.729 53.4995 171.173C53.4995 171.646 53.4067 172.066 53.2212 172.433C53.0405 172.799 52.7769 173.111 52.4302 173.37C52.0884 173.624 51.6782 173.817 51.1997 173.949C50.7212 174.081 50.1865 174.146 49.5957 174.146C49.0586 174.146 48.5288 174.078 48.0063 173.941C47.4839 173.8 47.0103 173.585 46.5854 173.297C46.1655 173.009 45.8286 172.643 45.5747 172.198C45.3257 171.749 45.2012 171.217 45.2012 170.602H47.5889C47.5889 170.924 47.6353 171.197 47.728 171.422C47.8208 171.642 47.9526 171.82 48.1235 171.957C48.2993 172.093 48.5117 172.191 48.7607 172.25C49.0098 172.308 49.2881 172.337 49.5957 172.337C49.9521 172.337 50.2402 172.289 50.46 172.191C50.6846 172.088 50.8506 171.949 50.958 171.773C51.0654 171.598 51.1191 171.402 51.1191 171.188ZM58.5239 174.146C57.894 174.146 57.3301 174.046 56.832 173.846C56.334 173.646 55.9116 173.37 55.5649 173.019C55.2231 172.662 54.9619 172.252 54.7812 171.788C54.6006 171.324 54.5103 170.829 54.5103 170.301V170.023C54.5103 169.432 54.5933 168.888 54.7593 168.39C54.9253 167.892 55.167 167.459 55.4844 167.093C55.8066 166.722 56.2021 166.437 56.6709 166.236C57.1396 166.031 57.6743 165.929 58.2749 165.929C58.8364 165.929 59.3369 166.021 59.7764 166.207C60.2158 166.388 60.5869 166.649 60.8896 166.991C61.1924 167.328 61.4219 167.735 61.5781 168.214C61.7393 168.688 61.8198 169.22 61.8198 169.811V170.748H55.4331V169.276H59.5786V169.1C59.5786 168.822 59.5273 168.578 59.4248 168.368C59.3271 168.158 59.1807 167.997 58.9854 167.884C58.7949 167.767 58.5532 167.708 58.2603 167.708C57.9819 167.708 57.75 167.767 57.5645 167.884C57.3789 168.001 57.23 168.167 57.1177 168.382C57.0103 168.592 56.9321 168.839 56.8833 169.122C56.8345 169.4 56.8101 169.701 56.8101 170.023V170.301C56.8101 170.609 56.8516 170.89 56.9346 171.144C57.0176 171.397 57.1396 171.615 57.3008 171.795C57.4619 171.976 57.6572 172.118 57.8867 172.22C58.1162 172.323 58.3774 172.374 58.6704 172.374C59.0317 172.374 59.376 172.306 59.7031 172.169C60.0303 172.027 60.3135 171.808 60.5527 171.51L61.6221 172.733C61.4609 172.967 61.2339 173.194 60.9409 173.414C60.6528 173.629 60.3062 173.805 59.9009 173.941C59.4956 174.078 59.0366 174.146 58.5239 174.146ZM65.2256 167.921V174H62.9404V166.075H65.0864L65.2256 167.921ZM67.5913 166.017L67.5547 168.148C67.457 168.133 67.3301 168.121 67.1738 168.111C67.0176 168.097 66.8833 168.089 66.771 168.089C66.478 168.089 66.2241 168.126 66.0093 168.199C65.7993 168.268 65.6235 168.37 65.4819 168.507C65.3452 168.644 65.2427 168.814 65.1743 169.02C65.106 169.22 65.0718 169.452 65.0718 169.715L64.6396 169.503C64.6396 168.98 64.6909 168.502 64.7935 168.067C64.896 167.633 65.0449 167.257 65.2402 166.939C65.4355 166.617 65.6748 166.368 65.958 166.192C66.2412 166.017 66.5635 165.929 66.9248 165.929C67.042 165.929 67.1616 165.936 67.2837 165.951C67.4058 165.965 67.5083 165.987 67.5913 166.017ZM71.4365 172.381L73.0918 166.075H75.4941L72.8647 174H71.4219L71.4365 172.381ZM70.3672 166.075L72.0151 172.389L72.0298 174H70.5869L67.9575 166.075H70.3672ZM78.7461 166.075V174H76.4536V166.075H78.7461ZM76.3145 164.024C76.3145 163.692 76.4316 163.421 76.666 163.211C76.9004 162.997 77.208 162.889 77.5889 162.889C77.9697 162.889 78.2773 162.997 78.5117 163.211C78.751 163.421 78.8706 163.692 78.8706 164.024C78.8706 164.352 78.751 164.623 78.5117 164.837C78.2773 165.047 77.9697 165.152 77.5889 165.152C77.208 165.152 76.9004 165.047 76.666 164.837C76.4316 164.623 76.3145 164.352 76.3145 164.024ZM83.7046 172.367C83.9487 172.367 84.1611 172.32 84.3418 172.228C84.5225 172.135 84.6616 172.005 84.7593 171.839C84.8618 171.668 84.9131 171.463 84.9131 171.224H87.0664C87.0664 171.8 86.9175 172.308 86.6196 172.748C86.3267 173.187 85.9312 173.531 85.4331 173.78C84.9351 174.024 84.3735 174.146 83.7485 174.146C83.1333 174.146 82.5962 174.046 82.1372 173.846C81.6782 173.641 81.2949 173.355 80.9873 172.989C80.6797 172.623 80.4478 172.198 80.2915 171.715C80.1401 171.227 80.0645 170.699 80.0645 170.133V169.942C80.0645 169.381 80.1401 168.856 80.2915 168.368C80.4478 167.879 80.6797 167.452 80.9873 167.086C81.2949 166.72 81.6758 166.437 82.1299 166.236C82.5889 166.031 83.126 165.929 83.7412 165.929C84.3906 165.929 84.9644 166.053 85.4624 166.302C85.9653 166.551 86.3584 166.91 86.6416 167.379C86.9248 167.843 87.0664 168.402 87.0664 169.056H84.9131C84.9131 168.802 84.8667 168.575 84.7739 168.375C84.686 168.17 84.5493 168.009 84.3638 167.892C84.1831 167.77 83.9585 167.708 83.6899 167.708C83.4116 167.708 83.1821 167.77 83.0015 167.892C82.8257 168.009 82.6914 168.172 82.5986 168.382C82.5059 168.592 82.4424 168.832 82.4082 169.1C82.374 169.364 82.3569 169.645 82.3569 169.942V170.133C82.3569 170.436 82.374 170.724 82.4082 170.997C82.4424 171.266 82.5059 171.502 82.5986 171.708C82.6963 171.913 82.833 172.074 83.0088 172.191C83.1846 172.308 83.4165 172.367 83.7046 172.367ZM91.937 174.146C91.3071 174.146 90.7432 174.046 90.2451 173.846C89.7471 173.646 89.3247 173.37 88.978 173.019C88.6362 172.662 88.375 172.252 88.1943 171.788C88.0137 171.324 87.9233 170.829 87.9233 170.301V170.023C87.9233 169.432 88.0063 168.888 88.1724 168.39C88.3384 167.892 88.5801 167.459 88.8975 167.093C89.2197 166.722 89.6152 166.437 90.084 166.236C90.5527 166.031 91.0874 165.929 91.688 165.929C92.2495 165.929 92.75 166.021 93.1895 166.207C93.6289 166.388 94 166.649 94.3027 166.991C94.6055 167.328 94.835 167.735 94.9912 168.214C95.1523 168.688 95.2329 169.22 95.2329 169.811V170.748H88.8462V169.276H92.9917V169.1C92.9917 168.822 92.9404 168.578 92.8379 168.368C92.7402 168.158 92.5938 167.997 92.3984 167.884C92.208 167.767 91.9663 167.708 91.6733 167.708C91.395 167.708 91.1631 167.767 90.9775 167.884C90.792 168.001 90.6431 168.167 90.5308 168.382C90.4233 168.592 90.3452 168.839 90.2964 169.122C90.2476 169.4 90.2231 169.701 90.2231 170.023V170.301C90.2231 170.609 90.2646 170.89 90.3477 171.144C90.4307 171.397 90.5527 171.615 90.7139 171.795C90.875 171.976 91.0703 172.118 91.2998 172.22C91.5293 172.323 91.7905 172.374 92.0835 172.374C92.4448 172.374 92.7891 172.306 93.1162 172.169C93.4434 172.027 93.7266 171.808 93.9658 171.51L95.0352 172.733C94.874 172.967 94.647 173.194 94.354 173.414C94.0659 173.629 93.7192 173.805 93.314 173.941C92.9087 174.078 92.4497 174.146 91.937 174.146ZM100.565 171.795C100.565 171.649 100.519 171.52 100.426 171.407C100.338 171.295 100.177 171.192 99.9424 171.1C99.7129 171.007 99.3882 170.914 98.9683 170.821C98.5728 170.738 98.2041 170.631 97.8623 170.499C97.5205 170.362 97.2227 170.199 96.9688 170.008C96.7148 169.813 96.5171 169.583 96.3755 169.32C96.2339 169.051 96.1631 168.746 96.1631 168.404C96.1631 168.072 96.2339 167.757 96.3755 167.459C96.522 167.162 96.7319 166.898 97.0054 166.668C97.2837 166.439 97.6206 166.258 98.0161 166.126C98.4165 165.995 98.8706 165.929 99.3784 165.929C100.077 165.929 100.68 166.039 101.188 166.258C101.695 166.473 102.086 166.776 102.359 167.167C102.633 167.552 102.77 167.994 102.77 168.492H100.484C100.484 168.287 100.445 168.109 100.367 167.958C100.289 167.806 100.169 167.689 100.008 167.606C99.8472 167.518 99.6348 167.474 99.3711 167.474C99.166 167.474 98.9854 167.511 98.8291 167.584C98.6777 167.652 98.5581 167.748 98.4702 167.87C98.3872 167.992 98.3457 168.133 98.3457 168.294C98.3457 168.407 98.3701 168.509 98.4189 168.602C98.4727 168.69 98.5532 168.773 98.6606 168.851C98.7729 168.924 98.917 168.99 99.0928 169.049C99.2734 169.107 99.4932 169.164 99.752 169.217C100.304 169.32 100.807 169.464 101.261 169.649C101.72 169.835 102.086 170.091 102.359 170.418C102.638 170.746 102.777 171.178 102.777 171.715C102.777 172.066 102.696 172.389 102.535 172.682C102.379 172.975 102.152 173.231 101.854 173.451C101.556 173.67 101.2 173.841 100.785 173.963C100.37 174.085 99.9009 174.146 99.3784 174.146C98.6313 174.146 97.999 174.012 97.4814 173.744C96.9639 173.475 96.5732 173.138 96.3096 172.733C96.0508 172.323 95.9214 171.903 95.9214 171.473H98.0674C98.0771 171.737 98.1431 171.952 98.2651 172.118C98.3921 172.284 98.5557 172.406 98.7559 172.484C98.9561 172.557 99.1807 172.594 99.4297 172.594C99.6787 172.594 99.8862 172.56 100.052 172.491C100.218 172.423 100.345 172.33 100.433 172.213C100.521 172.091 100.565 171.952 100.565 171.795Z" fill="#455A64"/>
<path d="M32.0836 62.4336C32.0836 62.4336 27.7768 24.6587 66.5349 23.81C105.293 22.9613 101.192 62.0093 99.5497 67.3149C97.9076 72.6206 90.1112 87.9815 89.2915 94.9898C88.4718 101.998 89.5551 123.05 90.0822 129.931H50.1829L50.3332 109.128C50.3332 109.128 35.7736 111.463 33.1089 104.884C30.4442 98.3055 30.6392 85.5645 30.6392 85.5645C30.6392 85.5645 22.6425 85.5646 22.0257 84.2915C21.409 83.0185 32.0836 62.4336 32.0836 62.4336Z" fill="#32959D"/>
<path d="M32.0836 62.4336C32.0836 62.4336 27.7768 24.6587 66.5349 23.81C105.293 22.9613 101.192 62.0093 99.5497 67.3149C97.9076 72.6206 90.1112 87.9815 89.2915 94.9898C88.4718 101.998 89.5551 123.05 90.0822 129.931H50.1829L50.3332 109.128C50.3332 109.128 35.7736 111.463 33.1089 104.884C30.4442 98.3055 30.6392 85.5645 30.6392 85.5645C30.6392 85.5645 22.6425 85.5646 22.0257 84.2915C21.409 83.0185 32.0836 62.4336 32.0836 62.4336Z" fill="#32959D"/>
<g opacity="0.7">
<path d="M32.0836 62.4336C32.0836 62.4336 27.7768 24.6587 66.5349 23.81C105.293 22.9613 101.192 62.0093 99.5497 67.3149C97.9076 72.6206 90.1112 87.9815 89.2915 94.9898C88.4718 101.998 89.5551 123.05 90.0822 129.931H50.1829L50.3332 109.128C50.3332 109.128 35.7736 111.463 33.1089 104.884C30.4442 98.3055 30.6392 85.5645 30.6392 85.5645C30.6392 85.5645 22.6425 85.5646 22.0257 84.2915C21.409 83.0185 32.0836 62.4336 32.0836 62.4336Z" fill="white"/>
</g>
<path d="M52.3996 39.2237C50.1804 38.6702 47.2495 37.5078 44.8642 39.6428C43.6465 40.7339 42.9638 43.1456 42.8821 44.8035C41.6913 44.8891 40.5348 45.24 39.4972 45.8306C38.4597 46.4212 37.5674 47.2365 36.8859 48.2167C36.1561 49.2104 35.7611 50.4103 35.7578 51.6431C35.8 52.8714 36.4194 54.1154 37.4763 54.6979C36.9018 55.5512 36.5696 56.5444 36.5153 57.5717C36.461 58.5989 36.6866 59.6216 37.1679 60.5307C37.6629 61.4156 38.3972 62.143 39.2867 62.6297C40.1761 63.1164 41.1847 63.3426 42.1968 63.2824C42.0387 64.3448 42.1488 65.43 42.5171 66.439C42.8854 67.4481 43.5001 68.349 44.3054 69.0599C45.1126 69.7408 46.0832 70.1997 47.1217 70.3915C48.1601 70.5833 49.2307 70.5013 50.2278 70.1537C52.1493 72.9976 56.5535 73.6196 59.147 71.4135C59.4712 71.15 59.7928 70.8152 60.2013 70.7414C60.5648 70.7151 60.9287 70.786 61.2556 70.947C62.9899 71.6139 64.8428 72.1937 66.6693 71.8906C68.4959 71.5875 70.2723 70.1484 70.3989 68.2533C72.3954 69.3408 74.6303 69.9167 76.9038 69.9296C79.5026 69.9296 82.531 68.7515 83.0845 66.15C83.8525 66.7467 84.7756 67.1103 85.7441 67.1976C86.7127 67.285 87.686 67.0925 88.5483 66.6429C89.407 66.1584 90.1149 65.4457 90.5936 64.5837C91.0723 63.7217 91.3031 62.744 91.2604 61.759C93.4639 62.1859 95.3405 59.935 95.9283 57.7184C96.5002 55.5624 96.3421 53.1428 95.1771 51.2557C94.0121 49.3685 91.7639 48.1429 89.6184 48.5409C90.1816 47.706 90.5145 46.7373 90.5835 45.7326C90.6524 44.7279 90.455 43.7228 90.0111 42.8188C89.5545 41.9347 88.8646 41.1925 88.0163 40.6726C87.1679 40.1527 86.1933 39.8749 85.1983 39.8694C84.9557 39.0853 84.5258 38.372 83.9458 37.7911C83.3658 37.2102 82.6532 36.7792 81.8694 36.5353C81.0879 36.3144 80.2637 36.2912 79.471 36.4679C78.6783 36.6446 77.9419 37.0155 77.3281 37.5474C76.6605 36.4296 75.746 35.4794 74.6546 34.7694C73.5632 34.0595 72.3239 33.6087 71.0314 33.4515C69.7409 33.3232 68.4381 33.4943 67.2245 33.9515C66.0108 34.4086 64.9189 35.1394 64.0336 36.0872C62.273 34.5374 59.0891 33.6887 56.8803 34.4214C55.7834 34.7672 54.7945 35.3905 54.0094 36.231C53.2244 37.0714 52.6699 38.1005 52.3996 39.2184" fill="#32959D"/>
<g opacity="0.3">
<path d="M52.3996 39.2237C50.1804 38.6702 47.2495 37.5078 44.8642 39.6428C43.6465 40.7339 42.9638 43.1456 42.8821 44.8035C41.6913 44.8891 40.5348 45.24 39.4972 45.8306C38.4597 46.4212 37.5674 47.2365 36.8859 48.2167C36.1561 49.2104 35.7611 50.4103 35.7578 51.6431C35.8 52.8714 36.4194 54.1154 37.4763 54.6979C36.9018 55.5512 36.5696 56.5444 36.5153 57.5717C36.461 58.5989 36.6866 59.6216 37.1679 60.5307C37.6629 61.4156 38.3972 62.143 39.2867 62.6297C40.1761 63.1164 41.1847 63.3426 42.1968 63.2824C42.0387 64.3448 42.1488 65.43 42.5171 66.439C42.8854 67.4481 43.5001 68.349 44.3054 69.0599C45.1126 69.7408 46.0832 70.1997 47.1217 70.3915C48.1601 70.5833 49.2307 70.5013 50.2278 70.1537C52.1493 72.9976 56.5535 73.6196 59.147 71.4135C59.4712 71.15 59.7928 70.8152 60.2013 70.7414C60.5648 70.7151 60.9287 70.786 61.2556 70.947C62.9899 71.6139 64.8428 72.1937 66.6693 71.8906C68.4959 71.5875 70.2723 70.1484 70.3989 68.2533C72.3954 69.3408 74.6303 69.9167 76.9038 69.9296C79.5026 69.9296 82.531 68.7515 83.0845 66.15C83.8525 66.7467 84.7756 67.1103 85.7441 67.1976C86.7127 67.285 87.686 67.0925 88.5483 66.6429C89.407 66.1584 90.1149 65.4457 90.5936 64.5837C91.0723 63.7217 91.3031 62.744 91.2604 61.759C93.4639 62.1859 95.3405 59.935 95.9283 57.7184C96.5002 55.5624 96.3421 53.1428 95.1771 51.2557C94.0121 49.3685 91.7639 48.1429 89.6184 48.5409C90.1816 47.706 90.5145 46.7373 90.5835 45.7326C90.6524 44.7279 90.455 43.7228 90.0111 42.8188C89.5545 41.9347 88.8646 41.1925 88.0163 40.6726C87.1679 40.1527 86.1933 39.8749 85.1983 39.8694C84.9557 39.0853 84.5258 38.372 83.9458 37.7911C83.3658 37.2102 82.6532 36.7792 81.8694 36.5353C81.0879 36.3144 80.2637 36.2912 79.471 36.4679C78.6783 36.6446 77.9419 37.0155 77.3281 37.5474C76.6605 36.4296 75.746 35.4794 74.6546 34.7694C73.5632 34.0595 72.3239 33.6087 71.0314 33.4515C69.7409 33.3232 68.4381 33.4943 67.2245 33.9515C66.0108 34.4086 64.9189 35.1394 64.0336 36.0872C62.273 34.5374 59.0891 33.6887 56.8803 34.4214C55.7834 34.7672 54.7945 35.3905 54.0094 36.231C53.2244 37.0714 52.6699 38.1005 52.3996 39.2184" fill="white"/>
</g>
<path d="M50.4785 44.0548C50.2526 44.0404 50.0257 44.0554 49.8037 44.0996C49.1902 44.2498 48.6474 44.6073 48.2671 45.1117C47.7637 45.7442 47.458 46.6931 47.3446 47.7869C47.2692 48.3605 47.2639 48.9411 47.3288 49.5159C47.3863 50.1426 47.6473 50.7332 48.0721 51.1975L48.1643 51.2924L48.0325 51.3135C46.8369 51.5267 45.7566 52.1594 44.9857 53.0979C44.6078 53.5521 44.3134 54.0697 44.1159 54.6266C43.859 55.382 43.7731 56.1849 43.8642 56.9776C43.9554 57.7702 44.2214 58.5327 44.643 59.2101L44.6905 59.2839L44.6061 59.3023C44.179 59.4157 43.7891 59.6393 43.4754 59.9507C43.1937 60.2267 42.9595 60.5473 42.7822 60.8995C42.5037 61.4837 42.3323 62.113 42.2762 62.7577C42.2155 63.2849 42.2076 63.7171 42.1971 64.007C42.1971 64.1415 42.1971 64.2522 42.1971 64.3365C42.2032 64.374 42.2032 64.4123 42.1971 64.4498C42.1937 64.4121 42.1937 64.3742 42.1971 64.3365C42.1971 64.2495 42.1971 64.1415 42.1971 64.0044C42.1897 63.5857 42.2046 63.1669 42.2419 62.7498C42.2872 62.0936 42.4525 61.4513 42.7295 60.8547C42.9084 60.4891 43.1471 60.1559 43.4359 59.869C43.7593 59.5463 44.162 59.3145 44.6035 59.1969L44.5666 59.2891C44.1321 58.5961 43.8574 57.815 43.7626 57.0026C43.6677 56.1901 43.7551 55.3667 44.0184 54.5923C44.2202 54.0164 44.5227 53.4809 44.9119 53.0109C45.7029 52.0404 46.8158 51.3858 48.0484 51.1659L48.0115 51.2845C47.5685 50.7975 47.2965 50.1794 47.2366 49.5238C47.1736 48.9381 47.1825 48.3468 47.2629 47.7632C47.3868 46.6615 47.711 45.6889 48.2355 45.0484C48.6291 44.5387 49.1885 44.1826 49.8169 44.0416C50.0358 43.9984 50.2615 44.0029 50.4785 44.0548Z" fill="#32959D"/>
<path d="M56.0212 60.4566C55.8953 60.5292 55.7629 60.59 55.6259 60.6385C55.2605 60.7905 54.8875 60.9233 54.5083 61.0365C53.9432 61.2131 53.3527 61.295 52.7609 61.279C52.408 61.2644 52.0599 61.1922 51.7303 61.0655C51.3782 60.9269 51.05 60.7339 50.7577 60.4935C50.1598 60.0703 49.688 59.4928 49.3924 58.8225C49.1828 58.2609 49.1362 57.6514 49.258 57.0645C49.334 56.671 49.4892 56.2971 49.714 55.9654C49.7746 55.8765 49.8425 55.7927 49.9169 55.715C49.9697 55.6596 49.996 55.6333 50.0013 55.6359C50.0066 55.6386 49.9064 55.7598 49.7614 55.997C49.5145 56.4119 49.3642 56.8771 49.3218 57.358C49.2793 57.839 49.3458 58.3233 49.5163 58.775C49.8063 59.417 50.261 59.9707 50.8342 60.3802C51.3742 60.8363 52.0473 61.1054 52.753 61.1472C53.3325 61.1686 53.9117 61.0974 54.4688 60.9363C54.9485 60.8098 55.328 60.6728 55.5916 60.5858C55.7309 60.5307 55.8747 60.4875 56.0212 60.4566Z" fill="#32959D"/>
<path d="M80.1141 55.5913C80.1176 55.6158 80.1176 55.6406 80.1141 55.6651C80.1141 55.7205 80.0957 55.7943 80.0799 55.8865C80.0482 56.0789 80.0008 56.3662 79.927 56.7352C79.8415 57.1885 79.7297 57.6364 79.5923 58.0768C79.4108 58.6719 79.1387 59.2355 78.7857 59.7478C78.341 60.3733 77.7777 60.9052 77.1279 61.3134C76.3841 61.81 75.5562 62.1672 74.6846 62.3677C74.2059 62.4777 73.7153 62.5264 73.2244 62.5127C72.7079 62.487 72.1959 62.4031 71.6983 62.2623C70.6412 61.9531 69.6402 61.4771 68.7332 60.8522L68.8386 60.8074C68.6514 61.9065 68.4564 63.0899 67.8792 64.1784C67.7287 64.4497 67.5522 64.7057 67.352 64.9428C67.1459 65.1804 66.9123 65.3927 66.6562 65.5753C66.1242 65.9228 65.5284 66.1611 64.9035 66.2764C63.8405 66.482 62.7436 66.4278 61.7061 66.1185C60.6686 65.8093 59.7211 65.254 58.9442 64.5L59.0601 64.4604C58.9703 65.0528 58.7175 65.6086 58.33 66.0656C57.9642 66.5108 57.5054 66.8706 56.9858 67.1199C56.0045 67.5498 54.9069 67.6362 53.8704 67.365C52.9551 67.1441 52.0885 66.7563 51.3138 66.2211C50.6308 65.772 50.0738 65.156 49.6955 64.4315C49.5384 64.1177 49.4342 63.7802 49.3871 63.4325C49.3507 63.1243 49.3614 62.8124 49.4187 62.5074C49.5066 62.021 49.7211 61.5665 50.0407 61.1895C50.2424 60.9576 50.4962 60.777 50.7814 60.6624C50.8792 60.6225 50.9807 60.5925 51.0845 60.5728C51.0845 60.5728 50.9791 60.6044 50.7893 60.6861C50.5139 60.8048 50.2696 60.9851 50.075 61.2133C49.7702 61.5897 49.5669 62.038 49.4846 62.5153C49.3713 63.1537 49.4723 63.8116 49.7719 64.3866C50.146 65.0884 50.6897 65.6855 51.3533 66.1236C52.1192 66.6456 52.9741 67.0235 53.8757 67.2385C54.8863 67.4962 55.954 67.409 56.9094 66.9907C57.4082 66.7509 57.8495 66.4067 58.2035 65.9812C58.575 65.5421 58.8169 65.0082 58.902 64.4394L58.9231 64.3049L59.0206 64.3998C59.7571 65.1206 60.6554 65.6547 61.6405 65.9575C62.68 66.283 63.7844 66.3437 64.8534 66.1341C65.4637 66.0225 66.0454 65.7895 66.564 65.4488C66.8107 65.2744 67.0355 65.0709 67.2334 64.8426C67.4256 64.6126 67.595 64.3646 67.7395 64.102C68.3035 63.0477 68.4986 61.8722 68.6884 60.7784L68.7042 60.6729L68.7911 60.7309C69.686 61.3502 70.6735 61.8235 71.7168 62.1331C72.2039 62.2723 72.7053 62.3554 73.2112 62.3809C73.692 62.3968 74.1729 62.3516 74.6424 62.2465C75.5023 62.0527 76.3202 61.7054 77.0567 61.2212C77.6999 60.8233 78.2587 60.303 78.7014 59.6898C79.0545 59.1873 79.3282 58.6335 79.5132 58.0478C79.6561 57.6112 79.7741 57.1668 79.8664 56.7168C79.9481 56.3504 80.0034 56.0657 80.043 55.8733L80.0878 55.6572C80.0941 55.6343 80.103 55.6123 80.1141 55.5913Z" fill="#32959D"/>
<path d="M81.4477 47.2704C81.5078 47.2686 81.568 47.2739 81.6269 47.2862C81.6849 47.2862 81.7587 47.2993 81.843 47.3152L82.1356 47.3863C82.7504 47.5632 83.3201 47.8697 83.8066 48.2851C84.5305 48.8993 85.1131 49.6626 85.5146 50.5228C85.7521 51.0307 85.9401 51.5603 86.076 52.1042C86.1506 52.3937 86.1904 52.691 86.1946 52.9898C86.1842 53.2942 86.1569 53.5978 86.1129 53.8991C86.0336 54.4992 85.8414 55.0787 85.5462 55.6071C85.2586 56.0925 84.8768 56.5154 84.4234 56.8511C83.6688 57.4256 82.8093 57.8473 81.8931 58.0926C81.2748 58.2415 80.6388 58.3045 80.0033 58.2797C79.7793 58.2797 79.6053 58.2586 79.4762 58.2481C79.4165 58.2457 79.3573 58.2368 79.2996 58.2217C79.3591 58.2153 79.4192 58.2153 79.4788 58.2217C79.5974 58.2217 79.7687 58.2217 80.0059 58.2217C81.5803 58.248 83.1149 57.7262 84.3469 56.7457C84.7828 56.4181 85.15 56.0079 85.4276 55.5386C85.7115 55.024 85.8966 54.4608 85.9732 53.8781C86.2367 52.6735 85.815 51.5376 85.3959 50.5861C85.0069 49.7393 84.4438 48.984 83.7434 48.3694C83.2708 47.9557 82.7194 47.6419 82.1224 47.4469L81.8377 47.3652L81.6243 47.3204C81.5639 47.3095 81.5047 47.2928 81.4477 47.2704Z" fill="#32959D"/>
<path d="M90.6386 51.4189C90.7074 51.5169 90.7615 51.6243 90.7994 51.7379C90.9148 52.0436 90.9815 52.3656 90.9971 52.692C91.0223 53.1792 90.9469 53.6664 90.7757 54.1232C90.5741 54.6895 90.2202 55.1893 89.753 55.5675C89.5099 55.7583 89.2444 55.9185 88.9623 56.0446C88.7018 56.1681 88.4262 56.2568 88.1426 56.3082C87.6604 56.4015 87.1619 56.3614 86.7009 56.1922C86.3944 56.0745 86.1154 55.8951 85.8812 55.6651C85.8176 55.6036 85.7586 55.5375 85.7046 55.4674C85.6833 55.4447 85.6655 55.4189 85.6519 55.3909C85.746 55.4608 85.8342 55.5384 85.9154 55.6229C86.1562 55.8308 86.4331 55.9925 86.7325 56.1C87.1776 56.2483 87.6541 56.2765 88.1136 56.1817C88.3876 56.1291 88.6535 56.0404 88.9043 55.9181C89.1754 55.7962 89.4303 55.6413 89.6634 55.4568C90.1102 55.0935 90.4523 54.6177 90.6544 54.0784C90.8247 53.6392 90.9062 53.1707 90.8943 52.6999C90.8752 52.2623 90.7889 51.8303 90.6386 51.4189Z" fill="#32959D"/>
<path d="M85.6516 40.0169C85.4852 39.9767 85.3161 39.9486 85.1456 39.9326C84.9374 39.9216 84.7287 39.9349 84.5236 39.9721C84.2431 40.0326 83.9726 40.132 83.7197 40.2673C83.0195 40.6496 82.4564 41.2413 82.1092 41.9595C81.6717 42.7871 81.424 43.8413 81.1973 45.0116L81.1762 45.1249L81.1156 45.0274C80.5355 44.1225 79.7393 43.3761 78.7988 42.8556C77.7239 42.244 76.4885 41.9737 75.2564 42.0807C73.8852 42.2086 72.5915 42.7741 71.5664 43.6937C71.0127 44.17 70.5639 44.7561 70.2486 45.4149C69.9065 46.0885 69.8258 46.8649 70.0219 47.5946L70.1484 48.0031L69.9007 47.6552C69.3488 46.9114 68.6261 46.3114 67.7934 45.9058C66.9608 45.5003 66.0427 45.3011 65.1169 45.3252C64.9032 45.3331 64.6901 45.3543 64.479 45.3885C64.0527 45.4526 63.6363 45.5713 63.2403 45.7417C62.8413 45.9206 62.4645 46.1453 62.1174 46.4112C61.7729 46.6876 61.4592 47.0004 61.1818 47.3442C60.6819 47.9762 60.3079 48.6983 60.08 49.4712C59.8654 50.2282 59.8062 51.0207 59.9061 51.8012L59.9219 51.9145L59.8138 51.8776C58.9449 51.5666 58.0159 51.4601 57.0991 51.5666C56.2139 51.6794 55.3957 52.0969 54.7849 52.7474C54.4998 53.064 54.2807 53.4343 54.1404 53.8367C54.0001 54.239 53.9414 54.6653 53.9678 55.0905C54.0056 55.9166 54.331 56.7035 54.8877 57.3151C55.4116 57.8991 56.0982 58.3131 56.8592 58.5038C57.5822 58.6698 58.3281 58.7126 59.0653 58.6303C59.7586 58.5774 60.4365 58.3988 61.0658 58.1031C61.6483 57.8278 62.1342 57.3833 62.4601 56.8275L62.4943 56.7668L62.5418 56.8195C63.0047 57.3262 63.6057 57.6862 64.2708 57.8554C64.8611 58.0103 65.4824 58.0021 66.0684 57.8317C66.5756 57.6828 67.0318 57.3963 67.3862 57.004C67.6829 56.6708 67.9104 56.282 68.0557 55.8602C68.2655 55.2789 68.3049 54.6497 68.169 54.0468C68.1133 53.8391 68.0428 53.6356 67.9582 53.4379L68.032 53.5855C68.102 53.7306 68.1568 53.8825 68.1954 54.0389C68.3464 54.6493 68.3161 55.2904 68.1084 55.8839C67.9633 56.3135 67.7349 56.7102 67.4363 57.0515C67.0745 57.4576 66.6075 57.7559 66.0868 57.9134C65.4863 58.0916 64.8486 58.1034 64.2418 57.9476C63.5589 57.7766 62.9407 57.4102 62.4627 56.8933H62.5418C62.2074 57.467 61.7077 57.9263 61.108 58.2112C60.4688 58.5201 59.7781 58.7087 59.0706 58.7673C58.3195 58.8528 57.5594 58.8109 56.8223 58.6435C56.0378 58.4481 55.3293 58.0232 54.7876 57.4231C54.212 56.7922 53.8746 55.9804 53.8334 55.1274C53.8058 54.6848 53.8663 54.2412 54.0115 53.8222C54.1568 53.4032 54.3838 53.0173 54.6795 52.6868C55.3125 52.0122 56.1605 51.5789 57.078 51.4612C58.0158 51.3497 58.9667 51.457 59.856 51.7748L59.7611 51.8539C59.659 51.0531 59.7199 50.2399 59.9404 49.4633C60.1722 48.6715 60.5553 47.9322 61.0684 47.2862C61.3524 46.9333 61.6741 46.6124 62.0278 46.3295C62.3836 46.0559 62.7701 45.825 63.1796 45.6415C63.5875 45.4661 64.0163 45.3439 64.4553 45.2778C64.6717 45.2436 64.89 45.2224 65.109 45.2145C65.3261 45.2088 65.5435 45.215 65.76 45.233C66.5978 45.297 67.4116 45.5422 68.1452 45.9518C68.8788 46.3614 69.5147 46.9255 70.0087 47.6051L69.8875 47.6631C69.6832 46.9016 69.7676 46.0915 70.1247 45.3885C70.4521 44.7068 70.918 44.1009 71.4926 43.6094C72.5401 42.6748 73.8608 42.1027 75.2591 41.9779C76.5134 41.8685 77.7712 42.1444 78.8647 42.7686C79.8173 43.3011 80.6218 44.063 81.2052 44.9852L81.1235 44.9984C81.3528 43.8282 81.6085 42.766 82.0592 41.9305C82.4186 41.2051 82.9954 40.6098 83.7091 40.2278C83.9669 40.0932 84.2431 39.9972 84.5288 39.9431C84.7374 39.9054 84.9501 39.8947 85.1614 39.9115C85.2899 39.9232 85.417 39.947 85.5409 39.9827C85.6121 40.0011 85.6516 40.0169 85.6516 40.0169Z" fill="#32959D"/>
<path d="M79.6633 51.2739C79.6644 51.42 79.6502 51.5657 79.6211 51.7088C79.5675 52.1047 79.4838 52.4959 79.3708 52.8791C79.2138 53.4603 78.9001 53.9873 78.4641 54.4025C77.8848 54.8594 77.1832 55.1346 76.4478 55.1932C75.7171 55.2902 74.9738 55.1872 74.297 54.8954C73.7468 54.6495 73.2753 54.2564 72.9344 53.7594C72.7033 53.4289 72.5444 53.0536 72.4678 52.6577C72.446 52.5509 72.4336 52.4424 72.4309 52.3335C72.4237 52.2952 72.4237 52.2558 72.4309 52.2175C72.4309 52.2175 72.452 52.373 72.5153 52.6445C72.6131 53.0238 72.7812 53.3814 73.0108 53.6988C73.3518 54.1688 73.8122 54.5392 74.3445 54.7715C75.0031 55.0416 75.7215 55.1325 76.4267 55.0351C77.1343 54.9754 77.8097 54.7127 78.3718 54.2786C78.7946 53.8805 79.1047 53.3777 79.2706 52.8211C79.3899 52.445 79.4867 52.0621 79.5605 51.6746C79.5861 51.5389 79.6205 51.4051 79.6633 51.2739Z" fill="#32959D"/>
<path d="M77.8026 37.2837C77.702 37.3394 77.5971 37.387 77.489 37.426C77.2834 37.513 76.9855 37.6421 76.6192 37.8214C76.1753 38.017 75.7603 38.2724 75.3857 38.5805C75.1688 38.7712 75.006 39.0157 74.9139 39.2895C74.8605 39.4349 74.8376 39.5897 74.8467 39.7443C74.8557 39.899 74.8966 40.0501 74.9666 40.1882L74.8533 40.262C74.4078 39.6426 73.6408 39.2078 72.8 38.9837C71.9144 38.7274 70.9935 38.6135 70.0721 38.6463C69.3219 38.7007 68.5996 38.9536 67.9793 39.3791C67.559 39.6676 67.1893 40.0239 66.8855 40.4334C66.672 40.7233 66.5771 40.8999 66.564 40.892C66.5809 40.8466 66.6011 40.8025 66.6246 40.7602C66.6881 40.6358 66.7603 40.516 66.8407 40.4017C67.2048 39.8696 67.6827 39.4252 68.2397 39.1006C68.7968 38.776 69.4191 38.5794 70.0615 38.5251C70.5135 38.4928 70.9677 38.5087 71.4163 38.5726C71.8971 38.6323 72.3728 38.7275 72.8396 38.8572C73.6962 39.0944 74.4974 39.5372 74.964 40.1909L74.8506 40.2647C74.7726 40.1102 74.7274 39.9412 74.7179 39.7684C74.7084 39.5955 74.7347 39.4226 74.7953 39.2605C74.8993 38.9667 75.0816 38.707 75.3224 38.5093C75.7081 38.1986 76.137 37.9455 76.5954 37.7581C76.9697 37.5868 77.2755 37.4682 77.4863 37.3944C77.5885 37.3488 77.6943 37.3117 77.8026 37.2837Z" fill="#32959D"/>
<path d="M53.9967 47.8055C53.8532 47.6403 53.7351 47.4546 53.6462 47.2547C53.433 46.7831 53.3307 46.269 53.3472 45.7518C53.3636 45.2346 53.4984 44.7281 53.7411 44.271C53.9799 43.8402 54.3246 43.4774 54.7426 43.2168C55.2116 42.9232 55.7478 42.7545 56.3003 42.7265C56.9024 42.6898 57.5018 42.8339 58.0214 43.1403L57.9265 43.2405C57.6179 42.7792 57.4253 42.2503 57.3651 41.6986C57.2155 40.3559 57.5758 39.0059 58.3746 37.9164C59.0154 37.022 59.9471 36.3782 61.0103 36.0951C61.7201 35.9013 62.4664 35.8832 63.1848 36.0424C63.3789 36.084 63.5693 36.1413 63.7541 36.2137C63.8192 36.2365 63.8818 36.2656 63.9412 36.3007C63.9412 36.3165 63.6777 36.1952 63.1742 36.0977C62.2926 35.9325 61.3821 36.0234 60.5506 36.3597C59.7191 36.6961 59.0015 37.2637 58.4827 37.9954C57.7114 39.0619 57.3647 40.3773 57.5101 41.6854C57.5647 42.2142 57.7455 42.7222 58.0372 43.1667L58.2191 43.4303L57.9555 43.2642C57.4595 42.972 56.8883 42.8327 56.3135 42.8636C55.7825 42.8874 55.2664 43.0462 54.8138 43.3248C54.4095 43.5763 54.0757 43.9264 53.8438 44.3422C53.6444 44.7029 53.5156 45.0983 53.4643 45.5072C53.3871 46.0982 53.4671 46.6991 53.6962 47.2494C53.8597 47.6157 54.0099 47.7976 53.9967 47.8055Z" fill="#32959D"/>
<path d="M40.784 51.2373C40.784 51.2373 40.8104 51.2373 40.8631 51.2373C40.941 51.248 41.0166 51.2712 41.0871 51.3058C41.3532 51.4279 41.573 51.632 41.7144 51.8883C41.8245 52.0758 41.8963 52.2831 41.9257 52.4985C41.9551 52.7138 41.9415 52.9328 41.8857 53.1429C41.7403 53.6554 41.417 54.0993 40.9738 54.3949C40.5325 54.6809 40.0291 54.8571 39.5057 54.9088C39.0856 54.9616 38.6606 54.9616 38.2406 54.9088C37.9544 54.8714 37.6794 54.7735 37.434 54.6215C37.3432 54.5678 37.2636 54.4971 37.1995 54.4133C37.5115 54.6323 37.8745 54.7675 38.2537 54.806C38.6657 54.8434 39.0806 54.8319 39.4899 54.7718C39.9892 54.7151 40.4689 54.5447 40.8921 54.2736C41.3081 53.996 41.6147 53.5822 41.7592 53.1034C41.8668 52.7105 41.8186 52.2913 41.6248 51.9331C41.4996 51.6876 41.3042 51.4848 41.0634 51.3506C40.8921 51.2689 40.7787 51.2531 40.784 51.2373Z" fill="#32959D"/>
<path d="M50.9867 71.1049C50.9095 71.0664 50.8385 71.0167 50.7759 70.9573C50.5977 70.8015 50.4393 70.6244 50.3041 70.4301C49.85 69.7999 49.5675 69.0623 49.4844 68.2899C49.4337 67.8661 49.4462 67.4371 49.5213 67.0169C49.5846 66.6754 49.6909 66.3433 49.8376 66.0285C49.9435 65.7245 50.1249 65.4525 50.3647 65.2378C50.3233 65.3116 50.2775 65.3829 50.2277 65.4513C50.1109 65.6474 50.0104 65.8528 49.9272 66.0654C49.7958 66.3776 49.7011 66.7039 49.6452 67.038C49.5813 67.4462 49.5733 67.8612 49.6215 68.2715C49.7025 69.0249 49.9627 69.7479 50.3805 70.3801C50.5649 70.6359 50.7675 70.8782 50.9867 71.1049Z" fill="#32959D"/>
<path d="M60.4044 67.7393C60.4974 67.9014 60.5566 68.0807 60.5783 68.2664C60.6528 68.7215 60.6276 69.1873 60.5045 69.6317C60.3825 70.0763 60.1638 70.4885 59.864 70.8388C59.7493 70.9915 59.6027 71.1174 59.4344 71.2078C59.4186 71.1894 59.5794 71.0471 59.785 70.7756C60.0503 70.4216 60.247 70.0211 60.3648 69.5948C60.4817 69.1659 60.5201 68.7195 60.4782 68.2769C60.4441 68.0991 60.4194 67.9197 60.4044 67.7393Z" fill="#32959D"/>
<path d="M70.7203 64.5317C70.7701 64.6136 70.8074 64.7024 70.831 64.7953C70.9148 65.034 70.9791 65.279 71.0234 65.528C71.171 66.3536 71.1332 67.2017 70.9127 68.0109C70.6889 68.82 70.2833 69.5674 69.7266 70.1959C69.5594 70.3861 69.3769 70.5624 69.1811 70.723C69.1138 70.7879 69.0363 70.8414 68.9517 70.8811C68.9359 70.8601 69.2469 70.6176 69.6476 70.1326C70.1695 69.5006 70.5529 68.7661 70.773 67.9766C70.9881 67.1852 71.0392 66.3583 70.9233 65.5465C70.8336 64.9086 70.7019 64.5396 70.7203 64.5317Z" fill="#32959D"/>
<path d="M82.4413 60.7417C82.4413 60.7417 82.494 60.8023 82.5652 60.9288C82.6657 61.1043 82.7537 61.2866 82.8287 61.4744C83.3595 62.7202 83.5329 64.0892 83.3295 65.428C83.3 65.6297 83.2586 65.8295 83.2056 66.0263C83.1927 66.1005 83.1668 66.1719 83.1292 66.2371C83.1055 66.2371 83.174 65.9209 83.2294 65.4148C83.3726 64.1003 83.2056 62.7706 82.7418 61.5324C82.5625 61.0448 82.4202 60.7601 82.4413 60.7417Z" fill="#32959D"/>
<path d="M64.6058 30.6945C64.1263 30.2635 63.5774 29.9168 62.9822 29.6692C62.4031 29.3625 61.7811 29.1448 61.1372 29.0234C59.4055 28.7599 57.7345 29.7219 56.5774 30.8447C55.4203 31.9675 54.5479 33.3064 53.1958 34.2711L56.6907 34.2131C57.745 34.1947 58.823 34.1736 59.7824 33.8125C61.0054 33.3565 61.9358 32.2311 63.2642 32.1046C63.9946 32.0832 64.7241 32.172 65.4281 32.3681C65.3448 31.7352 65.0559 31.1472 64.6058 30.6945ZM61.0686 32.0729C60.975 32.1285 60.866 32.1525 60.7576 32.1415C60.6701 32.1304 60.5816 32.1304 60.4941 32.1415C60.2832 32.1836 60.1751 32.4209 59.9986 32.5421C59.9268 32.5938 59.8417 32.6238 59.7533 32.6284C59.665 32.6331 59.5772 32.6123 59.5004 32.5685C59.4247 32.5197 59.3675 32.447 59.3379 32.362C59.3083 32.277 59.3079 32.1845 59.337 32.0993C59.372 32.0253 59.4212 31.9591 59.482 31.9043C59.6336 31.7599 59.8129 31.6478 60.0091 31.5748C60.1254 31.4822 60.2639 31.4213 60.4108 31.3982C60.5577 31.3751 60.7081 31.3906 60.8472 31.443C61.0265 31.4957 61.2215 31.6143 61.2321 31.8067C61.2271 31.8593 61.2097 31.9099 61.1813 31.9543C61.1528 31.9988 61.1142 32.0358 61.0686 32.0624V32.0729Z" fill="#455A64"/>
<path d="M57.4155 32.1307C57.4155 32.1307 57.492 32.0886 57.6317 31.9989C57.7713 31.9093 57.9664 31.7644 58.2089 31.5667C58.4514 31.369 58.736 31.1081 59.0892 30.8287C59.5008 30.5182 59.9704 30.2933 60.4703 30.1671C60.7607 30.0945 61.0593 30.0599 61.3585 30.0643C61.6815 30.0746 62.0024 30.1206 62.3153 30.2014C63.0062 30.3817 63.6571 30.6901 64.2341 31.1107C64.8738 31.5726 65.4195 32.1522 65.8419 32.8186C66.2983 33.5264 66.6656 34.2877 66.9357 35.0854C67.5076 36.7169 67.7791 38.3404 68.0954 39.7901C68.4117 41.2397 68.6673 42.5576 68.8861 43.6619C69.1049 44.7663 69.2894 45.644 69.4132 46.2739C69.4712 46.5744 69.516 46.8011 69.5503 46.9856C69.5503 47.0594 69.574 47.12 69.5819 47.1727C69.5837 47.1937 69.5837 47.2149 69.5819 47.2359C69.5716 47.217 69.5645 47.1966 69.5608 47.1753L69.5134 46.9908L69.35 46.2845C69.2129 45.6572 69.0179 44.7716 68.778 43.683C68.5382 42.5945 68.2509 41.2713 67.9452 39.8191C67.6394 38.3668 67.3469 36.7485 66.7802 35.1328C66.2135 33.5171 65.3516 32.0727 64.1445 31.2188C63.5822 30.8045 62.9476 30.4988 62.2731 30.3174C61.6889 30.1485 61.0714 30.1303 60.4782 30.2647C59.9907 30.3811 59.5305 30.5915 59.1235 30.884C58.7703 31.1476 58.483 31.4112 58.23 31.601C58.0399 31.7512 57.84 31.8885 57.6317 32.0121C57.5776 32.0451 57.5212 32.0742 57.463 32.0991L57.4155 32.1307Z" fill="#263238"/>
<path d="M73.0926 35.7997C72.9757 36.1118 72.9273 36.4453 72.9505 36.7777C72.9737 37.1101 73.068 37.4336 73.227 37.7264C73.5696 38.272 74.1837 38.5541 74.7478 38.8493C75.6201 39.3015 76.4471 39.8364 77.2174 40.4465C77.3835 40.0933 77.257 39.6716 77.1173 39.3052C76.996 38.9863 76.8695 38.67 76.7351 38.3564C76.3951 37.5657 75.9918 36.7591 75.325 36.2241C74.6582 35.689 73.7963 35.3148 73.0926 35.7997Z" fill="#455A64"/>
<path d="M75.0851 37.413C75.0851 37.413 74.9902 37.2918 74.8215 37.0809C74.5753 36.7852 74.2948 36.5198 73.986 36.2902C73.5297 35.9493 72.9966 35.7258 72.4336 35.6392C71.7464 35.5329 71.0441 35.682 70.4594 36.0583C69.8991 36.4722 69.4544 37.0231 69.168 37.6582C68.9127 38.1694 68.6934 38.6978 68.5117 39.2396C68.3862 39.6047 68.3039 39.9834 68.2665 40.3677C68.2428 40.6312 68.2507 40.792 68.2375 40.792C68.2253 40.7564 68.219 40.719 68.2191 40.6813C68.2115 40.5751 68.2115 40.4686 68.2191 40.3624C68.2361 39.9704 68.3043 39.5823 68.4221 39.208C68.593 38.6542 68.8053 38.1141 69.0573 37.5923C69.3443 36.9334 69.7986 36.3609 70.3751 35.9318C70.9883 35.5338 71.7286 35.3804 72.4494 35.5022C73.0271 35.5977 73.5711 35.838 74.0308 36.2006C74.3406 36.4419 74.6155 36.7249 74.8479 37.0414C74.9117 37.1259 74.9707 37.2139 75.0245 37.305C75.0719 37.3761 75.0904 37.4104 75.0851 37.413Z" fill="#263238"/>
<path d="M52.8715 49.3286C52.7336 49.1999 52.5683 49.1041 52.3881 49.0483C52.2079 48.9924 52.0175 48.9781 51.8309 49.0062C51.6444 49.0343 51.4666 49.1042 51.3109 49.2107C51.1552 49.3172 51.0255 49.4575 50.9317 49.6212C50.8127 49.8931 50.7431 50.1841 50.7261 50.4804C50.6852 50.699 50.6852 50.9233 50.7261 51.142C50.7645 51.2479 50.7962 51.3562 50.821 51.4662C50.8302 51.6017 50.8132 51.7377 50.7709 51.8668C50.7001 52.0777 50.661 52.298 50.6549 52.5204C50.6527 52.6316 50.6789 52.7415 50.731 52.8398C50.7831 52.938 50.8594 53.0213 50.9528 53.0818C51.0372 53.1089 51.1152 53.1528 51.1821 53.211C51.2325 53.2892 51.2557 53.3818 51.2479 53.4746C51.2479 53.833 51.2664 54.1915 51.2743 54.5499C51.5205 54.37 51.7114 54.1249 51.8255 53.8422C51.9396 53.5594 51.9724 53.2504 51.9201 52.9501C51.8699 52.7699 51.8364 52.5855 51.8199 52.3992C51.8199 51.9907 52.1388 51.6269 52.1046 51.2184C52.0703 50.8099 51.7514 50.5437 51.6749 50.1641C51.6474 50.0208 51.6572 49.8728 51.7033 49.7343C51.7495 49.5958 51.8305 49.4716 51.9385 49.3734C52.0511 49.2793 52.1876 49.2183 52.3328 49.1974C52.4781 49.1764 52.6263 49.1963 52.7608 49.2548" fill="#455A64"/>
<path d="M67.4339 37.6421C67.2911 37.4432 67.0989 37.285 66.8764 37.183C66.6538 37.0809 66.4085 37.0386 66.1646 37.0602C65.9207 37.0817 65.6867 37.1664 65.4854 37.3058C65.2842 37.4453 65.1228 37.6348 65.017 37.8556C64.9259 38.1202 64.7991 38.3712 64.6401 38.6015C64.3001 38.9758 63.6649 38.9151 63.3222 39.2841C63.2081 39.4162 63.1268 39.5733 63.085 39.7427C62.9974 40.0479 62.9736 40.3679 63.0154 40.6826C63.0571 40.9974 63.1634 41.3001 63.3275 41.5719C63.5674 41.9594 63.9311 42.2862 64.0365 42.7343C64.1709 43.3141 63.852 44.0152 64.221 44.4738C64.6509 44.028 64.9488 43.4719 65.0819 42.8671C65.2149 42.2623 65.1779 41.6324 64.9748 41.0474C64.9079 40.9046 64.872 40.7492 64.8694 40.5914C64.9168 40.0643 65.7102 40.0274 66.0344 39.6083C66.2716 39.3026 66.2083 38.8651 66.2215 38.475C66.2347 38.0849 66.4482 37.6105 66.8304 37.6315C67.0939 37.6315 67.3839 37.8688 67.5525 37.6737" fill="#455A64"/>
<path d="M73.7569 49.8509C73.6409 50.0459 73.5249 50.3042 73.662 50.4861C73.7226 50.5678 73.8201 50.6126 73.886 50.689C74.0363 50.8735 73.944 51.1476 73.8649 51.3717C73.7859 51.5957 73.7622 51.8988 73.9677 52.0174C74.0916 52.0807 74.2313 52.0385 74.3736 52.0569C74.4926 52.083 74.6017 52.1425 74.688 52.2284C74.7744 52.3143 74.8345 52.4231 74.8612 52.5419C74.9131 52.7819 74.9203 53.0294 74.8823 53.272C75.275 53.0717 75.3857 52.5551 75.4095 52.107C75.4435 51.8888 75.3895 51.666 75.2592 51.4876C75.196 51.4217 75.1169 51.3796 75.0589 51.3084C74.914 51.1292 74.9825 50.8656 75.0405 50.6416C75.0985 50.4175 75.1143 50.1144 74.9219 50.0037C74.7927 49.9247 74.6003 49.9484 74.5133 49.8245C74.3868 49.6453 74.6583 49.3949 74.4606 49.2974" fill="#455A64"/>
<path d="M82.4808 51.8276C82.2289 51.0861 81.7935 50.4203 81.2152 49.8922C80.6368 49.3641 79.9344 48.9908 79.173 48.8071C78.5457 48.6674 77.8552 48.6806 77.3149 49.0496L77.191 49.097C77.104 49.9194 77.0355 50.8181 77.4888 51.5008C78.2084 52.5867 79.8609 52.5814 80.6833 53.5962C81.2816 54.3421 81.2526 55.4412 81.6796 56.2925C82.1701 55.6716 82.4998 54.9393 82.6396 54.1604C82.7793 53.3816 82.7248 52.5803 82.4808 51.8276ZM78.8726 51.0369C78.8397 51.1499 78.7699 51.2487 78.6744 51.3175C78.5789 51.3863 78.463 51.4211 78.3454 51.4164C78.2291 51.4049 78.1183 51.3613 78.0252 51.2906C77.9322 51.2199 77.8606 51.1248 77.8183 51.0158C77.7761 50.9043 77.758 50.7851 77.7653 50.666C77.7726 50.547 77.805 50.4308 77.8605 50.3253L77.8868 50.3753C77.9932 50.3099 78.1162 50.2765 78.2411 50.2791C78.366 50.2816 78.4876 50.3201 78.5912 50.3898C78.6949 50.4596 78.7762 50.5577 78.8257 50.6724C78.8751 50.7871 78.8904 50.9137 78.8699 51.0369H78.8726Z" fill="#455A64"/>
<path d="M80.9047 52.1859C80.868 52.1494 80.8369 52.1076 80.8124 52.062L80.5699 51.6878C80.2786 51.2297 79.9451 50.8 79.5736 50.4042C78.9902 49.8526 78.2968 49.4304 77.5389 49.1654C77.0991 48.9953 76.6342 48.8991 76.163 48.8807C75.66 48.8685 75.1626 48.9894 74.7213 49.2313C73.8067 49.7373 73.19 50.5649 72.6945 51.3161C72.2537 51.9911 71.8752 52.7048 71.5637 53.4484C71.3586 53.9509 71.1826 54.4649 71.0366 54.9877C70.9285 55.3593 70.8811 55.5675 70.8679 55.5649C70.8682 55.5124 70.8753 55.4601 70.889 55.4094C70.9048 55.3092 70.9364 55.1616 70.9813 54.9745C71.1122 54.4426 71.2796 53.9204 71.482 53.4115C71.7814 52.6553 72.153 51.9298 72.5917 51.245C73.0898 50.4832 73.7118 49.6319 74.6633 49.1048C75.1263 48.851 75.6485 48.7254 76.1762 48.741C76.6625 48.7605 77.1419 48.8621 77.5942 49.0415C78.367 49.3187 79.0709 49.7592 79.658 50.333C80.0262 50.7374 80.3513 51.1791 80.6279 51.6509C80.7254 51.8169 80.7992 51.9487 80.8467 52.0383C80.8733 52.0843 80.8929 52.1341 80.9047 52.1859Z" fill="#263238"/>
<path d="M60.6494 58.0347C60.6705 58.0505 60.6916 58.0689 60.7127 58.0821L60.7865 58.061L60.6494 58.0347Z" fill="#455A64"/>
<path d="M62.1096 64.3629C62.0727 63.9227 61.9831 63.4879 61.9673 63.0451C61.9357 62.1726 62.194 61.3029 62.107 60.4357C62.0581 59.966 61.9082 59.5125 61.6675 59.1062C61.4268 58.7 61.1011 58.3506 60.7127 58.082C60.1126 58.2683 59.5595 58.5811 59.0907 58.9994C58.6219 59.4178 58.2484 59.9318 57.9953 60.5069C57.74 61.1042 57.6151 61.7491 57.6287 62.3986C57.6423 63.0481 57.7943 63.6872 58.0744 64.2733C58.3379 64.8004 58.6911 65.2854 58.7359 65.8547C58.7807 66.424 58.4961 66.9723 58.4038 67.5416C58.2167 68.7013 58.8203 69.8241 59.4027 70.8362C59.3698 70.557 59.3944 70.2741 59.4751 70.0048C59.5558 69.7355 59.6908 69.4856 59.8719 69.2706C60.2066 68.8252 60.6336 68.4588 60.9894 68.0318C61.8184 66.9972 62.2193 65.6841 62.1096 64.3629ZM61.0553 62.7683C60.9945 62.8654 60.909 62.9445 60.8076 62.9976C60.7576 63.0236 60.7014 63.0353 60.6452 63.0316C60.5889 63.0279 60.5348 63.0088 60.4887 62.9765C60.4312 62.9213 60.3871 62.8537 60.3595 62.7789C60.3064 62.6665 60.2598 62.5512 60.2198 62.4336C60.1451 62.1843 60.1323 61.9207 60.1823 61.6653C60.2324 61.41 60.3439 61.1707 60.5071 60.9681V60.9523C60.6038 60.9473 60.7002 60.9653 60.7886 61.0047C60.877 61.0441 60.9549 61.1038 61.0158 61.179C61.2077 61.3977 61.3136 61.6787 61.3136 61.9697C61.3125 62.2562 61.2222 62.5353 61.0553 62.7683Z" fill="#455A64"/>
<path d="M59.4344 62.4389C59.4275 62.3846 59.4275 62.3297 59.4344 62.2755C59.4344 62.1674 59.4661 62.0119 59.4924 61.809C59.5717 61.2377 59.6817 60.671 59.8219 60.1116C60.0221 59.275 60.3416 58.4717 60.7707 57.7262C61.2914 56.7961 62.0717 56.0378 63.0164 55.5439C63.492 55.3018 64.013 55.162 64.5459 55.1334C65.0789 55.1048 65.6119 55.1881 66.1107 55.3778C66.9031 55.7438 67.5572 56.3545 67.9767 57.12C68.2649 57.6209 68.5118 58.1446 68.7147 58.6856C68.7859 58.8754 68.8413 59.0256 68.8755 59.1258C68.8968 59.1765 68.9119 59.2296 68.9203 59.2839C68.8899 59.2383 68.8659 59.1886 68.8492 59.1364C68.7991 59.0257 68.7385 58.8728 68.662 58.7067C68.4427 58.1771 68.1845 57.6644 67.8898 57.1728C67.4722 56.4362 66.8318 55.8512 66.0606 55.5017C65.5785 55.3221 65.0644 55.2445 64.5508 55.274C64.0372 55.3035 63.5353 55.4394 63.077 55.673C62.1603 56.1529 61.3995 56.8844 60.8841 57.7816C60.4564 58.5155 60.1318 59.3049 59.9194 60.1274C59.7296 60.8258 59.6242 61.4083 59.5478 61.8063C59.5135 61.9961 59.4871 62.149 59.4634 62.2676C59.4596 62.3255 59.4499 62.3829 59.4344 62.4389Z" fill="#263238"/>
<path d="M46.596 45.7335C45.7627 45.9248 44.9853 46.3073 44.3252 46.8508C43.6652 47.3942 43.1405 48.0837 42.7927 48.8647C42.4512 49.6605 42.2944 50.5233 42.3342 51.3884C42.3739 52.2534 42.609 53.0983 43.022 53.8594C43.4727 53.2137 43.7073 52.4414 44.0763 51.7508C44.4453 51.0603 44.9909 50.375 45.75 50.2142C46.3852 50.0824 47.0098 50.0798 47.6398 49.9269C48.3257 49.7659 48.9287 49.3589 49.3345 48.783C49.7852 48.1795 50.3756 47.8447 50.8263 47.2438C49.9302 45.8917 48.1432 45.4041 46.596 45.7335ZM44.7115 49.4235C44.6851 49.4849 44.6433 49.5384 44.5903 49.579C44.5305 49.6158 44.4599 49.6309 44.3903 49.6218C44.3207 49.6127 44.2564 49.5799 44.2081 49.5289C44.1609 49.475 44.1288 49.4095 44.1149 49.3392C44.101 49.2689 44.1059 49.1962 44.129 49.1283C44.1633 49.0203 44.2582 48.9201 44.3662 48.9412L44.3267 49.0071C44.348 48.9777 44.3759 48.9537 44.4082 48.9372C44.4405 48.9207 44.4762 48.9121 44.5125 48.9121C44.5488 48.9121 44.5846 48.9207 44.6169 48.9372C44.6492 48.9537 44.6771 48.9777 44.6983 49.0071C44.7372 49.0691 44.7588 49.1404 44.7612 49.2135C44.7635 49.2867 44.7463 49.3591 44.7115 49.4235ZM47.9297 48.7725C47.735 49.014 47.4582 49.1754 47.1522 49.2258C46.851 49.2712 46.5442 49.2641 46.2455 49.2047C46.1069 49.192 45.9745 49.1409 45.8633 49.0572C45.7985 48.9955 45.7542 48.9154 45.7362 48.8278C45.7183 48.7401 45.7277 48.6491 45.7632 48.5669C45.7757 48.5369 45.7968 48.5112 45.8238 48.4931C45.8576 48.4749 45.8966 48.4684 45.9345 48.4747C46.1771 48.5138 46.4259 48.4827 46.6514 48.385C46.8131 48.2609 46.9507 48.1081 47.0573 47.9343C47.1447 47.813 47.267 47.7211 47.4078 47.6708C47.3904 47.6741 47.3725 47.6741 47.3551 47.6708H47.4711C47.4964 47.6668 47.5222 47.6668 47.5475 47.6708C47.5898 47.6593 47.633 47.6514 47.6767 47.6471C47.756 47.6522 47.8322 47.6797 47.8966 47.7264C47.9609 47.773 48.0108 47.8369 48.0404 47.9106C48.0981 48.0516 48.1182 48.2051 48.0988 48.3562C48.0794 48.5072 48.0211 48.6507 47.9297 48.7725Z" fill="#455A64"/>
<path d="M45.3994 47.908C45.4264 47.8745 45.4574 47.8444 45.4917 47.8184C45.5833 47.7361 45.6792 47.6586 45.779 47.5864C46.1517 47.3243 46.56 47.1166 46.9914 46.9697C47.634 46.7496 48.3142 46.66 48.9919 46.7061C49.8261 46.7497 50.6358 47.0035 51.3456 47.4441C52.0429 47.8985 52.6366 48.4948 53.0878 49.1942C53.4531 49.761 53.7621 50.3621 54.0103 50.9891C54.2211 51.5163 54.3661 51.9643 54.4557 52.2701C54.5031 52.4229 54.5348 52.5337 54.5558 52.6259C54.5691 52.667 54.5779 52.7094 54.5822 52.7524C54.5115 52.6023 54.4516 52.4472 54.403 52.2885C54.2975 51.9881 54.1394 51.5532 53.9154 51.0287C53.6587 50.4136 53.3446 49.8241 52.9771 49.268C52.5317 48.5884 51.9502 48.0086 51.2691 47.5653C50.5792 47.1378 49.7941 46.8879 48.984 46.8379C48.3214 46.7908 47.6558 46.8704 47.023 47.0725C46.4434 47.2689 45.8962 47.5505 45.3994 47.908Z" fill="#263238"/>
<path d="M86.4926 42.0491C86.871 42.2877 87.2928 42.4493 87.7337 42.5249C88.1746 42.6004 88.6261 42.5883 89.0624 42.4893C89.7899 42.3206 90.4989 41.9041 91.2342 42.0333C91.8035 42.1308 92.2885 42.5473 92.871 42.5604C93.6617 42.5894 94.3127 41.8804 95.1008 41.7987C95.6279 41.7407 96.1551 41.9859 96.6427 42.2231C96.7824 41.6485 96.3633 41.1055 95.9759 40.668C95.1852 39.7903 94.3338 38.8652 93.2005 38.5963C91.9511 38.3011 90.6676 38.8599 89.384 38.8599C89.0841 38.8387 88.7828 38.8493 88.4852 38.8915C87.9923 38.9996 87.5917 39.3607 87.2201 39.7086C86.8664 39.9825 86.5932 40.3467 86.4293 40.7629C86.3134 41.1582 86.3977 41.5879 86.2949 41.9858" fill="#455A64"/>
<path d="M93.9937 40.5598C93.9937 40.5598 93.7907 40.4965 93.4244 40.4043C92.9073 40.2711 92.3767 40.1969 91.8429 40.1829C91.0502 40.1603 90.2585 40.2572 89.4945 40.4702C88.5563 40.7268 87.6661 41.1346 86.8588 41.6773C85.404 42.6848 84.1611 43.9681 83.2005 45.4543C82.8932 45.8931 82.6401 46.3675 82.4467 46.867C82.3175 47.2228 82.2859 47.4311 82.2727 47.4284C82.2706 47.3771 82.2751 47.3257 82.2859 47.2756C82.3118 47.1309 82.3479 46.9882 82.394 46.8486C82.5694 46.3355 82.8123 45.848 83.1161 45.3989C84.0621 43.8812 85.3089 42.5733 86.7798 41.5561C87.5999 41.0072 88.5045 40.5968 89.4576 40.341C90.2302 40.1321 91.0302 40.0432 91.8298 40.0774C92.371 40.0993 92.9075 40.1878 93.427 40.341C93.5676 40.3824 93.7058 40.4317 93.8408 40.4886C93.8953 40.504 93.9469 40.528 93.9937 40.5598Z" fill="#263238"/>
<path d="M114.903 103.44L116.192 108.271C116.192 108.271 111.711 111.202 111.864 112.117L121.307 109.955L119.613 102.346L114.903 103.44Z" fill="#32959D"/>
<path d="M119.02 107.19C119.117 107.197 119.208 107.24 119.276 107.31C119.344 107.38 119.384 107.472 119.389 107.57C119.385 107.668 119.345 107.76 119.275 107.829C119.205 107.898 119.112 107.937 119.014 107.939C118.911 107.931 118.814 107.885 118.743 107.81C118.671 107.735 118.63 107.637 118.627 107.533C118.641 107.432 118.694 107.34 118.775 107.277C118.856 107.214 118.958 107.185 119.059 107.196" fill="#E0E0E0"/>
<g opacity="0.6">
<path d="M121.308 109.955L121.107 109.196L112.117 111.55C112.117 111.55 111.737 111.829 111.853 112.114L121.308 109.955Z" fill="white"/>
</g>
<path d="M116.036 108.256C116.049 108.3 116.284 108.269 116.545 108.366C116.806 108.464 116.972 108.63 117.011 108.601C117.051 108.572 116.919 108.321 116.6 108.211C116.281 108.1 116.007 108.216 116.036 108.256Z" fill="#263238"/>
<path d="M115.127 108.891C115.127 108.938 115.346 108.972 115.546 109.131C115.746 109.289 115.841 109.486 115.886 109.476C115.931 109.465 115.902 109.194 115.646 109.001C115.39 108.809 115.119 108.849 115.127 108.891Z" fill="#263238"/>
<path d="M114.834 110.209C114.879 110.209 114.892 109.964 114.716 109.737C114.539 109.51 114.299 109.46 114.289 109.502C114.278 109.545 114.444 109.65 114.584 109.837C114.724 110.024 114.79 110.214 114.834 110.209Z" fill="#263238"/>
<path d="M115.855 107.13C115.884 107.167 116.081 107.056 116.347 107.014C116.614 106.972 116.835 107.014 116.848 106.961C116.861 106.909 116.629 106.798 116.321 106.851C116.013 106.904 115.826 107.091 115.855 107.13Z" fill="#263238"/>
<path d="M104.22 46.1216L99.5156 62.6527L103.211 63.3749L105.652 55.0408L104.22 46.1216Z" fill="#F5F5F5"/>
<path d="M104.22 46.1216C104.302 46.6145 104.826 49.7483 105.709 55.0303V55.0566C105.003 57.4762 104.173 60.328 103.279 63.3933L103.261 63.4566L103.198 63.4434L101.616 63.135L99.5076 62.7239L99.4312 62.7081L99.4522 62.6343C100.783 57.9559 101.993 53.8047 102.855 50.8474C103.683 47.9956 104.128 46.4616 104.225 46.1216C104.128 46.4669 103.698 48.0325 102.881 50.9396C102.051 53.9206 100.91 58.035 99.5919 62.6738L99.5366 62.5842L101.645 62.9954L103.227 63.3037L103.145 63.3538C104.046 60.2911 104.884 57.4393 105.593 55.025V55.0513C104.779 49.7562 104.297 46.6171 104.22 46.1216Z" fill="#E0E0E0"/>
<path d="M125.585 74.4974C125.585 74.4974 125.245 75.8838 123.253 76.1527C117.249 76.9618 113.683 81.5137 113.683 81.5137L115.246 76.4426L121.028 72.4126L124.718 73.5749L125.585 74.4974Z" fill="#E0E0E0"/>
<path d="M117.575 86.4397C116.574 82.4335 115.857 80.2827 115.857 80.2827C115.857 80.2827 115.97 63.2192 115.857 61.8012C115.58 58.3748 113.651 54.4476 113.401 53.9468L103.88 56.1792L104.492 60.9235L106.888 81.7824L115.127 105.651L120.78 104.774C120.78 104.774 118.577 90.446 117.575 86.4397Z" fill="#263238"/>
<path d="M108.656 35.1753L109.004 35.2544L112.536 36.0451C112.536 36.0451 113.287 45.0592 113.414 46.1846C113.54 47.3101 111.975 49.5662 111.975 49.5662C111.975 49.5662 113.414 50.4413 113.801 51.5694C114.188 52.6974 113.801 54.6162 113.801 54.6162L111.642 56.5245C110.764 57.3079 109.711 57.8708 108.572 58.1665L104.091 59.3236C104.091 59.3236 103.564 49.4898 102.201 45.5494C101.289 42.9137 103.783 37.2707 103.783 37.2707L106.867 35.1621" fill="#32959D"/>
<path d="M106.484 44.4002C105.754 44.5084 105.017 44.5691 104.278 44.5821C103.542 44.6425 102.802 44.6548 102.064 44.619C102.795 44.5109 103.532 44.4501 104.27 44.4371C105.007 44.3783 105.746 44.366 106.484 44.4002Z" fill="white"/>
<path d="M107.133 49.4082C106.492 49.5436 105.841 49.6317 105.188 49.6718C104.537 49.7561 103.882 49.7939 103.227 49.7851C103.868 49.649 104.519 49.5609 105.174 49.5216C105.824 49.4364 106.478 49.3985 107.133 49.4082Z" fill="white"/>
<path d="M107.973 54.9801C107.803 55.0961 107.615 55.185 107.417 55.2437C106.482 55.5856 105.484 55.7196 104.492 55.6364C104.285 55.6328 104.081 55.5963 103.885 55.5284C104.577 55.5494 105.269 55.5256 105.957 55.4572C107.093 55.3096 107.958 54.9432 107.973 54.9801Z" fill="white"/>
<path d="M102.879 32.2759C102.278 31.9965 101.901 31.3797 101.679 30.7551C101.458 30.1304 101.355 29.4636 101.11 28.8495C100.925 28.3882 101.128 27.6581 100.715 27.384C100.187 27.0414 100.203 26.1347 100.404 25.684C100.62 25.1911 101.21 24.8247 101.25 24.6666C101.355 24.2581 100.986 23.8153 101.128 23.412C101.439 22.4684 102.209 22.5923 102.209 22.5923C102.56 22.1679 103.034 21.6065 103.79 21.4062C104.626 21.1927 105.854 21.032 106.597 21.4695C107.341 21.907 107.886 22.1969 108.126 23.0246" fill="#263238"/>
<path d="M109.299 24.1817C109.51 24.2047 109.705 24.306 109.845 24.4655C109.985 24.6251 110.06 24.8313 110.056 25.0436L109.55 36.4931C109.529 37.8452 107.554 38.6016 106.107 38.57C104.645 38.5357 104.6 37.8188 104.581 36.5352C104.55 34.3871 104.552 33.5806 104.552 33.5938C104.552 33.607 102.707 33.2828 102.331 30.8737C102.143 29.6745 102.207 27.7109 102.312 26.1057C102.404 24.6614 103.366 22.8902 104.805 23.0457L109.299 24.1817Z" fill="#D38D6E"/>
<path d="M102.781 27.7399C102.779 27.8215 102.809 27.9007 102.865 27.9604C102.92 28.02 102.997 28.0554 103.079 28.0588C103.156 28.0655 103.233 28.0416 103.292 27.9923C103.352 27.943 103.39 27.8722 103.398 27.7953C103.399 27.7145 103.368 27.6367 103.312 27.5782C103.257 27.5197 103.181 27.485 103.1 27.4816C103.024 27.4749 102.948 27.4981 102.888 27.5463C102.829 27.5945 102.79 27.6639 102.781 27.7399Z" fill="#263238"/>
<path d="M102.734 27.118C102.773 27.1602 102.997 26.9862 103.34 26.9889C103.682 26.9915 103.914 27.1576 103.951 27.1154C103.988 27.0732 103.93 27.0258 103.825 26.9467C103.681 26.8466 103.51 26.7941 103.335 26.7965C103.162 26.7956 102.993 26.8491 102.852 26.9493C102.752 27.0284 102.715 27.0996 102.734 27.118Z" fill="#263238"/>
<path d="M105.994 27.7398C105.992 27.8201 106.021 27.8982 106.075 27.9576C106.129 28.0171 106.204 28.0533 106.284 28.0587C106.361 28.0661 106.438 28.0424 106.498 27.993C106.558 27.9436 106.596 27.8724 106.603 27.7952C106.604 27.7145 106.573 27.6366 106.517 27.5781C106.462 27.5196 106.386 27.4849 106.305 27.4815C106.23 27.4769 106.156 27.5011 106.098 27.5491C106.041 27.5971 106.003 27.6653 105.994 27.7398Z" fill="#263238"/>
<path d="M106.002 27.1863C106.039 27.2285 106.265 27.0545 106.605 27.0572C106.945 27.0598 107.183 27.2259 107.22 27.1837C107.256 27.1415 107.199 27.0941 107.09 27.0177C106.948 26.9167 106.777 26.8632 106.603 26.8648C106.43 26.8634 106.261 26.9169 106.121 27.0177C106.02 27.0967 105.983 27.1705 106.002 27.1863Z" fill="#263238"/>
<path d="M104.79 29.6402C104.615 29.5832 104.433 29.5496 104.249 29.5401C104.165 29.5401 104.086 29.5137 104.07 29.4557C104.061 29.364 104.081 29.2717 104.128 29.1922C104.21 28.9866 104.291 28.7731 104.392 28.5464C104.625 27.9993 104.815 27.4343 104.958 26.8569C104.681 27.3839 104.447 27.9321 104.257 28.4963C104.173 28.723 104.091 28.9391 104.015 29.1474C103.962 29.2496 103.946 29.3669 103.97 29.4795C103.982 29.5096 104.001 29.5364 104.025 29.5579C104.049 29.5794 104.078 29.595 104.11 29.6033C104.157 29.6159 104.206 29.623 104.254 29.6244C104.432 29.6512 104.611 29.6565 104.79 29.6402Z" fill="#263238"/>
<path d="M104.552 33.5937C105.686 33.6134 106.803 33.3178 107.778 32.7397C107.778 32.7397 106.961 34.4371 104.552 34.2078V33.5937Z" fill="#B26746"/>
<path d="M104.929 30.4521C104.992 30.3739 105.072 30.3127 105.165 30.274C105.257 30.2353 105.357 30.2204 105.456 30.2307C105.53 30.2374 105.601 30.2588 105.666 30.2937C105.73 30.3285 105.787 30.3762 105.833 30.4336C105.878 30.489 105.904 30.5567 105.908 30.6275C105.912 30.6984 105.895 30.7688 105.857 30.829C105.804 30.8888 105.734 30.9312 105.657 30.951C105.579 30.9707 105.497 30.9668 105.422 30.9397C105.265 30.8806 105.121 30.791 104.998 30.6761C104.961 30.649 104.929 30.6161 104.903 30.5786C104.891 30.5601 104.885 30.5386 104.885 30.5167C104.885 30.4947 104.891 30.4733 104.903 30.4547" fill="#B26746"/>
<path d="M105.757 29.8829C105.704 29.8829 105.701 30.2387 105.393 30.4944C105.085 30.75 104.7 30.7105 104.697 30.7579C104.694 30.8054 104.781 30.8265 104.945 30.8317C105.156 30.8346 105.361 30.7637 105.525 30.6314C105.605 30.5669 105.671 30.487 105.719 30.3964C105.768 30.3059 105.797 30.2065 105.807 30.1043C105.833 29.9698 105.791 29.8802 105.757 29.8829Z" fill="#263238"/>
<path d="M105.875 26.082C105.907 26.1716 106.239 26.1294 106.629 26.1769C107.019 26.2243 107.333 26.3324 107.386 26.2507C107.409 26.2138 107.354 26.1294 107.228 26.0398C107.059 25.9305 106.866 25.8628 106.666 25.8421C106.467 25.8173 106.264 25.8408 106.076 25.9107C105.933 25.9687 105.86 26.0398 105.875 26.082Z" fill="#263238"/>
<path d="M102.668 26.2139C102.726 26.2903 102.955 26.2139 103.232 26.2139C103.509 26.2139 103.741 26.2666 103.793 26.1875C103.817 26.1506 103.78 26.0742 103.68 26.003C103.544 25.9148 103.384 25.8706 103.221 25.8765C103.06 25.878 102.902 25.9316 102.773 26.0294C102.676 26.0979 102.644 26.1743 102.668 26.2139Z" fill="#263238"/>
<path d="M107.976 22.8561C107.978 23.0981 107.925 23.3373 107.824 23.5568C107.722 23.7763 107.573 23.9707 107.387 24.126C107.202 24.2813 106.984 24.3938 106.75 24.4554C106.516 24.517 106.272 24.5262 106.034 24.4824C105.665 24.4165 105.261 24.2188 104.943 24.427C104.624 24.6352 104.595 25.136 104.297 25.3943C103.872 25.7633 103.198 25.418 102.66 25.5788C102.244 25.7001 101.983 26.106 101.706 26.4328C101.429 26.7596 101.015 27.0865 100.599 26.9599C100.61 26.5848 100.666 26.2124 100.765 25.8503C100.864 25.485 101.086 25.1654 101.395 24.9463C101.566 24.8329 101.766 24.7644 101.922 24.6352C102.267 24.3559 102.346 23.8709 102.56 23.4808C102.7 23.2306 102.899 23.0175 103.138 22.8589C103.377 22.7004 103.65 22.601 103.936 22.5689C104.41 22.5214 104.898 22.6637 105.359 22.5451C105.702 22.4608 105.999 22.2394 106.345 22.1735C107.019 22.0443 107.644 22.5293 108.134 23.009" fill="#263238"/>
<path d="M109.244 28.0746C109.302 28.0973 109.349 28.1395 109.379 28.1939C109.408 28.2483 109.418 28.3113 109.406 28.372C109.393 28.4326 109.36 28.487 109.312 28.5257C109.263 28.5643 109.203 28.5847 109.141 28.5833C108.332 28.7678 108.227 27.1863 108.406 26.7383C108.104 26.4868 107.834 26.1991 107.602 25.8817C107.344 25.3753 107.217 24.8129 107.23 24.2449C106.938 24.2633 105.696 23.8522 105.828 23.8153C106.131 23.7283 106.748 23.5332 106.911 23.2697C107.074 22.9881 107.308 22.7545 107.59 22.5925C107.872 22.4305 108.191 22.3459 108.517 22.3472C108.844 22.3735 109.155 22.505 109.402 22.722C109.649 22.9391 109.819 23.2301 109.887 23.5517C110.281 23.5653 110.664 23.6852 110.995 23.8986C111.326 24.112 111.594 24.4111 111.769 24.7641C111.952 25.135 112.042 25.5452 112.03 25.9587C112.018 26.3723 111.905 26.7766 111.7 27.1363C111.57 27.3063 111.486 27.5068 111.455 27.7187C111.455 27.9823 111.65 28.1984 111.79 28.4198C111.966 28.7387 112.063 29.0951 112.073 29.4592C112.084 29.8233 112.006 30.1845 111.848 30.5126C111.553 31.1715 111.345 31.4008 110.926 31.5352C110.103 31.7988 111.057 33.483 109.689 33.483" fill="#263238"/>
<path d="M109.212 28.7364C109.217 28.6182 109.251 28.503 109.312 28.4015C109.373 28.3001 109.459 28.2156 109.561 28.156C109.663 28.0963 109.779 28.0634 109.897 28.0603C110.015 28.0572 110.132 28.0839 110.238 28.1381C110.48 28.2804 110.667 28.5624 110.644 29.108C110.586 30.5577 109.141 30.1992 109.139 30.1623C109.136 30.1254 109.183 29.3373 109.212 28.7364Z" fill="#D38D6E"/>
<path d="M109.608 29.6245C109.608 29.6245 109.631 29.6456 109.673 29.6666C109.735 29.6902 109.802 29.6902 109.863 29.6666C109.959 29.6115 110.039 29.5315 110.094 29.4351C110.148 29.3386 110.176 29.2293 110.174 29.1184C110.184 28.9937 110.165 28.8685 110.119 28.7521C110.107 28.7063 110.085 28.6641 110.053 28.6292C110.021 28.5942 109.982 28.5676 109.937 28.5517C109.909 28.5423 109.878 28.5436 109.85 28.5552C109.822 28.5668 109.8 28.5881 109.787 28.615C109.766 28.6545 109.774 28.6835 109.766 28.6862C109.758 28.6888 109.734 28.6598 109.75 28.6018C109.758 28.5653 109.78 28.5331 109.811 28.5122C109.851 28.4838 109.901 28.4725 109.95 28.4806C110.011 28.4934 110.068 28.5221 110.114 28.5637C110.16 28.6054 110.195 28.6585 110.214 28.7178C110.271 28.8452 110.295 28.9846 110.285 29.1237C110.287 29.2533 110.251 29.3807 110.18 29.4896C110.11 29.5985 110.009 29.684 109.89 29.7352C109.85 29.7455 109.809 29.7465 109.769 29.7383C109.73 29.7301 109.692 29.7128 109.66 29.6877C109.61 29.6614 109.602 29.6403 109.608 29.6245Z" fill="#B26746"/>
<path d="M111.366 27.6083C111.366 27.6083 111.413 27.5293 111.482 27.3764C111.574 27.1637 111.618 26.9333 111.611 26.7016C111.601 26.3591 111.469 26.0314 111.237 25.7792C111.105 25.6298 110.945 25.5087 110.765 25.4233C110.567 25.3371 110.354 25.2897 110.137 25.2836C109.689 25.2626 109.252 25.3311 108.849 25.2836C108.492 25.2454 108.152 25.1116 107.865 24.8962C107.673 24.7524 107.509 24.5736 107.383 24.369C107.333 24.297 107.295 24.2167 107.272 24.1318C107.436 24.4063 107.653 24.6455 107.91 24.8356C108.19 25.0346 108.517 25.1572 108.859 25.1914C109.247 25.2336 109.679 25.1624 110.143 25.1914C110.373 25.1978 110.599 25.2488 110.81 25.3416C111.004 25.4308 111.177 25.5602 111.318 25.7212C111.521 25.9471 111.649 26.2296 111.686 26.5306C111.724 26.8317 111.668 27.1369 111.526 27.4054C111.488 27.4835 111.433 27.5527 111.366 27.6083Z" fill="#455A64"/>
<path d="M111.366 24.3925C111.185 24.2856 110.98 24.2257 110.77 24.2186C110.544 24.2165 110.319 24.2549 110.106 24.3319C109.861 24.411 109.6 24.5322 109.315 24.6245C109.038 24.7183 108.742 24.7436 108.453 24.6983C108.217 24.6568 107.992 24.5671 107.792 24.4347C107.658 24.3486 107.538 24.2429 107.436 24.121C107.395 24.0796 107.363 24.0303 107.341 23.9761C107.488 24.1223 107.648 24.2538 107.821 24.3688C108.018 24.4821 108.234 24.5581 108.459 24.5928C108.733 24.6284 109.011 24.6004 109.273 24.5111C109.558 24.4241 109.821 24.3029 110.064 24.2265C110.29 24.1517 110.527 24.1195 110.765 24.1316C110.926 24.1422 111.083 24.1891 111.223 24.2686C111.329 24.3372 111.368 24.3872 111.366 24.3925Z" fill="#455A64"/>
<path d="M101.621 23.2593C101.667 23.3431 101.723 23.421 101.787 23.4912C101.883 23.5768 101.995 23.6419 102.116 23.6827C102.238 23.7235 102.366 23.7391 102.494 23.7284C102.875 23.677 103.228 23.4966 103.493 23.2171C103.82 22.9298 104.138 22.5371 104.621 22.3052C104.856 22.1933 105.119 22.153 105.377 22.1892C105.615 22.2281 105.842 22.318 106.041 22.4528C106.375 22.6754 106.648 22.9792 106.832 23.3357C106.96 23.5688 107.07 23.8111 107.162 24.0605C107.202 24.15 107.232 24.2437 107.251 24.3399C107.2 24.2565 107.156 24.1682 107.122 24.0764C107.017 23.8353 106.898 23.6004 106.766 23.3726C106.581 23.0302 106.314 22.7387 105.989 22.5239C105.8 22.4022 105.587 22.3222 105.364 22.2894C105.125 22.2581 104.883 22.2965 104.666 22.4C104.215 22.6135 103.896 22.9957 103.561 23.2856C103.281 23.5769 102.908 23.763 102.507 23.8128C102.37 23.8194 102.234 23.7972 102.106 23.7477C101.979 23.6983 101.863 23.6225 101.766 23.5255C101.716 23.4712 101.677 23.4077 101.65 23.3384C101.636 23.3142 101.626 23.2873 101.621 23.2593Z" fill="#455A64"/>
<path d="M106.632 21.8096C106.748 21.8745 106.848 21.9646 106.924 22.0731C107.123 22.3257 107.262 22.6203 107.33 22.9346C107.397 23.2489 107.392 23.5745 107.314 23.8865C107.291 24.0172 107.238 24.1408 107.159 24.2476C107.177 24.1195 107.203 23.9927 107.238 23.8681C107.293 23.566 107.288 23.2561 107.222 22.9561C107.156 22.6563 107.034 22.3719 106.861 22.1179C106.779 22.0198 106.702 21.9169 106.632 21.8096Z" fill="#455A64"/>
<path d="M82.9448 20.1148C82.9448 20.1148 80.9601 20.9714 81.1236 22.5133C81.241 23.5138 81.4582 24.5001 81.7719 25.4574C81.7719 25.4574 78.6539 23.0853 75.6044 24.0447L75.5859 24.751C75.5859 24.751 77.7736 24.4875 79.6476 25.5207C81.5215 26.5539 83.978 30.2649 83.978 30.2649L90.1377 27.5001L88.6801 25.1279C88.6801 25.1279 88.8857 22.8744 88.92 22.2471C88.97 21.2877 87.7892 17.5767 82.9448 20.1148ZM88.1292 21.6752C88.1925 22.2234 87.7286 23.0484 87.7286 23.0484L87.0829 21.5381L82.191 23.2276C82.191 23.2276 81.3107 21.7674 83.0977 20.8133C84.152 20.2519 85.2985 20.1965 86.047 20.1623C86.3948 20.1392 86.7427 20.2042 87.0587 20.3512C87.3748 20.4981 87.6486 20.7223 87.8551 21.0031C88.0013 21.2006 88.0956 21.4317 88.1292 21.6752Z" fill="#32959D"/>
<path d="M88.8884 19.1186L86.2211 19L84.0334 19.9489C84.0334 19.9489 84.1336 20.2915 84.3418 20.2651C84.7593 20.1796 85.1698 20.0633 85.5701 19.9172L84.8716 20.5287L84.8426 20.9768C84.8426 20.9768 85.5305 21.8176 85.6518 21.728C85.7553 21.614 85.8367 21.4817 85.8916 21.3379L86.3713 22.0258H87.1199L87.4625 21.5645L87.8341 21.8597C87.8341 21.8597 88.7698 22.7058 89.3049 22.5108C89.6159 22.3974 90.1852 23.7943 90.1852 23.7943L92.2041 22.5239L90.8467 20.8476L88.8884 19.1186Z" fill="#D38D6E"/>
<path d="M87.9502 19.9568C87.7995 20.0004 87.6432 20.0218 87.4863 20.0201L86.9882 20.0491C86.8988 20.0528 86.8102 20.0678 86.7246 20.0939C86.6339 20.1407 86.5459 20.1926 86.4611 20.2494C86.2818 20.368 86.1158 20.4919 85.9682 20.6079C85.8206 20.7238 85.7046 20.8214 85.7389 20.9479C85.8127 21.2114 85.9339 21.3511 85.9128 21.3643C85.8917 21.3775 85.7521 21.2615 85.6493 20.9742C85.6336 20.9304 85.629 20.8835 85.6359 20.8375C85.6428 20.7915 85.661 20.7479 85.6888 20.7107C85.7483 20.6361 85.8165 20.5689 85.8917 20.5103C86.0499 20.3754 86.2162 20.2504 86.3899 20.1361C86.4815 20.0709 86.5795 20.0153 86.6825 19.97C86.7828 19.9371 86.8879 19.921 86.9935 19.9226H87.5022C87.6524 19.9097 87.8037 19.9213 87.9502 19.9568Z" fill="#B26746"/>
<path d="M87.1199 22.0498C87.1015 22.0498 87.17 21.9074 87.2833 21.7098C87.3123 21.6597 87.3413 21.6043 87.3703 21.5463C87.3826 21.5213 87.3915 21.4947 87.3966 21.4673C87.3966 21.4673 87.3966 21.4673 87.3966 21.4515C87.3912 21.44 87.3841 21.4293 87.3756 21.4198C87.3201 21.3793 87.2532 21.3575 87.1845 21.3575C87.1158 21.3575 87.0489 21.3793 86.9934 21.4198L86.8827 21.4752L86.7983 21.5174L86.7773 21.4198L86.7219 21.1563C86.7008 21.0772 86.6613 21.0166 86.6191 21.006L86.4373 20.9691L86.6059 20.8927C86.772 20.8163 86.9117 20.7556 87.0118 20.7187C87.052 20.7022 87.0934 20.689 87.1357 20.6792C87.17 20.6792 87.1858 20.6792 87.1832 20.6976C87.1351 20.7231 87.0884 20.7513 87.0435 20.782C86.9539 20.84 86.8194 20.9138 86.6587 21.0034L86.6455 20.8874C86.6966 20.9038 86.7426 20.9334 86.7787 20.9732C86.8148 21.013 86.8397 21.0616 86.8511 21.1141C86.8748 21.2116 86.8959 21.3065 86.9196 21.4067L86.8142 21.3513L86.9328 21.2907C87.0195 21.2472 87.1152 21.2247 87.2122 21.2248C87.2621 21.2258 87.3112 21.2371 87.3565 21.258C87.4019 21.2789 87.4425 21.3088 87.4757 21.346C87.4922 21.3639 87.5055 21.3844 87.5153 21.4067C87.5216 21.4175 87.5269 21.429 87.5311 21.4409C87.5351 21.4592 87.5351 21.478 87.5311 21.4963C87.5226 21.5371 87.5075 21.5763 87.4863 21.6122C87.4541 21.6694 87.4189 21.7249 87.3808 21.7783C87.2306 21.9522 87.1357 22.0577 87.1199 22.0498Z" fill="#B26746"/>
<path d="M87.834 19.3849C87.3487 19.4536 86.8581 19.4774 86.3685 19.4561L86.4186 19.4376C86.3711 19.4798 86.3237 19.5219 86.2736 19.5615C85.9152 19.8488 85.5804 20.0886 85.338 20.2626C85.2128 20.3677 85.0746 20.4563 84.9268 20.5261C84.8952 20.4893 85.4697 20.0175 86.1814 19.4561L86.3211 19.3401L86.3422 19.319H86.3685C86.858 19.2975 87.3484 19.3196 87.834 19.3849Z" fill="#B26746"/>
<path d="M74.7373 24.7641C73.732 24.7857 72.7515 25.0807 71.9013 25.6175C71.051 26.1543 70.3631 26.9126 69.9113 27.8109C69.6797 28.2146 69.5871 28.6832 69.6477 29.1446C69.7426 29.5953 70.1511 30.0065 70.6098 29.9617C70.7682 29.9339 70.9196 29.8751 71.0553 29.7887C71.1909 29.7023 71.3083 29.59 71.4005 29.4582C72.012 28.7097 72.2492 27.7345 72.6103 26.8225C72.9714 25.9106 73.5591 25.0118 74.4869 24.7456" fill="#F5F5F5"/>
<path d="M74.8111 28.992C74.7235 28.7012 74.6161 28.4167 74.4895 28.1406C74.2926 27.6515 74.1571 27.1397 74.0863 26.6172L73.9597 26.7358C73.4172 27.4854 73.184 28.4151 73.3087 29.332C73.3311 29.5519 73.3993 29.7647 73.509 29.9566C73.5649 30.0524 73.6411 30.1348 73.7321 30.198C73.8232 30.2613 73.9269 30.304 74.0362 30.323C74.1881 30.334 74.3397 30.2979 74.4703 30.2196C74.601 30.1413 74.7043 30.0246 74.7663 29.8855C74.8849 29.602 74.9008 29.2859 74.8111 28.992Z" fill="#F5F5F5"/>
<path d="M72.0912 31.1666C71.7613 31.3602 71.465 31.6058 71.2135 31.894C71.089 32.0402 71.0017 32.2144 70.959 32.4016C70.9163 32.5889 70.9195 32.7836 70.9684 32.9694C71.0272 33.1509 71.1547 33.3022 71.3237 33.3909C71.4926 33.4796 71.6896 33.4986 71.8724 33.4438C72.273 33.2751 72.3574 32.7453 72.2862 32.3184C72.2151 31.8914 72.0464 31.4591 72.1597 31.04" fill="#F5F5F5"/>
<path d="M114.771 53.9466L112.844 49.1443L113.456 46.8302L112.523 36.0554L110.056 34.5689L109.937 33.6095L109.26 33.7228L108.129 34.7428L98.8013 30.5916L92.7049 22.189L89.8057 23.9285L95.4039 34.5425L105.976 40.5756L105.955 40.6468C106.049 40.7021 110.62 78.6325 112.575 78.7459C114.531 78.8592 117.881 73.8909 121.835 73.7749C124.394 73.7011 125.285 74.165 125.599 74.4971C124.225 71.9089 114.982 54.3182 114.771 53.9466Z" fill="#F5F5F5"/>
<path d="M114.771 53.9466C114.771 53.9466 114.839 54.0679 114.969 54.3051L115.533 55.3594L117.697 59.4421C119.573 62.9924 122.283 68.1267 125.63 74.4656L125.793 74.7739L125.546 74.5236C125.234 74.2512 124.854 74.069 124.447 73.9964C124.029 73.9052 123.605 73.8488 123.179 73.8277C122.317 73.7935 121.418 73.7592 120.543 74.0175C119.669 74.297 118.842 74.7086 118.092 75.2378C117.301 75.765 116.563 76.3501 115.809 76.9589C115.43 77.2647 115.048 77.5731 114.65 77.8683C114.253 78.1786 113.824 78.4438 113.369 78.659C113.13 78.7676 112.872 78.8242 112.61 78.825C112.532 78.823 112.457 78.7931 112.399 78.7407C112.35 78.6931 112.307 78.64 112.27 78.5825C112.198 78.4736 112.136 78.359 112.083 78.2399C111.881 77.7641 111.715 77.2744 111.584 76.7744C111.039 74.7766 110.646 72.6865 110.251 70.5463C109.481 66.2606 108.798 61.7509 108.124 57.0752C107.449 52.3995 106.806 47.5577 106.16 42.5999C106.115 42.2784 106.073 41.9568 106.031 41.6352L105.965 41.1529L105.931 40.9131L105.912 40.7945V40.7365V40.7075V40.6943C105.918 40.707 105.929 40.7173 105.941 40.7233L105.91 40.639L105.931 40.5678L105.965 40.6495L95.3933 34.6164H95.3748V34.5979L89.7529 23.9576L89.7239 23.9022L89.7792 23.8706L92.6785 22.1337L92.7312 22.1021L92.7655 22.1521L98.8513 30.5574L98.8276 30.5363L108.161 34.6954L108.087 34.7534V34.7244L108.108 34.7033L109.231 33.6728H109.247L109.924 33.5621H109.974V33.6148L110.09 34.5716L110.066 34.5373L112.533 36.0238L112.56 36.0607C112.929 40.4017 113.237 44.0285 113.474 46.8381V46.8513C113.211 47.8028 113.031 48.5144 112.86 49.1628V49.147C113.477 50.7021 113.949 51.8881 114.268 52.6947C114.586 53.5012 114.753 53.9308 114.763 53.9677L114.742 53.9334L114.76 53.9677L114.739 53.9334L114.758 53.9677C114.739 53.9334 114.563 53.5091 114.231 52.7052L112.821 49.1444V49.1286C112.989 48.4775 113.176 47.7659 113.424 46.8144C113.176 44.0047 112.857 40.378 112.478 36.0396L112.502 36.0792L110.032 34.5953H110.011V34.5716L109.892 33.6122L109.95 33.657L109.273 33.7703H109.299L108.179 34.8035L108.195 34.7534L108.216 34.8509L108.124 34.8114L98.7775 30.647H98.7617L92.6521 22.2286L92.7391 22.247L89.8398 23.9839L89.8636 23.897L95.4776 34.5083L95.4486 34.4819L106.02 40.5124L106.071 40.5414L106.052 40.5968L106.031 40.6679L105.997 40.5862C106.013 40.597 106.025 40.6127 106.031 40.631V40.6469V40.6627V40.6943V40.7549L106.049 40.8762L106.084 41.1187L106.15 41.601C106.192 41.9225 106.234 42.2441 106.279 42.5656C106.927 47.5234 107.57 52.3652 108.24 57.0409C108.909 61.7167 109.592 66.2237 110.348 70.5067C110.741 72.6443 111.139 74.7239 111.666 76.7244C111.795 77.2176 111.959 77.7011 112.156 78.1714C112.206 78.2841 112.265 78.3925 112.333 78.4956C112.401 78.5931 112.481 78.6932 112.575 78.6827C112.819 78.6831 113.061 78.6301 113.282 78.5272C113.728 78.3192 114.15 78.062 114.539 77.7602C114.934 77.465 115.314 77.1593 115.693 76.8535C116.45 76.2447 117.201 75.6464 117.989 75.1298C118.764 74.5984 119.617 74.1903 120.517 73.92C120.952 73.796 121.401 73.7261 121.853 73.7118C122.299 73.7118 122.739 73.7118 123.171 73.7302C123.609 73.7564 124.043 73.8199 124.47 73.92C124.897 73.9933 125.296 74.183 125.622 74.4682L125.538 74.5288C122.209 68.1794 119.513 63.0398 117.647 59.4842L115.509 55.3804C115.266 54.9113 115.079 54.5555 114.955 54.3262C114.832 54.0969 114.771 53.9466 114.771 53.9466Z" fill="#E0E0E0"/>
<path d="M109.602 42.0494C109.395 42.0897 109.181 42.0619 108.991 41.9703C108.525 41.8075 108.07 41.6165 107.628 41.3984C107.101 41.1348 106.645 40.9108 106.31 40.7421C106.125 40.6644 105.948 40.5673 105.783 40.4521C105.984 40.4924 106.179 40.5588 106.363 40.6498C106.714 40.7948 107.185 41.0188 107.705 41.2692C108.224 41.5196 108.693 41.7331 109.041 41.8754C109.223 41.9488 109.411 42.007 109.602 42.0494Z" fill="#263238"/>
<path d="M112.011 38.5462C111.977 38.264 111.926 37.9842 111.858 37.708C111.663 37.053 111.253 36.4829 110.693 36.0897C110.116 35.7155 109.513 35.3835 108.888 35.096C108.623 34.9814 108.372 34.8354 108.142 34.6611C108.411 34.7615 108.675 34.8759 108.933 35.0038C109.578 35.2668 110.196 35.5916 110.778 35.9737C111.363 36.3827 111.782 36.9891 111.956 37.6816C112.009 37.8882 112.036 38.1008 112.035 38.3142C112.04 38.3923 112.032 38.4708 112.011 38.5462Z" fill="#263238"/>
<path d="M112.283 51.3978C112.272 50.9968 112.32 50.5964 112.425 50.2091C112.484 49.813 112.604 49.4282 112.778 49.0679C112.742 49.4643 112.67 49.8568 112.565 50.2408C112.508 50.6346 112.414 51.022 112.283 51.3978Z" fill="#263238"/>
<path d="M113.975 56.5878C113.881 56.759 113.752 56.9082 113.595 57.0254C113.235 57.3328 112.81 57.5553 112.351 57.6764C111.893 57.7973 111.413 57.8144 110.946 57.7264C110.753 57.7023 110.567 57.6367 110.401 57.534C110.401 57.5103 110.617 57.5815 110.965 57.6263C111.877 57.7419 112.797 57.498 113.532 56.9463C113.811 56.7354 113.956 56.5694 113.975 56.5878Z" fill="#263238"/>
<path d="M121.834 70.8574C121.714 70.8908 121.59 70.9111 121.465 70.918C121.347 70.9338 121.202 70.947 121.031 70.9549C120.859 70.9628 120.667 70.976 120.453 70.9707C119.95 70.9717 119.447 70.9365 118.948 70.8653C117.725 70.6917 116.539 70.3177 115.438 69.7583C114.988 69.5308 114.556 69.2719 114.143 68.9834C113.964 68.8648 113.817 68.7409 113.68 68.6381C113.543 68.5353 113.434 68.4404 113.345 68.3587C113.248 68.2799 113.16 68.1916 113.081 68.0951C113.097 68.0741 113.495 68.4246 114.204 68.8859C114.62 69.1595 115.052 69.4068 115.498 69.6265C116.593 70.1665 117.765 70.5354 118.972 70.7203C119.464 70.7955 119.959 70.8412 120.456 70.8574C121.307 70.8916 121.834 70.831 121.834 70.8574Z" fill="#263238"/>
<path d="M125.648 74.542C125.648 74.542 125.611 74.521 125.551 74.4735C125.469 74.398 125.381 74.3292 125.287 74.2679C124.935 74.0457 124.546 73.8894 124.138 73.8067C123.532 73.6821 122.911 73.6422 122.293 73.6881C121.536 73.7316 120.789 73.8779 120.071 74.123C118.532 74.6501 117.385 75.6069 116.576 76.2816L115.625 77.1092C115.514 77.2169 115.394 77.3148 115.266 77.4018C115.365 77.2819 115.472 77.1699 115.588 77.067C115.801 76.8588 116.115 76.561 116.51 76.2052C116.976 75.787 117.465 75.3963 117.976 75.0349C118.605 74.5875 119.294 74.2325 120.024 73.9806C120.754 73.7316 121.515 73.5861 122.285 73.5484C122.914 73.5073 123.545 73.5588 124.159 73.7013C124.575 73.7946 124.968 73.9693 125.316 74.2152C125.412 74.2823 125.5 74.3591 125.58 74.4445C125.627 74.5078 125.654 74.5394 125.648 74.542Z" fill="#263238"/>
<path d="M115.646 61.4956C115.646 61.4956 115.646 61.5246 115.612 61.5746C115.571 61.6464 115.525 61.7151 115.475 61.7802C115.283 62.0218 115.044 62.2225 114.774 62.3706C114.371 62.5908 113.914 62.6914 113.456 62.6605C112.891 62.6047 112.361 62.3638 111.948 61.9753C111.536 61.5976 111.211 61.1343 110.997 60.6179C110.823 60.2007 110.693 59.7671 110.607 59.3237C110.533 58.9468 110.491 58.6411 110.464 58.4302C110.444 58.3207 110.435 58.2095 110.438 58.0981C110.477 58.202 110.504 58.3098 110.52 58.4197C110.562 58.6279 110.62 58.9337 110.707 59.3027C110.805 59.7352 110.943 60.1578 111.118 60.5652C111.33 61.0606 111.646 61.5053 112.043 61.8698C112.434 62.2365 112.933 62.4676 113.466 62.5288C113.903 62.5653 114.341 62.4785 114.731 62.2784C115.089 62.0857 115.401 61.8188 115.646 61.4956Z" fill="#263238"/>
<path d="M97.1094 65.8469L92.1121 130L95.3592 129.942L100.981 65.8047L97.1094 65.8469Z" fill="#455A64"/>
<path d="M102.009 65.7944L98.2029 65.8471L117.148 129.926H120.886L102.009 65.7944Z" fill="#455A64"/>
<path d="M97.4096 95.3643H107.902L108.78 97.8603H96.698L97.4096 95.3643Z" fill="#455A64"/>
<path d="M99.9898 64.284L96.8955 64.6267L95.0057 65.8101C95.0057 65.8101 94.9688 66.1949 95.5064 66.1343L96.5607 65.6836L95.7173 66.6061C95.751 66.6605 95.7958 66.7071 95.8489 66.7429C95.902 66.7786 95.962 66.8027 96.0251 66.8134C96.0882 66.8241 96.1528 66.8213 96.2148 66.8051C96.2767 66.7889 96.3344 66.7597 96.3841 66.7194C96.6731 66.5525 96.928 66.3325 97.1353 66.071L98.9961 65.9393C98.9961 65.9393 97.5887 67.2914 97.847 67.6446C98.1053 67.9977 98.2739 67.9213 98.4769 67.7922C98.6798 67.663 98.7905 67.2176 99.2544 67.07C99.7183 66.9224 100.483 66.4901 101.31 66.0974C102.022 65.76 102.747 63.3457 102.747 63.3457L100.375 62.8818L99.9898 64.284Z" fill="#D38D6E"/>
<path d="M98.7591 65.0747C98.1817 65.2321 97.5931 65.3449 96.9984 65.4121H96.9721L97.0116 65.391C96.6176 65.8295 96.1883 66.235 95.728 66.6034C96.0858 66.1333 96.4807 65.6926 96.9088 65.2856L96.9273 65.2671H96.9773C97.5651 65.1549 98.161 65.0906 98.7591 65.0747Z" fill="#B26746"/>
</g>
<defs>
<clipPath id="clip0_560_8971">
<rect width="148" height="200" fill="white"/>
</clipPath>
</defs>
</svg>
