<svg width="148" height="200" viewBox="0 0 148 200" fill="none" xmlns="http://www.w3.org/2000/svg">
<g clip-path="url(#clip0_560_8977)">
<rect opacity="0.2" width="148" height="200" rx="15" fill="#F7CF6A"/>
<path d="M63.8255 33.032C49.9039 35.3344 40.446 26.269 37.923 11.2693C35.1898 -4.57686 38.9036 -21.2348 48.1132 -34.4244C54.5212 -42.8857 66.9694 -34.1953 61.2333 -25.2635C54.4149 -15.5012 51.6714 -3.18775 53.6903 8.54999C55.6116 18.6397 59.2361 19.2698 67.4591 14.6518C63.8539 8.19978 62.6867 -0.377847 64.0912 -10.6681C64.8543 -16.2453 66.2327 -22.652 70.7229 -27.8812C75.9466 -33.9606 86.004 -37.2165 93.7836 -32.1403C106.537 -24.0824 101.516 -1.99501 94.4556 9.50569C98.6772 7.18741 101.917 2.75749 104.021 -3.2187C105.468 -7.3934 110.023 -9.60795 114.198 -8.16089C118.372 -6.71384 120.587 -2.1592 119.14 2.0155C116.853 8.62308 112.188 17.6402 102.997 23.0482C95.793 27.2835 87.2693 28.0655 80.0802 25.4746C75.4205 28.9363 69.282 32.1308 63.8157 33.0337L63.8255 33.032ZM84.8926 -18.6413C79.6262 -17.6416 78.9482 -3.00148 79.971 2.45378C83.0314 -2.3608 85.0267 -7.86083 85.5986 -13.4856C85.8887 -16.3901 85.4168 -18.1448 85.0913 -18.6662L84.8944 -18.6315L84.8926 -18.6413Z" fill="#765A5A" fill-opacity="0.05"/>
<path d="M18.6753 153.188C18.6753 153.007 18.6484 152.846 18.5947 152.704C18.541 152.558 18.4434 152.423 18.3018 152.301C18.1602 152.179 17.96 152.057 17.7012 151.935C17.4424 151.808 17.103 151.679 16.6831 151.547C16.2046 151.391 15.748 151.215 15.3135 151.02C14.8838 150.819 14.5005 150.587 14.1636 150.324C13.8267 150.06 13.5605 149.752 13.3652 149.401C13.1748 149.049 13.0796 148.639 13.0796 148.17C13.0796 147.716 13.1797 147.306 13.3799 146.94C13.5801 146.574 13.8608 146.261 14.2222 146.002C14.5835 145.739 15.0083 145.539 15.4966 145.402C15.9849 145.26 16.522 145.189 17.1079 145.189C17.8892 145.189 18.5752 145.329 19.166 145.607C19.7617 145.88 20.2256 146.266 20.5576 146.764C20.8896 147.257 21.0557 147.831 21.0557 148.485H18.6826C18.6826 148.197 18.6216 147.943 18.4995 147.724C18.3823 147.499 18.2017 147.323 17.9575 147.196C17.7183 147.069 17.418 147.006 17.0566 147.006C16.7051 147.006 16.4097 147.06 16.1704 147.167C15.936 147.27 15.7578 147.411 15.6357 147.592C15.5186 147.772 15.46 147.97 15.46 148.185C15.46 148.356 15.5039 148.512 15.5918 148.654C15.6846 148.791 15.8164 148.92 15.9873 149.042C16.1631 149.159 16.3779 149.271 16.6318 149.379C16.8857 149.486 17.1763 149.589 17.5034 149.687C18.0747 149.867 18.5801 150.067 19.0195 150.287C19.4639 150.507 19.8374 150.756 20.1401 151.034C20.4429 151.312 20.6699 151.627 20.8213 151.979C20.9775 152.331 21.0557 152.729 21.0557 153.173C21.0557 153.646 20.9629 154.066 20.7773 154.433C20.5967 154.799 20.333 155.111 19.9863 155.37C19.6445 155.624 19.2344 155.817 18.7559 155.949C18.2773 156.081 17.7427 156.146 17.1519 156.146C16.6147 156.146 16.085 156.078 15.5625 155.941C15.04 155.8 14.5664 155.585 14.1416 155.297C13.7217 155.009 13.3848 154.643 13.1309 154.198C12.8818 153.749 12.7573 153.217 12.7573 152.602H15.145C15.145 152.924 15.1914 153.197 15.2842 153.422C15.377 153.642 15.5088 153.82 15.6797 153.957C15.8555 154.093 16.0679 154.191 16.3169 154.25C16.5659 154.308 16.8442 154.337 17.1519 154.337C17.5083 154.337 17.7964 154.289 18.0161 154.191C18.2407 154.088 18.4067 153.949 18.5142 153.773C18.6216 153.598 18.6753 153.402 18.6753 153.188ZM26.0801 156.146C25.4502 156.146 24.8862 156.046 24.3882 155.846C23.8901 155.646 23.4678 155.37 23.1211 155.019C22.7793 154.662 22.5181 154.252 22.3374 153.788C22.1567 153.324 22.0664 152.829 22.0664 152.301V152.023C22.0664 151.432 22.1494 150.888 22.3154 150.39C22.4814 149.892 22.7231 149.459 23.0405 149.093C23.3628 148.722 23.7583 148.437 24.2271 148.236C24.6958 148.031 25.2305 147.929 25.8311 147.929C26.3926 147.929 26.8931 148.021 27.3325 148.207C27.772 148.388 28.1431 148.649 28.4458 148.991C28.7485 149.328 28.978 149.735 29.1343 150.214C29.2954 150.688 29.376 151.22 29.376 151.811V152.748H22.9893V151.276H27.1348V151.1C27.1348 150.822 27.0835 150.578 26.981 150.368C26.8833 150.158 26.7368 149.997 26.5415 149.884C26.3511 149.767 26.1094 149.708 25.8164 149.708C25.5381 149.708 25.3062 149.767 25.1206 149.884C24.9351 150.001 24.7861 150.167 24.6738 150.382C24.5664 150.592 24.4883 150.839 24.4395 151.122C24.3906 151.4 24.3662 151.701 24.3662 152.023V152.301C24.3662 152.609 24.4077 152.89 24.4907 153.144C24.5737 153.397 24.6958 153.615 24.8569 153.795C25.0181 153.976 25.2134 154.118 25.4429 154.22C25.6724 154.323 25.9336 154.374 26.2266 154.374C26.5879 154.374 26.9321 154.306 27.2593 154.169C27.5864 154.027 27.8696 153.808 28.1089 153.51L29.1782 154.733C29.0171 154.967 28.79 155.194 28.4971 155.414C28.209 155.629 27.8623 155.805 27.457 155.941C27.0518 156.078 26.5928 156.146 26.0801 156.146ZM32.8989 144.75V156H30.6064V144.75H32.8989ZM37.396 156H35.0962V147.401C35.0962 146.791 35.2158 146.278 35.4551 145.863C35.6992 145.448 36.0435 145.133 36.4878 144.918C36.9321 144.704 37.457 144.596 38.0625 144.596C38.2725 144.596 38.4678 144.611 38.6484 144.64C38.834 144.665 39.0146 144.699 39.1904 144.743V146.449C39.0977 146.425 39.0024 146.408 38.9048 146.398C38.8071 146.388 38.6899 146.383 38.5532 146.383C38.3091 146.383 38.0991 146.422 37.9233 146.5C37.7524 146.574 37.6206 146.688 37.5278 146.845C37.4399 146.996 37.396 147.182 37.396 147.401V156ZM38.9634 148.075V149.679H33.939V148.075H38.9634ZM44.4346 150.521V152.309H40.1719V150.521H44.4346ZM49.5908 154.367C49.835 154.367 50.0474 154.32 50.228 154.228C50.4087 154.135 50.5479 154.005 50.6455 153.839C50.748 153.668 50.7993 153.463 50.7993 153.224H52.9526C52.9526 153.8 52.8037 154.308 52.5059 154.748C52.2129 155.187 51.8174 155.531 51.3193 155.78C50.8213 156.024 50.2598 156.146 49.6348 156.146C49.0195 156.146 48.4824 156.046 48.0234 155.846C47.5645 155.641 47.1812 155.355 46.8735 154.989C46.5659 154.623 46.334 154.198 46.1777 153.715C46.0264 153.227 45.9507 152.699 45.9507 152.133V151.942C45.9507 151.381 46.0264 150.856 46.1777 150.368C46.334 149.879 46.5659 149.452 46.8735 149.086C47.1812 148.72 47.562 148.437 48.0161 148.236C48.4751 148.031 49.0122 147.929 49.6274 147.929C50.2769 147.929 50.8506 148.053 51.3486 148.302C51.8516 148.551 52.2446 148.91 52.5278 149.379C52.811 149.843 52.9526 150.402 52.9526 151.056H50.7993C50.7993 150.802 50.7529 150.575 50.6602 150.375C50.5723 150.17 50.4355 150.009 50.25 149.892C50.0693 149.77 49.8447 149.708 49.5762 149.708C49.2979 149.708 49.0684 149.77 48.8877 149.892C48.7119 150.009 48.5776 150.172 48.4849 150.382C48.3921 150.592 48.3286 150.832 48.2944 151.1C48.2603 151.364 48.2432 151.645 48.2432 151.942V152.133C48.2432 152.436 48.2603 152.724 48.2944 152.997C48.3286 153.266 48.3921 153.502 48.4849 153.708C48.5825 153.913 48.7192 154.074 48.895 154.191C49.0708 154.308 49.3027 154.367 49.5908 154.367ZM58.2847 154.11V150.712C58.2847 150.473 58.248 150.268 58.1748 150.097C58.1016 149.926 57.9868 149.792 57.8306 149.694C57.6743 149.596 57.4717 149.547 57.2227 149.547C57.0127 149.547 56.8296 149.584 56.6733 149.657C56.522 149.73 56.4048 149.835 56.3218 149.972C56.2437 150.109 56.2046 150.277 56.2046 150.478H53.9194C53.9194 150.121 54 149.789 54.1611 149.481C54.3223 149.174 54.5518 148.903 54.8496 148.668C55.1523 148.434 55.5137 148.253 55.9336 148.126C56.3535 147.995 56.8247 147.929 57.3472 147.929C57.9673 147.929 58.519 148.034 59.0024 148.244C59.4907 148.449 59.8765 148.759 60.1597 149.174C60.4429 149.584 60.5845 150.102 60.5845 150.727V154.044C60.5845 154.523 60.6113 154.899 60.665 155.172C60.7236 155.441 60.8066 155.675 60.9141 155.875V156H58.6069C58.4995 155.771 58.4189 155.487 58.3652 155.15C58.3115 154.809 58.2847 154.462 58.2847 154.11ZM58.5703 151.166L58.585 152.426H57.4497C57.1958 152.426 56.9761 152.458 56.7905 152.521C56.6099 152.584 56.4634 152.672 56.3511 152.785C56.2388 152.892 56.1558 153.019 56.1021 153.166C56.0532 153.307 56.0288 153.463 56.0288 153.634C56.0288 153.795 56.0679 153.942 56.146 154.074C56.2241 154.201 56.3315 154.301 56.4683 154.374C56.605 154.447 56.7637 154.484 56.9443 154.484C57.2422 154.484 57.4961 154.425 57.7061 154.308C57.9209 154.191 58.0869 154.049 58.2041 153.883C58.3213 153.712 58.3799 153.554 58.3799 153.407L58.9292 154.359C58.8413 154.555 58.7339 154.757 58.6069 154.967C58.48 155.172 58.3188 155.365 58.1235 155.546C57.9282 155.722 57.6914 155.866 57.4131 155.978C57.1396 156.09 56.8101 156.146 56.4243 156.146C55.9263 156.146 55.4746 156.046 55.0693 155.846C54.6641 155.641 54.3394 155.36 54.0952 155.004C53.856 154.647 53.7363 154.237 53.7363 153.773C53.7363 153.358 53.812 152.99 53.9634 152.667C54.1147 152.345 54.3418 152.072 54.6445 151.847C54.9521 151.623 55.3379 151.454 55.8018 151.342C56.2656 151.225 56.8076 151.166 57.4277 151.166H58.5703ZM64.3784 149.921V156H62.0933V148.075H64.2393L64.3784 149.921ZM66.7441 148.017L66.7075 150.148C66.6099 150.133 66.4829 150.121 66.3267 150.111C66.1704 150.097 66.0361 150.089 65.9238 150.089C65.6309 150.089 65.377 150.126 65.1621 150.199C64.9521 150.268 64.7764 150.37 64.6348 150.507C64.498 150.644 64.3955 150.814 64.3271 151.02C64.2588 151.22 64.2246 151.452 64.2246 151.715L63.7925 151.503C63.7925 150.98 63.8438 150.502 63.9463 150.067C64.0488 149.633 64.1978 149.257 64.3931 148.939C64.5884 148.617 64.8276 148.368 65.1108 148.192C65.394 148.017 65.7163 147.929 66.0776 147.929C66.1948 147.929 66.3145 147.936 66.4365 147.951C66.5586 147.965 66.6611 147.987 66.7441 148.017ZM71.2705 156.146C70.6406 156.146 70.0767 156.046 69.5786 155.846C69.0806 155.646 68.6582 155.37 68.3115 155.019C67.9697 154.662 67.7085 154.252 67.5278 153.788C67.3472 153.324 67.2568 152.829 67.2568 152.301V152.023C67.2568 151.432 67.3398 150.888 67.5059 150.39C67.6719 149.892 67.9136 149.459 68.231 149.093C68.5532 148.722 68.9487 148.437 69.4175 148.236C69.8862 148.031 70.4209 147.929 71.0215 147.929C71.583 147.929 72.0835 148.021 72.5229 148.207C72.9624 148.388 73.3335 148.649 73.6362 148.991C73.939 149.328 74.1685 149.735 74.3247 150.214C74.4858 150.688 74.5664 151.22 74.5664 151.811V152.748H68.1797V151.276H72.3252V151.1C72.3252 150.822 72.2739 150.578 72.1714 150.368C72.0737 150.158 71.9272 149.997 71.7319 149.884C71.5415 149.767 71.2998 149.708 71.0068 149.708C70.7285 149.708 70.4966 149.767 70.311 149.884C70.1255 150.001 69.9766 150.167 69.8643 150.382C69.7568 150.592 69.6787 150.839 69.6299 151.122C69.5811 151.4 69.5566 151.701 69.5566 152.023V152.301C69.5566 152.609 69.5981 152.89 69.6812 153.144C69.7642 153.397 69.8862 153.615 70.0474 153.795C70.2085 153.976 70.4038 154.118 70.6333 154.22C70.8628 154.323 71.124 154.374 71.417 154.374C71.7783 154.374 72.1226 154.306 72.4497 154.169C72.7769 154.027 73.0601 153.808 73.2993 153.51L74.3687 154.733C74.2075 154.967 73.9805 155.194 73.6875 155.414C73.3994 155.629 73.0527 155.805 72.6475 155.941C72.2422 156.078 71.7832 156.146 71.2705 156.146ZM84.0879 145.336V156H81.7075V145.336H84.0879ZM87.3325 145.336V147.189H78.5288V145.336H87.3325ZM86.6587 152.118V151.964C86.6587 151.383 86.7417 150.849 86.9077 150.36C87.0737 149.867 87.3179 149.44 87.6401 149.079C87.9624 148.717 88.3579 148.437 88.8267 148.236C89.2954 148.031 89.8325 147.929 90.438 147.929C91.0532 147.929 91.5952 148.031 92.064 148.236C92.5376 148.437 92.9355 148.717 93.2578 149.079C93.5801 149.44 93.8242 149.867 93.9902 150.36C94.1562 150.849 94.2393 151.383 94.2393 151.964V152.118C94.2393 152.694 94.1562 153.229 93.9902 153.722C93.8242 154.21 93.5801 154.638 93.2578 155.004C92.9355 155.365 92.54 155.646 92.0713 155.846C91.6025 156.046 91.063 156.146 90.4526 156.146C89.8472 156.146 89.3076 156.046 88.834 155.846C88.3604 155.646 87.9624 155.365 87.6401 155.004C87.3179 154.638 87.0737 154.21 86.9077 153.722C86.7417 153.229 86.6587 152.694 86.6587 152.118ZM88.9512 151.964V152.118C88.9512 152.431 88.9756 152.724 89.0244 152.997C89.0781 153.271 89.1636 153.51 89.2808 153.715C89.3979 153.92 89.5518 154.081 89.7422 154.198C89.9375 154.311 90.1743 154.367 90.4526 154.367C90.731 154.367 90.9653 154.311 91.1558 154.198C91.3462 154.081 91.5 153.92 91.6172 153.715C91.7344 153.51 91.8174 153.271 91.8662 152.997C91.9199 152.724 91.9468 152.431 91.9468 152.118V151.964C91.9468 151.657 91.9199 151.369 91.8662 151.1C91.8174 150.827 91.7344 150.585 91.6172 150.375C91.5 150.165 91.3438 150.001 91.1484 149.884C90.958 149.767 90.7212 149.708 90.438 149.708C90.1646 149.708 89.9326 149.767 89.7422 149.884C89.5518 150.001 89.3979 150.165 89.2808 150.375C89.1636 150.585 89.0781 150.827 89.0244 151.1C88.9756 151.369 88.9512 151.657 88.9512 151.964ZM95.1108 152.118V151.964C95.1108 151.383 95.1938 150.849 95.3599 150.36C95.5259 149.867 95.77 149.44 96.0923 149.079C96.4146 148.717 96.8101 148.437 97.2788 148.236C97.7476 148.031 98.2847 147.929 98.8901 147.929C99.5054 147.929 100.047 148.031 100.516 148.236C100.99 148.437 101.388 148.717 101.71 149.079C102.032 149.44 102.276 149.867 102.442 150.36C102.608 150.849 102.691 151.383 102.691 151.964V152.118C102.691 152.694 102.608 153.229 102.442 153.722C102.276 154.21 102.032 154.638 101.71 155.004C101.388 155.365 100.992 155.646 100.523 155.846C100.055 156.046 99.5151 156.146 98.9048 156.146C98.2993 156.146 97.7598 156.046 97.2861 155.846C96.8125 155.646 96.4146 155.365 96.0923 155.004C95.77 154.638 95.5259 154.21 95.3599 153.722C95.1938 153.229 95.1108 152.694 95.1108 152.118ZM97.4033 151.964V152.118C97.4033 152.431 97.4277 152.724 97.4766 152.997C97.5303 153.271 97.6157 153.51 97.7329 153.715C97.8501 153.92 98.0039 154.081 98.1943 154.198C98.3896 154.311 98.6265 154.367 98.9048 154.367C99.1831 154.367 99.4175 154.311 99.6079 154.198C99.7983 154.081 99.9521 153.92 100.069 153.715C100.187 153.51 100.27 153.271 100.318 152.997C100.372 152.724 100.399 152.431 100.399 152.118V151.964C100.399 151.657 100.372 151.369 100.318 151.1C100.27 150.827 100.187 150.585 100.069 150.375C99.9521 150.165 99.7959 150.001 99.6006 149.884C99.4102 149.767 99.1733 149.708 98.8901 149.708C98.6167 149.708 98.3848 149.767 98.1943 149.884C98.0039 150.001 97.8501 150.165 97.7329 150.375C97.6157 150.585 97.5303 150.827 97.4766 151.1C97.4277 151.369 97.4033 151.657 97.4033 151.964ZM106.302 144.75V156H104.01V144.75H106.302ZM112.169 153.795C112.169 153.649 112.123 153.52 112.03 153.407C111.942 153.295 111.781 153.192 111.546 153.1C111.317 153.007 110.992 152.914 110.572 152.821C110.177 152.738 109.808 152.631 109.466 152.499C109.125 152.362 108.827 152.199 108.573 152.008C108.319 151.813 108.121 151.583 107.979 151.32C107.838 151.051 107.767 150.746 107.767 150.404C107.767 150.072 107.838 149.757 107.979 149.459C108.126 149.162 108.336 148.898 108.609 148.668C108.888 148.439 109.225 148.258 109.62 148.126C110.021 147.995 110.475 147.929 110.982 147.929C111.681 147.929 112.284 148.039 112.792 148.258C113.299 148.473 113.69 148.776 113.963 149.167C114.237 149.552 114.374 149.994 114.374 150.492H112.088C112.088 150.287 112.049 150.109 111.971 149.958C111.893 149.806 111.773 149.689 111.612 149.606C111.451 149.518 111.239 149.474 110.975 149.474C110.77 149.474 110.589 149.511 110.433 149.584C110.282 149.652 110.162 149.748 110.074 149.87C109.991 149.992 109.95 150.133 109.95 150.294C109.95 150.407 109.974 150.509 110.023 150.602C110.077 150.69 110.157 150.773 110.265 150.851C110.377 150.924 110.521 150.99 110.697 151.049C110.877 151.107 111.097 151.164 111.356 151.217C111.908 151.32 112.411 151.464 112.865 151.649C113.324 151.835 113.69 152.091 113.963 152.418C114.242 152.746 114.381 153.178 114.381 153.715C114.381 154.066 114.3 154.389 114.139 154.682C113.983 154.975 113.756 155.231 113.458 155.451C113.16 155.67 112.804 155.841 112.389 155.963C111.974 156.085 111.505 156.146 110.982 156.146C110.235 156.146 109.603 156.012 109.085 155.744C108.568 155.475 108.177 155.138 107.914 154.733C107.655 154.323 107.525 153.903 107.525 153.473H109.671C109.681 153.737 109.747 153.952 109.869 154.118C109.996 154.284 110.16 154.406 110.36 154.484C110.56 154.557 110.785 154.594 111.034 154.594C111.283 154.594 111.49 154.56 111.656 154.491C111.822 154.423 111.949 154.33 112.037 154.213C112.125 154.091 112.169 153.952 112.169 153.795ZM121.896 145.336V156H119.508V145.336H121.896ZM126.092 149.833V151.679H121.229V149.833H126.092ZM126.561 145.336V147.189H121.229V145.336H126.561ZM127.118 152.118V151.964C127.118 151.383 127.201 150.849 127.367 150.36C127.533 149.867 127.777 149.44 128.099 149.079C128.421 148.717 128.817 148.437 129.286 148.236C129.754 148.031 130.292 147.929 130.897 147.929C131.512 147.929 132.054 148.031 132.523 148.236C132.997 148.437 133.395 148.717 133.717 149.079C134.039 149.44 134.283 149.867 134.449 150.36C134.615 150.849 134.698 151.383 134.698 151.964V152.118C134.698 152.694 134.615 153.229 134.449 153.722C134.283 154.21 134.039 154.638 133.717 155.004C133.395 155.365 132.999 155.646 132.53 155.846C132.062 156.046 131.522 156.146 130.912 156.146C130.306 156.146 129.767 156.046 129.293 155.846C128.819 155.646 128.421 155.365 128.099 155.004C127.777 154.638 127.533 154.21 127.367 153.722C127.201 153.229 127.118 152.694 127.118 152.118ZM129.41 151.964V152.118C129.41 152.431 129.435 152.724 129.483 152.997C129.537 153.271 129.623 153.51 129.74 153.715C129.857 153.92 130.011 154.081 130.201 154.198C130.396 154.311 130.633 154.367 130.912 154.367C131.19 154.367 131.424 154.311 131.615 154.198C131.805 154.081 131.959 153.92 132.076 153.715C132.193 153.51 132.276 153.271 132.325 152.997C132.379 152.724 132.406 152.431 132.406 152.118V151.964C132.406 151.657 132.379 151.369 132.325 151.1C132.276 150.827 132.193 150.585 132.076 150.375C131.959 150.165 131.803 150.001 131.607 149.884C131.417 149.767 131.18 149.708 130.897 149.708C130.624 149.708 130.392 149.767 130.201 149.884C130.011 150.001 129.857 150.165 129.74 150.375C129.623 150.585 129.537 150.827 129.483 151.1C129.435 151.369 129.41 151.657 129.41 151.964ZM138.192 149.921V156H135.907V148.075H138.053L138.192 149.921ZM140.558 148.017L140.521 150.148C140.423 150.133 140.296 150.121 140.14 150.111C139.984 150.097 139.85 150.089 139.737 150.089C139.444 150.089 139.19 150.126 138.976 150.199C138.766 150.268 138.59 150.37 138.448 150.507C138.312 150.644 138.209 150.814 138.141 151.02C138.072 151.22 138.038 151.452 138.038 151.715L137.606 151.503C137.606 150.98 137.657 150.502 137.76 150.067C137.862 149.633 138.011 149.257 138.207 148.939C138.402 148.617 138.641 148.368 138.924 148.192C139.208 148.017 139.53 147.929 139.891 147.929C140.008 147.929 140.128 147.936 140.25 147.951C140.372 147.965 140.475 147.987 140.558 148.017ZM26.937 172.154V174H21.2607V172.154H26.937ZM22.0737 163.336V174H19.686V163.336H22.0737ZM26.2046 167.628V169.415H21.2607V167.628H26.2046ZM26.9443 163.336V165.189H21.2607V163.336H26.9443ZM30.709 174H28.4092V165.401C28.4092 164.791 28.5288 164.278 28.7681 163.863C29.0122 163.448 29.3564 163.133 29.8008 162.918C30.2451 162.704 30.77 162.596 31.3755 162.596C31.5854 162.596 31.7808 162.611 31.9614 162.64C32.147 162.665 32.3276 162.699 32.5034 162.743V164.449C32.4106 164.425 32.3154 164.408 32.2178 164.398C32.1201 164.388 32.0029 164.383 31.8662 164.383C31.6221 164.383 31.4121 164.422 31.2363 164.5C31.0654 164.574 30.9336 164.688 30.8408 164.845C30.7529 164.996 30.709 165.182 30.709 165.401V174ZM32.2764 166.075V167.679H27.252V166.075H32.2764ZM36.1143 174H33.8145V165.401C33.8145 164.791 33.9341 164.278 34.1733 163.863C34.4175 163.448 34.7617 163.133 35.2061 162.918C35.6504 162.704 36.1753 162.596 36.7808 162.596C36.9907 162.596 37.186 162.611 37.3667 162.64C37.5522 162.665 37.7329 162.699 37.9087 162.743V164.449C37.8159 164.425 37.7207 164.408 37.623 164.398C37.5254 164.388 37.4082 164.383 37.2715 164.383C37.0273 164.383 36.8174 164.422 36.6416 164.5C36.4707 164.574 36.3389 164.688 36.2461 164.845C36.1582 164.996 36.1143 165.182 36.1143 165.401V174ZM37.6816 166.075V167.679H32.6572V166.075H37.6816ZM42.23 174.146C41.6001 174.146 41.0361 174.046 40.5381 173.846C40.04 173.646 39.6177 173.37 39.271 173.019C38.9292 172.662 38.668 172.252 38.4873 171.788C38.3066 171.324 38.2163 170.829 38.2163 170.301V170.023C38.2163 169.432 38.2993 168.888 38.4653 168.39C38.6313 167.892 38.873 167.459 39.1904 167.093C39.5127 166.722 39.9082 166.437 40.377 166.236C40.8457 166.031 41.3804 165.929 41.981 165.929C42.5425 165.929 43.043 166.021 43.4824 166.207C43.9219 166.388 44.293 166.649 44.5957 166.991C44.8984 167.328 45.1279 167.735 45.2842 168.214C45.4453 168.688 45.5259 169.22 45.5259 169.811V170.748H39.1392V169.276H43.2847V169.1C43.2847 168.822 43.2334 168.578 43.1309 168.368C43.0332 168.158 42.8867 167.997 42.6914 167.884C42.501 167.767 42.2593 167.708 41.9663 167.708C41.688 167.708 41.4561 167.767 41.2705 167.884C41.085 168.001 40.936 168.167 40.8237 168.382C40.7163 168.592 40.6382 168.839 40.5894 169.122C40.5405 169.4 40.5161 169.701 40.5161 170.023V170.301C40.5161 170.609 40.5576 170.89 40.6406 171.144C40.7236 171.397 40.8457 171.615 41.0068 171.795C41.168 171.976 41.3633 172.118 41.5928 172.22C41.8223 172.323 42.0835 172.374 42.3765 172.374C42.7378 172.374 43.082 172.306 43.4092 172.169C43.7363 172.027 44.0195 171.808 44.2588 171.51L45.3281 172.733C45.167 172.967 44.9399 173.194 44.647 173.414C44.3589 173.629 44.0122 173.805 43.6069 173.941C43.2017 174.078 42.7427 174.146 42.23 174.146ZM49.9497 172.367C50.1938 172.367 50.4062 172.32 50.5869 172.228C50.7676 172.135 50.9067 172.005 51.0044 171.839C51.1069 171.668 51.1582 171.463 51.1582 171.224H53.3115C53.3115 171.8 53.1626 172.308 52.8647 172.748C52.5718 173.187 52.1763 173.531 51.6782 173.78C51.1802 174.024 50.6187 174.146 49.9937 174.146C49.3784 174.146 48.8413 174.046 48.3823 173.846C47.9233 173.641 47.54 173.355 47.2324 172.989C46.9248 172.623 46.6929 172.198 46.5366 171.715C46.3853 171.227 46.3096 170.699 46.3096 170.133V169.942C46.3096 169.381 46.3853 168.856 46.5366 168.368C46.6929 167.879 46.9248 167.452 47.2324 167.086C47.54 166.72 47.9209 166.437 48.375 166.236C48.834 166.031 49.3711 165.929 49.9863 165.929C50.6357 165.929 51.2095 166.053 51.7075 166.302C52.2104 166.551 52.6035 166.91 52.8867 167.379C53.1699 167.843 53.3115 168.402 53.3115 169.056H51.1582C51.1582 168.802 51.1118 168.575 51.019 168.375C50.9312 168.17 50.7944 168.009 50.6089 167.892C50.4282 167.77 50.2036 167.708 49.9351 167.708C49.6567 167.708 49.4272 167.77 49.2466 167.892C49.0708 168.009 48.9365 168.172 48.8438 168.382C48.751 168.592 48.6875 168.832 48.6533 169.1C48.6191 169.364 48.6021 169.645 48.6021 169.942V170.133C48.6021 170.436 48.6191 170.724 48.6533 170.997C48.6875 171.266 48.751 171.502 48.8438 171.708C48.9414 171.913 49.0781 172.074 49.2539 172.191C49.4297 172.308 49.6616 172.367 49.9497 172.367ZM58.4751 166.075V167.679H53.7729V166.075H58.4751ZM54.8496 164.112H57.1421V171.517C57.1421 171.737 57.1689 171.905 57.2227 172.022C57.2764 172.14 57.3643 172.223 57.4863 172.271C57.6084 172.315 57.7646 172.337 57.9551 172.337C58.0918 172.337 58.209 172.333 58.3066 172.323C58.4043 172.313 58.4946 172.301 58.5776 172.286V173.941C58.3823 174.005 58.1748 174.054 57.9551 174.088C57.7354 174.127 57.4961 174.146 57.2373 174.146C56.7441 174.146 56.3169 174.066 55.9556 173.905C55.5991 173.744 55.3257 173.49 55.1353 173.143C54.9448 172.792 54.8496 172.335 54.8496 171.773V164.112ZM61.9834 166.075V174H59.6909V166.075H61.9834ZM59.5518 164.024C59.5518 163.692 59.6689 163.421 59.9033 163.211C60.1377 162.997 60.4453 162.889 60.8262 162.889C61.207 162.889 61.5146 162.997 61.749 163.211C61.9883 163.421 62.1079 163.692 62.1079 164.024C62.1079 164.352 61.9883 164.623 61.749 164.837C61.5146 165.047 61.207 165.152 60.8262 165.152C60.4453 165.152 60.1377 165.047 59.9033 164.837C59.6689 164.623 59.5518 164.352 59.5518 164.024ZM66.4072 172.381L68.0625 166.075H70.4648L67.8354 174H66.3926L66.4072 172.381ZM65.3379 166.075L66.9858 172.389L67.0005 174H65.5576L62.9282 166.075H65.3379ZM74.9399 174.146C74.3101 174.146 73.7461 174.046 73.248 173.846C72.75 173.646 72.3276 173.37 71.981 173.019C71.6392 172.662 71.3779 172.252 71.1973 171.788C71.0166 171.324 70.9263 170.829 70.9263 170.301V170.023C70.9263 169.432 71.0093 168.888 71.1753 168.39C71.3413 167.892 71.583 167.459 71.9004 167.093C72.2227 166.722 72.6182 166.437 73.0869 166.236C73.5557 166.031 74.0903 165.929 74.6909 165.929C75.2524 165.929 75.7529 166.021 76.1924 166.207C76.6318 166.388 77.0029 166.649 77.3057 166.991C77.6084 167.328 77.8379 167.735 77.9941 168.214C78.1553 168.688 78.2358 169.22 78.2358 169.811V170.748H71.8491V169.276H75.9946V169.1C75.9946 168.822 75.9434 168.578 75.8408 168.368C75.7432 168.158 75.5967 167.997 75.4014 167.884C75.2109 167.767 74.9692 167.708 74.6763 167.708C74.3979 167.708 74.166 167.767 73.9805 167.884C73.7949 168.001 73.646 168.167 73.5337 168.382C73.4263 168.592 73.3481 168.839 73.2993 169.122C73.2505 169.4 73.2261 169.701 73.2261 170.023V170.301C73.2261 170.609 73.2676 170.89 73.3506 171.144C73.4336 171.397 73.5557 171.615 73.7168 171.795C73.8779 171.976 74.0732 172.118 74.3027 172.22C74.5322 172.323 74.7935 172.374 75.0864 172.374C75.4478 172.374 75.792 172.306 76.1191 172.169C76.4463 172.027 76.7295 171.808 76.9688 171.51L78.0381 172.733C77.877 172.967 77.6499 173.194 77.3569 173.414C77.0688 173.629 76.7222 173.805 76.3169 173.941C75.9116 174.078 75.4526 174.146 74.9399 174.146ZM90.3574 167.628V169.474H84.835V167.628H90.3574ZM85.5894 163.336V174H83.2017V163.336H85.5894ZM92.0054 163.336V174H89.625V163.336H92.0054ZM97.396 174.146C96.7661 174.146 96.2021 174.046 95.7041 173.846C95.2061 173.646 94.7837 173.37 94.437 173.019C94.0952 172.662 93.834 172.252 93.6533 171.788C93.4727 171.324 93.3823 170.829 93.3823 170.301V170.023C93.3823 169.432 93.4653 168.888 93.6313 168.39C93.7974 167.892 94.0391 167.459 94.3564 167.093C94.6787 166.722 95.0742 166.437 95.543 166.236C96.0117 166.031 96.5464 165.929 97.147 165.929C97.7085 165.929 98.209 166.021 98.6484 166.207C99.0879 166.388 99.459 166.649 99.7617 166.991C100.064 167.328 100.294 167.735 100.45 168.214C100.611 168.688 100.692 169.22 100.692 169.811V170.748H94.3052V169.276H98.4507V169.1C98.4507 168.822 98.3994 168.578 98.2969 168.368C98.1992 168.158 98.0527 167.997 97.8574 167.884C97.667 167.767 97.4253 167.708 97.1323 167.708C96.854 167.708 96.6221 167.767 96.4365 167.884C96.251 168.001 96.1021 168.167 95.9897 168.382C95.8823 168.592 95.8042 168.839 95.7554 169.122C95.7065 169.4 95.6821 169.701 95.6821 170.023V170.301C95.6821 170.609 95.7236 170.89 95.8066 171.144C95.8896 171.397 96.0117 171.615 96.1729 171.795C96.334 171.976 96.5293 172.118 96.7588 172.22C96.9883 172.323 97.2495 172.374 97.5425 172.374C97.9038 172.374 98.248 172.306 98.5752 172.169C98.9023 172.027 99.1855 171.808 99.4248 171.51L100.494 172.733C100.333 172.967 100.106 173.194 99.813 173.414C99.5249 173.629 99.1782 173.805 98.7729 173.941C98.3677 174.078 97.9087 174.146 97.396 174.146ZM106.002 172.11V168.712C106.002 168.473 105.965 168.268 105.892 168.097C105.819 167.926 105.704 167.792 105.548 167.694C105.392 167.596 105.189 167.547 104.94 167.547C104.73 167.547 104.547 167.584 104.391 167.657C104.239 167.73 104.122 167.835 104.039 167.972C103.961 168.109 103.922 168.277 103.922 168.478H101.637C101.637 168.121 101.717 167.789 101.878 167.481C102.04 167.174 102.269 166.903 102.567 166.668C102.87 166.434 103.231 166.253 103.651 166.126C104.071 165.995 104.542 165.929 105.064 165.929C105.685 165.929 106.236 166.034 106.72 166.244C107.208 166.449 107.594 166.759 107.877 167.174C108.16 167.584 108.302 168.102 108.302 168.727V172.044C108.302 172.523 108.329 172.899 108.382 173.172C108.441 173.441 108.524 173.675 108.631 173.875V174H106.324C106.217 173.771 106.136 173.487 106.083 173.15C106.029 172.809 106.002 172.462 106.002 172.11ZM106.288 169.166L106.302 170.426H105.167C104.913 170.426 104.693 170.458 104.508 170.521C104.327 170.584 104.181 170.672 104.068 170.785C103.956 170.892 103.873 171.019 103.819 171.166C103.771 171.307 103.746 171.463 103.746 171.634C103.746 171.795 103.785 171.942 103.863 172.074C103.941 172.201 104.049 172.301 104.186 172.374C104.322 172.447 104.481 172.484 104.662 172.484C104.959 172.484 105.213 172.425 105.423 172.308C105.638 172.191 105.804 172.049 105.921 171.883C106.039 171.712 106.097 171.554 106.097 171.407L106.646 172.359C106.559 172.555 106.451 172.757 106.324 172.967C106.197 173.172 106.036 173.365 105.841 173.546C105.646 173.722 105.409 173.866 105.13 173.978C104.857 174.09 104.527 174.146 104.142 174.146C103.644 174.146 103.192 174.046 102.787 173.846C102.381 173.641 102.057 173.36 101.812 173.004C101.573 172.647 101.454 172.237 101.454 171.773C101.454 171.358 101.529 170.99 101.681 170.667C101.832 170.345 102.059 170.072 102.362 169.847C102.669 169.623 103.055 169.454 103.519 169.342C103.983 169.225 104.525 169.166 105.145 169.166H106.288ZM112.213 162.75V174H109.92V162.75H112.213ZM116.271 166.075V174H113.978V166.075H116.271ZM113.839 164.024C113.839 163.692 113.956 163.421 114.19 163.211C114.425 162.997 114.732 162.889 115.113 162.889C115.494 162.889 115.802 162.997 116.036 163.211C116.275 163.421 116.395 163.692 116.395 164.024C116.395 164.352 116.275 164.623 116.036 164.837C115.802 165.047 115.494 165.152 115.113 165.152C114.732 165.152 114.425 165.047 114.19 164.837C113.956 164.623 113.839 164.352 113.839 164.024ZM120.16 167.767V174H117.867V166.075H120.021L120.16 167.767ZM119.859 169.759L119.288 169.774C119.288 169.178 119.361 168.644 119.508 168.17C119.654 167.696 119.862 167.293 120.13 166.961C120.404 166.625 120.729 166.368 121.104 166.192C121.485 166.017 121.905 165.929 122.364 165.929C122.735 165.929 123.075 165.982 123.382 166.09C123.69 166.197 123.954 166.371 124.173 166.61C124.398 166.844 124.569 167.157 124.686 167.547C124.803 167.933 124.862 168.409 124.862 168.976V174H122.562V168.968C122.562 168.636 122.516 168.38 122.423 168.199C122.33 168.019 122.193 167.892 122.013 167.818C121.837 167.745 121.622 167.708 121.368 167.708C121.1 167.708 120.87 167.762 120.68 167.87C120.489 167.972 120.333 168.116 120.211 168.302C120.089 168.487 119.999 168.705 119.94 168.954C119.886 169.203 119.859 169.471 119.859 169.759ZM131.351 166.075H133.431V173.714C133.431 174.442 133.265 175.06 132.933 175.567C132.606 176.075 132.149 176.461 131.563 176.725C130.978 176.988 130.292 177.12 129.505 177.12C129.164 177.12 128.807 177.074 128.436 176.981C128.065 176.893 127.716 176.759 127.389 176.578C127.062 176.402 126.788 176.178 126.568 175.904L127.542 174.557C127.767 174.811 128.036 175.016 128.348 175.172C128.661 175.333 129.017 175.414 129.417 175.414C129.784 175.414 130.094 175.348 130.348 175.216C130.602 175.084 130.794 174.891 130.926 174.637C131.063 174.383 131.131 174.076 131.131 173.714V167.928L131.351 166.075ZM126.056 170.133V169.979C126.056 169.378 126.129 168.832 126.275 168.338C126.422 167.84 126.634 167.413 126.913 167.057C127.196 166.695 127.535 166.417 127.931 166.222C128.331 166.026 128.78 165.929 129.278 165.929C129.815 165.929 130.26 166.031 130.611 166.236C130.963 166.437 131.249 166.72 131.468 167.086C131.688 167.447 131.861 167.875 131.988 168.368C132.115 168.856 132.218 169.386 132.296 169.957V170.221C132.218 170.768 132.105 171.278 131.959 171.751C131.812 172.225 131.622 172.643 131.388 173.004C131.153 173.36 130.86 173.641 130.509 173.846C130.162 174.046 129.747 174.146 129.264 174.146C128.771 174.146 128.326 174.046 127.931 173.846C127.535 173.646 127.196 173.365 126.913 173.004C126.634 172.643 126.422 172.218 126.275 171.729C126.129 171.241 126.056 170.709 126.056 170.133ZM128.341 169.979V170.133C128.341 170.445 128.37 170.736 128.429 171.004C128.492 171.273 128.585 171.51 128.707 171.715C128.834 171.92 128.99 172.081 129.176 172.198C129.366 172.311 129.588 172.367 129.842 172.367C130.213 172.367 130.514 172.289 130.743 172.132C130.978 171.971 131.148 171.749 131.256 171.466C131.368 171.183 131.427 170.853 131.432 170.477V169.708C131.432 169.396 131.4 169.115 131.336 168.866C131.273 168.617 131.178 168.407 131.051 168.236C130.929 168.065 130.768 167.936 130.567 167.848C130.372 167.755 130.135 167.708 129.857 167.708C129.608 167.708 129.388 167.767 129.198 167.884C129.007 167.997 128.849 168.155 128.722 168.36C128.595 168.565 128.5 168.807 128.436 169.085C128.373 169.359 128.341 169.657 128.341 169.979Z" fill="#765A5A"/>
</g>
<defs>
<clipPath id="clip0_560_8977">
<rect width="148" height="200" fill="white"/>
</clipPath>
</defs>
</svg>
