<svg width="25" height="24" viewBox="0 0 25 24" fill="none" xmlns="http://www.w3.org/2000/svg">
<g id="Frame">
<path id="Vector" d="M12.5064 7.20186C11.8699 7.20186 11.2595 6.949 10.8094 6.49891C10.3593 6.04883 10.1064 5.43838 10.1064 4.80186C10.1064 4.16534 10.3593 3.55489 10.8094 3.1048C11.2595 2.65471 11.8699 2.40186 12.5064 2.40186C13.143 2.40186 13.7534 2.65471 14.2035 3.1048C14.6536 3.55489 14.9064 4.16534 14.9064 4.80186C14.9064 5.43838 14.6536 6.04883 14.2035 6.49891C13.7534 6.949 13.143 7.20186 12.5064 7.20186ZM12.5064 14.4019C11.8699 14.4019 11.2595 14.149 10.8094 13.6989C10.3593 13.2488 10.1064 12.6384 10.1064 12.0019C10.1064 11.3653 10.3593 10.7549 10.8094 10.3048C11.2595 9.85471 11.8699 9.60186 12.5064 9.60186C13.143 9.60186 13.7534 9.85471 14.2035 10.3048C14.6536 10.7549 14.9064 11.3653 14.9064 12.0019C14.9064 12.6384 14.6536 13.2488 14.2035 13.6989C13.7534 14.149 13.143 14.4019 12.5064 14.4019ZM12.5064 21.6019C11.8699 21.6019 11.2595 21.349 10.8094 20.8989C10.3593 20.4488 10.1064 19.8384 10.1064 19.2019C10.1064 18.5653 10.3593 17.9549 10.8094 17.5048C11.2595 17.0547 11.8699 16.8019 12.5064 16.8019C13.143 16.8019 13.7534 17.0547 14.2035 17.5048C14.6536 17.9549 14.9064 18.5653 14.9064 19.2019C14.9064 19.8384 14.6536 20.4488 14.2035 20.8989C13.7534 21.349 13.143 21.6019 12.5064 21.6019Z" fill="#455A64"/>
</g>
</svg>
