<svg width="30" height="30" viewBox="0 0 30 30" fill="none" xmlns="http://www.w3.org/2000/svg">
<g id="Group 37619">
<g id="Group 2306">
<circle id="Ellipse 453" cx="15" cy="15" r="15" fill="#FFD64F"/>
</g>
<g id="Group 2308">
<path id="Vector" d="M14.8145 17.8022C11.9225 17.8022 9.92624 19.5096 9.84668 19.5794L10.8272 20.7044C10.8422 20.6894 12.4998 19.2956 14.8193 19.2956C17.1589 19.2956 18.7917 20.6942 18.8114 20.7044L19.792 19.5794C19.7027 19.5047 17.7065 17.8022 14.8144 17.8022H14.8145Z" fill="#455A64"/>
<path id="Vector_2" d="M11.1155 9.92148C10.6377 10.2201 9.88108 10.5836 8.59669 10.5934C7.31747 10.5736 6.62545 10.2 6.15744 9.89648L5.32617 11.0712C5.88382 11.4695 6.95394 12.0368 8.59149 12.0619C10.2593 12.0518 11.3742 11.4796 11.9464 11.091L11.1155 9.92148Z" fill="#455A64"/>
<path id="Vector_3" d="M23.5266 9.92148C23.0488 10.2201 22.2922 10.5836 21.0078 10.5934C19.7286 10.5736 19.0366 10.2 18.5686 9.89648L17.7373 11.0712C18.295 11.4695 19.3651 12.0368 21.0026 12.0619C22.6704 12.0518 23.7853 11.4796 24.3575 11.091L23.5266 9.92148Z" fill="#455A64"/>
</g>
</g>
</svg>
