<svg width="30" height="30" viewBox="0 0 30 30" fill="none" xmlns="http://www.w3.org/2000/svg">
<g id="Group 37620">
<circle id="Ellipse 452" cx="15.0039" cy="15" r="15" fill="#FFD64F"/>
<g id="Group 37390">
<path id="Vector" d="M10.1234 10.3919C10.1234 11.9261 8.87926 13.1702 7.34475 13.1702C5.8105 13.1702 4.56641 11.9261 4.56641 10.3919C4.56641 8.85738 5.8105 7.61328 7.34475 7.61328C8.87926 7.61328 10.1234 8.85738 10.1234 10.3919Z" fill="#455A64"/>
<path id="Vector_2" d="M25.8831 10.3919C25.8831 11.9261 24.639 13.1702 23.1048 13.1702C21.5703 13.1702 20.3262 11.9261 20.3262 10.3919C20.3262 8.85738 21.5703 7.61328 23.1048 7.61328C24.639 7.61328 25.8831 8.85738 25.8831 10.3919Z" fill="#455A64"/>
<path id="Vector_3" d="M21.7335 18.9937C20.2113 16.9385 17.014 16.2153 15.2251 16.2153C13.4362 16.2153 10.2772 16.9385 8.71663 18.9937C7.19435 21.0488 8.4883 23.2184 10.1248 23.1042C11.7613 22.99 14.5399 22.6475 15.2248 22.6475C15.9098 22.6475 18.6501 22.9521 20.3248 23.1042C21.9618 23.2184 23.2558 21.0491 21.7335 18.9937ZM20.3251 22.3049C18.6504 22.1907 15.872 21.8482 15.2251 21.8482C14.5781 21.8482 11.7998 22.1527 10.1251 22.3049H9.78258C9.82055 22.1145 10.3534 19.7928 12.4088 19.3361C14.5781 18.8415 15.2251 19.4885 15.2251 19.4885C15.2251 19.4885 15.8721 18.8415 18.0035 19.2982C20.0586 19.7548 20.5915 22.1147 20.6297 22.2669C20.5156 22.3049 20.4014 22.3049 20.3252 22.3049L20.3251 22.3049Z" fill="#455A64"/>
</g>
</g>
</svg>
