<svg width="30" height="30" viewBox="0 0 30 30" fill="none" xmlns="http://www.w3.org/2000/svg">
<g id="Group 37623">
<circle id="Ellipse 454" cx="15" cy="15" r="15" fill="#FFD64F"/>
<g id="Group 37394">
<path id="Vector" d="M7.3765 15.4282C7.12722 15.4282 6.88474 15.2868 6.77032 15.0476C6.60867 14.7107 6.75012 14.3098 7.08352 14.1482L10.0207 12.7335L7.06 11.1673C6.72989 10.9922 6.60536 10.5846 6.7804 10.2578C6.95545 9.92764 7.3631 9.80311 7.68991 9.97816L11.8296 12.1675C12.0554 12.2854 12.1933 12.5211 12.1867 12.7772C12.1834 13.0298 12.0352 13.2621 11.8061 13.37L7.66642 15.364C7.57526 15.408 7.47425 15.4282 7.3765 15.4282Z" fill="#455A64"/>
<path id="Vector_2" d="M23.077 15.4274C22.9793 15.4274 22.8783 15.4072 22.784 15.36L18.6444 13.3659C18.4153 13.2548 18.267 13.0257 18.2637 12.7731C18.2604 12.5205 18.3984 12.2846 18.6209 12.1634L22.7605 9.9741C23.0907 9.79905 23.4983 9.92687 23.6701 10.2537C23.8451 10.5838 23.7173 10.9915 23.3905 11.1632L20.4298 12.7294L23.3669 14.1441C23.7039 14.3058 23.8418 14.7066 23.6801 15.0435C23.5688 15.2895 23.3263 15.4274 23.077 15.4274Z" fill="#455A64"/>
<path id="Vector_3" d="M23.6903 20.1636H6.76443C6.3939 20.1636 6.09082 19.8605 6.09082 19.49C6.09082 19.1195 6.39392 18.8164 6.76443 18.8164H23.6867C24.0572 18.8164 24.3603 19.1195 24.3603 19.49C24.3603 19.8605 24.0605 20.1636 23.6899 20.1636H23.6903Z" fill="#455A64"/>
</g>
</g>
</svg>
