<svg width="41" height="40" viewBox="0 0 41 40" fill="none" xmlns="http://www.w3.org/2000/svg">
<g id="Group 162972">
<circle id="Ellipse 451" cx="20.082" cy="20" r="20" fill="#FFD64F"/>
<g id="Group">
<path id="Vector" d="M27.3557 10.6255C25.0412 10.6255 23.1582 12.5085 23.1582 14.823H25.1629C25.1629 13.6136 26.1467 12.6302 27.3557 12.6302C28.5647 12.6302 29.5485 13.6136 29.5485 14.823H31.5532C31.5532 12.5085 29.6701 10.6255 27.3557 10.6255Z" fill="#455A64"/>
<path id="Vector_2" d="M14.5983 14.823H16.603C16.603 12.5085 14.7199 10.6255 12.4055 10.6255C10.091 10.6255 8.20801 12.5085 8.20801 14.823H10.2127C10.2127 13.6136 11.1965 12.6302 12.4055 12.6302C13.6145 12.6302 14.5983 13.6136 14.5983 14.823Z" fill="#455A64"/>
<path id="Vector_3" d="M19.8788 29.7393C23.9847 29.7393 27.3134 26.4106 27.3134 22.3047L12.4443 22.305C12.4443 26.411 15.773 29.7393 19.8789 29.7393L19.8788 29.7393Z" fill="#455A64"/>
</g>
</g>
</svg>
