<svg width="30" height="30" viewBox="0 0 30 30" fill="none" xmlns="http://www.w3.org/2000/svg">
<g id="Group 37621">
<circle id="Ellipse 455" cx="15" cy="15" r="15" fill="url(#paint0_linear_1_2131)"/>
<g id="Group 37396">
<path id="Vector" d="M17.5537 11.6553L20.805 8.40399C20.8961 8.31285 20.9264 8.19119 20.9264 8.06975C20.9264 7.67468 20.4402 7.46211 20.1365 7.7355L16.1256 11.7767C15.8522 12.0501 16.0344 12.5666 16.4598 12.5666H20.501C20.7441 12.5666 20.9567 12.3538 20.9567 12.1109C20.9567 11.8678 20.7439 11.6553 20.501 11.6553L17.5537 11.6553Z" fill="#455A64" fill-opacity="0.45" stroke="#455A64" stroke-width="0.5"/>
<path id="Vector_2" d="M8.40528 8.13078C8.40528 8.25223 8.46611 8.37388 8.52673 8.46502L11.778 11.7163H8.83069C8.58758 11.7163 8.375 11.9291 8.375 12.172C8.375 12.4151 8.5878 12.6277 8.83069 12.6277H12.8719C13.2669 12.6277 13.4795 12.1415 13.2061 11.8377L9.16493 7.79655C8.8913 7.52313 8.40528 7.73571 8.40528 8.13078Z" fill="#455A64" fill-opacity="0.45" stroke="#455A64" stroke-width="0.5"/>
<path id="Vector_3" d="M9.40847 22.3816C9.43878 22.655 9.62127 22.8373 9.86416 22.8373H19.2227H19.253H19.2833C19.5264 22.8373 19.739 22.6245 19.739 22.3816C19.739 19.3128 17.217 16.8212 14.1482 17.0643C11.5654 17.277 9.4993 19.4039 9.4082 22.017V22.0779V22.3513L9.40847 22.3816ZM14.3612 17.9758C16.6704 17.8544 18.5847 19.6165 18.7975 21.8348L10.3506 21.8346C10.5935 19.7685 12.2646 18.0669 14.3612 17.9758Z" fill="#455A64" fill-opacity="0.45" stroke="#455A64" stroke-width="0.5"/>
</g>
</g>
<defs>
<linearGradient id="paint0_linear_1_2131" x1="15" y1="0" x2="15" y2="30" gradientUnits="userSpaceOnUse">
<stop stop-color="#F7CF6A"/>
<stop offset="1" stop-color="#F1285D"/>
</linearGradient>
</defs>
</svg>
