<svg width="77" height="85" viewBox="0 0 77 85" fill="none" xmlns="http://www.w3.org/2000/svg">
<g id="Frame 1951">
<g id="Group 1531">
<path id="Vector" d="M1.20056 64.3919C1.0262 64.4663 0.832441 64.4824 0.648186 64.4377C0.46393 64.3931 0.299054 64.29 0.178147 64.144C0.178147 64.144 0 64.1091 0 63.323V26.9538C0.00965474 26.6393 0.0857276 26.3304 0.223224 26.0474C0.36072 25.7644 0.556529 25.5137 0.797791 25.3117C1.68988 24.6879 2.61984 24.1201 3.58232 23.6116L43.9792 0.305197L44.4323 0.0728311C44.5852 -0.0021394 44.7598 -0.0199233 44.9246 0.0226988C45.0894 0.065321 45.2335 0.165532 45.3308 0.305197C45.4491 0.506775 45.5169 0.733992 45.5283 0.967442C45.5283 1.35472 45.5283 5.02224 45.5283 5.02224V37.7317C45.5283 38.0457 45.4629 38.3564 45.3362 38.6437C45.2095 38.9311 45.0243 39.189 44.7925 39.4009L1.20056 64.3919Z" fill="#334C42"/>
<path id="Vector_2" d="M0.74292 60.0311V28.6617C0.74292 27.6199 0.886214 27.039 1.68788 26.6014L44.2884 1.92016C44.3724 1.85667 44.4726 1.81792 44.5775 1.80828C44.6823 1.79864 44.7879 1.81849 44.8821 1.8656C44.9763 1.91271 45.0555 1.9852 45.1107 2.0749C45.1659 2.1646 45.195 2.26794 45.1946 2.37328L45.0901 34.6296L0.74292 60.0311Z" fill="#AED5E8"/>
<path id="Vector_3" d="M42.5239 9.91753C42.9329 8.97694 42.5976 7.92453 41.7751 7.56691C40.9525 7.20929 39.9542 7.68188 39.5453 8.62247C39.1363 9.56306 39.4716 10.6155 40.2941 10.9731C41.1166 11.3307 42.115 10.8581 42.5239 9.91753Z" fill="#FFE427"/>
<path id="Vector_4" d="M8.57507 37.9984V49.7639L11.0149 48.3349L11.0382 36.5732L8.57507 37.9984Z" fill="#FFE427"/>
<path id="Vector_5" d="M12.6731 33.6503L12.6305 47.4839L15.1904 45.9967V32.2329L12.6731 33.6503Z" fill="#FFE427"/>
<path id="Vector_6" d="M16.8033 29.9083L16.7607 45.1709L19.0379 43.8503V28.549L16.8033 29.9083Z" fill="#FFE427"/>
<path id="Vector_7" d="M42.3727 14.9629C42.7806 14.0254 42.4466 12.9763 41.6268 12.6196C40.8069 12.263 39.8117 12.7339 39.4039 13.6714C38.996 14.6089 39.33 15.658 40.1498 16.0147C40.9697 16.3713 41.9649 15.9004 42.3727 14.9629Z" fill="#FFE427"/>
<path id="Vector_8" d="M42.2309 19.9237C42.7995 19.0741 42.6581 17.9822 41.9151 17.485C41.172 16.9877 40.1088 17.2735 39.5402 18.1231C38.9716 18.9728 39.113 20.0647 39.856 20.5619C40.599 21.0592 41.6623 20.7734 42.2309 19.9237Z" fill="#FFE427"/>
<path id="Vector_9" d="M28.3615 35.6136C27.7859 35.6136 27.2137 35.5248 26.6652 35.3502C24.7288 34.7344 23.2649 33.1234 22.5562 30.8191C21.9071 28.5049 21.9692 26.049 22.7343 23.7706C24.4035 18.5037 28.7487 15.3435 32.6215 16.575C36.4943 17.8066 38.2254 22.8876 36.5524 28.1546C35.864 30.4581 34.4984 32.5011 32.6331 34.018C31.4266 35.0105 29.9233 35.5721 28.3615 35.6136ZM30.9369 19.1078C28.8068 19.1078 26.4173 21.4005 25.3988 24.6149C24.8045 26.3518 24.7451 28.2271 25.2284 29.998C25.6583 31.4039 26.4716 32.3566 27.5095 32.6896C28.5474 33.0227 29.7634 32.6896 30.9252 31.8066C32.3419 30.6386 33.3753 29.0723 33.8918 27.3103C35.0536 23.6661 34.0816 19.9521 31.7811 19.2356C31.5082 19.1484 31.2234 19.104 30.9369 19.1039V19.1078Z" fill="#334C42"/>
<path id="Vector_10" d="M8.79187 51.205C8.79178 51.3035 8.81756 51.4002 8.86662 51.4855C8.91569 51.5708 8.98633 51.6418 9.07145 51.6912C9.15657 51.7406 9.25318 51.7668 9.35161 51.7671C9.45004 51.7674 9.54682 51.7419 9.63226 51.693L20.1159 45.7057C20.2018 45.6565 20.2733 45.5855 20.3229 45.4998C20.3726 45.4141 20.3987 45.3168 20.3986 45.2177C20.3987 45.1193 20.3729 45.0226 20.3238 44.9372C20.2748 44.8519 20.2041 44.781 20.119 44.7316C20.0339 44.6821 19.9373 44.656 19.8388 44.6556C19.7404 44.6553 19.6436 44.6809 19.5582 44.7298L9.07458 50.7171C8.98861 50.7662 8.91718 50.8373 8.86753 50.923C8.81788 51.0087 8.79178 51.106 8.79187 51.205Z" fill="#FFE427"/>
<path id="Vector_11" d="M6.5061 28.2399V32.5C6.50635 32.6045 6.53409 32.7072 6.58654 32.7977C6.63899 32.8881 6.7143 32.9632 6.80492 33.0154C6.89555 33.0676 6.99829 33.095 7.10287 33.095C7.20744 33.0949 7.31016 33.0673 7.40072 33.015L18.9377 26.3539C19.0282 26.3017 19.1033 26.2266 19.1557 26.1362C19.208 26.0458 19.2357 25.9432 19.2359 25.8388V21.5787C19.2357 21.4742 19.2079 21.3715 19.1555 21.281C19.103 21.1906 19.0277 21.1155 18.9371 21.0633C18.8465 21.0111 18.7437 20.9837 18.6392 20.9838C18.5346 20.9838 18.4319 21.0114 18.3413 21.0637L6.80431 27.7287C6.71442 27.7806 6.63962 27.8551 6.58733 27.9447C6.53503 28.0344 6.50703 28.1361 6.5061 28.2399Z" fill="#FFE427"/>
<path id="Vector_12" d="M10.5257 29.7615C10.8401 28.7707 10.4539 27.764 9.66286 27.5129C8.87187 27.2618 7.9757 27.8615 7.66122 28.8523C7.34674 29.8431 7.73302 30.8498 8.52402 31.1008C9.31501 31.3519 10.2112 30.7523 10.5257 29.7615Z" fill="white"/>
<path id="Vector_13" d="M11.1861 27.1514L17.9324 23.3755C17.9655 23.3561 17.9944 23.3305 18.0176 23.3C18.0407 23.2695 18.0576 23.2347 18.0673 23.1977C18.0771 23.1606 18.0794 23.1221 18.0742 23.0841C18.069 23.0462 18.0563 23.0096 18.037 22.9766C18.0177 22.9435 17.992 22.9146 17.9615 22.8914C17.931 22.8683 17.8963 22.8514 17.8592 22.8417C17.8222 22.832 17.7836 22.8297 17.7456 22.8349C17.7077 22.8401 17.6712 22.8527 17.6381 22.872L10.8917 26.648C10.825 26.687 10.7765 26.751 10.7568 26.8258C10.7372 26.9006 10.7481 26.9801 10.7872 27.0469C10.8262 27.1136 10.8902 27.1622 10.965 27.1818C11.0398 27.2014 11.1193 27.1905 11.1861 27.1514Z" fill="#7F47DD"/>
<path id="Vector_14" d="M11.4363 28.7975L15.6267 26.4505C15.6934 26.4115 15.7419 26.3476 15.7616 26.2728C15.7812 26.198 15.7703 26.1184 15.7312 26.0517C15.6922 25.9849 15.6282 25.9364 15.5534 25.9168C15.4786 25.8971 15.3991 25.9081 15.3323 25.9471L11.142 28.294C11.1089 28.3133 11.08 28.339 11.0569 28.3695C11.0337 28.4 11.0168 28.4347 11.0071 28.4718C10.9974 28.5088 10.9951 28.5474 11.0003 28.5854C11.0055 28.6233 11.0181 28.6598 11.0374 28.6929C11.0567 28.7259 11.0824 28.7549 11.1129 28.778C11.1434 28.8012 11.1782 28.8181 11.2152 28.8278C11.2523 28.8375 11.2908 28.8398 11.3288 28.8346C11.3667 28.8294 11.4033 28.8168 11.4363 28.7975Z" fill="#7F47DD"/>
<path id="Vector_15" d="M76.9819 57.4126V58.8455L76.2577 59.7363" fill="#ADCEE1"/>
<path id="Vector_16" d="M48.1312 39.9271L76.1778 57.3004C76.4342 57.4594 76.6447 57.6823 76.7888 57.9473C76.9329 58.2123 77.0056 58.5102 76.9997 58.8118C76.9939 59.1134 76.9097 59.4083 76.7554 59.6674C76.6011 59.9266 76.3821 60.1412 76.1198 60.2902L33.5773 84.3517C32.9828 84.6882 32.3102 84.8625 31.6271 84.8571C30.944 84.8517 30.2743 84.6667 29.6852 84.3207L1.76636 67.9157C-0.262969 66.2504 -0.108058 63.1134 1.76636 62.9817L44.0571 39.8613C44.6782 39.5014 45.3855 39.3174 46.1033 39.329C46.821 39.3406 47.5221 39.5474 48.1312 39.9271Z" fill="#88D3D8"/>
<path id="Vector_17" d="M48.1318 38.7301L76.1784 56.1034C76.4347 56.2624 76.6453 56.4853 76.7894 56.7503C76.9335 57.0153 77.0062 57.3132 77.0003 57.6148C76.9945 57.9164 76.9103 58.2112 76.756 58.4704C76.6017 58.7296 76.3826 58.9442 76.1203 59.0932L33.5779 83.1547C32.9834 83.4912 32.3108 83.6655 31.6277 83.6601C30.9446 83.6546 30.2749 83.4697 29.6858 83.1237L1.76695 66.7186C1.43978 66.5286 1.16824 66.256 0.979495 65.9281C0.790748 65.6001 0.691406 65.2284 0.691406 64.85C0.691406 64.4717 0.790748 64.0999 0.979495 63.772C1.16824 63.4441 1.43978 63.1715 1.76695 62.9814L44.0576 38.6643C44.6787 38.3044 45.3861 38.1204 46.1039 38.132C46.8216 38.1436 47.5226 38.3504 48.1318 38.7301Z" fill="white"/>
<path id="Vector_18" d="M49.8419 42.712L60.0932 49.0982C60.2748 49.2114 60.4239 49.3698 60.5259 49.5579C60.6278 49.7461 60.6792 49.9575 60.6749 50.1714C60.6706 50.3854 60.6108 50.5946 60.5014 50.7784C60.3919 50.9623 60.2366 51.1147 60.0506 51.2205L23.2592 72.1915C22.7092 72.5086 22.0855 72.6756 21.4506 72.6756C20.8158 72.6756 20.1921 72.5086 19.642 72.1915C17.2758 70.8128 13.2055 68.3188 10.7153 66.8045C10.4928 66.669 10.3093 66.478 10.1828 66.2503C10.0564 66.0225 9.99137 65.7657 9.9941 65.5052C9.99684 65.2447 10.0673 64.9894 10.1984 64.7643C10.3296 64.5392 10.5171 64.3521 10.7424 64.2214C18.1975 59.8722 42.4837 45.7599 47.7855 42.6771C48.0994 42.4964 48.4564 42.4042 48.8185 42.4103C49.1807 42.4165 49.5344 42.5207 49.8419 42.712Z" fill="#AED5E8"/>
<path id="Vector_19" d="M49.3009 60.0421L36.4472 67.2687C36.2518 67.3815 36.0895 67.5438 35.9767 67.7393C35.8638 67.9347 35.8044 68.1564 35.8044 68.3821C35.8044 68.6078 35.8638 68.8295 35.9767 69.0249C36.0895 69.2204 36.2518 69.3827 36.4472 69.4955L44.0068 73.9182C44.2665 74.0681 44.561 74.147 44.8608 74.147C45.1606 74.147 45.4551 74.0681 45.7147 73.9182L58.8822 66.4205C59.0473 66.327 59.1846 66.1913 59.2802 66.0273C59.3757 65.8634 59.4261 65.677 59.4261 65.4872C59.4261 65.2974 59.3757 65.111 59.2802 64.9471C59.1846 64.7831 59.0473 64.6474 58.8822 64.5539L51.0049 60.0498C50.7465 59.8995 50.453 59.8196 50.154 59.8183C49.8549 59.8169 49.5608 59.8941 49.3009 60.0421Z" fill="#AED5E8"/>
<path id="Vector_20" opacity="0.1" d="M49.8419 42.712L60.0932 49.0982C60.2748 49.2114 60.4239 49.3698 60.5259 49.5579C60.6278 49.7461 60.6792 49.9575 60.6749 50.1714C60.6706 50.3854 60.6108 50.5946 60.5014 50.7784C60.3919 50.9623 60.2366 51.1147 60.0506 51.2205L23.2592 72.1915C22.7092 72.5086 22.0855 72.6756 21.4506 72.6756C20.8158 72.6756 20.1921 72.5086 19.642 72.1915C17.2758 70.8128 13.2055 68.3188 10.7153 66.8045C10.4928 66.669 10.3093 66.478 10.1828 66.2503C10.0564 66.0225 9.99137 65.7657 9.9941 65.5052C9.99684 65.2447 10.0673 64.9894 10.1984 64.7643C10.3296 64.5392 10.5171 64.3521 10.7424 64.2214C18.1975 59.8722 42.4837 45.7599 47.7855 42.6771C48.0994 42.4964 48.4564 42.4042 48.8185 42.4103C49.1807 42.4165 49.5344 42.5207 49.8419 42.712Z" fill="#053855"/>
<path id="Vector_21" opacity="0.1" d="M49.3009 60.0421L36.4472 67.2687C36.2518 67.3815 36.0895 67.5438 35.9767 67.7393C35.8638 67.9347 35.8044 68.1564 35.8044 68.3821C35.8044 68.6078 35.8638 68.8295 35.9767 69.0249C36.0895 69.2204 36.2518 69.3827 36.4472 69.4955L44.0068 73.9182C44.2665 74.0681 44.561 74.147 44.8608 74.147C45.1606 74.147 45.4551 74.0681 45.7147 73.9182L58.8822 66.4205C59.0473 66.327 59.1846 66.1913 59.2802 66.0273C59.3757 65.8634 59.4261 65.677 59.4261 65.4872C59.4261 65.2974 59.3757 65.111 59.2802 64.9471C59.1846 64.7831 59.0473 64.6474 58.8822 64.5539L51.0049 60.0498C50.7465 59.8995 50.453 59.8196 50.154 59.8183C49.8549 59.8169 49.5608 59.8941 49.3009 60.0421Z" fill="#053855"/>
<path id="Vector_22" d="M58.0618 54.3414L60.215 60.1893L59.6574 61.0336L58.7666 61.0607C58.7666 61.0607 58.4142 59.4496 58.0231 59.1863C57.6319 58.9229 57.6358 60.7857 57.3453 60.8554C57.0549 60.9251 53.4145 61.0065 53.2441 60.6076C53.0194 60.0731 53.5965 59.225 55.1301 59.1553C56.7915 59.0817 56.5553 57.2538 56.3152 55.5071" fill="#F8997C"/>
<path id="Vector_23" d="M58.2264 59.3915L58.0173 59.2018C57.8803 59.1298 57.7265 59.0958 57.5719 59.1033C57.4173 59.1108 57.2676 59.1595 57.1382 59.2444C56.7857 59.5503 57.2582 60.9523 57.2582 60.9523L58.513 60.0189C58.4641 59.7915 58.3663 59.5774 58.2264 59.3915Z" fill="#9E005D"/>
<path id="Vector_24" d="M56.7747 21.509C56.6172 20.6802 56.4378 19.8579 56.2364 19.0421C56.0046 18.8394 55.7836 18.6248 55.5741 18.3992C55.4002 18.2384 55.2809 18.0273 55.2329 17.7953C55.185 17.5633 55.2109 17.3222 55.3069 17.1057C55.3229 17.0574 55.3483 17.0127 55.3816 16.9742C55.4149 16.9357 55.4555 16.9041 55.5009 16.8813C55.5464 16.8584 55.596 16.8448 55.6467 16.8411C55.6975 16.8374 55.7485 16.8437 55.7968 16.8598C55.8451 16.8758 55.8898 16.9012 55.9283 16.9344C55.9668 16.9677 55.9984 17.0083 56.0213 17.0538C56.0441 17.0993 56.0577 17.1488 56.0614 17.1996C56.0651 17.2503 56.0588 17.3013 56.0427 17.3497L56.0931 17.4271C56.3836 16.5712 56.9722 15.0376 57.7235 15.6418C57.7577 15.6179 57.794 15.5971 57.832 15.5798C57.9666 15.5219 58.1182 15.5177 58.2558 15.5681C58.3933 15.6185 58.5064 15.7197 58.5717 15.8509C58.6256 15.9488 58.6538 16.0587 58.6538 16.1704C58.6538 16.2821 58.6256 16.392 58.5717 16.4899C58.6874 16.5972 58.7582 16.7444 58.7697 16.9018C58.7812 17.0592 58.7326 17.2151 58.6336 17.338L58.5058 17.5317C58.5604 17.542 58.6118 17.5651 58.6558 17.599C58.6998 17.633 58.7351 17.6769 58.7589 17.7271C58.7827 17.7773 58.7943 17.8325 58.7927 17.888C58.7911 17.9436 58.7764 17.998 58.7498 18.0468C58.6298 18.2714 58.5175 18.496 58.4013 18.7245C58.4439 20.506 58.4013 21.3696 58.6375 22.1054C58.7343 22.4114 58.8776 22.1713 58.6375 22.1054C58.5924 22.1231 58.5441 22.1314 58.4956 22.1298C58.4471 22.1282 58.3995 22.1167 58.3556 22.096C58.3118 22.0754 58.2726 22.046 58.2405 22.0096C58.2084 21.9733 58.184 21.9308 58.1689 21.8847L58.1379 21.7995C58.0985 21.83 58.0532 21.852 58.0048 21.8641C57.9564 21.8762 57.9061 21.8781 57.857 21.8697C57.8078 21.8614 57.7609 21.8429 57.7193 21.8154C57.6777 21.788 57.6422 21.7523 57.6151 21.7104L57.5415 21.5942C57.5224 21.6891 57.4684 21.7734 57.3902 21.8304C57.312 21.8875 57.2153 21.9132 57.1191 21.9025C57.0229 21.8918 56.9342 21.8455 56.8705 21.7727C56.8067 21.6999 56.7726 21.6058 56.7747 21.509Z" fill="#FF7D09"/>
<path id="Vector_25" d="M51.6701 23.1384C51.6701 23.1384 54.4624 23.8858 55.4074 23.3824C56.3523 22.8789 56.0735 19.2656 56.0735 19.2656C56.8977 19.2939 57.7198 19.365 58.5366 19.4786C59.2647 19.6219 59.0904 24.126 57.642 26.0043C56.1935 27.8825 51.4843 27.8128 51.4843 27.8128" fill="#FFA9A3"/>
<path id="Vector_26" d="M39.8752 26.783C38.9742 26.4706 38.0834 26.1324 37.203 25.7684C37.0152 25.4753 36.8122 25.1922 36.595 24.9202C36.444 24.6991 36.2278 24.5306 35.9765 24.4383C35.7251 24.3459 35.4513 24.3343 35.193 24.4051C35.0901 24.4363 35.0021 24.504 34.9455 24.5954C34.8889 24.6869 34.8677 24.7959 34.8858 24.9019C34.9038 25.0079 34.96 25.1037 35.0436 25.1712C35.1273 25.2388 35.2328 25.2735 35.3402 25.2688L35.4177 25.3385C34.4107 25.5205 32.5983 25.9194 33.1482 26.8644C33.1151 26.899 33.0853 26.9366 33.0591 26.9767C32.9718 27.1171 32.9415 27.2858 32.9747 27.4478C33.0078 27.6099 33.1018 27.7531 33.2373 27.848C33.3393 27.9225 33.4584 27.97 33.5836 27.9863C33.7088 28.0025 33.8361 27.987 33.9537 27.941C34.054 28.0885 34.2065 28.1925 34.3804 28.232C34.5543 28.2715 34.7368 28.2437 34.891 28.154L35.1311 28.0456C35.126 28.1116 35.138 28.1778 35.1658 28.2378C35.1936 28.2979 35.2364 28.3498 35.29 28.3887C35.3436 28.4275 35.4062 28.452 35.472 28.4597C35.5377 28.4674 35.6044 28.4582 35.6655 28.4328L36.4827 28.1579C38.4694 28.5064 39.4415 28.5955 40.2238 28.9866C40.2548 29.2655 40.5491 29.1493 40.2238 28.9866C40.2536 28.9396 40.2729 28.8867 40.2804 28.8315C40.2879 28.7763 40.2835 28.7201 40.2673 28.6668C40.2511 28.6135 40.2236 28.5643 40.1867 28.5226C40.1498 28.4809 40.1043 28.4476 40.0534 28.4251L39.9643 28.3786C40.0048 28.3403 40.0371 28.294 40.0592 28.2427C40.0813 28.1915 40.0927 28.1362 40.0927 28.0804C40.0927 28.0246 40.0813 27.9694 40.0592 27.9181C40.0371 27.8668 40.0048 27.8206 39.9643 27.7822L39.8481 27.6776C39.9517 27.6595 40.0458 27.6062 40.1146 27.5267C40.1834 27.4472 40.2227 27.3465 40.2259 27.2414C40.2291 27.1363 40.1959 27.0333 40.1321 26.9498C40.0682 26.8664 39.9775 26.8074 39.8752 26.783Z" fill="#FF7D09"/>
<path id="Vector_27" d="M52.5532 52.9013C52.3673 52.8161 45.253 31.4461 52.9405 31.8915C55.9264 32.0658 56.7784 44.8614 56.972 46.2711C57.1657 47.6808 59.6326 55.5968 59.6326 55.5968C57.3632 57.7539 55.7327 57.4092 55.7327 57.4092L52.5532 52.9013Z" fill="#455A64"/>
<path id="Vector_28" d="M46.6795 57.6719L47.2294 63.8683L46.4548 64.5538L45.5873 64.3447C45.5873 64.3447 45.6687 62.6987 45.3588 62.3424C45.049 61.9861 44.5649 63.7831 44.2667 63.7792C43.9685 63.7754 40.4327 62.8962 40.3939 62.4664C40.3165 61.8932 41.0949 61.2232 42.5937 61.5601C44.2164 61.9242 44.4681 60.0962 44.6888 58.3457" fill="#F8997C"/>
<path id="Vector_29" d="M45.5198 62.5829L45.3688 62.3467C45.2554 62.2412 45.1159 62.168 44.9647 62.1346C44.8136 62.1013 44.6562 62.109 44.509 62.1569C44.0869 62.3622 44.1759 63.8339 44.1759 63.8339L45.6321 63.2607C45.6441 63.0293 45.6058 62.7981 45.5198 62.5829Z" fill="#9E005D"/>
<path id="Vector_30" d="M47.9833 33.9977C47.9833 33.9977 45.3769 41.0268 44.7844 44.0669C44.1918 47.1071 43.2934 58.8532 43.5025 59.1708C43.7116 59.4883 45.9307 60.2397 47.6386 60.2125C49.3465 60.1854 50.3108 46.1699 50.3108 46.1699C50.3108 46.1699 54.9581 34.3734 53.7227 33.0799C52.4873 31.7864 47.9833 33.9977 47.9833 33.9977Z" fill="#455A64"/>
<path id="Vector_31" d="M47.7082 35.6636C50.0744 36.411 53.0797 35.5164 54.5242 33.4832C54.2531 30.1565 53.68 24.6533 52.828 23.8322C51.5925 22.6394 48.9165 24.3357 47.9521 25.9971C47.4525 26.8569 43.3784 26.7058 43.3784 26.7058L38.0069 25.9042L37.3446 28.468C37.3446 28.468 44.5441 31.0627 47.9211 29.99L47.7082 35.6636Z" fill="#FFA9A3"/>
<path id="Vector_32" d="M48.711 17.7824C48.5212 17.825 48.2114 18.1271 47.7506 19.2153C47.2897 20.3036 48.3934 21.6861 48.8737 21.9766C49.3539 22.2671 50.0355 23.3979 50.0355 23.3979C50.0355 23.3979 51.8015 23.8239 52.9904 21.6629C54.1794 19.5019 51.5769 17.155 48.711 17.7824Z" fill="#CC4D1B"/>
<path id="Vector_33" d="M48.2117 18.9919C48.2117 18.9919 47.321 22.609 48.6339 23.4339C49.9467 24.2588 51.7321 22.0669 51.8831 21.1916C52.0342 20.3164 51.0931 18.4342 48.2117 18.9919Z" fill="#FF7D09"/>
<path id="Vector_34" d="M48.2131 18.9906C48.2131 18.9906 47.9924 21.353 49.2162 21.872C50.44 22.3909 50.4632 23.1306 50.4632 23.1306C50.4632 23.1306 52.7017 21.9185 52.9418 20.8767C53.1819 19.8349 49.9249 18.0457 48.2131 18.9906Z" fill="#CC4D1B"/>
<path id="Vector_35" d="M52.3226 21.83C51.8772 25.3698 52.7718 29.9087 51.3002 33.2315C51.2111 33.4368 51.0136 34.3585 50.8625 34.3546L54.4371 32.4182C55.87 31.5313 56.9118 30.9582 56.4006 28.7081C55.8894 26.458 53.0081 21.6713 53.0081 21.6713L52.3226 21.83Z" fill="#CC4D1B"/>
<path id="Vector_36" d="M51.9017 23.4287L51.5686 22.6929C50.9084 23.0335 50.2252 23.3272 49.5238 23.572C48.6834 23.8276 48.9196 24.7997 48.9196 24.7997C48.9196 24.7997 50.8715 24.819 51.9017 23.4287Z" fill="url(#paint0_linear_102_473)"/>
</g>
</g>
<defs>
<linearGradient id="paint0_linear_102_473" x1="50.3954" y1="22.6929" x2="50.3954" y2="24.7997" gradientUnits="userSpaceOnUse">
<stop stop-color="#32959D"/>
<stop offset="1" stop-color="#036696" stop-opacity="0.8"/>
</linearGradient>
</defs>
</svg>
