<svg width="315" height="59" viewBox="0 0 315 59" fill="none" xmlns="http://www.w3.org/2000/svg">
<path fill-rule="evenodd" clip-rule="evenodd" d="M179.503 63.6656C185.238 58.9456 191.846 54.6936 199.273 54.6936C204.82 54.6936 209.984 57.2278 215.005 59.5826C218.368 61.1595 222.122 62.0406 226.082 62.0406C229.595 62.0406 232.946 61.3473 236.005 60.09C241.884 57.6743 247.798 54.6936 254.153 54.6936H257.595C263.95 54.6936 269.864 57.6743 275.743 60.09C278.802 61.3473 282.153 62.0406 285.665 62.0406C289.178 62.0406 292.529 61.3473 295.588 60.09C301.467 57.6743 307.381 54.6936 313.736 54.6936H317.193C323.548 54.6936 329.462 57.6743 335.341 60.09C338.4 61.3473 341.751 62.0406 345.263 62.0406C359.69 62.0406 371.386 50.3453 371.386 35.9183C371.386 21.4913 359.69 9.79596 345.263 9.79596C341.751 9.79596 338.4 10.4893 335.341 11.7466C329.463 14.1622 323.549 17.1428 317.193 17.1428H313.736C307.38 17.1428 301.466 14.1622 295.588 11.7466C292.529 10.4893 289.178 9.79596 285.665 9.79596C282.153 9.79596 278.802 10.4893 275.743 11.7466C269.865 14.1622 263.951 17.1428 257.596 17.1428H254.152C247.797 17.1428 241.883 14.1622 236.005 11.7466C232.946 10.4893 229.595 9.79596 226.082 9.79596C222.123 9.79596 218.368 10.6771 215.005 12.254C209.984 14.6086 204.82 17.1428 199.273 17.1428C191.846 17.1428 185.238 12.8908 179.503 8.17078C173.3 3.06556 165.355 3.05176e-05 156.693 3.05176e-05C148.033 3.05176e-05 140.088 3.06541 133.884 8.1704C128.149 12.8906 121.541 17.1428 114.113 17.1428C108.566 17.1428 103.402 14.6085 98.3799 12.2538C95.017 10.677 91.2631 9.79596 87.3033 9.79596C83.7906 9.79596 80.4399 10.4893 77.3805 11.7466C71.5024 14.1622 65.5885 17.1428 59.2334 17.1428H55.7903C49.4351 17.1428 43.5212 14.1622 37.6431 11.7466C34.5837 10.4893 31.2329 9.79596 27.7203 9.79596C24.2076 9.79596 20.8569 10.4893 17.7974 11.7466C11.9193 14.1622 6.0054 17.1428 -0.34972 17.1428H-3.80768C-10.1628 17.1428 -16.0767 14.1622 -21.9548 11.7466C-25.0143 10.4893 -28.365 9.79596 -31.8777 9.79596C-46.3046 9.79596 -58 21.4913 -58 35.9183C-58 50.3453 -46.3046 62.0406 -31.8777 62.0406C-28.365 62.0406 -25.0142 61.3473 -21.9548 60.09C-16.0766 57.6743 -10.1626 54.6936 -3.80743 54.6936H-0.349964C6.00522 54.6936 11.9192 57.6743 17.7974 60.09C20.8568 61.3473 24.2076 62.0406 27.7203 62.0406C31.233 62.0406 34.5838 61.3473 37.6432 60.09C43.5214 57.6743 49.4353 54.6936 55.7905 54.6936H59.2331C65.5883 54.6936 71.5022 57.6743 77.3804 60.09C80.4399 61.3473 83.7906 62.0406 87.3033 62.0406C91.2632 62.0406 95.0172 61.1595 98.3801 59.5827C103.402 57.228 108.566 54.6936 114.113 54.6936C121.541 54.6936 128.149 58.9458 133.884 63.666C140.088 68.771 148.033 71.8364 156.693 71.8364C165.355 71.8364 173.3 68.7709 179.503 63.6656Z" fill="#A4DEDF"/>
<path fill-rule="evenodd" clip-rule="evenodd" d="M179.504 71.8285C185.239 67.1085 191.846 62.8568 199.273 62.8568C204.819 62.8568 209.983 65.3909 215.005 67.7457C218.368 69.3229 222.122 70.2042 226.082 70.2042C229.595 70.2042 232.946 69.5108 236.006 68.2534C241.884 65.8376 247.798 62.8568 254.154 62.8568H257.594C263.95 62.8568 269.864 65.8376 275.742 68.2534C278.802 69.5108 282.153 70.2042 285.665 70.2042C289.178 70.2042 292.529 69.5108 295.589 68.2534C301.467 65.8376 307.381 62.8568 313.737 62.8568H317.192C323.548 62.8568 329.462 65.8376 335.34 68.2534C338.4 69.5108 341.751 70.2042 345.263 70.2042C359.69 70.2042 371.386 58.5088 371.386 44.0819C371.386 29.6549 359.69 17.9595 345.263 17.9595C341.751 17.9595 338.4 18.6528 335.341 19.91C329.463 22.3255 323.549 25.3059 317.194 25.3059H313.735C307.38 25.3059 301.466 22.3255 295.588 19.91C292.529 18.6528 289.178 17.9595 285.665 17.9595C282.153 17.9595 278.802 18.6528 275.743 19.91C269.865 22.3255 263.951 25.3059 257.596 25.3059H254.152C247.797 25.3059 241.883 22.3255 236.005 19.91C232.946 18.6528 229.595 17.9595 226.082 17.9595C222.123 17.9595 218.369 18.8405 215.006 20.4171C209.984 22.7717 204.82 25.3059 199.274 25.3059C191.845 25.3059 185.238 21.0537 179.502 16.3337C173.299 11.2289 165.354 8.1636 156.693 8.1636C148.033 8.1636 140.088 11.2287 133.885 16.3333C128.149 21.0535 121.541 25.3059 114.113 25.3059C108.566 25.3059 103.401 22.7716 98.3791 20.417C95.0164 18.8404 91.2628 17.9595 87.3033 17.9595C83.7908 17.9595 80.4401 18.6528 77.3808 19.91C71.5028 22.3255 65.5891 25.3059 59.2342 25.3059H55.7894C49.4345 25.3059 43.5208 22.3255 37.6428 19.91C34.5835 18.6528 31.2328 17.9595 27.7203 17.9595C24.2077 17.9595 20.8571 18.6528 17.7977 19.91C11.9198 22.3255 6.00603 25.3059 -0.348885 25.3059H-3.80852C-10.1634 25.3059 -16.0772 22.3255 -21.9551 19.91C-25.0145 18.6528 -28.3651 17.9595 -31.8777 17.9595C-46.3046 17.9595 -58 29.6549 -58 44.0819C-58 58.5088 -46.3046 70.2042 -31.8777 70.2042C-28.3649 70.2042 -25.014 69.5108 -21.9545 68.2534C-16.0761 65.8376 -10.162 62.8568 -3.80659 62.8568H-0.350807C6.0046 62.8568 11.9187 65.8376 17.7971 68.2534C20.8566 69.5108 24.2075 70.2042 27.7203 70.2042C31.2331 70.2042 34.5839 69.5108 37.6435 68.2534C43.5218 65.8376 49.436 62.8568 55.7914 62.8568H59.2323C65.5877 62.8568 71.5018 65.8376 77.3801 68.2534C80.4397 69.5108 83.7905 70.2042 87.3033 70.2042C91.2635 70.2042 95.0178 69.323 98.3809 67.7459C103.403 65.3911 108.567 62.8568 114.113 62.8568C121.541 62.8568 128.148 67.1088 133.884 71.8289C140.087 76.9343 148.032 80 156.693 80C165.355 80 173.3 76.9342 179.504 71.8285Z" fill="white"/>
</svg>
