<svg width="93" height="172" viewBox="0 0 93 172" fill="none" xmlns="http://www.w3.org/2000/svg">
<g id="Frame 37589" clip-path="url(#clip0_0_46203)">
<g id="freepik--Character--inject-338">
<path id="Vector" d="M19.4794 122.489C15.3497 126.94 12.5796 132.48 11.4963 138.455C10.8925 141.649 8.67025 148.388 8.82726 160.611C9.08088 180.46 9.92628 209.01 9.92628 209.01C36.8773 210.531 63.8927 210.531 90.8437 209.01C90.8437 209.01 76.0673 136.915 70.0407 127.767L67.4562 121.45L19.4794 122.489Z" fill="#263238"/>
<path id="Vector_2" d="M19.4767 122.489L20.3101 122.459L22.7799 122.387L32.2967 122.151L67.4777 121.336H67.5562L67.5864 121.408L70.1709 127.719C70.9027 128.984 71.5211 130.312 72.0187 131.686L72.7856 133.788C73.0211 134.5 73.2627 135.219 73.5042 135.937C74.4402 138.842 75.3158 141.861 76.1733 144.965C77.8883 151.179 79.5308 157.761 81.1853 164.633C84.4704 178.389 87.7674 193.316 91.0283 208.992L91.0645 209.174H90.8834C85.9438 209.451 80.6962 209.699 75.3883 209.886C51.886 210.707 29.5854 210.285 9.9176 209.162H9.79078V209.029C9.50093 195.877 9.23523 183.745 8.99973 172.948C8.93934 170.251 8.88097 167.634 8.82461 165.098C8.7763 162.574 8.69176 160.134 8.7461 157.779C8.80764 153.463 9.23387 149.161 10.0203 144.917C10.3826 142.996 10.8174 141.191 11.228 139.482L11.7714 137.006C11.9466 136.203 12.1881 135.448 12.3753 134.711C13.1654 132.253 14.2288 129.891 15.5456 127.67C16.3764 126.291 17.3111 124.977 18.3415 123.739C18.6956 123.315 19.0747 122.911 19.4767 122.532L19.1869 122.846C19.0057 123.051 18.7279 123.359 18.3777 123.782C17.364 125.029 16.4437 126.349 15.6241 127.731C14.3175 129.961 13.2662 132.331 12.49 134.796C12.2847 135.527 12.0492 136.281 11.8862 137.079C11.7231 137.876 11.5359 138.703 11.3548 139.554C10.9683 141.257 10.5335 143.057 10.1833 144.989C9.42 149.225 9.01599 153.518 8.97558 157.821C8.92727 160.164 9.01784 162.604 9.07219 165.134C9.12653 167.664 9.19297 170.273 9.25939 172.984C9.51301 183.781 9.79079 195.931 10.0988 209.065L9.96591 208.926C29.6276 210.025 51.9162 210.442 75.4064 209.62C80.7143 209.433 85.9558 209.186 90.8954 208.914L90.7505 209.101C87.4957 193.401 84.2047 178.497 80.9317 164.748C79.2892 157.87 77.6467 151.287 75.9438 145.08C75.0863 141.97 74.2228 138.957 73.2929 136.058C73.0513 135.339 72.8158 134.621 72.5803 133.908C72.3448 133.196 72.0731 132.507 71.8195 131.813C71.3322 130.454 70.726 129.14 70.0079 127.888C69.1021 125.678 68.2265 123.522 67.4294 121.571L67.5381 121.644L32.3631 122.272L22.8342 122.453L20.3523 122.489H19.4767Z" fill="#455A64"/>
<path id="Vector_3" d="M52.5013 203.092C52.432 202.948 52.3735 202.798 52.3261 202.645L51.8914 201.347C51.517 200.212 50.9674 198.581 50.267 196.571C48.866 192.549 46.7948 187.042 44.1982 181.088C41.6016 175.133 38.9566 169.874 36.9518 166.112C35.9555 164.234 35.1402 162.718 34.5364 161.679L33.8782 160.472C33.7954 160.336 33.7267 160.192 33.6729 160.043C33.7686 160.17 33.8554 160.303 33.9325 160.442C34.1137 160.737 34.3492 161.124 34.639 161.649C35.2429 162.67 36.1064 164.167 37.1269 166.039C39.1801 169.777 41.8491 175.031 44.4518 180.997C47.0544 186.963 49.0955 192.47 50.4481 196.528C51.1245 198.551 51.6559 200.194 51.9759 201.359C52.1329 201.909 52.2657 202.343 52.3563 202.676C52.4166 202.81 52.4651 202.949 52.5013 203.092Z" fill="#455A64"/>
<path id="Vector_4" d="M53.9937 156.1C54.0722 156.136 52.786 159.12 51.1254 162.797C49.4648 166.475 48.0638 169.397 47.9732 169.337C47.8826 169.276 49.1809 166.318 50.8416 162.646C52.5022 158.975 53.9152 156.052 53.9937 156.1Z" fill="#455A64"/>
<path id="Vector_5" d="M21.9464 14.7842C20.3525 16.3585 19.163 18.295 18.4796 20.4285C17.7961 22.562 17.6389 24.8291 18.0213 27.0365C18.4077 29.1742 19.2592 31.5655 18.0213 33.3529C16.7834 35.1404 14.0781 35.3577 12.9247 37.1693C11.566 39.301 13.1783 42.0968 12.8703 44.6089C12.6869 45.7815 12.0923 46.8507 11.1928 47.6251C10.2934 48.3995 9.1478 48.8287 7.96094 48.8359C10.9606 50.8008 14.4433 51.9018 18.0273 52.0183L20.3643 48.2804C19.4645 49.5968 19.9355 51.499 21.0587 52.6342C22.1819 53.7695 23.77 54.2828 25.328 54.6089C29.0726 55.3492 32.9376 55.2157 36.6222 54.2186C40.3067 53.2215 43.7116 51.3878 46.5719 48.8601" fill="#263238"/>
<path id="Vector_6" d="M64.3669 29.6031C63.6604 28.0089 62.5976 26.5838 62.0541 24.9171C60.9008 21.3483 62.2534 17.0669 60.1399 13.9631C58.6423 11.7529 55.8404 10.8894 53.2196 10.3399C50.5989 9.79038 47.7849 9.44014 45.7257 7.77349C44.1979 6.56576 43.2136 4.75418 41.6859 3.54646C39.518 1.79526 36.5349 1.43898 33.7511 1.55371C30.9673 1.66845 27.9782 2.24815 25.5507 3.76989C23.1232 5.29162 21.2452 7.86407 21.0761 10.7264C20.9976 12.1213 21.3176 13.5404 21.0217 14.9051C20.6956 16.4087 19.6691 17.6527 19.1075 19.0838C18.55 20.6134 18.5161 22.2847 19.0112 23.8356C19.5063 25.3865 20.5023 26.7291 21.843 27.6526L43.9745 50.8469C48.2378 51.9701 57.9841 49.0716 60.8404 45.7141C63.6966 42.3566 66.1785 33.6308 64.3669 29.6031Z" fill="#263238"/>
<path id="Vector_7" d="M22.0186 24.4094C22.23 18.6063 25.8833 11.3841 31.6804 11.8431L49.8748 15.9191C50.7239 15.9871 51.5168 16.3708 52.097 16.9945C52.6771 17.6183 53.0025 18.4368 53.0088 19.2887L54.3433 61.7885C54.3886 61.7619 54.4415 61.7512 54.4935 61.7581C54.5456 61.765 54.5938 61.7892 54.6306 61.8266C54.6674 61.8641 54.6906 61.9128 54.6965 61.965C54.7025 62.0171 54.6908 62.0698 54.6634 62.1146C52.8518 65.3935 44.3072 79.8017 33.6309 76.7824C31.2154 76.106 33.027 68.6242 32.4836 65.9793L32.079 59.1134C31.9461 55.6049 31.9099 54.1617 31.9038 54.1919C31.8978 54.2221 24.4643 53.1593 22.6768 43.5337C21.7529 38.7451 21.7831 30.8587 22.0186 24.4094Z" fill="#FFBF9D"/>
<path id="Vector_8" d="M25.4121 32.6286C25.4121 32.7872 25.4433 32.9442 25.504 33.0908C25.5647 33.2373 25.6537 33.3704 25.7658 33.4826C25.878 33.5947 26.0111 33.6837 26.1577 33.7444C26.3042 33.8051 26.4612 33.8363 26.6198 33.8363C26.9372 33.8478 27.2463 33.7339 27.4802 33.5191C27.7142 33.3044 27.8542 33.0062 27.8698 32.689C27.8607 32.3716 27.7305 32.0696 27.506 31.8451C27.2814 31.6205 26.9795 31.4904 26.6621 31.4813C26.3447 31.4698 26.0356 31.5837 25.8017 31.7985C25.5677 32.0132 25.4278 32.3114 25.4121 32.6286Z" fill="#263238"/>
<path id="Vector_9" d="M37.5986 33.0329C37.5986 33.3532 37.7259 33.6604 37.9524 33.8869C38.1789 34.1134 38.486 34.2406 38.8064 34.2406C39.1237 34.2521 39.4328 34.1382 39.6668 33.9234C39.9007 33.7087 40.0407 33.4105 40.0564 33.0933C40.0564 32.773 39.9291 32.4658 39.7026 32.2393C39.4761 32.0128 39.1689 31.8856 38.8486 31.8856C38.5313 31.8741 38.2222 31.988 37.9882 32.2027C37.7543 32.4175 37.6143 32.7157 37.5986 33.0329Z" fill="#263238"/>
<path id="Vector_10" d="M23.3407 28.6372C23.4977 28.8486 24.5485 28.0032 26.0159 28.0334C27.4832 28.0636 28.4917 28.9814 28.6608 28.7822C28.7453 28.6916 28.5943 28.3172 28.1475 27.9005C27.5661 27.3829 26.8237 27.0821 26.046 27.0491C25.2682 27.0279 24.5075 27.28 23.8963 27.7616C23.4313 28.1783 23.2622 28.5467 23.3407 28.6372Z" fill="#263238"/>
<path id="Vector_11" d="M36.2713 28.8116C36.4646 28.9988 37.479 28.0688 39.0491 27.9722C40.6191 27.8756 41.7846 28.6364 41.9355 28.4251C42.014 28.3285 41.8148 27.9782 41.2954 27.622C40.6071 27.1724 39.7907 26.9604 38.9706 27.0181C38.1562 27.0713 37.3828 27.3942 36.7725 27.936C36.3196 28.3526 36.1807 28.727 36.2713 28.8116Z" fill="#263238"/>
<path id="Vector_12" d="M32.3619 38.3834C31.651 38.1867 30.9192 38.0752 30.182 38.0513C29.8438 38.0513 29.5177 37.9667 29.4513 37.7373C29.4151 37.3842 29.4867 37.0284 29.6566 36.7167L30.6107 34.0718C31.9151 30.346 32.845 27.2784 32.694 27.2301C32.5431 27.1818 31.3655 30.1588 30.0672 33.8726C29.7532 34.7904 29.4634 35.6841 29.1675 36.5054C28.967 36.9247 28.9179 37.4006 29.0286 37.852C29.0844 37.9742 29.1681 38.0816 29.273 38.1655C29.3779 38.2494 29.501 38.3075 29.6325 38.3351C29.8302 38.3817 30.0333 38.402 30.2363 38.3955C30.9427 38.4789 31.6566 38.4748 32.3619 38.3834Z" fill="#263238"/>
<path id="Vector_13" d="M31.873 54.1924C36.429 54.1344 40.8796 52.8133 44.7293 50.376C44.7293 50.376 41.6556 57.2419 31.9576 56.5958L31.873 54.1924Z" fill="#6F4439"/>
<path id="Vector_14" d="M36.8192 41.8316C36.6316 41.5239 36.3674 41.27 36.0523 41.0949C35.6799 40.9592 35.2714 40.9592 34.899 41.0949C34.3385 41.2419 33.8394 41.5633 33.4738 42.0128C33.2984 42.2408 33.1865 42.5112 33.1494 42.7965C33.1123 43.0818 33.1513 43.3719 33.2625 43.6372C33.4678 44.1746 34.3253 44.392 34.899 44.4343C35.48 44.4511 36.0492 44.2677 36.5113 43.915C36.7263 43.7931 36.9064 43.618 37.0343 43.4065C37.1623 43.1951 37.2338 42.9543 37.2419 42.7072C37.1856 42.3816 37.0392 42.0783 36.8192 41.8316Z" fill="#E8B671"/>
<path id="Vector_15" d="M36.3549 39.9954C36.1376 39.9954 36.1738 41.4326 34.96 42.4954C33.7463 43.5582 32.2004 43.4374 32.1943 43.6427C32.1943 43.7333 32.5446 43.9145 33.1967 43.9145C34.0465 43.9029 34.8652 43.593 35.5095 43.0389C36.1241 42.5047 36.5091 41.7542 36.5844 40.9435C36.6206 40.3396 36.4516 39.9833 36.3549 39.9954Z" fill="#263238"/>
<path id="Vector_16" d="M35.9847 25.2249C36.1236 25.5872 37.4521 25.3759 39.004 25.5268C40.5559 25.6778 41.8482 26.0643 42.0233 25.7322C42.1139 25.5751 41.8844 25.243 41.3651 24.9049C40.6778 24.4828 39.899 24.2322 39.0946 24.1742C38.2899 24.0999 37.4791 24.2157 36.7274 24.5123C36.1779 24.7599 35.9001 25.0558 35.9847 25.2249Z" fill="#263238"/>
<path id="Vector_17" d="M24.1579 23.2018C24.4357 23.4977 25.4743 23.1535 26.7364 23.1051C27.9984 23.0568 29.0733 23.2501 29.3149 22.924C29.4175 22.767 29.2424 22.4711 28.7654 22.1933C28.1135 21.865 27.3871 21.7129 26.6583 21.7521C25.9295 21.7913 25.2237 22.0204 24.6108 22.4167C24.176 22.7066 24.0371 23.0266 24.1579 23.2018Z" fill="#263238"/>
<path id="Vector_18" d="M53.8673 16.8978C52.8407 15.6297 51.1801 15.0862 49.604 14.6635C42.796 12.8155 35.7923 11.7837 28.7406 11.5898C28.022 13.1055 29.0244 14.9654 30.4375 15.8712C31.8505 16.777 33.5715 17.0065 35.1959 17.4292C36.8203 17.8519 38.5171 18.5886 39.3203 20.062C40.1717 21.626 39.7973 23.6248 40.5703 25.2371C41.9048 28.0028 46.005 28.51 47.3275 31.2757C48.3238 33.3772 47.3275 35.8228 47.2248 38.1416C47.1829 39.3199 47.3926 40.4936 47.8399 41.5845C48.2872 42.6754 48.9619 43.6585 49.819 44.4682C50.6761 45.2778 51.6959 45.8955 52.8104 46.2801C53.925 46.6646 55.1087 46.8072 56.2827 46.6984C55.9043 38.4094 55.5259 30.1163 55.1475 21.8193C55.0811 20.0983 54.9542 18.2444 53.8673 16.8978Z" fill="#263238"/>
<path id="Vector_19" d="M72.6367 36.0037C71.2116 34.9711 69.4785 34.1317 68.7841 32.5134C67.7757 30.1643 69.4363 27.0786 67.9447 25.0194C66.5921 23.1173 63.2225 23.5702 61.9424 21.6137C60.9399 20.0919 61.7491 18.5642 61.2902 17.1813C60.8312 15.7985 58.6875 14.7659 57.2624 15.0859L47.6973 32.5979C47.2202 38.1776 46.4895 41.2029 47.975 44.2826C48.8023 45.9734 49.8168 47.5978 50.2637 49.4275C50.7105 51.2572 50.4509 53.4009 49.0559 54.657C55.8433 54.4879 61.7854 50.3092 67.2624 46.2995L73.0595 42.0725C73.6985 41.6795 74.2297 41.1337 74.6053 40.4843C75.3481 38.8479 74.0317 37.0363 72.6367 36.0037Z" fill="#263238"/>
<path id="Vector_20" d="M67.2474 44.6032C67.023 44.7009 66.7879 44.7718 66.5469 44.8146C65.8515 44.9577 65.1369 44.9822 64.4334 44.8871C63.3121 44.7359 62.249 44.2969 61.3477 43.6129C60.1519 42.6819 59.324 41.3578 59.0107 39.875C58.8238 39.0189 58.8095 38.1341 58.9685 37.2724C59.179 36.3543 59.5121 35.4688 59.9588 34.6395C60.4319 33.7851 60.7758 32.8653 60.9793 31.9101C61.0865 31.4216 61.083 30.9154 60.9691 30.4285C60.8552 29.9416 60.6338 29.4863 60.3211 29.0961C59.6267 28.3412 58.4673 28.2567 57.3682 27.9427C56.7737 27.7959 56.2358 27.4766 55.8223 27.0248C55.4345 26.5339 55.2087 25.9347 55.1762 25.3099C55.0615 24.1021 55.4721 22.8944 55.5808 21.7229C55.6531 21.1438 55.5953 20.5559 55.4117 20.0019C55.2045 19.4617 54.8102 19.0139 54.3006 18.7398C53.2559 18.136 52.0059 18.136 50.7982 18.1843C49.5697 18.2666 48.3403 18.0382 47.2233 17.52C46.1476 17.0011 45.2348 16.197 44.5845 15.1952C44.0214 14.2175 43.6139 13.1581 43.3768 12.0551C43.1552 11.04 42.8294 10.0504 42.4045 9.10222C41.9672 8.24001 41.3493 7.48209 40.5929 6.88001C39.3284 5.88149 37.7788 5.31161 36.1686 5.25298C34.5585 5.19435 32.9715 5.65001 31.6377 6.55392C30.7146 7.15148 29.9066 7.91036 29.2524 8.79425C28.7027 9.55926 28.2446 10.3862 27.8877 11.258C27.8915 11.1957 27.9058 11.1344 27.93 11.0768C27.9722 10.9561 28.0205 10.781 28.1172 10.5575C28.369 9.90389 28.6995 9.28338 29.1015 8.70971C29.7579 7.7904 30.5764 6.99847 31.5169 6.37276C32.7552 5.51914 34.2108 5.03534 35.7137 4.97784C37.5447 4.93453 39.3358 5.51595 40.7922 6.62639C41.601 7.24981 42.2628 8.04352 42.7306 8.95125C43.1749 9.91945 43.5169 10.9314 43.7511 11.9706C43.9814 13.0321 44.3767 14.0509 44.9226 14.9899C45.5409 15.9292 46.403 16.6827 47.4166 17.1698C48.4827 17.6554 49.6543 17.8631 50.8224 17.7737C52.0301 17.7737 53.3465 17.7193 54.518 18.3775C55.1084 18.6972 55.5647 19.2178 55.8042 19.8449C56.012 20.4541 56.0761 21.103 55.9914 21.741C55.8706 22.9488 55.4781 24.1565 55.5868 25.2555C55.6095 25.8016 55.8015 26.3271 56.1363 26.7591C56.5026 27.155 56.9772 27.4343 57.5011 27.5623C58.0264 27.7193 58.582 27.8099 59.1255 27.9789C59.6891 28.1217 60.2029 28.4162 60.611 28.8304C60.9585 29.2618 61.2046 29.7658 61.3311 30.3051C61.4576 30.8445 61.4612 31.4054 61.3416 31.9463C61.1287 32.9346 60.7684 33.8852 60.2728 34.7663C59.8356 35.5695 59.5048 36.4261 59.2885 37.3146C59.1252 38.1359 59.1252 38.9813 59.2885 39.8025C59.5714 41.23 60.3474 42.5126 61.4805 43.4257C62.3442 44.107 63.3701 44.5522 64.4576 44.718C65.3863 44.8587 66.3334 44.8197 67.2474 44.6032Z" fill="#455A64"/>
<path id="Vector_21" d="M75.0251 32.0732C75.1568 32.2256 75.2537 32.4049 75.3089 32.5986C75.4772 33.162 75.4343 33.7674 75.1881 34.3014C75.0214 34.6917 74.7573 35.0327 74.4212 35.2918C74.0159 35.5984 73.5325 35.7846 73.0263 35.8292C72.4083 35.8811 71.788 35.7621 71.2331 35.4852C70.6783 35.2083 70.2102 34.7842 69.8802 34.2592C69.4986 33.6559 69.2648 32.9711 69.1978 32.2604C69.1376 31.4931 69.2195 30.7214 69.4393 29.9838C69.8198 28.4742 70.6471 26.9645 70.4901 25.2496C70.4802 24.8274 70.3847 24.4117 70.2093 24.0276C70.0338 23.6435 69.7822 23.2991 69.4695 23.0153C68.7263 22.5239 67.8215 22.3399 66.9454 22.502C65.9712 22.6802 64.9728 22.6802 63.9986 22.502C63.4818 22.3528 63.0253 22.0442 62.6942 21.6203C62.376 21.1945 62.1554 20.7038 62.0481 20.1832C61.8997 19.1835 61.8774 18.1691 61.9816 17.1639C62.0294 16.2252 61.8792 15.2871 61.5408 14.4102C60.8787 12.7406 59.6044 11.3864 57.9781 10.624C56.4322 9.89336 54.7353 9.97186 53.2015 10.0202C51.7552 10.1734 50.2938 10.096 48.8718 9.7907C46.8178 9.25754 45.0162 8.02012 43.7813 6.29434C43.322 5.67594 42.9764 4.98072 42.7607 4.24121C43.0806 4.93001 43.4648 5.58711 43.9081 6.20376C45.1531 7.85954 46.9252 9.04164 48.9322 9.5552C50.3237 9.83148 51.7496 9.89055 53.1592 9.73032C54.693 9.65181 56.4503 9.54916 58.1049 10.3342C59.8244 11.1258 61.1736 12.5485 61.873 14.3076C62.2369 15.2329 62.3996 16.2251 62.35 17.2182C62.2489 18.1912 62.2691 19.1729 62.4104 20.1409C62.4752 20.6004 62.6657 21.033 62.9609 21.3911C63.256 21.7491 63.6444 22.0186 64.0831 22.1699C65.0102 22.3299 65.9579 22.3299 66.885 22.1699C67.8601 21.9945 68.865 22.2116 69.6809 22.7737C70.0323 23.0903 70.3154 23.4754 70.5127 23.9053C70.71 24.3352 70.8174 24.8008 70.8282 25.2737C70.878 26.1462 70.757 27.02 70.4719 27.8462C70.2244 28.6433 69.9345 29.386 69.7292 30.1227C69.5144 30.822 69.4285 31.5545 69.4756 32.2845C69.5297 32.9487 69.7363 33.5914 70.0794 34.1626C70.379 34.6523 70.8069 35.0508 71.3168 35.3148C71.8267 35.5788 72.3991 35.6982 72.9719 35.6601C73.4408 35.6306 73.8923 35.4717 74.2763 35.2012C74.5913 34.9606 74.844 34.6479 75.013 34.2894C75.2575 33.7889 75.3215 33.2193 75.1941 32.6771C75.1501 32.4725 75.0937 32.2709 75.0251 32.0732Z" fill="#263238"/>
<path id="Vector_22" d="M4.499 43.4438C4.3695 44.0361 4.44177 44.6546 4.70431 45.2011C4.85141 45.5148 5.06644 45.7918 5.3338 46.0122C5.60117 46.2325 5.91418 46.3907 6.25019 46.4752C6.69946 46.5602 7.16354 46.5182 7.59025 46.354C8.01696 46.1897 8.38938 45.9096 8.66564 45.5453C8.97736 45.1196 9.13109 44.5986 9.10042 44.0718C9.05715 43.4907 8.90989 42.9221 8.66564 42.3931C8.18859 41.2941 7.3311 40.1286 7.28883 38.631C7.26034 37.8707 7.39182 37.1129 7.67476 36.4065C7.9577 35.7002 8.38579 35.0612 8.93134 34.5308C9.50463 33.9691 10.1786 33.5205 10.918 33.2084C11.6744 32.9021 12.4686 32.6989 13.2791 32.6045C14.0597 32.514 14.83 32.3502 15.5799 32.1154C16.2834 31.8945 16.8851 31.4298 17.2767 30.805C17.6159 30.1741 17.7708 29.4606 17.7236 28.7458C17.6878 28.0452 17.5578 27.3526 17.3371 26.6867C16.9204 25.3702 16.383 24.1021 16.3226 22.8099C16.2652 21.6178 16.566 20.4359 17.1861 19.4162C17.7156 18.6021 18.3961 17.8969 19.1909 17.3389C19.766 16.9145 20.3089 16.4482 20.8153 15.944C21.2336 15.5012 21.56 14.9799 21.7755 14.4102C21.7755 14.4102 21.7755 14.4524 21.7755 14.5309C21.7519 14.6486 21.7176 14.7638 21.6728 14.8751C21.5071 15.3077 21.2612 15.7052 20.9482 16.0466C20.454 16.575 19.9189 17.0636 19.3479 17.508C18.5915 18.0679 17.9464 18.7642 17.4458 19.5611C16.8751 20.5383 16.6042 21.6618 16.6668 22.7918C16.7332 23.9995 17.2707 25.2072 17.6994 26.578C17.9392 27.2733 18.0795 27.9991 18.1161 28.7338C18.1714 29.5197 18.0017 30.3052 17.627 30.9982C17.1912 31.7027 16.5191 32.2293 15.7308 32.4837C14.9573 32.7265 14.1628 32.8963 13.3576 32.991C12.5797 33.0828 11.8167 33.2735 11.0871 33.5586C10.3958 33.8423 9.76308 34.2518 9.22119 34.7663C8.71144 35.2596 8.31016 35.8538 8.04294 36.5109C7.77573 37.1681 7.64846 37.8737 7.66927 38.5827C7.66927 39.9535 8.49052 41.0706 8.97965 42.2059C9.24067 42.7762 9.3903 43.3911 9.42046 44.0175C9.44591 44.6099 9.26445 45.1928 8.90719 45.666C8.59705 46.0623 8.18187 46.3635 7.70893 46.5354C7.23598 46.7073 6.72428 46.7429 6.23208 46.6383C5.86979 46.5408 5.53431 46.3625 5.25086 46.1167C4.96742 45.8709 4.74339 45.564 4.59562 45.2192C4.40234 44.792 4.33127 44.3196 4.3903 43.8544C4.40683 43.7131 4.44344 43.5748 4.499 43.4438Z" fill="#263238"/>
<path id="Vector_23" d="M68.4926 61.2941L54.4045 58.4922C54.4045 58.4922 48.6256 66.8677 39.622 66.1431C34.3684 65.7204 32.1462 60.7084 32.1462 60.7084L17.3093 64.8871L17.098 94.9111L20.4917 111.215L11.4941 138.389C11.4941 138.389 35.6124 153.727 74.7064 137.924L67.8767 121.451L69.7306 111.692C69.7306 111.692 72.2064 93.2686 71.2281 87.5379C70.2499 81.8073 68.4624 75.044 68.4624 75.044L68.4926 61.2941Z" fill="#01818C"/>
<path id="Vector_24" d="M29.3438 108.8C29.6315 109.068 29.9473 109.305 30.2858 109.506C30.8896 109.935 31.8317 110.521 33.0031 111.197C39.1381 114.716 45.89 117.028 52.8944 118.009C54.2349 118.184 55.3098 118.293 56.0827 118.329C56.4743 118.368 56.8688 118.368 57.2603 118.329C56.8806 118.228 56.4925 118.164 56.1009 118.135C55.3521 118.045 54.2893 117.894 52.9427 117.677C49.4862 117.101 46.0816 116.249 42.7616 115.128C39.4458 113.982 36.2287 112.569 33.142 110.901C31.9343 110.261 31.0104 109.724 30.3582 109.337C30.0379 109.126 29.6982 108.946 29.3438 108.8Z" fill="#263238"/>
<g id="Group" opacity="0.3">
<path id="Vector_25" d="M16.8047 122.416C17.8518 122.612 18.9325 122.519 19.9305 122.147C20.9286 121.774 21.8062 121.137 22.4689 120.303C23.6766 118.678 24.2262 116.68 24.7334 114.699C25.9049 110.202 27.0724 105.701 28.2358 101.197C35.0161 97.4166 42.8999 96.1123 50.5364 97.507C51.7034 97.6543 52.8211 98.0675 53.8033 98.7147C55.0956 99.699 55.7115 101.317 56.255 102.845C57.5714 106.571 58.8395 110.375 61.116 113.6C63.3926 116.825 64.3226 119.204 68.2658 119.409L71.5629 103.54L60.3673 89.5059L32.173 90.4841L21.9073 97.1689L18.411 117.404L16.8047 122.416Z" fill="black"/>
</g>
<path id="Vector_26" d="M66.8491 61.245C66.8491 61.245 73.395 60.5204 77.8092 68.4008C81.052 74.1858 85.1341 85.7799 85.1341 85.7799L69.5967 90.0975L66.2393 74.9285L66.8491 61.245Z" fill="#01818C"/>
<path id="Vector_27" d="M17.3091 64.917C17.3091 64.917 12.5326 65.7866 9.84537 69.7962C7.15819 73.8058 2.4541 87.912 2.4541 87.912L18.7584 89.6814L20.2741 73.4979L17.3091 64.917Z" fill="#01818C"/>
<path id="Vector_28" d="M71.1607 77.043C70.9587 77.6806 70.829 78.3389 70.7742 79.0055C70.5568 80.3944 70.3092 82.0248 70.0375 83.7579C69.7658 85.491 69.4819 87.1214 69.2525 88.5103C69.1014 89.1622 69.0184 89.828 69.0049 90.497C69.2675 89.8793 69.456 89.2327 69.5665 88.5707C69.8442 87.363 70.1703 85.6963 70.4844 83.8304C70.7984 81.9644 70.9795 80.2736 71.0882 79.0417C71.1874 78.3803 71.2117 77.7098 71.1607 77.043Z" fill="#263238"/>
<path id="Vector_29" d="M18.0646 77.1572C17.9439 77.1572 17.6842 80.5992 17.497 84.8625C17.3098 89.1258 17.2494 92.5798 17.3702 92.5798C17.491 92.5798 17.7506 89.1378 17.974 84.8806C18.1975 80.6234 18.1914 77.1633 18.0646 77.1572Z" fill="#263238"/>
<path id="Vector_30" d="M47.3556 61.8492L50.2904 85.11C50.3298 85.4965 50.2168 85.8832 49.9754 86.1877C49.7341 86.4922 49.3835 86.6905 48.9981 86.7404L34.1009 88.8721C33.7131 88.9356 33.3158 88.8447 32.9942 88.619C32.6725 88.3933 32.452 88.0506 32.3799 87.6643L28.4608 63.3951C28.4311 63.1916 28.4443 62.9841 28.4996 62.786C28.5549 62.5879 28.651 62.4036 28.7818 62.2449C28.9127 62.0862 29.0753 61.9567 29.2592 61.8646C29.4431 61.7725 29.6442 61.72 29.8497 61.7104L45.7373 60.5751C46.1185 60.5416 46.4982 60.6548 46.7989 60.8916C47.0996 61.1283 47.2987 61.4708 47.3556 61.8492Z" fill="#263238"/>
<path id="Vector_31" d="M41.0286 74.5664C41.4332 74.5664 50.3522 75.7439 50.3522 75.7439L63.1602 81.5954L69.5913 90.0494L63.764 101.595L59.9657 91.9999C58.1401 92.6792 56.2072 93.0249 54.2592 93.0204C51.5479 92.8815 42.967 92.5977 42.967 92.5977L38.4622 90.4238C38.4622 90.4238 36.9526 88.2559 36.9284 87.634C36.9163 87.4519 36.954 87.2701 37.0377 87.1079C37.1213 86.9458 37.2475 86.8095 37.4028 86.7138C37.5582 86.6182 37.7367 86.5667 37.9191 86.5649C38.1015 86.5632 38.2809 86.6113 38.4381 86.704C39.3559 87.163 45.5395 87.0362 47.0552 86.3538C47.0552 86.3538 38.0274 86.0941 36.7895 84.7234C35.5516 83.3526 35.9199 82.2173 37.333 82.157C38.746 82.0966 43.9272 82.64 45.461 82.4528C46.9948 82.2656 48.9332 82.1871 49.2894 81.4263C49.6457 80.6654 48.4622 80.0978 48.4622 80.0978L46.7412 78.9263C46.7412 78.9263 40.1289 78.0748 39.6881 76.7282C39.6005 76.4982 39.5672 76.2511 39.5907 76.0062C39.6143 75.7612 39.694 75.5249 39.8237 75.3158C39.9534 75.1066 40.1296 74.9302 40.3386 74.8002C40.5475 74.6703 40.7837 74.5902 41.0286 74.5664Z" fill="#FFBF9D"/>
<path id="Vector_32" d="M38.0026 74.2531C38.0026 74.2531 30.551 75.7386 30.0679 76.2096C29.5848 76.6806 20.5873 88.2445 20.5873 88.2445L18.3711 90.4486L24.6211 97.9426L25.7925 97.1938L34.0836 92.4293C34.938 92.0266 35.83 91.7091 36.7466 91.4812C36.7466 91.4812 45.249 89.8387 45.7623 88.8242C46.2755 87.8098 45.9495 87.6165 45.3094 87.4716C44.6693 87.3267 39.5727 88.1117 38.4435 88.3593C37.3151 88.5127 36.1748 88.5592 35.0377 88.4982C35.0377 88.4982 38.5582 87.5561 39.3493 87.2542C40.1403 86.9523 48.0267 84.9173 47.8456 83.5525C47.6644 82.1878 46.6379 81.7409 41.7224 83.2204C39.0155 84.0884 36.217 84.6396 33.3831 84.8629L44.2526 80.7204C44.2526 80.7204 48.6366 79.1685 47.1572 78.003C45.6777 76.8376 36.2877 79.7422 36.2877 79.7422L32.1512 81.439L33.2382 78.9511C33.2382 78.9511 39.1439 77.0067 39.8806 76.3968C40.7985 75.648 40.9012 74.9837 40.1645 74.4282C39.4277 73.8726 38.0026 74.2531 38.0026 74.2531Z" fill="#FFBF9D"/>
<path id="Vector_33" d="M3.85514 88.0752L17.1401 89.5365V92.5559L19.0845 89.7358L24.6099 97.9483C24.6099 97.9483 22.9794 103.77 22.1038 107.006C19.785 115.593 15.8116 125.255 10.4554 125.007C4.02423 124.687 0.660717 118.141 0.582215 113.407C0.509752 109.102 3.85514 88.0752 3.85514 88.0752Z" fill="#FFBF9D"/>
<path id="Vector_34" d="M84.218 86.0036L73.0224 89.2101L69.5985 90.0675L66.2772 85.6533L61.543 95.5265C61.543 95.5265 63.6202 101.203 64.7434 104.343C67.7627 112.743 72.4608 122.096 77.7808 121.408C84.1636 120.587 88.5597 113.093 88.2699 108.365C88.0042 104.071 84.218 86.0036 84.218 86.0036Z" fill="#FFBF9D"/>
<path id="Vector_35" d="M20.582 88.2076C20.582 88.2076 20.6545 88.0929 20.8236 87.8755L21.5542 86.9093C22.2185 86.0579 23.1786 84.8139 24.4045 83.2258L28.9395 77.4408L29.6218 76.5893L29.9781 76.1485C30.1448 76.0229 30.3331 75.9287 30.5337 75.8707C31.2825 75.6231 32.0614 75.436 32.8706 75.2669C34.4829 74.8804 36.1919 74.5181 37.9914 74.1558C38.4461 74.0365 38.9178 73.9957 39.3863 74.035C39.6325 74.0587 39.8722 74.1283 40.0928 74.2403C40.3109 74.3649 40.4969 74.5386 40.6363 74.7475C40.7086 74.8577 40.7558 74.9824 40.7745 75.1129C40.7933 75.2433 40.7832 75.3763 40.745 75.5024C40.6603 75.7408 40.5266 75.9589 40.3525 76.1425C40.1758 76.3337 39.9724 76.4985 39.7486 76.6316C39.5312 76.7524 39.3017 76.855 39.0783 76.9577C37.2667 77.7306 35.2861 78.3949 33.2571 79.0772L33.3416 79.0048L32.2486 81.4927L32.0675 81.3176L36.2039 79.6207C37.9853 79.0833 39.8271 78.5881 41.7293 78.1775C42.6921 77.9596 43.6656 77.7923 44.6459 77.6763C45.149 77.6195 45.6556 77.5993 46.1616 77.6159C46.4275 77.6257 46.6903 77.6766 46.9406 77.7669C47.0791 77.8176 47.2049 77.8979 47.3092 78.0022C47.4134 78.1064 47.4937 78.2322 47.5444 78.3707C47.5789 78.5139 47.5759 78.6636 47.5357 78.8054C47.4956 78.9471 47.4195 79.0761 47.315 79.1799C47.1361 79.3775 46.9332 79.5519 46.7111 79.6992C46.2818 79.9842 45.8293 80.2326 45.3585 80.442C44.4164 80.8707 43.4382 81.1968 42.472 81.5772L36.5904 83.8115L33.3899 85.0192L33.3296 84.7354C35.9514 84.5191 38.5438 84.0314 41.065 83.2801C42.2913 82.8951 43.537 82.5746 44.7969 82.32C45.432 82.185 46.0853 82.1584 46.7292 82.2415C47.073 82.2881 47.3883 82.4576 47.6169 82.7185C47.8174 82.9841 47.9331 83.304 47.949 83.6364C47.9394 83.8219 47.8596 83.9968 47.7256 84.1255C47.6145 84.245 47.4911 84.3523 47.3573 84.4456C47.1014 84.622 46.833 84.7795 46.5541 84.9166C46.0046 85.1944 45.443 85.4178 44.8814 85.6352C43.7522 86.0579 42.623 86.4202 41.5058 86.7584L39.8452 87.2535C39.3078 87.4105 38.7643 87.6158 38.2208 87.7608C37.1399 88.0748 36.0711 88.3646 35.0204 88.6424V88.3948C36.2595 88.4836 37.5049 88.4187 38.7281 88.2016C39.9358 87.9842 41.1435 87.8091 42.2848 87.6521C42.8887 87.5796 43.4382 87.5071 44.0058 87.4528C44.2896 87.4226 44.5735 87.3984 44.8573 87.3864C45.0079 87.3715 45.1596 87.3715 45.3102 87.3864C45.4554 87.4127 45.5971 87.4553 45.7329 87.5132C45.8093 87.5436 45.8787 87.5892 45.9368 87.6474C45.995 87.7055 46.0407 87.7749 46.071 87.8513C46.1135 87.9993 46.1135 88.1563 46.071 88.3042C46.0375 88.4392 45.991 88.5707 45.9321 88.6968L45.8476 88.8779C45.8096 88.9459 45.7606 89.0071 45.7027 89.0591C45.2562 89.3694 44.7628 89.6059 44.2413 89.7595C42.3824 90.3412 40.4936 90.823 38.5831 91.2028L37.2848 91.4685C36.8762 91.5406 36.4728 91.6394 36.0771 91.7644C35.3209 91.9537 34.5922 92.2399 33.9093 92.6158L27.9069 96.0095L26.3248 96.873L25.9202 97.0965L25.7752 97.1689C25.8153 97.133 25.86 97.1025 25.9081 97.0784L26.3066 96.8368L27.8767 95.9189C29.2595 95.1158 31.2764 93.9443 33.8428 92.4648C35.1472 91.6979 36.8138 91.3598 38.5711 91.0035C40.469 90.6113 42.3455 90.1215 44.193 89.5361C44.6834 89.3896 45.1479 89.1676 45.5698 88.8779C45.6098 88.8446 45.6427 88.8035 45.6664 88.7571L45.7449 88.582C45.7962 88.4687 45.8386 88.3516 45.8717 88.2318C45.8936 88.1819 45.9053 88.1281 45.9062 88.0737C45.9071 88.0192 45.8971 87.9651 45.8769 87.9145C45.8567 87.8639 45.8266 87.8179 45.7884 87.779C45.7502 87.7402 45.7046 87.7094 45.6544 87.6883C45.535 87.6413 45.4117 87.605 45.286 87.5796C45.1652 87.5796 45.0324 87.5796 44.8935 87.5796L44.0541 87.6521C43.4925 87.7064 42.9189 87.7789 42.3452 87.8574C41.1918 88.0144 40.0022 88.1955 38.8005 88.4129C37.5561 88.6392 36.2881 88.7082 35.0264 88.6183C35.0092 88.6183 34.9922 88.6148 34.9764 88.6081C34.9606 88.6013 34.9464 88.5914 34.9345 88.579C34.9227 88.5666 34.9135 88.5519 34.9075 88.5358C34.9014 88.5197 34.8988 88.5026 34.8996 88.4854C34.9011 88.4577 34.9112 88.4312 34.9285 88.4095C34.9458 88.3878 34.9695 88.3722 34.9962 88.3646C36.0469 88.0869 37.1117 87.791 38.1906 87.477C38.7341 87.332 39.2534 87.1327 39.809 86.9637L41.4696 86.4685C42.5807 86.1303 43.7039 85.768 44.821 85.3453C45.3766 85.134 45.9321 84.9045 46.4696 84.6388C46.7347 84.5081 46.9891 84.3566 47.2304 84.1859C47.4539 84.0229 47.7075 83.8055 47.7015 83.582C47.6876 83.3138 47.5952 83.0555 47.4358 82.8393C47.251 82.6339 46.9976 82.5029 46.7232 82.4709C46.1192 82.3964 45.5069 82.4229 44.9116 82.5494C43.6612 82.8021 42.4255 83.1226 41.2099 83.5096C38.6652 84.2679 36.0485 84.7597 33.402 84.977C33.3822 84.9786 33.3622 84.9763 33.3433 84.9702C33.3243 84.9641 33.3068 84.9543 33.2916 84.9414C33.2764 84.9285 33.264 84.9128 33.255 84.895C33.2459 84.8773 33.2405 84.8579 33.239 84.8381C33.2372 84.8067 33.2457 84.7756 33.2631 84.7495C33.2805 84.7233 33.3059 84.7036 33.3356 84.6932L36.53 83.4854L42.4177 81.2511C43.3838 80.8707 44.3681 80.5446 45.28 80.134C45.7364 79.9298 46.1748 79.6874 46.5903 79.4094C46.7847 79.2776 46.9631 79.1236 47.1217 78.9504C47.1935 78.8813 47.247 78.7955 47.2776 78.7007C47.3082 78.6059 47.3148 78.505 47.2969 78.4069C47.158 78.0326 46.6507 77.8997 46.1737 77.8816C45.6857 77.8626 45.1971 77.8828 44.7123 77.942C43.7424 78.0555 42.779 78.2187 41.8259 78.4311C39.9358 78.8357 38.1001 79.3309 36.3307 79.8562L32.1883 81.541C32.1553 81.5556 32.118 81.5568 32.0843 81.5444C32.0505 81.532 32.0228 81.507 32.0071 81.4746C31.9998 81.4574 31.996 81.4389 31.996 81.4202C31.996 81.4015 31.9998 81.3831 32.0071 81.3659L33.1001 78.884C33.1087 78.8669 33.1206 78.8518 33.1351 78.8393C33.1496 78.8269 33.1664 78.8174 33.1846 78.8115C35.2076 78.1352 37.1701 77.477 38.9817 76.7161C39.2042 76.6224 39.4218 76.5176 39.6339 76.4021C39.8258 76.2813 40.0004 76.135 40.1532 75.9674C40.4672 75.6413 40.6604 75.2004 40.4128 74.8562C40.2942 74.6791 40.1358 74.5322 39.9502 74.4273C39.7645 74.3225 39.5569 74.2626 39.344 74.2524C38.9082 74.2153 38.4693 74.2521 38.0457 74.3611C36.2341 74.7174 34.5373 75.0736 32.931 75.442C32.1279 75.6352 31.3428 75.8224 30.6122 76.0458C30.4423 76.0946 30.2813 76.17 30.1351 76.2693L29.7849 76.698L29.0965 77.5434C27.3211 79.7838 25.7813 81.7101 24.5252 83.2982C23.2692 84.8864 22.297 86.1001 21.6207 86.9214L20.8598 87.8695C20.6786 88.105 20.582 88.2076 20.582 88.2076Z" fill="#6F4439"/>
<path id="Vector_36" d="M18.7142 90.2727C18.8048 90.3392 15.091 95.1821 10.4171 101.094C5.74323 107.006 1.87247 111.74 1.7819 111.668C1.69132 111.595 5.40507 106.758 10.085 100.852C14.7649 94.9466 18.6236 90.2305 18.7142 90.2727Z" fill="#6F4439"/>
<path id="Vector_37" d="M80.962 104.893C80.8956 104.893 80.4125 103.878 79.4282 102.308C78.1139 100.272 76.6655 98.3251 75.0925 96.4811C73.2809 94.3011 71.5176 92.3869 70.3099 90.9557C69.7061 90.2432 69.229 89.6514 68.909 89.2347C68.728 89.0331 68.5756 88.8076 68.4561 88.5645C68.681 88.7406 68.8838 88.9433 69.0599 89.1683L70.5515 90.8048C71.8135 92.1937 73.5708 94.0777 75.4246 96.2697C77.016 98.1189 78.4463 100.101 79.7 102.194C80.0571 102.818 80.3816 103.461 80.6722 104.12C80.8012 104.364 80.8986 104.624 80.962 104.893Z" fill="#6F4439"/>
</g>
</g>
<defs>
<clipPath id="clip0_0_46203">
<rect width="92.3908" height="170.289" fill="white" transform="translate(0.581055 0.930664)"/>
</clipPath>
</defs>
</svg>
