<svg width="202" height="118" viewBox="0 0 202 118" fill="none" xmlns="http://www.w3.org/2000/svg">
<g id="freepik--Icons--inject-6">
<path id="Vector" d="M179.802 116.354L172.597 113.38L172.33 110.673C171.658 110.102 171.031 109.479 170.456 108.81L167.76 108.542L164.785 101.337L166.514 99.2786C166.442 98.3949 166.442 97.5067 166.514 96.623L164.785 94.5645L167.76 87.3595L170.456 87.1022C171.034 86.4323 171.66 85.8062 172.33 85.2289L172.597 82.5322L179.802 79.5576L181.861 81.2868C182.745 81.2147 183.633 81.2147 184.516 81.2868L186.575 79.5576L193.78 82.5322L194.037 85.2289C194.707 85.8062 195.333 86.4323 195.91 87.1022L198.607 87.3595L201.582 94.5645L199.853 96.623C199.925 97.5067 199.925 98.3949 199.853 99.2786L201.582 101.337L198.607 108.542L195.91 108.81C195.339 109.485 194.712 110.111 194.037 110.683L193.78 113.38L186.575 116.354L184.516 114.625C183.636 114.697 182.751 114.697 181.871 114.625L179.802 116.354ZM185.031 113.03L186.904 114.574L192.37 112.309L192.596 109.901L192.854 109.695C193.62 109.076 194.326 108.387 194.964 107.636L195.159 107.379L197.578 107.153L199.842 101.687L198.298 99.8138V99.4947C198.401 98.5024 198.401 97.5021 198.298 96.5098V96.1907L199.842 94.3175L197.578 88.852L195.169 88.6256L194.964 88.3682C194.326 87.6175 193.62 86.9282 192.854 86.3097L192.596 86.1038L192.37 83.6953L186.904 81.4309L185.031 82.9748H184.712C183.72 82.8719 182.719 82.8719 181.727 82.9748H181.408L179.535 81.4309L174.069 83.6953L173.843 86.1038L173.596 86.3097C172.824 86.9254 172.114 87.6149 171.475 88.3682L171.27 88.6256L168.861 88.852L166.576 94.2763L168.12 96.1496V96.4686C168.017 97.4609 168.017 98.4612 168.12 99.4535V99.7726L166.576 101.646L168.841 107.111L171.249 107.338L171.455 107.585C172.084 108.358 172.791 109.065 173.565 109.695L173.822 109.901L174.049 112.32L179.514 114.584L181.387 113.04H181.706C182.699 113.143 183.699 113.143 184.691 113.04L185.031 113.03Z" fill="#01818C"/>
<path id="Vector_2" d="M186.42 105.681C184.891 106.314 183.208 106.48 181.585 106.157C179.961 105.835 178.47 105.038 177.3 103.867C176.129 102.697 175.332 101.206 175.009 99.5823C174.687 97.9589 174.852 96.2762 175.486 94.7471C176.119 93.218 177.192 91.9111 178.569 90.9917C179.945 90.0723 181.563 89.5817 183.218 89.582C184.873 89.5823 186.491 90.0735 187.867 90.9933C189.243 91.9132 190.316 93.2205 190.949 94.7498C191.37 95.7648 191.587 96.8529 191.588 97.952C191.588 99.051 191.372 100.139 190.951 101.155C190.531 102.17 189.914 103.092 189.136 103.869C188.359 104.646 187.436 105.261 186.42 105.681Z" fill="#01818C"/>
<path id="Vector_3" d="M98.271 26.1276C98.0662 26.1276 97.8699 26.0463 97.7251 25.9015C97.5803 25.7568 97.499 25.5604 97.499 25.3557C97.5072 20.5428 99.4227 15.9294 102.826 12.5261C106.229 9.12291 110.843 7.20738 115.655 7.19922C115.86 7.19922 116.057 7.28055 116.201 7.42532C116.346 7.57009 116.427 7.76644 116.427 7.97118C116.422 12.7849 114.507 17.3999 111.104 20.8037C107.7 24.2075 103.085 26.1222 98.271 26.1276ZM114.863 8.76372C110.738 8.96578 106.836 10.6952 103.915 13.6155C100.995 16.5358 99.2656 20.4381 99.0635 24.5631C103.189 24.3633 107.093 22.6346 110.014 19.7139C112.934 16.7931 114.663 12.8895 114.863 8.76372Z" fill="#01818C"/>
<path id="Vector_4" d="M103.371 13.8483C103.27 13.8496 103.17 13.831 103.076 13.7933C102.982 13.7556 102.897 13.6997 102.825 13.6289C102.754 13.558 102.696 13.4736 102.658 13.3805C102.619 13.2874 102.599 13.1875 102.599 13.0866C102.613 8.94377 101.07 4.94682 98.2757 1.88809C95.4876 4.94576 93.9486 8.93841 93.963 13.0763C93.963 13.2811 93.8817 13.4774 93.7369 13.6222C93.5921 13.767 93.3958 13.8483 93.191 13.8483C92.9863 13.8483 92.7899 13.767 92.6452 13.6222C92.5004 13.4774 92.4191 13.2811 92.4191 13.0763C92.4105 10.6903 92.8755 8.32633 93.7872 6.12134C94.6989 3.91636 96.0391 1.91422 97.7301 0.23095C97.802 0.157816 97.8877 0.0997264 97.9822 0.0600736C98.0768 0.0204208 98.1783 0 98.2808 0C98.3833 0 98.4848 0.0204208 98.5794 0.0600736C98.6739 0.0997264 98.7596 0.157816 98.8315 0.23095C100.521 1.91525 101.86 3.91758 102.772 6.12233C103.684 8.32708 104.149 10.6906 104.143 13.0763C104.14 13.2802 104.058 13.475 103.913 13.6192C103.769 13.7634 103.574 13.8456 103.371 13.8483Z" fill="#01818C"/>
<path id="Vector_5" d="M98.2727 26.1276C93.4581 26.1249 88.8415 24.2111 85.4371 20.8067C82.0327 17.4023 80.1189 12.7857 80.1162 7.97118C80.1162 7.76644 80.1975 7.57009 80.3423 7.42532C80.4871 7.28055 80.6834 7.19922 80.8882 7.19922C85.6948 7.20463 90.3036 9.11363 93.7062 12.5086C97.1088 15.9035 99.0283 20.5079 99.0446 25.3145C99.0518 25.4196 99.037 25.5251 99.0012 25.6242C98.9655 25.7234 98.9096 25.814 98.8371 25.8905C98.7645 25.9669 98.6769 26.0274 98.5797 26.0682C98.4826 26.1091 98.378 26.1293 98.2727 26.1276ZM81.6807 8.76372C81.883 12.8904 83.6139 16.7941 86.5363 19.7146C89.4588 22.6352 93.3636 24.3635 97.4904 24.5631C97.2927 20.4349 95.5633 16.5286 92.6399 13.6071C89.7165 10.6856 85.8091 8.95872 81.6807 8.76372Z" fill="#01818C"/>
<path id="Vector_6" d="M17.1041 111.064H9.72417C8.84909 111.066 8.00195 110.756 7.33435 110.19C6.66676 109.624 6.2223 108.839 6.08053 107.976L5.92613 107.111C5.44158 104.329 4.2981 101.703 2.59127 99.4536C0.816004 97.0564 -0.0946607 94.1285 0.00778942 91.1473C0.147255 87.7397 1.5641 84.5095 3.97659 82.0989C6.38908 79.6883 9.62047 78.274 13.0282 78.1372C15.5308 78.0489 18.0081 78.6646 20.1782 79.9143C22.3482 81.1641 24.124 82.9978 25.3036 85.2068C26.4832 87.4158 27.0192 89.9115 26.8506 92.4101C26.6821 94.9087 25.8158 97.3098 24.3502 99.3403C22.6252 101.635 21.4555 104.299 20.933 107.122L20.7889 107.976C20.646 108.847 20.1956 109.637 19.5194 110.204C18.8432 110.77 17.9862 111.075 17.1041 111.064ZM13.409 79.6812H13.0693C10.0553 79.8027 7.19737 81.0538 5.06346 83.1858C2.92955 85.3178 1.67591 88.1746 1.5517 91.1885C1.46144 93.8259 2.26684 96.4162 3.8367 98.5375C5.68607 100.982 6.92468 103.834 7.44946 106.854L7.60386 107.719C7.68478 108.222 7.94282 108.68 8.33154 109.011C8.72026 109.341 9.21412 109.521 9.72417 109.52H17.1041C17.6136 109.519 18.1063 109.338 18.4946 109.008C18.8829 108.678 19.1415 108.221 19.2244 107.719L19.3685 106.864C19.9339 103.809 21.1947 100.925 23.0533 98.4346C24.3245 96.663 25.082 94.5749 25.2426 92.4004C25.4031 90.2258 24.9604 88.0491 23.9632 86.1101C22.966 84.171 21.4529 82.5447 19.5908 81.4104C17.7286 80.2761 15.5894 79.6777 13.409 79.6812Z" fill="#01818C"/>
<path id="Vector_7" d="M18.946 114.326C18.946 114.03 18.8292 113.747 18.6211 113.537C18.4129 113.326 18.1302 113.207 17.8344 113.204H8.99291C8.83725 113.189 8.68018 113.207 8.53178 113.256C8.38338 113.306 8.24691 113.386 8.13117 113.491C8.01542 113.596 7.92294 113.724 7.85965 113.867C7.79636 114.01 7.76367 114.165 7.76367 114.321C7.76367 114.478 7.79636 114.632 7.85965 114.775C7.92294 114.918 8.01542 115.046 8.13117 115.152C8.24691 115.257 8.38338 115.336 8.53178 115.386C8.68018 115.435 8.83725 115.453 8.99291 115.438H9.21935C9.0487 115.62 8.94996 115.858 8.94146 116.107V116.333C8.94146 116.606 9.0499 116.868 9.24293 117.061C9.43595 117.254 9.69776 117.363 9.97074 117.363H16.8978C17.1707 117.363 17.4325 117.254 17.6256 117.061C17.8186 116.868 17.927 116.606 17.927 116.333V116.107C17.9214 115.859 17.8263 115.621 17.6594 115.438H17.8859C18.1708 115.422 18.4391 115.298 18.636 115.092C18.833 114.885 18.9438 114.612 18.946 114.326Z" fill="#01818C"/>
<path id="Vector_8" d="M15.4088 110.672C15.3069 110.667 15.2111 110.622 15.1419 110.547C15.0727 110.472 15.0355 110.373 15.0383 110.271C15.2198 106.045 15.75 101.842 16.6234 97.7032H16.4278C15.9082 97.862 15.3553 97.8769 14.8279 97.7464C14.3005 97.6159 13.8183 97.3449 13.4326 96.9622C13.0694 97.3362 12.6109 97.6039 12.1066 97.7363C11.6023 97.8688 11.0714 97.8609 10.5712 97.7135C11.4411 101.835 11.9644 106.021 12.1357 110.23C12.1385 110.28 12.131 110.331 12.1138 110.379C12.0965 110.427 12.0699 110.471 12.0353 110.509C12.0008 110.546 11.9591 110.576 11.9127 110.597C11.8663 110.618 11.8161 110.63 11.7652 110.631C11.7137 110.637 11.6615 110.632 11.6121 110.616C11.5628 110.6 11.5176 110.573 11.4794 110.538C11.4413 110.503 11.4113 110.46 11.3913 110.412C11.3713 110.364 11.362 110.312 11.3638 110.26C11.1794 105.975 10.6354 101.712 9.73752 97.518C7.3393 96.7872 4.59113 94.7183 4.50879 93.1024C4.50879 92.6598 4.68378 91.8672 6.06301 91.5379C6.3761 91.4597 6.70318 91.4562 7.01786 91.5278C7.33253 91.5993 7.62598 91.7438 7.87453 91.9496C8.90381 92.7524 9.74782 94.6257 10.3551 96.8901L10.6536 96.9519C11.5388 97.1063 12.6607 97.0754 13.0724 96.0564C13.108 95.992 13.1602 95.9384 13.2235 95.9011C13.2869 95.8637 13.3591 95.844 13.4326 95.844C13.5062 95.844 13.5784 95.8637 13.6417 95.9011C13.7051 95.9384 13.7573 95.992 13.7929 96.0564C14.2046 97.0857 15.378 97.0857 16.294 96.9416C16.478 96.9103 16.6601 96.8691 16.8395 96.8181C17.4468 94.5948 18.2496 92.7009 19.3098 91.9496C19.5572 91.7453 19.8489 91.6018 20.1616 91.5303C20.4744 91.4588 20.7995 91.4614 21.111 91.5379C22.4697 91.8672 22.655 92.6289 22.6447 93.0612C22.6447 94.6257 19.8862 96.6431 17.4983 97.4356C16.5969 101.658 16.0461 105.947 15.8514 110.26C15.857 110.319 15.8491 110.377 15.8283 110.432C15.8076 110.487 15.7745 110.536 15.7317 110.575C15.6889 110.615 15.6375 110.645 15.5815 110.661C15.5256 110.678 15.4665 110.682 15.4088 110.672ZM6.54677 92.2892C6.44068 92.2786 6.33379 92.2786 6.2277 92.2892C5.19842 92.526 5.26017 92.9377 5.26017 93.0818C5.26017 94.1111 7.31872 95.8402 9.4802 96.6328C9.20715 95.09 8.49201 93.6598 7.42165 92.5157C7.16475 92.3418 6.85576 92.2618 6.54677 92.2892ZM20.5964 92.2892C20.2868 92.2955 19.9887 92.4082 19.7524 92.6083C18.6998 93.7081 17.9853 95.0871 17.6938 96.5813C19.845 95.7476 21.8109 94.0493 21.8109 93.0818C21.8109 92.7318 21.5022 92.4848 20.8743 92.3304C20.7829 92.3095 20.69 92.2957 20.5964 92.2892Z" fill="#01818C"/>
<path id="Vector_9" d="M178.311 70.4587C178.121 70.4584 177.935 70.3987 177.78 70.288C177.625 70.1774 177.508 70.0211 177.446 69.8411C173.287 58.0682 166.548 47.3745 157.722 38.5429C148.896 29.7113 138.206 22.9655 126.435 18.7993C126.206 18.7174 126.019 18.5477 125.915 18.3277C125.81 18.1076 125.798 17.8552 125.88 17.6259C125.962 17.3966 126.131 17.2092 126.351 17.105C126.571 17.0007 126.824 16.9882 127.053 17.0701C139.089 21.319 150.021 28.2085 159.048 37.2331C168.074 46.2576 174.965 57.1884 179.217 69.2236C179.259 69.337 179.278 69.4577 179.273 69.5786C179.268 69.6995 179.238 69.8182 179.187 69.9276C179.135 70.037 179.062 70.1349 178.971 70.2155C178.881 70.2961 178.776 70.3578 178.661 70.3969C178.55 70.4427 178.431 70.4638 178.311 70.4587Z" fill="#01818C"/>
<path id="Vector_10" d="M18.2481 70.4787C18.1422 70.4782 18.0373 70.4572 17.9393 70.417C17.8247 70.3777 17.719 70.3161 17.6284 70.2356C17.5377 70.1552 17.464 70.0576 17.4113 69.9485C17.3587 69.8393 17.3282 69.7209 17.3216 69.5999C17.3151 69.4789 17.3326 69.3578 17.3732 69.2436C21.623 57.2048 28.5152 46.2706 37.5436 37.2439C46.5721 28.2173 57.5076 21.3273 69.5473 17.0799C69.7766 16.998 70.029 17.0105 70.2491 17.1147C70.4691 17.219 70.6387 17.4064 70.7206 17.6357C70.8025 17.865 70.79 18.1174 70.6858 18.3375C70.5815 18.5575 70.3941 18.7271 70.1648 18.809C58.3836 22.9672 47.6831 29.711 38.8489 38.5452C30.0146 47.3794 23.2709 58.0799 19.1127 69.8612C19.0506 70.0412 18.934 70.1974 18.7791 70.3081C18.6241 70.4188 18.4385 70.4784 18.2481 70.4787Z" fill="#01818C"/>
</g>
</svg>
