<svg width="95" height="73" viewBox="0 0 95 73" fill="none" xmlns="http://www.w3.org/2000/svg">
<path d="M24.1492 25.3731L25.4223 28.1539L26.6954 25.3731H28.0648L26.0588 29.2511V31.4707H24.7857V29.2511L22.7755 25.3731H24.1492ZM28.0774 29.2511V29.1632C28.0774 28.8309 28.1249 28.5252 28.2198 28.246C28.3147 27.964 28.4529 27.7198 28.6344 27.5132C28.8159 27.3065 29.0392 27.146 29.3044 27.0315C29.5697 26.9143 29.874 26.8557 30.2174 26.8557C30.5608 26.8557 30.8665 26.9143 31.1345 27.0315C31.4026 27.146 31.6273 27.3065 31.8088 27.5132C31.9931 27.7198 32.1327 27.964 32.2276 28.246C32.3225 28.5252 32.37 28.8309 32.37 29.1632V29.2511C32.37 29.5806 32.3225 29.8863 32.2276 30.1683C32.1327 30.4475 31.9931 30.6918 31.8088 30.9012C31.6273 31.1078 31.404 31.2683 31.1387 31.3828C30.8735 31.4972 30.5692 31.5545 30.2258 31.5545C29.8824 31.5545 29.5767 31.4972 29.3086 31.3828C29.0434 31.2683 28.8186 31.1078 28.6344 30.9012C28.4529 30.6918 28.3147 30.4475 28.2198 30.1683C28.1249 29.8863 28.0774 29.5806 28.0774 29.2511ZM29.2835 29.1632V29.2511C29.2835 29.441 29.3003 29.6183 29.3338 29.783C29.3673 29.9477 29.4203 30.0929 29.4929 30.2185C29.5683 30.3414 29.666 30.4377 29.7861 30.5075C29.9061 30.5773 30.0527 30.6122 30.2258 30.6122C30.3933 30.6122 30.5371 30.5773 30.6571 30.5075C30.7772 30.4377 30.8735 30.3414 30.9461 30.2185C31.0187 30.0929 31.0717 29.9477 31.1052 29.783C31.1415 29.6183 31.1597 29.441 31.1597 29.2511V29.1632C31.1597 28.9789 31.1415 28.8058 31.1052 28.6439C31.0717 28.4792 31.0173 28.334 30.9419 28.2083C30.8693 28.0799 30.773 27.9794 30.6529 27.9068C30.5329 27.8342 30.3877 27.7979 30.2174 27.7979C30.0471 27.7979 29.9019 27.8342 29.7819 27.9068C29.6646 27.9794 29.5683 28.0799 29.4929 28.2083C29.4203 28.334 29.3673 28.4792 29.3338 28.6439C29.3003 28.8058 29.2835 28.9789 29.2835 29.1632ZM35.7915 30.386V26.9394H36.9976V31.4707H35.8627L35.7915 30.386ZM35.9255 29.4563L36.2815 29.448C36.2815 29.7495 36.2466 30.0301 36.1768 30.2897C36.107 30.5466 36.0023 30.7699 35.8627 30.9598C35.7231 31.1468 35.5472 31.2934 35.335 31.3995C35.1228 31.5028 34.8729 31.5545 34.5854 31.5545C34.3648 31.5545 34.161 31.5237 33.9739 31.4623C33.7897 31.3981 33.6305 31.299 33.4965 31.165C33.3653 31.0282 33.262 30.8537 33.1866 30.6415C33.114 30.4265 33.0777 30.1683 33.0777 29.8667V26.9394H34.2838V29.8751C34.2838 30.0091 34.2992 30.1222 34.3299 30.2143C34.3634 30.3065 34.4095 30.3819 34.4681 30.4405C34.5267 30.4991 34.5951 30.541 34.6733 30.5661C34.7543 30.5912 34.8436 30.6038 34.9413 30.6038C35.1898 30.6038 35.3853 30.5536 35.5276 30.453C35.6728 30.3525 35.7747 30.2157 35.8334 30.0426C35.8948 29.8667 35.9255 29.6713 35.9255 29.4563ZM44.9629 28.2837V30.7001C44.868 30.8146 44.7214 30.9388 44.5232 31.0729C44.325 31.2041 44.0695 31.3171 43.7568 31.4121C43.4441 31.507 43.0658 31.5545 42.6219 31.5545C42.2283 31.5545 41.8695 31.4902 41.5456 31.3618C41.2218 31.2306 40.9426 31.0394 40.7081 30.7881C40.4763 30.5368 40.2976 30.2297 40.172 29.8667C40.0464 29.501 39.9836 29.0836 39.9836 28.6146V28.2335C39.9836 27.7644 40.0436 27.347 40.1636 26.9813C40.2865 26.6155 40.461 26.307 40.6871 26.0558C40.9133 25.8045 41.1827 25.6132 41.4954 25.482C41.8081 25.3508 42.1557 25.2852 42.5382 25.2852C43.0686 25.2852 43.5042 25.3717 43.8448 25.5448C44.1854 25.7152 44.445 25.9525 44.6237 26.2568C44.8052 26.5583 44.9169 26.9045 44.9588 27.2954H43.7401C43.7094 27.0888 43.6507 26.9087 43.5642 26.7551C43.4776 26.6016 43.3534 26.4815 43.1915 26.395C43.0323 26.3084 42.8257 26.2652 42.5717 26.2652C42.3623 26.2652 42.1752 26.3084 42.0105 26.395C41.8486 26.4787 41.7118 26.603 41.6001 26.7677C41.4884 26.9324 41.4032 27.1362 41.3446 27.3791C41.286 27.622 41.2567 27.904 41.2567 28.2251V28.6146C41.2567 28.9328 41.2874 29.2148 41.3488 29.4605C41.4102 29.7034 41.501 29.9086 41.621 30.0761C41.7439 30.2409 41.8946 30.3651 42.0733 30.4489C42.252 30.5326 42.46 30.5745 42.6973 30.5745C42.8955 30.5745 43.0602 30.5577 43.1915 30.5242C43.3255 30.4907 43.433 30.4503 43.5139 30.4028C43.5977 30.3525 43.6619 30.3051 43.7066 30.2604V29.1799H42.5591V28.2837H44.9629ZM45.7084 29.2511V29.1632C45.7084 28.8309 45.7559 28.5252 45.8508 28.246C45.9457 27.964 46.0839 27.7198 46.2654 27.5132C46.4469 27.3065 46.6702 27.146 46.9354 27.0315C47.2007 26.9143 47.505 26.8557 47.8484 26.8557C48.1918 26.8557 48.4975 26.9143 48.7655 27.0315C49.0336 27.146 49.2583 27.3065 49.4398 27.5132C49.6241 27.7198 49.7637 27.964 49.8586 28.246C49.9535 28.5252 50.001 28.8309 50.001 29.1632V29.2511C50.001 29.5806 49.9535 29.8863 49.8586 30.1683C49.7637 30.4475 49.6241 30.6918 49.4398 30.9012C49.2583 31.1078 49.035 31.2683 48.7697 31.3828C48.5045 31.4972 48.2002 31.5545 47.8568 31.5545C47.5134 31.5545 47.2077 31.4972 46.9396 31.3828C46.6744 31.2683 46.4496 31.1078 46.2654 30.9012C46.0839 30.6918 45.9457 30.4475 45.8508 30.1683C45.7559 29.8863 45.7084 29.5806 45.7084 29.2511ZM46.9145 29.1632V29.2511C46.9145 29.441 46.9313 29.6183 46.9648 29.783C46.9983 29.9477 47.0513 30.0929 47.1239 30.2185C47.1993 30.3414 47.297 30.4377 47.417 30.5075C47.5371 30.5773 47.6837 30.6122 47.8568 30.6122C48.0243 30.6122 48.1681 30.5773 48.2881 30.5075C48.4082 30.4377 48.5045 30.3414 48.5771 30.2185C48.6497 30.0929 48.7027 29.9477 48.7362 29.783C48.7725 29.6183 48.7907 29.441 48.7907 29.2511V29.1632C48.7907 28.9789 48.7725 28.8058 48.7362 28.6439C48.7027 28.4792 48.6483 28.334 48.5729 28.2083C48.5003 28.0799 48.404 27.9794 48.2839 27.9068C48.1639 27.8342 48.0187 27.7979 47.8484 27.7979C47.6781 27.7979 47.5329 27.8342 47.4129 27.9068C47.2956 27.9794 47.1993 28.0799 47.1239 28.2083C47.0513 28.334 46.9983 28.4792 46.9648 28.6439C46.9313 28.8058 46.9145 28.9789 46.9145 29.1632ZM52.9618 26.9394V27.7937H50.3234V26.9394H52.9618ZM50.9767 25.8212H52.1829V30.1055C52.1829 30.2367 52.1996 30.3372 52.2331 30.407C52.2694 30.4768 52.3225 30.5256 52.3923 30.5536C52.4621 30.5787 52.55 30.5912 52.6561 30.5912C52.7315 30.5912 52.7985 30.5885 52.8571 30.5829C52.9185 30.5745 52.9702 30.5661 53.0121 30.5577L53.0162 31.4456C52.9129 31.4791 52.8013 31.5056 52.6812 31.5251C52.5612 31.5447 52.4285 31.5545 52.2834 31.5545C52.0181 31.5545 51.7864 31.5112 51.5882 31.4246C51.3927 31.3353 51.242 31.1929 51.1359 30.9975C51.0298 30.802 50.9767 30.5452 50.9767 30.2269V25.8212ZM58.36 25.3731V31.4707H57.1078V25.3731H58.36ZM60.2362 25.3731V26.3573H55.261V25.3731H60.2362ZM62.0537 25.0381V31.4707H60.8476V25.0381H62.0537ZM61.882 29.0459H61.5512C61.554 28.7304 61.5958 28.4401 61.6768 28.1748C61.7578 27.9068 61.8736 27.6751 62.0244 27.4796C62.1752 27.2814 62.3552 27.1279 62.5646 27.019C62.7768 26.9101 63.0113 26.8557 63.2682 26.8557C63.4915 26.8557 63.694 26.8878 63.8754 26.952C64.0597 27.0134 64.2174 27.1139 64.3487 27.2535C64.4827 27.3903 64.586 27.5704 64.6586 27.7937C64.7312 28.0171 64.7675 28.2879 64.7675 28.6062V31.4707H63.553V28.5978C63.553 28.3968 63.5237 28.2391 63.465 28.1246C63.4092 28.0073 63.3268 27.925 63.2179 27.8775C63.1118 27.8272 62.9806 27.8021 62.8243 27.8021C62.6512 27.8021 62.5032 27.8342 62.3804 27.8984C62.2603 27.9627 62.164 28.052 62.0914 28.1665C62.0188 28.2781 61.9658 28.4094 61.9323 28.5601C61.8988 28.7109 61.882 28.8728 61.882 29.0459ZM66.9577 26.9394V31.4707H65.7474V26.9394H66.9577ZM65.672 25.7584C65.672 25.5825 65.7335 25.4374 65.8563 25.3229C65.9791 25.2084 66.1439 25.1512 66.3505 25.1512C66.5543 25.1512 66.7176 25.2084 66.8405 25.3229C66.9661 25.4374 67.0289 25.5825 67.0289 25.7584C67.0289 25.9343 66.9661 26.0795 66.8405 26.194C66.7176 26.3084 66.5543 26.3657 66.3505 26.3657C66.1439 26.3657 65.9791 26.3084 65.8563 26.194C65.7335 26.0795 65.672 25.9343 65.672 25.7584ZM70.4043 30.2185C70.4043 30.132 70.3792 30.0538 70.329 29.984C70.2787 29.9142 70.1852 29.85 70.0484 29.7914C69.9144 29.7299 69.7203 29.6741 69.4663 29.6238C69.2373 29.5736 69.0237 29.5108 68.8255 29.4354C68.6301 29.3572 68.4598 29.2637 68.3146 29.1548C68.1722 29.0459 68.0605 28.9175 67.9796 28.7695C67.8986 28.6188 67.8581 28.4471 67.8581 28.2544C67.8581 28.0646 67.8986 27.8859 67.9796 27.7184C68.0633 27.5508 68.182 27.4029 68.3355 27.2744C68.4919 27.1432 68.6817 27.0413 68.9051 26.9687C69.1312 26.8933 69.3853 26.8557 69.6673 26.8557C70.0609 26.8557 70.3988 26.9185 70.6807 27.0441C70.9655 27.1697 71.1833 27.3428 71.3341 27.5634C71.4876 27.7812 71.5644 28.0297 71.5644 28.3088H70.3583C70.3583 28.1916 70.3332 28.0869 70.2829 27.9948C70.2354 27.8998 70.1601 27.8258 70.0568 27.7728C69.9562 27.717 69.825 27.689 69.6631 27.689C69.5291 27.689 69.4132 27.7128 69.3155 27.7602C69.2178 27.8049 69.1424 27.8663 69.0894 27.9445C69.0391 28.0199 69.014 28.1036 69.014 28.1958C69.014 28.2656 69.0279 28.3284 69.0559 28.3842C69.0866 28.4373 69.1354 28.4861 69.2024 28.5308C69.2694 28.5755 69.356 28.6174 69.4621 28.6564C69.571 28.6927 69.705 28.7262 69.8641 28.757C70.1908 28.824 70.4825 28.9119 70.7394 29.0208C70.9962 29.1269 71.2 29.2721 71.3508 29.4563C71.5016 29.6378 71.577 29.8765 71.577 30.1725C71.577 30.3735 71.5323 30.5577 71.4429 30.7253C71.3536 30.8928 71.2252 31.0394 71.0577 31.165C70.8901 31.2878 70.6891 31.3842 70.4546 31.454C70.2229 31.521 69.9618 31.5545 69.6715 31.5545C69.2499 31.5545 68.8925 31.4791 68.5994 31.3283C68.309 31.1776 68.0884 30.9863 67.9377 30.7546C67.7897 30.5201 67.7157 30.2799 67.7157 30.0343H68.859C68.8646 30.199 68.9065 30.3316 68.9847 30.4321C69.0656 30.5326 69.1675 30.6052 69.2904 30.6499C69.416 30.6945 69.5514 30.7169 69.6966 30.7169C69.8529 30.7169 69.9828 30.6959 70.0861 30.6541C70.1894 30.6094 70.2675 30.5508 70.3206 30.4782C70.3764 30.4028 70.4043 30.3162 70.4043 30.2185Z" fill="#455A64"/>
<path d="M18.5488 38.9672L44.4667 43.8696L77.0021 41.2582L47.4342 37.1719L18.5488 38.9672Z" fill="#FAE80C"/>
<path opacity="0.3" d="M18.5488 38.9672L44.4667 43.8696L77.0021 41.2582L47.4342 37.1719L18.5488 38.9672Z" fill="black"/>
<path d="M22.4825 66.937L18.5488 38.9673L44.4667 43.8697V73L22.4825 66.937Z" fill="#FAE80C"/>
<path opacity="0.1" d="M22.4825 66.7934L18.5488 38.8237L44.4667 43.7261V72.8564L22.4825 66.7934Z" fill="black"/>
<path d="M28.7871 68.9006L35.0595 70.6294L32.8818 41.8316L25.7275 40.4775L28.7871 68.9006Z" fill="url(#paint0_linear_1_2004)"/>
<path d="M43.6553 43.8697V73L71.8045 69.0285L76.1907 41.2583L43.6553 43.8697Z" fill="#FAE80C"/>
<path d="M54.7969 71.4293L61.9205 70.4258L65.3481 42.1357L56.5759 42.837L54.7969 71.4293Z" fill="url(#paint1_linear_1_2004)"/>
<path d="M77.7244 13.9502L49.8818 18.0426L50.4033 10.0815L78.9513 6.85352L77.7244 13.9502Z" fill="#FAE80C"/>
<path opacity="0.2" d="M77.7244 13.9502L49.8818 18.0426L50.4033 10.0815L78.9513 6.85352L77.7244 13.9502Z" fill="black"/>
<path d="M15.4517 13.8532L14.8076 6.36963L50.4025 10.0812L49.8811 18.0423L15.4517 13.8532Z" fill="#FAE80C"/>
<path opacity="0.1" d="M15.4517 13.8532L14.8076 6.36963L50.4025 10.0812L49.8811 18.0423L15.4517 13.8532Z" fill="black"/>
<path d="M68.5083 15.3057L60.2422 16.5207L61.17 8.86182L69.6048 7.90674L68.5083 15.3057Z" fill="url(#paint2_linear_1_2004)"/>
<path d="M37.5081 16.5337L27.5397 15.3248L27.0566 7.65381L37.5388 8.74189L37.5081 16.5337Z" fill="url(#paint3_linear_1_2004)"/>
<path d="M78.9506 6.85572L50.4025 10.0837L14.8076 6.37212L46.6682 4.71582L78.9506 6.85572Z" fill="#FAE80C"/>
<path d="M69.6023 7.90487L36.4305 5.24512L29.4219 5.61386L61.1675 8.85996L69.6023 7.90487Z" fill="url(#paint4_linear_1_2004)"/>
<path d="M37.5388 8.74015L27.0566 7.65207L57.514 5.43359L65.8721 5.98972L37.5388 8.74015Z" fill="url(#paint5_linear_1_2004)"/>
<path d="M55.6761 4.92551C55.6761 4.92551 61.3887 3.83138 64.8393 5.85642C68.2899 7.88145 69.6088 10.5775 70.8281 11.2243C72.0473 11.8711 76.3414 11.7623 76.3414 11.7623L72.5074 17.9764C72.5074 17.9764 70.0153 18.5809 67.4311 16.0239C64.847 13.4669 63.8578 9.93672 61.174 8.33482C58.4902 6.73293 54.6025 6.43069 54.6025 6.43069L55.6761 4.92551Z" fill="url(#paint6_linear_1_2004)"/>
<path d="M62.913 9.82909C63.6503 8.46005 64.0735 6.99869 64.1629 5.51304C60.6893 3.96555 55.6667 4.90855 55.6667 4.90855L54.6162 6.41373C54.6162 6.41373 58.5116 6.72202 61.1877 8.31787C61.8678 8.74043 62.4513 9.25153 62.913 9.82909Z" fill="url(#paint7_linear_1_2004)"/>
<path d="M46.8083 5.28228C46.8083 5.28228 41.203 3.64411 37.1083 5.20974C33.0135 6.77537 30.8895 8.96966 29.4402 9.44116C27.991 9.91266 23.5742 9.12682 23.5742 9.12682L25.9666 16.1933C25.9666 16.1933 28.3974 17.2209 31.733 14.9843C35.0686 12.7477 36.9932 9.2175 40.1678 7.9783C43.3423 6.7391 47.4677 6.99903 47.4677 6.99903L46.8083 5.28228Z" fill="url(#paint8_linear_1_2004)"/>
<path d="M34.7713 12.3487C36.5426 10.5776 38.0915 8.77623 40.1926 7.96017C43.3825 6.75119 47.4925 6.98089 47.4925 6.98089L46.8024 5.28228C46.8024 5.28228 41.1971 3.64411 37.1024 5.20974C36.282 5.5203 35.4902 5.8758 34.7329 6.27364C34.3083 8.28572 34.3213 10.3401 34.7713 12.3487Z" fill="url(#paint9_linear_1_2004)"/>
<path d="M34.7691 12.3501C34.2681 13.0463 33.6546 13.6884 32.9441 14.2603C32.5919 14.5503 32.2125 14.819 31.8093 15.0643C31.4074 15.3098 30.9666 15.513 30.498 15.6687C32.047 14.6653 33.3122 13.4563 34.7691 12.3501Z" fill="#263238"/>
<path d="M33.0471 7.24268C32.633 7.55097 32.242 7.87738 31.8202 8.19172C31.4117 8.51041 30.979 8.80918 30.5243 9.08637C30.2825 9.23157 30.0261 9.36096 29.7575 9.47324C29.4879 9.58874 29.1896 9.6568 28.8834 9.67272C28.3025 9.71774 27.7162 9.68297 27.1504 9.56996C27.7164 9.5681 28.2811 9.52561 28.8374 9.44301C29.3703 9.34057 29.8613 9.13249 30.2636 8.83853L31.6285 8.01642C32.074 7.72859 32.5484 7.46982 33.0471 7.24268Z" fill="#263238"/>
<path d="M36.84 5.27088C36.9857 6.365 43.5725 7.62233 47.8359 6.35895C47.8359 6.35895 44.5847 3.941 41.3565 3.85033C38.1283 3.75965 36.794 4.79333 36.84 5.27088Z" fill="#455A64"/>
<path d="M47.8531 6.35921V5.39204C45.3227 1.62003 40.7449 0 40.3922 0C40.0394 0 38.1915 1.20898 37.4017 2.41795C36.8982 3.3153 36.7101 4.30286 36.8572 5.27718C36.9109 4.92054 38.2068 3.97753 40.6912 4.06821C43.1757 4.15888 47.2934 5.8454 47.8531 6.35921Z" fill="url(#paint10_linear_1_2004)"/>
<path d="M47.8499 5.98411V5.55492C47.2995 4.86145 46.5738 4.26473 45.7182 3.8019C46.1323 4.15251 46.5233 4.50916 46.8991 4.87789C45.8599 4.25847 44.7421 3.72568 43.5635 3.28809C43.5175 3.28809 43.4715 3.3304 43.5252 3.34854C45.0888 4.09505 46.5396 4.97925 47.8499 5.98411Z" fill="#455A64"/>
<path d="M39.6192 13.4917C41.0071 14.1809 46.1293 10.8078 47.7473 6.77588C47.7473 6.77588 43.7062 6.83633 41.2141 9.10921C38.722 11.3821 39.0134 13.1895 39.6192 13.4917Z" fill="#455A64"/>
<path d="M47.753 6.80569V5.53022C41.4729 4.62349 36.251 6.78755 35.9749 7.04748C35.6989 7.30742 35.7756 9.53194 36.6267 10.9888C37.4779 12.4456 39.9623 13.7754 39.5866 13.4732C39.2108 13.171 39.0498 11.5388 40.9591 9.77978C42.8015 8.28129 45.1655 7.24643 47.753 6.80569Z" fill="url(#paint11_linear_1_2004)"/>
<path d="M47.7603 6.31201V6.00977C45.7614 6.05866 43.8017 6.45934 42.0246 7.18248C41.9709 7.18248 42.0246 7.27315 42.0629 7.25502C43.0729 6.93848 44.1176 6.69566 45.1838 6.52963C46.0351 6.40946 46.896 6.33674 47.7603 6.31201Z" fill="#455A64"/>
<path d="M37.5293 12.0288C37.2094 11.8853 36.9445 11.6764 36.7625 11.4243C36.6673 11.3048 36.5901 11.177 36.5325 11.0434C36.4778 10.9047 36.4569 10.7591 36.4711 10.6143C36.6968 10.8168 36.9019 11.0331 37.0846 11.2611C37.276 11.5 37.4256 11.7582 37.5293 12.0288Z" fill="#263238"/>
<path d="M61.3765 5.38799C61.2155 6.48211 54.6056 7.679 50.3652 6.37331C50.3652 6.37331 53.6548 4.00976 56.8907 3.92513C60.1266 3.8405 61.4225 4.91649 61.3765 5.38799Z" fill="#455A64"/>
<path d="M60.8559 2.52586C60.0891 1.31689 58.2488 0.10791 57.896 0.10791C57.5433 0.10791 52.9425 1.67958 50.3584 5.42741V6.3946C50.9258 5.88683 55.0589 4.20634 57.551 4.15194C60.0431 4.09754 61.3237 5.05263 61.385 5.40928C61.5444 4.4281 61.3615 3.43121 60.8559 2.52586Z" fill="url(#paint12_linear_1_2004)"/>
<path d="M54.9132 2.75659C53.7452 3.21007 52.67 3.79892 51.7233 4.50356C51.2416 4.85335 50.7859 5.22471 50.3584 5.61582V6.12964C50.8235 5.63766 51.3362 5.17485 51.892 4.74535C52.8456 4.0383 53.8888 3.41037 55.0052 2.87144C55.0245 2.86182 55.0382 2.84655 55.0432 2.82898C55.0483 2.81141 55.0443 2.79298 55.0321 2.77775C55.0199 2.76252 55.0005 2.75173 54.9782 2.74776C54.9559 2.74379 54.9325 2.74697 54.9132 2.75659Z" fill="#455A64"/>
<path d="M58.4793 13.568C57.076 14.2511 51.9998 10.8357 50.4355 6.78564C50.4355 6.78564 54.4766 6.88236 56.938 9.2036C59.3994 11.5248 59.0774 13.2718 58.4793 13.568Z" fill="#455A64"/>
<path d="M62.2051 7.14435C61.9521 6.88442 56.7378 4.66595 50.4424 5.51223V6.80584C53.0197 7.26838 55.3669 8.31969 57.1902 9.82828C59.0689 11.6115 58.8772 13.2436 58.5015 13.5398C58.1257 13.836 60.6255 12.5364 61.4997 11.0856C62.3738 9.63484 62.4505 7.41032 62.2051 7.14435Z" fill="url(#paint13_linear_1_2004)"/>
<path d="M56.7779 8.07771C55.9887 7.37333 54.9624 6.85979 53.818 6.5967C52.9826 6.3719 52.1227 6.208 51.2492 6.10707C51.7907 6.08294 52.3334 6.08294 52.8748 6.10707C53.8462 6.19428 54.8027 6.36454 55.7273 6.61484C55.7887 6.61484 55.8117 6.55439 55.7657 6.53021C54.3394 5.81087 52.2001 5.74437 50.4824 5.92572V6.33678C51.4348 6.41753 52.3781 6.55493 53.3042 6.74783C54.5712 6.96737 55.7443 7.44225 56.7088 8.12606C56.7088 8.12606 56.7779 8.10793 56.7779 8.07771Z" fill="#455A64"/>
<path d="M51.2437 5.70656C51.2437 5.44663 51.1363 4.49758 50.6839 4.34646C50.2315 4.19533 49.4341 4.41295 49.227 4.41295C49.02 4.41295 48.2302 4.18325 47.7778 4.32832C47.3253 4.4734 47.2103 5.42849 47.195 5.68842C47.1797 5.94835 47.195 6.95785 47.6244 7.07271C48.1562 7.1112 48.6925 7.08056 49.2117 6.98203C49.7275 7.08451 50.2608 7.12125 50.7913 7.09084C51.213 6.97599 51.2437 5.96649 51.2437 5.70656Z" fill="url(#paint14_linear_1_2004)"/>
<path d="M80.3701 27.7895L94.3719 25.5649L94.4716 28.3698L80.3701 27.7895Z" fill="#FAE80C"/>
<path d="M79.3105 23.4259L85.1689 18.1729L86.8942 19.6962L79.3105 23.4259Z" fill="#FAE80C"/>
<path d="M79.0283 28.7998L86.8957 31.8585L85.7148 33.7445L79.0283 28.7998Z" fill="#FAE80C"/>
<path d="M14.1015 25.7851L0.0996879 28.0036L0 25.1987L14.1015 25.7851Z" fill="#FAE80C"/>
<path d="M15.1549 30.144L9.29659 35.397L7.57129 33.8737L15.1549 30.144Z" fill="#FAE80C"/>
<path d="M15.4387 24.7755L7.57129 21.7107L8.74449 19.8247L15.4387 24.7755Z" fill="#FAE80C"/>
<defs>
<linearGradient id="paint0_linear_1_2004" x1="30.3935" y1="40.4775" x2="30.3935" y2="70.6294" gradientUnits="userSpaceOnUse">
<stop stop-color="#32959D"/>
<stop offset="1" stop-color="#036696" stop-opacity="0.8"/>
</linearGradient>
<linearGradient id="paint1_linear_1_2004" x1="60.0725" y1="42.1357" x2="60.0725" y2="71.4293" gradientUnits="userSpaceOnUse">
<stop stop-color="#32959D"/>
<stop offset="1" stop-color="#036696" stop-opacity="0.8"/>
</linearGradient>
<linearGradient id="paint2_linear_1_2004" x1="64.9235" y1="7.90674" x2="64.9235" y2="16.5207" gradientUnits="userSpaceOnUse">
<stop stop-color="#32959D"/>
<stop offset="1" stop-color="#036696" stop-opacity="0.8"/>
</linearGradient>
<linearGradient id="paint3_linear_1_2004" x1="32.2977" y1="7.65381" x2="32.2977" y2="16.5337" gradientUnits="userSpaceOnUse">
<stop stop-color="#32959D"/>
<stop offset="1" stop-color="#036696" stop-opacity="0.8"/>
</linearGradient>
<linearGradient id="paint4_linear_1_2004" x1="49.5121" y1="5.24512" x2="49.5121" y2="8.85996" gradientUnits="userSpaceOnUse">
<stop stop-color="#32959D"/>
<stop offset="1" stop-color="#036696" stop-opacity="0.8"/>
</linearGradient>
<linearGradient id="paint5_linear_1_2004" x1="46.4644" y1="5.43359" x2="46.4644" y2="8.74015" gradientUnits="userSpaceOnUse">
<stop stop-color="#32959D"/>
<stop offset="1" stop-color="#036696" stop-opacity="0.8"/>
</linearGradient>
<linearGradient id="paint6_linear_1_2004" x1="65.472" y1="4.63037" x2="65.472" y2="18.0387" gradientUnits="userSpaceOnUse">
<stop stop-color="#32959D"/>
<stop offset="1" stop-color="#036696" stop-opacity="0.8"/>
</linearGradient>
<linearGradient id="paint7_linear_1_2004" x1="59.3896" y1="4.62402" x2="59.3896" y2="9.82909" gradientUnits="userSpaceOnUse">
<stop stop-color="#32959D"/>
<stop offset="1" stop-color="#036696" stop-opacity="0.8"/>
</linearGradient>
<linearGradient id="paint8_linear_1_2004" x1="35.521" y1="4.53223" x2="35.521" y2="16.429" gradientUnits="userSpaceOnUse">
<stop stop-color="#32959D"/>
<stop offset="1" stop-color="#036696" stop-opacity="0.8"/>
</linearGradient>
<linearGradient id="paint9_linear_1_2004" x1="40.9582" y1="4.53223" x2="40.9582" y2="12.3487" gradientUnits="userSpaceOnUse">
<stop stop-color="#32959D"/>
<stop offset="1" stop-color="#036696" stop-opacity="0.8"/>
</linearGradient>
<linearGradient id="paint10_linear_1_2004" x1="42.3309" y1="0" x2="42.3309" y2="6.35921" gradientUnits="userSpaceOnUse">
<stop stop-color="#32959D"/>
<stop offset="1" stop-color="#036696" stop-opacity="0.8"/>
</linearGradient>
<linearGradient id="paint11_linear_1_2004" x1="41.7925" y1="5.30957" x2="41.7925" y2="13.5165" gradientUnits="userSpaceOnUse">
<stop stop-color="#32959D"/>
<stop offset="1" stop-color="#036696" stop-opacity="0.8"/>
</linearGradient>
<linearGradient id="paint12_linear_1_2004" x1="55.8997" y1="0.10791" x2="55.8997" y2="6.3946" gradientUnits="userSpaceOnUse">
<stop stop-color="#32959D"/>
<stop offset="1" stop-color="#036696" stop-opacity="0.8"/>
</linearGradient>
<linearGradient id="paint13_linear_1_2004" x1="56.3843" y1="5.3208" x2="56.3843" y2="13.5823" gradientUnits="userSpaceOnUse">
<stop stop-color="#32959D"/>
<stop offset="1" stop-color="#036696" stop-opacity="0.8"/>
</linearGradient>
<linearGradient id="paint14_linear_1_2004" x1="49.2176" y1="4.28027" x2="49.2176" y2="7.10119" gradientUnits="userSpaceOnUse">
<stop stop-color="#32959D"/>
<stop offset="1" stop-color="#036696" stop-opacity="0.8"/>
</linearGradient>
</defs>
</svg>
