<svg width="252" height="45" viewBox="0 0 252 45" fill="none" xmlns="http://www.w3.org/2000/svg">
<path d="M34.2603 37.5682C39.1398 33.0158 41.3085 25.4286 40.0073 18.1665H20.5977V26.1873H31.6579C31.2242 28.7887 29.7061 30.9564 27.5374 32.3655L34.2603 37.5682Z" fill="#4285F4"/>
<path d="M2.16602 31.1729C3.59246 33.9817 5.63818 36.4301 8.14895 38.3337C10.6597 40.2373 13.57 41.5463 16.6605 42.162C19.751 42.7778 22.941 42.6842 25.99 41.8884C29.0391 41.0926 31.8676 39.6153 34.2624 37.5679L27.5395 32.3652C21.7925 36.1588 12.2504 34.7497 8.99734 25.8618L2.16602 31.1729Z" fill="#34A853"/>
<path d="M8.99576 25.8617C8.12829 23.152 8.12829 20.659 8.99576 17.9493L2.16444 12.6382C-0.329537 17.6241 -1.08857 24.6694 2.16444 31.1728L8.99576 25.8617Z" fill="#FBBC02"/>
<path d="M8.99734 17.9493C11.3829 10.4704 21.5757 6.13483 28.407 12.5298L34.3708 6.67678C25.913 -1.45242 9.43108 -1.12725 2.16602 12.6382L8.99734 17.9493Z" fill="#EA4335"/>
<path d="M65.7788 8.56511H63.3488L63.3356 7.54437H65.5418C65.9062 7.54437 66.2245 7.4829 66.4967 7.35998C66.7688 7.23705 66.9796 7.06144 67.1289 6.83314C67.2825 6.60045 67.3593 6.32387 67.3593 6.00337C67.3593 5.65215 67.2913 5.36678 67.1552 5.14727C67.0235 4.92336 66.8193 4.76092 66.5427 4.65994C66.2705 4.55457 65.9237 4.50189 65.5022 4.50189H63.632V13.0498H62.361V3.46139H65.5022C65.994 3.46139 66.433 3.51188 66.8193 3.61286C67.2057 3.70944 67.5328 3.8631 67.8006 4.07384C68.0728 4.28018 68.2791 4.5436 68.4196 4.86409C68.5601 5.18458 68.6303 5.56873 68.6303 6.01654C68.6303 6.41167 68.5294 6.76948 68.3274 7.08997C68.1255 7.40607 67.8445 7.6651 67.4845 7.86706C67.1289 8.06901 66.7118 8.19852 66.2332 8.2556L65.7788 8.56511ZM65.7196 13.0498H62.8483L63.5661 12.0159H65.7196C66.1235 12.0159 66.4659 11.9456 66.7469 11.8052C67.0323 11.6647 67.2496 11.4671 67.3989 11.2125C67.5481 10.9534 67.6228 10.6483 67.6228 10.2971C67.6228 9.94147 67.5591 9.63415 67.4318 9.37512C67.3045 9.1161 67.1047 8.91634 66.8325 8.77585C66.5603 8.63536 66.2091 8.56511 65.7788 8.56511H63.9678L63.981 7.54437H66.4571L66.7271 7.91315C67.1881 7.95267 67.5789 8.08438 67.8994 8.30828C68.2198 8.5278 68.4635 8.80878 68.6303 9.15122C68.8016 9.49366 68.8872 9.87123 68.8872 10.2839C68.8872 10.881 68.7555 11.3859 68.492 11.7986C68.233 12.2069 67.8664 12.5186 67.3923 12.7337C66.9181 12.9444 66.3606 13.0498 65.7196 13.0498ZM74.7811 11.8315V8.1634C74.7811 7.88242 74.7241 7.63876 74.6099 7.43242C74.5002 7.22168 74.3333 7.05924 74.1094 6.94509C73.8855 6.83095 73.6089 6.77387 73.2797 6.77387C72.9723 6.77387 72.7023 6.82655 72.4697 6.93192C72.2414 7.03729 72.0614 7.17558 71.9296 7.34681C71.8023 7.51803 71.7387 7.70242 71.7387 7.89998H70.5204C70.5204 7.64535 70.5862 7.3929 70.7179 7.14266C70.8496 6.89241 71.0384 6.66631 71.2843 6.46436C71.5345 6.25801 71.8331 6.09557 72.1799 5.97703C72.5311 5.8541 72.9219 5.79264 73.3521 5.79264C73.8702 5.79264 74.3267 5.88045 74.7219 6.05606C75.1214 6.23167 75.4331 6.49728 75.657 6.8529C75.8853 7.20412 75.9995 7.64535 75.9995 8.17657V11.4956C75.9995 11.7327 76.0192 11.9852 76.0587 12.253C76.1026 12.5208 76.1663 12.7513 76.2497 12.9444V13.0498H74.9787C74.9172 12.9093 74.869 12.7227 74.8338 12.49C74.7987 12.253 74.7811 12.0335 74.7811 11.8315ZM74.9919 8.72975L75.0051 9.58586H73.7736C73.4267 9.58586 73.1172 9.6144 72.845 9.67147C72.5728 9.72415 72.3445 9.80537 72.1601 9.91513C71.9757 10.0249 71.8353 10.1632 71.7387 10.33C71.6421 10.4925 71.5938 10.6834 71.5938 10.9029C71.5938 11.1269 71.6443 11.331 71.7453 11.5154C71.8462 11.6998 71.9977 11.8469 72.1996 11.9566C72.406 12.062 72.6584 12.1147 72.957 12.1147C73.3302 12.1147 73.6594 12.0356 73.9448 11.8776C74.2302 11.7195 74.4563 11.5264 74.6231 11.2981C74.7943 11.0698 74.8865 10.8481 74.8997 10.6329L75.4199 11.219C75.3892 11.4034 75.3058 11.6076 75.1697 11.8315C75.0336 12.0554 74.8514 12.2705 74.6231 12.4769C74.3992 12.6788 74.1314 12.8479 73.8197 12.984C73.5123 13.1157 73.1655 13.1815 72.7792 13.1815C72.2962 13.1815 71.8726 13.0871 71.5082 12.8983C71.1482 12.7096 70.8672 12.4571 70.6652 12.141C70.4677 11.8205 70.3689 11.4627 70.3689 11.0676C70.3689 10.6856 70.4435 10.3498 70.5928 10.06C70.7421 9.76586 70.9572 9.5222 71.2382 9.32903C71.5192 9.13146 71.8572 8.98219 72.2523 8.88122C72.6475 8.78024 73.0887 8.72975 73.576 8.72975H74.9919ZM82.0647 11.1598C82.0647 10.9842 82.0251 10.8217 81.9461 10.6725C81.8715 10.5188 81.7156 10.3805 81.4785 10.2576C81.2459 10.1303 80.8946 10.0205 80.4249 9.9283C80.0297 9.84489 79.6719 9.7461 79.3514 9.63196C79.0353 9.51781 78.7653 9.37951 78.5414 9.21707C78.3219 9.05463 78.1529 8.86365 78.0344 8.64414C77.9158 8.42462 77.8565 8.16779 77.8565 7.87364C77.8565 7.59266 77.918 7.32705 78.0409 7.0768C78.1683 6.82655 78.3461 6.60484 78.5744 6.41167C78.807 6.2185 79.0858 6.06703 79.4107 5.95728C79.7356 5.84752 80.0978 5.79264 80.4973 5.79264C81.0681 5.79264 81.5554 5.89362 81.9593 6.09557C82.3632 6.29752 82.6727 6.56753 82.8878 6.90558C83.103 7.23924 83.2105 7.61022 83.2105 8.01852H81.9922C81.9922 7.82096 81.9329 7.62998 81.8144 7.44559C81.7003 7.2568 81.5312 7.10095 81.3073 6.97802C81.0878 6.85509 80.8178 6.79363 80.4973 6.79363C80.1593 6.79363 79.8849 6.84631 79.6741 6.95168C79.4678 7.05266 79.3163 7.18217 79.2197 7.34022C79.1275 7.49827 79.0814 7.6651 79.0814 7.84071C79.0814 7.97242 79.1034 8.09096 79.1473 8.19633C79.1956 8.29731 79.279 8.3917 79.3975 8.4795C79.5161 8.56292 79.6829 8.64194 79.898 8.71658C80.1132 8.79121 80.3876 8.86585 80.7212 8.94048C81.3051 9.07219 81.7859 9.23024 82.1634 9.41464C82.541 9.59903 82.822 9.82513 83.0064 10.0929C83.1908 10.3607 83.283 10.6856 83.283 11.0676C83.283 11.3793 83.2171 11.6647 83.0854 11.9237C82.9581 12.1827 82.7715 12.4066 82.5256 12.5954C82.2842 12.7798 81.9944 12.9247 81.6564 13.03C81.3227 13.131 80.9473 13.1815 80.5302 13.1815C79.9024 13.1815 79.3712 13.0696 78.9366 12.8457C78.5019 12.6218 78.1727 12.332 77.9487 11.9764C77.7248 11.6208 77.6129 11.2454 77.6129 10.8503H78.8378C78.8553 11.1839 78.9519 11.4495 79.1275 11.6471C79.3032 11.8403 79.5183 11.9786 79.7729 12.062C80.0276 12.141 80.28 12.1805 80.5302 12.1805C80.8639 12.1805 81.1427 12.1366 81.3666 12.0488C81.5949 11.961 81.7683 11.8403 81.8868 11.6866C82.0054 11.533 82.0647 11.3573 82.0647 11.1598ZM87.8401 13.1815C87.344 13.1815 86.894 13.0981 86.4901 12.9313C86.0906 12.76 85.7459 12.5208 85.4562 12.2135C85.1708 11.9061 84.9513 11.5417 84.7976 11.1203C84.644 10.6988 84.5671 10.2378 84.5671 9.73732V9.46073C84.5671 8.88122 84.6527 8.36535 84.824 7.91315C84.9952 7.45656 85.2279 7.07022 85.522 6.75412C85.8162 6.43801 86.1498 6.19874 86.523 6.0363C86.8962 5.87386 87.2825 5.79264 87.682 5.79264C88.1913 5.79264 88.6303 5.88045 88.9991 6.05606C89.3723 6.23167 89.6774 6.47753 89.9145 6.79363C90.1516 7.10534 90.3272 7.47412 90.4413 7.89998C90.5555 8.32145 90.6126 8.78243 90.6126 9.28293V9.82952H85.2915V8.83512H89.3943V8.74292C89.3767 8.42682 89.3108 8.1195 89.1967 7.82096C89.0869 7.52242 88.9113 7.27656 88.6699 7.08339C88.4284 6.89021 88.0991 6.79363 87.682 6.79363C87.4055 6.79363 87.1508 6.8529 86.9181 6.97143C86.6854 7.08558 86.4857 7.2568 86.3189 7.4851C86.152 7.7134 86.0225 7.99218 85.9303 8.32145C85.8381 8.65072 85.792 9.03049 85.792 9.46073V9.73732C85.792 10.0754 85.8381 10.3937 85.9303 10.6922C86.0269 10.9864 86.1652 11.2454 86.3452 11.4693C86.5296 11.6932 86.7513 11.8688 87.0103 11.9961C87.2737 12.1235 87.5723 12.1871 87.9059 12.1871C88.3362 12.1871 88.7006 12.0993 88.9991 11.9237C89.2977 11.7481 89.5589 11.5132 89.7828 11.219L90.5204 11.8052C90.3667 12.0378 90.1713 12.2596 89.9343 12.4703C89.6972 12.681 89.4052 12.8522 89.0584 12.984C88.716 13.1157 88.3099 13.1815 87.8401 13.1815ZM96.5263 11.6669V2.93455H97.7512V13.0498H96.6317L96.5263 11.6669ZM91.7321 9.5661V9.42781C91.7321 8.88341 91.7979 8.3895 91.9297 7.94608C92.0658 7.49827 92.2567 7.11412 92.5026 6.79363C92.7528 6.47314 93.0492 6.22728 93.3916 6.05606C93.7385 5.88045 94.1248 5.79264 94.5507 5.79264C94.9985 5.79264 95.3892 5.87166 95.7229 6.02972C96.0609 6.18338 96.3463 6.40948 96.579 6.70802C96.8161 7.00217 97.0026 7.35778 97.1387 7.77486C97.2748 8.19194 97.3692 8.6639 97.4219 9.19073V9.79659C97.3736 10.319 97.2792 10.7888 97.1387 11.2059C97.0026 11.623 96.8161 11.9786 96.579 12.2727C96.3463 12.5669 96.0609 12.793 95.7229 12.951C95.3848 13.1047 94.9897 13.1815 94.5375 13.1815C94.1204 13.1815 93.7385 13.0915 93.3916 12.9115C93.0492 12.7315 92.7528 12.4791 92.5026 12.1542C92.2567 11.8293 92.0658 11.4473 91.9297 11.0083C91.7979 10.5649 91.7321 10.0842 91.7321 9.5661ZM92.957 9.42781V9.5661C92.957 9.92172 92.9921 10.2554 93.0624 10.5671C93.137 10.8788 93.2511 11.1532 93.4048 11.3903C93.5585 11.6273 93.7538 11.8139 93.9909 11.95C94.228 12.0817 94.5112 12.1476 94.8404 12.1476C95.2443 12.1476 95.5758 12.062 95.8348 11.8908C96.0982 11.7195 96.309 11.4934 96.467 11.2125C96.6251 10.9315 96.748 10.6264 96.8358 10.2971V8.70999C96.7831 8.46853 96.7063 8.23584 96.6053 8.01194C96.5087 7.78364 96.3814 7.58169 96.2234 7.40607C96.0697 7.22607 95.8787 7.08339 95.6504 6.97802C95.4265 6.87265 95.1609 6.81997 94.8536 6.81997C94.5199 6.81997 94.2324 6.89021 93.9909 7.0307C93.7538 7.1668 93.5585 7.35559 93.4048 7.59705C93.2511 7.83413 93.137 8.11072 93.0624 8.42682C92.9921 8.73853 92.957 9.07219 92.957 9.42781ZM102.671 9.5661V9.41464C102.671 8.90097 102.745 8.42462 102.894 7.98559C103.044 7.54217 103.259 7.15802 103.54 6.83314C103.821 6.50387 104.161 6.24923 104.561 6.06923C104.96 5.88484 105.408 5.79264 105.904 5.79264C106.404 5.79264 106.854 5.88484 107.254 6.06923C107.658 6.24923 108 6.50387 108.281 6.83314C108.567 7.15802 108.784 7.54217 108.933 7.98559C109.083 8.42462 109.157 8.90097 109.157 9.41464V9.5661C109.157 10.0798 109.083 10.5561 108.933 10.9951C108.784 11.4342 108.567 11.8183 108.281 12.1476C108 12.4725 107.66 12.7271 107.261 12.9115C106.865 13.0915 106.418 13.1815 105.917 13.1815C105.417 13.1815 104.967 13.0915 104.567 12.9115C104.168 12.7271 103.825 12.4725 103.54 12.1476C103.259 11.8183 103.044 11.4342 102.894 10.9951C102.745 10.5561 102.671 10.0798 102.671 9.5661ZM103.889 9.41464V9.5661C103.889 9.92172 103.931 10.2576 104.014 10.5737C104.097 10.8854 104.222 11.162 104.389 11.4034C104.561 11.6449 104.773 11.8359 105.028 11.9764C105.283 12.1125 105.579 12.1805 105.917 12.1805C106.251 12.1805 106.543 12.1125 106.793 11.9764C107.048 11.8359 107.258 11.6449 107.425 11.4034C107.592 11.162 107.717 10.8854 107.801 10.5737C107.888 10.2576 107.932 9.92172 107.932 9.5661V9.41464C107.932 9.06341 107.888 8.73195 107.801 8.42023C107.717 8.10413 107.59 7.82535 107.419 7.58388C107.252 7.33802 107.041 7.14485 106.786 7.00436C106.536 6.86387 106.242 6.79363 105.904 6.79363C105.57 6.79363 105.276 6.86387 105.022 7.00436C104.771 7.14485 104.561 7.33802 104.389 7.58388C104.222 7.82535 104.097 8.10413 104.014 8.42023C103.931 8.73195 103.889 9.06341 103.889 9.41464ZM111.903 7.44559V13.0498H110.685V5.92435H111.837L111.903 7.44559ZM111.614 9.21707L111.106 9.19732C111.111 8.70999 111.183 8.25999 111.324 7.8473C111.464 7.43022 111.662 7.06802 111.916 6.7607C112.171 6.45338 112.474 6.2163 112.825 6.04947C113.181 5.87825 113.574 5.79264 114.004 5.79264C114.355 5.79264 114.671 5.84093 114.952 5.93752C115.233 6.02972 115.473 6.17899 115.67 6.38533C115.872 6.59167 116.026 6.85948 116.131 7.18875C116.237 7.51364 116.289 7.91096 116.289 8.38072V13.0498H115.064V8.36755C115.064 7.99437 115.009 7.69583 114.9 7.47193C114.79 7.24363 114.63 7.079 114.419 6.97802C114.208 6.87265 113.949 6.81997 113.642 6.81997C113.339 6.81997 113.062 6.88363 112.812 7.01095C112.566 7.13827 112.353 7.31388 112.173 7.53778C111.998 7.76169 111.859 8.01852 111.758 8.30828C111.662 8.59365 111.614 8.89658 111.614 9.21707ZM128.755 8.27535V11.7854C128.637 11.961 128.448 12.1586 128.189 12.3781C127.93 12.5932 127.572 12.782 127.116 12.9444C126.664 13.1025 126.08 13.1815 125.364 13.1815C124.78 13.1815 124.242 13.0805 123.751 12.8786C123.263 12.6722 122.84 12.3737 122.48 11.983C122.124 11.5878 121.847 11.1093 121.65 10.5473C121.457 9.98099 121.36 9.34 121.36 8.62438V7.88023C121.36 7.16461 121.443 6.52582 121.61 5.96386C121.781 5.4019 122.032 4.92556 122.361 4.53482C122.69 4.13969 123.094 3.84115 123.573 3.6392C124.051 3.43285 124.6 3.32968 125.219 3.32968C125.952 3.32968 126.565 3.457 127.056 3.71164C127.553 3.96188 127.939 4.30872 128.215 4.75214C128.496 5.19556 128.676 5.70044 128.755 6.26679H127.484C127.427 5.91996 127.313 5.60386 127.142 5.31849C126.975 5.03312 126.736 4.80482 126.424 4.6336C126.113 4.45799 125.711 4.37018 125.219 4.37018C124.776 4.37018 124.392 4.4514 124.067 4.61384C123.742 4.77629 123.474 5.00897 123.263 5.3119C123.052 5.61483 122.894 5.98142 122.789 6.41167C122.688 6.84192 122.638 7.32705 122.638 7.86706V8.62438C122.638 9.17756 122.701 9.67147 122.829 10.1061C122.96 10.5407 123.147 10.9117 123.388 11.219C123.63 11.522 123.917 11.7525 124.251 11.9105C124.589 12.0686 124.962 12.1476 125.371 12.1476C125.823 12.1476 126.189 12.1103 126.47 12.0356C126.751 11.9566 126.971 11.8644 127.129 11.7591C127.287 11.6493 127.408 11.5461 127.491 11.4495V9.30268H125.272V8.27535H128.755ZM130.356 9.5661V9.41464C130.356 8.90097 130.43 8.42462 130.58 7.98559C130.729 7.54217 130.944 7.15802 131.225 6.83314C131.506 6.50387 131.846 6.24923 132.246 6.06923C132.645 5.88484 133.093 5.79264 133.589 5.79264C134.09 5.79264 134.54 5.88484 134.939 6.06923C135.343 6.24923 135.686 6.50387 135.967 6.83314C136.252 7.15802 136.469 7.54217 136.619 7.98559C136.768 8.42462 136.842 8.90097 136.842 9.41464V9.5661C136.842 10.0798 136.768 10.5561 136.619 10.9951C136.469 11.4342 136.252 11.8183 135.967 12.1476C135.686 12.4725 135.345 12.7271 134.946 12.9115C134.551 13.0915 134.103 13.1815 133.602 13.1815C133.102 13.1815 132.652 13.0915 132.252 12.9115C131.853 12.7271 131.51 12.4725 131.225 12.1476C130.944 11.8183 130.729 11.4342 130.58 10.9951C130.43 10.5561 130.356 10.0798 130.356 9.5661ZM131.574 9.41464V9.5661C131.574 9.92172 131.616 10.2576 131.699 10.5737C131.783 10.8854 131.908 11.162 132.075 11.4034C132.246 11.6449 132.459 11.8359 132.713 11.9764C132.968 12.1125 133.264 12.1805 133.602 12.1805C133.936 12.1805 134.228 12.1125 134.478 11.9764C134.733 11.8359 134.944 11.6449 135.11 11.4034C135.277 11.162 135.402 10.8854 135.486 10.5737C135.574 10.2576 135.618 9.92172 135.618 9.5661V9.41464C135.618 9.06341 135.574 8.73195 135.486 8.42023C135.402 8.10413 135.275 7.82535 135.104 7.58388C134.937 7.33802 134.726 7.14485 134.472 7.00436C134.221 6.86387 133.927 6.79363 133.589 6.79363C133.256 6.79363 132.961 6.86387 132.707 7.00436C132.457 7.14485 132.246 7.33802 132.075 7.58388C131.908 7.82535 131.783 8.10413 131.699 8.42023C131.616 8.73195 131.574 9.06341 131.574 9.41464ZM138.048 9.5661V9.41464C138.048 8.90097 138.122 8.42462 138.271 7.98559C138.421 7.54217 138.636 7.15802 138.917 6.83314C139.198 6.50387 139.538 6.24923 139.938 6.06923C140.337 5.88484 140.785 5.79264 141.281 5.79264C141.782 5.79264 142.232 5.88484 142.631 6.06923C143.035 6.24923 143.377 6.50387 143.658 6.83314C143.944 7.15802 144.161 7.54217 144.31 7.98559C144.46 8.42462 144.534 8.90097 144.534 9.41464V9.5661C144.534 10.0798 144.46 10.5561 144.31 10.9951C144.161 11.4342 143.944 11.8183 143.658 12.1476C143.377 12.4725 143.037 12.7271 142.638 12.9115C142.242 13.0915 141.795 13.1815 141.294 13.1815C140.794 13.1815 140.344 13.0915 139.944 12.9115C139.545 12.7271 139.202 12.4725 138.917 12.1476C138.636 11.8183 138.421 11.4342 138.271 10.9951C138.122 10.5561 138.048 10.0798 138.048 9.5661ZM139.266 9.41464V9.5661C139.266 9.92172 139.308 10.2576 139.391 10.5737C139.474 10.8854 139.6 11.162 139.766 11.4034C139.938 11.6449 140.151 11.8359 140.405 11.9764C140.66 12.1125 140.956 12.1805 141.294 12.1805C141.628 12.1805 141.92 12.1125 142.17 11.9764C142.425 11.8359 142.635 11.6449 142.802 11.4034C142.969 11.162 143.094 10.8854 143.178 10.5737C143.265 10.2576 143.309 9.92172 143.309 9.5661V9.41464C143.309 9.06341 143.265 8.73195 143.178 8.42023C143.094 8.10413 142.967 7.82535 142.796 7.58388C142.629 7.33802 142.418 7.14485 142.163 7.00436C141.913 6.86387 141.619 6.79363 141.281 6.79363C140.947 6.79363 140.653 6.86387 140.399 7.00436C140.148 7.14485 139.938 7.33802 139.766 7.58388C139.6 7.82535 139.474 8.10413 139.391 8.42023C139.308 8.73195 139.266 9.06341 139.266 9.41464ZM150.678 5.92435H151.785V12.8983C151.785 13.5262 151.657 14.0618 151.403 14.5052C151.148 14.9486 150.793 15.2845 150.336 15.5128C149.884 15.7454 149.361 15.8618 148.769 15.8618C148.523 15.8618 148.233 15.8223 147.899 15.7433C147.57 15.6686 147.245 15.5391 146.925 15.3547C146.609 15.1747 146.343 14.931 146.128 14.6237L146.767 13.8993C147.065 14.2593 147.377 14.5096 147.702 14.6501C148.031 14.7906 148.356 14.8608 148.676 14.8608C149.063 14.8608 149.396 14.7884 149.677 14.6435C149.958 14.4986 150.176 14.2835 150.329 13.9981C150.487 13.7171 150.566 13.3703 150.566 12.9576V7.49169L150.678 5.92435ZM145.772 9.5661V9.42781C145.772 8.88341 145.836 8.3895 145.963 7.94608C146.095 7.49827 146.282 7.11412 146.523 6.79363C146.769 6.47314 147.065 6.22728 147.412 6.05606C147.759 5.88045 148.15 5.79264 148.584 5.79264C149.032 5.79264 149.423 5.87166 149.756 6.02972C150.095 6.18338 150.38 6.40948 150.613 6.70802C150.85 7.00217 151.036 7.35778 151.172 7.77486C151.308 8.19194 151.403 8.6639 151.456 9.19073V9.79659C151.407 10.319 151.313 10.7888 151.172 11.2059C151.036 11.623 150.85 11.9786 150.613 12.2727C150.38 12.5669 150.095 12.793 149.756 12.951C149.418 13.1047 149.023 13.1815 148.571 13.1815C148.145 13.1815 147.759 13.0915 147.412 12.9115C147.07 12.7315 146.775 12.4791 146.53 12.1542C146.284 11.8293 146.095 11.4473 145.963 11.0083C145.836 10.5649 145.772 10.0842 145.772 9.5661ZM146.991 9.42781V9.5661C146.991 9.92172 147.026 10.2554 147.096 10.5671C147.171 10.8788 147.283 11.1532 147.432 11.3903C147.585 11.6273 147.781 11.8139 148.018 11.95C148.255 12.0817 148.538 12.1476 148.867 12.1476C149.271 12.1476 149.605 12.062 149.868 11.8908C150.132 11.7195 150.34 11.4934 150.494 11.2125C150.652 10.9315 150.775 10.6264 150.863 10.2971V8.70999C150.815 8.46853 150.74 8.23584 150.639 8.01194C150.542 7.78364 150.415 7.58169 150.257 7.40607C150.103 7.22607 149.912 7.08339 149.684 6.97802C149.456 6.87265 149.188 6.81997 148.881 6.81997C148.547 6.81997 148.259 6.89021 148.018 7.0307C147.781 7.1668 147.585 7.35559 147.432 7.59705C147.283 7.83413 147.171 8.11072 147.096 8.42682C147.026 8.73853 146.991 9.07219 146.991 9.42781ZM154.959 2.93455V13.0498H153.734V2.93455H154.959ZM159.872 13.1815C159.376 13.1815 158.926 13.0981 158.522 12.9313C158.122 12.76 157.778 12.5208 157.488 12.2135C157.202 11.9061 156.983 11.5417 156.829 11.1203C156.676 10.6988 156.599 10.2378 156.599 9.73732V9.46073C156.599 8.88122 156.684 8.36535 156.856 7.91315C157.027 7.45656 157.26 7.07022 157.554 6.75412C157.848 6.43801 158.181 6.19874 158.555 6.0363C158.928 5.87386 159.314 5.79264 159.714 5.79264C160.223 5.79264 160.662 5.88045 161.031 6.05606C161.404 6.23167 161.709 6.47753 161.946 6.79363C162.183 7.10534 162.359 7.47412 162.473 7.89998C162.587 8.32145 162.644 8.78243 162.644 9.28293V9.82952H157.323V8.83512H161.426V8.74292C161.408 8.42682 161.342 8.1195 161.228 7.82096C161.119 7.52242 160.943 7.27656 160.702 7.08339C160.46 6.89021 160.131 6.79363 159.714 6.79363C159.437 6.79363 159.182 6.8529 158.95 6.97143C158.717 7.08558 158.517 7.2568 158.35 7.4851C158.184 7.7134 158.054 7.99218 157.962 8.32145C157.87 8.65072 157.824 9.03049 157.824 9.46073V9.73732C157.824 10.0754 157.87 10.3937 157.962 10.6922C158.059 10.9864 158.197 11.2454 158.377 11.4693C158.561 11.6932 158.783 11.8688 159.042 11.9961C159.305 12.1235 159.604 12.1871 159.938 12.1871C160.368 12.1871 160.732 12.0993 161.031 11.9237C161.329 11.7481 161.591 11.5132 161.814 11.219L162.552 11.8052C162.398 12.0378 162.203 12.2596 161.966 12.4703C161.729 12.681 161.437 12.8522 161.09 12.984C160.748 13.1157 160.341 13.1815 159.872 13.1815ZM168.63 7.04387V13.0498H167.412V5.92435H168.597L168.63 7.04387ZM170.856 5.88484L170.85 7.01753C170.749 6.99558 170.652 6.98241 170.56 6.97802C170.472 6.96924 170.371 6.96485 170.257 6.96485C169.976 6.96485 169.728 7.00875 169.513 7.09656C169.298 7.18436 169.116 7.30729 168.966 7.46534C168.817 7.62339 168.698 7.81218 168.611 8.03169C168.527 8.24682 168.472 8.48389 168.446 8.74292L168.104 8.94048C168.104 8.51023 168.145 8.10633 168.229 7.72876C168.316 7.3512 168.45 7.01753 168.63 6.72777C168.81 6.43362 169.039 6.20533 169.315 6.04289C169.596 5.87606 169.93 5.79264 170.316 5.79264C170.404 5.79264 170.505 5.80362 170.619 5.82557C170.733 5.84313 170.812 5.86288 170.856 5.88484ZM174.808 13.1815C174.311 13.1815 173.861 13.0981 173.458 12.9313C173.058 12.76 172.713 12.5208 172.424 12.2135C172.138 11.9061 171.919 11.5417 171.765 11.1203C171.611 10.6988 171.535 10.2378 171.535 9.73732V9.46073C171.535 8.88122 171.62 8.36535 171.791 7.91315C171.963 7.45656 172.195 7.07022 172.489 6.75412C172.784 6.43801 173.117 6.19874 173.49 6.0363C173.864 5.87386 174.25 5.79264 174.649 5.79264C175.159 5.79264 175.598 5.88045 175.967 6.05606C176.34 6.23167 176.645 6.47753 176.882 6.79363C177.119 7.10534 177.295 7.47412 177.409 7.89998C177.523 8.32145 177.58 8.78243 177.58 9.28293V9.82952H172.259V8.83512H176.362V8.74292C176.344 8.42682 176.278 8.1195 176.164 7.82096C176.054 7.52242 175.879 7.27656 175.637 7.08339C175.396 6.89021 175.067 6.79363 174.649 6.79363C174.373 6.79363 174.118 6.8529 173.886 6.97143C173.653 7.08558 173.453 7.2568 173.286 7.4851C173.119 7.7134 172.99 7.99218 172.898 8.32145C172.806 8.65072 172.759 9.03049 172.759 9.46073V9.73732C172.759 10.0754 172.806 10.3937 172.898 10.6922C172.994 10.9864 173.133 11.2454 173.313 11.4693C173.497 11.6932 173.719 11.8688 173.978 11.9961C174.241 12.1235 174.54 12.1871 174.873 12.1871C175.304 12.1871 175.668 12.0993 175.967 11.9237C176.265 11.7481 176.526 11.5132 176.75 11.219L177.488 11.8052C177.334 12.0378 177.139 12.2596 176.902 12.4703C176.665 12.681 176.373 12.8522 176.026 12.984C175.683 13.1157 175.277 13.1815 174.808 13.1815ZM181.077 11.95L183.026 5.92435H184.271L181.709 13.0498H180.892L181.077 11.95ZM179.45 5.92435L181.459 11.983L181.597 13.0498H180.781L178.199 5.92435H179.45ZM186.767 5.92435V13.0498H185.542V5.92435H186.767ZM185.45 4.03432C185.45 3.83676 185.509 3.66993 185.627 3.53383C185.75 3.39773 185.93 3.32968 186.167 3.32968C186.4 3.32968 186.578 3.39773 186.701 3.53383C186.828 3.66993 186.892 3.83676 186.892 4.03432C186.892 4.22311 186.828 4.38555 186.701 4.52165C186.578 4.65336 186.4 4.71921 186.167 4.71921C185.93 4.71921 185.75 4.65336 185.627 4.52165C185.509 4.38555 185.45 4.22311 185.45 4.03432ZM191.679 13.1815C191.183 13.1815 190.733 13.0981 190.329 12.9313C189.93 12.76 189.585 12.5208 189.296 12.2135C189.01 11.9061 188.791 11.5417 188.637 11.1203C188.483 10.6988 188.406 10.2378 188.406 9.73732V9.46073C188.406 8.88122 188.492 8.36535 188.663 7.91315C188.835 7.45656 189.067 7.07022 189.361 6.75412C189.656 6.43801 189.989 6.19874 190.362 6.0363C190.736 5.87386 191.122 5.79264 191.521 5.79264C192.031 5.79264 192.47 5.88045 192.838 6.05606C193.212 6.23167 193.517 6.47753 193.754 6.79363C193.991 7.10534 194.167 7.47412 194.281 7.89998C194.395 8.32145 194.452 8.78243 194.452 9.28293V9.82952H189.131V8.83512H193.234V8.74292C193.216 8.42682 193.15 8.1195 193.036 7.82096C192.926 7.52242 192.751 7.27656 192.509 7.08339C192.268 6.89021 191.938 6.79363 191.521 6.79363C191.245 6.79363 190.99 6.8529 190.757 6.97143C190.525 7.08558 190.325 7.2568 190.158 7.4851C189.991 7.7134 189.862 7.99218 189.77 8.32145C189.677 8.65072 189.631 9.03049 189.631 9.46073V9.73732C189.631 10.0754 189.677 10.3937 189.77 10.6922C189.866 10.9864 190.005 11.2454 190.185 11.4693C190.369 11.6932 190.591 11.8688 190.85 11.9961C191.113 12.1235 191.412 12.1871 191.745 12.1871C192.176 12.1871 192.54 12.0993 192.838 11.9237C193.137 11.7481 193.398 11.5132 193.622 11.219L194.36 11.8052C194.206 12.0378 194.011 12.2596 193.774 12.4703C193.537 12.681 193.245 12.8522 192.898 12.984C192.555 13.1157 192.149 13.1815 191.679 13.1815ZM197.679 11.7854L199.51 5.92435H200.313L200.155 7.08997L198.291 13.0498H197.508L197.679 11.7854ZM196.447 5.92435L198.008 11.8513L198.12 13.0498H197.297L195.229 5.92435H196.447ZM202.065 11.8052L203.553 5.92435H204.765L202.697 13.0498H201.88L202.065 11.8052ZM200.491 5.92435L202.282 11.6866L202.486 13.0498H201.709L199.793 7.0768L199.635 5.92435H200.491ZM210.165 11.1598C210.165 10.9842 210.125 10.8217 210.046 10.6725C209.972 10.5188 209.816 10.3805 209.579 10.2576C209.346 10.1303 208.995 10.0205 208.525 9.9283C208.13 9.84489 207.772 9.7461 207.452 9.63196C207.136 9.51781 206.866 9.37951 206.642 9.21707C206.422 9.05463 206.253 8.86365 206.135 8.64414C206.016 8.42462 205.957 8.16779 205.957 7.87364C205.957 7.59266 206.018 7.32705 206.141 7.0768C206.268 6.82655 206.446 6.60484 206.675 6.41167C206.907 6.2185 207.186 6.06703 207.511 5.95728C207.836 5.84752 208.198 5.79264 208.597 5.79264C209.168 5.79264 209.656 5.89362 210.059 6.09557C210.463 6.29752 210.773 6.56753 210.988 6.90558C211.203 7.23924 211.311 7.61022 211.311 8.01852H210.092C210.092 7.82096 210.033 7.62998 209.915 7.44559C209.8 7.2568 209.631 7.10095 209.407 6.97802C209.188 6.85509 208.918 6.79363 208.597 6.79363C208.259 6.79363 207.985 6.84631 207.774 6.95168C207.568 7.05266 207.416 7.18217 207.32 7.34022C207.228 7.49827 207.182 7.6651 207.182 7.84071C207.182 7.97242 207.204 8.09096 207.247 8.19633C207.296 8.29731 207.379 8.3917 207.498 8.4795C207.616 8.56292 207.783 8.64194 207.998 8.71658C208.213 8.79121 208.488 8.86585 208.821 8.94048C209.405 9.07219 209.886 9.23024 210.264 9.41464C210.641 9.59903 210.922 9.82513 211.107 10.0929C211.291 10.3607 211.383 10.6856 211.383 11.0676C211.383 11.3793 211.317 11.6647 211.186 11.9237C211.058 12.1827 210.872 12.4066 210.626 12.5954C210.384 12.7798 210.095 12.9247 209.757 13.03C209.423 13.131 209.047 13.1815 208.63 13.1815C208.003 13.1815 207.471 13.0696 207.037 12.8457C206.602 12.6218 206.273 12.332 206.049 11.9764C205.825 11.6208 205.713 11.2454 205.713 10.8503H206.938C206.956 11.1839 207.052 11.4495 207.228 11.6471C207.403 11.8403 207.618 11.9786 207.873 12.062C208.128 12.141 208.38 12.1805 208.63 12.1805C208.964 12.1805 209.243 12.1366 209.467 12.0488C209.695 11.961 209.868 11.8403 209.987 11.6866C210.106 11.533 210.165 11.3573 210.165 11.1598Z" fill="#455A64"/>
<path d="M71.0018 34.4623V37.3599H58.4535L58.25 35.085L65.3862 23.6861H68.3437L65.1348 29.0024L61.8899 34.4623H71.0018ZM69.1339 23.6861V41.1196H65.3982V23.6861H69.1339ZM73.157 39.3475C73.157 38.8047 73.3486 38.3497 73.7318 37.9826C74.1229 37.6154 74.6298 37.4318 75.2524 37.4318C75.883 37.4318 76.3859 37.6154 76.7611 37.9826C77.1442 38.3497 77.3358 38.8047 77.3358 39.3475C77.3358 39.8824 77.1442 40.3334 76.7611 40.7006C76.3859 41.0677 75.883 41.2513 75.2524 41.2513C74.6298 41.2513 74.1229 41.0677 73.7318 40.7006C73.3486 40.3334 73.157 39.8824 73.157 39.3475ZM89.1178 23.4706H89.6925V26.4401H89.477C88.6388 26.4401 87.8725 26.5598 87.1781 26.7993C86.4916 27.0387 85.8969 27.394 85.394 27.8649C84.8911 28.3279 84.504 28.9026 84.2326 29.5891C83.9691 30.2676 83.8374 31.0499 83.8374 31.9359V34.9054C83.8374 35.504 83.8893 36.0269 83.9931 36.4739C84.1048 36.9129 84.2645 37.2801 84.472 37.5755C84.6876 37.8628 84.947 38.0823 85.2503 38.234C85.5536 38.3777 85.8969 38.4495 86.28 38.4495C86.6233 38.4495 86.9386 38.3737 87.226 38.222C87.5133 38.0704 87.7608 37.8548 87.9683 37.5755C88.1759 37.2961 88.3355 36.9728 88.4473 36.6056C88.559 36.2304 88.6149 35.8233 88.6149 35.3843C88.6149 34.9213 88.555 34.5022 88.4353 34.1271C88.3235 33.7439 88.1599 33.4166 87.9444 33.1452C87.7368 32.8738 87.4814 32.6663 87.1781 32.5226C86.8747 32.371 86.5395 32.2951 86.1723 32.2951C85.6454 32.2951 85.1904 32.4149 84.8073 32.6543C84.4241 32.8938 84.1288 33.2011 83.9213 33.5763C83.7137 33.9515 83.6059 34.3346 83.598 34.7258L82.6042 33.8996C82.6042 33.3568 82.7119 32.822 82.9274 32.2951C83.151 31.7603 83.4663 31.2774 83.8734 30.8463C84.2805 30.4073 84.7794 30.0601 85.3701 29.8046C85.9687 29.5412 86.6512 29.4095 87.4175 29.4095C88.2237 29.4095 88.9342 29.5652 89.5488 29.8765C90.1635 30.1798 90.6783 30.6029 91.0934 31.1457C91.5165 31.6885 91.8318 32.3231 92.0393 33.0495C92.2548 33.7679 92.3626 34.5382 92.3626 35.3604C92.3626 36.2065 92.2149 36.9967 91.9196 37.7311C91.6322 38.4575 91.2251 39.0921 90.6983 39.6349C90.1714 40.1777 89.5408 40.6008 88.8065 40.9041C88.0801 41.2074 87.2699 41.3591 86.3758 41.3591C85.4499 41.3591 84.6037 41.1955 83.8374 40.8682C83.0791 40.5409 82.4166 40.0739 81.8498 39.4673C81.2911 38.8526 80.856 38.1183 80.5447 37.2641C80.2414 36.41 80.0897 35.4522 80.0897 34.3905V32.9896C80.0897 31.5368 80.3132 30.2277 80.7602 29.0623C81.2152 27.8968 81.8458 26.899 82.6521 26.0689C83.4663 25.2307 84.4241 24.5882 85.5257 24.1411C86.6273 23.6941 87.8246 23.4706 89.1178 23.4706Z" fill="#DF7550"/>
<path fill-rule="evenodd" clip-rule="evenodd" d="M113.798 24.2313C114.289 23.0505 115.965 23.0505 116.457 24.2313L118.74 29.7211L124.668 30.1958C125.945 30.2978 126.462 31.8898 125.489 32.7231L120.974 36.5902L122.352 42.3716C122.65 43.6171 121.295 44.6006 120.202 43.934L115.127 40.8355L110.052 43.934C108.96 44.6006 107.605 43.616 107.902 42.3716L109.281 36.5902L104.765 32.7231C103.792 31.8898 104.31 30.2978 105.587 30.1958L111.514 29.7211L113.798 24.2313Z" fill="#F8BB36"/>
<path fill-rule="evenodd" clip-rule="evenodd" d="M143.38 24.2313C143.871 23.0505 145.547 23.0505 146.039 24.2313L148.322 29.7211L154.25 30.1958C155.527 30.2978 156.044 31.8898 155.071 32.7231L150.556 36.5902L151.934 42.3716C152.232 43.6171 150.877 44.6006 149.784 43.934L144.709 40.8355L139.634 43.934C138.542 44.6006 137.187 43.616 137.484 42.3716L138.863 36.5902L134.347 32.7231C133.374 31.8898 133.892 30.2978 135.169 30.1958L141.096 29.7211L143.38 24.2313Z" fill="#F8BB36"/>
<path fill-rule="evenodd" clip-rule="evenodd" d="M172.789 24.2318C173.28 23.051 174.956 23.051 175.448 24.2318L177.731 29.7216L183.659 30.1963C184.936 30.2983 185.453 31.8903 184.481 32.7236L179.965 36.5906L181.343 42.3721C181.641 43.6176 180.286 44.6011 179.194 43.9345L174.118 40.836L169.043 43.9345C167.951 44.6011 166.596 43.6165 166.893 42.3721L168.272 36.5906L163.756 32.7236C162.783 31.8903 163.301 30.2983 164.578 30.1963L170.505 29.7216L172.789 24.2318Z" fill="#F8BB36"/>
<path fill-rule="evenodd" clip-rule="evenodd" d="M202.198 24.2313C202.69 23.0505 204.366 23.0505 204.857 24.2313L207.141 29.7211L213.068 30.1958C214.345 30.2978 214.863 31.8898 213.89 32.7231L209.374 36.5902L210.753 42.3716C211.05 43.6171 209.695 44.6006 208.603 43.934L203.528 40.8355L198.452 43.934C197.36 44.6006 196.005 43.616 196.303 42.3716L197.681 36.5902L193.166 32.7231C192.193 31.8898 192.71 30.2978 193.987 30.1958L199.915 29.7211L202.198 24.2313Z" fill="#F8BB36"/>
<mask id="mask0_560_9474" style="mask-type:alpha" maskUnits="userSpaceOnUse" x="222" y="23" width="22" height="22">
<path fill-rule="evenodd" clip-rule="evenodd" d="M231.608 24.2318C232.1 23.051 233.776 23.051 234.267 24.2318L236.551 29.7216L242.478 30.1963C243.755 30.2983 244.273 31.8903 243.3 32.7236L238.784 36.5906L240.163 42.3721C240.46 43.6176 239.105 44.6011 238.013 43.9345L232.938 40.836L227.863 43.9345C226.77 44.6011 225.415 43.6165 225.713 42.3721L227.091 36.5906L222.576 32.7236C221.603 31.8903 222.12 30.2983 223.397 30.1963L229.325 29.7216L231.608 24.2318Z" fill="#DF7550"/>
</mask>
<g mask="url(#mask0_560_9474)">
<rect x="232.892" y="22.2495" width="10.9642" height="23.0248" fill="#D9D9D9"/>
</g>
<path fill-rule="evenodd" clip-rule="evenodd" d="M232.892 23.3467C232.365 23.363 231.847 23.6579 231.608 24.2316L229.325 29.7214L223.397 30.1961C222.12 30.2981 221.603 31.8901 222.576 32.7234L227.091 36.5904L225.713 42.3718C225.415 43.6163 226.77 44.6008 227.863 43.9342L232.892 40.8639V23.3467Z" fill="#F8BB36"/>
</svg>
