<svg width="202" height="209" viewBox="0 0 202 209" fill="none" xmlns="http://www.w3.org/2000/svg">
<path d="M172.31 69.573C171.66 68.4918 170.984 67.4316 170.281 66.3923C160.88 52.5808 145.212 43.125 130.022 38.8436C123.394 36.9943 116.569 35.9423 109.692 35.71C64.9008 34.104 48.4492 71.034 34.0187 80.5525C19.5883 90.0709 -2.55877 106.338 0.241931 140.503C2.34931 166.481 17.1284 191.319 44.113 202.62C47.1614 203.899 50.2899 204.979 53.4787 205.851C59.9375 207.604 66.5729 208.625 73.2598 208.895C93.6638 209.804 110.233 204.884 126.438 192.498C130.206 189.619 133.955 186.372 138.843 186.015C142.396 185.757 145.765 187.034 142.051 190.469C137.684 194.504 142.721 202.443 153.802 196.928C172.31 187.715 179.925 167.84 183.513 147.632C187.9 122.825 185.766 91.9942 172.31 69.573Z" fill="#A4DEDF"/>
<path d="M179.802 116.354L172.597 113.38L172.33 110.673C171.658 110.102 171.031 109.479 170.456 108.81L167.76 108.542L164.785 101.337L166.514 99.2786C166.442 98.3949 166.442 97.5067 166.514 96.623L164.785 94.5645L167.76 87.3595L170.456 87.1022C171.034 86.4323 171.66 85.8062 172.33 85.2289L172.597 82.5322L179.802 79.5576L181.861 81.2868C182.745 81.2147 183.633 81.2147 184.516 81.2868L186.575 79.5576L193.78 82.5322L194.037 85.2289C194.707 85.8062 195.333 86.4323 195.91 87.1022L198.607 87.3595L201.582 94.5645L199.853 96.623C199.925 97.5067 199.925 98.3949 199.853 99.2786L201.582 101.337L198.607 108.542L195.91 108.81C195.339 109.485 194.712 110.111 194.037 110.683L193.78 113.38L186.575 116.354L184.516 114.625C183.636 114.697 182.751 114.697 181.871 114.625L179.802 116.354ZM185.031 113.03L186.904 114.574L192.37 112.309L192.596 109.901L192.854 109.695C193.62 109.076 194.326 108.387 194.964 107.636L195.159 107.379L197.578 107.153L199.842 101.687L198.298 99.8138V99.4947C198.401 98.5024 198.401 97.5021 198.298 96.5098V96.1907L199.842 94.3175L197.578 88.852L195.169 88.6256L194.964 88.3682C194.326 87.6175 193.62 86.9282 192.854 86.3097L192.596 86.1038L192.37 83.6953L186.904 81.4309L185.031 82.9748H184.712C183.72 82.8719 182.719 82.8719 181.727 82.9748H181.408L179.535 81.4309L174.069 83.6953L173.843 86.1038L173.596 86.3097C172.824 86.9254 172.114 87.6149 171.475 88.3682L171.27 88.6256L168.861 88.852L166.576 94.2763L168.12 96.1496V96.4686C168.017 97.4609 168.017 98.4612 168.12 99.4535V99.7726L166.576 101.646L168.841 107.111L171.249 107.338L171.455 107.585C172.084 108.358 172.791 109.065 173.565 109.695L173.822 109.901L174.049 112.32L179.514 114.584L181.387 113.04H181.706C182.699 113.143 183.699 113.143 184.691 113.04L185.031 113.03Z" fill="#01818C"/>
<path d="M186.42 105.681C184.891 106.314 183.208 106.48 181.585 106.157C179.961 105.835 178.47 105.038 177.3 103.867C176.129 102.697 175.332 101.206 175.009 99.5823C174.687 97.9589 174.852 96.2762 175.486 94.7471C176.119 93.218 177.192 91.9111 178.569 90.9917C179.945 90.0723 181.563 89.5817 183.218 89.582C184.873 89.5823 186.491 90.0735 187.867 90.9933C189.243 91.9132 190.316 93.2205 190.949 94.7498C191.37 95.7648 191.587 96.8529 191.588 97.952C191.588 99.051 191.372 100.139 190.951 101.155C190.531 102.17 189.914 103.092 189.136 103.869C188.359 104.646 187.436 105.261 186.42 105.681Z" fill="#01818C"/>
<path d="M98.271 26.1276C98.0662 26.1276 97.8699 26.0463 97.7251 25.9015C97.5803 25.7568 97.499 25.5604 97.499 25.3557C97.5072 20.5428 99.4227 15.9294 102.826 12.5261C106.229 9.12291 110.843 7.20738 115.655 7.19922C115.86 7.19922 116.057 7.28055 116.201 7.42532C116.346 7.57009 116.427 7.76644 116.427 7.97118C116.422 12.7849 114.507 17.3999 111.104 20.8037C107.7 24.2075 103.085 26.1222 98.271 26.1276ZM114.863 8.76372C110.738 8.96578 106.836 10.6952 103.915 13.6155C100.995 16.5358 99.2656 20.4381 99.0635 24.5631C103.189 24.3633 107.093 22.6346 110.014 19.7139C112.934 16.7931 114.663 12.8895 114.863 8.76372Z" fill="#01818C"/>
<path d="M103.371 13.8483C103.27 13.8496 103.17 13.831 103.076 13.7933C102.982 13.7556 102.897 13.6997 102.825 13.6289C102.754 13.558 102.696 13.4736 102.658 13.3805C102.619 13.2874 102.599 13.1875 102.599 13.0866C102.613 8.94377 101.07 4.94682 98.2757 1.88809C95.4876 4.94576 93.9486 8.93841 93.963 13.0763C93.963 13.2811 93.8817 13.4774 93.7369 13.6222C93.5921 13.767 93.3958 13.8483 93.191 13.8483C92.9863 13.8483 92.7899 13.767 92.6452 13.6222C92.5004 13.4774 92.4191 13.2811 92.4191 13.0763C92.4105 10.6903 92.8755 8.32633 93.7872 6.12134C94.6989 3.91636 96.0391 1.91422 97.7301 0.23095C97.802 0.157816 97.8877 0.0997264 97.9822 0.0600736C98.0768 0.0204208 98.1783 0 98.2808 0C98.3833 0 98.4848 0.0204208 98.5794 0.0600736C98.6739 0.0997264 98.7596 0.157816 98.8315 0.23095C100.521 1.91525 101.86 3.91758 102.772 6.12233C103.684 8.32708 104.149 10.6906 104.143 13.0763C104.14 13.2802 104.058 13.475 103.913 13.6192C103.769 13.7634 103.574 13.8456 103.371 13.8483Z" fill="#01818C"/>
<path d="M98.2727 26.1276C93.4581 26.1249 88.8415 24.2111 85.4371 20.8067C82.0327 17.4023 80.1189 12.7857 80.1162 7.97118C80.1162 7.76644 80.1975 7.57009 80.3423 7.42532C80.4871 7.28055 80.6834 7.19922 80.8882 7.19922C85.6948 7.20463 90.3036 9.11363 93.7062 12.5086C97.1088 15.9035 99.0283 20.5079 99.0446 25.3145C99.0518 25.4196 99.037 25.5251 99.0012 25.6242C98.9655 25.7234 98.9096 25.814 98.8371 25.8905C98.7645 25.9669 98.6769 26.0274 98.5797 26.0682C98.4826 26.1091 98.378 26.1293 98.2727 26.1276ZM81.6807 8.76372C81.883 12.8904 83.6139 16.7941 86.5363 19.7146C89.4588 22.6352 93.3636 24.3635 97.4904 24.5631C97.2927 20.4349 95.5633 16.5286 92.6399 13.6071C89.7165 10.6856 85.8091 8.95872 81.6807 8.76372Z" fill="#01818C"/>
<path d="M17.1041 111.064H9.72417C8.84909 111.066 8.00195 110.756 7.33435 110.19C6.66676 109.624 6.2223 108.839 6.08053 107.976L5.92613 107.111C5.44158 104.329 4.2981 101.703 2.59127 99.4536C0.816004 97.0564 -0.0946607 94.1285 0.00778942 91.1473C0.147255 87.7397 1.5641 84.5095 3.97659 82.0989C6.38908 79.6883 9.62047 78.274 13.0282 78.1372C15.5308 78.0489 18.0081 78.6646 20.1782 79.9143C22.3482 81.1641 24.124 82.9978 25.3036 85.2068C26.4832 87.4158 27.0192 89.9115 26.8506 92.4101C26.6821 94.9087 25.8158 97.3098 24.3502 99.3403C22.6252 101.635 21.4555 104.299 20.933 107.122L20.7889 107.976C20.646 108.847 20.1956 109.637 19.5194 110.204C18.8432 110.77 17.9862 111.075 17.1041 111.064ZM13.409 79.6812H13.0693C10.0553 79.8027 7.19737 81.0538 5.06346 83.1858C2.92955 85.3178 1.67591 88.1746 1.5517 91.1885C1.46144 93.8259 2.26684 96.4162 3.8367 98.5375C5.68607 100.982 6.92468 103.834 7.44946 106.854L7.60386 107.719C7.68478 108.222 7.94282 108.68 8.33154 109.011C8.72026 109.341 9.21412 109.521 9.72417 109.52H17.1041C17.6136 109.519 18.1063 109.338 18.4946 109.008C18.8829 108.678 19.1415 108.221 19.2244 107.719L19.3685 106.864C19.9339 103.809 21.1947 100.925 23.0533 98.4346C24.3245 96.663 25.082 94.5749 25.2426 92.4004C25.4031 90.2258 24.9604 88.0491 23.9632 86.1101C22.966 84.171 21.4529 82.5447 19.5908 81.4104C17.7286 80.2761 15.5894 79.6777 13.409 79.6812Z" fill="#01818C"/>
<path d="M18.946 114.326C18.946 114.03 18.8292 113.747 18.6211 113.537C18.4129 113.326 18.1302 113.207 17.8344 113.204H8.99291C8.83725 113.189 8.68018 113.207 8.53178 113.256C8.38338 113.306 8.24691 113.386 8.13117 113.491C8.01542 113.596 7.92294 113.724 7.85965 113.867C7.79636 114.01 7.76367 114.165 7.76367 114.321C7.76367 114.478 7.79636 114.632 7.85965 114.775C7.92294 114.918 8.01542 115.046 8.13117 115.152C8.24691 115.257 8.38338 115.336 8.53178 115.386C8.68018 115.435 8.83725 115.453 8.99291 115.438H9.21935C9.0487 115.62 8.94996 115.858 8.94146 116.107V116.333C8.94146 116.606 9.0499 116.868 9.24293 117.061C9.43595 117.254 9.69776 117.363 9.97074 117.363H16.8978C17.1707 117.363 17.4325 117.254 17.6256 117.061C17.8186 116.868 17.927 116.606 17.927 116.333V116.107C17.9214 115.859 17.8263 115.621 17.6594 115.438H17.8859C18.1708 115.422 18.4391 115.298 18.636 115.092C18.833 114.885 18.9438 114.612 18.946 114.326Z" fill="#01818C"/>
<path d="M15.4088 110.672C15.3069 110.667 15.2111 110.622 15.1419 110.547C15.0727 110.472 15.0355 110.373 15.0383 110.271C15.2198 106.045 15.75 101.842 16.6234 97.7032H16.4278C15.9082 97.862 15.3553 97.8769 14.8279 97.7464C14.3005 97.6159 13.8183 97.3449 13.4326 96.9622C13.0694 97.3362 12.6109 97.6039 12.1066 97.7363C11.6023 97.8688 11.0714 97.8609 10.5712 97.7135C11.4411 101.835 11.9644 106.021 12.1357 110.23C12.1385 110.28 12.131 110.331 12.1138 110.379C12.0965 110.427 12.0699 110.471 12.0353 110.509C12.0008 110.546 11.9591 110.576 11.9127 110.597C11.8663 110.618 11.8161 110.63 11.7652 110.631C11.7137 110.637 11.6615 110.632 11.6121 110.616C11.5628 110.6 11.5176 110.573 11.4794 110.538C11.4413 110.503 11.4113 110.46 11.3913 110.412C11.3713 110.364 11.362 110.312 11.3638 110.26C11.1794 105.975 10.6354 101.712 9.73752 97.518C7.3393 96.7872 4.59113 94.7183 4.50879 93.1024C4.50879 92.6598 4.68378 91.8672 6.06301 91.5379C6.3761 91.4597 6.70318 91.4562 7.01786 91.5278C7.33253 91.5993 7.62598 91.7438 7.87453 91.9496C8.90381 92.7524 9.74782 94.6257 10.3551 96.8901L10.6536 96.9519C11.5388 97.1063 12.6607 97.0754 13.0724 96.0564C13.108 95.992 13.1602 95.9384 13.2235 95.9011C13.2869 95.8637 13.3591 95.844 13.4326 95.844C13.5062 95.844 13.5784 95.8637 13.6417 95.9011C13.7051 95.9384 13.7573 95.992 13.7929 96.0564C14.2046 97.0857 15.378 97.0857 16.294 96.9416C16.478 96.9103 16.6601 96.8691 16.8395 96.8181C17.4468 94.5948 18.2496 92.7009 19.3098 91.9496C19.5572 91.7453 19.8489 91.6018 20.1616 91.5303C20.4744 91.4588 20.7995 91.4614 21.111 91.5379C22.4697 91.8672 22.655 92.6289 22.6447 93.0612C22.6447 94.6257 19.8862 96.6431 17.4983 97.4356C16.5969 101.658 16.0461 105.947 15.8514 110.26C15.857 110.319 15.8491 110.377 15.8283 110.432C15.8076 110.487 15.7745 110.536 15.7317 110.575C15.6889 110.615 15.6375 110.645 15.5815 110.661C15.5256 110.678 15.4665 110.682 15.4088 110.672ZM6.54677 92.2892C6.44068 92.2786 6.33379 92.2786 6.2277 92.2892C5.19842 92.526 5.26017 92.9377 5.26017 93.0818C5.26017 94.1111 7.31872 95.8402 9.4802 96.6328C9.20715 95.09 8.49201 93.6598 7.42165 92.5157C7.16475 92.3418 6.85576 92.2618 6.54677 92.2892ZM20.5964 92.2892C20.2868 92.2955 19.9887 92.4082 19.7524 92.6083C18.6998 93.7081 17.9853 95.0871 17.6938 96.5813C19.845 95.7476 21.8109 94.0493 21.8109 93.0818C21.8109 92.7318 21.5022 92.4848 20.8743 92.3304C20.7829 92.3095 20.69 92.2957 20.5964 92.2892Z" fill="#01818C"/>
<path d="M178.311 70.4587C178.121 70.4584 177.935 70.3987 177.78 70.288C177.625 70.1774 177.508 70.0211 177.446 69.8411C173.287 58.0682 166.548 47.3745 157.722 38.5429C148.896 29.7113 138.206 22.9655 126.435 18.7993C126.206 18.7174 126.019 18.5477 125.915 18.3277C125.81 18.1076 125.798 17.8552 125.88 17.6259C125.962 17.3966 126.131 17.2092 126.351 17.105C126.571 17.0007 126.824 16.9882 127.053 17.0701C139.089 21.319 150.021 28.2085 159.048 37.2331C168.074 46.2576 174.965 57.1884 179.217 69.2236C179.259 69.337 179.278 69.4577 179.273 69.5786C179.268 69.6995 179.238 69.8182 179.187 69.9276C179.135 70.037 179.062 70.1349 178.971 70.2155C178.881 70.2961 178.776 70.3578 178.661 70.3969C178.55 70.4427 178.431 70.4638 178.311 70.4587Z" fill="#01818C"/>
<path d="M18.2481 70.4787C18.1422 70.4782 18.0373 70.4572 17.9393 70.417C17.8247 70.3777 17.719 70.3161 17.6284 70.2356C17.5377 70.1552 17.464 70.0576 17.4113 69.9485C17.3587 69.8393 17.3282 69.7209 17.3216 69.5999C17.3151 69.4789 17.3326 69.3578 17.3732 69.2436C21.623 57.2048 28.5152 46.2706 37.5436 37.2439C46.5721 28.2173 57.5076 21.3273 69.5473 17.0799C69.7766 16.998 70.029 17.0105 70.2491 17.1147C70.4691 17.219 70.6387 17.4064 70.7206 17.6357C70.8025 17.865 70.79 18.1174 70.6858 18.3375C70.5815 18.5575 70.3941 18.7271 70.1648 18.809C58.3836 22.9672 47.6831 29.711 38.8489 38.5452C30.0146 47.3794 23.2709 58.0799 19.1127 69.8612C19.0506 70.0412 18.934 70.1974 18.7791 70.3081C18.6241 70.4188 18.4385 70.4784 18.2481 70.4787Z" fill="#01818C"/>
<g clip-path="url(#clip0_0_46189)">
<path d="M73.4794 156.489C69.3497 160.94 66.5796 166.48 65.4963 172.455C64.8925 175.649 62.6703 182.388 62.8273 194.611C63.0809 214.46 63.9263 243.01 63.9263 243.01C90.8773 244.531 117.893 244.531 144.844 243.01C144.844 243.01 130.067 170.915 124.041 161.767L121.456 155.45L73.4794 156.489Z" fill="#263238"/>
<path d="M73.4767 156.489L74.3101 156.459L76.7799 156.387L86.2967 156.151L121.478 155.336H121.556L121.586 155.408L124.171 161.719C124.903 162.984 125.521 164.312 126.019 165.686L126.786 167.788C127.021 168.5 127.263 169.219 127.504 169.937C128.44 172.842 129.316 175.861 130.173 178.965C131.888 185.179 133.531 191.761 135.185 198.633C138.47 212.389 141.767 227.316 145.028 242.992L145.065 243.174H144.883C139.944 243.451 134.696 243.699 129.388 243.886C105.886 244.707 83.5854 244.285 63.9176 243.162H63.7908V243.029C63.5009 229.877 63.2352 217.745 62.9997 206.948C62.9393 204.251 62.881 201.634 62.8246 199.098C62.7763 196.574 62.6918 194.134 62.7461 191.779C62.8076 187.463 63.2339 183.161 64.0203 178.917C64.3826 176.996 64.8174 175.191 65.228 173.482L65.7714 171.006C65.9466 170.203 66.1881 169.448 66.3753 168.711C67.1654 166.253 68.2288 163.891 69.5456 161.67C70.3764 160.291 71.3111 158.977 72.3415 157.739C72.6956 157.315 73.0747 156.911 73.4767 156.532L73.1869 156.846C73.0057 157.051 72.7279 157.359 72.3777 157.782C71.364 159.029 70.4437 160.349 69.6241 161.731C68.3175 163.961 67.2662 166.331 66.49 168.796C66.2847 169.527 66.0492 170.281 65.8862 171.079C65.7231 171.876 65.5359 172.703 65.3548 173.554C64.9683 175.257 64.5335 177.057 64.1833 178.989C63.42 183.225 63.016 187.518 62.9756 191.821C62.9273 194.164 63.0178 196.604 63.0722 199.134C63.1265 201.664 63.193 204.273 63.2594 206.984C63.513 217.781 63.7908 229.931 64.0988 243.065L63.9659 242.926C83.6276 244.025 105.916 244.442 129.406 243.62C134.714 243.433 139.956 243.186 144.895 242.914L144.751 243.101C141.496 227.401 138.205 212.497 134.932 198.748C133.289 191.87 131.647 185.287 129.944 179.08C129.086 175.97 128.223 172.957 127.293 170.058C127.051 169.339 126.816 168.621 126.58 167.908C126.345 167.196 126.073 166.507 125.819 165.813C125.332 164.454 124.726 163.14 124.008 161.888C123.102 159.678 122.226 157.522 121.429 155.571L121.538 155.644L86.3631 156.272L76.8342 156.453L74.3523 156.489H73.4767Z" fill="#455A64"/>
<path d="M106.501 237.092C106.432 236.948 106.373 236.798 106.326 236.645L105.891 235.347C105.517 234.212 104.967 232.581 104.267 230.571C102.866 226.549 100.795 221.042 98.1982 215.088C95.6016 209.133 92.9566 203.874 90.9518 200.112C89.9555 198.234 89.1402 196.718 88.5364 195.679L87.8782 194.472C87.7954 194.336 87.7267 194.192 87.6729 194.043C87.7686 194.17 87.8554 194.303 87.9325 194.442C88.1137 194.737 88.3492 195.124 88.639 195.649C89.2429 196.67 90.1064 198.167 91.1269 200.039C93.1801 203.777 95.8491 209.031 98.4518 214.997C101.054 220.963 103.095 226.47 104.448 230.528C105.124 232.551 105.656 234.194 105.976 235.359C106.133 235.909 106.266 236.343 106.356 236.676C106.417 236.81 106.465 236.949 106.501 237.092Z" fill="#455A64"/>
<path d="M107.994 190.1C108.072 190.136 106.786 193.12 105.125 196.797C103.465 200.475 102.064 203.397 101.973 203.337C101.883 203.276 103.181 200.318 104.842 196.646C106.502 192.975 107.915 190.052 107.994 190.1Z" fill="#455A64"/>
<path d="M75.9464 48.7842C74.3525 50.3585 73.163 52.295 72.4796 54.4285C71.7961 56.562 71.6389 58.8291 72.0213 61.0365C72.4077 63.1742 73.2592 65.5655 72.0213 67.3529C70.7834 69.1404 68.0781 69.3577 66.9247 71.1693C65.566 73.301 67.1783 76.0968 66.8703 78.6089C66.6869 79.7815 66.0923 80.8507 65.1928 81.6251C64.2934 82.3995 63.1478 82.8287 61.9609 82.8359C64.9606 84.8008 68.4433 85.9018 72.0273 86.0183L74.3643 82.2804C73.4645 83.5968 73.9355 85.499 75.0587 86.6342C76.1819 87.7695 77.77 88.2828 79.328 88.6089C83.0726 89.3492 86.9376 89.2157 90.6222 88.2186C94.3067 87.2215 97.7116 85.3878 100.572 82.8601" fill="#263238"/>
<path d="M118.367 63.6031C117.66 62.0089 116.598 60.5838 116.054 58.9171C114.901 55.3483 116.253 51.0669 114.14 47.9631C112.642 45.7529 109.84 44.8894 107.22 44.3399C104.599 43.7904 101.785 43.4401 99.7257 41.7735C98.1979 40.5658 97.2136 38.7542 95.6859 37.5465C93.518 35.7953 90.5349 35.439 87.7511 35.5537C84.9673 35.6684 81.9782 36.2482 79.5507 37.7699C77.1232 39.2916 75.2452 41.8641 75.0761 44.7264C74.9976 46.1213 75.3176 47.5404 75.0217 48.9051C74.6956 50.4087 73.6691 51.6527 73.1075 53.0838C72.55 54.6134 72.5161 56.2847 73.0112 57.8356C73.5063 59.3865 74.5023 60.7291 75.843 61.6526L97.9745 84.8469C102.238 85.9701 111.984 83.0716 114.84 79.7141C117.697 76.3566 120.179 67.6308 118.367 63.6031Z" fill="#263238"/>
<path d="M76.0186 58.4094C76.23 52.6063 79.8833 45.3841 85.6804 45.8431L103.875 49.9191C104.724 49.9871 105.517 50.3708 106.097 50.9945C106.677 51.6183 107.002 52.4368 107.009 53.2887L108.343 95.7885C108.389 95.7619 108.441 95.7512 108.494 95.7581C108.546 95.765 108.594 95.7892 108.631 95.8266C108.667 95.8641 108.691 95.9128 108.697 95.965C108.702 96.0171 108.691 96.0698 108.663 96.1146C106.852 99.3935 98.3072 113.802 87.6309 110.782C85.2154 110.106 87.027 102.624 86.4836 99.9793L86.079 93.1134C85.9461 89.6049 85.9099 88.1617 85.9038 88.1919C85.8978 88.2221 78.4643 87.1593 76.6768 77.5337C75.7529 72.7451 75.7831 64.8587 76.0186 58.4094Z" fill="#FFBF9D"/>
<path d="M79.4121 66.6286C79.4121 66.7872 79.4433 66.9442 79.504 67.0908C79.5647 67.2373 79.6537 67.3704 79.7658 67.4826C79.878 67.5947 80.0111 67.6837 80.1577 67.7444C80.3042 67.8051 80.4612 67.8363 80.6198 67.8363C80.9372 67.8478 81.2463 67.7339 81.4802 67.5191C81.7142 67.3044 81.8542 67.0062 81.8698 66.689C81.8607 66.3716 81.7305 66.0696 81.506 65.8451C81.2814 65.6205 80.9795 65.4904 80.6621 65.4813C80.3447 65.4698 80.0356 65.5837 79.8017 65.7985C79.5677 66.0132 79.4278 66.3114 79.4121 66.6286Z" fill="#263238"/>
<path d="M91.5986 67.0329C91.5986 67.3532 91.7259 67.6604 91.9524 67.8869C92.1789 68.1134 92.486 68.2406 92.8064 68.2406C93.1237 68.2521 93.4328 68.1382 93.6668 67.9234C93.9007 67.7087 94.0407 67.4105 94.0564 67.0933C94.0564 66.773 93.9291 66.4658 93.7026 66.2393C93.4761 66.0128 93.1689 65.8856 92.8486 65.8856C92.5313 65.8741 92.2222 65.988 91.9882 66.2027C91.7543 66.4175 91.6143 66.7157 91.5986 67.0329Z" fill="#263238"/>
<path d="M77.3407 62.6372C77.4977 62.8486 78.5485 62.0032 80.0159 62.0334C81.4832 62.0636 82.4917 62.9814 82.6608 62.7822C82.7453 62.6916 82.5943 62.3172 82.1475 61.9005C81.5661 61.3829 80.8237 61.0821 80.046 61.0491C79.2682 61.0279 78.5075 61.28 77.8963 61.7616C77.4313 62.1783 77.2622 62.5467 77.3407 62.6372Z" fill="#263238"/>
<path d="M90.2713 62.8116C90.4646 62.9988 91.479 62.0688 93.0491 61.9722C94.6191 61.8756 95.7846 62.6364 95.9355 62.4251C96.014 62.3285 95.8148 61.9782 95.2954 61.622C94.6071 61.1724 93.7907 60.9604 92.9706 61.0181C92.1562 61.0713 91.3828 61.3942 90.7725 61.936C90.3196 62.3526 90.1807 62.727 90.2713 62.8116Z" fill="#263238"/>
<path d="M86.3619 72.3834C85.651 72.1867 84.9192 72.0752 84.182 72.0513C83.8438 72.0513 83.5177 71.9667 83.4513 71.7373C83.4151 71.3842 83.4867 71.0284 83.6566 70.7167L84.6107 68.0718C85.9151 64.346 86.845 61.2784 86.694 61.2301C86.5431 61.1818 85.3655 64.1588 84.0672 67.8726C83.7532 68.7904 83.4634 69.6841 83.1675 70.5054C82.967 70.9247 82.9179 71.4006 83.0286 71.852C83.0844 71.9742 83.1681 72.0816 83.273 72.1655C83.3779 72.2494 83.501 72.3075 83.6325 72.3351C83.8302 72.3817 84.0333 72.402 84.2363 72.3955C84.9427 72.4789 85.6566 72.4748 86.3619 72.3834Z" fill="#263238"/>
<path d="M85.873 88.1924C90.429 88.1344 94.8796 86.8133 98.7293 84.376C98.7293 84.376 95.6556 91.2419 85.9576 90.5958L85.873 88.1924Z" fill="#6F4439"/>
<path d="M90.8192 75.8316C90.6316 75.5239 90.3674 75.27 90.0523 75.0949C89.6799 74.9592 89.2714 74.9592 88.899 75.0949C88.3385 75.2419 87.8394 75.5633 87.4738 76.0128C87.2984 76.2408 87.1865 76.5112 87.1494 76.7965C87.1123 77.0818 87.1513 77.3719 87.2625 77.6372C87.4678 78.1746 88.3253 78.392 88.899 78.4343C89.48 78.4511 90.0492 78.2677 90.5113 77.915C90.7263 77.7931 90.9064 77.618 91.0343 77.4065C91.1623 77.1951 91.2338 76.9543 91.2419 76.7072C91.1856 76.3816 91.0392 76.0783 90.8192 75.8316Z" fill="#E8B671"/>
<path d="M90.3549 73.9954C90.1376 73.9954 90.1738 75.4326 88.96 76.4954C87.7463 77.5582 86.2004 77.4374 86.1943 77.6427C86.1943 77.7333 86.5446 77.9145 87.1967 77.9145C88.0465 77.9029 88.8652 77.593 89.5095 77.0389C90.1241 76.5047 90.5091 75.7542 90.5844 74.9435C90.6206 74.3396 90.4516 73.9833 90.3549 73.9954Z" fill="#263238"/>
<path d="M89.9847 59.2249C90.1236 59.5872 91.4521 59.3759 93.004 59.5268C94.5559 59.6778 95.8482 60.0643 96.0233 59.7322C96.1139 59.5751 95.8844 59.243 95.3651 58.9049C94.6778 58.4828 93.899 58.2322 93.0946 58.1742C92.2899 58.0999 91.4791 58.2157 90.7274 58.5123C90.1779 58.7599 89.9001 59.0558 89.9847 59.2249Z" fill="#263238"/>
<path d="M78.1579 57.2018C78.4357 57.4977 79.4743 57.1535 80.7364 57.1051C81.9984 57.0568 83.0733 57.2501 83.3149 56.924C83.4175 56.767 83.2424 56.4711 82.7654 56.1933C82.1135 55.865 81.3871 55.7129 80.6583 55.7521C79.9295 55.7913 79.2237 56.0204 78.6108 56.4167C78.176 56.7066 78.0371 57.0266 78.1579 57.2018Z" fill="#263238"/>
<path d="M107.867 50.8978C106.841 49.6297 105.18 49.0862 103.604 48.6635C96.796 46.8155 89.7923 45.7837 82.7406 45.5898C82.022 47.1055 83.0244 48.9654 84.4375 49.8712C85.8505 50.777 87.5715 51.0065 89.1959 51.4292C90.8203 51.8519 92.5171 52.5886 93.3203 54.062C94.1717 55.626 93.7973 57.6248 94.5703 59.2371C95.9048 62.0028 100.005 62.51 101.327 65.2757C102.324 67.3772 101.327 69.8228 101.225 72.1416C101.183 73.3199 101.393 74.4936 101.84 75.5845C102.287 76.6754 102.962 77.6585 103.819 78.4682C104.676 79.2778 105.696 79.8955 106.81 80.2801C107.925 80.6646 109.109 80.8072 110.283 80.6984C109.904 72.4094 109.526 64.1163 109.147 55.8193C109.081 54.0983 108.954 52.2444 107.867 50.8978Z" fill="#263238"/>
<path d="M126.637 70.0037C125.212 68.9711 123.479 68.1317 122.784 66.5134C121.776 64.1643 123.436 61.0786 121.945 59.0194C120.592 57.1173 117.223 57.5702 115.942 55.6137C114.94 54.0919 115.749 52.5642 115.29 51.1813C114.831 49.7985 112.688 48.7659 111.262 49.0859L101.697 66.5979C101.22 72.1776 100.49 75.2029 101.975 78.2826C102.802 79.9734 103.817 81.5978 104.264 83.4275C104.711 85.2572 104.451 87.4009 103.056 88.657C109.843 88.4879 115.785 84.3092 121.262 80.2995L127.059 76.0725C127.698 75.6795 128.23 75.1337 128.605 74.4843C129.348 72.8479 128.032 71.0363 126.637 70.0037Z" fill="#263238"/>
<path d="M121.247 78.6032C121.023 78.7009 120.788 78.7718 120.547 78.8146C119.852 78.9577 119.137 78.9822 118.433 78.8871C117.312 78.7359 116.249 78.2969 115.348 77.6129C114.152 76.6819 113.324 75.3578 113.011 73.875C112.824 73.0189 112.809 72.1341 112.968 71.2724C113.179 70.3543 113.512 69.4688 113.959 68.6395C114.432 67.7851 114.776 66.8653 114.979 65.9101C115.086 65.4216 115.083 64.9154 114.969 64.4285C114.855 63.9416 114.634 63.4863 114.321 63.0961C113.627 62.3412 112.467 62.2567 111.368 61.9427C110.774 61.7959 110.236 61.4766 109.822 61.0248C109.434 60.5339 109.209 59.9347 109.176 59.3099C109.061 58.1021 109.472 56.8944 109.581 55.7229C109.653 55.1438 109.595 54.5559 109.412 54.0019C109.204 53.4617 108.81 53.0139 108.301 52.7398C107.256 52.136 106.006 52.136 104.798 52.1843C103.57 52.2666 102.34 52.0382 101.223 51.52C100.148 51.0011 99.2348 50.197 98.5845 49.1952C98.0214 48.2175 97.6139 47.1581 97.3768 46.0551C97.1552 45.04 96.8294 44.0504 96.4045 43.1022C95.9672 42.24 95.3493 41.4821 94.5929 40.88C93.3284 39.8815 91.7788 39.3116 90.1686 39.253C88.5585 39.1944 86.9715 39.65 85.6377 40.5539C84.7146 41.1515 83.9066 41.9104 83.2524 42.7942C82.7027 43.5593 82.2446 44.3862 81.8877 45.258C81.8915 45.1957 81.9058 45.1344 81.93 45.0768C81.9722 44.9561 82.0205 44.781 82.1172 44.5575C82.369 43.9039 82.6995 43.2834 83.1015 42.7097C83.7579 41.7904 84.5764 40.9985 85.5169 40.3728C86.7552 39.5191 88.2108 39.0353 89.7137 38.9778C91.5447 38.9345 93.3358 39.516 94.7922 40.6264C95.601 41.2498 96.2628 42.0435 96.7306 42.9513C97.1749 43.9195 97.5169 44.9314 97.7511 45.9706C97.9814 47.0321 98.3767 48.0509 98.9226 48.9899C99.5409 49.9292 100.403 50.6827 101.417 51.1698C102.483 51.6554 103.654 51.8631 104.822 51.7737C106.03 51.7737 107.347 51.7193 108.518 52.3775C109.108 52.6972 109.565 53.2178 109.804 53.8449C110.012 54.4541 110.076 55.103 109.991 55.741C109.871 56.9488 109.478 58.1565 109.587 59.2555C109.609 59.8016 109.802 60.3271 110.136 60.7591C110.503 61.155 110.977 61.4343 111.501 61.5623C112.026 61.7193 112.582 61.8099 113.125 61.9789C113.689 62.1217 114.203 62.4162 114.611 62.8304C114.959 63.2618 115.205 63.7658 115.331 64.3051C115.458 64.8445 115.461 65.4054 115.342 65.9463C115.129 66.9346 114.768 67.8852 114.273 68.7663C113.836 69.5695 113.505 70.4261 113.288 71.3146C113.125 72.1359 113.125 72.9813 113.288 73.8025C113.571 75.23 114.347 76.5126 115.481 77.4257C116.344 78.107 117.37 78.5522 118.458 78.718C119.386 78.8587 120.333 78.8197 121.247 78.6032Z" fill="#455A64"/>
<path d="M129.025 66.0732C129.157 66.2256 129.254 66.4049 129.309 66.5986C129.477 67.162 129.434 67.7674 129.188 68.3014C129.021 68.6917 128.757 69.0327 128.421 69.2918C128.016 69.5984 127.533 69.7846 127.026 69.8292C126.408 69.8811 125.788 69.7621 125.233 69.4852C124.678 69.2083 124.21 68.7842 123.88 68.2592C123.499 67.6559 123.265 66.9711 123.198 66.2604C123.138 65.4931 123.219 64.7214 123.439 63.9838C123.82 62.4742 124.647 60.9645 124.49 59.2496C124.48 58.8274 124.385 58.4117 124.209 58.0276C124.034 57.6435 123.782 57.2991 123.47 57.0153C122.726 56.5239 121.821 56.3399 120.945 56.502C119.971 56.6802 118.973 56.6802 117.999 56.502C117.482 56.3528 117.025 56.0442 116.694 55.6203C116.376 55.1945 116.155 54.7038 116.048 54.1832C115.9 53.1835 115.877 52.1691 115.982 51.1639C116.029 50.2252 115.879 49.2871 115.541 48.4102C114.879 46.7406 113.604 45.3864 111.978 44.624C110.432 43.8934 108.735 43.9719 107.202 44.0202C105.755 44.1734 104.294 44.096 102.872 43.7907C100.818 43.2575 99.0162 42.0201 97.7813 40.2943C97.322 39.6759 96.9764 38.9807 96.7607 38.2412C97.0806 38.93 97.4648 39.5871 97.9081 40.2038C99.1531 41.8595 100.925 43.0416 102.932 43.5552C104.324 43.8315 105.75 43.8906 107.159 43.7303C108.693 43.6518 110.45 43.5492 112.105 44.3342C113.824 45.1258 115.174 46.5485 115.873 48.3076C116.237 49.2329 116.4 50.2251 116.35 51.2182C116.249 52.1912 116.269 53.1729 116.41 54.1409C116.475 54.6004 116.666 55.033 116.961 55.3911C117.256 55.7491 117.644 56.0186 118.083 56.1699C119.01 56.3299 119.958 56.3299 120.885 56.1699C121.86 55.9945 122.865 56.2116 123.681 56.7737C124.032 57.0903 124.315 57.4754 124.513 57.9053C124.71 58.3352 124.817 58.8008 124.828 59.2737C124.878 60.1462 124.757 61.02 124.472 61.8462C124.224 62.6433 123.935 63.386 123.729 64.1227C123.514 64.822 123.428 65.5545 123.476 66.2845C123.53 66.9487 123.736 67.5914 124.079 68.1626C124.379 68.6523 124.807 69.0508 125.317 69.3148C125.827 69.5788 126.399 69.6982 126.972 69.6601C127.441 69.6306 127.892 69.4717 128.276 69.2012C128.591 68.9606 128.844 68.6479 129.013 68.2894C129.257 67.7889 129.321 67.2193 129.194 66.6771C129.15 66.4725 129.094 66.2709 129.025 66.0732Z" fill="#263238"/>
<path d="M58.499 77.4438C58.3695 78.0361 58.4418 78.6546 58.7043 79.2011C58.8514 79.5148 59.0664 79.7918 59.3338 80.0122C59.6012 80.2325 59.9142 80.3907 60.2502 80.4752C60.6995 80.5602 61.1635 80.5182 61.5902 80.354C62.017 80.1897 62.3894 79.9096 62.6656 79.5453C62.9774 79.1196 63.1311 78.5986 63.1004 78.0718C63.0572 77.4907 62.9099 76.9221 62.6656 76.3931C62.1886 75.2941 61.3311 74.1286 61.2888 72.631C61.2603 71.8707 61.3918 71.1129 61.6748 70.4065C61.9577 69.7002 62.3858 69.0612 62.9313 68.5308C63.5046 67.9691 64.1786 67.5205 64.918 67.2084C65.6744 66.9021 66.4686 66.6989 67.2791 66.6045C68.0597 66.514 68.83 66.3502 69.5799 66.1154C70.2834 65.8945 70.8851 65.4298 71.2767 64.805C71.6159 64.1741 71.7708 63.4606 71.7236 62.7458C71.6878 62.0452 71.5578 61.3526 71.3371 60.6867C70.9204 59.3702 70.383 58.1021 70.3226 56.8099C70.2652 55.6178 70.566 54.4359 71.1861 53.4162C71.7156 52.6021 72.3961 51.8969 73.1909 51.3389C73.766 50.9145 74.3089 50.4482 74.8153 49.944C75.2336 49.5012 75.56 48.9799 75.7755 48.4102C75.7755 48.4102 75.7755 48.4524 75.7755 48.5309C75.7519 48.6486 75.7176 48.7638 75.6728 48.8751C75.5071 49.3077 75.2612 49.7052 74.9482 50.0466C74.454 50.575 73.9189 51.0636 73.3479 51.508C72.5915 52.0679 71.9464 52.7642 71.4458 53.5611C70.8751 54.5383 70.6042 55.6618 70.6668 56.7918C70.7332 57.9995 71.2707 59.2072 71.6994 60.578C71.9392 61.2733 72.0795 61.9991 72.1161 62.7338C72.1714 63.5197 72.0017 64.3052 71.627 64.9982C71.1912 65.7027 70.5191 66.2293 69.7308 66.4837C68.9573 66.7265 68.1628 66.8963 67.3576 66.991C66.5797 67.0828 65.8167 67.2735 65.0871 67.5586C64.3958 67.8423 63.7631 68.2518 63.2212 68.7663C62.7114 69.2596 62.3102 69.8538 62.0429 70.5109C61.7757 71.1681 61.6485 71.8737 61.6693 72.5827C61.6693 73.9535 62.4905 75.0706 62.9796 76.2059C63.2407 76.7762 63.3903 77.3911 63.4205 78.0175C63.4459 78.6099 63.2644 79.1928 62.9072 79.666C62.597 80.0623 62.1819 80.3635 61.7089 80.5354C61.236 80.7073 60.7243 80.7429 60.2321 80.6383C59.8698 80.5408 59.5343 80.3625 59.2509 80.1167C58.9674 79.8709 58.7434 79.564 58.5956 79.2192C58.4023 78.792 58.3313 78.3196 58.3903 77.8544C58.4068 77.7131 58.4434 77.5748 58.499 77.4438Z" fill="#263238"/>
<path d="M122.493 95.2941L108.405 92.4922C108.405 92.4922 102.626 100.868 93.622 100.143C88.3684 99.7204 86.1462 94.7084 86.1462 94.7084L71.3093 98.8871L71.098 128.911L74.4917 145.215L65.4941 172.389C65.4941 172.389 89.6124 187.727 128.706 171.924L121.877 155.451L123.731 145.692C123.731 145.692 126.206 127.269 125.228 121.538C124.25 115.807 122.462 109.044 122.462 109.044L122.493 95.2941Z" fill="#01818C"/>
<path d="M83.3438 142.8C83.6315 143.068 83.9473 143.305 84.2858 143.506C84.8896 143.935 85.8317 144.521 87.0031 145.197C93.1381 148.716 99.89 151.028 106.894 152.009C108.235 152.184 109.31 152.293 110.083 152.329C110.474 152.368 110.869 152.368 111.26 152.329C110.881 152.228 110.492 152.164 110.101 152.135C109.352 152.045 108.289 151.894 106.943 151.677C103.486 151.101 100.082 150.249 96.7616 149.128C93.4458 147.982 90.2287 146.569 87.142 144.901C85.9343 144.261 85.0104 143.724 84.3582 143.337C84.0379 143.126 83.6982 142.946 83.3438 142.8Z" fill="#263238"/>
<g opacity="0.3">
<path d="M70.8047 156.416C71.8518 156.612 72.9325 156.519 73.9305 156.147C74.9286 155.774 75.8062 155.137 76.4689 154.303C77.6766 152.678 78.2262 150.68 78.7334 148.699C79.9049 144.202 81.0724 139.701 82.2358 135.197C89.0161 131.417 96.8999 130.112 104.536 131.507C105.703 131.654 106.821 132.068 107.803 132.715C109.096 133.699 109.711 135.317 110.255 136.845C111.571 140.571 112.839 144.375 115.116 147.6C117.393 150.825 118.323 153.204 122.266 153.409L125.563 137.54L114.367 123.506L86.173 124.484L75.9073 131.169L72.411 151.404L70.8047 156.416Z" fill="black"/>
</g>
<path d="M120.849 95.245C120.849 95.245 127.395 94.5204 131.809 102.401C135.052 108.186 139.134 119.78 139.134 119.78L123.597 124.098L120.239 108.929L120.849 95.245Z" fill="#01818C"/>
<path d="M71.3091 98.917C71.3091 98.917 66.5326 99.7866 63.8454 103.796C61.1582 107.806 56.4541 121.912 56.4541 121.912L72.7584 123.681L74.2741 107.498L71.3091 98.917Z" fill="#01818C"/>
<path d="M125.161 111.043C124.959 111.681 124.829 112.339 124.774 113.006C124.557 114.394 124.309 116.025 124.037 117.758C123.766 119.491 123.482 121.121 123.252 122.51C123.101 123.162 123.018 123.828 123.005 124.497C123.268 123.879 123.456 123.233 123.566 122.571C123.844 121.363 124.17 119.696 124.484 117.83C124.798 115.964 124.98 114.274 125.088 113.042C125.187 112.38 125.212 111.71 125.161 111.043Z" fill="#263238"/>
<path d="M72.0646 111.157C71.9439 111.157 71.6842 114.599 71.497 118.862C71.3098 123.126 71.2494 126.58 71.3702 126.58C71.491 126.58 71.7506 123.138 71.974 118.881C72.1975 114.623 72.1914 111.163 72.0646 111.157Z" fill="#263238"/>
<path d="M101.356 95.8492L104.29 119.11C104.33 119.497 104.217 119.883 103.975 120.188C103.734 120.492 103.383 120.691 102.998 120.74L88.1009 122.872C87.7131 122.936 87.3158 122.845 86.9942 122.619C86.6725 122.393 86.452 122.051 86.3799 121.664L82.4608 97.3951C82.4311 97.1916 82.4443 96.9841 82.4996 96.786C82.5549 96.5879 82.651 96.4036 82.7818 96.2449C82.9127 96.0862 83.0753 95.9567 83.2592 95.8646C83.4431 95.7725 83.6442 95.72 83.8497 95.7104L99.7373 94.5751C100.119 94.5416 100.498 94.6548 100.799 94.8916C101.1 95.1283 101.299 95.4708 101.356 95.8492Z" fill="#263238"/>
<path d="M95.0286 108.566C95.4332 108.566 104.352 109.744 104.352 109.744L117.16 115.595L123.591 124.049L117.764 135.595L113.966 126C112.14 126.679 110.207 127.025 108.259 127.02C105.548 126.882 96.967 126.598 96.967 126.598L92.4622 124.424C92.4622 124.424 90.9526 122.256 90.9284 121.634C90.9163 121.452 90.954 121.27 91.0377 121.108C91.1213 120.946 91.2475 120.81 91.4028 120.714C91.5582 120.618 91.7367 120.567 91.9191 120.565C92.1015 120.563 92.2809 120.611 92.4381 120.704C93.3559 121.163 99.5395 121.036 101.055 120.354C101.055 120.354 92.0274 120.094 90.7895 118.723C89.5516 117.353 89.9199 116.217 91.333 116.157C92.746 116.097 97.9272 116.64 99.461 116.453C100.995 116.266 102.933 116.187 103.289 115.426C103.646 114.665 102.462 114.098 102.462 114.098L100.741 112.926C100.741 112.926 94.1289 112.075 93.6881 110.728C93.6005 110.498 93.5672 110.251 93.5907 110.006C93.6143 109.761 93.694 109.525 93.8237 109.316C93.9534 109.107 94.1296 108.93 94.3386 108.8C94.5475 108.67 94.7837 108.59 95.0286 108.566Z" fill="#FFBF9D"/>
<path d="M92.0026 108.253C92.0026 108.253 84.551 109.739 84.0679 110.21C83.5848 110.681 74.5873 122.245 74.5873 122.245L72.3711 124.449L78.6211 131.943L79.7925 131.194L88.0836 126.429C88.938 126.027 89.83 125.709 90.7466 125.481C90.7466 125.481 99.249 123.839 99.7623 122.824C100.276 121.81 99.9495 121.617 99.3094 121.472C98.6693 121.327 93.5727 122.112 92.4435 122.359C91.3151 122.513 90.1748 122.559 89.0377 122.498C89.0377 122.498 92.5582 121.556 93.3493 121.254C94.1403 120.952 102.027 118.917 101.846 117.553C101.664 116.188 100.638 115.741 95.7224 117.22C93.0155 118.088 90.217 118.64 87.3831 118.863L98.2526 114.72C98.2526 114.72 102.637 113.168 101.157 112.003C99.6777 110.838 90.2877 113.742 90.2877 113.742L86.1512 115.439L87.2382 112.951C87.2382 112.951 93.1439 111.007 93.8806 110.397C94.7985 109.648 94.9012 108.984 94.1645 108.428C93.4277 107.873 92.0026 108.253 92.0026 108.253Z" fill="#FFBF9D"/>
<path d="M57.8551 122.075L71.1401 123.537V126.556L73.0845 123.736L78.6099 131.948C78.6099 131.948 76.9794 137.77 76.1038 141.006C73.785 149.593 69.8116 159.255 64.4554 159.007C58.0242 158.687 54.6607 152.141 54.5822 147.407C54.5098 143.102 57.8551 122.075 57.8551 122.075Z" fill="#FFBF9D"/>
<path d="M138.218 120.004L127.022 123.21L123.598 124.068L120.277 119.653L115.543 129.526C115.543 129.526 117.62 135.203 118.743 138.343C121.763 146.743 126.461 156.096 131.781 155.408C138.164 154.587 142.56 147.093 142.27 142.365C142.004 138.071 138.218 120.004 138.218 120.004Z" fill="#FFBF9D"/>
<path d="M74.582 122.208C74.582 122.208 74.6545 122.093 74.8236 121.876L75.5542 120.909C76.2185 120.058 77.1786 118.814 78.4045 117.226L82.9395 111.441L83.6218 110.589L83.9781 110.149C84.1448 110.023 84.3331 109.929 84.5337 109.871C85.2825 109.623 86.0614 109.436 86.8706 109.267C88.4829 108.88 90.1919 108.518 91.9914 108.156C92.4461 108.037 92.9178 107.996 93.3863 108.035C93.6325 108.059 93.8722 108.128 94.0928 108.24C94.3109 108.365 94.4969 108.539 94.6363 108.748C94.7086 108.858 94.7558 108.982 94.7745 109.113C94.7933 109.243 94.7832 109.376 94.745 109.502C94.6603 109.741 94.5266 109.959 94.3525 110.142C94.1758 110.334 93.9724 110.498 93.7486 110.632C93.5312 110.752 93.3017 110.855 93.0783 110.958C91.2667 111.731 89.2861 112.395 87.2571 113.077L87.3416 113.005L86.2486 115.493L86.0675 115.318L90.2039 113.621C91.9853 113.083 93.8271 112.588 95.7293 112.177C96.6921 111.96 97.6656 111.792 98.6459 111.676C99.149 111.62 99.6556 111.599 100.162 111.616C100.428 111.626 100.69 111.677 100.941 111.767C101.079 111.818 101.205 111.898 101.309 112.002C101.413 112.106 101.494 112.232 101.544 112.371C101.579 112.514 101.576 112.664 101.536 112.805C101.496 112.947 101.42 113.076 101.315 113.18C101.136 113.377 100.933 113.552 100.711 113.699C100.282 113.984 99.8293 114.233 99.3585 114.442C98.4164 114.871 97.4382 115.197 96.472 115.577L90.5904 117.812L87.3899 119.019L87.3296 118.735C89.9514 118.519 92.5438 118.031 95.065 117.28C96.2913 116.895 97.537 116.575 98.7969 116.32C99.432 116.185 100.085 116.158 100.729 116.241C101.073 116.288 101.388 116.458 101.617 116.719C101.817 116.984 101.933 117.304 101.949 117.636C101.939 117.822 101.86 117.997 101.726 118.126C101.615 118.245 101.491 118.352 101.357 118.446C101.101 118.622 100.833 118.779 100.554 118.917C100.005 119.194 99.443 119.418 98.8814 119.635C97.7522 120.058 96.623 120.42 95.5058 120.758L93.8452 121.254C93.3078 121.411 92.7643 121.616 92.2208 121.761C91.1399 122.075 90.0711 122.365 89.0204 122.642V122.395C90.2595 122.484 91.5049 122.419 92.7281 122.202C93.9358 121.984 95.1435 121.809 96.2848 121.652C96.8887 121.58 97.4382 121.507 98.0058 121.453C98.2896 121.423 98.5735 121.398 98.8573 121.386C99.0079 121.372 99.1596 121.372 99.3102 121.386C99.4554 121.413 99.5971 121.455 99.7329 121.513C99.8093 121.544 99.8787 121.589 99.9368 121.647C99.995 121.706 100.041 121.775 100.071 121.851C100.113 121.999 100.113 122.156 100.071 122.304C100.037 122.439 99.991 122.571 99.9321 122.697L99.8476 122.878C99.8096 122.946 99.7606 123.007 99.7027 123.059C99.2562 123.369 98.7628 123.606 98.2413 123.76C96.3824 124.341 94.4936 124.823 92.5831 125.203L91.2848 125.468C90.8762 125.541 90.4728 125.639 90.0771 125.764C89.3209 125.954 88.5922 126.24 87.9093 126.616L81.9069 130.01L80.3248 130.873L79.9202 131.096L79.7752 131.169C79.8153 131.133 79.86 131.102 79.9081 131.078L80.3066 130.837L81.8767 129.919C83.2595 129.116 85.2764 127.944 87.8428 126.465C89.1472 125.698 90.8138 125.36 92.5711 125.004C94.469 124.611 96.3455 124.122 98.193 123.536C98.6834 123.39 99.1479 123.168 99.5698 122.878C99.6098 122.845 99.6427 122.803 99.6664 122.757L99.7449 122.582C99.7962 122.469 99.8386 122.352 99.8717 122.232C99.8936 122.182 99.9053 122.128 99.9062 122.074C99.9071 122.019 99.8971 121.965 99.8769 121.915C99.8567 121.864 99.8266 121.818 99.7884 121.779C99.7502 121.74 99.7046 121.709 99.6544 121.688C99.535 121.641 99.4117 121.605 99.286 121.58C99.1652 121.58 99.0324 121.58 98.8935 121.58L98.0541 121.652C97.4925 121.706 96.9189 121.779 96.3452 121.857C95.1918 122.014 94.0022 122.196 92.8005 122.413C91.5561 122.639 90.2881 122.708 89.0264 122.618C89.0092 122.618 88.9922 122.615 88.9764 122.608C88.9606 122.601 88.9464 122.591 88.9345 122.579C88.9227 122.567 88.9135 122.552 88.9075 122.536C88.9014 122.52 88.8988 122.503 88.8996 122.485C88.9011 122.458 88.9112 122.431 88.9285 122.41C88.9458 122.388 88.9695 122.372 88.9962 122.365C90.0469 122.087 91.1117 121.791 92.1906 121.477C92.7341 121.332 93.2534 121.133 93.809 120.964L95.4696 120.469C96.5807 120.13 97.7039 119.768 98.821 119.345C99.3766 119.134 99.9321 118.905 100.47 118.639C100.735 118.508 100.989 118.357 101.23 118.186C101.454 118.023 101.707 117.805 101.701 117.582C101.688 117.314 101.595 117.055 101.436 116.839C101.251 116.634 100.998 116.503 100.723 116.471C100.119 116.396 99.5069 116.423 98.9116 116.549C97.6612 116.802 96.4255 117.123 95.2099 117.51C92.6652 118.268 90.0485 118.76 87.402 118.977C87.3822 118.979 87.3622 118.976 87.3433 118.97C87.3243 118.964 87.3068 118.954 87.2916 118.941C87.2764 118.929 87.264 118.913 87.255 118.895C87.2459 118.877 87.2405 118.858 87.239 118.838C87.2372 118.807 87.2457 118.776 87.2631 118.749C87.2805 118.723 87.3059 118.704 87.3356 118.693L90.53 117.485L96.4177 115.251C97.3838 114.871 98.3681 114.545 99.28 114.134C99.7364 113.93 100.175 113.687 100.59 113.409C100.785 113.278 100.963 113.124 101.122 112.95C101.194 112.881 101.247 112.796 101.278 112.701C101.308 112.606 101.315 112.505 101.297 112.407C101.158 112.033 100.651 111.9 100.174 111.882C99.6857 111.863 99.1971 111.883 98.7123 111.942C97.7424 112.055 96.779 112.219 95.8259 112.431C93.9358 112.836 92.1001 113.331 90.3307 113.856L86.1883 115.541C86.1553 115.556 86.118 115.557 86.0843 115.544C86.0505 115.532 86.0228 115.507 86.0071 115.475C85.9998 115.457 85.996 115.439 85.996 115.42C85.996 115.402 85.9998 115.383 86.0071 115.366L87.1001 112.884C87.1087 112.867 87.1206 112.852 87.1351 112.839C87.1496 112.827 87.1664 112.817 87.1846 112.812C89.2076 112.135 91.1701 111.477 92.9817 110.716C93.2042 110.622 93.4218 110.518 93.6339 110.402C93.8258 110.281 94.0004 110.135 94.1532 109.967C94.4672 109.641 94.6604 109.2 94.4128 108.856C94.2942 108.679 94.1358 108.532 93.9502 108.427C93.7645 108.322 93.5569 108.263 93.344 108.252C92.9082 108.215 92.4693 108.252 92.0457 108.361C90.2341 108.717 88.5373 109.074 86.931 109.442C86.1279 109.635 85.3428 109.822 84.6122 110.046C84.4423 110.095 84.2813 110.17 84.1351 110.269L83.7849 110.698L83.0965 111.543C81.3211 113.784 79.7813 115.71 78.5252 117.298C77.2692 118.886 76.297 120.1 75.6207 120.921L74.8598 121.869C74.6786 122.105 74.582 122.208 74.582 122.208Z" fill="#6F4439"/>
<path d="M72.7142 124.273C72.8048 124.339 69.091 129.182 64.4171 135.094C59.7432 141.006 55.8725 145.74 55.7819 145.668C55.6913 145.595 59.4051 140.758 64.085 134.852C68.7649 128.947 72.6236 124.23 72.7142 124.273Z" fill="#6F4439"/>
<path d="M134.962 138.893C134.896 138.893 134.413 137.878 133.428 136.308C132.114 134.272 130.665 132.325 129.093 130.481C127.281 128.301 125.518 126.387 124.31 124.956C123.706 124.243 123.229 123.651 122.909 123.235C122.728 123.033 122.576 122.808 122.456 122.564C122.681 122.741 122.884 122.943 123.06 123.168L124.551 124.805C125.814 126.194 127.571 128.078 129.425 130.27C131.016 132.119 132.446 134.101 133.7 136.194C134.057 136.818 134.382 137.461 134.672 138.12C134.801 138.364 134.899 138.624 134.962 138.893Z" fill="#6F4439"/>
</g>
<defs>
<clipPath id="clip0_0_46189">
<rect width="92.3908" height="170.289" fill="white" transform="translate(54.5811 34.9307)"/>
</clipPath>
</defs>
</svg>
