<svg width="186" height="174" viewBox="0 0 186 174" fill="none" xmlns="http://www.w3.org/2000/svg">
<g id="Group 163007">
<path id="Vector" d="M172.31 34.573C171.66 33.4918 170.984 32.4316 170.281 31.3923C160.88 17.5808 145.212 8.12498 130.022 3.84364C123.394 1.99429 116.569 0.942307 109.692 0.70999C64.9008 -0.896003 48.4492 36.034 34.0187 45.5525C19.5883 55.0709 -2.55877 71.3385 0.241931 105.503C2.34931 131.481 17.1284 156.319 44.113 167.62C47.1614 168.899 50.2899 169.979 53.4787 170.851C59.9375 172.604 66.5729 173.625 73.2598 173.895C93.6638 174.804 110.233 169.884 126.438 157.498C130.206 154.619 133.955 151.372 138.843 151.015C142.396 150.757 145.765 152.034 142.051 155.469C137.684 159.504 142.721 167.443 153.802 161.928C172.31 152.715 179.925 132.84 183.513 112.632C187.9 87.8254 185.766 56.9942 172.31 34.573Z" fill="#A4DEDF"/>
</g>
</svg>
