<svg width="38" height="38" viewBox="0 0 38 38" fill="none" xmlns="http://www.w3.org/2000/svg">
<path d="M6.12473 32.6673C5.91479 32.6673 5.71346 32.5839 5.56503 32.4354C2.0018 28.8722 0 24.0394 0 19.0002C0 13.961 2.0018 9.12826 5.56503 5.56503C9.12826 2.0018 13.961 0 19.0002 0C24.0394 0 28.8722 2.0018 32.4354 5.56503C32.5838 5.71349 32.6672 5.91481 32.6672 6.12473C32.6672 6.33465 32.5838 6.53598 32.4354 6.68443L6.68443 32.4354C6.536 32.5839 6.33468 32.6673 6.12473 32.6673ZM19.0002 1.5838C15.6228 1.58359 12.3182 2.56537 9.48881 4.40961C6.6594 6.25385 4.42725 8.88097 3.06416 11.9711C1.70107 15.0612 1.26585 18.481 1.8115 21.814C2.35715 25.147 3.86012 28.2495 6.1374 30.7436L30.7436 6.1374C27.5408 3.19719 23.3479 1.57137 19.0002 1.5838Z" fill="#DF7550"/>
<path d="M19.0014 37.9999C16.5053 38.0068 14.0327 37.5185 11.7265 36.5633C9.42037 35.6082 7.32656 34.2051 5.56626 32.4354C5.41785 32.2869 5.33447 32.0856 5.33447 31.8757C5.33447 31.6658 5.41785 31.4644 5.56626 31.316L31.3172 5.56504C31.4657 5.41663 31.667 5.33325 31.8769 5.33325C32.0868 5.33325 32.2882 5.41663 32.4366 5.56504C35.0939 8.2222 36.9036 11.6077 37.6367 15.2934C38.3699 18.979 37.9936 22.7994 36.5555 26.2712C35.1174 29.743 32.6821 32.7104 29.5575 34.7981C26.4329 36.8858 22.7593 38.0001 19.0014 37.9999ZM7.25803 31.863C10.5673 34.8906 14.9169 36.5247 19.401 36.4251C23.8851 36.3255 28.1579 34.4998 31.3295 31.3282C34.501 28.1567 36.3267 23.8839 36.4263 19.3998C36.5259 14.9157 34.8918 10.566 31.8642 7.2568L7.25803 31.863Z" fill="#DF7550"/>
<path d="M25.3329 33.2501H12.6665C12.0366 33.2501 11.4325 32.9999 10.9871 32.5545C10.5417 32.1091 10.2915 31.505 10.2915 30.8751V29.2918H11.8748V30.8751C11.8748 31.0851 11.9582 31.2864 12.1067 31.4349C12.2551 31.5834 12.4565 31.6668 12.6665 31.6668H25.3329C25.5429 31.6668 25.7443 31.5834 25.8927 31.4349C26.0412 31.2864 26.1246 31.0851 26.1246 30.8751V14.2504H27.7079V30.8751C27.7079 31.505 27.4577 32.1091 27.0123 32.5545C26.5669 32.9999 25.9628 33.2501 25.3329 33.2501Z" fill="#455A64"/>
<path d="M11.8748 24.5419H10.2915V7.12545C10.2915 6.49557 10.5417 5.89149 10.9871 5.4461C11.4325 5.00071 12.0366 4.75049 12.6665 4.75049H25.3329C25.9628 4.75049 26.5669 5.00071 27.0123 5.4461C27.4577 5.89149 27.7079 6.49557 27.7079 7.12545V8.70876C27.7079 8.91872 27.6245 9.12008 27.476 9.26855C27.3276 9.41701 27.1262 9.50042 26.9163 9.50042H11.8748V24.5419ZM11.8748 7.91711H26.1246V7.12545C26.1246 6.91549 26.0412 6.71413 25.8927 6.56567C25.7443 6.4172 25.5429 6.3338 25.3329 6.3338H12.6665C12.4565 6.3338 12.2551 6.4172 12.1067 6.56567C11.9582 6.71413 11.8748 6.91549 11.8748 7.12545V7.91711Z" fill="#455A64"/>
<path d="M26.9163 26.9169H12.6665V28.5002H26.9163V26.9169Z" fill="#455A64"/>
<path d="M19.7913 29.2919H18.208V30.8752H19.7913V29.2919Z" fill="#455A64"/>
</svg>
