<svg width="38" height="38" viewBox="0 0 38 38" fill="none" xmlns="http://www.w3.org/2000/svg">
<path d="M22.0636 4.90332H16.5475C15.53 4.90332 14.7087 5.72461 14.7087 6.74203H22.0636V4.90332Z" fill="#455A64"/>
<path d="M22.0636 9.80648V7.96777H14.96C14.8804 8.04745 14.7945 8.12713 14.7087 8.20681V9.80648C14.7087 11.8352 16.3575 13.4839 18.3862 13.4839C20.4149 13.4839 22.0636 11.8352 22.0636 9.80648Z" fill="#455A64"/>
<path d="M14.4578 6.74194L14.2739 6.91969C13.5814 7.61839 13.1094 7.96775 12.8949 7.96775C12.7907 7.9371 12.5333 7.68581 12.3862 7.53259C12.0123 7.16485 11.5894 6.74194 11.0317 6.74194C10.2472 6.74194 9.18072 7.72259 8.75781 8.14549L9.62813 9.01581C10.1491 8.49485 10.8233 7.99227 11.0072 7.96775C11.1114 7.99839 11.3688 8.24969 11.5159 8.40291C11.8897 8.77065 12.3127 9.19356 12.8704 9.19356C13.5078 9.19356 14.1391 8.74001 14.7091 8.20678V6.74194H14.4578Z" fill="#DF7550"/>
<path d="M35.5484 0V2.45161H26.9677V0H24.5161V7.35484H26.9677V4.90323H29.4194V13.4839H18.3871H8.58065C6.54948 13.4839 4.90323 15.1301 4.90323 17.1613V23.9032H8.58065V17.1613H14.0968V26.3548L0 34.3226L2.45161 38L18.3871 29.4194H28.8065V38H33.0968V28.8065C33.0968 26.7753 31.4505 25.129 29.4194 25.129H22.6774V17.1613H29.4194C31.4505 17.1613 33.0968 15.515 33.0968 13.4839V4.90323H35.5484V7.35484H38V0H35.5484Z" fill="#455A64"/>
<path fill-rule="evenodd" clip-rule="evenodd" d="M35.5486 2.45161V0H38.0002V7.35484H35.5486V4.90323H33.097V5.18182H29.4196V4.90323H26.968V7.35484H24.5164V0H26.968V2.45161H35.5486Z" fill="#DF7550"/>
</svg>
