<svg width="38" height="38" viewBox="0 0 38 38" fill="none" xmlns="http://www.w3.org/2000/svg">
<path fill-rule="evenodd" clip-rule="evenodd" d="M18.3635 33.0939V37.3214C18.3635 37.696 18.6675 38 19.0421 38C19.4166 38 19.7206 37.696 19.7206 37.3214V33.0939C19.7206 32.7194 19.4166 32.4154 19.0421 32.4154C18.6675 32.4154 18.3635 32.7194 18.3635 33.0939ZM28.8637 29.7594L32.2742 33.1618C32.5389 33.4264 32.9691 33.4251 33.2337 33.1604C33.4984 32.8958 33.497 32.4656 33.2324 32.2009L29.8219 28.7986C29.5572 28.5339 29.127 28.5339 28.8624 28.7999C28.5977 29.0646 28.5991 29.4948 28.8637 29.7594ZM8.26093 28.7986L4.85043 32.2009C4.58579 32.4656 4.58443 32.8958 4.84907 33.1604C5.11371 33.4251 5.54393 33.4264 5.80857 33.1618L9.21907 29.7594C9.48507 29.4948 9.48507 29.0646 9.22043 28.7999C8.95578 28.5339 8.52557 28.5339 8.26093 28.7986ZM19.0421 8.45636C13.2091 8.45636 8.47536 13.1819 8.47536 19C8.47536 24.8194 13.2091 29.545 19.0421 29.545C24.8737 29.545 29.6074 24.8194 29.6074 19C29.6074 13.1819 24.8737 8.45636 19.0421 8.45636ZM0.678571 19.6786H4.91557C5.29014 19.6786 5.59414 19.3746 5.59414 19C5.59414 18.6254 5.29014 18.3214 4.91557 18.3214H0.678571C0.304 18.3214 0 18.6254 0 19C0 19.3746 0.304 19.6786 0.678571 19.6786ZM33.0844 19.6786H37.3214C37.696 19.6786 38 19.3746 38 19C38 18.6254 37.696 18.3214 37.3214 18.3214H33.0844C32.7099 18.3214 32.4059 18.6254 32.4059 19C32.4059 19.3746 32.7099 19.6786 33.0844 19.6786ZM29.8219 9.20279L33.2324 5.80043C33.497 5.53579 33.4984 5.10557 33.2337 4.84093C32.9691 4.57493 32.5389 4.57493 32.2742 4.83957L28.8637 8.24193C28.5991 8.50657 28.5977 8.93678 28.8624 9.20143C29.127 9.46743 29.5572 9.46743 29.8219 9.20279ZM9.21907 8.24193L5.80857 4.83957C5.54393 4.57493 5.11371 4.57493 4.84907 4.84093C4.58443 5.10557 4.58579 5.53579 4.85043 5.80043L8.26093 9.20279C8.52557 9.46743 8.95578 9.46743 9.22043 9.20143C9.48507 8.93678 9.48507 8.50657 9.21907 8.24193ZM18.3635 0.678572V4.90743C18.3635 5.282 18.6675 5.586 19.0421 5.586C19.4166 5.586 19.7206 5.282 19.7206 4.90743V0.678572C19.7206 0.304 19.4166 0 19.0421 0C18.6675 0 18.3635 0.304 18.3635 0.678572Z" fill="#DF7550"/>
<path fill-rule="evenodd" clip-rule="evenodd" d="M18.3635 37.3214V33.0939C18.3635 32.7194 18.6675 32.4154 19.0421 32.4154C19.4166 32.4154 19.7206 32.7194 19.7206 33.0939V37.3214C19.7206 37.696 19.4166 38 19.0421 38C18.6675 38 18.3635 37.696 18.3635 37.3214ZM32.2742 33.1618L28.8637 29.7594C28.5991 29.4948 28.5977 29.0646 28.8624 28.7999C29.127 28.5339 29.5572 28.5339 29.8219 28.7986L33.2324 32.2009C33.497 32.4656 33.4984 32.8958 33.2337 33.1604C32.9691 33.4251 32.5389 33.4264 32.2742 33.1618ZM4.85043 32.2009L8.26093 28.7986C8.52557 28.5339 8.95578 28.5339 9.22043 28.7999C9.48507 29.0646 9.48507 29.4948 9.21907 29.7594L5.80857 33.1618C5.54393 33.4264 5.11371 33.4251 4.84907 33.1604C4.58443 32.8958 4.58579 32.4656 4.85043 32.2009ZM4.91557 19.6786H0.678571C0.304 19.6786 0 19.3746 0 19C0 18.6254 0.304 18.3214 0.678571 18.3214H4.91557C5.29014 18.3214 5.59414 18.6254 5.59414 19C5.59414 19.3746 5.29014 19.6786 4.91557 19.6786ZM37.3214 19.6786H33.0844C32.7099 19.6786 32.4059 19.3746 32.4059 19C32.4059 18.6254 32.7099 18.3214 33.0844 18.3214H37.3214C37.696 18.3214 38 18.6254 38 19C38 19.3746 37.696 19.6786 37.3214 19.6786ZM33.2324 5.80043L29.8219 9.20279C29.5572 9.46743 29.127 9.46743 28.8624 9.20143C28.5977 8.93678 28.5991 8.50657 28.8637 8.24193L32.2742 4.83957C32.5389 4.57493 32.9691 4.57493 33.2337 4.84093C33.4984 5.10557 33.497 5.53579 33.2324 5.80043ZM5.80857 4.83957L9.21907 8.24193C9.48507 8.50657 9.48507 8.93678 9.22043 9.20143C8.95578 9.46743 8.52557 9.46743 8.26093 9.20279L4.85043 5.80043C4.58579 5.53579 4.58443 5.10557 4.84907 4.84093C5.11371 4.57493 5.54393 4.57493 5.80857 4.83957ZM18.3635 4.90743V0.678572C18.3635 0.304 18.6675 0 19.0421 0C19.4166 0 19.7206 0.304 19.7206 0.678572V4.90743C19.7206 5.282 19.4166 5.586 19.0421 5.586C18.6675 5.586 18.3635 5.282 18.3635 4.90743Z" fill="#455A64"/>
</svg>
