<svg width="44" height="38" viewBox="0 0 44 38" fill="none" xmlns="http://www.w3.org/2000/svg">
<path d="M30.0422 24.8658L23.8979 27.3851L32.0235 30.7165L32.3806 30.5698C33.9509 29.924 34.7091 28.1238 34.0634 26.5486C33.4177 24.9783 31.6174 24.22 30.0422 24.8658Z" fill="#455A64"/>
<path d="M32.243 22.3024L26.1476 21.187C25.0763 21.7349 23.8826 22.0235 22.645 22.0235C21.4073 22.0235 20.2137 21.7349 19.1423 21.187L13.047 22.3024C12.2349 22.4491 11.5354 22.9041 11.0657 23.5841C10.6206 24.2249 10.4396 24.9929 10.5521 25.761C11.5256 23.995 13.7025 23.1976 15.6104 23.9803L22.645 26.8666L29.6796 23.9803C31.5923 23.1976 33.7644 23.995 34.7379 25.761C34.8455 24.9929 34.6645 24.2249 34.2242 23.5841C33.7546 22.909 33.055 22.454 32.243 22.3024Z" fill="#455A64"/>
<path d="M22.6403 21.0744C26.368 21.0744 29.401 18.0414 29.401 14.3138V12.2836C29.401 8.55595 26.368 5.52295 22.6403 5.52295C18.9126 5.52295 15.8796 8.55595 15.8796 12.2836V14.3138C15.8796 18.0414 18.9126 21.0744 22.6403 21.0744Z" fill="#455A64"/>
<path d="M11.4636 30.7898L12.2023 34.8208C12.3686 35.7404 12.9361 36.5232 13.7531 36.9683C14.2031 37.2129 14.7168 37.345 15.2304 37.345C15.6316 37.345 16.0278 37.2667 16.3996 37.1151L21.3845 35.0702L12.5447 31.4453C12.1436 31.279 11.7767 31.054 11.4636 30.7898Z" fill="#455A64"/>
<path d="M32.2042 31.6705C32.2042 31.6705 32.1945 31.6705 32.1896 31.6754C32.1798 31.6754 32.17 31.6803 32.1602 31.6851C32.1553 31.6851 32.1455 31.6852 32.1406 31.69C32.1309 31.69 32.126 31.69 32.1162 31.6949C32.1064 31.6949 32.1015 31.6949 32.0917 31.6949C32.0868 31.6949 32.077 31.6949 32.0722 31.6949C32.0624 31.6949 32.0575 31.6949 32.0477 31.6949C32.0428 31.6949 32.033 31.6949 32.0281 31.6949C32.0135 31.6949 32.0037 31.6949 31.989 31.6949H31.9792C31.9694 31.6949 31.9596 31.6949 31.9499 31.6949C31.9499 31.6949 31.9401 31.6949 31.9352 31.6949C31.9254 31.6949 31.9107 31.69 31.9009 31.6851C31.9009 31.6851 31.9009 31.6851 31.896 31.6851C31.8814 31.6851 31.8667 31.6754 31.8569 31.6705L15.2585 24.8658C13.6882 24.22 11.8831 24.9783 11.2374 26.5486C10.5916 28.1189 11.3499 29.924 12.9202 30.5698L28.8973 37.1201C29.2691 37.2718 29.6653 37.35 30.0665 37.35C30.5801 37.35 31.0938 37.2179 31.5438 36.9733C32.3608 36.5282 32.9282 35.7406 33.0946 34.8258L33.8333 30.7948C33.5153 31.0639 33.1533 31.2889 32.7521 31.4503L32.2189 31.6705H32.2042Z" fill="#455A64"/>
<path d="M43.0542 3.06725C43.0542 1.37464 41.6796 0 39.9869 0C38.7786 0 37.7366 0.694656 37.2377 1.70729C36.7387 0.694656 35.6918 0 34.4884 0C32.7958 0 31.4211 1.37464 31.4211 3.06725C31.4211 3.56623 31.5434 4.04075 31.7538 4.45656C31.7538 4.45656 31.7538 4.46145 31.7636 4.47124C31.8418 4.62778 31.9397 4.77454 32.0424 4.9164C32.6686 5.86055 34.3465 8.10106 37.2426 10.0921C40.1386 8.10106 41.8116 5.86055 42.4427 4.9164C42.5503 4.77943 42.6433 4.62778 42.7215 4.47124C42.7264 4.46145 42.7313 4.45656 42.7313 4.45656C42.9417 4.04075 43.064 3.56623 43.064 3.06725H43.0542Z" fill="#DF7550"/>
<path d="M7.39173 10.7573C6.34974 10.7573 5.45452 11.359 5.01914 12.2298C4.58864 11.359 3.68853 10.7573 2.64654 10.7573C1.18385 10.7573 0 11.9412 0 13.4039C0 13.8344 0.102731 14.2404 0.288625 14.6024C0.288625 14.6024 0.288625 14.6073 0.298409 14.6171C0.366896 14.754 0.450059 14.8812 0.538114 14.9986C1.08112 15.8156 2.52424 17.7479 5.01914 19.4601C7.51403 17.743 8.95715 15.8107 9.50016 14.9986C9.5931 14.8763 9.67138 14.7492 9.73986 14.6171C9.73986 14.6073 9.74965 14.6024 9.74965 14.6024C9.93065 14.2404 10.0383 13.8344 10.0383 13.4039C10.0383 11.9412 8.85442 10.7573 7.39173 10.7573Z" fill="#DF7550"/>
</svg>
