<svg width="39" height="53" viewBox="0 0 39 53" fill="none" xmlns="http://www.w3.org/2000/svg">
<path d="M0.0941449 51.2705C-0.0732236 51.6611 -0.0174345 52.1074 0.261513 52.4421C0.484671 52.7768 0.875198 53 1.32151 53H10.192C10.8057 53 11.3078 52.5537 11.4194 51.9958L12.4794 46.8074H1.82362L0.0941449 51.2705Z" fill="#455A64"/>
<path d="M16.6631 14.0032H15.9378C15.5473 14.0032 15.1568 14.1705 14.9894 14.5053L5.11467 29.1779C4.05467 30.74 3.44099 32.5253 3.27362 34.4221L2.3252 44.3526H13.4831L15.882 42.2884C17.1094 41.2284 17.8347 39.7221 17.8347 38.0484V28.2295H16.6631C16.161 28.2295 15.7147 28.5084 15.5473 29.0105L12.8694 35.8169C12.6462 36.4305 11.921 36.7653 11.3073 36.4863C10.6936 36.2632 10.3589 35.5379 10.6378 34.9242L13.3157 28.1179C13.8736 26.7232 15.2126 25.7748 16.7189 25.7748H17.8905V15.1748C17.8347 14.5611 17.3326 14.0032 16.6631 14.0032Z" fill="#455A64"/>
<path d="M38.031 51.2707L36.3015 46.7517H25.6458L26.7058 51.9959C26.8173 52.5538 27.3194 53.0001 27.9331 53.0001H36.8036C37.25 53.0001 37.5847 52.777 37.8636 52.4422C38.1426 52.1075 38.1984 51.6612 38.031 51.2707Z" fill="#455A64"/>
<path d="M34.9068 34.422C34.7394 32.5252 34.0699 30.7399 33.0657 29.1778L23.191 14.5609C22.9678 14.2262 22.6331 14.0588 22.2425 14.0588H21.5173C20.8478 14.0588 20.3457 14.5609 20.3457 15.2304V25.8304H21.5173C23.0236 25.8304 24.3625 26.723 24.9204 28.1736L27.5983 34.9799C27.8215 35.5936 27.5425 36.3188 26.9289 36.542C26.3152 36.7652 25.5899 36.4862 25.3668 35.8725L22.6889 29.0662C22.5215 28.6199 22.0752 28.2852 21.5731 28.2852H20.4015V28.7315V38.1041C20.4015 39.722 21.1268 41.2841 22.3541 42.3441L24.6415 44.3525H35.7994L34.9068 34.422Z" fill="#455A64"/>
<path d="M20.9028 7.69895V1.84105C20.9028 0.836842 20.066 0 19.0618 0C18.0575 0 17.2207 0.836842 17.2207 1.84105V7.69895C17.2207 8.70316 18.0575 9.54 19.0618 9.54C20.066 9.54 20.9028 8.70316 20.9028 7.69895Z" fill="#DF7550"/>
<path d="M9.29908 12.497C9.63381 12.8317 10.1359 13.0549 10.5822 13.0549C11.0286 13.0549 11.5307 12.8875 11.8654 12.497C12.5907 11.7717 12.5907 10.6001 11.8654 9.93067L7.73697 5.80225C7.01171 5.07698 5.84013 5.07698 5.17066 5.80225C4.44539 6.52751 4.44539 7.69909 5.17066 8.36856L9.29908 12.497Z" fill="#DF7550"/>
<path d="M27.5427 12.999C27.989 12.999 28.4911 12.8316 28.8258 12.4411L32.9543 8.31266C33.6795 7.58739 33.6795 6.41581 32.9543 5.74634C32.229 5.02108 31.0574 5.02108 30.3879 5.74634L26.2595 9.87476C25.5343 10.6 25.5343 11.7716 26.2595 12.4411C26.5943 12.8316 27.0406 12.999 27.5427 12.999Z" fill="#DF7550"/>
</svg>
