<svg width="38" height="42" viewBox="0 0 38 42" fill="none" xmlns="http://www.w3.org/2000/svg">
<path fill-rule="evenodd" clip-rule="evenodd" d="M18.9677 10.8387C21.9608 10.8387 24.3871 8.41238 24.3871 5.41935C24.3871 2.42633 21.9608 0 18.9677 0C15.9747 0 13.5484 2.42633 13.5484 5.41935C13.5484 8.41238 15.9747 10.8387 18.9677 10.8387ZM37.6589 34.419C37.8417 34.8925 37.9355 35.3957 37.9355 35.9032C37.9355 39.2704 35.2059 42 31.8387 42H6.09677C2.72962 42 0 39.2704 0 35.9032C0 33.6274 1.84491 31.7825 4.12073 31.7825C4.62829 31.7825 5.13148 31.8763 5.60498 32.0591C12.2423 34.6218 16.6966 35.9032 18.9677 35.9032C21.2389 35.9032 25.6932 34.6218 32.3305 32.0591C34.4536 31.2394 36.8392 32.2959 37.6589 34.419ZM19.2174 12.1935C20.5391 12.1935 21.7287 12.8284 22.4747 13.8264L22.5476 13.915L22.6189 14.0066L31.8821 26.3665L34.9753 26.8094C36.1296 26.9743 36.9871 27.9629 36.9871 29.129C36.9871 30.2514 36.0772 31.1613 34.9548 31.1613H30.2129C29.5888 31.1613 29.014 30.9503 28.5559 30.5958C28.3516 30.467 28.1623 30.3072 27.9947 30.1188L27.8553 29.9485L24.6106 25.643L25.5811 32.7014C25.6721 33.3746 25.2499 34.0108 24.5945 34.1897C22.0281 34.8804 20.1526 35.2258 18.9677 35.2258C17.7829 35.2258 15.9073 34.8804 13.341 34.1897C12.6856 34.0108 12.2634 33.3746 12.3544 32.7014L13.3235 25.6498L10.0852 29.9485C9.8806 30.2201 9.6343 30.4417 9.36196 30.6113C8.90648 30.9558 8.33853 31.1613 7.72258 31.1613H2.98064C1.85826 31.1613 0.948383 30.2514 0.948383 29.129C0.948383 27.9629 1.80584 26.9743 2.96022 26.8094L6.05884 26.3652L15.3216 14.0066L15.4152 13.8886C16.1577 12.8549 17.3691 12.1935 18.7181 12.1935H19.2174Z" fill="#455A64"/>
</svg>
