<svg width="38" height="36" viewBox="0 0 38 36" fill="none" xmlns="http://www.w3.org/2000/svg">
<path d="M3.56081 15.7961C3.56081 15.5639 3.3673 15.3317 3.09637 15.3317H0.464437C0.232209 15.3317 0 15.5252 0 15.7961V35.5355C0 35.7677 0.193504 35.9999 0.464437 35.9999H3.09637C3.3286 35.9999 3.56081 35.8064 3.56081 35.5355V31.665H34.4471V35.5355C34.4471 35.7677 34.6406 35.9999 34.9115 35.9999H37.5435C37.7757 35.9999 38.0079 35.8064 38.0079 35.5355V28.1429H3.59953V15.7961H3.56081Z" fill="#455A64"/>
<path d="M9.13479 26.6722C11.3793 26.6722 13.1988 24.8527 13.1988 22.6082C13.1988 20.3637 11.3793 18.5442 9.13479 18.5442C6.89031 18.5442 5.0708 20.3637 5.0708 22.6082C5.0708 24.8527 6.89031 26.6722 9.13479 26.6722Z" fill="#455A64"/>
<path d="M14.6685 18.5442V26.6721H37.9686C37.9686 21.9502 34.1369 18.1184 29.4149 18.1184H15.1329C14.9007 18.1184 14.6685 18.3119 14.6685 18.5442Z" fill="#455A64"/>
<path d="M7.97392 9.48734C9.17376 9.37122 10.2188 8.82936 10.9542 8.01657C11.0316 7.90045 10.9929 7.74563 10.8381 7.74563C9.13507 7.70693 7.62558 6.50709 7.27724 4.80409C6.89019 3.06238 7.78041 1.35936 9.28989 0.62397C9.406 0.546561 9.406 0.391761 9.28989 0.353056C8.43838 0.00471486 7.47076 -0.111413 6.50315 0.120815C3.75512 0.701384 2.09082 3.56553 3.01973 6.31355C3.71641 8.3649 5.80646 9.68086 7.97392 9.48734Z" fill="#DF7550"/>
<path d="M14.5136 3.6817C14.5136 3.6817 14.5136 3.72041 14.5136 3.75911L13.9717 4.84284C13.933 4.92025 13.9718 4.99765 14.0492 4.95895L15.2103 4.76542C15.249 4.76542 15.2877 4.76544 15.2877 4.80414L16.1005 5.65562C16.1392 5.69433 16.2166 5.65563 16.2553 5.61693L16.4101 4.4171C16.4101 4.37839 16.4489 4.37839 16.4489 4.33968L17.5326 3.79781C17.61 3.7591 17.61 3.68171 17.5326 3.643L16.4489 3.13982C16.4101 3.13982 16.4101 3.10114 16.4101 3.06243L16.2166 1.9013C16.2166 1.82389 16.1392 1.82387 16.0618 1.86258L15.249 2.71408C15.2103 2.71408 15.2103 2.75278 15.1716 2.75278L13.9717 2.55925C13.8943 2.55925 13.8556 2.59798 13.8943 2.67539L14.5136 3.6817Z" fill="#DF7550"/>
<path d="M32.203 8.44238C32.203 8.44238 32.2417 8.48109 32.203 8.51979L31.8159 9.64224C31.7772 9.71965 31.8546 9.75835 31.9321 9.75835L33.0545 9.3713C33.0932 9.3713 33.1319 9.3713 33.1319 9.3713L34.0608 10.068C34.0995 10.1067 34.2156 10.068 34.2156 9.99057L34.1769 8.79073C34.1769 8.75203 34.1769 8.75202 34.2156 8.71332L35.1832 8.01664C35.2219 7.97793 35.2219 7.90052 35.1445 7.86181L33.9834 7.51348C33.9447 7.51348 33.9447 7.47476 33.9447 7.47476L33.5964 6.35234C33.5576 6.27494 33.4802 6.27492 33.4415 6.31363L32.7448 7.31996C32.7448 7.35866 32.7061 7.35866 32.6674 7.35866H31.4676C31.3902 7.35866 31.3515 7.43606 31.3902 7.47476L32.203 8.44238Z" fill="#DF7550"/>
<path d="M19.3911 10.7258L20.4748 11.229C20.4748 11.229 20.5136 11.2677 20.5136 11.3064L20.7458 12.4675C20.7458 12.5449 20.8619 12.5836 20.9006 12.5062L21.7134 11.616C21.7521 11.5773 21.7521 11.5773 21.7908 11.5773L22.9519 11.7321C23.0294 11.7321 23.0681 11.6547 23.0294 11.616L22.4488 10.571C22.4488 10.5323 22.4488 10.4936 22.4488 10.4936L22.9906 9.40985C23.0293 9.33245 22.9519 9.29375 22.9132 9.29375L21.7521 9.52596C21.7134 9.52596 21.7134 9.52597 21.6747 9.48727L20.8232 8.67448C20.7845 8.63578 20.7071 8.67447 20.6684 8.71318L20.5523 9.91301C20.5523 9.95171 20.5136 9.95172 20.5136 9.99042L19.4298 10.571C19.3137 10.6097 19.3137 10.6871 19.3911 10.7258Z" fill="#DF7550"/>
<path d="M24.1126 4.30082L25.2738 4.61047C25.3125 4.61047 25.3125 4.64917 25.3125 4.64917L25.6995 5.77161C25.7382 5.84902 25.8157 5.84902 25.8544 5.77161L26.5123 4.76528C26.5123 4.72657 26.551 4.72658 26.5897 4.72658L27.7509 4.68786C27.8283 4.68786 27.867 4.61047 27.8283 4.53306L27.0542 3.60414C27.0155 3.56543 27.0155 3.56543 27.0542 3.52672L27.4025 2.36559C27.4412 2.28818 27.3638 2.24948 27.2864 2.24948L26.164 2.67524C26.1253 2.67524 26.1253 2.67524 26.0866 2.67524L25.119 2.01726C25.0803 1.97855 25.0028 2.01726 25.0028 2.09467L25.0803 3.29451C25.0803 3.33321 25.0802 3.33322 25.0415 3.37192L24.0739 4.10729C23.9965 4.1847 24.0352 4.26211 24.1126 4.30082Z" fill="#DF7550"/>
</svg>
