<svg width="36" height="38" viewBox="0 0 36 38" fill="none" xmlns="http://www.w3.org/2000/svg">
<path d="M1.81286 4.53345H0V5.43988H1.81286V4.53345Z" fill="#DF7550"/>
<path d="M4.98474 4.53345H3.17188V5.43988H4.98474V4.53345Z" fill="#DF7550"/>
<path d="M2.94476 5.66541H2.03833V7.47827H2.94476V5.66541Z" fill="#DF7550"/>
<path d="M2.94476 2.49365H2.03833V4.30651H2.94476V2.49365Z" fill="#DF7550"/>
<path d="M14.39 35.0275H12.5771V35.9339H14.39V35.0275Z" fill="#DF7550"/>
<path d="M17.5619 35.0275H15.749V35.9339H17.5619V35.0275Z" fill="#DF7550"/>
<path d="M15.5222 36.1609H14.6157V37.9737H15.5222V36.1609Z" fill="#DF7550"/>
<path d="M15.5222 32.9877H14.6157V34.8005H15.5222V32.9877Z" fill="#DF7550"/>
<path d="M32.8268 18.1643H31.0139V19.0707H32.8268V18.1643Z" fill="#DF7550"/>
<path d="M36.0013 18.1643H34.1885V19.0707H36.0013V18.1643Z" fill="#DF7550"/>
<path d="M33.9616 19.2977H33.0552V21.1106H33.9616V19.2977Z" fill="#DF7550"/>
<path d="M33.9616 16.1245H33.0552V17.9374H33.9616V16.1245Z" fill="#DF7550"/>
<path d="M26.3758 2.03967H24.563V2.9461H26.3758V2.03967Z" fill="#DF7550"/>
<path d="M29.5477 2.03967H27.7349V2.9461H29.5477V2.03967Z" fill="#DF7550"/>
<path d="M27.508 3.1731H26.6016V4.98596H27.508V3.1731Z" fill="#DF7550"/>
<path d="M27.508 -0.00012207H26.6016V1.81274H27.508V-0.00012207Z" fill="#DF7550"/>
<path d="M31.0138 5.89246L14.4698 8.93911C14.4698 8.93911 13.3962 20.0721 12.5682 23.6414C11.6294 22.3512 10.1116 21.5081 8.39367 21.5081C5.54165 21.5081 3.22949 23.8202 3.22949 26.673C3.22949 29.5243 5.54165 31.8364 8.39367 31.8364C14.0379 31.8364 14.3886 27.0416 15.9972 15.932L27.5614 14.0022C27.1591 16.7531 26.6701 19.3404 26.1385 21.4586C25.2066 20.112 23.6531 19.2289 21.8911 19.2289C19.0391 19.2289 16.7269 21.5411 16.7269 24.3924C16.7269 27.2451 19.0624 29.1914 21.8911 29.5573C29.5483 30.5483 29.5483 15.8185 31.0138 5.89246ZM16.2256 13.7519C16.3356 12.5896 16.4167 11.5497 16.4745 10.7107L28.2272 8.48658C28.1213 9.59383 27.9975 10.708 27.8592 11.8097L16.2256 13.7519Z" fill="#455A64"/>
<path d="M5.98473 18.8218C9.72531 18.6175 9.86491 14.7146 11.3263 8.38061L14.787 7.80291C15.0408 7.76028 15.2705 7.62686 15.4328 7.42604L18.8983 3.15935C19.1789 2.81411 19.2132 2.32995 18.9835 1.94894C18.7545 1.56794 18.3158 1.3685 17.8735 1.45653L10.5671 2.90076C10.1063 2.99292 9.76107 3.37667 9.7198 3.84433C9.42545 7.16332 8.89521 10.3819 8.31064 12.7422C7.69168 12.1851 6.88222 11.8371 5.98473 11.8371C4.05565 11.8371 2.49243 13.401 2.49243 15.3294C2.49243 17.2578 4.0584 18.927 5.98473 18.8218ZM11.7507 4.82091L15.4156 4.09604L14.0449 5.78511L11.6063 6.19087C11.6599 5.71909 11.708 5.25968 11.7507 4.82091Z" fill="#455A64"/>
<path d="M27.0624 31.9382C26.5212 31.2202 25.7062 30.7085 24.7448 30.5779C22.8329 30.3193 21.0737 31.659 20.8151 33.5695C20.5558 35.4814 21.9079 37.1581 23.8067 37.4992C29.0486 38.4414 29.6786 31.5503 31.6331 23.2494L29.5603 22.8381C28.8739 26.2947 27.9386 29.6205 27.0624 31.9382Z" fill="#455A64"/>
</svg>
