<svg width="38" height="38" viewBox="0 0 38 38" fill="none" xmlns="http://www.w3.org/2000/svg">
<path d="M19 0C8.5066 0 0 8.5066 0 19C0 29.4934 8.5066 38 19 38C29.4934 38 38 29.4934 38 19C38 8.5066 29.4934 0 19 0ZM19 36.6641C9.24444 36.6641 1.33594 28.7556 1.33594 19C1.33594 9.24437 9.24444 1.33594 19 1.33594C28.7556 1.33594 36.6641 9.24437 36.6641 19C36.6641 28.7556 28.7556 36.6641 19 36.6641Z" fill="#455A64"/>
<path d="M15.2433 17.6357C15.2364 17.9371 14.8481 18.0599 14.6784 17.8106C14.3917 17.3892 14.0644 17.0758 13.7096 16.8442C13.1894 16.5047 12.6346 16.3546 12.0763 16.3523C11.518 16.3566 10.9642 16.5073 10.4441 16.8462C10.0885 17.0787 9.75988 17.3927 9.47154 17.8159C9.30201 18.0648 8.91495 17.9416 8.90707 17.6406C8.89139 17.0416 9.1018 16.4081 9.49664 15.8982C10.0772 15.1289 11.0725 14.6387 12.076 14.6481C13.0794 14.6402 14.0739 15.1307 14.654 15.8997C15.047 16.4082 15.2571 17.0388 15.2433 17.6357Z" fill="#455A64"/>
<path d="M29.0924 17.6357C29.0855 17.9371 28.6972 18.0599 28.5276 17.8106C28.2409 17.3892 27.9135 17.0758 27.5588 16.8442C27.0385 16.5047 26.4837 16.3546 25.9254 16.3523C25.3671 16.3566 24.8133 16.5073 24.2932 16.8462C23.9376 17.0787 23.609 17.3927 23.3207 17.8159C23.1511 18.0648 22.7641 17.9416 22.7562 17.6406C22.7405 17.0416 22.9509 16.4081 23.3458 15.8982C23.9263 15.1289 24.9216 14.6387 25.9251 14.6481C26.9285 14.6402 27.9231 15.1307 28.5032 15.8997C28.8962 16.4082 29.1062 17.0388 29.0924 17.6357Z" fill="#455A64"/>
<path d="M25.9347 22.4861H19.0001H12.0655C11.6301 22.4861 11.2894 22.8617 11.3349 23.2947C11.518 25.0397 12.6347 29.0031 19.0001 29.0031C25.3654 29.0031 26.4821 25.0397 26.6653 23.2947C26.7107 22.8617 26.3701 22.4861 25.9347 22.4861ZM19.0001 28.2856C17.1068 28.2856 15.6807 27.9334 14.6025 27.3948C14.9796 26.8453 15.551 26.3136 16.3995 26.1262C18.3964 25.685 19.0001 26.2887 19.0001 26.2887C19.0001 26.2887 19.6038 25.685 21.6006 26.1262C22.4491 26.3136 23.0206 26.8453 23.3976 27.3948C22.3194 27.9334 20.8934 28.2856 19.0001 28.2856Z" fill="#DF7550"/>
</svg>
