<svg width="65" height="85" viewBox="0 0 65 85" fill="none" xmlns="http://www.w3.org/2000/svg">
<g id="Frame 1950">
<g id="Group 1533">
<path id="Vector" d="M60.6216 73.7808L55.8025 72.3235L48.6119 72.5818L37.3508 78.1892L46.6677 84.0384C51.5034 80.8621 56.0907 77.3579 60.6216 73.7808Z" fill="url(#paint0_linear_102_411)"/>
<path id="Vector_2" d="M45.3894 51.9666L40.5703 50.5093L33.3798 50.7676L22.1187 56.375L36.4004 65.5329C41.2096 62.3566 45.2901 60.2468 45.3894 51.9666Z" fill="url(#paint1_linear_102_411)"/>
<path id="Vector_3" d="M39.3072 49.1825L39.284 46.8376L37.2172 46.7515L36.78 50.2755C36.78 50.2755 38.8633 50.4709 39.3072 49.1825Z" fill="#FFBEB3"/>
<path id="Vector_4" d="M36.8834 23.3242C36.5764 25.9625 36.4326 28.6172 36.4528 31.2732C36.5522 34.8404 36.1216 46.4791 36.1216 46.4791C36.1216 46.4791 38.8772 47.8039 40.5333 47.0222C40.5333 47.0222 41.1957 39.2786 41.2785 36.7183C41.3613 34.1581 40.838 23.5461 40.838 23.5461" fill="#01818C"/>
<path id="Vector_5" d="M39.3094 49.1827C39.3094 49.1827 38.0144 50.1763 37.1168 49.9412C37.1168 49.9412 37.4712 48.9475 37.2195 48.6163C36.9678 48.2851 36.7889 48.5468 36.6432 48.8979C36.5231 49.1842 36.3756 49.4581 36.2027 49.716C36.1714 49.7512 36.1358 49.7824 36.0967 49.8087C35.2388 50.9149 33.0959 50.5075 33.3013 51.8324C33.3443 52.1205 33.9836 52.4252 34.2287 52.4948C34.6642 52.5984 35.118 52.5984 35.5535 52.4948C36.6962 52.1835 36.9512 51.4548 37.9647 51.69C38.9782 51.9251 39.2895 51.3919 39.4485 51.0275C39.6075 50.6632 39.3094 49.1827 39.3094 49.1827Z" fill="#050817"/>
<path id="Vector_6" d="M42.5741 45.5022C42.9749 48.1353 43.5114 52.1827 43.4882 52.547C43.4551 53.0637 44.4322 55.1636 45.2337 52.4443C45.2337 52.4443 45.3132 48.1684 45.2801 45.5618C44.3777 45.5909 43.4743 45.571 42.5741 45.5022Z" fill="#FFBEB3"/>
<path id="Vector_7" d="M42.8266 52.962C42.8266 52.962 42.6842 52.1472 43.234 52.0975C43.7838 52.0478 44.4131 52.1637 44.4893 52.6076C44.5375 52.9257 44.5663 53.2464 44.5754 53.5681C44.5754 53.5681 45.2378 51.5808 45.4001 51.5808C45.5624 51.5808 45.7711 52.2432 45.7578 52.4983C45.681 53.3741 45.5516 54.2446 45.3703 55.1049C45.2312 55.4957 44.3767 56.8835 43.1943 57.059C42.0118 57.2346 41.3859 56.496 41.578 55.9594C41.7701 55.4228 42.8167 54.4126 42.8266 52.962Z" fill="#050817"/>
<path id="Vector_8" d="M39.1072 24.3148C39.1072 24.3148 39.8259 33.7244 40.124 36.7484C40.4221 39.7723 41.9291 49.8974 41.9291 49.8974C41.9291 49.8974 44.3005 50.5399 46.3309 49.6589C46.3309 49.6589 45.526 33.8635 45.0723 29.8957C44.4761 24.6957 43.4162 22.1752 43.4162 22.1752" fill="#01818C"/>
<path id="Vector_9" d="M42.6926 14.2564C42.6926 14.2564 47.1408 13.7 47.6608 13.2827C48.1808 12.8653 48.0185 7.47657 48.0814 7.05593C48.1443 6.63529 49.5685 6.29415 49.8169 6.75122C50.0653 7.20829 50.7443 12.6467 50.3999 14.0709C50.0554 15.4951 43.0702 18.4893 43.0702 18.4893L42.6926 14.2564Z" fill="#FFBEB3"/>
<path id="Vector_10" d="M36.6484 13.9689C36.2841 14.5849 35.3235 18.1984 35.3235 18.1984L33.9556 15.2175C33.6078 14.441 33.2186 13.6836 32.7898 12.9487L31.243 13.5482C32.0942 16.1184 32.7467 18.6555 34.1411 21.0037C34.2563 21.1619 34.396 21.3006 34.5551 21.4144C35.9793 22.3087 37.6155 21.113 37.9103 20.8282L39.0795 13.1342C38.8476 12.7699 37.0127 13.3528 36.6484 13.9689Z" fill="#FFBEB3"/>
<path id="Vector_11" d="M43.5216 14.6146C41.8693 14.0156 40.1586 13.5927 38.4176 13.3527H38.199C37.9324 14.7018 37.3665 15.974 36.543 17.0755C37.2882 17.3404 41.6138 18.5791 43.2003 18.917C45.267 14.2834 44.641 16.062 43.5216 14.6146Z" fill="#FFBEB3"/>
<path id="Vector_12" d="M32.9584 13.2096C32.9584 13.2096 33.1571 11.0965 32.9385 10.9243C32.7199 10.752 32.4914 11.0037 32.4914 11.0037C32.4577 10.8461 32.3759 10.7027 32.2572 10.5936C32.1385 10.4844 31.9889 10.4148 31.829 10.3943C31.2758 10.3513 30.3087 11.1793 30.2193 11.6099C30.1299 12.0404 31.3189 13.6468 31.3189 13.6468L32.9584 13.2096Z" fill="#FFBEB3"/>
<path id="Vector_13" d="M48.2149 7.26489C48.2149 7.26489 47.7578 6.32425 47.5524 5.90693C47.3471 5.48961 47.8837 5.1319 47.8837 5.1319C47.8593 5.01784 47.8594 4.89991 47.884 4.7859C47.9085 4.67188 47.957 4.56437 48.0262 4.47047C48.0953 4.37656 48.1837 4.2984 48.2853 4.24114C48.3869 4.18387 48.4995 4.14881 48.6156 4.13827C49.4966 4.01904 50.0431 4.07866 50.3015 4.58541C50.5598 5.09216 49.8113 6.93368 49.8113 6.93368" fill="#FFBEB3"/>
<path id="Vector_14" d="M39.6032 12.9151C39.4574 12.892 37.5033 12.7462 36.6488 13.8856C36.117 14.6146 35.6983 15.4197 35.4067 16.2736L37.0065 17.4395L36.5494 24.9447C36.5494 24.9447 38.7553 26.1668 40.4875 26.0012C42.2197 25.8356 44.2235 24.8354 44.2235 24.8354V17.8038L47.2938 16.2769L46.648 13.412C46.648 13.412 43.4353 13.879 42.8656 13.8094C42.2959 13.7399 42.3058 13.3424 39.6032 12.9151Z" fill="#F7CF6A"/>
<path id="Vector_15" d="M42.0647 11.093L39.574 11.6859V14.1865C39.9311 14.4082 40.3414 14.5294 40.7616 14.5376C41.1819 14.5458 41.5965 14.4405 41.962 14.2329C41.9929 13.1863 42.0271 12.1396 42.0647 11.093Z" fill="#EFA49A"/>
<path id="Vector_16" d="M45.5486 7.58164C45.5204 7.37624 45.4514 7.17856 45.3457 7.0002C45.24 6.82184 45.0997 6.66639 44.9331 6.54298C44.7665 6.41957 44.5769 6.33069 44.3755 6.28154C44.1741 6.2324 43.9648 6.22399 43.7601 6.2568C43.4406 6.28568 43.1316 6.38539 42.8554 6.54867C42.5793 6.71195 42.343 6.93471 42.1637 7.20075C40.766 6.62113 39.1431 7.22062 38.4939 8.07846C38.2603 8.34391 38.1315 8.68538 38.1315 9.03896C38.1315 9.39255 38.2603 9.73402 38.4939 9.99947L41.0376 12.8942C41.4913 12.7942 41.9349 12.6523 42.3624 12.4703C43.0878 12.1391 43.6873 10.7447 43.6873 9.48941C43.9571 9.54219 44.2362 9.5216 44.4954 9.42979C44.8577 9.29123 45.1608 9.03126 45.3528 8.69424C45.5449 8.35721 45.6141 7.96399 45.5486 7.58164Z" fill="#050817"/>
<path id="Vector_17" d="M38.4834 9.99963C38.4834 9.99963 38.5463 13.6694 39.5466 13.9079C39.9192 13.981 40.3054 13.9333 40.649 13.7719C40.9927 13.6105 41.276 13.3437 41.4577 13.0103C41.5625 12.8046 41.6213 12.5786 41.6299 12.3479C41.6299 12.3479 42.5606 11.9405 42.395 11.4006C42.2294 10.8608 41.6564 11.5762 41.504 11.5C41.3192 11.4387 41.1607 11.3166 41.0542 11.1536C40.9477 10.9906 40.8996 10.7963 40.9178 10.6024C40.8979 9.90358 39.381 10.6289 38.4834 9.99963Z" fill="#FFBEB3"/>
<path id="Vector_18" d="M16.3463 24.6733C16.3463 24.6733 13.5972 19.4369 16.6112 19.4866L23.093 15.4028L23.1427 10.6665L24.5536 9.8219C24.5536 9.8219 26.1335 14.6443 25.8288 16.3765C25.5241 18.1088 21.1654 21.3612 20.0856 22.0965C18.6283 23.0868 16.3463 24.6733 16.3463 24.6733Z" fill="#FFBEB3"/>
<path id="Vector_19" d="M17.4882 18.8232L20.532 16.826L22.1615 20.8006L20.532 23.1687" fill="#01818C"/>
<path id="Vector_20" d="M17.8533 59.1713C17.8015 59.3268 17.786 59.492 17.8078 59.6545C17.8296 59.8169 17.8882 59.9722 17.9792 60.1086C18.2938 60.4663 21.7781 62.3443 23.4176 61.8905C25.0571 61.4367 24.8749 60.8969 24.8584 60.6253" fill="#2648A9"/>
<path id="Vector_21" d="M12.96 61.0955C12.8357 61.4571 12.8185 61.847 12.9103 62.2183C13.0693 62.7979 14.5365 65.2786 15.8249 65.4774C17.1134 65.6761 18.3256 65.3449 18.2527 64.2916" fill="#2648A9"/>
<path id="Vector_22" d="M16.733 46.4567C16.733 46.4567 16.1302 49.6793 15.9911 50.7624C15.852 51.8454 15.3287 60.4138 15.3287 60.4138C15.3287 60.4138 14.186 61.9871 13.6528 61.6029C13.1195 61.2187 12.6889 54.3163 12.944 51.554C13.199 48.7917 13.6991 44.8602 13.6991 44.8602" fill="#FFBEB3"/>
<path id="Vector_23" d="M21.0687 43.3191C21.135 43.4681 20.0552 58.2699 20.0552 58.2699C20.0552 58.2699 19.2305 59.1973 18.2601 58.674C18.2601 58.674 17.0181 48.6648 18.3065 44.6274" fill="#FFBEB3"/>
<path id="Vector_24" d="M13.9486 31.2506C13.9486 31.2506 12.7728 36.6095 12.5873 38.5372C12.4018 40.4648 12.6701 47.2778 12.6701 47.2778C12.6701 47.2778 16.4956 49.2915 17.8602 46.1682C17.8602 46.1682 18.6286 47.0492 21.8148 45.1746C21.8148 45.1746 21.9009 34.6322 20.8046 32.3435C19.7083 30.0549 14.2798 30.3894 13.9486 31.2506Z" fill="#050817"/>
<path id="Vector_25" d="M12.5765 19.8508C11.4864 20.4943 10.692 21.5395 10.364 22.7622C9.80426 24.8256 8.66821 28.863 8.52579 29.4923C8.38337 30.1216 7.92962 35.3713 7.92962 35.3713C7.92962 35.3713 7.36987 37.0273 7.36987 37.4712C7.39018 37.8493 7.449 38.2244 7.54541 38.5907C7.54541 38.5907 8.20783 39.1868 8.53904 39.1868C8.87025 39.1868 9.79764 39.0477 9.83407 38.8358C9.8705 38.6238 9.13522 38.3456 9.23789 37.7858C9.34057 37.2261 9.75458 37.2261 9.98643 37.4546C10.2183 37.6831 10.4965 37.1731 10.4965 37.1731C10.4965 37.1731 9.65522 36.1596 9.23789 35.7389C9.23789 35.7389 10.778 30.2972 11.0562 29.5023C11.3344 28.7074 12.4175 26.21 12.752 25.9881C13.0865 25.7662 14.2756 26.1869 15.15 23.5968C16.0244 21.0067 12.5765 19.8508 12.5765 19.8508Z" fill="#FFBEB3"/>
<path id="Vector_26" d="M20.9169 21.6524C20.8175 20.4932 20.3803 19.0955 19.1217 18.7278C18.7401 18.6288 18.3425 18.6074 17.9525 18.6649L16.429 18.8934L14.4616 19.1882C14.4616 19.1882 12.9182 19.4168 12.5803 19.8506C12.5803 19.8506 14.4583 20.778 14.3788 22.7918C14.3258 24.2027 13.7396 26.1039 12.7426 26.0012C12.7426 26.0012 13.0937 32.4598 13.4978 33.3905C13.4978 33.3905 17.9525 34.4106 21.0725 32.2842C21.0725 32.2876 21.1156 23.9444 20.9169 21.6524Z" fill="#01818C"/>
<path id="Vector_27" d="M15.0502 16.826C15.1044 17.2848 15.1044 17.7484 15.0502 18.2072C14.9536 18.5883 14.7488 18.9333 14.4607 19.2008C14.4607 19.2008 16.5308 21.7876 18.1603 21.5193C19.7899 21.251 17.4979 18.8497 17.4979 18.8497C17.4979 18.8497 17.6767 18.906 17.6502 18.1575" fill="#FFBEB3"/>
<path id="Vector_28" d="M13.4778 59.3638C13.4778 59.3638 13.66 61.2219 13.9978 60.8575C14.3356 60.4932 13.8786 59.377 14.4781 59.4002C15.0775 59.4234 15.4319 59.2843 15.4982 59.5625C15.5644 59.8407 16.2368 61.881 17.2536 62.7289C18.2704 63.5768 18.701 64.4843 17.6775 64.5439C17.4129 64.5757 17.1656 64.6919 16.9721 64.8751C16.6872 65.1632 15.4684 64.9943 14.9616 64.4511C14.4549 63.908 12.9744 61.5762 12.9744 61.0993C12.9744 60.6224 13.0207 59.4731 13.4778 59.3638Z" fill="#050817"/>
<path id="Vector_29" d="M19.754 58.4596C19.754 58.4596 19.446 57.7012 19.7872 57.5554C20.1283 57.4097 20.4695 57.2242 20.6384 57.4296C20.8073 57.6349 20.91 58.0522 21.0425 58.1748C21.1749 58.2973 24.0962 59.7447 24.5334 60.162C24.9706 60.5794 24.8812 60.8443 24.7487 60.7615C24.6162 60.6787 24.4407 60.5595 24.3545 60.7615C24.2684 60.9636 24.2817 61.6657 23.7319 61.6293C23.1821 61.5929 22.1156 61.6889 21.5227 61.1954C20.9298 60.7019 19.4361 60.3243 18.873 60.0594C18.31 59.7944 17.8529 59.5493 17.8529 59.1717C17.8529 58.7941 17.896 57.5786 18.1411 57.5389C18.3862 57.4991 18.3 58.2245 18.6876 58.4166C19.0325 58.5279 19.4013 58.5428 19.754 58.4596Z" fill="#050817"/>
<path id="Vector_30" d="M17.5215 18.8465L17.5016 18.8233L15.8455 17.3395L15.203 17.8495C15.3598 18.0603 15.529 18.2616 15.7098 18.4523C16.2695 18.9359 17.0114 19.3367 17.5215 18.8465Z" fill="#CC7158"/>
<path id="Vector_31" d="M19.0047 12.9341C18.8694 12.7872 18.6907 12.6874 18.4946 12.6492C18.4523 12.5778 18.4023 12.5112 18.3456 12.4505C18.1207 12.2046 17.8102 12.0541 17.4778 12.0299C17.3539 12.0227 17.2301 12.0454 17.1168 12.0961C16.9262 11.9815 16.7123 11.9113 16.4908 11.8907C16.2659 11.8695 16.0404 11.9256 15.8516 12.0497C15.5391 11.9328 15.1934 11.9423 14.8878 12.0762C14.6772 12.1726 14.5031 12.334 14.391 12.5366C14.2129 12.5691 14.0444 12.6414 13.8982 12.748C13.752 12.8547 13.6317 12.993 13.5464 13.1527C13.4783 13.2684 13.4344 13.3968 13.4173 13.53C13.4002 13.6632 13.4103 13.7985 13.447 13.9277C13.3454 14.066 13.2831 14.2293 13.2668 14.4001C13.2504 14.571 13.2807 14.7431 13.3543 14.8981C13.4199 15.0371 13.5148 15.1603 13.6325 15.2591C13.6301 15.2922 13.6301 15.3254 13.6325 15.3585C13.7034 15.8089 13.8694 16.2391 14.1194 16.6204C14.2253 16.7794 14.3474 16.9271 14.4837 17.0609C14.5731 17.1504 14.6659 17.2332 14.7619 17.316C14.858 17.3988 14.8381 17.4418 14.8282 17.369C14.8395 17.476 14.8805 17.5777 14.9467 17.6625C15.0128 17.7474 15.1014 17.8121 15.2024 17.8492C15.6456 17.5573 15.9915 17.1399 16.196 16.6502C16.2077 16.6288 16.225 16.6109 16.2459 16.5985C16.2669 16.586 16.2909 16.5794 16.3153 16.5794C16.3397 16.5794 16.3636 16.586 16.3846 16.5985C16.4056 16.6109 16.4228 16.6288 16.4345 16.6502L18.2363 14.7226C18.4521 14.6736 18.6517 14.5703 18.8163 14.4225C18.981 14.2747 19.1051 14.0873 19.1769 13.878C19.2325 13.7192 19.2458 13.5487 19.2156 13.3833C19.1854 13.2178 19.1128 13.063 19.0047 12.9341Z" fill="#583228"/>
<path id="Vector_32" d="M18.7241 14.1873C18.8201 14.0018 19.4395 18.4731 17.9954 18.7911C16.5513 19.109 15.7333 17.3834 15.7333 17.3834C15.7333 17.3834 14.362 16.6051 15.0708 16.1182C15.7796 15.6313 16.1042 16.307 16.1042 16.307C16.1042 16.307 15.773 14.3827 16.6706 14.545C17.5681 14.7073 18.3432 14.9192 18.7241 14.1873Z" fill="#FFBEB3"/>
<path id="Vector_33" d="M12.6698 47.27L12.852 58.0078C12.852 58.0078 15.0545 58.4715 16.6013 58.0078L17.7241 46.9156L17.3928 56.2491C17.3928 56.2491 19.4563 56.8254 21.056 56.2061L21.8277 45.1702" fill="#050817"/>
<path id="Vector_34" d="M13.0043 19.5681C13.0043 19.5681 11.2754 20.4624 10.5335 22.0522C9.96709 23.2677 9.15894 25.6955 9.15894 25.6955L11.9842 27.3085L13.256 26.1658C13.256 26.1658 14.8226 24.1786 14.8657 23.0392C14.9087 21.8998 14.4152 19.641 13.0043 19.5681Z" fill="#01818C"/>
<path id="Vector_35" d="M23.151 10.666C23.151 10.666 22.1342 9.60278 22.1574 9.28482C22.1707 9.19014 22.2081 9.10047 22.2661 9.02448C22.3241 8.94848 22.4007 8.88871 22.4886 8.85094C22.4886 8.85094 22.1574 8.04279 22.8927 7.75464C23.6279 7.46648 24.7673 7.42343 24.9097 7.75464C25.0521 8.08584 24.552 9.82138 24.552 9.82138C24.552 9.82138 23.6478 11.239 23.151 10.666Z" fill="#FFBEB3"/>
<path id="Vector_36" d="M60.334 15.9581C59.1913 15.978 57.8003 15.1301 57.6612 13.9212C57.7549 13.9272 57.8489 13.9272 57.9427 13.9212C58.6382 13.8913 59.7577 13.3846 59.7809 12.5533C59.8041 11.7219 58.721 11.6391 58.1547 11.8677C57.8885 11.9765 57.6546 12.1518 57.4754 12.3768C57.2963 12.6018 57.1778 12.8689 57.1312 13.1527C56.9894 13.0838 56.8569 12.997 56.7371 12.8944C56.2866 12.4922 55.9855 11.9494 55.8826 11.3543C55.8327 11.1024 55.8226 10.8442 55.8528 10.5892C56.1235 10.6814 56.4139 10.6997 56.694 10.6422C57.3929 10.4998 58.2838 9.61212 57.6446 8.90333C57.1114 8.30715 56.174 8.68142 55.7501 9.19811C55.6502 9.32113 55.5636 9.45435 55.4917 9.59556C55.2414 9.32539 55.1029 8.97027 55.1042 8.60193C55.1075 8.29003 55.1842 7.98329 55.3281 7.70653C55.4719 7.42976 55.6789 7.19074 55.9322 7.00881C56.237 6.77034 55.8097 6.34639 55.5083 6.58486C55.0934 6.89332 54.7861 7.32443 54.6298 7.81719C54.4734 8.30995 54.476 8.83939 54.6372 9.33059C54.7621 9.68399 54.978 9.99818 55.2632 10.2414C54.9883 11.6259 55.7832 13.2985 57.0915 13.7787C57.1107 14.112 57.1915 14.4388 57.3299 14.7425C57.6028 15.3019 58.0323 15.7699 58.5662 16.0898C59.1001 16.4097 59.7154 16.5676 60.3373 16.5443C60.4031 16.5282 60.4615 16.4904 60.5032 16.4369C60.5449 16.3835 60.5673 16.3176 60.5669 16.2499C60.5665 16.1822 60.5434 16.1165 60.5011 16.0636C60.4588 16.0106 60.4 15.9735 60.334 15.9581ZM57.7108 13.2587L58.042 12.646H58.0685C58.1514 12.5496 58.2527 12.4706 58.3664 12.4137C58.4802 12.3569 58.6041 12.3232 58.731 12.3148C58.7988 12.2968 58.8709 12.3028 58.9348 12.3317C58.9988 12.3607 59.0508 12.4109 59.082 12.4738C59.088 12.501 59.088 12.5293 59.082 12.5566C59.1648 12.8315 58.6449 13.1163 58.5024 13.1826C58.249 13.2998 57.969 13.3478 57.691 13.3217C57.7009 13.2985 57.7042 13.2786 57.7075 13.2587H57.7108ZM56.6708 9.21467C56.7262 9.19183 56.787 9.18562 56.8458 9.19679C56.9046 9.20797 56.9589 9.23605 57.0021 9.2776C57.3333 9.54919 56.9822 9.94001 56.651 10.0328C56.4445 10.0934 56.2249 10.0934 56.0184 10.0328C56.2138 9.67836 56.5185 9.15836 56.6708 9.21467Z" fill="#464DAA"/>
<path id="Vector_37" d="M5.82292 22.2608C4.68025 22.2807 3.28917 21.4328 3.15007 20.2239C3.24381 20.2299 3.33785 20.2299 3.43159 20.2239C4.12713 20.194 5.24662 19.6873 5.26981 18.856C5.29299 18.0246 4.20993 17.9418 3.64357 18.1704C3.37589 18.2794 3.14081 18.4555 2.96097 18.6817C2.78114 18.908 2.66261 19.1767 2.61682 19.4621C2.47495 19.3931 2.3425 19.3063 2.22268 19.2037C1.77222 18.8015 1.47107 18.2587 1.36816 17.6636C1.31826 17.4117 1.3082 17.1535 1.33835 16.8985C1.60906 16.9907 1.89948 17.009 2.17962 16.9515C2.87847 16.8091 3.76943 15.9214 3.13019 15.2127C2.59695 14.6165 1.65962 14.9907 1.23568 15.5074C1.13582 15.6305 1.04923 15.7637 0.977333 15.9049C0.726968 15.6347 0.588469 15.2796 0.589816 14.9113C0.593125 14.5994 0.669805 14.2926 0.813654 14.0159C0.957503 13.7391 1.16448 13.5001 1.41784 13.3181C1.72255 13.0797 1.29529 12.6557 0.993892 12.8942C0.579036 13.2026 0.271696 13.6338 0.115368 14.1265C-0.0409594 14.6193 -0.0383546 15.1487 0.122812 15.6399C0.247687 15.9933 0.46362 16.3075 0.748798 16.5507C0.473894 17.9352 1.2688 19.6078 2.57707 20.0881C2.59628 20.4213 2.67714 20.7481 2.81554 21.0519C3.08844 21.6112 3.51793 22.0793 4.05181 22.3991C4.58569 22.719 5.20099 22.8769 5.82292 22.8537C5.89225 22.8409 5.95491 22.8043 6.00002 22.7501C6.04513 22.696 6.06983 22.6277 6.06983 22.5572C6.06983 22.4867 6.04513 22.4185 6.00002 22.3643C5.95491 22.3102 5.89225 22.2735 5.82292 22.2608ZM3.19975 19.5614L3.53096 18.9487H3.55745C3.64033 18.8523 3.7416 18.7733 3.85533 18.7164C3.96907 18.6596 4.09299 18.6259 4.21987 18.6175C4.28775 18.5995 4.35977 18.6055 4.42374 18.6344C4.48771 18.6634 4.53972 18.7136 4.57095 18.7765C4.57687 18.8038 4.57687 18.832 4.57095 18.8593C4.65376 19.1342 4.13376 19.419 3.99134 19.4853C3.7379 19.6025 3.4579 19.6505 3.17987 19.6244C3.18981 19.5979 3.19312 19.5813 3.19643 19.5614H3.19975ZM2.15975 15.5174C2.2151 15.4945 2.2759 15.4883 2.33473 15.4995C2.39355 15.5107 2.44784 15.5388 2.49096 15.5803C2.82217 15.8519 2.47109 16.2427 2.13988 16.3355C1.93336 16.3961 1.71378 16.3961 1.50727 16.3355C1.70268 15.9777 2.00408 15.4511 2.15975 15.5174Z" fill="#DD582A"/>
<path id="Vector_38" d="M64.4136 22.9076C64.152 22.6561 63.8064 22.5104 63.4437 22.4988C63.0809 22.4872 62.7267 22.6104 62.4496 22.8447C61.9693 23.2686 62.6748 23.9708 63.1517 23.5469C63.3471 23.3746 63.685 23.5469 63.8141 23.7191C64.0758 24.0503 64.036 24.5802 63.9797 24.9711C63.9478 25.0961 63.9642 25.2286 64.0255 25.3422C64.0869 25.4557 64.1888 25.542 64.3109 25.5838C64.4361 25.6191 64.5701 25.6042 64.6845 25.5424C64.7988 25.4806 64.8846 25.3766 64.9237 25.2526C65.0628 24.4345 65.0694 23.4939 64.4136 22.9076Z" fill="#DD582A"/>
<path id="Vector_39" d="M21.8698 3.04116C20.7271 2.59734 19.4321 3.55784 19.4122 4.74688C19.4122 5.38612 20.4059 5.38612 20.4059 4.74688C20.4169 4.60962 20.46 4.47685 20.5316 4.35924C20.6033 4.24163 20.7015 4.14246 20.8184 4.06967C20.9353 3.99689 21.0676 3.95252 21.2048 3.94014C21.3419 3.92775 21.4801 3.94769 21.6081 3.99835C22.2043 4.2302 22.4627 3.26969 21.8698 3.04116Z" fill="#F7CF6A"/>
<path id="Vector_40" d="M33.27 2.75745C33.1382 2.75745 33.0119 2.80979 32.9187 2.90296C32.8255 2.99613 32.7732 3.1225 32.7732 3.25426C32.7732 3.38602 32.8255 3.51239 32.9187 3.60556C33.0119 3.69873 33.1382 3.75107 33.27 3.75107C33.4018 3.75107 33.5281 3.69873 33.6213 3.60556C33.7145 3.51239 33.7668 3.38602 33.7668 3.25426C33.7668 3.1225 33.7145 2.99613 33.6213 2.90296C33.5281 2.80979 33.4018 2.75745 33.27 2.75745Z" fill="#DD582A"/>
<path id="Vector_41" d="M30.3957 25.5629C30.264 25.5629 30.1376 25.6152 30.0444 25.7084C29.9513 25.8015 29.8989 25.9279 29.8989 26.0597C29.8989 26.1914 29.9513 26.3178 30.0444 26.411C30.1376 26.5042 30.264 26.5565 30.3957 26.5565C30.5275 26.5565 30.6539 26.5042 30.747 26.411C30.8402 26.3178 30.8926 26.1914 30.8926 26.0597C30.8926 25.9279 30.8402 25.8015 30.747 25.7084C30.6539 25.6152 30.5275 25.5629 30.3957 25.5629Z" fill="#CFE217"/>
<path id="Vector_42" d="M54.4881 18.784L53.2924 20.5825C52.938 21.119 53.7991 21.6158 54.1502 21.0826L55.3393 19.2841C55.7003 18.7641 54.8391 18.2508 54.4881 18.784Z" fill="#F7CF6A"/>
<path id="Vector_43" d="M10.2974 10.8146L9.3336 10.076C9.21962 10.0107 9.0845 9.9928 8.95745 10.0263C8.8304 10.0597 8.72162 10.1419 8.65462 10.2549C8.59181 10.3694 8.57535 10.5037 8.60862 10.63C8.6419 10.7564 8.72238 10.8651 8.83347 10.9339L9.79729 11.6724C9.91128 11.7378 10.0464 11.7557 10.1734 11.7222C10.3005 11.6887 10.4093 11.6066 10.4763 11.4936C10.5391 11.379 10.5555 11.2448 10.5223 11.1184C10.489 10.9921 10.4085 10.8834 10.2974 10.8146Z" fill="#464DAA"/>
<path id="Vector_44" d="M41.5964 0.255943C41.3281 -0.323673 40.4703 0.179765 40.7386 0.756069C40.783 0.884209 40.7999 1.02025 40.7883 1.15535C40.7767 1.29046 40.7368 1.42161 40.6712 1.54029C40.6056 1.65898 40.5158 1.76255 40.4076 1.84427C40.2993 1.92599 40.1752 1.98405 40.0431 2.01466C39.4038 2.16371 38.7944 1.6404 38.5824 1.07403C38.3704 0.507662 37.4 0.74282 37.6252 1.339C38.0459 2.46511 39.2415 3.35606 40.4736 2.92218C40.7296 2.83036 40.9638 2.68638 41.1612 2.49936C41.3587 2.31233 41.5151 2.08634 41.6207 1.83569C41.7262 1.58504 41.7786 1.3152 41.7744 1.04327C41.7702 0.771336 41.7096 0.503232 41.5964 0.255943Z" fill="#CFE217"/>
<path id="Vector_45" d="M46.4989 36.4237C46.4989 36.4237 45.2635 35.9169 45.2072 35.7612C44.9567 35.3683 44.6695 35.0001 44.3493 34.6616C44.2734 34.7472 44.2272 34.8551 44.2176 34.9691C44.2081 35.0831 44.2357 35.1972 44.2963 35.2942C44.4984 35.5493 44.6607 35.6851 44.5911 35.7778C44.5216 35.8705 41.9911 34.7146 41.8686 34.7279C41.746 34.7411 41.7891 35.1319 42.0706 35.3207L42.5277 35.6023C42.5277 35.6023 41.8321 35.4267 41.8023 35.5228C41.79 35.6198 41.813 35.7181 41.8671 35.7995C41.9212 35.881 42.0029 35.9403 42.0971 35.9666C42.0971 35.9666 41.7659 36.0461 42.0574 36.2779C42.1707 36.3897 42.3093 36.4727 42.4614 36.5197C42.4614 36.5197 42.1667 36.5197 42.2726 36.735C42.3786 36.9503 43.1371 36.9503 43.2994 37.0298C44.2601 37.3059 45.2414 37.5042 46.2339 37.6226C46.8003 37.616 46.4989 36.4237 46.4989 36.4237Z" fill="#FFB5A9"/>
<path id="Vector_46" d="M49.3164 26.8743C48.976 26.3971 48.6066 25.9414 48.2102 25.5097C47.9949 25.3573 46.4216 25.1089 46.2693 24.9003C46.1169 24.6916 47.4683 24.622 47.6173 24.6684C47.7663 24.7148 46.1004 23.1051 46.2329 22.7706C46.3653 22.4361 47.7498 23.9199 47.7498 23.9199C47.7498 23.9199 46.425 22.3036 46.6336 22.0817C46.8423 21.8598 47.9187 23.486 48.0744 23.4595C48.23 23.433 47.4385 22.2506 47.6869 22.0419C47.9353 21.8333 48.8097 23.4959 48.8097 23.4959C48.8097 23.4959 48.8097 22.4857 49.0051 22.4493C49.2005 22.4129 49.2634 23.9464 49.2932 24.1219C49.323 24.2975 50.4823 26.1092 50.4823 26.1092" fill="#FFB5A9"/>
<path id="Vector_47" d="M55.4514 30.4616C55.14 30.2231 49.8208 24.9801 49.8208 24.9801C49.8208 24.9801 48.6086 25.3941 48.496 26.2255C48.496 26.2255 52.0962 31.7533 53.2124 32.5184" fill="#DD582A"/>
<path id="Vector_48" d="M57.7659 73.5789L59.0344 72.8768L58.7032 71.0651C58.7032 71.0651 56.812 71.2439 56.6464 71.9163" fill="#003B94"/>
<path id="Vector_49" d="M57.2904 73.5528C57.0056 73.3773 56.7042 73.2216 56.4127 73.0626C55.6774 72.6619 54.6209 72.2445 54.1671 71.4927C54.0748 71.3407 54.0311 71.1641 54.0417 70.9866C54.0524 70.809 54.1169 70.639 54.2267 70.4991C54.8892 69.6942 56.3465 71.0158 57.0917 70.1248C57.2407 69.9493 57.307 67.1439 57.307 67.1439L60.1388 67.9057C60.1388 67.9057 60.6191 73.5363 60.5628 73.8675C60.5065 74.1987 59.536 74.5464 59.536 74.5464C59.2459 74.4853 58.9689 74.3731 58.7179 74.2152C58.4198 74 58.6914 71.3668 58.3139 71.7345C57.9363 72.1021 57.7707 73.5462 57.7707 73.5462C57.6115 73.5682 57.4502 73.5705 57.2904 73.5528Z" fill="#01818C"/>
<path id="Vector_50" d="M52.3474 76.2945L53.6159 75.5924L53.2847 73.7806C53.2847 73.7806 51.3935 73.9595 51.2279 74.6318" fill="#003B94"/>
<path id="Vector_51" d="M51.8703 76.2684C51.5854 76.0929 51.284 75.9372 50.9925 75.7782C50.2573 75.3774 49.2007 74.9601 48.7469 74.2083C48.6547 74.0562 48.6109 73.8797 48.6216 73.7021C48.6322 73.5246 48.6968 73.3545 48.8066 73.2146C49.469 72.4098 50.9263 73.7313 51.6715 72.8404C51.8206 72.6648 51.8868 69.8595 51.8868 69.8595L54.7186 70.6213C54.7186 70.6213 55.1989 76.2518 55.1426 76.583C55.0863 76.9143 54.1158 77.262 54.1158 77.262C53.8257 77.2009 53.5487 77.0887 53.2978 76.9308C52.9997 76.7155 53.2713 74.0824 52.8937 74.4501C52.5161 74.8177 52.3505 76.2618 52.3505 76.2618C52.1913 76.2838 52.03 76.286 51.8703 76.2684Z" fill="#01818C"/>
<path id="Vector_52" d="M61.5722 58.0387L62.3903 69.1905C62.3903 69.1905 61.0655 71.0221 56.6074 70.0053L56.5643 62.4835" fill="#06577A"/>
<path id="Vector_53" d="M56.4086 60.2473C56.5047 61.2078 56.4086 71.7999 56.4086 71.7999C56.4086 71.7999 55.1765 74.1184 49.8109 71.7999L49.8871 62.8009" fill="#06577A"/>
<path id="Vector_54" d="M61.1154 60.9009C59.7256 61.7085 58.2504 62.3594 56.717 62.8418H56.6839C56.6472 62.8242 56.6075 62.8142 56.5669 62.8123C56.5263 62.8105 56.4858 62.8169 56.4477 62.8311C56.4096 62.8454 56.3749 62.8671 56.3454 62.8951C56.316 62.9232 56.2926 62.9568 56.2765 62.9941C55.3288 63.2762 54.3642 63.4974 53.3883 63.6566C52.1364 63.8586 51.0964 62.9312 49.8146 62.865C49.8146 57.9399 49.7914 43.9132 51.888 40.9489L58.0849 38.8755C58.1147 39.3856 61.0956 42.85 61.0227 47.053C60.9753 50.7891 61.1589 54.5246 61.5725 58.238" fill="#06577A"/>
<path id="Vector_55" d="M51.3046 35.2746L51.8776 40.925C51.8776 40.925 56.5145 41.1138 58.5017 39.736V34.9434" fill="#DD582A"/>
<path id="Vector_56" d="M54.2501 30.1205C54.2501 30.1205 52.0641 30.71 51.1798 32.1276C50.4975 33.2173 50.1398 37.1819 50.1398 37.1819L46.2613 36.0491C46.1028 36.6644 45.7983 37.2325 45.3737 37.7052C45.3737 37.7052 47.6921 39.3016 49.7158 39.7388C51.7395 40.176 53.8924 36.7281 53.8924 36.7281C53.8924 36.7281 54.3395 38.1589 54.2501 36.6321" fill="#DD582A"/>
<path id="Vector_57" d="M52.8589 35.5557C53.496 35.0347 53.9753 34.3466 54.2433 33.5684C54.505 32.6742 54.1771 31.8892 53.8691 31.0579C53.5381 30.2395 53.3435 29.3724 53.2928 28.491C53.2663 27.6199 53.3656 26.7522 53.4253 25.8844C53.4338 25.8473 53.4338 25.8088 53.4253 25.7718C53.7167 24.7781 54.3162 23.9634 55.4953 23.8607C58.5491 23.6024 58.7213 26.984 58.6981 28.3585C58.6749 29.733 58.5292 30.677 59.5394 31.24C60.5496 31.8031 61.2849 33.3233 60.3177 34.5521C59.3506 35.7809 60.2184 35.3272 60.8642 36.4102C61.5101 37.4933 61.3412 38.8446 60.0196 39.3348C58.6981 39.825 52.5509 38.9042 51.9845 38.3412C51.7842 38.112 51.6808 37.8138 51.6963 37.5098C51.8336 36.7388 52.2468 36.0442 52.8589 35.5557Z" fill="#F7CF6A"/>
</g>
</g>
<defs>
<linearGradient id="paint0_linear_102_411" x1="5439.19" y1="3014.16" x2="5859.49" y2="2411.69" gradientUnits="userSpaceOnUse">
<stop stop-color="#FFC49E" stop-opacity="0"/>
<stop offset="1" stop-color="#C1272D"/>
</linearGradient>
<linearGradient id="paint1_linear_102_411" x1="4468.7" y1="2936.85" x2="5039.39" y2="2298.73" gradientUnits="userSpaceOnUse">
<stop stop-color="#FFC49E" stop-opacity="0"/>
<stop offset="1" stop-color="#C1272D"/>
</linearGradient>
</defs>
</svg>
