<svg width="315" height="129" viewBox="0 0 315 129" fill="none" xmlns="http://www.w3.org/2000/svg">
<g clip-path="url(#clip0_560_2954)">
<rect width="315" height="129" rx="15" fill="#EAF7FC"/>
<path d="M199.241 99.1999C202.677 99.1923 205.456 96.4012 205.448 92.9658C205.44 89.5303 202.649 86.7515 199.214 86.7592C195.778 86.7668 193 89.5579 193.007 92.9933C193.015 96.4287 195.806 99.2075 199.241 99.1999Z" fill="#32959D" fill-opacity="0.5"/>
<path d="M194.894 86.9062C197.965 86.8993 200.449 84.4044 200.442 81.3335C200.435 78.2626 197.941 75.7787 194.87 75.7855C191.799 75.7923 189.315 78.2873 189.322 81.3582C189.328 84.429 191.823 86.913 194.894 86.9062Z" fill="#32959D" fill-opacity="0.5"/>
<path d="M193.064 73.9537C195.77 73.9477 197.959 71.7489 197.953 69.0426C197.947 66.3363 195.748 64.1472 193.042 64.1532C190.336 64.1592 188.146 66.358 188.152 69.0643C188.158 71.7706 190.357 73.9597 193.064 73.9537Z" fill="#32959D" fill-opacity="0.5"/>
<path d="M193.767 60.8865C196.109 60.8813 198.003 58.9787 197.998 56.6369C197.992 54.2951 196.09 52.4009 193.748 52.4061C191.406 52.4113 189.512 54.3139 189.517 56.6557C189.522 58.9975 191.425 60.8917 193.767 60.8865Z" fill="#32959D" fill-opacity="0.5"/>
<path d="M197.004 48.2304C198.981 48.226 200.58 46.6196 200.576 44.6424C200.571 42.6651 198.965 41.0658 196.988 41.0702C195.011 41.0746 193.411 42.681 193.416 44.6582C193.42 46.6355 195.026 48.2348 197.004 48.2304Z" fill="#32959D" fill-opacity="0.5"/>
<path d="M202.651 36.5063C204.264 36.5027 205.569 35.1923 205.565 33.5794C205.562 31.9665 204.251 30.6618 202.638 30.6654C201.025 30.669 199.721 31.9794 199.724 33.5923C199.728 35.2052 201.038 36.5099 202.651 36.5063Z" fill="#32959D" fill-opacity="0.5"/>
<path d="M210.45 26.1798C211.698 26.177 212.708 25.1628 212.705 23.9144C212.702 22.666 211.688 21.6563 210.44 21.6591C209.191 21.6618 208.181 22.6761 208.184 23.9244C208.187 25.1728 209.201 26.1826 210.45 26.1798Z" fill="#32959D" fill-opacity="0.5"/>
<path d="M220.059 17.6541C220.943 17.6521 221.658 16.9341 221.656 16.0502C221.654 15.1664 220.936 14.4515 220.052 14.4535C219.168 14.4554 218.453 15.1735 218.455 16.0573C218.457 16.9412 219.175 17.6561 220.059 17.6541Z" fill="#32959D" fill-opacity="0.5"/>
<path d="M302.926 106.185C306.362 106.178 309.141 103.387 309.133 99.9511C309.125 96.5157 306.334 93.7369 302.899 93.7445C299.463 93.7521 296.685 96.5433 296.692 99.9787C296.7 103.414 299.491 106.193 302.926 106.185Z" fill="#32959D" fill-opacity="0.5"/>
<path d="M294.946 115.035C298.013 115.028 300.494 112.536 300.487 109.469C300.481 106.402 297.989 103.921 294.922 103.928C291.855 103.934 289.374 106.426 289.38 109.493C289.387 112.56 291.879 115.041 294.946 115.035Z" fill="#32959D" fill-opacity="0.5"/>
<path d="M285.187 122.045C287.886 122.039 290.069 119.846 290.063 117.148C290.057 114.449 287.864 112.266 285.166 112.272C282.467 112.278 280.284 114.47 280.29 117.169C280.296 119.868 282.488 122.051 285.187 122.045Z" fill="#32959D" fill-opacity="0.5"/>
<path d="M274.056 126.885C276.386 126.88 278.271 124.986 278.266 122.656C278.261 120.326 276.368 118.441 274.037 118.446C271.707 118.451 269.822 120.344 269.827 122.675C269.832 125.005 271.726 126.89 274.056 126.885Z" fill="#32959D" fill-opacity="0.5"/>
<path d="M262.03 129.305C263.992 129.301 265.579 127.707 265.575 125.744C265.571 123.782 263.976 122.195 262.014 122.2C260.052 122.204 258.465 123.798 258.47 125.76C258.474 127.722 260.068 129.309 262.03 129.305Z" fill="#32959D" fill-opacity="0.5"/>
<path d="M249.613 129.192C251.207 129.188 252.496 127.893 252.493 126.3C252.489 124.706 251.194 123.417 249.601 123.42C248.007 123.424 246.718 124.719 246.721 126.312C246.725 127.906 248.02 129.195 249.613 129.192Z" fill="#32959D" fill-opacity="0.5"/>
<path d="M237.343 126.534C238.568 126.531 239.559 125.535 239.557 124.31C239.554 123.085 238.558 122.093 237.333 122.096C236.108 122.099 235.116 123.094 235.119 124.32C235.122 125.545 236.117 126.536 237.343 126.534Z" fill="#32959D" fill-opacity="0.5"/>
<path d="M225.755 121.904C226.9 121.901 227.826 120.971 227.824 119.826C227.821 118.68 226.891 117.754 225.746 117.757C224.6 117.759 223.674 118.69 223.677 119.835C223.679 120.98 224.61 121.906 225.755 121.904Z" fill="#32959D" fill-opacity="0.5"/>
<path d="M257.685 12.5681C261.12 12.5605 263.899 9.76934 263.892 6.33392C263.884 2.8985 261.093 0.119713 257.657 0.127327C254.222 0.134941 251.443 2.92607 251.451 6.36149C251.458 9.79691 254.25 12.5757 257.685 12.5681Z" fill="#32959D" fill-opacity="0.5"/>
<path d="M270.373 14.2054C273.427 14.1986 275.897 11.7176 275.89 8.6639C275.883 5.61019 273.402 3.14016 270.349 3.14693C267.295 3.15369 264.825 5.6347 264.832 8.6884C264.838 11.7421 267.319 14.2121 270.373 14.2054Z" fill="#32959D" fill-opacity="0.5"/>
<path d="M282.244 18.5033C284.916 18.4974 287.077 16.3265 287.071 13.6545C287.065 10.9825 284.895 8.82125 282.223 8.82717C279.551 8.83309 277.389 11.004 277.395 13.676C277.401 16.348 279.572 18.5092 282.244 18.5033Z" fill="#32959D" fill-opacity="0.5"/>
<path d="M292.787 25.2319C295.077 25.2268 296.929 23.3661 296.924 21.0758C296.919 18.7855 295.059 16.933 292.768 16.9381C290.478 16.9432 288.625 18.8039 288.631 21.0942C288.636 23.3845 290.496 25.237 292.787 25.2319Z" fill="#32959D" fill-opacity="0.5"/>
<path d="M301.511 34.0294C303.419 34.0251 304.963 32.4745 304.959 30.5659C304.955 28.6574 303.404 27.1136 301.496 27.1178C299.587 27.1221 298.043 28.6727 298.047 30.5813C298.052 32.4898 299.602 34.0336 301.511 34.0294Z" fill="#32959D" fill-opacity="0.5"/>
<path d="M308.018 44.4655C309.545 44.4621 310.78 43.2216 310.777 41.6947C310.773 40.1679 309.533 38.9329 308.006 38.9363C306.479 38.9396 305.244 40.1801 305.247 41.707C305.251 43.2338 306.491 44.4689 308.018 44.4655Z" fill="#32959D" fill-opacity="0.5"/>
<path d="M311.99 56.0403C313.135 56.0377 314.061 55.1074 314.058 53.9622C314.056 52.8171 313.126 51.8908 311.98 51.8934C310.835 51.8959 309.909 52.8263 309.912 53.9714C309.914 55.1165 310.844 56.0428 311.99 56.0403Z" fill="#32959D" fill-opacity="0.5"/>
<path d="M313.249 68.8752C314.394 68.8727 315.321 67.9423 315.318 66.7972C315.315 65.652 314.385 64.7258 313.24 64.7283C312.095 64.7309 311.169 65.6612 311.171 66.8064C311.174 67.9515 312.104 68.8778 313.249 68.8752Z" fill="#32959D" fill-opacity="0.5"/>
<path d="M239.75 108.988C242.151 108.983 244.093 107.032 244.088 104.631C244.082 102.23 242.131 100.288 239.73 100.293C237.329 100.298 235.387 102.249 235.392 104.65C235.398 107.051 237.349 108.994 239.75 108.988Z" fill="#32959D" fill-opacity="0.5"/>
<path d="M231.851 104.926C233.997 104.921 235.734 103.177 235.729 101.03C235.724 98.884 233.98 97.1478 231.834 97.1525C229.687 97.1573 227.951 98.9012 227.956 101.048C227.961 103.194 229.705 104.93 231.851 104.926Z" fill="#32959D" fill-opacity="0.5"/>
<path d="M224.871 99.2933C226.763 99.2891 228.293 97.7522 228.288 95.8606C228.284 93.969 226.747 92.4389 224.856 92.4431C222.964 92.4473 221.434 93.9841 221.438 95.8758C221.442 97.7674 222.979 99.2975 224.871 99.2933Z" fill="#32959D" fill-opacity="0.5"/>
<path d="M219.086 92.3514C220.722 92.3478 222.046 91.0179 222.043 89.3812C222.039 87.7444 220.709 86.4205 219.073 86.4241C217.436 86.4277 216.112 87.7575 216.115 89.3943C216.119 91.0311 217.449 92.355 219.086 92.3514Z" fill="#32959D" fill-opacity="0.5"/>
<path d="M214.756 84.3605C216.138 84.3574 217.256 83.2345 217.253 81.8523C217.25 80.4702 216.127 79.3522 214.745 79.3553C213.363 79.3584 212.245 80.4813 212.248 81.8634C212.251 83.2456 213.374 84.3636 214.756 84.3605Z" fill="#32959D" fill-opacity="0.5"/>
<path d="M212.079 75.6388C213.206 75.6363 214.118 74.7205 214.115 73.5931C214.113 72.4658 213.197 71.554 212.07 71.5565C210.942 71.559 210.031 72.4749 210.033 73.6022C210.036 74.7295 210.951 75.6413 212.079 75.6388Z" fill="#32959D" fill-opacity="0.5"/>
<path d="M211.156 66.5451C212.028 66.5432 212.734 65.8343 212.732 64.9619C212.73 64.0894 212.021 63.3837 211.149 63.3857C210.276 63.3876 209.57 64.0964 209.572 64.9689C209.574 65.8413 210.283 66.547 211.156 66.5451Z" fill="#32959D" fill-opacity="0.5"/>
<path d="M212.018 57.4463C212.636 57.4449 213.136 56.943 213.134 56.3251C213.133 55.7073 212.631 55.2076 212.013 55.2089C211.395 55.2103 210.895 55.7123 210.897 56.3301C210.898 56.9479 211.4 57.4477 212.018 57.4463Z" fill="#32959D" fill-opacity="0.5"/>
<path d="M294.448 61.1962C296.849 61.1909 298.791 59.2401 298.786 56.839C298.78 54.4379 296.829 52.4958 294.428 52.5011C292.027 52.5064 290.085 54.4572 290.09 56.8583C290.096 59.2594 292.047 61.2016 294.448 61.1962Z" fill="#32959D" fill-opacity="0.5"/>
<path d="M295.207 69.3763C297.35 69.3716 299.084 67.6298 299.08 65.4861C299.075 63.3423 297.333 61.6082 295.189 61.613C293.046 61.6177 291.311 63.3595 291.316 65.5033C291.321 67.6471 293.063 69.3811 295.207 69.3763Z" fill="#32959D" fill-opacity="0.5"/>
<path d="M294.178 77.5278C296.064 77.5236 297.59 75.9911 297.586 74.1048C297.581 72.2186 296.049 70.6928 294.163 70.697C292.276 70.7012 290.751 72.2337 290.755 74.12C290.759 76.0063 292.292 77.532 294.178 77.5278Z" fill="#32959D" fill-opacity="0.5"/>
<path d="M291.398 85.2838C293.027 85.2802 294.344 83.9569 294.341 82.3281C294.337 80.6994 293.014 79.3819 291.385 79.3856C289.756 79.3892 288.439 80.7125 288.442 82.3412C288.446 83.9699 289.769 85.2874 291.398 85.2838Z" fill="#32959D" fill-opacity="0.5"/>
<path d="M286.978 92.2861C288.35 92.2831 289.459 91.1689 289.456 89.7974C289.453 88.426 288.339 87.3167 286.967 87.3197C285.596 87.3227 284.487 88.437 284.49 89.8084C284.493 91.1799 285.607 92.2892 286.978 92.2861Z" fill="#32959D" fill-opacity="0.5"/>
<path d="M281.115 98.2306C282.229 98.2281 283.13 97.3231 283.127 96.2092C283.125 95.0952 282.22 94.1942 281.106 94.1967C279.992 94.1992 279.091 95.1042 279.094 96.2181C279.096 97.332 280.001 98.233 281.115 98.2306Z" fill="#32959D" fill-opacity="0.5"/>
<path d="M274.067 102.844C274.923 102.842 275.616 102.146 275.614 101.29C275.612 100.433 274.916 99.7408 274.06 99.7427C273.203 99.7446 272.511 100.44 272.512 101.297C272.514 102.153 273.21 102.846 274.067 102.844Z" fill="#32959D" fill-opacity="0.5"/>
<path d="M266.122 106.252C266.923 106.251 267.57 105.6 267.568 104.8C267.567 103.999 266.916 103.352 266.116 103.354C265.315 103.355 264.668 104.006 264.67 104.806C264.671 105.607 265.322 106.254 266.122 106.252Z" fill="#32959D" fill-opacity="0.5"/>
<path d="M225.818 37.2866C228.219 37.2812 230.161 35.3305 230.156 32.9294C230.151 30.5283 228.2 28.5861 225.799 28.5914C223.398 28.5968 221.455 30.5475 221.461 32.9486C221.466 35.3497 223.417 37.2919 225.818 37.2866Z" fill="#32959D" fill-opacity="0.5"/>
<path d="M233.24 31.6833C235.374 31.6786 237.101 29.9444 237.096 27.81C237.091 25.6756 235.357 23.9491 233.223 23.9538C231.088 23.9586 229.362 25.6927 229.367 27.8271C229.371 29.9616 231.106 31.688 233.24 31.6833Z" fill="#32959D" fill-opacity="0.5"/>
<path d="M241.573 27.7984C243.44 27.7943 244.951 26.277 244.947 24.4095C244.943 22.5419 243.425 21.0313 241.558 21.0355C239.69 21.0396 238.18 22.5569 238.184 24.4245C238.188 26.292 239.705 27.8026 241.573 27.7984Z" fill="#32959D" fill-opacity="0.5"/>
<path d="M250.449 25.771C252.05 25.7675 253.345 24.467 253.341 22.8664C253.337 21.2657 252.037 19.971 250.436 19.9745C248.836 19.9781 247.541 21.2785 247.545 22.8792C247.548 24.4799 248.849 25.7746 250.449 25.771Z" fill="#32959D" fill-opacity="0.5"/>
<path d="M259.451 25.6643C260.785 25.6614 261.864 24.5776 261.861 23.2436C261.858 21.9096 260.774 20.8306 259.44 20.8335C258.106 20.8365 257.027 21.9203 257.03 23.2543C257.033 24.5883 258.117 25.6673 259.451 25.6643Z" fill="#32959D" fill-opacity="0.5"/>
<path d="M268.166 27.464C269.233 27.4617 270.096 26.5947 270.093 25.5276C270.091 24.4605 269.224 23.5974 268.157 23.5997C267.09 23.6021 266.227 24.4691 266.229 25.5362C266.232 26.6033 267.098 27.4664 268.166 27.464Z" fill="#32959D" fill-opacity="0.5"/>
<path d="M276.191 31.0805C276.991 31.0787 277.638 30.4284 277.637 29.628C277.635 28.8275 276.985 28.1801 276.184 28.1818C275.384 28.1836 274.736 28.8339 274.738 29.6344C274.74 30.4348 275.39 31.0823 276.191 31.0805Z" fill="#32959D" fill-opacity="0.5"/>
<path d="M283.156 36.8012C283.957 36.7994 284.604 36.1491 284.603 35.3487C284.601 34.5482 283.95 33.9008 283.15 33.9025C282.35 33.9043 281.702 34.5546 281.704 35.3551C281.706 36.1555 282.356 36.803 283.156 36.8012Z" fill="#32959D" fill-opacity="0.5"/>
<path d="M279.833 40.8818C273.469 34.5131 265.006 31.0039 255.99 31C237.41 31 222.29 46.1151 222.283 64.6938C222.281 70.6325 223.833 76.4296 226.782 81.5395L222 99L239.868 94.3147C244.791 96.9995 250.335 98.4143 255.975 98.4166H255.99H255.99C274.566 98.4166 289.689 83.2988 289.696 64.7211C289.7 55.717 286.196 47.2509 279.833 40.8818ZM255.99 92.7256H255.979C250.951 92.7229 246.02 91.3731 241.72 88.8211L240.696 88.2144L230.093 90.9945L232.924 80.6599L232.257 79.6004C229.452 75.141 227.972 69.9876 227.974 64.6959C227.98 49.254 240.547 36.6912 256 36.6912C263.484 36.6943 270.517 39.6112 275.807 44.9047C281.096 50.1981 284.007 57.2349 284.005 64.7187C283.999 80.1611 271.431 92.7256 255.99 92.7256Z" fill="#E0E0E0"/>
<path d="M223.547 97.0623L228.11 80.3994C225.295 75.5228 223.814 69.9901 223.816 64.3238C223.823 46.5942 238.253 32.1699 255.982 32.1699C264.587 32.1738 272.663 35.5226 278.735 41.6005C284.809 47.6783 288.151 55.7571 288.148 64.3489C288.141 82.079 273.71 96.5045 255.983 96.5045C255.982 96.5045 255.984 96.5045 255.983 96.5045H255.969C250.586 96.5028 245.296 95.1515 240.598 92.5911L223.547 97.0623Z" fill="url(#paint0_linear_560_2954)"/>
<path fill-rule="evenodd" clip-rule="evenodd" d="M247.659 50.3897C247.036 49.0032 246.379 48.9755 245.786 48.9512C245.301 48.9304 244.745 48.9317 244.191 48.9317C243.635 48.9317 242.733 49.1403 241.971 49.9733C241.207 50.8064 239.056 52.8204 239.056 56.9164C239.056 61.0128 242.04 64.9709 242.456 65.5268C242.872 66.0819 248.215 74.7562 256.678 78.0932C263.71 80.8665 265.142 80.3149 266.668 80.1761C268.195 80.0373 271.594 78.1626 272.287 76.2185C272.981 74.2747 272.981 72.6086 272.773 72.2603C272.565 71.9134 272.01 71.7053 271.177 71.2889C270.345 70.8726 266.252 68.8582 265.488 68.5807C264.725 68.3031 264.17 68.1644 263.615 68.9979C263.06 69.8305 261.465 71.7053 260.98 72.2603C260.494 72.8167 260.008 72.8861 259.176 72.4698C258.343 72.0522 255.662 71.174 252.481 68.3378C250.006 66.1313 248.335 63.4061 247.849 62.5726C247.363 61.74 247.797 61.289 248.215 60.8739C248.588 60.5009 249.047 59.902 249.464 59.4159C249.879 58.9297 250.018 58.5828 250.295 58.0277C250.573 57.4717 250.434 56.9856 250.226 56.5693C250.018 56.153 248.4 52.0359 247.659 50.3897Z" fill="white"/>
<path d="M279.558 40.7743C273.267 34.4787 264.901 31.0098 255.988 31.0059C237.622 31.0059 222.676 45.9475 222.668 64.3128C222.666 70.1834 224.2 75.9139 227.116 80.9653L222.389 98.2252L240.052 93.5936C244.919 96.2477 250.398 97.6463 255.974 97.6484H255.988H255.988C274.352 97.6484 289.3 82.7042 289.308 64.3397C289.311 55.4391 285.848 47.0702 279.558 40.7743ZM255.988 92.0229H255.978C251.007 92.0203 246.133 90.6859 241.882 88.1633L240.87 87.5635L230.389 90.3117L233.187 80.0958L232.528 79.0485C229.755 74.6402 228.292 69.5459 228.294 64.315C228.3 49.0504 240.723 36.6319 255.999 36.6319C263.396 36.6349 270.349 39.5183 275.578 44.751C280.807 49.9837 283.684 56.9397 283.682 64.3376C283.675 79.6027 271.252 92.0229 255.988 92.0229Z" fill="white"/>
<path d="M28.1016 41.9922V46.5781C27.9141 46.7917 27.6276 47.0208 27.2422 47.2656C26.862 47.5104 26.375 47.7214 25.7812 47.8984C25.1875 48.0703 24.4792 48.1562 23.6562 48.1562C22.9115 48.1562 22.2344 48.0365 21.625 47.7969C21.0156 47.5521 20.4922 47.1953 20.0547 46.7266C19.6172 46.2526 19.2786 45.6745 19.0391 44.9922C18.8047 44.3099 18.6875 43.5286 18.6875 42.6484V41.9766C18.6875 41.0964 18.8047 40.3151 19.0391 39.6328C19.2734 38.9505 19.6042 38.375 20.0312 37.9062C20.4583 37.4323 20.9661 37.0729 21.5547 36.8281C22.1432 36.5833 22.7943 36.4609 23.5078 36.4609C24.5234 36.4609 25.3542 36.625 26 36.9531C26.6458 37.276 27.1354 37.724 27.4688 38.2969C27.8073 38.8698 28.0156 39.5286 28.0938 40.2734H25.6406C25.5885 39.8932 25.4844 39.5651 25.3281 39.2891C25.1771 39.013 24.9609 38.8021 24.6797 38.6562C24.3984 38.5052 24.0339 38.4297 23.5859 38.4297C23.2266 38.4297 22.901 38.5052 22.6094 38.6562C22.3229 38.8021 22.0807 39.0234 21.8828 39.3203C21.6849 39.6172 21.5339 39.987 21.4297 40.4297C21.3255 40.8672 21.2734 41.3776 21.2734 41.9609V42.6484C21.2734 43.2318 21.3255 43.7448 21.4297 44.1875C21.5391 44.6302 21.6979 45 21.9062 45.2969C22.1146 45.5885 22.3776 45.8099 22.6953 45.9609C23.0182 46.112 23.3932 46.1875 23.8203 46.1875C24.1536 46.1875 24.4349 46.1615 24.6641 46.1094C24.8932 46.0521 25.0807 45.9818 25.2266 45.8984C25.3724 45.8099 25.4818 45.7292 25.5547 45.6562V43.7656H23.5312V41.9922H28.1016ZM33.7031 48.1562C33.0312 48.1562 32.4297 48.0495 31.8984 47.8359C31.3672 47.6224 30.9167 47.3281 30.5469 46.9531C30.1823 46.5729 29.9036 46.1354 29.7109 45.6406C29.5182 45.1458 29.4219 44.6172 29.4219 44.0547V43.7578C29.4219 43.1276 29.5104 42.5469 29.6875 42.0156C29.8646 41.4844 30.1224 41.0234 30.4609 40.6328C30.8047 40.237 31.2266 39.9323 31.7266 39.7188C32.2266 39.5 32.7969 39.3906 33.4375 39.3906C34.0365 39.3906 34.5703 39.4896 35.0391 39.6875C35.5078 39.8802 35.9036 40.1589 36.2266 40.5234C36.5495 40.8828 36.7943 41.3177 36.9609 41.8281C37.1328 42.3333 37.2188 42.901 37.2188 43.5312V44.5312H30.4062V42.9609H34.8281V42.7734C34.8281 42.4766 34.7734 42.2161 34.6641 41.9922C34.5599 41.7682 34.4036 41.5964 34.1953 41.4766C33.9922 41.3516 33.7344 41.2891 33.4219 41.2891C33.125 41.2891 32.8776 41.3516 32.6797 41.4766C32.4818 41.6016 32.3229 41.7786 32.2031 42.0078C32.0885 42.2318 32.0052 42.4948 31.9531 42.7969C31.901 43.0938 31.875 43.4141 31.875 43.7578V44.0547C31.875 44.3828 31.9193 44.6823 32.0078 44.9531C32.0964 45.224 32.2266 45.4557 32.3984 45.6484C32.5703 45.8411 32.7786 45.9922 33.0234 46.1016C33.2682 46.2109 33.5469 46.2656 33.8594 46.2656C34.2448 46.2656 34.612 46.1927 34.9609 46.0469C35.3099 45.8958 35.612 45.6615 35.8672 45.3438L37.0078 46.6484C36.8359 46.8984 36.5938 47.1406 36.2812 47.375C35.974 47.6042 35.6042 47.7917 35.1719 47.9375C34.7396 48.0833 34.25 48.1562 33.7031 48.1562ZM42.7031 39.5469V41.2578H37.6875V39.5469H42.7031ZM38.8359 37.4531H41.2812V45.3516C41.2812 45.5859 41.3099 45.7656 41.3672 45.8906C41.4245 46.0156 41.5182 46.1042 41.6484 46.1562C41.7786 46.2031 41.9453 46.2266 42.1484 46.2266C42.2943 46.2266 42.4193 46.2214 42.5234 46.2109C42.6276 46.2005 42.724 46.1875 42.8125 46.1719V47.9375C42.6042 48.0052 42.3828 48.0573 42.1484 48.0938C41.9141 48.1354 41.6589 48.1562 41.3828 48.1562C40.8568 48.1562 40.401 48.0703 40.0156 47.8984C39.6354 47.7266 39.3438 47.4557 39.1406 47.0859C38.9375 46.7109 38.8359 46.224 38.8359 45.625V37.4531ZM55.6172 41.2031V43.1719H49.7266V41.2031H55.6172ZM50.5312 36.625V48H47.9844V36.625H50.5312ZM57.375 36.625V48H54.8359V36.625H57.375ZM63.125 48.1562C62.4531 48.1562 61.8516 48.0495 61.3203 47.8359C60.7891 47.6224 60.3385 47.3281 59.9688 46.9531C59.6042 46.5729 59.3255 46.1354 59.1328 45.6406C58.9401 45.1458 58.8438 44.6172 58.8438 44.0547V43.7578C58.8438 43.1276 58.9323 42.5469 59.1094 42.0156C59.2865 41.4844 59.5443 41.0234 59.8828 40.6328C60.2266 40.237 60.6484 39.9323 61.1484 39.7188C61.6484 39.5 62.2188 39.3906 62.8594 39.3906C63.4583 39.3906 63.9922 39.4896 64.4609 39.6875C64.9297 39.8802 65.3255 40.1589 65.6484 40.5234C65.9714 40.8828 66.2161 41.3177 66.3828 41.8281C66.5547 42.3333 66.6406 42.901 66.6406 43.5312V44.5312H59.8281V42.9609H64.25V42.7734C64.25 42.4766 64.1953 42.2161 64.0859 41.9922C63.9818 41.7682 63.8255 41.5964 63.6172 41.4766C63.4141 41.3516 63.1562 41.2891 62.8438 41.2891C62.5469 41.2891 62.2995 41.3516 62.1016 41.4766C61.9036 41.6016 61.7448 41.7786 61.625 42.0078C61.5104 42.2318 61.4271 42.4948 61.375 42.7969C61.3229 43.0938 61.2969 43.4141 61.2969 43.7578V44.0547C61.2969 44.3828 61.3411 44.6823 61.4297 44.9531C61.5182 45.224 61.6484 45.4557 61.8203 45.6484C61.9922 45.8411 62.2005 45.9922 62.4453 46.1016C62.6901 46.2109 62.9688 46.2656 63.2812 46.2656C63.6667 46.2656 64.0339 46.1927 64.3828 46.0469C64.7318 45.8958 65.0339 45.6615 65.2891 45.3438L66.4297 46.6484C66.2578 46.8984 66.0156 47.1406 65.7031 47.375C65.3958 47.6042 65.026 47.7917 64.5938 47.9375C64.1615 48.0833 63.6719 48.1562 63.125 48.1562ZM70.3984 36V48H67.9531V36H70.3984ZM74.6016 41.1719V51.25H72.1641V39.5469H74.4375L74.6016 41.1719ZM79.875 43.6797V43.8438C79.875 44.4583 79.8047 45.0286 79.6641 45.5547C79.5234 46.0755 79.3125 46.5312 79.0312 46.9219C78.7552 47.3125 78.4141 47.6172 78.0078 47.8359C77.6016 48.0495 77.1302 48.1562 76.5938 48.1562C76.0833 48.1562 75.6406 48.0495 75.2656 47.8359C74.8958 47.6172 74.5833 47.3151 74.3281 46.9297C74.0781 46.5391 73.875 46.0938 73.7188 45.5938C73.5677 45.0885 73.4505 44.5495 73.3672 43.9766V43.6562C73.4505 43.0469 73.5703 42.4818 73.7266 41.9609C73.8828 41.4401 74.0859 40.9896 74.3359 40.6094C74.5859 40.224 74.8958 39.9245 75.2656 39.7109C75.6354 39.4974 76.0755 39.3906 76.5859 39.3906C77.1172 39.3906 77.5885 39.4922 78 39.6953C78.4115 39.8984 78.7552 40.1901 79.0312 40.5703C79.3125 40.9453 79.5234 41.3958 79.6641 41.9219C79.8047 42.4479 79.875 43.0339 79.875 43.6797ZM77.4297 43.8438V43.6797C77.4297 43.3359 77.4036 43.0208 77.3516 42.7344C77.2995 42.4427 77.2161 42.1901 77.1016 41.9766C76.987 41.7578 76.8359 41.5885 76.6484 41.4688C76.4609 41.349 76.2318 41.2891 75.9609 41.2891C75.6693 41.2891 75.4219 41.3359 75.2188 41.4297C75.0156 41.5234 74.8516 41.6615 74.7266 41.8438C74.6016 42.0208 74.5104 42.2396 74.4531 42.5C74.401 42.7604 74.3724 43.0573 74.3672 43.3906V44.25C74.3724 44.6406 74.4271 44.9896 74.5312 45.2969C74.6406 45.599 74.8099 45.8359 75.0391 46.0078C75.2734 46.1745 75.5859 46.2578 75.9766 46.2578C76.2526 46.2578 76.4818 46.1979 76.6641 46.0781C76.8516 45.9531 77 45.7786 77.1094 45.5547C77.224 45.3307 77.3047 45.0729 77.3516 44.7812C77.4036 44.4896 77.4297 44.1771 77.4297 43.8438ZM87.9922 36.625V48H85.4531V36.625H87.9922ZM92.3125 41.3516V48H89.8672V39.5469H92.1641L92.3125 41.3516ZM91.9922 43.4766L91.3828 43.4922C91.3828 42.8568 91.4609 42.2865 91.6172 41.7812C91.7734 41.276 91.9948 40.8464 92.2812 40.4922C92.5729 40.1328 92.9193 39.8594 93.3203 39.6719C93.7266 39.4844 94.1745 39.3906 94.6641 39.3906C95.0599 39.3906 95.4219 39.4479 95.75 39.5625C96.0781 39.6771 96.3594 39.862 96.5938 40.1172C96.8333 40.3672 97.0156 40.7005 97.1406 41.1172C97.2656 41.5286 97.3281 42.0365 97.3281 42.6406V48H94.875V42.6328C94.875 42.2786 94.8255 42.0052 94.7266 41.8125C94.6276 41.6198 94.4818 41.4844 94.2891 41.4062C94.1016 41.3281 93.8724 41.2891 93.6016 41.2891C93.3151 41.2891 93.0703 41.3464 92.8672 41.4609C92.6641 41.5703 92.4974 41.724 92.3672 41.9219C92.237 42.1198 92.1406 42.3516 92.0781 42.6172C92.0208 42.8828 91.9922 43.1693 91.9922 43.4766ZM103.422 45.6484C103.422 45.4922 103.372 45.3542 103.273 45.2344C103.18 45.1146 103.008 45.0052 102.758 44.9062C102.513 44.8073 102.167 44.7083 101.719 44.6094C101.297 44.5208 100.904 44.4062 100.539 44.2656C100.174 44.1198 99.8568 43.9453 99.5859 43.7422C99.3151 43.5339 99.1042 43.2891 98.9531 43.0078C98.8021 42.7214 98.7266 42.3958 98.7266 42.0312C98.7266 41.6771 98.8021 41.3411 98.9531 41.0234C99.1094 40.7057 99.3333 40.4245 99.625 40.1797C99.9219 39.9349 100.281 39.7422 100.703 39.6016C101.13 39.4609 101.615 39.3906 102.156 39.3906C102.901 39.3906 103.544 39.5078 104.086 39.7422C104.628 39.9714 105.044 40.2943 105.336 40.7109C105.628 41.1224 105.773 41.5938 105.773 42.125H103.336C103.336 41.9062 103.294 41.7161 103.211 41.5547C103.128 41.3932 103 41.2682 102.828 41.1797C102.656 41.0859 102.43 41.0391 102.148 41.0391C101.93 41.0391 101.737 41.0781 101.57 41.1562C101.409 41.2292 101.281 41.3307 101.188 41.4609C101.099 41.5911 101.055 41.7422 101.055 41.9141C101.055 42.0339 101.081 42.1432 101.133 42.2422C101.19 42.3359 101.276 42.4245 101.391 42.5078C101.51 42.5859 101.664 42.6562 101.852 42.7188C102.044 42.7812 102.279 42.8411 102.555 42.8984C103.143 43.0078 103.68 43.1615 104.164 43.3594C104.654 43.5573 105.044 43.8307 105.336 44.1797C105.633 44.5286 105.781 44.9896 105.781 45.5625C105.781 45.9375 105.695 46.2812 105.523 46.5938C105.357 46.9062 105.115 47.1797 104.797 47.4141C104.479 47.6484 104.099 47.8307 103.656 47.9609C103.214 48.0911 102.714 48.1562 102.156 48.1562C101.359 48.1562 100.685 48.013 100.133 47.7266C99.5807 47.4401 99.1641 47.0807 98.8828 46.6484C98.6068 46.2109 98.4688 45.763 98.4688 45.3047H100.758C100.768 45.5859 100.839 45.8151 100.969 45.9922C101.104 46.1693 101.279 46.2995 101.492 46.3828C101.706 46.4609 101.945 46.5 102.211 46.5C102.477 46.5 102.698 46.4635 102.875 46.3906C103.052 46.3177 103.188 46.2188 103.281 46.0938C103.375 45.9635 103.422 45.8151 103.422 45.6484ZM111.438 39.5469V41.2578H106.422V39.5469H111.438ZM107.57 37.4531H110.016V45.3516C110.016 45.5859 110.044 45.7656 110.102 45.8906C110.159 46.0156 110.253 46.1042 110.383 46.1562C110.513 46.2031 110.68 46.2266 110.883 46.2266C111.029 46.2266 111.154 46.2214 111.258 46.2109C111.362 46.2005 111.458 46.1875 111.547 46.1719V47.9375C111.339 48.0052 111.117 48.0573 110.883 48.0938C110.648 48.1354 110.393 48.1562 110.117 48.1562C109.591 48.1562 109.135 48.0703 108.75 47.8984C108.37 47.7266 108.078 47.4557 107.875 47.0859C107.672 46.7109 107.57 46.224 107.57 45.625V37.4531ZM117.086 45.9844V42.3594C117.086 42.1042 117.047 41.8854 116.969 41.7031C116.891 41.5208 116.768 41.3776 116.602 41.2734C116.435 41.1693 116.219 41.1172 115.953 41.1172C115.729 41.1172 115.534 41.1562 115.367 41.2344C115.206 41.3125 115.081 41.4245 114.992 41.5703C114.909 41.7161 114.867 41.8958 114.867 42.1094H112.43C112.43 41.7292 112.516 41.375 112.688 41.0469C112.859 40.7188 113.104 40.4297 113.422 40.1797C113.745 39.9297 114.13 39.737 114.578 39.6016C115.026 39.4609 115.529 39.3906 116.086 39.3906C116.747 39.3906 117.336 39.5026 117.852 39.7266C118.372 39.9453 118.784 40.276 119.086 40.7188C119.388 41.1562 119.539 41.7083 119.539 42.375V45.9141C119.539 46.4245 119.568 46.8255 119.625 47.1172C119.688 47.4036 119.776 47.6536 119.891 47.8672V48H117.43C117.315 47.7552 117.229 47.4531 117.172 47.0938C117.115 46.7292 117.086 46.3594 117.086 45.9844ZM117.391 42.8438L117.406 44.1875H116.195C115.924 44.1875 115.69 44.2214 115.492 44.2891C115.299 44.3568 115.143 44.4505 115.023 44.5703C114.904 44.6849 114.815 44.8203 114.758 44.9766C114.706 45.1276 114.68 45.2943 114.68 45.4766C114.68 45.6484 114.721 45.8047 114.805 45.9453C114.888 46.0807 115.003 46.1875 115.148 46.2656C115.294 46.3438 115.464 46.3828 115.656 46.3828C115.974 46.3828 116.245 46.3203 116.469 46.1953C116.698 46.0703 116.875 45.9193 117 45.7422C117.125 45.5599 117.188 45.3906 117.188 45.2344L117.773 46.25C117.68 46.4583 117.565 46.6745 117.43 46.8984C117.294 47.1172 117.122 47.3229 116.914 47.5156C116.706 47.7031 116.453 47.8568 116.156 47.9766C115.865 48.0964 115.513 48.1562 115.102 48.1562C114.57 48.1562 114.089 48.0495 113.656 47.8359C113.224 47.6172 112.878 47.3177 112.617 46.9375C112.362 46.5573 112.234 46.1198 112.234 45.625C112.234 45.1823 112.315 44.7891 112.477 44.4453C112.638 44.1016 112.88 43.8099 113.203 43.5703C113.531 43.3307 113.943 43.151 114.438 43.0312C114.932 42.9062 115.51 42.8438 116.172 42.8438H117.391ZM123.531 41.3516V48H121.086V39.5469H123.383L123.531 41.3516ZM123.211 43.4766L122.602 43.4922C122.602 42.8568 122.68 42.2865 122.836 41.7812C122.992 41.276 123.214 40.8464 123.5 40.4922C123.792 40.1328 124.138 39.8594 124.539 39.6719C124.945 39.4844 125.393 39.3906 125.883 39.3906C126.279 39.3906 126.641 39.4479 126.969 39.5625C127.297 39.6771 127.578 39.862 127.812 40.1172C128.052 40.3672 128.234 40.7005 128.359 41.1172C128.484 41.5286 128.547 42.0365 128.547 42.6406V48H126.094V42.6328C126.094 42.2786 126.044 42.0052 125.945 41.8125C125.846 41.6198 125.701 41.4844 125.508 41.4062C125.32 41.3281 125.091 41.2891 124.82 41.2891C124.534 41.2891 124.289 41.3464 124.086 41.4609C123.883 41.5703 123.716 41.724 123.586 41.9219C123.456 42.1198 123.359 42.3516 123.297 42.6172C123.24 42.8828 123.211 43.1693 123.211 43.4766ZM134.438 39.5469V41.2578H129.422V39.5469H134.438ZM130.57 37.4531H133.016V45.3516C133.016 45.5859 133.044 45.7656 133.102 45.8906C133.159 46.0156 133.253 46.1042 133.383 46.1562C133.513 46.2031 133.68 46.2266 133.883 46.2266C134.029 46.2266 134.154 46.2214 134.258 46.2109C134.362 46.2005 134.458 46.1875 134.547 46.1719V47.9375C134.339 48.0052 134.117 48.0573 133.883 48.0938C133.648 48.1354 133.393 48.1562 133.117 48.1562C132.591 48.1562 132.135 48.0703 131.75 47.8984C131.37 47.7266 131.078 47.4557 130.875 47.0859C130.672 46.7109 130.57 46.224 130.57 45.625V37.4531ZM138.18 36V48H135.734V36H138.18ZM142.484 47.0234L144.695 39.5469H147.32L143.922 49.2656C143.849 49.4792 143.75 49.7083 143.625 49.9531C143.505 50.1979 143.341 50.4323 143.133 50.6562C142.93 50.8802 142.669 51.0625 142.352 51.2031C142.034 51.3438 141.643 51.4141 141.18 51.4141C140.945 51.4141 140.763 51.401 140.633 51.375C140.508 51.3542 140.341 51.3177 140.133 51.2656L140.125 49.4922C140.193 49.4922 140.253 49.4922 140.305 49.4922C140.362 49.4974 140.419 49.5 140.477 49.5C140.768 49.5 141.003 49.4688 141.18 49.4062C141.362 49.3438 141.503 49.25 141.602 49.125C141.706 49.0052 141.789 48.8516 141.852 48.6641L142.484 47.0234ZM141.742 39.5469L143.492 45.5625L143.789 48.1484L142.141 48.2344L139.117 39.5469H141.742Z" fill="#455A64"/>
<rect x="18" y="68" width="143" height="28" rx="14" fill="#01818C"/>
<path d="M48.2266 76.125H49.9766L53.2656 84.8984L56.5469 76.125H58.2969L53.9531 87.5H52.5625L48.2266 76.125ZM47.4297 76.125H49.0938L49.3828 83.7188V87.5H47.4297V76.125ZM57.4297 76.125H59.1016V87.5H57.1406V83.7188L57.4297 76.125ZM64.9688 87.6562C64.3438 87.6562 63.7786 87.5547 63.2734 87.3516C62.7734 87.1432 62.3464 86.8542 61.9922 86.4844C61.6432 86.1146 61.375 85.6797 61.1875 85.1797C61 84.6797 60.9062 84.1406 60.9062 83.5625V83.25C60.9062 82.5885 61.0026 81.9896 61.1953 81.4531C61.388 80.9167 61.6562 80.4583 62 80.0781C62.3438 79.6927 62.75 79.3984 63.2188 79.1953C63.6875 78.9922 64.1953 78.8906 64.7422 78.8906C65.3464 78.8906 65.875 78.9922 66.3281 79.1953C66.7812 79.3984 67.1562 79.6849 67.4531 80.0547C67.7552 80.4193 67.9792 80.8542 68.125 81.3594C68.276 81.8646 68.3516 82.4219 68.3516 83.0312V83.8359H61.8203V82.4844H66.4922V82.3359C66.4818 81.9974 66.4141 81.6797 66.2891 81.3828C66.1693 81.0859 65.9844 80.8464 65.7344 80.6641C65.4844 80.4818 65.151 80.3906 64.7344 80.3906C64.4219 80.3906 64.1432 80.4583 63.8984 80.5938C63.6589 80.724 63.4583 80.9141 63.2969 81.1641C63.1354 81.4141 63.0104 81.7161 62.9219 82.0703C62.8385 82.4193 62.7969 82.8125 62.7969 83.25V83.5625C62.7969 83.9323 62.8464 84.276 62.9453 84.5938C63.0495 84.9062 63.2005 85.1797 63.3984 85.4141C63.5964 85.6484 63.8359 85.8333 64.1172 85.9688C64.3984 86.099 64.7188 86.1641 65.0781 86.1641C65.5312 86.1641 65.9349 86.0729 66.2891 85.8906C66.6432 85.7083 66.9505 85.4505 67.2109 85.1172L68.2031 86.0781C68.0208 86.3438 67.7839 86.599 67.4922 86.8438C67.2005 87.0833 66.8438 87.2786 66.4219 87.4297C66.0052 87.5807 65.5208 87.6562 64.9688 87.6562ZM74.5625 85.2109C74.5625 85.0234 74.5156 84.8542 74.4219 84.7031C74.3281 84.5469 74.1484 84.4062 73.8828 84.2812C73.6224 84.1562 73.237 84.0417 72.7266 83.9375C72.2786 83.8385 71.8672 83.7214 71.4922 83.5859C71.1224 83.4453 70.8047 83.276 70.5391 83.0781C70.2734 82.8802 70.0677 82.6458 69.9219 82.375C69.776 82.1042 69.7031 81.7917 69.7031 81.4375C69.7031 81.0938 69.7786 80.7682 69.9297 80.4609C70.0807 80.1536 70.2969 79.8828 70.5781 79.6484C70.8594 79.4141 71.2005 79.2292 71.6016 79.0938C72.0078 78.9583 72.4609 78.8906 72.9609 78.8906C73.6693 78.8906 74.276 79.0104 74.7812 79.25C75.2917 79.4844 75.6823 79.8047 75.9531 80.2109C76.224 80.612 76.3594 81.0651 76.3594 81.5703H74.4766C74.4766 81.3464 74.4193 81.138 74.3047 80.9453C74.1953 80.7474 74.0286 80.5885 73.8047 80.4688C73.5807 80.3438 73.2995 80.2812 72.9609 80.2812C72.638 80.2812 72.3698 80.3333 72.1562 80.4375C71.9479 80.5365 71.7917 80.6667 71.6875 80.8281C71.5885 80.9896 71.5391 81.1667 71.5391 81.3594C71.5391 81.5 71.5651 81.6276 71.6172 81.7422C71.6745 81.8516 71.7682 81.9531 71.8984 82.0469C72.0286 82.1354 72.2057 82.2188 72.4297 82.2969C72.6589 82.375 72.9453 82.4505 73.2891 82.5234C73.9349 82.6589 74.4896 82.8333 74.9531 83.0469C75.4219 83.2552 75.7812 83.526 76.0312 83.8594C76.2812 84.1875 76.4062 84.6042 76.4062 85.1094C76.4062 85.4844 76.3255 85.8281 76.1641 86.1406C76.0078 86.4479 75.7786 86.7161 75.4766 86.9453C75.1745 87.1693 74.8125 87.3438 74.3906 87.4688C73.974 87.5938 73.5052 87.6562 72.9844 87.6562C72.2188 87.6562 71.5703 87.5208 71.0391 87.25C70.5078 86.974 70.1042 86.6224 69.8281 86.1953C69.5573 85.763 69.4219 85.3151 69.4219 84.8516H71.2422C71.263 85.2005 71.3594 85.4792 71.5312 85.6875C71.7083 85.8906 71.9271 86.0391 72.1875 86.1328C72.4531 86.2214 72.7266 86.2656 73.0078 86.2656C73.3464 86.2656 73.6302 86.2214 73.8594 86.1328C74.0885 86.0391 74.263 85.9141 74.3828 85.7578C74.5026 85.5964 74.5625 85.4141 74.5625 85.2109ZM82.7969 85.2109C82.7969 85.0234 82.75 84.8542 82.6562 84.7031C82.5625 84.5469 82.3828 84.4062 82.1172 84.2812C81.8568 84.1562 81.4714 84.0417 80.9609 83.9375C80.513 83.8385 80.1016 83.7214 79.7266 83.5859C79.3568 83.4453 79.0391 83.276 78.7734 83.0781C78.5078 82.8802 78.3021 82.6458 78.1562 82.375C78.0104 82.1042 77.9375 81.7917 77.9375 81.4375C77.9375 81.0938 78.013 80.7682 78.1641 80.4609C78.3151 80.1536 78.5312 79.8828 78.8125 79.6484C79.0938 79.4141 79.4349 79.2292 79.8359 79.0938C80.2422 78.9583 80.6953 78.8906 81.1953 78.8906C81.9036 78.8906 82.5104 79.0104 83.0156 79.25C83.526 79.4844 83.9167 79.8047 84.1875 80.2109C84.4583 80.612 84.5938 81.0651 84.5938 81.5703H82.7109C82.7109 81.3464 82.6536 81.138 82.5391 80.9453C82.4297 80.7474 82.263 80.5885 82.0391 80.4688C81.8151 80.3438 81.5339 80.2812 81.1953 80.2812C80.8724 80.2812 80.6042 80.3333 80.3906 80.4375C80.1823 80.5365 80.026 80.6667 79.9219 80.8281C79.8229 80.9896 79.7734 81.1667 79.7734 81.3594C79.7734 81.5 79.7995 81.6276 79.8516 81.7422C79.9089 81.8516 80.0026 81.9531 80.1328 82.0469C80.263 82.1354 80.4401 82.2188 80.6641 82.2969C80.8932 82.375 81.1797 82.4505 81.5234 82.5234C82.1693 82.6589 82.724 82.8333 83.1875 83.0469C83.6562 83.2552 84.0156 83.526 84.2656 83.8594C84.5156 84.1875 84.6406 84.6042 84.6406 85.1094C84.6406 85.4844 84.5599 85.8281 84.3984 86.1406C84.2422 86.4479 84.013 86.7161 83.7109 86.9453C83.4089 87.1693 83.0469 87.3438 82.625 87.4688C82.2083 87.5938 81.7396 87.6562 81.2188 87.6562C80.4531 87.6562 79.8047 87.5208 79.2734 87.25C78.7422 86.974 78.3385 86.6224 78.0625 86.1953C77.7917 85.763 77.6562 85.3151 77.6562 84.8516H79.4766C79.4974 85.2005 79.5938 85.4792 79.7656 85.6875C79.9427 85.8906 80.1615 86.0391 80.4219 86.1328C80.6875 86.2214 80.9609 86.2656 81.2422 86.2656C81.5807 86.2656 81.8646 86.2214 82.0938 86.1328C82.3229 86.0391 82.4974 85.9141 82.6172 85.7578C82.737 85.5964 82.7969 85.4141 82.7969 85.2109ZM91.0547 85.8047V81.7734C91.0547 81.4714 91 81.2109 90.8906 80.9922C90.7812 80.7734 90.6146 80.6042 90.3906 80.4844C90.1719 80.3646 89.8958 80.3047 89.5625 80.3047C89.2552 80.3047 88.9896 80.3568 88.7656 80.4609C88.5417 80.5651 88.3672 80.7057 88.2422 80.8828C88.1172 81.0599 88.0547 81.2604 88.0547 81.4844H86.1797C86.1797 81.151 86.2604 80.8281 86.4219 80.5156C86.5833 80.2031 86.8177 79.9245 87.125 79.6797C87.4323 79.4349 87.7995 79.2422 88.2266 79.1016C88.6536 78.9609 89.1328 78.8906 89.6641 78.8906C90.2995 78.8906 90.862 78.9974 91.3516 79.2109C91.8464 79.4245 92.2344 79.7474 92.5156 80.1797C92.8021 80.6068 92.9453 81.1432 92.9453 81.7891V85.5469C92.9453 85.9323 92.9714 86.2786 93.0234 86.5859C93.0807 86.888 93.1615 87.151 93.2656 87.375V87.5H91.3359C91.2474 87.2969 91.1771 87.0391 91.125 86.7266C91.0781 86.4089 91.0547 86.1016 91.0547 85.8047ZM91.3281 82.3594L91.3438 83.5234H89.9922C89.6432 83.5234 89.3359 83.5573 89.0703 83.625C88.8047 83.6875 88.5833 83.7812 88.4062 83.9062C88.2292 84.0312 88.0964 84.1823 88.0078 84.3594C87.9193 84.5365 87.875 84.737 87.875 84.9609C87.875 85.1849 87.9271 85.3906 88.0312 85.5781C88.1354 85.7604 88.2865 85.9036 88.4844 86.0078C88.6875 86.112 88.9323 86.1641 89.2188 86.1641C89.6042 86.1641 89.9401 86.0859 90.2266 85.9297C90.5182 85.7682 90.7474 85.5729 90.9141 85.3438C91.0807 85.1094 91.1693 84.888 91.1797 84.6797L91.7891 85.5156C91.7266 85.7292 91.6198 85.9583 91.4688 86.2031C91.3177 86.4479 91.1198 86.6823 90.875 86.9062C90.6354 87.125 90.3464 87.3047 90.0078 87.4453C89.6745 87.5859 89.2891 87.6562 88.8516 87.6562C88.2995 87.6562 87.8073 87.5469 87.375 87.3281C86.9427 87.1042 86.6042 86.8047 86.3594 86.4297C86.1146 86.0495 85.9922 85.6198 85.9922 85.1406C85.9922 84.6927 86.0755 84.2969 86.2422 83.9531C86.4141 83.6042 86.6641 83.3125 86.9922 83.0781C87.3255 82.8438 87.7318 82.6667 88.2109 82.5469C88.6901 82.4219 89.237 82.3594 89.8516 82.3594H91.3281ZM100.328 79.0469H102.039V87.2656C102.039 88.026 101.878 88.6719 101.555 89.2031C101.232 89.7344 100.781 90.138 100.203 90.4141C99.625 90.6953 98.9557 90.8359 98.1953 90.8359C97.8724 90.8359 97.513 90.7891 97.1172 90.6953C96.7266 90.6016 96.3464 90.4505 95.9766 90.2422C95.612 90.0391 95.3073 89.7708 95.0625 89.4375L95.9453 88.3281C96.2474 88.6875 96.5807 88.9505 96.9453 89.1172C97.3099 89.2839 97.6927 89.3672 98.0938 89.3672C98.526 89.3672 98.8932 89.2865 99.1953 89.125C99.5026 88.9688 99.7396 88.737 99.9062 88.4297C100.073 88.1224 100.156 87.7474 100.156 87.3047V80.9609L100.328 79.0469ZM94.5859 83.3672V83.2031C94.5859 82.5625 94.6641 81.9792 94.8203 81.4531C94.9766 80.9219 95.2005 80.4661 95.4922 80.0859C95.7839 79.7005 96.138 79.4062 96.5547 79.2031C96.9714 78.9948 97.4427 78.8906 97.9688 78.8906C98.5156 78.8906 98.9818 78.9896 99.3672 79.1875C99.7578 79.3854 100.083 79.6693 100.344 80.0391C100.604 80.4036 100.807 80.8411 100.953 81.3516C101.104 81.8568 101.216 82.4193 101.289 83.0391V83.5625C101.221 84.1667 101.107 84.7188 100.945 85.2188C100.784 85.7188 100.57 86.151 100.305 86.5156C100.039 86.8802 99.7109 87.1615 99.3203 87.3594C98.9349 87.5573 98.4792 87.6562 97.9531 87.6562C97.4375 87.6562 96.9714 87.5495 96.5547 87.3359C96.1432 87.1224 95.7891 86.8229 95.4922 86.4375C95.2005 86.0521 94.9766 85.599 94.8203 85.0781C94.6641 84.5521 94.5859 83.9818 94.5859 83.3672ZM96.4688 83.2031V83.3672C96.4688 83.7526 96.5052 84.112 96.5781 84.4453C96.6562 84.7786 96.7734 85.0729 96.9297 85.3281C97.0911 85.5781 97.2943 85.776 97.5391 85.9219C97.7891 86.0625 98.0833 86.1328 98.4219 86.1328C98.8646 86.1328 99.2266 86.0391 99.5078 85.8516C99.7943 85.6641 100.013 85.4115 100.164 85.0938C100.32 84.7708 100.43 84.4115 100.492 84.0156V82.6016C100.461 82.2943 100.396 82.0078 100.297 81.7422C100.203 81.4766 100.076 81.2448 99.9141 81.0469C99.7526 80.8438 99.5495 80.6875 99.3047 80.5781C99.0599 80.4635 98.7708 80.4062 98.4375 80.4062C98.099 80.4062 97.8047 80.4792 97.5547 80.625C97.3047 80.7708 97.099 80.9714 96.9375 81.2266C96.7812 81.4818 96.6641 81.7786 96.5859 82.1172C96.5078 82.4557 96.4688 82.8177 96.4688 83.2031ZM107.719 87.6562C107.094 87.6562 106.529 87.5547 106.023 87.3516C105.523 87.1432 105.096 86.8542 104.742 86.4844C104.393 86.1146 104.125 85.6797 103.938 85.1797C103.75 84.6797 103.656 84.1406 103.656 83.5625V83.25C103.656 82.5885 103.753 81.9896 103.945 81.4531C104.138 80.9167 104.406 80.4583 104.75 80.0781C105.094 79.6927 105.5 79.3984 105.969 79.1953C106.438 78.9922 106.945 78.8906 107.492 78.8906C108.096 78.8906 108.625 78.9922 109.078 79.1953C109.531 79.3984 109.906 79.6849 110.203 80.0547C110.505 80.4193 110.729 80.8542 110.875 81.3594C111.026 81.8646 111.102 82.4219 111.102 83.0312V83.8359H104.57V82.4844H109.242V82.3359C109.232 81.9974 109.164 81.6797 109.039 81.3828C108.919 81.0859 108.734 80.8464 108.484 80.6641C108.234 80.4818 107.901 80.3906 107.484 80.3906C107.172 80.3906 106.893 80.4583 106.648 80.5938C106.409 80.724 106.208 80.9141 106.047 81.1641C105.885 81.4141 105.76 81.7161 105.672 82.0703C105.589 82.4193 105.547 82.8125 105.547 83.25V83.5625C105.547 83.9323 105.596 84.276 105.695 84.5938C105.799 84.9062 105.951 85.1797 106.148 85.4141C106.346 85.6484 106.586 85.8333 106.867 85.9688C107.148 86.099 107.469 86.1641 107.828 86.1641C108.281 86.1641 108.685 86.0729 109.039 85.8906C109.393 85.7083 109.701 85.4505 109.961 85.1172L110.953 86.0781C110.771 86.3438 110.534 86.599 110.242 86.8438C109.951 87.0833 109.594 87.2786 109.172 87.4297C108.755 87.5807 108.271 87.6562 107.719 87.6562ZM121.641 85.5078V79.0469H123.531V87.5H121.75L121.641 85.5078ZM121.906 83.75L122.539 83.7344C122.539 84.3021 122.477 84.8255 122.352 85.3047C122.227 85.7786 122.034 86.1927 121.773 86.5469C121.513 86.8958 121.18 87.1693 120.773 87.3672C120.367 87.5599 119.88 87.6562 119.312 87.6562C118.901 87.6562 118.523 87.5964 118.18 87.4766C117.836 87.3568 117.539 87.1719 117.289 86.9219C117.044 86.6719 116.854 86.3464 116.719 85.9453C116.583 85.5443 116.516 85.0651 116.516 84.5078V79.0469H118.398V84.5234C118.398 84.8307 118.435 85.0885 118.508 85.2969C118.581 85.5 118.68 85.6641 118.805 85.7891C118.93 85.9141 119.076 86.0026 119.242 86.0547C119.409 86.1068 119.586 86.1328 119.773 86.1328C120.31 86.1328 120.732 86.0286 121.039 85.8203C121.352 85.6068 121.573 85.3203 121.703 84.9609C121.839 84.6016 121.906 84.1979 121.906 83.75ZM130.203 85.2109C130.203 85.0234 130.156 84.8542 130.062 84.7031C129.969 84.5469 129.789 84.4062 129.523 84.2812C129.263 84.1562 128.878 84.0417 128.367 83.9375C127.919 83.8385 127.508 83.7214 127.133 83.5859C126.763 83.4453 126.445 83.276 126.18 83.0781C125.914 82.8802 125.708 82.6458 125.562 82.375C125.417 82.1042 125.344 81.7917 125.344 81.4375C125.344 81.0938 125.419 80.7682 125.57 80.4609C125.721 80.1536 125.938 79.8828 126.219 79.6484C126.5 79.4141 126.841 79.2292 127.242 79.0938C127.648 78.9583 128.102 78.8906 128.602 78.8906C129.31 78.8906 129.917 79.0104 130.422 79.25C130.932 79.4844 131.323 79.8047 131.594 80.2109C131.865 80.612 132 81.0651 132 81.5703H130.117C130.117 81.3464 130.06 81.138 129.945 80.9453C129.836 80.7474 129.669 80.5885 129.445 80.4688C129.221 80.3438 128.94 80.2812 128.602 80.2812C128.279 80.2812 128.01 80.3333 127.797 80.4375C127.589 80.5365 127.432 80.6667 127.328 80.8281C127.229 80.9896 127.18 81.1667 127.18 81.3594C127.18 81.5 127.206 81.6276 127.258 81.7422C127.315 81.8516 127.409 81.9531 127.539 82.0469C127.669 82.1354 127.846 82.2188 128.07 82.2969C128.299 82.375 128.586 82.4505 128.93 82.5234C129.576 82.6589 130.13 82.8333 130.594 83.0469C131.062 83.2552 131.422 83.526 131.672 83.8594C131.922 84.1875 132.047 84.6042 132.047 85.1094C132.047 85.4844 131.966 85.8281 131.805 86.1406C131.648 86.4479 131.419 86.7161 131.117 86.9453C130.815 87.1693 130.453 87.3438 130.031 87.4688C129.615 87.5938 129.146 87.6562 128.625 87.6562C127.859 87.6562 127.211 87.5208 126.68 87.25C126.148 86.974 125.745 86.6224 125.469 86.1953C125.198 85.763 125.062 85.3151 125.062 84.8516H126.883C126.904 85.2005 127 85.4792 127.172 85.6875C127.349 85.8906 127.568 86.0391 127.828 86.1328C128.094 86.2214 128.367 86.2656 128.648 86.2656C128.987 86.2656 129.271 86.2214 129.5 86.1328C129.729 86.0391 129.904 85.9141 130.023 85.7578C130.143 85.5964 130.203 85.4141 130.203 85.2109Z" fill="white"/>
</g>
<defs>
<linearGradient id="paint0_linear_560_2954" x1="255.847" y1="97.0623" x2="255.847" y2="32.17" gradientUnits="userSpaceOnUse">
<stop stop-color="#20B038"/>
<stop offset="1" stop-color="#60D66A"/>
</linearGradient>
<clipPath id="clip0_560_2954">
<rect width="315" height="129" fill="white"/>
</clipPath>
</defs>
</svg>
