<svg width="30" height="30" viewBox="0 0 30 30" fill="none" xmlns="http://www.w3.org/2000/svg">
<g id="Frame">
<path id="Vector" d="M16.0596 3.43918C15.7784 3.15797 15.3969 3 14.9991 3C14.6014 3 14.2199 3.15797 13.9386 3.43918L3.43865 13.9392C3.16541 14.2221 3.01422 14.601 3.01763 14.9943C3.02105 15.3876 3.17881 15.7638 3.45692 16.0419C3.73503 16.32 4.11125 16.4778 4.50454 16.4812C4.89784 16.4846 5.27674 16.3334 5.55965 16.0602L5.99915 15.6207V25.4997C5.99915 25.8975 6.15718 26.279 6.43849 26.5603C6.71979 26.8416 7.10132 26.9997 7.49915 26.9997H10.4991C10.897 26.9997 11.2785 26.8416 11.5598 26.5603C11.8411 26.279 11.9991 25.8975 11.9991 25.4997V22.4997C11.9991 22.1019 12.1572 21.7203 12.4385 21.439C12.7198 21.1577 13.1013 20.9997 13.4991 20.9997H16.4991C16.897 20.9997 17.2785 21.1577 17.5598 21.439C17.8411 21.7203 17.9991 22.1019 17.9991 22.4997V25.4997C17.9991 25.8975 18.1572 26.279 18.4385 26.5603C18.7198 26.8416 19.1013 26.9997 19.4991 26.9997H22.4991C22.897 26.9997 23.2785 26.8416 23.5598 26.5603C23.8411 26.279 23.9991 25.8975 23.9991 25.4997V15.6207L24.4386 16.0602C24.7215 16.3334 25.1005 16.4846 25.4937 16.4812C25.887 16.4778 26.2633 16.32 26.5414 16.0419C26.8195 15.7638 26.9772 15.3876 26.9807 14.9943C26.9841 14.601 26.8329 14.2221 26.5596 13.9392L16.0596 3.43918Z" fill="#455A64"/>
</g>
</svg>
