<svg width="315" height="100" viewBox="0 0 315 100" fill="none" xmlns="http://www.w3.org/2000/svg">
<g clip-path="url(#clip0_199_1775)">
<rect width="315" height="100" rx="15" fill="#455A64" fill-opacity="0.02"/>
<path fill-rule="evenodd" clip-rule="evenodd" d="M2.2462 96.8706C11.5653 108.195 19.9609 121.241 19.9609 135.907C19.9609 146.856 14.9587 157.051 10.3113 166.965C7.19961 173.603 5.46094 181.012 5.46094 188.828C5.46094 195.762 6.82933 202.376 9.31078 208.415C14.0784 220.018 19.9609 231.692 19.9609 244.236V251.047C19.9609 263.592 14.0784 275.265 9.31079 286.868C6.82933 292.907 5.46094 299.522 5.46094 306.455C5.46094 313.389 6.82933 320.003 9.31078 326.042C14.0784 337.645 19.9609 349.319 19.9609 361.863V368.705C19.9609 381.249 14.0784 392.923 9.31079 404.526C6.82933 410.565 5.46094 417.179 5.46094 424.113C5.46094 452.594 28.5496 475.683 57.031 475.683C85.5123 475.683 108.601 452.594 108.601 424.113C108.601 417.177 107.232 410.561 104.749 404.521C99.9789 392.915 94.0929 381.238 94.0929 368.69V361.878C94.0929 349.33 99.9789 337.653 104.749 326.047C107.232 320.007 108.601 313.391 108.601 306.455C108.601 299.52 107.232 292.904 104.749 286.863C99.9789 275.257 94.0929 263.581 94.0929 251.033V244.251C94.0929 231.703 99.9789 220.026 104.749 208.42C107.232 202.38 108.601 195.764 108.601 188.828C108.601 181.008 106.861 173.595 103.746 166.955C99.0963 157.042 94.0929 146.847 94.0929 135.898C94.0929 121.237 102.485 108.195 111.802 96.8749C121.882 84.6282 127.935 68.9423 127.935 51.8426C127.935 34.7435 121.882 19.058 111.803 6.81146C102.486 -4.50928 94.0929 -17.5522 94.0929 -32.2141C94.0929 -43.1643 99.0967 -53.3593 103.746 -63.2732C106.861 -69.9134 108.601 -77.3262 108.601 -85.1455C108.601 -92.0811 107.232 -98.697 104.749 -104.738C99.9789 -116.344 94.0929 -128.02 94.0929 -140.568V-147.35C94.0929 -159.898 99.9789 -171.575 104.749 -183.181C107.232 -189.221 108.601 -195.837 108.601 -202.773C108.601 -209.708 107.232 -216.324 104.749 -222.365C99.9789 -233.971 94.0929 -245.647 94.0929 -258.195V-265.007C94.0929 -277.555 99.9789 -289.232 104.749 -300.838C107.232 -306.879 108.601 -313.494 108.601 -320.43C108.601 -348.911 85.5123 -372 57.031 -372C28.5496 -372 5.46094 -348.911 5.46094 -320.43C5.46094 -313.496 6.82933 -306.882 9.31079 -300.843C14.0784 -289.24 19.9609 -277.566 19.9609 -265.022V-258.181C19.9609 -245.636 14.0784 -233.963 9.31078 -222.36C6.82933 -216.321 5.46094 -209.706 5.46094 -202.773C5.46094 -195.839 6.82933 -189.225 9.31078 -183.186C14.0784 -171.583 19.9609 -159.909 19.9609 -147.365V-140.553C19.9609 -128.009 14.0784 -116.336 9.31079 -104.733C6.82933 -98.6934 5.46094 -92.0793 5.46094 -85.1455C5.46094 -77.3302 7.19943 -69.9209 10.3108 -63.2833C14.9583 -53.3685 19.9609 -43.1731 19.9609 -32.2231C19.9609 -17.5564 11.5647 -4.50934 2.24521 6.81583C-7.83191 19.0617 -13.8828 34.7455 -13.8828 51.8426C-13.8828 68.9403 -7.83151 84.6246 2.2462 96.8706Z" fill="#A4DEDF"/>
<path fill-rule="evenodd" clip-rule="evenodd" d="M-13.871 96.8706C-4.55188 108.195 3.84375 121.241 3.84375 135.907C3.84375 146.856 -1.15846 157.051 -5.80592 166.965C-8.91758 173.603 -10.6562 181.012 -10.6562 188.828C-10.6562 195.762 -9.28786 202.376 -6.8064 208.415C-2.03881 220.018 3.84375 231.692 3.84375 244.236V251.047C3.84375 263.592 -2.0388 275.265 -6.80639 286.868C-9.28786 292.907 -10.6562 299.522 -10.6562 306.455C-10.6562 313.389 -9.28786 320.003 -6.8064 326.042C-2.03881 337.645 3.84375 349.319 3.84375 361.863V368.705C3.84375 381.249 -2.0388 392.923 -6.80639 404.526C-9.28786 410.565 -10.6562 417.179 -10.6562 424.113C-10.6562 452.594 12.4324 475.683 40.9138 475.683C69.3951 475.683 92.4838 452.594 92.4838 424.113C92.4838 417.177 91.1147 410.561 88.6319 404.521C83.8617 392.915 77.9757 381.238 77.9757 368.69V361.878C77.9757 349.33 83.8617 337.653 88.632 326.047C91.1147 320.007 92.4838 313.391 92.4838 306.455C92.4838 299.52 91.1147 292.904 88.6319 286.863C83.8617 275.257 77.9757 263.581 77.9757 251.033V244.251C77.9757 231.703 83.8617 220.026 88.632 208.42C91.1147 202.38 92.4838 195.764 92.4838 188.828C92.4838 181.008 90.7434 173.595 87.6287 166.955C82.9791 157.042 77.9757 146.847 77.9757 135.898C77.9757 121.237 86.368 108.195 95.685 96.8749C105.765 84.6282 111.818 68.9423 111.818 51.8426C111.818 34.7435 105.765 19.058 95.686 6.81146C86.3686 -4.50928 77.9757 -17.5522 77.9757 -32.2141C77.9757 -43.1643 82.9795 -53.3593 87.6292 -63.2732C90.7436 -69.9134 92.4838 -77.3262 92.4838 -85.1455C92.4838 -92.0811 91.1147 -98.697 88.6319 -104.738C83.8617 -116.344 77.9757 -128.02 77.9757 -140.568V-147.35C77.9757 -159.898 83.8617 -171.575 88.6319 -183.181C91.1147 -189.221 92.4838 -195.837 92.4838 -202.773C92.4838 -209.708 91.1147 -216.324 88.6319 -222.365C83.8617 -233.971 77.9757 -245.647 77.9757 -258.195V-265.007C77.9757 -277.555 83.8617 -289.232 88.6319 -300.838C91.1147 -306.879 92.4838 -313.494 92.4838 -320.43C92.4838 -348.911 69.3951 -372 40.9138 -372C12.4324 -372 -10.6562 -348.911 -10.6562 -320.43C-10.6562 -313.496 -9.28786 -306.882 -6.8064 -300.843C-2.03881 -289.24 3.84375 -277.566 3.84375 -265.022V-258.181C3.84375 -245.636 -2.03882 -233.963 -6.80641 -222.36C-9.28786 -216.321 -10.6562 -209.706 -10.6562 -202.773C-10.6562 -195.839 -9.28786 -189.225 -6.80641 -183.186C-2.03882 -171.583 3.84375 -159.909 3.84375 -147.365V-140.553C3.84375 -128.009 -2.0388 -116.336 -6.80639 -104.733C-9.28786 -98.6934 -10.6562 -92.0793 -10.6562 -85.1455C-10.6562 -77.3302 -8.91776 -69.9209 -5.8064 -63.2833C-1.15885 -53.3685 3.84375 -43.1731 3.84375 -32.2231C3.84375 -17.5564 -4.5525 -4.50934 -13.872 6.81583C-23.9491 19.0617 -30 34.7455 -30 51.8426C-30 68.9403 -23.9487 84.6246 -13.871 96.8706Z" fill="white"/>
</g>
<circle cx="49.8468" cy="51.6711" r="42.7922" fill="#FFD64F"/>
<path d="M65.4038 31.613C60.4518 31.613 56.4229 35.642 56.4229 40.594H60.7121C60.7121 38.0065 62.817 35.9023 65.4038 35.9023C67.9906 35.9023 70.0956 38.0065 70.0956 40.594H74.3848C74.3848 35.642 70.3558 31.613 65.4038 31.613Z" fill="#455A64"/>
<path d="M38.1117 40.5941H42.4009C42.4009 35.6421 38.3719 31.6132 33.4199 31.6132C28.4679 31.6132 24.439 35.6421 24.439 40.5941H28.7282C28.7282 38.0066 30.8332 35.9024 33.4199 35.9024C36.0067 35.9024 38.1117 38.0066 38.1117 40.5941Z" fill="#455A64"/>
<path d="M49.417 72.5093C58.2021 72.5093 65.3242 65.3872 65.3242 56.6022L33.5103 56.6029C33.5103 65.388 40.6323 72.5093 49.4174 72.5093L49.417 72.5093Z" fill="#455A64"/>
<defs>
<clipPath id="clip0_199_1775">
<rect width="315" height="100" fill="white"/>
</clipPath>
</defs>
</svg>
