<svg width="315" height="129" viewBox="0 0 315 129" fill="none" xmlns="http://www.w3.org/2000/svg">
<g clip-path="url(#clip0_199_1881)">
<rect width="315" height="129" rx="15" transform="matrix(-1 0 0 1 315 0)" fill="white"/>
<g filter="url(#filter0_d_199_1881)">
<path fill-rule="evenodd" clip-rule="evenodd" d="M303.812 58.0281C304.492 58.7214 305.167 59.4093 305.824 60.0947C306.427 60.7226 307.078 61.2975 307.708 61.8539C309.688 63.6024 311.46 65.1683 310.892 67.6252C310.485 69.3833 308.912 70.1791 307.453 70.9166C306.17 71.5655 304.976 72.1693 304.744 73.3439C304.428 74.9477 305.298 79.2801 306.023 79.5403C306.023 79.5403 307.474 79.8277 308.264 82.8716C309.038 85.8593 306.481 86.5966 306.383 86.6249C306.381 86.6254 306.38 86.6257 306.38 86.6257C306.382 86.6255 306.384 86.6283 306.385 86.6299C306.946 86.8896 307.929 87.6145 307.879 89.7471C307.822 92.0787 306.559 93.0946 305.831 93.0967C304.207 95.0569 304.288 97.8336 305.589 101.041C308.384 107.927 306.732 112.653 297.994 114.924C296.42 115.333 294.745 115.617 293.063 115.903C284.642 117.332 276.074 118.785 279.514 136.058C281.327 142.972 284.605 155.429 284.605 155.429L218.495 164.892C218.455 164.866 218.414 164.841 218.373 164.815C218.332 164.79 218.291 164.765 218.251 164.739C217.138 158.764 216.781 152.527 216.415 146.12C216.262 143.441 216.107 140.732 215.894 138H-54.9999V-0.999934H196.44C197.352 -1.59973 198.293 -2.19272 199.266 -2.77871C227.379 -19.7266 273.583 -9.32535 285.803 17.9123C288.675 24.317 289.837 29.4775 291.146 35.2876C291.643 37.494 292.161 39.794 292.802 42.2915C294.368 48.3963 299.212 53.3362 303.812 58.0281Z" fill="#FEF8C8"/>
</g>
<path d="M303 129.637L296.837 125.718C285.705 121.756 263.44 113.98 241.176 112.824C218.911 111.668 196.647 117.342 174.382 116.743C152.117 116.186 129.853 109.461 107.588 106.655C85.3233 103.891 63.0586 104.942 40.794 107.223C18.5293 109.461 -3.73532 112.824 -14.8676 114.505L-26 116.186V133H-14.8676C-3.73532 133 18.5293 133 40.794 133C63.0586 133 85.3233 133 107.588 133C129.853 133 152.117 133 174.382 133C196.647 133 218.911 133 241.176 133C263.44 133 285.705 133 296.837 133H303V129.637Z" fill="#FFE4B6"/>
<line y1="-0.5" x2="177.011" y2="-0.5" transform="matrix(-0.999936 -0.0112987 -0.0112987 0.999936 196 56)" stroke="url(#paint0_linear_199_1881)" stroke-dasharray="4 4"/>
<g opacity="0.5">
<path d="M218.487 27.6111C216.775 29.2173 216.493 32.0648 217.705 34.0772C218.918 36.0895 221.422 37.1656 223.746 36.8547C226.071 36.5439 228.149 34.9709 229.223 32.87C229.88 31.6013 230.193 30.0988 229.803 28.7255C229.196 26.5989 226.963 25.2039 224.753 25.1172C222.544 25.0304 220.409 26.0411 218.687 27.4304" fill="#01818C"/>
<g opacity="0.9">
<path d="M218.487 27.6111C216.775 29.2173 216.493 32.0648 217.705 34.0772C218.918 36.0895 221.422 37.1656 223.746 36.8547C226.071 36.5439 228.149 34.9709 229.223 32.87C229.88 31.6013 230.193 30.0988 229.803 28.7255C229.196 26.5989 226.963 25.2039 224.753 25.1172C222.544 25.0304 220.409 26.0411 218.687 27.4304" fill="white"/>
</g>
<g opacity="0.3">
<path d="M229.424 9.48715C229.476 9.55574 229.507 9.63832 229.513 9.72444C229.518 9.81057 229.498 9.89637 229.454 9.971C229.411 10.0456 229.347 10.1057 229.269 10.1437C229.192 10.1817 229.105 10.1958 229.019 10.1844C228.934 10.1729 228.853 10.1363 228.789 10.0793C228.724 10.0222 228.678 9.94725 228.655 9.86384C228.633 9.78044 228.636 9.69234 228.664 9.61069C228.692 9.52904 228.744 9.45751 228.812 9.40514C228.904 9.33492 229.02 9.30411 229.135 9.31949C229.25 9.33487 229.354 9.39518 229.424 9.48715Z" fill="white"/>
</g>
<path opacity="0.8" d="M255.55 41.3789C256.802 39.1658 256.022 36.3571 253.809 35.1055C251.596 33.8539 248.787 34.6334 247.536 36.8465C246.284 39.0597 247.063 41.8684 249.277 43.12C251.49 44.3716 254.298 43.5921 255.55 41.3789Z" fill="#01818C"/>
<g opacity="0.3">
<path d="M250.779 40.4747C250.762 40.6226 250.702 40.7622 250.605 40.8758C250.509 40.9893 250.381 41.0718 250.238 41.1126C250.095 41.1534 249.943 41.1508 249.801 41.1051C249.659 41.0594 249.534 40.9727 249.442 40.8559C249.349 40.7392 249.294 40.5976 249.282 40.4491C249.27 40.3007 249.302 40.152 249.375 40.022C249.448 39.892 249.557 39.7865 249.69 39.7188C249.823 39.6512 249.972 39.6244 250.12 39.6419C250.218 39.6531 250.313 39.6836 250.399 39.7316C250.486 39.7795 250.561 39.8441 250.623 39.9214C250.684 39.9988 250.729 40.0875 250.756 40.1824C250.783 40.2774 250.791 40.3767 250.779 40.4747Z" fill="white"/>
</g>
<path d="M246.976 39.7007C246.989 39.7811 242.609 43.0902 243.528 44.0129C244.447 44.9356 248.954 43.3793 252.937 40.8737C256.92 38.3682 260.65 35.1961 259.865 34.1456C259.079 33.0951 254.183 35.3489 254.183 35.3489L254.697 35.7618C254.697 35.7618 257.653 34.3232 258.436 35.1087C259.219 35.8942 256.433 38.2767 252.637 40.4129C248.841 42.5491 245.251 43.9437 244.806 43.1813C244.362 42.4189 247.109 40.3811 247.109 40.3811L246.976 39.7007Z" fill="#01818C"/>
<g opacity="0.3">
<path d="M246.975 39.7008C246.988 39.7812 242.609 43.0904 243.527 44.013C244.446 44.9357 248.954 43.3794 252.937 40.8738C256.92 38.3683 260.65 35.1963 259.864 34.1457C259.079 33.0952 254.182 35.349 254.182 35.349L254.696 35.7619C254.696 35.7619 257.652 34.3233 258.435 35.1088C259.218 35.8943 256.432 38.2768 252.636 40.413C248.841 42.5493 245.251 43.9438 244.806 43.1814C244.361 42.419 247.109 40.3813 247.109 40.3813L246.975 39.7008Z" fill="black"/>
</g>
<g opacity="0.3">
<path d="M249.405 35.5949C249.436 35.6436 249.091 35.8703 248.682 36.3542C248.137 36.9769 247.787 37.7451 247.674 38.5642C247.56 39.3834 247.689 40.2179 248.043 40.9651C248.309 41.5458 248.574 41.856 248.533 41.8961C248.491 41.9363 248.162 41.6693 247.821 41.0824C247.622 40.7372 247.476 40.3639 247.388 39.9751C247.279 39.4969 247.255 39.0029 247.319 38.5164C247.389 38.0315 247.543 37.5626 247.776 37.1313C247.966 36.782 248.208 36.4631 248.493 36.1854C248.988 35.7145 249.387 35.5617 249.405 35.5949Z" fill="white"/>
</g>
<path d="M241.511 46.2122L241.784 46.3206C242.094 46.4441 242.433 46.4757 242.761 46.4118L243.052 46.355L242.943 46.6318C242.82 46.9408 242.788 47.2788 242.852 47.6053L242.909 47.8963L242.632 47.7874C242.322 47.6647 241.984 47.6338 241.657 47.6984L241.355 47.7636L241.464 47.4869C241.587 47.1779 241.618 46.8398 241.554 46.5134L241.511 46.2122Z" fill="#01818C"/>
<path d="M276.225 13.2656L276.501 13.3745C276.811 13.4972 277.15 13.5281 277.477 13.4634L277.779 13.3982L277.67 13.6749C277.547 13.984 277.515 14.322 277.58 14.6485L277.643 14.9523L277.368 14.8416C277.058 14.7182 276.718 14.6865 276.391 14.7504L276.1 14.8072L276.209 14.5305C276.332 14.2214 276.363 13.8834 276.299 13.5569L276.225 13.2656Z" fill="#01818C"/>
<path d="M233.309 55.3495L233.491 55.4218C233.691 55.5022 233.911 55.5226 234.123 55.4807L234.314 55.4444L234.242 55.6223C234.162 55.8239 234.142 56.0445 234.185 56.2572L234.221 56.4476L234.039 56.3753C233.838 56.2959 233.619 56.2755 233.407 56.3165L233.218 56.355L233.288 56.1748C233.368 55.9732 233.388 55.7527 233.345 55.54L233.309 55.3495Z" fill="#01818C"/>
<path d="M253.87 36.8677L254.025 36.9285C254.2 36.9986 254.391 37.0166 254.575 36.9802L254.741 36.9486L254.68 37.1041C254.609 37.2782 254.591 37.4695 254.628 37.6539L254.66 37.8197L254.504 37.759C254.329 37.6895 254.137 37.6721 253.952 37.7089L253.789 37.7388L253.85 37.5834C253.919 37.4088 253.937 37.218 253.901 37.0336L253.87 36.8677Z" fill="#01818C"/>
<path d="M238.535 1.08108L238.704 1.14956C238.896 1.22477 239.106 1.24391 239.309 1.20477L239.487 1.1708L239.42 1.34143C239.344 1.53235 239.325 1.7412 239.366 1.94269L239.401 2.12307L239.231 2.05629C239.039 1.98063 238.83 1.9609 238.628 1.99938L238.447 2.03505L238.514 1.86442C238.59 1.67287 238.609 1.46378 238.571 1.26146L238.535 1.08108Z" fill="#01818C"/>
<path d="M227.022 3.39017L227.107 3.42357C227.205 3.46196 227.311 3.47209 227.414 3.45281L227.505 3.43301L227.469 3.52003C227.432 3.6174 227.422 3.72327 227.442 3.82569L227.46 3.91784L227.373 3.88223C227.276 3.84384 227.169 3.83445 227.067 3.8552L226.975 3.87278L227.01 3.78577C227.049 3.68959 227.059 3.5841 227.039 3.48232L227.022 3.39017Z" fill="#01818C"/>
<path d="M218.41 27.0423L218.485 27.0204C218.571 26.9963 218.648 26.9494 218.709 26.8848L218.761 26.8239L218.78 26.9004C218.804 26.9861 218.852 27.0632 218.918 27.1224L218.977 27.1761L218.901 27.1958C218.815 27.2204 218.738 27.2681 218.678 27.3337L218.629 27.3928L218.605 27.3158C218.582 27.2308 218.535 27.1544 218.469 27.096L218.41 27.0423Z" fill="#01818C"/>
<path d="M234.84 23.401L234.999 23.3565C235.176 23.307 235.335 23.2087 235.459 23.0729L235.569 22.95L235.612 23.1074C235.66 23.2853 235.76 23.4455 235.897 23.5687L236.018 23.6767L235.861 23.7195C235.683 23.7693 235.524 23.8691 235.401 24.007L235.291 24.1299L235.246 23.9703C235.198 23.7932 235.1 23.6338 234.963 23.5112L234.84 23.401Z" fill="#01818C"/>
<path d="M230.105 65.6187C229.556 64.8619 229.243 63.9592 229.206 63.0246C229.169 62.09 229.411 61.1655 229.899 60.3681C230.388 59.5706 231.102 58.9359 231.952 58.5443C232.801 58.1527 233.747 58.0217 234.671 58.1679C235.595 58.3141 236.455 58.7309 237.142 59.3657C237.829 60.0004 238.312 60.8246 238.531 61.734C238.749 62.6434 238.693 63.5972 238.37 64.4748C238.046 65.3524 237.47 66.1144 236.713 66.6644C236.211 67.0298 235.641 67.2926 235.037 67.4378C234.433 67.5831 233.806 67.6078 233.193 67.5107C232.579 67.4136 231.99 67.1965 231.461 66.8718C230.931 66.5472 230.47 66.1214 230.105 65.6187Z" fill="#01818C"/>
<g opacity="0.4">
<path d="M234.056 60.4618C233.967 60.3381 233.916 60.1907 233.91 60.0382C233.905 59.8856 233.944 59.7348 234.024 59.6048C234.104 59.4748 234.221 59.3714 234.36 59.3077C234.499 59.244 234.653 59.2229 234.804 59.247C234.955 59.2711 235.095 59.3394 235.207 59.4432C235.319 59.547 235.397 59.6816 235.433 59.8301C235.468 59.9786 235.459 60.1343 235.406 60.2774C235.353 60.4206 235.258 60.5448 235.135 60.6344C234.969 60.7538 234.762 60.8027 234.56 60.7704C234.358 60.7381 234.177 60.6271 234.056 60.4618Z" fill="black"/>
</g>
<g opacity="0.4">
<path d="M236.379 60.9587C236.326 60.8869 236.296 60.8009 236.292 60.7118C236.288 60.6227 236.311 60.5345 236.357 60.4583C236.403 60.3821 236.471 60.3214 236.552 60.2839C236.633 60.2463 236.723 60.2336 236.811 60.2474C236.899 60.2612 236.981 60.3008 237.047 60.3613C237.113 60.4217 237.159 60.5003 237.18 60.5869C237.2 60.6736 237.195 60.7646 237.164 60.8482C237.133 60.9319 237.078 61.0045 237.006 61.0568C236.91 61.1267 236.79 61.1556 236.672 61.1372C236.555 61.1188 236.449 61.0547 236.379 60.9587Z" fill="black"/>
</g>
<g opacity="0.4">
<path d="M236.732 62.4207C236.758 62.401 236.791 62.3896 236.824 62.3882C236.857 62.3867 236.89 62.3952 236.918 62.4125C236.947 62.4299 236.97 62.4553 236.984 62.4855C236.997 62.5157 237.002 62.5494 236.997 62.5823C236.992 62.6152 236.977 62.6458 236.954 62.6702C236.931 62.6945 236.902 62.7116 236.869 62.7192C236.837 62.7268 236.803 62.7246 236.772 62.7128C236.741 62.7011 236.714 62.6803 236.694 62.6532C236.669 62.6173 236.659 62.5728 236.665 62.5293C236.672 62.4859 236.696 62.4468 236.732 62.4207Z" fill="black"/>
</g>
<path d="M226.241 24.0978L221.112 26.7495L220.611 30.9587L217.487 28.2028L213.11 30.0682L200.97 17.9132L226.241 24.0978Z" fill="#01818C"/>
<g opacity="0.5">
<path d="M221.111 26.7493L201.352 18.0071L218.698 27.6895L220.61 30.9584L221.111 26.7493Z" fill="black"/>
</g>
<g opacity="0.8">
<path d="M218.698 27.6893L217.487 28.2024L220.611 30.9583L218.698 27.6893Z" fill="black"/>
</g>
<path d="M232.371 43.9135L233.361 45.2095C233.402 45.2638 233.463 45.2993 233.531 45.3084C233.598 45.3175 233.667 45.2993 233.721 45.2579L237.325 42.5066C237.347 42.4901 237.366 42.4693 237.38 42.4455C237.394 42.4217 237.403 42.3953 237.406 42.3679C237.41 42.3405 237.408 42.3126 237.401 42.2859C237.394 42.2593 237.381 42.2343 237.364 42.2126L234.577 38.5624C234.543 38.5182 234.493 38.4892 234.438 38.4818C234.383 38.4744 234.327 38.4892 234.283 38.523L232.98 39.5176L233.092 39.6643C233.118 39.6988 233.151 39.7277 233.189 39.749C233.266 39.7941 233.333 39.854 233.387 39.9252C233.444 39.9997 233.485 40.0849 233.508 40.1757C233.531 40.2666 233.536 40.3612 233.521 40.4538C233.507 40.5464 233.474 40.6351 233.424 40.7146C233.374 40.7941 233.309 40.8626 233.232 40.9161C233.138 40.982 233.03 41.0237 232.916 41.0375C232.803 41.0513 232.687 41.0368 232.581 40.9952C232.474 40.9537 232.379 40.8864 232.305 40.7993C232.231 40.7123 232.179 40.6082 232.155 40.4963C232.145 40.4469 232.124 40.4003 232.093 40.3604L232.013 40.2559L230.68 41.2743C230.625 41.3157 230.59 41.3769 230.581 41.4446C230.572 41.5122 230.59 41.5807 230.631 41.6349L232.371 43.9135Z" fill="#263238"/>
<path d="M231.921 41.1036C231.842 41.0165 231.788 40.9101 231.763 40.7951C231.754 40.7452 231.734 40.6981 231.704 40.6574L231.624 40.5529L230.29 41.5713C230.236 41.6129 230.2 41.6742 230.191 41.7421C230.181 41.8099 230.199 41.8788 230.24 41.9336L231.258 43.2675L231.169 43.3353C231.127 43.3666 231.079 43.388 231.027 43.3981C230.884 43.4258 230.754 43.4993 230.656 43.6077C230.539 43.736 230.474 43.9032 230.474 44.0768C230.474 44.2504 230.539 44.4177 230.656 44.546C230.773 44.6743 230.933 44.7543 231.106 44.7704C231.279 44.7865 231.451 44.7374 231.59 44.6329C231.667 44.5744 231.73 44.4998 231.775 44.4143C231.798 44.371 231.831 44.3332 231.87 44.3032L231.983 44.2167L232.972 45.5127C233.015 45.5667 233.076 45.6019 233.144 45.6106C233.212 45.6193 233.281 45.6009 233.335 45.5594L236.937 42.8097C236.959 42.7933 236.977 42.7725 236.992 42.7487C237.006 42.7249 237.015 42.6985 237.018 42.671C237.022 42.6436 237.02 42.6158 237.013 42.5891C237.006 42.5624 236.993 42.5375 236.976 42.5157L234.186 38.8611C234.152 38.8169 234.102 38.7879 234.047 38.7805C233.992 38.7731 233.936 38.7879 233.892 38.8217L232.591 39.8146L232.703 39.9613C232.729 39.9953 232.761 40.0246 232.797 40.0478C232.874 40.0928 232.942 40.1527 232.995 40.2239C233.053 40.295 233.097 40.3769 233.124 40.4648C233.15 40.5528 233.159 40.6451 233.15 40.7365C233.141 40.828 233.114 40.9167 233.071 40.9977C233.027 41.0787 232.968 41.1503 232.897 41.2085C232.754 41.326 232.569 41.3817 232.385 41.3633C232.293 41.3542 232.204 41.3272 232.123 41.2838C232.042 41.2404 231.971 41.1815 231.913 41.1104L231.921 41.1036Z" fill="#455A64"/>
<path d="M281.796 71.438C281.496 69.3443 281.777 67.4009 284.495 66.0136C284.688 66.6714 284.73 67.3643 284.617 68.0404C284.41 68.7869 284.011 69.4656 283.458 70.0078C282.927 70.5695 282.371 70.9256 281.796 71.438Z" fill="#455A64"/>
<path d="M283.556 67.5815C283.604 67.6105 282.869 68.5633 282.314 69.9002C282.075 70.4723 281.907 71.0715 281.814 71.6844C281.747 72.1548 281.745 72.45 281.72 72.4513C281.698 72.3846 281.686 72.3148 281.686 72.2444C281.679 72.0542 281.686 71.8637 281.704 71.6743C281.769 71.0472 281.927 70.4333 282.173 69.8527C282.416 69.2745 282.717 68.7221 283.07 68.2039C283.207 67.9784 283.371 67.7695 283.556 67.5815Z" fill="#263238"/>
<path d="M267.131 36.2015C267.772 34.1844 268.874 32.5582 271.924 32.4923C271.813 33.1688 271.548 33.811 271.152 34.3701C270.639 34.9523 269.984 35.3899 269.249 35.6395C268.528 35.912 267.872 35.9876 267.131 36.2015Z" fill="#455A64"/>
<path d="M270.401 33.4833C270.433 33.5256 269.36 34.0701 268.272 35.0276C267.808 35.4358 267.397 35.9001 267.047 36.4098C266.781 36.8031 266.648 37.0666 266.627 37.0579C266.64 36.9887 266.664 36.9219 266.697 36.8598C266.773 36.6844 266.861 36.5149 266.961 36.3524C267.292 35.8166 267.701 35.3341 268.177 34.9211C268.646 34.5047 269.157 34.1379 269.702 33.8266C269.921 33.6848 270.155 33.5695 270.401 33.4833Z" fill="#263238"/>
<path d="M235.396 87.1049C234.516 86.147 233.483 85.5215 231.766 86.273C232.001 86.6576 232.345 86.9637 232.754 87.1525C233.163 87.3413 233.619 87.4043 234.064 87.3334C234.538 87.2991 234.924 87.1733 235.392 87.1005" fill="#455A64"/>
<path d="M232.872 86.4312C233.029 86.3987 233.191 86.3941 233.35 86.4176C233.736 86.4464 234.117 86.5163 234.488 86.626C234.861 86.7358 235.215 86.9038 235.536 87.1238C235.679 87.2022 235.801 87.3128 235.892 87.4469C235.437 87.1641 234.951 86.9355 234.443 86.7657C233.596 86.5184 232.865 86.4822 232.872 86.4312Z" fill="#263238"/>
<path d="M252.967 26.0332C253.466 24.8327 253.592 23.6328 252.186 22.3921C251.972 22.7552 251.842 23.1621 251.807 23.5824C251.816 24.0579 251.95 24.5227 252.197 24.9294C252.426 25.3427 252.703 25.6393 252.967 26.0332Z" fill="#455A64"/>
<path d="M252.511 23.4613C252.605 23.5903 252.677 23.7347 252.723 23.888C252.862 24.2489 252.96 24.6241 253.015 25.0068C253.076 25.3919 253.074 25.7843 253.01 26.1689C252.996 26.3303 252.947 26.4867 252.868 26.6279C252.929 26.0968 252.93 25.5605 252.871 25.0292C252.729 24.1533 252.454 23.4727 252.511 23.4613Z" fill="#263238"/>
<path d="M224.399 51.3634C224.467 50.0651 224.184 48.8923 222.444 48.194C222.363 48.608 222.377 49.0349 222.484 49.4427C222.652 49.8878 222.935 50.2806 223.303 50.5812C223.657 50.894 224.018 51.0807 224.399 51.3634Z" fill="#455A64"/>
<path d="M223.107 49.0929C223.239 49.1828 223.355 49.2948 223.45 49.4239C223.702 49.7174 223.92 50.0382 224.1 50.3803C224.286 50.7229 224.416 51.0932 224.484 51.477C224.525 51.6339 224.531 51.7976 224.504 51.9572C224.384 51.4362 224.205 50.9304 223.971 50.4497C223.545 49.6718 223.058 49.1226 223.107 49.0929Z" fill="#263238"/>
<path d="M235.805 75.4539C234.81 75.1571 234.003 74.6307 233.945 73.1374C234.277 73.1871 234.595 73.3111 234.873 73.5003C235.163 73.7453 235.383 74.0628 235.51 74.4206C235.65 74.7715 235.694 75.0915 235.805 75.4539Z" fill="#455A64"/>
<path d="M234.445 73.8758C234.484 73.8524 234.772 74.359 235.246 74.8778C235.545 75.1787 235.872 75.4507 236.222 75.6901C235.793 75.5738 235.412 75.3244 235.134 74.9778C234.825 74.6664 234.59 74.2899 234.445 73.8758Z" fill="#263238"/>
<path d="M256.427 46.4538C257.398 45.2232 258.587 44.3789 260.723 45.1303C260.469 45.571 260.117 45.9477 259.695 46.2316C259.188 46.503 258.618 46.6359 258.043 46.6167C257.474 46.6182 256.997 46.5003 256.422 46.4471" fill="#455A64"/>
<path d="M259.407 45.4207C259.414 45.4715 258.536 45.5753 257.533 45.9576C256.934 46.2024 256.37 46.5253 255.856 46.9179C255.965 46.7564 256.102 46.6165 256.262 46.5055C256.631 46.2158 257.042 45.9849 257.482 45.821C257.918 45.6552 258.37 45.5353 258.831 45.4631C259.02 45.4205 259.214 45.4062 259.407 45.4207Z" fill="#263238"/>
<path d="M291.577 87.7108C291.565 87.7771 291.546 87.8418 291.52 87.9038L291.333 88.4521C291.167 88.9281 290.938 89.6184 290.672 90.4789C290.406 91.3395 290.107 92.3682 289.731 93.4995C289.345 94.7337 288.891 95.9459 288.372 97.1305C287.844 98.3159 287.185 99.4389 286.409 100.479C285.773 101.325 285.028 102.084 284.193 102.736C283.632 103.177 283.019 103.548 282.368 103.843C282.142 103.956 281.95 104.01 281.83 104.061C281.767 104.086 281.702 104.107 281.636 104.123C281.693 104.086 281.754 104.055 281.818 104.032C281.938 103.974 282.123 103.912 282.343 103.791C282.982 103.48 283.585 103.099 284.141 102.656C284.959 101.995 285.689 101.232 286.314 100.386C287.078 99.3506 287.729 98.2353 288.253 97.0599C288.772 95.8801 289.23 94.6742 289.625 93.4471L290.593 90.438C290.875 89.5823 291.118 88.896 291.3 88.4248C291.388 88.1884 291.465 88.0099 291.517 87.8853C291.533 87.8259 291.553 87.7676 291.577 87.7108Z" fill="#263238"/>
<path d="M287.021 91.4433C287.104 91.4681 287.173 91.5704 287.218 91.6743C287.579 92.5068 287.723 93.4177 287.636 94.3211C287.571 95.1319 287.247 95.9001 286.71 96.5111L286.659 96.3499C286.309 95.5942 286.177 94.7562 286.276 93.9294C286.378 93.1592 286.563 92.4023 286.828 91.6715C286.864 91.5598 286.923 91.4314 287.021 91.4433Z" fill="#455A64"/>
<path d="M294.519 90.1951C294.57 90.2687 294.53 90.3939 294.484 90.4971C294.117 91.3274 293.547 92.0515 292.825 92.6022C292.185 93.1043 291.4 93.3877 290.587 93.4107L290.672 93.2638C290.989 92.4931 291.514 91.8262 292.19 91.3383C292.823 90.8894 293.504 90.5113 294.22 90.2108C294.328 90.1613 294.462 90.1138 294.519 90.1951Z" fill="#455A64"/>
<path d="M287.008 93.433C287.032 93.4402 286.894 93.8896 286.842 94.6417C286.79 95.3937 286.85 96.4333 286.837 97.5912C286.861 98.5915 286.645 99.5831 286.206 100.482C286.063 100.745 285.883 100.986 285.671 101.198C285.598 101.283 285.512 101.356 285.417 101.414C285.689 101.115 285.924 100.783 286.115 100.426C286.517 99.5331 286.714 98.5615 286.69 97.5825C286.653 96.5958 286.666 95.6077 286.728 94.6223C286.757 94.3229 286.81 94.0264 286.888 93.7359C286.913 93.6297 286.953 93.5277 287.008 93.433Z" fill="#263238"/>
<path d="M289.251 83.3233C289.34 83.3178 289.426 83.4222 289.486 83.5132C289.999 84.2622 290.315 85.1285 290.403 86.032C290.492 86.8407 290.32 87.6566 289.912 88.3605L289.831 88.2109C289.341 87.5398 289.05 86.7448 288.99 85.9163C288.944 85.1403 288.98 84.3616 289.1 83.5935C289.12 83.4681 289.152 83.3317 289.251 83.3233Z" fill="#455A64"/>
<path d="M289.619 85.2806C289.643 85.2878 289.594 85.7548 289.687 86.5067C289.781 87.2585 290.036 88.2717 290.261 89.422C290.412 90.4168 290.343 91.4324 290.061 92.398C289.951 92.7652 289.863 93.0599 289.778 93.2564C289.747 93.3633 289.7 93.4654 289.641 93.5598C289.617 93.5526 289.776 93.1069 289.958 92.3703C290.208 91.4167 290.26 90.4225 290.113 89.4479C289.901 88.3131 289.636 87.2852 289.582 86.5162C289.551 86.2145 289.544 85.9108 289.562 85.608C289.566 85.4968 289.585 85.3867 289.619 85.2806Z" fill="#263238"/>
<path d="M293.551 91.0326C293.474 91.1064 293.39 91.1721 293.3 91.229C293.133 91.3484 292.896 91.5257 292.609 91.7551C292.321 91.9845 291.987 92.264 291.632 92.5902C291.245 92.9372 290.892 93.3205 290.578 93.7348C290.419 93.9557 290.294 94.1986 290.158 94.4267L289.774 95.0883C289.523 95.5068 289.285 95.8762 289.069 96.1768C288.854 96.4773 288.667 96.7106 288.533 96.8662C288.468 96.9501 288.393 97.0256 288.309 97.0909C288.287 97.0845 288.581 96.7257 288.983 96.1246C289.185 95.8201 289.413 95.4475 289.655 95.0266C289.774 94.814 289.899 94.5915 290.031 94.3653C290.159 94.1206 290.301 93.8833 290.456 93.6546C290.776 93.2286 291.139 92.8373 291.541 92.4869C291.904 92.1605 292.248 91.8868 292.544 91.6687C292.84 91.4505 293.091 91.2833 293.274 91.1803C293.359 91.1189 293.453 91.0693 293.551 91.0326Z" fill="#263238"/>
<path d="M274.423 60.3849C274.516 60.506 274.571 60.652 274.581 60.8045C274.591 60.9569 274.556 61.109 274.48 61.2413C274.403 61.3737 274.289 61.4804 274.152 61.5479C274.015 61.6155 273.861 61.6409 273.71 61.6208C273.558 61.6008 273.416 61.5363 273.301 61.4354C273.187 61.3345 273.104 61.2019 273.065 61.0542C273.026 60.9066 273.031 60.7506 273.081 60.606C273.13 60.4614 273.221 60.3347 273.343 60.242C273.505 60.118 273.71 60.0635 273.912 60.0903C274.115 60.117 274.298 60.223 274.423 60.3849Z" fill="#01818C"/>
<path d="M195.228 14.1211C195.401 12.9349 193.657 11.9557 192.342 11.8522C191.72 11.8042 191.071 11.8966 190.479 11.7007C189.195 11.2684 188.68 9.67569 187.428 9.16574C186.494 8.79622 185.414 9.1251 184.507 9.56484C183.601 10.0046 182.705 10.5552 181.691 10.618C180.807 10.6734 179.85 10.3593 179.078 10.7732C178.505 11.0799 178.202 11.7192 177.671 12.0961C177.12 12.4215 176.482 12.587 175.835 12.5728C175.189 12.5575 174.547 12.659 173.94 12.8721C173.352 13.1308 172.868 13.7257 172.991 14.3502L195.228 14.1211Z" fill="white"/>
<path d="M209.265 61.4796C209.433 60.254 207.705 59.2454 206.407 59.1426C205.786 59.0932 205.143 59.1883 204.557 58.9828C203.286 58.5413 202.78 56.897 201.539 56.3756C200.61 55.995 199.544 56.3299 198.646 56.7829C197.748 57.2358 196.857 57.8067 195.852 57.8714C194.981 57.9247 194.033 57.6012 193.268 58.0275C192.697 58.3472 192.4 59.0018 191.875 59.39C191.329 59.7264 190.697 59.8982 190.056 59.8848C189.416 59.8678 188.778 59.9711 188.176 60.1893C187.597 60.4558 187.117 61.0685 187.239 61.7118L209.265 61.4796Z" fill="white"/>
<path d="M269.129 8.95145C269.286 7.96694 267.91 7.12508 266.867 7.016C266.366 6.96566 265.846 7.03278 265.379 6.85658C264.361 6.4762 263.98 5.14489 262.987 4.70018C262.246 4.37015 261.379 4.63026 260.646 4.97987C259.914 5.32948 259.189 5.77419 258.378 5.81894C257.673 5.8497 256.913 5.57281 256.289 5.90285C255.825 6.14897 255.573 6.67199 255.142 6.97685C254.696 7.23926 254.183 7.36654 253.665 7.34324C253.15 7.31965 252.635 7.3927 252.147 7.5586C251.674 7.76277 251.277 8.24943 251.364 8.75567L269.129 8.95145Z" fill="white"/>
<path d="M193.881 100.604L195.147 100.147L194.721 98.9651L193.455 99.4218L193.881 100.604Z" fill="#01818C"/>
<path d="M225.96 100.416C225.984 100.424 226.006 100.435 226.027 100.45C226.075 100.482 226.135 100.521 226.213 100.566C226.29 100.612 226.395 100.682 226.496 100.762C226.597 100.842 226.742 100.943 226.885 101.053C227.694 101.703 228.407 102.464 229.003 103.313C229.878 104.578 230.584 105.952 231.104 107.4C231.716 109.174 232.239 110.978 232.669 112.805C233.1 114.627 233.672 116.412 234.382 118.145C234.982 119.549 235.79 120.855 236.78 122.018C237.453 122.797 238.241 123.47 239.116 124.013C239.275 124.101 239.404 124.181 239.537 124.253C239.67 124.324 239.769 124.369 239.853 124.412L240.051 124.512L240.114 124.549C240.114 124.549 240.09 124.545 240.041 124.538L239.842 124.451C239.754 124.411 239.642 124.367 239.517 124.303L239.086 124.071C238.193 123.543 237.389 122.877 236.703 122.098C235.693 120.935 234.869 119.623 234.261 118.209C233.539 116.473 232.959 114.683 232.526 112.854C232.03 110.916 231.571 109.075 230.974 107.456C230.465 106.016 229.774 104.647 228.919 103.382C228.334 102.534 227.638 101.769 226.849 101.107C226.706 100.997 226.568 100.894 226.468 100.808C226.368 100.722 226.256 100.657 226.186 100.603L226.008 100.475C225.99 100.457 225.974 100.437 225.96 100.416Z" fill="#263238"/>
<path d="M235.544 112.019C235.459 112.025 235.39 112.134 235.342 112.233C234.951 113.02 234.767 113.894 234.807 114.772C234.832 115.559 235.108 116.318 235.594 116.937L235.65 116.78C236.028 116.068 236.199 115.264 236.142 114.459C236.077 113.709 235.932 112.967 235.71 112.248C235.688 112.139 235.641 112.014 235.544 112.019Z" fill="#455A64"/>
<path d="M228.355 110.445C228.302 110.512 228.329 110.634 228.376 110.737C228.688 111.559 229.205 112.288 229.877 112.854C230.469 113.373 231.213 113.685 231.998 113.744L231.922 113.6C231.655 112.839 231.181 112.168 230.552 111.664C229.963 111.193 229.324 110.79 228.646 110.461C228.543 110.419 228.416 110.37 228.355 110.445Z" fill="#455A64"/>
<path d="M235.47 113.956C235.516 114.059 235.546 114.168 235.558 114.28C235.618 114.565 235.655 114.854 235.669 115.145C235.724 115.885 235.615 116.899 235.576 118.011C235.505 118.957 235.647 119.906 235.991 120.79C236.161 121.142 236.371 121.474 236.617 121.778C236.529 121.717 236.45 121.644 236.383 121.561C236.187 121.343 236.024 121.097 235.898 120.833C235.518 119.941 235.358 118.972 235.431 118.006C235.486 116.884 235.609 115.881 235.584 115.152C235.559 114.423 235.433 113.951 235.47 113.956Z" fill="#263238"/>
<path d="M233.785 104.071C233.7 104.059 233.615 104.153 233.546 104.243C233.014 104.941 232.667 105.762 232.538 106.631C232.41 107.408 232.536 108.207 232.898 108.907L232.984 108.763C233.491 108.137 233.814 107.382 233.914 106.582C233.996 105.834 233.998 105.078 233.92 104.33C233.906 104.206 233.883 104.085 233.785 104.071Z" fill="#455A64"/>
<path d="M233.339 105.935C233.362 106.038 233.372 106.144 233.369 106.25C233.374 106.54 233.358 106.83 233.321 107.118C233.218 107.853 232.926 108.836 232.664 109.926C232.474 110.861 232.476 111.825 232.669 112.759C232.804 113.478 232.942 113.918 232.919 113.924C232.867 113.829 232.826 113.728 232.799 113.624C232.709 113.346 232.632 113.064 232.57 112.779C232.343 111.832 232.327 110.847 232.522 109.893C232.79 108.792 233.106 107.828 233.227 107.101C233.348 106.375 233.311 105.934 233.339 105.935Z" fill="#263238"/>
<path d="M227.271 95.5027C227.187 95.5251 227.139 95.6429 227.109 95.7506C226.873 96.5971 226.855 97.4892 227.054 98.3448C227.219 99.1149 227.627 99.8117 228.218 100.333L228.24 100.177C228.483 99.4092 228.506 98.5888 228.306 97.8086C228.113 97.081 227.841 96.3768 227.494 95.7085C227.436 95.5944 227.365 95.4786 227.271 95.5027Z" fill="#455A64"/>
<path d="M227.532 97.4099C227.577 97.4727 227.614 97.5406 227.643 97.6123C227.731 97.8049 227.807 98.0027 227.871 98.2046C228.051 98.8709 228.169 99.5523 228.225 100.24C228.268 100.638 228.305 101.02 228.35 101.363C228.388 101.665 228.45 101.964 228.535 102.257C228.683 102.757 228.821 103.057 228.798 103.066C228.775 103.075 228.745 102.999 228.679 102.869C228.592 102.68 228.515 102.486 228.45 102.289C228.345 101.994 228.267 101.69 228.217 101.381C228.163 101.034 228.12 100.652 228.065 100.252C228.008 99.5715 227.906 98.8958 227.758 98.2292C227.64 97.7208 227.509 97.4191 227.532 97.4099Z" fill="#263238"/>
<path d="M229.249 111.299C229.345 111.34 229.435 111.394 229.516 111.458C229.684 111.569 229.915 111.742 230.192 111.968C230.468 112.193 230.789 112.475 231.125 112.809C231.495 113.168 231.827 113.564 232.116 113.991C232.266 114.227 232.375 114.47 232.493 114.698L232.822 115.367C233.033 115.785 233.236 116.156 233.417 116.462C233.776 117.073 234.041 117.425 234.023 117.438C233.943 117.371 233.874 117.293 233.816 117.206C233.692 117.049 233.523 116.816 233.329 116.515C233.135 116.214 232.927 115.836 232.704 115.428L232.366 114.758C232.249 114.53 232.121 114.284 231.996 114.068C231.713 113.648 231.39 113.256 231.031 112.898C230.705 112.563 230.394 112.276 230.128 112.043C229.862 111.809 229.639 111.625 229.486 111.501C229.401 111.44 229.322 111.373 229.249 111.299Z" fill="#263238"/>
<path d="M225.553 102.991C225.512 103.066 225.567 103.183 225.622 103.278C226.065 104.036 226.693 104.67 227.447 105.12C228.118 105.531 228.903 105.718 229.688 105.653L229.588 105.521C229.202 104.814 228.624 104.23 227.921 103.836C227.262 103.473 226.565 103.184 225.842 102.973C225.732 102.936 225.598 102.917 225.553 102.991Z" fill="#455A64"/>
<path d="M226.542 103.744C226.808 103.806 227.064 103.904 227.304 104.035C227.898 104.315 228.468 104.643 229.008 105.016C229.306 105.219 229.586 105.447 229.846 105.697C230.05 105.911 230.24 106.138 230.416 106.375C230.594 106.582 230.753 106.803 230.892 107.037C230.696 106.855 230.516 106.657 230.353 106.444C230.171 106.218 229.978 106.002 229.773 105.796C229.509 105.555 229.228 105.334 228.932 105.133C228.395 104.766 227.838 104.43 227.263 104.126C226.817 103.889 226.533 103.761 226.542 103.744Z" fill="#263238"/>
<path d="M233.062 103.017C233.062 103.017 233.062 103.017 233.074 103.043L233.089 103.117C233.1 103.21 233.097 103.304 233.08 103.396C233.039 103.703 232.975 104.006 232.887 104.302C232.803 104.597 232.697 104.885 232.57 105.163C232.52 105.272 232.477 105.356 232.447 105.414L232.41 105.483L232.406 105.505L232.41 105.48L232.441 105.413C232.472 105.352 232.512 105.267 232.558 105.159C232.681 104.879 232.786 104.591 232.872 104.297C232.959 104 233.025 103.698 233.072 103.392C233.086 103.301 233.091 103.209 233.085 103.117C233.081 103.083 233.073 103.049 233.062 103.017Z" fill="white"/>
<path d="M227.875 113.539L227.88 113.506L227.893 113.411C227.905 113.326 227.943 113.21 227.982 113.066C228.065 112.766 228.192 112.377 228.355 111.945C228.519 111.514 228.696 111.137 228.819 110.865C228.885 110.728 228.94 110.621 228.982 110.546L229.028 110.462L228.984 110.549L228.824 110.869C228.693 111.14 228.524 111.521 228.36 111.952C228.197 112.384 228.067 112.776 227.982 113.066L227.884 113.41L227.871 113.505L227.875 113.539Z" fill="#263238"/>
<path d="M228.836 111.076C228.836 111.076 228.836 111.076 228.861 111.098C228.865 111.101 228.871 111.103 228.876 111.104C228.881 111.105 228.886 111.104 228.892 111.103C228.895 111.098 228.897 111.093 228.898 111.088C228.898 111.083 228.898 111.077 228.896 111.072C228.898 111.066 228.897 111.059 228.895 111.053C228.892 111.047 228.888 111.042 228.882 111.039C228.877 111.036 228.872 111.034 228.867 111.034C228.862 111.033 228.856 111.033 228.851 111.035C228.833 111.032 228.827 111.056 228.824 111.053C228.821 111.049 228.827 111.035 228.847 111.022C228.854 111.02 228.862 111.019 228.869 111.02C228.876 111.021 228.883 111.024 228.89 111.028C228.899 111.032 228.907 111.039 228.912 111.048C228.917 111.058 228.919 111.068 228.917 111.078C228.916 111.089 228.913 111.099 228.907 111.108C228.901 111.116 228.892 111.123 228.882 111.126C228.874 111.128 228.866 111.129 228.858 111.128C228.851 111.127 228.843 111.124 228.836 111.12C228.831 111.094 228.833 111.076 228.836 111.076Z" fill="#263238"/>
<path d="M255.198 31.2192C255.198 31.2192 255.187 31.2277 255.198 31.2511C255.202 31.2608 255.208 31.2692 255.216 31.2755C255.222 31.2743 255.226 31.2721 255.231 31.2689C255.235 31.2656 255.238 31.2615 255.241 31.2568C255.248 31.2485 255.253 31.2378 255.253 31.2266C255.252 31.2214 255.249 31.2166 255.246 31.2124C255.243 31.2083 255.239 31.2047 255.234 31.2021C255.224 31.1888 255.207 31.1985 255.205 31.1962C255.203 31.194 255.218 31.1861 255.24 31.1909C255.247 31.1938 255.252 31.1983 255.257 31.2042C255.261 31.21 255.264 31.2169 255.265 31.2242C255.267 31.2334 255.267 31.2429 255.263 31.2517C255.26 31.2605 255.254 31.2681 255.247 31.2735C255.24 31.2802 255.232 31.2845 255.222 31.2858C255.213 31.2871 255.204 31.2853 255.196 31.2807C255.189 31.2776 255.183 31.273 255.179 31.2672C255.175 31.2614 255.172 31.2546 255.17 31.2474C255.181 31.2289 255.196 31.217 255.198 31.2192Z" fill="#263238"/>
<path d="M254.297 31.6392C254.297 31.6392 254.297 31.6392 254.299 31.6694C254.3 31.6745 254.303 31.6793 254.306 31.6835C254.309 31.6877 254.313 31.6912 254.318 31.6938C254.322 31.6927 254.327 31.6907 254.331 31.6878C254.335 31.6848 254.338 31.6811 254.34 31.6769C254.345 31.6734 254.348 31.6688 254.35 31.6634C254.352 31.6581 254.353 31.6523 254.352 31.6466C254.351 31.6415 254.348 31.6367 254.345 31.6325C254.342 31.6283 254.338 31.6248 254.333 31.6222C254.323 31.6089 254.304 31.6202 254.304 31.6163C254.305 31.6124 254.318 31.6061 254.339 31.6109C254.345 31.6143 254.351 31.6191 254.355 31.6248C254.36 31.6306 254.363 31.6372 254.364 31.6442C254.367 31.6531 254.366 31.6624 254.364 31.6712C254.361 31.68 254.356 31.6879 254.35 31.6941C254.342 31.7 254.333 31.7036 254.324 31.7045C254.315 31.7054 254.305 31.7035 254.297 31.699C254.29 31.696 254.285 31.6913 254.28 31.6855C254.276 31.6797 254.273 31.6729 254.272 31.6657C254.282 31.6472 254.297 31.6392 254.297 31.6392Z" fill="#263238"/>
<path d="M268.399 47.8003L268.45 48.1903C268.45 48.1903 270.71 47.8906 272.301 46.7212L272.082 46.3645L268.399 47.8003Z" fill="#01818C"/>
<path d="M268.839 47.9172C268.842 47.9297 268.84 47.9426 268.835 47.9543C268.83 47.9659 268.821 47.9758 268.811 47.9826C268.8 47.9895 268.788 47.993 268.775 47.9928C268.762 47.9926 268.75 47.9886 268.739 47.9814C268.729 47.9741 268.721 47.9639 268.716 47.9521C268.712 47.9403 268.711 47.9274 268.713 47.915C268.716 47.9026 268.722 47.8912 268.731 47.8824C268.741 47.8736 268.752 47.8677 268.765 47.8654C268.773 47.8635 268.782 47.8633 268.79 47.8649C268.798 47.8665 268.806 47.8699 268.813 47.8748C268.82 47.8797 268.826 47.886 268.831 47.8933C268.835 47.9006 268.838 47.9088 268.839 47.9172Z" fill="white"/>
<path d="M269.75 47.7041C269.752 47.7208 269.748 47.7378 269.738 47.7513C269.728 47.7649 269.713 47.774 269.696 47.7766C269.681 47.777 269.666 47.7717 269.654 47.7616C269.641 47.7515 269.634 47.7374 269.631 47.7219C269.629 47.7064 269.632 47.6906 269.641 47.6775C269.649 47.6643 269.662 47.6547 269.677 47.6505C269.694 47.6481 269.711 47.6524 269.725 47.6624C269.738 47.6725 269.747 47.6874 269.75 47.7041Z" fill="white"/>
<path d="M269.271 47.8233C269.273 47.8317 269.274 47.8403 269.272 47.8488C269.27 47.8572 269.267 47.8652 269.263 47.8724C269.258 47.8795 269.252 47.8857 269.245 47.8905C269.238 47.8953 269.23 47.8986 269.221 47.9003C269.205 47.9036 269.188 47.9005 269.174 47.8915C269.16 47.8826 269.15 47.8685 269.146 47.8523C269.144 47.844 269.143 47.8352 269.145 47.8266C269.146 47.8181 269.149 47.8099 269.154 47.8026C269.159 47.7953 269.165 47.7891 269.172 47.7844C269.179 47.7798 269.188 47.7767 269.196 47.7754C269.213 47.7721 269.229 47.7752 269.244 47.7842C269.258 47.7931 269.268 47.8071 269.271 47.8233Z" fill="white"/>
<path d="M270.24 47.5522C270.242 47.5689 270.238 47.5859 270.228 47.5994C270.218 47.613 270.203 47.6221 270.186 47.6247C270.177 47.6272 270.168 47.6277 270.159 47.6264C270.15 47.625 270.142 47.6217 270.134 47.6168C270.126 47.6118 270.12 47.6053 270.115 47.5977C270.11 47.59 270.107 47.5814 270.105 47.5724C270.104 47.5634 270.105 47.5542 270.107 47.5455C270.11 47.5367 270.114 47.5286 270.12 47.5216C270.126 47.5146 270.133 47.509 270.141 47.505C270.149 47.501 270.158 47.4989 270.167 47.4986C270.184 47.4963 270.201 47.5005 270.214 47.5106C270.228 47.5206 270.237 47.5355 270.24 47.5522Z" fill="white"/>
<path d="M271.319 47.1221C271.32 47.1304 271.32 47.1389 271.318 47.1472C271.316 47.1554 271.313 47.1633 271.308 47.1702C271.303 47.1772 271.297 47.1831 271.29 47.1876C271.283 47.1922 271.275 47.1953 271.267 47.1968C271.258 47.1988 271.25 47.1989 271.241 47.1973C271.233 47.1957 271.225 47.1923 271.218 47.1874C271.211 47.1825 271.205 47.1763 271.201 47.1689C271.196 47.1616 271.193 47.1535 271.192 47.145C271.191 47.1366 271.191 47.1281 271.192 47.1199C271.194 47.1116 271.198 47.1038 271.202 47.0968C271.207 47.0899 271.213 47.084 271.221 47.0794C271.228 47.0748 271.236 47.0717 271.244 47.0702C271.261 47.0679 271.278 47.0719 271.291 47.0815C271.305 47.0911 271.315 47.1056 271.319 47.1221Z" fill="white"/>
<path d="M271.828 46.8672C271.83 46.8755 271.83 46.8841 271.828 46.8923C271.826 46.9006 271.823 46.9084 271.818 46.9153C271.813 46.9223 271.807 46.9282 271.8 46.9328C271.793 46.9373 271.785 46.9405 271.776 46.9419C271.76 46.9443 271.743 46.94 271.729 46.93C271.716 46.92 271.706 46.905 271.704 46.8884C271.702 46.88 271.702 46.8714 271.703 46.863C271.705 46.8546 271.708 46.8466 271.713 46.8395C271.718 46.8325 271.724 46.8266 271.732 46.8221C271.739 46.8176 271.747 46.8148 271.756 46.8136C271.772 46.8113 271.789 46.8155 271.803 46.8256C271.816 46.8356 271.826 46.8505 271.828 46.8672Z" fill="white"/>
<path d="M270.767 47.3675C270.77 47.3842 270.766 47.4011 270.756 47.415C270.746 47.4288 270.732 47.4386 270.715 47.4422C270.699 47.4453 270.681 47.4415 270.667 47.4318C270.653 47.422 270.644 47.4071 270.641 47.3904C270.638 47.3736 270.641 47.3563 270.651 47.3422C270.661 47.3282 270.676 47.3186 270.692 47.3156C270.701 47.3141 270.709 47.3142 270.718 47.316C270.726 47.3178 270.734 47.3212 270.741 47.326C270.748 47.3308 270.754 47.337 270.758 47.3441C270.763 47.3512 270.766 47.3592 270.767 47.3675Z" fill="white"/>
<path d="M264.646 47.6003C264.651 47.7407 266.712 48.6275 270.56 47.2021C273.867 45.9754 275.071 43.9479 275.071 43.9479L264.646 47.6003Z" fill="#01818C"/>
<path opacity="0.2" d="M264.646 47.6003C264.651 47.7407 266.712 48.6275 270.56 47.2021C273.867 45.9754 275.071 43.9479 275.071 43.9479L264.646 47.6003Z" fill="black"/>
<path d="M264.573 47.5466C264.705 47.9314 267.16 47.4365 270.06 46.4366C272.96 45.4366 275.194 44.3255 275.06 43.9384C274.927 43.5513 272.476 44.0468 269.574 45.0484C266.672 46.0501 264.44 47.1595 264.573 47.5466Z" fill="#01818C"/>
<path d="M267.326 46.2715C267.326 46.2715 266.473 43.9143 268.766 42.9167C271.059 41.9192 272.001 44.3881 272.001 44.3881C272.001 44.3881 270.815 46.001 267.326 46.2715Z" fill="#01818C"/>
<path d="M267.934 43.777C267.897 43.8652 267.85 43.9486 267.793 44.0255L267.727 44.1502C267.703 44.1929 267.682 44.244 267.657 44.2946C267.607 44.4077 267.564 44.5239 267.529 44.6425C267.496 44.7612 267.471 44.8817 267.452 45.0034C267.445 45.0583 267.438 45.1132 267.435 45.1647L267.426 45.3052C267.421 45.478 267.426 45.5865 267.41 45.5883C267.374 45.4988 267.357 45.4028 267.36 45.3063C267.354 45.2556 267.351 45.2046 267.353 45.1536C267.352 45.1016 267.357 45.0445 267.361 44.9852C267.374 44.8596 267.397 44.7352 267.429 44.6132C267.465 44.4901 267.511 44.3701 267.567 44.2545L267.648 44.1078L267.728 43.9868C267.78 43.9023 267.851 43.8306 267.934 43.777Z" fill="#E0E0E0"/>
<path d="M269.646 47.5165C269.646 47.5165 269.646 47.5165 269.607 47.5073C269.569 47.4981 269.548 47.4854 269.507 47.4679C269.458 47.4431 269.412 47.4154 269.366 47.3852C269.312 47.349 269.261 47.308 269.213 47.2629C269.17 47.2127 269.13 47.16 269.093 47.105C269.061 47.0605 269.033 47.0141 269.008 46.9659C268.991 46.9345 268.976 46.9019 268.965 46.8684L268.952 46.8288C268.952 46.8288 268.975 46.8817 269.02 46.9596C269.05 47.0039 269.082 47.0462 269.117 47.0864C269.152 47.1413 269.192 47.1934 269.236 47.242C269.283 47.2871 269.333 47.3286 269.387 47.366C269.43 47.3967 269.476 47.4241 269.524 47.4481C269.593 47.4973 269.648 47.5148 269.646 47.5165Z" fill="#263238"/>
<path d="M269.324 47.0163C269.324 47.0163 269.324 47.0163 269.316 47.0392C269.317 47.0425 269.319 47.0455 269.321 47.0482C269.323 47.0509 269.325 47.0531 269.328 47.0548C269.331 47.0575 269.335 47.0591 269.339 47.0593C269.343 47.0594 269.347 47.0582 269.35 47.0557C269.354 47.0556 269.357 47.0544 269.36 47.0523C269.363 47.0501 269.365 47.0472 269.366 47.0438C269.366 47.0438 269.357 47.0327 269.352 47.0261C269.347 47.0194 269.341 47.0345 269.331 47.0212C269.321 47.0079 269.342 47.0127 269.351 47.006C269.358 47.0069 269.365 47.0103 269.37 47.0157C269.376 47.021 269.379 47.028 269.38 47.0355C269.381 47.043 269.379 47.0505 269.375 47.0569C269.371 47.0633 269.365 47.0681 269.358 47.0707C269.351 47.0744 269.344 47.0762 269.336 47.0759C269.328 47.0756 269.321 47.0731 269.315 47.0688C269.309 47.0662 269.305 47.0624 269.301 47.0578C269.298 47.0532 269.295 47.0479 269.294 47.0422C269.307 47.0181 269.322 47.014 269.324 47.0163Z" fill="#263238"/>
<path d="M269.558 47.2491C269.558 47.2491 269.558 47.2491 269.545 47.2593C269.543 47.2624 269.543 47.2658 269.543 47.2692C269.544 47.2725 269.545 47.2757 269.547 47.2784C269.549 47.281 269.552 47.2832 269.555 47.2845C269.558 47.2858 269.562 47.2863 269.565 47.2859C269.568 47.2853 269.571 47.2838 269.574 47.2818C269.577 47.2797 269.579 47.2771 269.58 47.2741C269.578 47.2667 269.573 47.2603 269.567 47.2563C269.567 47.2563 269.545 47.2554 269.543 47.2532C269.542 47.2509 269.557 47.243 269.566 47.2362C269.571 47.2385 269.576 47.2421 269.579 47.2468C269.583 47.2515 269.585 47.257 269.586 47.2628C269.588 47.2707 269.588 47.2791 269.584 47.2866C269.581 47.2942 269.576 47.3004 269.568 47.3043C269.562 47.3084 269.554 47.3104 269.546 47.31C269.539 47.3097 269.531 47.3071 269.525 47.3025C269.52 47.3 269.515 47.2963 269.511 47.2916C269.508 47.287 269.505 47.2816 269.504 47.2758C269.544 47.2492 269.558 47.2452 269.558 47.2491Z" fill="#263238"/>
<path d="M272.381 45.5367L272.33 45.5198C272.293 45.5089 272.245 45.4965 272.188 45.4768C272.069 45.4409 271.906 45.3931 271.73 45.3375C271.553 45.282 271.378 45.2544 271.258 45.2264L271.112 45.1968C271.094 45.1935 271.076 45.1884 271.058 45.1816L271.113 45.189L271.258 45.2124C271.382 45.237 271.549 45.2714 271.734 45.3202C271.919 45.3689 272.075 45.4118 272.196 45.4639L272.335 45.5125C272.351 45.5188 272.367 45.527 272.381 45.5367Z" fill="#263238"/>
<path d="M271.285 45.3677C271.285 45.3677 271.285 45.3677 271.285 45.3996C271.286 45.4043 271.288 45.4087 271.291 45.4125C271.294 45.4164 271.298 45.4195 271.302 45.4218C271.307 45.4246 271.313 45.4258 271.319 45.4252C271.325 45.4245 271.33 45.4221 271.334 45.4182C271.345 45.4097 271.354 45.4029 271.345 45.3857C271.344 45.381 271.342 45.3765 271.339 45.3727C271.336 45.3689 271.332 45.3657 271.328 45.3635C271.318 45.3501 271.298 45.3615 271.296 45.3593C271.295 45.357 271.312 45.3474 271.333 45.3522C271.34 45.3556 271.345 45.3604 271.35 45.3661C271.354 45.3719 271.357 45.3785 271.359 45.3855C271.361 45.3947 271.36 45.4042 271.357 45.413C271.354 45.4218 271.348 45.4294 271.34 45.4349C271.333 45.4411 271.325 45.4452 271.316 45.4464C271.307 45.4477 271.297 45.4462 271.289 45.442C271.283 45.4385 271.278 45.4337 271.273 45.428C271.269 45.4222 271.266 45.4157 271.264 45.4087C271.268 45.3774 271.284 45.3655 271.285 45.3677Z" fill="#263238"/>
<path d="M271.736 45.512C271.736 45.512 271.725 45.5204 271.736 45.5438C271.739 45.5527 271.745 45.5605 271.753 45.566C271.758 45.5687 271.765 45.5697 271.771 45.5687C271.777 45.5678 271.783 45.565 271.787 45.5607C271.792 45.5565 271.795 45.5514 271.797 45.5457C271.798 45.5401 271.799 45.534 271.798 45.5282C271.797 45.5235 271.795 45.5191 271.792 45.5152C271.789 45.5114 271.785 45.5083 271.781 45.506C271.771 45.4927 271.753 45.5023 271.752 45.5001C271.75 45.4979 271.765 45.4899 271.786 45.4948C271.793 45.4976 271.799 45.5022 271.803 45.508C271.808 45.5139 271.811 45.5208 271.812 45.5281C271.814 45.5372 271.813 45.5468 271.81 45.5555C271.807 45.5643 271.801 45.5719 271.793 45.5774C271.787 45.584 271.778 45.5883 271.769 45.5896C271.76 45.5909 271.75 45.5891 271.742 45.5845C271.736 45.5815 271.73 45.5768 271.726 45.571C271.721 45.5652 271.718 45.5584 271.717 45.5512C271.719 45.5216 271.734 45.5097 271.736 45.512Z" fill="#263238"/>
<path opacity="0.6" d="M267.326 46.2715C267.326 46.2715 266.473 43.9143 268.766 42.9167C271.059 41.9192 272.001 44.3881 272.001 44.3881C272.001 44.3881 270.815 46.001 267.326 46.2715Z" fill="white"/>
<path d="M233.779 83.5902C233.262 82.2512 232.731 80.8829 231.867 79.7287C231.003 78.5745 229.745 77.6371 228.312 77.4874C227.047 77.3532 225.748 77.8314 224.519 77.5142C223.133 77.1458 222.209 75.9041 221.201 74.8775C220.194 73.8509 218.697 72.973 217.397 73.5726C216.43 74.0206 215.952 75.1901 216.084 76.2618C216.216 77.3334 216.861 78.2505 217.603 79.0067C219.249 80.6336 221.45 81.5761 223.763 81.6441C226.201 81.705 228.913 80.8457 230.911 82.2458C231.434 82.6122 231.855 83.109 232.376 83.4758C232.897 83.8425 233.591 84.0718 234.175 83.8109L233.779 83.5902Z" fill="#01818C"/>
<g opacity="0.9">
<path opacity="0.2" d="M233.78 83.5902C233.262 82.2512 232.732 80.8829 231.868 79.7287C231.003 78.5745 229.746 77.6371 228.312 77.4874C227.047 77.3532 225.748 77.8314 224.519 77.5142C223.134 77.1458 222.209 75.9041 221.202 74.8775C220.195 73.8509 218.697 72.973 217.398 73.5726C216.43 74.0206 215.952 75.1901 216.085 76.2618C216.217 77.3334 216.861 78.2505 217.604 79.0067C219.249 80.6336 221.451 81.5761 223.764 81.6441C226.202 81.705 228.913 80.8457 230.911 82.2458C231.435 82.6122 231.856 83.109 232.377 83.4758C232.898 83.8425 233.591 84.0718 234.176 83.8109L233.78 83.5902Z" fill="white"/>
</g>
<path d="M279.209 35.6677C277.915 35.6279 276.904 36.9171 276.74 38.2C276.576 39.483 277.022 40.758 277.392 41.9989C277.762 43.2398 278.058 44.5905 277.61 45.8054C277.378 46.4227 276.984 46.9587 276.816 47.5866C276.229 49.7946 278.69 51.9764 278.085 54.18C277.77 55.325 276.719 56.078 275.854 56.8938C274.988 57.7095 274.282 60.0393 274.708 61.122C274.714 59.6222 276.143 58.5589 277.475 57.8694C278.806 57.18 280.329 56.4682 280.837 55.0558C281.519 53.1559 279.988 50.9152 280.859 49.0925C281.288 48.1982 282.241 47.5797 282.481 46.6082C282.734 45.5566 282.04 44.5518 281.756 43.516C281.488 42.5382 281.579 41.5009 281.653 40.4872C281.728 39.4734 281.774 38.4281 281.423 37.4751C281.072 36.5221 280.223 35.6959 279.209 35.6677Z" fill="#01818C"/>
<g opacity="0.2">
<path d="M279.209 35.6677C277.915 35.6279 276.904 36.9171 276.74 38.2C276.576 39.483 277.022 40.758 277.392 41.9989C277.762 43.2398 278.058 44.5905 277.61 45.8054C277.378 46.4227 276.984 46.9587 276.816 47.5866C276.229 49.7946 278.69 51.9764 278.085 54.18C277.77 55.325 276.719 56.078 275.854 56.8938C274.988 57.7095 274.282 60.0393 274.708 61.122C274.714 59.6222 276.143 58.5589 277.475 57.8694C278.806 57.18 280.329 56.4682 280.837 55.0558C281.519 53.1559 279.988 50.9152 280.859 49.0925C281.288 48.1982 282.241 47.5797 282.481 46.6082C282.734 45.5566 282.04 44.5518 281.756 43.516C281.488 42.5382 281.579 41.5009 281.653 40.4872C281.728 39.4734 281.774 38.4281 281.423 37.4751C281.072 36.5221 280.223 35.6959 279.209 35.6677Z" fill="white"/>
</g>
<path d="M203.309 69.1376L203.473 69.2094C203.655 69.2894 203.857 69.3151 204.053 69.2833L204.229 69.255L204.157 69.4189C204.083 69.6001 204.061 69.7983 204.094 69.9912C203.857 69.9453 203.612 69.9562 203.379 70.023L203.204 70.0514L203.276 69.8874C203.354 69.7038 203.379 69.5017 203.348 69.3045L203.309 69.1376Z" fill="#E0E0E0"/>
</g>
<path d="M247.508 90.3453C247.508 90.3453 239.955 87.518 237.708 91.3392C235.461 95.1604 235.797 101.216 235.797 101.216L236.022 108.859H248.162L247.508 90.3453Z" fill="#01818C"/>
<path d="M247.508 90.3453L255.922 94.2591L268.194 93.0461L269.629 93.7344L273.42 95.3487C273.42 95.3487 282.34 94.8332 283.198 103.065C284.056 111.297 279.423 120.563 275.305 128.628C271.188 136.693 266.212 151.101 261.583 153.845C261.583 153.845 242.594 159.509 236.047 157.278C236.047 157.278 222.377 154.521 221.957 150.064C221.537 145.607 224.886 144.351 226.695 140.03C228.504 135.709 235.337 116.618 235.337 116.618L238.68 93.7776L247.508 90.3453Z" fill="#01818C"/>
<path d="M236.038 108.874C236.038 108.874 239.76 106.454 243.507 106.908C247.254 107.362 248.177 108.874 248.177 108.874V126.329L233.874 124.785L236.038 108.874Z" fill="#FFBE9D"/>
<path d="M238.286 90.5988C238.286 90.5988 237.36 90.2222 236.742 90.5988C236.125 90.9753 233.767 95.9694 233.066 96.3213C232.365 96.6731 229.211 97.8954 229.125 100.349C229.038 102.803 229.649 103.939 229.649 104.816C229.649 105.692 230.612 122.409 234.467 125.397C238.323 128.385 238.671 127.675 241.567 127.249C244.462 126.823 267.404 114.461 267.404 114.461C267.404 114.461 265.978 106.837 259.188 106.658L243.57 113.396L235.779 102.71V97.3707C235.779 97.3707 236.94 91.4476 238.286 90.5988Z" fill="#FFBE9D"/>
<g opacity="0.3">
<path d="M233.859 124.795C232.667 128.261 233.05 131.449 235.504 134.175C236.75 135.528 238.329 136.532 240.083 137.088C241.837 137.643 243.706 137.731 245.504 137.342C245.387 137.916 245.269 138.492 245.149 139.07C245.85 139.2 246.547 138.798 247.035 138.28C247.523 137.761 247.862 137.122 248.313 136.576C249.44 135.215 251.153 134.52 252.779 133.838C257.928 131.686 262.926 129.188 267.737 126.36C269.879 125.1 271.993 123.764 273.82 122.078C275.648 120.393 277.182 118.334 277.932 115.967L233.859 124.795Z" fill="black"/>
</g>
<path d="M233.859 124.795C233.809 125.19 233.794 125.589 233.813 125.987C234.041 132.755 241.054 137.163 247.298 134.533C255.545 131.064 270.299 123.329 275.725 119.542L272.481 111.109L267.268 114.146C267.23 114.169 267.19 114.187 267.147 114.199L233.859 124.795Z" fill="#FFBE9D"/>
<path d="M271.913 112.127L272.481 111.108C272.481 111.108 272.173 110.83 272.87 108.392C273.401 106.667 274.076 104.989 274.889 103.376L276.84 98.2897C276.84 98.2897 277.12 97.1045 278.164 97.1045C279.207 97.1045 279.17 98.1478 279.33 99.0552C279.491 99.9627 278.164 102.469 278.932 103.586C279.701 104.704 281.364 103.895 281.364 103.895L282.136 102.605V100.098C282.136 100.098 281.09 98.4255 280.463 98.2157C279.837 98.0058 279.766 97.6601 280.114 97.6601C280.463 97.6601 284.436 98.9379 284.852 99.5521C285.269 100.166 285.272 103.025 285.272 103.025C285.272 103.025 286.108 102.815 285.889 105.534L285.923 106.926C285.923 106.926 286.096 108.321 285.923 109.016C285.773 109.478 285.465 109.872 285.053 110.13C285.053 110.13 285.541 111.54 285.192 112.124C284.843 112.707 283.648 113.198 283.648 113.198C283.648 113.198 283.229 114.173 282.741 114.522C282.253 114.871 276.052 119.328 275.704 119.538C275.355 119.748 271.892 121.39 271.892 121.39L271.49 112.26" fill="#FFBE9D"/>
<path d="M267.268 114.146L267.197 114.217C267.138 114.267 267.064 114.328 266.974 114.409C266.78 114.578 266.484 114.819 266.092 115.116C265.311 115.711 264.144 116.523 262.662 117.461C261.181 118.4 259.391 119.477 257.415 120.665C255.44 121.854 253.242 123.168 251.02 124.656C249.933 125.387 248.808 126.059 247.649 126.669C246.57 127.241 245.422 127.67 244.232 127.946C242.203 128.386 240.093 128.274 238.121 127.622C236.794 127.189 235.577 126.474 234.553 125.527C234.279 125.266 234.023 124.986 233.787 124.69L233.608 124.459L233.55 124.378C233.55 124.378 233.578 124.4 233.621 124.449L233.815 124.672C234.057 124.957 234.317 125.227 234.593 125.48C235.624 126.401 236.838 127.094 238.155 127.514C240.109 128.144 242.196 128.243 244.202 127.801C245.377 127.524 246.512 127.097 247.578 126.53C248.726 125.915 249.841 125.24 250.918 124.508C253.14 123.02 255.332 121.708 257.323 120.526C259.313 119.344 261.116 118.285 262.601 117.353C264.085 116.421 265.264 115.634 266.054 115.054C266.45 114.767 266.752 114.535 266.953 114.372L267.184 114.193C267.21 114.174 267.238 114.158 267.268 114.146Z" fill="#EB996E"/>
<path d="M259.188 106.658L259.12 106.698L258.913 106.796L258.111 107.17L255.175 108.509C252.666 109.624 249.2 111.164 245.332 112.772L243.613 113.473L243.554 113.497L243.52 113.445C241.341 110.386 239.341 107.722 237.924 105.803L236.251 103.54C236.06 103.281 235.912 103.074 235.804 102.923L235.69 102.759C235.665 102.722 235.653 102.704 235.656 102.704C235.659 102.704 235.674 102.704 235.702 102.75L235.826 102.904L236.298 103.5C236.708 104.037 237.289 104.796 238.011 105.735C239.452 107.639 241.465 110.29 243.65 113.349L243.554 113.321L245.27 112.621C249.135 111.013 252.61 109.491 255.129 108.401L258.111 107.111L258.925 106.766L259.138 106.679L259.188 106.658Z" fill="#EB996E"/>
<path d="M248.051 99.5615C248.072 99.7086 248.079 99.8576 248.069 100.006V101.219C248.069 102.241 248.069 103.654 248.069 105.216C248.069 106.778 248.128 108.188 248.159 109.21C248.159 109.698 248.18 110.105 248.189 110.423C248.205 110.571 248.205 110.72 248.189 110.868C248.16 110.722 248.143 110.575 248.137 110.426C248.112 110.139 248.081 109.726 248.054 109.216C247.995 108.195 247.939 106.781 247.918 105.204C247.896 103.627 247.918 102.228 247.952 101.191C247.97 100.682 247.986 100.265 248.004 99.9813C248.009 99.8404 248.024 99.7001 248.051 99.5615Z" fill="#263238"/>
<path d="M273.558 96.3464C273.583 96.3834 270.352 98.72 266.339 101.563C262.326 104.405 259.049 106.686 259.024 106.649C258.999 106.612 262.231 104.279 266.243 101.433C270.256 98.5872 273.534 96.3094 273.558 96.3464Z" fill="#263238"/>
<path d="M269.009 93.9662C269.022 93.9896 269.033 94.0145 269.04 94.0403L269.114 94.2656C269.198 94.5587 269.242 94.8619 269.244 95.1669C269.246 95.6525 269.165 96.135 269.003 96.5929C268.785 97.1955 268.483 97.764 268.105 98.2812C267.652 98.9105 267.128 99.4853 266.543 99.9943C265.882 100.592 265.157 101.116 264.382 101.556C263.526 102.041 262.615 102.422 261.669 102.692C260.66 102.987 259.628 103.193 258.583 103.309C257.532 103.439 256.468 103.412 255.425 103.229C254.461 103.025 253.527 102.696 252.647 102.251C251.86 101.821 251.176 101.223 250.644 100.5C250.399 100.177 250.192 99.8272 250.027 99.4572C249.886 99.1123 249.782 98.7532 249.718 98.3862C249.507 97.2726 249.654 96.1207 250.138 95.0959C250.273 94.8224 250.437 94.5646 250.629 94.3273L250.786 94.1483C250.823 94.1113 250.842 94.0897 250.845 94.0927C250.591 94.412 250.373 94.7576 250.193 95.1237C249.741 96.1406 249.614 97.2725 249.829 98.3646C249.895 98.7223 249.998 99.072 250.138 99.4078C250.305 99.7674 250.512 100.107 250.755 100.42C251.28 101.123 251.952 101.702 252.724 102.118C253.59 102.555 254.51 102.877 255.459 103.075C256.486 103.253 257.533 103.278 258.567 103.149C260.694 102.899 262.703 102.343 264.318 101.426C265.083 100.99 265.801 100.472 266.457 99.8831C267.036 99.3826 267.559 98.8195 268.015 98.204C268.392 97.6979 268.696 97.1409 268.917 96.5496C269.084 96.1031 269.173 95.6313 269.182 95.1545C269.178 94.7525 269.12 94.3528 269.009 93.9662Z" fill="#263238"/>
<path d="M266.527 131.702C266.432 131.723 266.334 131.729 266.237 131.72C265.971 131.722 265.706 131.702 265.444 131.662C265.054 131.607 264.669 131.52 264.293 131.402C263.367 131.112 262.507 130.645 261.758 130.029C261.455 129.777 261.172 129.501 260.913 129.205C260.737 129.006 260.576 128.794 260.431 128.572C260.371 128.495 260.322 128.41 260.286 128.319C260.311 128.3 260.542 128.646 260.996 129.128C261.262 129.409 261.548 129.671 261.851 129.912C262.225 130.203 262.622 130.465 263.036 130.696C263.455 130.918 263.89 131.107 264.339 131.26C264.706 131.383 265.082 131.48 265.462 131.551C266.114 131.668 266.527 131.674 266.527 131.702Z" fill="#263238"/>
<g opacity="0.3">
<path d="M248.051 99.5615C248.425 102.713 248.813 107.053 249.187 110.204C249.239 110.633 249.289 110.985 248.878 111.108C248.637 111.203 248.408 111.325 248.196 111.473C248.212 111.201 248.218 110.346 248.196 110.062C247.949 106.432 248.131 103.117 248.054 99.5677" fill="black"/>
</g>
<g opacity="0.3">
<path d="M251.298 101.197C252.968 103.716 257.397 104.404 260.866 103.704C264.336 103.003 267.41 100.265 268.984 97.1045C266.996 99.9716 264.035 102.019 260.65 102.867C257.428 103.722 254.045 103.463 251.369 101.123" fill="black"/>
</g>
<path d="M247.279 103.776C247.128 103.745 246.98 103.703 246.835 103.649C246.554 103.553 246.14 103.43 245.628 103.288C242.955 102.552 240.17 102.317 237.412 102.594C236.884 102.646 236.455 102.702 236.177 102.745C236.025 102.774 235.871 102.792 235.717 102.797C235.863 102.746 236.014 102.709 236.168 102.686C236.458 102.621 236.884 102.547 237.402 102.479C240.174 102.137 242.987 102.375 245.662 103.177C246.174 103.331 246.588 103.486 246.86 103.584C247.006 103.633 247.147 103.697 247.279 103.776Z" fill="white"/>
<path d="M271.533 110.47C271.444 110.375 271.365 110.272 271.295 110.162C271.153 109.946 270.937 109.643 270.663 109.273C269.233 107.342 267.43 105.718 265.36 104.498C264.965 104.266 264.638 104.087 264.406 103.967C264.284 103.913 264.168 103.846 264.061 103.766C264.189 103.803 264.314 103.852 264.434 103.911C264.675 104.013 265.011 104.177 265.416 104.399C267.539 105.571 269.369 107.21 270.768 109.192C271.033 109.572 271.234 109.887 271.36 110.118C271.43 110.229 271.488 110.347 271.533 110.47Z" fill="white"/>
<path d="M243.205 60.0539L241.918 58.8378C240.239 59.6002 239.486 61.5756 239.233 63.3997C238.98 65.2239 239.047 67.1406 238.307 68.8259C237.733 70.1223 236.674 71.3322 236.825 72.7428C236.97 74.0854 238.202 75.1534 238.229 76.5022C238.257 77.7986 237.186 78.8171 236.575 79.9623C235.34 82.2834 234.856 86.1076 235.566 88.6417C241.168 88.0676 247.977 86.9595 253.598 87.299C251.943 77.6265 248.413 68.371 243.205 60.0539Z" fill="#263238"/>
<path d="M240.835 68.7175C240.338 62.1493 245.014 56.0626 251.657 55.1582C258.706 54.2045 265.031 59.1708 265.728 66.0322L267.827 93.7743C267.867 94.3111 267.726 94.8458 267.426 95.2929C265.836 97.7035 262.91 99.6141 260.28 100.022C257.731 100.42 255.129 99.7962 252.937 98.6233C252.574 98.4247 252.269 98.1345 252.052 97.7815C251.836 97.4284 251.715 97.0249 251.703 96.6109L251.49 90.3945C251.49 90.389 251.489 90.3835 251.487 90.3784C251.484 90.3733 251.481 90.3687 251.477 90.365C251.473 90.3612 251.468 90.3583 251.463 90.3565C251.458 90.3547 251.452 90.354 251.447 90.3544C250.866 90.4069 250.282 90.4007 249.703 90.3359C248.054 89.9593 243.838 88.416 242.332 82.2892C241.835 80.2551 241.267 74.474 240.835 68.7175Z" fill="#FFBE9D"/>
<path d="M250.109 77.6498C250.109 77.5881 249.421 77.5325 248.307 77.4862C248.023 77.4862 247.754 77.4492 247.69 77.267C247.645 76.9845 247.686 76.6949 247.81 76.4368L248.47 74.2762C249.378 71.1896 250.014 68.6771 249.884 68.6432C249.754 68.6092 248.921 71.0785 248.014 74.1558C247.796 74.911 247.59 75.6312 247.396 76.3164C247.316 76.625 247.162 77.0078 247.338 77.4059C247.386 77.5003 247.456 77.582 247.542 77.6447C247.628 77.7074 247.727 77.7493 247.832 77.7671C247.989 77.7974 248.15 77.8057 248.31 77.7918C249.421 77.7671 250.109 77.7115 250.109 77.6498Z" fill="#263238"/>
<path d="M246.721 72.2185C246.619 72.0672 245.795 72.5611 244.767 72.4253C243.739 72.2895 243.048 71.6351 242.915 71.7586C242.85 71.8111 242.937 72.0672 243.224 72.3759C243.617 72.7655 244.128 73.0131 244.678 73.0796C245.227 73.1461 245.783 73.0277 246.258 72.7432C246.628 72.521 246.77 72.2864 246.721 72.2185Z" fill="#263238"/>
<path d="M257.952 70.8014C257.783 70.7026 257.193 71.5391 256.1 71.8817C255.008 72.2243 254.032 71.9064 253.955 72.0854C253.915 72.1626 254.119 72.3724 254.551 72.5268C255.125 72.7163 255.745 72.7163 256.319 72.5268C256.893 72.3464 257.392 71.9832 257.739 71.4928C258.005 71.1378 258.045 70.8508 257.952 70.8014Z" fill="#263238"/>
<path d="M251.49 90.3513C251.49 90.3513 255.743 90.3297 260.777 86.7523C260.777 86.7523 259.542 92.3884 251.554 92.339L251.49 90.3513Z" fill="#EB996E"/>
<path d="M250.782 80.203C250.972 79.927 251.228 79.7029 251.527 79.5509C251.826 79.3989 252.157 79.3239 252.492 79.3326C252.734 79.333 252.974 79.3819 253.196 79.4762C253.419 79.5706 253.62 79.7086 253.789 79.882C253.949 80.0483 254.054 80.2606 254.087 80.4892C254.121 80.7178 254.082 80.9512 253.977 81.1568C253.715 81.592 253.107 81.737 252.573 81.6383C252.042 81.5038 251.543 81.2645 251.107 80.9345C250.977 80.8593 250.862 80.7609 250.767 80.6444C250.723 80.5881 250.696 80.5199 250.691 80.4485C250.685 80.377 250.701 80.3055 250.736 80.2431" fill="#EB996E"/>
<path d="M253.39 78.1193C253.211 78.1193 253.304 79.2922 252.353 80.2089C251.403 81.1256 250.128 81.104 250.131 81.2676C250.131 81.3416 250.44 81.4713 250.967 81.4404C251.661 81.3875 252.315 81.0976 252.819 80.6194C253.3 80.1627 253.584 79.5376 253.613 78.8755C253.631 78.3816 253.471 78.1038 253.39 78.1193Z" fill="#263238"/>
<path d="M258.493 66.4579C258.372 66.1709 257.283 66.3592 255.99 66.2635C254.696 66.1678 253.641 65.8684 253.48 66.14C253.409 66.2696 253.601 66.5382 254.033 66.8036C254.611 67.1259 255.254 67.3148 255.915 67.3565C256.575 67.3981 257.237 67.2915 257.851 67.0444C258.317 66.8376 258.545 66.5968 258.493 66.4579Z" fill="#263238"/>
<path d="M246.452 66.0173C246.165 65.8506 245.403 66.3568 244.4 66.684C243.396 67.0112 242.492 67.113 242.372 67.4217C242.322 67.5668 242.529 67.7581 242.97 67.8631C243.569 67.9677 244.185 67.9189 244.759 67.7214C245.334 67.5239 245.85 67.184 246.258 66.7334C246.532 66.3784 246.582 66.1006 246.452 66.0173Z" fill="#263238"/>
<path d="M250.66 53.785C251.218 52.8004 252.277 52.3374 253.465 52.1399C258.317 51.325 263.796 54.1646 266.586 58.2173C269.377 62.27 269.62 68.3783 267.697 72.9063L264.632 71.0544C258.499 68.6407 254.104 62.841 250.092 56.8561C249.542 56.0228 250.175 54.64 250.66 53.785Z" fill="#263238"/>
<path d="M243.218 56.5821C245.215 54.2332 246.656 51.9029 250.906 53.4431C251.548 54.616 250.317 56.1716 249.286 57.0852C247.773 58.4248 246.449 59.3322 245.459 60.2891C243.458 62.2213 241.252 68.6444 241.107 72.1353C241.107 72.3545 240.671 69.1506 240.452 69.1198C240.165 69.0796 238.995 67.6969 239.122 65.777C239.554 59.2304 241.221 58.9279 243.218 56.5821Z" fill="#263238"/>
<path d="M253.465 52.1395C253.147 52.083 252.82 52.1161 252.52 52.2352C251.776 52.4756 251.116 52.9244 250.619 53.5285C250.476 53.701 250.35 53.8871 250.242 54.0841C250.15 54.2709 250.078 54.4677 250.029 54.6705C249.925 54.998 249.847 55.3335 249.798 55.6737C249.724 56.2724 249.869 56.6336 249.9 56.6212C249.931 56.6089 249.881 56.257 250.002 55.6953C250.08 55.3713 250.176 55.0519 250.289 54.7384C250.339 54.5548 250.408 54.3769 250.495 54.2075C250.598 54.0294 250.714 53.8601 250.844 53.7013C251.313 53.1395 251.912 52.7 252.588 52.4204C253.113 52.226 253.471 52.1889 253.465 52.1395Z" fill="#455A64"/>
<path d="M281.96 80.1878C281.824 79.0921 280.725 78.3729 279.642 77.9994C278.558 77.6259 277.389 77.4068 276.555 76.6629C275.243 75.4962 275.259 73.5177 275.361 71.7923C275.463 70.0669 275.447 68.0884 274.108 66.9464C272.987 65.9988 271.228 65.9402 270.255 64.8506C269.604 64.1222 269.462 63.1067 269.222 62.1684C268.576 59.6559 267.113 55.273 259.638 52.8562L266.616 77.7432C266.129 77.8883 264.971 79.0241 264.919 79.7804C264.869 80.4903 265.187 81.2033 265.206 81.9101C265.231 82.7805 264.28 83.3145 263.693 83.9657C262.95 84.796 262.734 85.9782 262.869 87.0708C263.005 88.1635 263.447 89.1975 263.885 90.213C269.991 89.4766 275.74 86.941 280.401 82.9287C281.234 82.2218 282.096 81.2681 281.96 80.1878Z" fill="#263238"/>
<path d="M264.632 71.0543C264.743 70.9926 269.209 69.1437 269.571 73.8631C269.932 78.5824 265.117 77.9744 265.098 77.8386C265.08 77.7028 264.632 71.0543 264.632 71.0543Z" fill="#FFBE9D"/>
<path d="M266.404 75.9407C266.422 75.9253 266.49 75.9932 266.635 76.0457C266.838 76.1143 267.059 76.1021 267.253 76.0117C267.737 75.7895 268.098 74.9654 268.055 74.1135C268.04 73.7085 267.934 73.3119 267.746 72.9529C267.693 72.8077 267.604 72.6783 267.487 72.5763C267.371 72.4744 267.231 72.4034 267.08 72.3696C266.983 72.3515 266.883 72.3679 266.798 72.4158C266.712 72.4637 266.646 72.5402 266.611 72.6319C266.558 72.7677 266.595 72.8603 266.57 72.8696C266.546 72.8789 266.465 72.7986 266.487 72.6011C266.505 72.4827 266.563 72.3739 266.651 72.2924C266.773 72.1843 266.932 72.1288 267.095 72.1381C267.294 72.1603 267.483 72.2334 267.645 72.3501C267.808 72.4669 267.937 72.6235 268.021 72.8048C268.253 73.1982 268.385 73.6421 268.407 74.0981C268.45 75.0518 268.03 75.9809 267.364 76.2309C267.239 76.2768 267.107 76.2946 266.975 76.2828C266.843 76.2711 266.715 76.2302 266.601 76.163C266.422 76.0488 266.388 75.95 266.404 75.9407Z" fill="#EB996E"/>
<path d="M247.838 72.5631C247.807 72.2077 247.752 71.855 247.671 71.5075C247.52 70.9253 247.248 70.3812 246.874 69.91C246.5 69.4388 246.032 69.0509 245.499 68.7711C244.967 68.4913 244.382 68.3257 243.781 68.2851C243.181 68.2445 242.579 68.3296 242.014 68.5351C241.624 68.6737 241.259 68.8715 240.93 69.1216C240.583 69.3755 240.277 69.6828 240.026 70.0321C239.485 70.7656 239.193 71.6531 239.193 72.5646C239.193 73.4762 239.485 74.3637 240.026 75.0972C240.526 75.781 241.218 76.3009 242.014 76.5911C242.579 76.7966 243.181 76.8819 243.781 76.8414C244.381 76.801 244.966 76.6358 245.498 76.3563C246.031 76.0768 246.499 75.6892 246.873 75.2184C247.248 74.7475 247.519 74.2037 247.671 73.6218C247.752 73.2733 247.807 72.9195 247.838 72.5631C247.842 72.5866 247.842 72.6107 247.838 72.6341C247.838 72.6927 247.838 72.7606 247.838 72.844C247.838 72.9567 247.829 73.0692 247.81 73.1804C247.795 73.3345 247.768 73.4873 247.73 73.6372C247.53 74.4553 247.1 75.1989 246.491 75.7799C245.881 76.3609 245.118 76.7549 244.291 76.9152C243.512 77.064 242.707 77 241.961 76.73C241.558 76.5905 241.178 76.3884 240.838 76.1312C240.476 75.8695 240.158 75.5517 239.896 75.1898C239.334 74.4306 239.03 73.5109 239.03 72.5662C239.03 71.6215 239.334 70.7017 239.896 69.9426C240.417 69.2359 241.136 68.699 241.961 68.3993C242.707 68.1318 243.51 68.0689 244.288 68.2172C245.116 68.3751 245.881 68.7683 246.492 69.3496C247.102 69.931 247.532 70.6758 247.73 71.4952C247.769 71.645 247.796 71.7978 247.81 71.952C247.829 72.0632 247.838 72.1757 247.838 72.2884V72.4952C247.844 72.5415 247.841 72.5631 247.838 72.5631Z" fill="#455A64"/>
<path d="M259.773 72.5631C259.743 72.2077 259.687 71.855 259.607 71.5075C259.455 70.9242 259.183 70.379 258.809 69.907C258.434 69.435 257.965 69.0465 257.431 68.7666C256.898 68.4867 256.311 68.3215 255.71 68.2816C255.109 68.2418 254.506 68.3281 253.94 68.5351C253.145 68.8284 252.453 69.349 251.952 70.0321C251.411 70.7656 251.119 71.6531 251.119 72.5646C251.119 73.4762 251.411 74.3637 251.952 75.0972C252.452 75.781 253.144 76.3009 253.94 76.5911C254.505 76.7966 255.107 76.8819 255.707 76.8414C256.307 76.801 256.892 76.6358 257.424 76.3563C257.957 76.0768 258.425 75.6892 258.799 75.2184C259.174 74.7475 259.445 74.2037 259.597 73.6218C259.678 73.2733 259.734 72.9195 259.764 72.5631C259.767 72.5867 259.767 72.6105 259.764 72.6341V72.844C259.764 72.9567 259.755 73.0692 259.736 73.1804C259.72 73.3343 259.693 73.487 259.656 73.6372C259.456 74.4557 259.026 75.1996 258.416 75.7807C257.806 76.3617 257.042 76.7555 256.214 76.9152C255.436 77.0639 254.632 76.9999 253.887 76.73C253.483 76.5899 253.103 76.3879 252.761 76.1312C252.405 75.8676 252.092 75.55 251.835 75.1898C251.272 74.4306 250.969 73.5109 250.969 72.5662C250.969 71.6215 251.272 70.7017 251.835 69.9426C252.091 69.5817 252.404 69.264 252.761 69.0012C253.104 68.7447 253.483 68.5418 253.887 68.3993C254.633 68.1318 255.436 68.0689 256.214 68.2172C257.042 68.3751 257.807 68.7683 258.418 69.3496C259.028 69.931 259.458 70.6758 259.656 71.4952C259.694 71.6453 259.72 71.798 259.736 71.952C259.755 72.0632 259.764 72.1757 259.764 72.2884V72.4952C259.77 72.5174 259.773 72.5402 259.773 72.5631Z" fill="#455A64"/>
<path d="M251.245 72.375C251.223 72.3936 251.094 72.1929 250.804 71.9676C250.43 71.6678 249.966 71.5043 249.487 71.5043C249.009 71.5043 248.544 71.6678 248.171 71.9676C247.881 72.1929 247.751 72.3905 247.729 72.375C247.803 72.1784 247.932 72.007 248.1 71.8812C248.48 71.5357 248.975 71.3442 249.489 71.3442C250.002 71.3442 250.498 71.5357 250.878 71.8812C251.044 72.0083 251.171 72.1794 251.245 72.375Z" fill="#455A64"/>
<path d="M265.712 70.7363C265.429 70.83 265.138 70.8951 264.842 70.9308C264.299 71.0234 263.542 71.1191 262.709 71.2055L260.576 71.4308C260.282 71.4791 259.985 71.5069 259.687 71.5141C259.969 71.4165 260.261 71.3503 260.558 71.3166C261.101 71.224 261.857 71.1314 262.694 71.045L264.826 70.8197C265.119 70.7677 265.415 70.7398 265.712 70.7363Z" fill="#455A64"/>
<path d="M177.256 96.8558C177.283 96.8946 175.327 98.2941 172.887 99.9826C170.447 101.671 168.447 103.009 168.42 102.97C168.394 102.931 170.352 101.534 172.792 99.8457C175.232 98.1573 177.231 96.8197 177.256 96.8558Z" fill="#263238"/>
<path d="M163.909 99.2306C163.957 98.4897 164.059 97.7533 164.213 97.0269C164.315 96.2919 164.471 95.5652 164.679 94.8527C164.631 95.5937 164.53 96.3302 164.375 97.0564C164.276 97.7921 164.12 98.519 163.909 99.2306Z" fill="#263238"/>
<path d="M174.741 109.09C173.989 109.048 173.242 108.955 172.503 108.809C171.756 108.718 171.016 108.571 170.29 108.37C171.043 108.409 171.791 108.503 172.53 108.649C173.277 108.741 174.016 108.888 174.741 109.09Z" fill="#263238"/>
</g>
<defs>
<filter id="filter0_d_199_1881" x="-60.5871" y="-12.5963" width="385.156" height="195.048" filterUnits="userSpaceOnUse" color-interpolation-filters="sRGB">
<feFlood flood-opacity="0" result="BackgroundImageFix"/>
<feColorMatrix in="SourceAlpha" type="matrix" values="0 0 0 0 0 0 0 0 0 0 0 0 0 0 0 0 0 0 127 0" result="hardAlpha"/>
<feOffset dx="3.99078" dy="7.98156"/>
<feGaussianBlur stdDeviation="4.78894"/>
<feComposite in2="hardAlpha" operator="out"/>
<feColorMatrix type="matrix" values="0 0 0 0 0 0 0 0 0 0 0 0 0 0 0 0 0 0 0.25 0"/>
<feBlend mode="normal" in2="BackgroundImageFix" result="effect1_dropShadow_199_1881"/>
<feBlend mode="normal" in="SourceGraphic" in2="effect1_dropShadow_199_1881" result="shape"/>
</filter>
<linearGradient id="paint0_linear_199_1881" x1="88.5056" y1="0" x2="88.5056" y2="1" gradientUnits="userSpaceOnUse">
<stop stop-color="#32959D"/>
<stop offset="1" stop-color="#036696" stop-opacity="0.8"/>
</linearGradient>
<clipPath id="clip0_199_1881">
<rect width="315" height="129" rx="15" transform="matrix(-1 0 0 1 315 0)" fill="white"/>
</clipPath>
</defs>
</svg>
