<svg width="315" height="100" viewBox="0 0 315 100" fill="none" xmlns="http://www.w3.org/2000/svg">
<g clip-path="url(#clip0_2240_950)">
<rect width="315" height="100" rx="15" fill="#455A64" fill-opacity="0.02"/>
</g>
<circle cx="49.8468" cy="51.6711" r="42.7922" fill="#FFD64F"/>
<path d="M65.4039 31.613C60.4519 31.613 56.4229 35.642 56.4229 40.594H60.7121C60.7121 38.0065 62.8171 35.9023 65.4039 35.9023C67.9907 35.9023 70.0956 38.0065 70.0956 40.594H74.3849C74.3849 35.642 70.3559 31.613 65.4039 31.613Z" fill="#455A64"/>
<path d="M38.1117 40.594H42.401C42.401 35.642 38.372 31.613 33.42 31.613C28.468 31.613 24.439 35.642 24.439 40.594H28.7282C28.7282 38.0065 30.8332 35.9023 33.42 35.9023C36.0068 35.9023 38.1117 38.0065 38.1117 40.594Z" fill="#455A64"/>
<path d="M49.4171 72.5092C58.2021 72.5092 65.3242 65.3871 65.3242 56.6021L33.5103 56.6028C33.5103 65.3879 40.6324 72.5092 49.4175 72.5092L49.4171 72.5092Z" fill="#455A64"/>
<path d="M109 0H93C121.333 40.0014 120.016 61.8247 96 100H112C133.309 62.2942 138.821 40.7672 109 0Z" fill="#A4DEDF"/>
<defs>
<clipPath id="clip0_2240_950">
<rect width="315" height="100" fill="white"/>
</clipPath>
</defs>
</svg>
