<svg width="85" height="77" viewBox="0 0 85 77" fill="none" xmlns="http://www.w3.org/2000/svg">
<path d="M64.472 35.8902C59.6475 41.6664 55.7002 43.4208 42.5424 47.2936C29.3846 42.0305 23.6829 40.3506 18.8584 37.8041C21.9285 32.3815 11.8409 17.9823 42.5424 30.2625C78.0684 16.6665 62.279 31.7037 64.472 35.8902Z" fill="#F7CF6A"/>
<path d="M80.9694 49.7794L80.9968 49.4642C82.1379 37.2178 83.7038 20.4487 72.924 17.0873C72.8863 17.077 72.8418 17.0633 72.8075 17.053L66.8934 3.38125C65.9957 1.30478 63.5696 0.307681 61.3082 1.14373C60.2665 1.58917 59.4578 2.41836 59.0329 3.4737C58.8479 3.93286 58.7622 4.41598 58.7417 4.89571L56.0039 1.71591C55.113 0.681099 53.8178 0.0575078 52.4506 0.00610474C51.1828 -0.0350133 50.004 0.410434 49.1406 1.27732C47.2389 3.17222 47.0505 6.05728 48.6952 7.9898C46.1972 7.14003 43.8227 7.67457 42.4864 9.4426C41.1501 7.67454 38.7754 7.13656 36.281 7.98629C37.9257 6.05377 37.7338 3.16862 35.839 1.27723C34.9721 0.410329 33.7968 -0.0385441 32.5256 0.00259584C31.1584 0.0539936 29.8631 0.677616 28.9723 1.7124L26.2345 4.8922C26.2139 4.41249 26.1283 3.92931 25.9432 3.4702C25.5184 2.41485 24.7097 1.58565 23.5995 1.11276C21.3963 0.304102 18.9737 1.30122 18.0759 3.37765L12.1686 17.0459C12.1309 17.0597 12.083 17.0699 12.0453 17.0836C1.27258 20.445 2.83484 37.2141 3.97931 49.4605L4.00672 49.7758L0.0250904 70.6229C-0.118821 71.3665 0.371166 72.0827 1.11473 72.2265C1.86513 72.3704 2.57787 71.8839 2.71831 71.1369L6.74099 50.102C6.76498 49.9752 6.77183 49.845 6.75812 49.7182L6.71015 49.2111C5.65481 37.8998 4.2122 22.4087 12.8641 19.7052C15.9857 18.7321 20.8411 17.5808 25.1035 17.2759C29.4894 16.9401 36.6885 20.5516 40.1832 24.7868C41.2523 26.1437 41.4133 27.48 40.6115 28.2784C39.981 28.902 38.7989 29.0973 37.8018 28.299C33.7791 24.7559 30.26 23.0632 25.9738 22.6281C23.5204 22.4877 21.1939 23.3272 19.5697 24.9273C17.9661 26.507 17.1437 28.7445 17.2568 31.3349C18.5314 41.755 25.2508 43.5541 31.1786 45.14C33.2276 45.6883 35.3486 46.257 37.312 47.1788C39.5427 48.0765 40.927 49.591 41.112 51.3317C41.2422 52.5584 40.7385 53.6823 39.7654 54.3402C38.4016 55.2585 36.3389 55.1077 34.1185 53.9222C29.15 51.2495 25.8537 50.5608 23.4273 51.7019C21.6525 52.5345 20.5183 54.2649 19.9529 57.0815L17.6983 74.6699C17.6023 75.4203 18.13 76.109 18.8839 76.205C18.9421 76.2118 19.0004 76.2152 19.0621 76.2152C19.7405 76.2152 20.3299 75.7115 20.419 75.0194L22.6599 57.5301C23.0266 55.7174 23.6604 54.6244 24.5993 54.1858C26.0932 53.4834 28.8619 54.2064 32.8297 56.3445C35.9822 58.0235 39.0694 58.1228 41.3035 56.6151C41.7558 56.3102 42.1533 55.9504 42.496 55.5426C42.8386 55.9469 43.2292 56.3136 43.6816 56.6151C45.9157 58.1228 49.0029 58.02 52.1622 56.341C56.1198 54.2097 58.885 53.4833 60.3824 54.1892C61.3212 54.6278 61.9517 55.7243 62.3046 57.4375L64.5627 75.0259C64.6518 75.7181 65.2411 76.2218 65.9196 76.2218C65.9779 76.2218 66.0361 76.2184 66.0978 76.2115C66.8482 76.1156 67.3793 75.4303 67.2834 74.6764L65.0081 56.9924C64.4565 54.2717 63.3257 52.5414 61.5474 51.7088C59.1283 50.5712 55.8286 51.2565 50.8668 53.9291C48.6395 55.1147 46.5768 55.2688 45.2131 54.3471C44.2399 53.6892 43.7362 52.5654 43.8664 51.3387C44.0514 49.598 45.4358 48.0835 47.7384 47.1515C49.6298 46.2606 51.7508 45.6918 53.7999 45.1435C59.7277 43.5571 66.4507 41.7581 67.7322 31.2288C67.835 28.7446 67.0127 26.507 65.4091 24.9274C63.7849 23.3272 61.4515 22.4946 58.9501 22.6385C54.7253 23.0668 51.2062 24.7629 47.2318 28.2648C46.1833 29.1009 45.0011 28.909 44.3707 28.2854C43.5689 27.4904 43.7334 26.1507 44.7819 24.8178C48.2906 20.5586 55.5072 16.9574 59.8791 17.283C63.3947 17.5365 68.1987 18.4891 72.115 19.7123C80.7737 22.4124 79.3312 37.9069 78.2758 49.2182L78.2278 49.7253C78.2141 49.8555 78.2209 49.9823 78.2449 50.1091L82.2676 71.1475C82.4115 71.891 83.1242 72.3741 83.8712 72.2371C84.6148 72.0932 85.1013 71.3771 84.9608 70.6335L80.9694 49.7794ZM61.5889 5.65267C61.4313 5.2826 61.4279 4.87143 61.5786 4.49452C61.7294 4.1176 62.0172 3.82292 62.3222 3.68929C63.0417 3.42545 64.008 3.60705 64.3781 4.46711L69.4151 16.117C68.9971 16.0142 68.5722 15.9114 68.1336 15.812L63.758 10.7271L61.5889 5.65267ZM51.0829 3.21646C51.5146 2.7813 52.0731 2.7299 52.3541 2.74703C52.9537 2.76759 53.5397 3.05199 53.9303 3.50428L63.8021 14.9796C63.2745 14.8974 62.7468 14.8254 62.2225 14.7603L54.9138 11.0494L50.7883 6.21803C49.966 5.25514 50.3119 3.98058 51.0829 3.21646ZM44.6205 11.1488C45.4771 9.92219 47.3 10.258 48.6055 10.9193L56.3974 14.8769C54.1701 15.36 51.7613 16.3125 49.4896 17.5872L45.2613 14.5239C44.014 13.6228 43.7741 12.3619 44.6205 11.1488ZM40.3579 11.1488C41.2008 12.3618 40.9609 13.6228 39.7137 14.5274L35.4923 17.5839C33.2239 16.3127 30.8151 15.3566 28.5844 14.877L36.3729 10.9228C37.6749 10.2581 39.5012 9.92218 40.3579 11.1488ZM31.0518 3.50435C31.4424 3.05206 32.0284 2.77108 32.628 2.7471C32.9227 2.72654 33.4675 2.78136 33.9027 3.21995C34.6702 3.98064 35.0128 5.25529 34.1939 6.21817L30.0684 11.0495L22.7597 14.7605C22.2321 14.8256 21.7078 14.8975 21.1801 14.9798L31.0518 3.50435ZM20.5975 4.46724C20.9676 3.60719 21.9373 3.42558 22.5917 3.66544C22.9618 3.82306 23.2496 4.11773 23.4004 4.49465C23.5512 4.87157 23.5477 5.28275 23.3901 5.6528L21.2211 10.724L16.8454 15.8089C16.4068 15.9083 15.982 16.0111 15.564 16.1139L20.5975 4.46724ZM48.9894 30.3547C52.5495 27.2195 55.6094 25.7255 59.163 25.3623C60.8386 25.2595 62.4113 25.818 63.4804 26.8734C64.5426 27.9185 65.0634 29.3817 64.9984 30.9989C63.9498 39.5824 59.1561 40.8637 53.0879 42.4883C50.9223 43.0674 48.6815 43.667 46.6392 44.6298C44.8437 45.3528 43.4526 46.4151 42.5 47.6863C41.5543 46.4151 40.1631 45.3632 38.4087 44.6607C36.2945 43.667 34.0536 43.0674 31.888 42.4883C25.8197 40.8641 21.0259 39.5826 19.9846 31.1051C19.9093 29.3816 20.4301 27.9184 21.4924 26.8733C22.5649 25.818 24.141 25.2629 25.7549 25.3554C29.3665 25.722 32.4298 27.216 36.0382 30.3923C38.0427 31.9994 40.7428 31.9411 42.4869 30.2656C44.231 31.9446 46.9311 32.0063 48.9904 30.3547L48.9894 30.3547ZM42.6401 23.0906C42.5818 23.166 42.5373 23.2379 42.4824 23.3099C42.4208 23.2276 42.3831 23.1488 42.318 23.0632C41.1564 21.6548 39.6521 20.3288 37.9869 19.1535L41.3174 16.7413C41.7869 16.4021 42.1604 16.0114 42.4893 15.6002C42.8148 16.0114 43.1883 16.402 43.6543 16.7413L46.9917 19.157C45.3196 20.3426 43.8085 21.6754 42.6401 23.0906Z" fill="#32959D"/>
</svg>
