<svg width="375" height="307" viewBox="0 0 375 307" fill="none" xmlns="http://www.w3.org/2000/svg">
<g clip-path="url(#clip0_560_1396)">
<mask id="mask0_560_1396" style="mask-type:luminance" maskUnits="userSpaceOnUse" x="-82" y="213" width="540" height="94">
<path d="M457.672 306.331V213.553H-81.197V306.331H457.672Z" fill="white"/>
</mask>
<g mask="url(#mask0_560_1396)">
<path d="M188.473 306.331C39.5654 306.331 -81.1965 264.811 -81.1965 213.553H458.141C458.141 264.811 337.456 306.331 188.473 306.331Z" fill="#EAF7FC"/>
</g>
<path d="M410.742 179.552C411.207 177.088 411.444 174.586 411.453 172.078C411.435 164.732 409.429 157.527 405.647 151.229C401.865 144.931 396.448 139.775 389.971 136.307C383.495 132.839 376.2 131.19 368.862 131.534C361.523 131.878 354.415 134.202 348.291 138.26C343.446 126.536 334.686 116.854 323.504 110.864C312.322 104.873 299.409 102.944 286.964 105.405C274.519 107.866 263.312 114.565 255.252 124.361C247.192 134.157 242.777 146.444 242.759 159.13C242.759 159.814 242.759 160.472 242.759 161.13C234.874 163.364 227.999 168.244 223.288 174.949C218.577 181.654 216.317 189.777 216.888 197.952C217.459 206.127 220.826 213.856 226.424 219.841C232.022 225.826 239.509 229.702 247.627 230.819V231.345H409.032C415.698 231.283 422.083 228.649 426.855 223.994C431.627 219.339 434.417 213.021 434.645 206.358C434.872 199.696 432.519 193.203 428.075 188.233C423.632 183.263 417.441 180.201 410.795 179.684L410.742 179.552Z" fill="#EAF7FC"/>
<path d="M-32.3048 179.552C-32.769 177.088 -33.0069 174.586 -33.0154 172.078C-32.9977 164.732 -30.9913 157.527 -27.2092 151.229C-23.427 144.931 -18.0102 139.775 -11.5337 136.307C-5.05717 132.839 2.2374 131.19 9.57574 131.534C16.9141 131.878 24.0224 134.202 30.1463 138.26C34.9915 126.536 43.7512 116.854 54.9334 110.864C66.1155 104.873 79.0287 102.944 91.4735 105.405C103.918 107.866 115.125 114.565 123.185 124.361C131.246 134.157 135.661 146.444 135.679 159.13C135.679 159.814 135.679 160.472 135.679 161.13C143.563 163.364 150.439 168.244 155.15 174.949C159.861 181.654 162.121 189.777 161.549 197.952C160.978 206.127 157.611 213.856 152.013 219.841C146.416 225.826 138.929 229.702 130.81 230.819V231.345H-30.5942C-37.2604 231.283 -43.6453 228.649 -48.4172 223.994C-53.1892 219.339 -55.9799 213.021 -56.2073 206.358C-56.4347 199.696 -54.0813 193.203 -49.6378 188.233C-45.1944 183.263 -39.0039 180.201 -32.3575 179.684L-32.3048 179.552Z" fill="#EAF7FC"/>
<path d="M148.525 34.7053L142.305 35.8601L140.919 42.4034L139.534 35.8601L133.329 34.7053L139.503 33.1965L140.919 27.0073L142.336 33.1965L148.525 34.7053Z" fill="#455A64"/>
<path d="M74.0079 244.877L67.7879 246.016L66.4023 252.559L65.0166 246.016L58.812 244.877L64.9858 243.368L66.4023 237.179L67.8187 243.368L74.0079 244.877Z" fill="#455A64"/>
<path d="M250.385 218.503L244.181 219.658L242.795 226.201L241.409 219.658L235.189 218.503L241.379 216.994L242.795 210.805L244.212 216.994L250.385 218.503Z" fill="#455A64"/>
<path d="M330.629 192.654L327.165 193.285L326.38 196.949L325.61 193.285L322.146 192.654L325.595 191.807L326.38 188.343L327.18 191.807L330.629 192.654Z" fill="#455A64"/>
<path d="M115.47 180.598L112.005 181.245L111.236 184.909L110.45 181.245L106.986 180.598L110.435 179.751L111.236 176.303L112.021 179.751L115.47 180.598Z" fill="#455A64"/>
<path d="M223.026 58.8155L219.547 59.4622L218.777 63.111L218.007 59.4622L214.528 58.8155L217.992 57.9687L218.777 54.52L219.562 57.9687L223.026 58.8155Z" fill="#455A64"/>
<path d="M303.979 251.836L300.515 252.467L299.745 256.131L298.96 252.467L295.496 251.836L298.944 250.989L299.745 247.525L300.53 250.989L303.979 251.836Z" fill="#455A64"/>
<path d="M275.758 258.872L272.278 259.503L271.509 263.167L270.723 259.503L267.259 258.872L270.708 258.025L271.509 254.561L272.294 258.025L275.758 258.872Z" fill="#455A64"/>
<path d="M275.758 113.148L272.278 113.795L271.509 117.459L270.723 113.795L267.259 113.148L270.708 112.301L271.509 108.853L272.294 112.301L275.758 113.148Z" fill="#455A64"/>
<path d="M125.092 107.913L121.612 108.545L120.843 112.209L120.057 108.545L116.593 107.913L120.057 107.067L120.843 103.603L121.628 107.067L125.092 107.913Z" fill="#455A64"/>
<path d="M39.5824 104.126L36.1182 104.773L35.333 108.437L34.5632 104.773L31.0991 104.126L34.5478 103.279L35.333 99.8306L36.1336 103.279L39.5824 104.126Z" fill="#455A64"/>
<path d="M86.2327 276.223L82.7686 276.87L81.9988 280.519L81.2136 276.87L77.7495 276.223L81.1982 275.376L81.9988 271.928L82.784 275.376L86.2327 276.223Z" fill="#455A64"/>
<path d="M261.44 275.223C261.174 275.223 260.92 275.328 260.732 275.516C260.544 275.703 260.439 275.958 260.439 276.223C260.439 276.489 260.544 276.743 260.732 276.931C260.92 277.119 261.174 277.224 261.44 277.224C261.705 277.224 261.96 277.119 262.147 276.931C262.335 276.743 262.44 276.489 262.44 276.223C262.44 275.958 262.335 275.703 262.147 275.516C261.96 275.328 261.705 275.223 261.44 275.223Z" fill="#455A64"/>
<path d="M276.728 134.118C276.482 134.148 276.255 134.267 276.091 134.453C275.927 134.639 275.836 134.878 275.836 135.126C275.836 135.374 275.927 135.613 276.091 135.799C276.255 135.985 276.482 136.104 276.728 136.135C276.974 136.104 277.2 135.985 277.364 135.799C277.528 135.613 277.619 135.374 277.619 135.126C277.619 134.878 277.528 134.639 277.364 134.453C277.2 134.267 276.974 134.148 276.728 134.118Z" fill="#455A64"/>
<path d="M99.6579 47.792C99.4119 47.8224 99.1855 47.9418 99.0214 48.1275C98.8572 48.3132 98.7666 48.5526 98.7666 48.8004C98.7666 49.0483 98.8572 49.2876 99.0214 49.4734C99.1855 49.6591 99.4119 49.7784 99.6579 49.8089C99.9039 49.7784 100.13 49.6591 100.294 49.4734C100.459 49.2876 100.549 49.0483 100.549 48.8004C100.549 48.5526 100.459 48.3132 100.294 48.1275C100.13 47.9418 99.9039 47.8224 99.6579 47.792Z" fill="#455A64"/>
<path d="M22.8777 111.146C22.6123 111.146 22.3577 111.252 22.17 111.44C21.9824 111.627 21.877 111.882 21.877 112.147C21.877 112.413 21.9824 112.667 22.17 112.855C22.3577 113.043 22.6123 113.148 22.8777 113.148C23.1431 113.148 23.3977 113.043 23.5853 112.855C23.773 112.667 23.8784 112.413 23.8784 112.147C23.8784 111.882 23.773 111.627 23.5853 111.44C23.3977 111.252 23.1431 111.146 22.8777 111.146Z" fill="#455A64"/>
<path d="M81.9987 210.805C81.7527 210.836 81.5263 210.955 81.3622 211.141C81.198 211.326 81.1074 211.566 81.1074 211.814C81.1074 212.061 81.198 212.301 81.3622 212.487C81.5263 212.672 81.7527 212.792 81.9987 212.822C82.2447 212.792 82.4711 212.672 82.6353 212.487C82.7994 212.301 82.89 212.061 82.89 211.814C82.89 211.566 82.7994 211.326 82.6353 211.141C82.4711 210.955 82.2447 210.836 81.9987 210.805Z" fill="#455A64"/>
<path d="M52.2073 192.407C52.0194 192.407 51.8393 192.482 51.7065 192.615C51.5736 192.747 51.499 192.928 51.499 193.115C51.499 193.303 51.5736 193.483 51.7065 193.616C51.8393 193.749 52.0194 193.824 52.2073 193.824C52.3951 193.824 52.5752 193.749 52.708 193.616C52.8409 193.483 52.9155 193.303 52.9155 193.115C52.9155 192.928 52.8409 192.747 52.708 192.615C52.5752 192.482 52.3951 192.407 52.2073 192.407Z" fill="#455A64"/>
<path d="M107.571 72.4258C107.383 72.4258 107.203 72.5004 107.07 72.6332C106.937 72.766 106.863 72.9462 106.863 73.134C106.863 73.3218 106.937 73.502 107.07 73.6348C107.203 73.7676 107.383 73.8422 107.571 73.8422C107.759 73.8422 107.939 73.7676 108.072 73.6348C108.205 73.502 108.279 73.3218 108.279 73.134C108.279 72.9462 108.205 72.766 108.072 72.6332C107.939 72.5004 107.759 72.4258 107.571 72.4258Z" fill="#455A64"/>
<path d="M128.679 172.377C128.508 172.402 128.351 172.488 128.237 172.62C128.123 172.751 128.061 172.919 128.061 173.093C128.061 173.267 128.123 173.434 128.237 173.566C128.351 173.697 128.508 173.784 128.679 173.809C128.851 173.784 129.008 173.697 129.122 173.566C129.235 173.434 129.298 173.267 129.298 173.093C129.298 172.919 129.235 172.751 129.122 172.62C129.008 172.488 128.851 172.402 128.679 172.377Z" fill="#455A64"/>
<path d="M63.0305 301.242C62.8586 301.267 62.7016 301.353 62.5881 301.485C62.4746 301.616 62.4121 301.784 62.4121 301.958C62.4121 302.131 62.4746 302.299 62.5881 302.431C62.7016 302.562 62.8586 302.648 63.0305 302.674C63.2023 302.648 63.3593 302.562 63.4728 302.431C63.5863 302.299 63.6488 302.131 63.6488 301.958C63.6488 301.784 63.5863 301.616 63.4728 301.485C63.3593 301.353 63.2023 301.267 63.0305 301.242Z" fill="#455A64"/>
<path d="M240.039 285.122C239.557 285.165 239.108 285.387 238.78 285.745C238.453 286.103 238.272 286.57 238.272 287.054C238.272 287.539 238.453 288.006 238.78 288.364C239.108 288.721 239.557 288.943 240.039 288.986C240.522 288.943 240.971 288.721 241.298 288.364C241.625 288.006 241.807 287.539 241.807 287.054C241.807 286.57 241.625 286.103 241.298 285.745C240.971 285.387 240.522 285.165 240.039 285.122Z" fill="#455A64"/>
<path d="M355.987 174.04C355.476 174.04 354.987 174.242 354.626 174.603C354.265 174.964 354.062 175.454 354.062 175.964C354.062 176.474 354.265 176.964 354.626 177.325C354.987 177.686 355.476 177.889 355.987 177.889C356.497 177.889 356.986 177.686 357.347 177.325C357.708 176.964 357.911 176.474 357.911 175.964C357.911 175.454 357.708 174.964 357.347 174.603C356.986 174.242 356.497 174.04 355.987 174.04Z" fill="#455A64"/>
<path d="M161.319 21.0952C160.836 21.1383 160.387 21.3606 160.06 21.7182C159.733 22.0758 159.552 22.5428 159.552 23.0274C159.552 23.512 159.733 23.9791 160.06 24.3367C160.387 24.6943 160.836 24.9165 161.319 24.9596C161.802 24.9165 162.251 24.6943 162.578 24.3367C162.905 23.9791 163.086 23.512 163.086 23.0274C163.086 22.5428 162.905 22.0758 162.578 21.7182C162.251 21.3606 161.802 21.1383 161.319 21.0952Z" fill="#455A64"/>
<path d="M135.993 97.9521C135.51 97.9953 135.061 98.2175 134.734 98.5751C134.407 98.9327 134.226 99.3997 134.226 99.8843C134.226 100.369 134.407 100.836 134.734 101.194C135.061 101.551 135.51 101.773 135.993 101.817C136.476 101.773 136.925 101.551 137.252 101.194C137.579 100.836 137.76 100.369 137.76 99.8843C137.76 99.3997 137.579 98.9327 137.252 98.5751C136.925 98.2175 136.476 97.9953 135.993 97.9521Z" fill="#455A64"/>
<path d="M72.1296 294.698C71.6469 294.741 71.1978 294.964 70.8708 295.321C70.5437 295.679 70.3623 296.146 70.3623 296.63C70.3623 297.115 70.5437 297.582 70.8708 297.94C71.1978 298.297 71.6469 298.52 72.1296 298.563C72.6123 298.52 73.0613 298.297 73.3884 297.94C73.7154 297.582 73.8968 297.115 73.8968 296.63C73.8968 296.146 73.7154 295.679 73.3884 295.321C73.0613 294.964 72.6123 294.741 72.1296 294.698Z" fill="#455A64"/>
<path d="M135.134 132.215C127.984 136.774 119.66 139.149 111.18 139.05C108.499 138.885 105.811 138.855 103.127 138.96C100.424 139.071 97.8352 140.077 95.7662 141.82C94.7499 142.708 94.025 143.881 93.6864 145.188C93.3478 146.494 93.4112 147.872 93.8683 149.142C95.3815 152.604 100.28 153.976 101.024 157.682C101.562 160.35 99.5747 162.889 97.3306 164.44C95.0865 165.992 92.4705 167.005 90.5855 168.98C89.4477 170.162 88.6441 171.625 88.2565 173.219C87.869 174.813 87.9114 176.482 88.3795 178.054C88.8476 179.627 89.7246 181.047 90.9209 182.17C92.1173 183.292 93.5901 184.078 95.1891 184.445C97.0998 184.894 99.4465 184.907 100.485 186.574C101.036 187.84 101.136 189.257 100.767 190.587C100.264 193.445 100.644 196.389 101.857 199.025C102.482 200.331 103.456 201.437 104.672 202.223C105.887 203.008 107.297 203.442 108.744 203.475C109.872 203.475 110.975 203.09 112.103 203.116C112.666 203.081 113.226 203.218 113.71 203.509C114.193 203.8 114.576 204.231 114.809 204.745C114.928 205.513 114.894 206.298 114.706 207.053C114.296 210.836 118.066 213.798 121.721 214.875C129.018 217.055 137.109 214.952 143.316 210.464C149.522 205.976 153.767 199.333 156.652 192.28C159.537 185.227 161.089 177.738 162.628 170.275" fill="#263238"/>
<path d="M216.64 320.836C215.823 318.815 214.596 316.986 213.037 315.463C203.381 305.204 188.749 300.267 174.682 301.075C160.614 301.882 147.137 307.999 136.211 316.86C130.377 321.592 122.503 330.71 120.451 337.942C129.017 340.007 141.815 337.134 149.945 333.608C158.075 330.081 166.026 325.824 174.784 324.926C184.941 323.888 194.917 327.491 204.92 329.53C206.92 330.017 208.985 330.182 211.036 330.017C212.062 329.925 213.056 329.617 213.953 329.113C214.85 328.609 215.631 327.921 216.243 327.094C216.781 326.149 217.096 325.095 217.165 324.011C217.234 322.926 217.054 321.84 216.64 320.836Z" fill="#32959D"/>
<g opacity="0.3">
<path d="M216.64 320.836C215.823 318.815 214.596 316.986 213.037 315.463C203.381 305.204 188.749 300.267 174.682 301.075C160.614 301.882 147.137 307.999 136.211 316.86C130.377 321.592 122.503 330.71 120.451 337.942C129.017 340.007 141.815 337.134 149.945 333.608C158.075 330.081 166.026 325.824 174.784 324.926C184.941 323.888 194.917 327.491 204.92 329.53C206.92 330.017 208.985 330.182 211.036 330.017C212.062 329.925 213.056 329.617 213.953 329.113C214.85 328.609 215.631 327.921 216.243 327.094C216.781 326.149 217.096 325.095 217.165 324.011C217.234 322.926 217.054 321.84 216.64 320.836Z" fill="black"/>
</g>
<path d="M182.799 110.671C176.67 97.3861 161.499 100.002 154.241 103.529C146.947 106.972 141.218 113.039 138.199 120.52C136.07 125.649 134.352 131.497 130.069 134.626C128.1 135.795 126.066 136.853 123.978 137.793C122.905 138.313 121.964 139.069 121.225 140.004C120.485 140.938 119.967 142.028 119.708 143.192C119.066 147.616 123.555 150.681 127.248 152.463C125.029 153.976 124.452 157.4 125.235 160.157C126.181 162.792 127.676 165.196 129.62 167.21C136.162 174.433 143.645 180.743 151.869 185.971C158.871 190.331 163.41 190.844 170.925 187.715C173.977 186.433 176.824 184.355 180.081 183.983C183.864 183.56 187.48 185.496 191.224 186.279C194.969 187.061 199.688 185.984 200.906 182.047C201.208 180.478 201.379 178.887 201.419 177.289C201.611 175.712 202.394 173.994 203.817 173.635C204.971 173.34 206.125 174.045 207.254 174.417C209.96 175.315 214.037 195.396 216.628 194.178C216.628 194.178 220.398 160.144 213.14 140.229C210.819 133.818 205.869 120.327 201.919 115.057C196.482 107.824 183.453 109.427 182.799 110.71" fill="#263238"/>
<path d="M175.028 112.877C165.372 109.504 152.343 116.916 149.381 126.701C146.086 137.562 142.508 150.963 141.879 159.503C140.597 176.674 152.818 181.765 152.818 181.765L147.855 208.604L189.698 195.076L204.304 131.83L205.664 126.521L175.028 112.877Z" fill="#FFBE9D"/>
<path d="M149.381 139.935C149.522 140.306 151.51 139.768 153.69 140.627C155.87 141.486 157.05 143.192 157.383 143.038C157.717 142.884 157.486 142.397 156.986 141.614C156.299 140.586 155.308 139.797 154.152 139.358C153.02 138.897 151.769 138.816 150.587 139.127C149.728 139.447 149.381 139.768 149.381 139.935Z" fill="#263238"/>
<path d="M171.04 145.641C171.297 145.936 173.028 144.833 175.362 145C177.695 145.167 179.337 146.449 179.619 146.18C179.901 145.91 179.516 145.526 178.798 144.897C177.832 144.134 176.655 143.686 175.426 143.615C174.206 143.527 172.989 143.828 171.95 144.474C171.181 145 170.925 145.5 171.04 145.641Z" fill="#263238"/>
<path d="M161.32 155.246C160.206 154.584 159.013 154.067 157.768 153.707C157.204 153.502 156.678 153.258 156.678 152.835C156.766 152.222 157.044 151.653 157.473 151.206L160.23 147.167C164.077 141.409 167.065 136.613 166.834 136.459C166.603 136.305 163.269 140.845 159.384 146.603C158.447 148.039 157.55 149.385 156.691 150.693C156.152 151.308 155.852 152.095 155.844 152.912C155.883 153.136 155.971 153.349 156.102 153.536C156.232 153.722 156.403 153.877 156.601 153.989C156.908 154.145 157.23 154.269 157.563 154.361C158.772 154.815 160.035 155.112 161.32 155.246Z" fill="#263238"/>
<path d="M152.831 181.765C160.776 183.765 169.116 183.556 176.952 181.162C176.952 181.162 168.834 191.498 152.048 185.958L152.831 181.765Z" fill="#EB996E"/>
<path d="M160.076 162.914C159.858 162.632 160.179 163.26 160.076 162.914V162.914Z" fill="#EB996E"/>
<path d="M167.527 161.799C167.276 161.271 166.918 160.8 166.477 160.416C166.036 160.032 165.52 159.743 164.962 159.567C164.207 159.297 163.396 159.222 162.605 159.35C161.813 159.478 161.067 159.804 160.435 160.298C160.177 160.667 160.007 161.09 159.938 161.534C159.869 161.979 159.903 162.434 160.038 162.863C160.846 163.902 160.923 164.774 162.051 165.428C162.864 165.696 163.725 165.784 164.575 165.687C165.425 165.589 166.244 165.308 166.975 164.864C167.37 164.471 167.635 163.966 167.733 163.418C167.832 162.87 167.76 162.305 167.527 161.799Z" fill="#EB996E"/>
<path d="M167.68 158.4C167.308 158.297 166.719 160.772 164.192 162.029C161.666 163.286 159.063 162.401 158.973 162.747C158.973 162.888 159.448 163.363 160.563 163.658C162.008 164.02 163.533 163.861 164.872 163.209C166.162 162.578 167.155 161.469 167.642 160.118C167.988 159.105 167.847 158.426 167.68 158.4Z" fill="#263238"/>
<path d="M175.759 133.549C175.631 134.203 177.542 134.831 179.478 136.293C181.414 137.755 182.735 139.255 183.325 138.858C183.581 138.678 183.569 137.998 183.184 137.088C182.664 135.957 181.855 134.984 180.837 134.267C179.849 133.535 178.677 133.091 177.452 132.984C176.439 133.036 175.823 133.241 175.759 133.549Z" fill="#263238"/>
<path d="M150.792 131.15C151.292 131.638 153.049 130.907 155.203 130.676C157.358 130.445 159.243 130.676 159.615 130.06C159.769 129.766 159.435 129.265 158.576 128.778C157.423 128.261 156.147 128.079 154.896 128.252C153.645 128.383 152.457 128.868 151.472 129.65C150.754 130.343 150.561 130.907 150.792 131.15Z" fill="#263238"/>
<path d="M208.023 126.483C207.303 125.199 206.175 124.192 204.817 123.623C196.492 119.054 187.873 115.045 179.016 111.62L175.374 113.685C174.896 117.232 175.482 120.842 177.057 124.056C178.632 127.27 181.126 129.944 184.223 131.74C186.71 133.125 189.942 134.433 190.262 137.267C190.583 140.101 187.518 142.204 185.787 144.589C184.728 146.078 184.135 147.848 184.083 149.674C184.03 151.5 184.521 153.301 185.492 154.848C186.608 156.579 188.3 157.887 189.339 159.67C189.983 160.879 190.348 162.218 190.408 163.587C190.468 164.956 190.221 166.321 189.685 167.582C188.647 170.147 186.915 173.519 184.556 174.943C187.741 175.659 191.071 175.363 194.08 174.096C197.089 172.829 199.628 170.655 201.342 167.877C203.291 164.568 203.445 160.555 203.701 156.72C204.29 147.999 205.677 139.35 207.843 130.881C208.39 129.475 208.453 127.928 208.023 126.483Z" fill="#263238"/>
<path d="M179.593 112.018C177.351 114.986 174.655 117.582 171.604 119.712C168.45 121.674 164.423 122.597 160.974 121.212C161.833 120.263 162.705 119.314 163.538 118.353C157.4 122.556 150.451 125.43 143.136 126.79C147.727 121.212 152.459 115.519 158.73 111.915C165 108.312 173.22 107.209 179.337 111.043" fill="#263238"/>
<path d="M208.87 144.448L189.326 159.631C191.571 162.081 190.699 168.313 188.493 170.788C186.287 173.263 183.364 175.379 182.504 178.584C181.555 182.085 183.415 185.714 183.466 189.343C183.543 194.473 180.094 198.884 177.426 203.27C174.759 207.655 172.835 213.529 175.81 217.722C179.157 222.441 186.736 221.761 191.314 218.235C195.892 214.708 198.508 209.258 201.906 204.591C205.305 199.923 210.614 196.345 216.371 196.896C218.157 179.064 215.582 161.065 208.87 144.448Z" fill="#263238"/>
<path d="M212.139 186.779C212.024 186.561 213.178 185.727 215.153 184.137C217.941 181.984 220.425 179.465 222.539 176.648C223.935 174.728 225.045 172.616 225.835 170.377C226.746 167.866 227.138 165.197 226.989 162.529C226.785 159.623 225.864 156.812 224.309 154.348C222.572 151.649 220.37 149.279 217.807 147.346C212.55 143.256 206.266 140.935 200.778 138.485C195.669 136.512 190.847 133.864 186.441 130.612C183.434 128.368 180.946 125.503 179.144 122.212C177.952 119.84 177.759 118.365 177.939 118.365C178.119 118.365 178.798 119.558 180.247 121.584C182.342 124.4 184.911 126.83 187.839 128.765C192.267 131.578 197.004 133.872 201.957 135.6C204.753 136.716 207.741 137.87 210.793 139.28C214.028 140.736 217.087 142.556 219.91 144.705C222.787 146.889 225.242 149.579 227.156 152.642C228.95 155.584 229.969 158.933 230.118 162.376C230.203 165.449 229.644 168.507 228.476 171.352C227.491 173.791 226.133 176.062 224.45 178.084C222.054 180.941 219.172 183.351 215.935 185.201C213.614 186.509 212.216 186.958 212.139 186.779Z" fill="#263238"/>
<path d="M212.511 140.729C211.925 140.608 211.353 140.423 210.806 140.178C209.729 139.78 208.241 139.178 206.279 138.383C201.275 136.4 196.574 133.723 192.314 130.432C188.036 127.071 184.817 122.547 183.043 117.403C182.527 115.848 182.221 114.231 182.133 112.595C182.109 112.167 182.109 111.739 182.133 111.312C182.112 111.159 182.112 111.004 182.133 110.851C182.33 113.028 182.76 115.177 183.415 117.262C185.302 122.239 188.502 126.613 192.673 129.919C196.898 133.162 201.512 135.863 206.407 137.959L210.844 139.934C211.423 140.147 211.981 140.413 212.511 140.729Z" fill="#455A64"/>
<path d="M213.127 160.144C213.05 160.144 213.447 159.375 213.652 157.939C213.88 155.884 213.52 153.808 212.614 151.95C211.288 149.185 209.241 146.828 206.689 145.128C203.881 143.089 200.393 141.473 196.905 139.383C193.608 137.423 190.653 134.936 188.159 132.022C186.117 129.644 184.392 127.01 183.03 124.187C182.122 122.292 181.405 120.312 180.888 118.275C180.683 117.557 180.606 116.993 180.529 116.608C180.47 116.418 180.444 116.218 180.452 116.019C180.72 116.736 180.947 117.468 181.132 118.211C181.743 120.196 182.52 122.127 183.453 123.982C184.833 126.752 186.556 129.337 188.582 131.676C191.051 134.524 193.961 136.957 197.2 138.883C200.637 140.935 204.15 142.589 206.997 144.692C209.613 146.473 211.69 148.94 212.998 151.822C213.895 153.764 214.194 155.929 213.858 158.041C213.759 158.607 213.591 159.158 213.358 159.683C213.242 159.965 213.152 160.157 213.127 160.144Z" fill="#455A64"/>
<path d="M105.063 147.142C105.063 147.142 105.063 147.065 105.178 146.936C105.307 146.739 105.448 146.551 105.602 146.372C106.19 145.668 106.937 145.114 107.782 144.756C109.142 144.28 110.572 144.033 112.013 144.025C113.668 143.936 115.565 143.807 117.656 143.807C119.916 143.848 122.174 143.637 124.388 143.179C126.886 142.537 129.2 141.321 131.146 139.627C133.29 137.724 135.147 135.521 136.66 133.087C138.269 130.448 139.738 127.726 141.059 124.931C142.407 122.117 143.949 119.401 145.675 116.801C147.305 114.358 149.354 112.222 151.728 110.492C155.817 107.64 160.657 106.061 165.641 105.952C168.974 105.836 172.295 106.422 175.387 107.671L176.823 108.299L177.811 108.863C178.093 109.008 178.364 109.175 178.619 109.363C178.32 109.265 178.032 109.136 177.759 108.979L176.734 108.479L175.297 107.914C172.215 106.779 168.936 106.273 165.654 106.427C160.785 106.604 156.072 108.189 152.087 110.992C149.781 112.691 147.793 114.783 146.214 117.173C144.521 119.737 143.009 122.415 141.687 125.188C140.351 128.005 138.865 130.749 137.237 133.408C135.683 135.887 133.774 138.125 131.569 140.05C129.544 141.795 127.137 143.038 124.542 143.679C122.284 144.127 119.982 144.316 117.681 144.243C115.591 144.243 113.719 144.243 112.052 144.359C110.647 144.332 109.248 144.535 107.91 144.962C107.081 145.275 106.335 145.775 105.73 146.423C105.522 146.676 105.3 146.916 105.063 147.142Z" fill="#455A64"/>
<path d="M97.215 129.842C89.5208 110.415 79.262 91.3718 77.8514 76.894L62.5273 77.5096C62.8479 83.1134 64.8612 129.753 75.7227 148.193C86.5842 166.633 122.849 209.746 122.849 209.746L135.609 176.93C135.609 176.93 104.922 149.283 97.215 129.842Z" fill="#FFBE9D"/>
<path d="M71.6706 46.7334H64.9639C64.9639 46.7334 65.6179 50.683 68.657 50.901C71.6962 51.119 71.1063 50.4266 71.1063 50.4266L70.4267 51.0549L66.2462 51.8756C66.2462 51.8756 66.4514 55.1328 69.2084 55.6457L73.2735 51.8756L71.6706 46.7334Z" fill="#FFBE9D"/>
<path d="M90.034 46.1434C89.4185 51.1958 89.3544 50.8881 89.3544 50.8881L83.2247 55.9405L81.6603 48.5029C81.5594 48.0101 81.2985 47.5643 80.9182 47.235C80.5379 46.9057 80.0594 46.7113 79.5572 46.682L76.7745 46.5024C76.7745 46.5024 77.8517 42.6554 74.3509 42.976C74.3509 42.976 72.4273 42.4502 70.8757 48.8876C69.183 55.9277 61.8992 72.47 62.5276 77.997L78.0697 78.6253C77.903 73.4959 82.1347 68.0203 84.225 65.6608C84.8559 64.9582 85.2973 64.1064 85.5073 63.1858C85.7949 61.9211 86.3944 60.7484 87.2513 59.7748C89.1748 57.6461 93.2142 53.8118 93.2142 53.8118V42.104C93.2142 42.104 90.6239 41.2704 90.034 46.1434ZM77.5695 57.4537L74.3765 58.9028L74.9151 55.6456L77.5695 55.3891V57.4537Z" fill="#FFBE9D"/>
<path d="M74.2099 59.2491C74.208 58.7873 74.2596 58.3268 74.3638 57.8769C74.5177 56.9921 74.7357 55.7354 75.0306 54.1709L76.1078 48.7081C76.3608 47.658 76.5365 46.5908 76.6336 45.5151C76.6336 44.4764 76.2488 43.2838 75.1332 43.2197C74.0176 43.1555 73.1968 43.9121 72.6583 44.8226C72.4016 45.2956 72.1953 45.7941 72.0427 46.3101L71.5426 47.8361L69.8756 53.1451C69.3754 54.6582 68.9138 55.8636 68.5932 56.6844C68.4472 57.1401 68.2355 57.5721 67.9648 57.9667C68.0392 57.5249 68.1685 57.0941 68.3496 56.6844C68.6188 55.838 69.0164 54.6198 69.4524 53.1066C69.8884 51.5934 70.4141 49.7212 70.9784 47.7464C71.1451 47.2334 71.299 46.7205 71.4657 46.1947C71.6218 45.6331 71.8412 45.091 72.1197 44.579C72.4302 44.0379 72.839 43.5595 73.3251 43.1684C73.5959 42.9551 73.907 42.7986 74.2397 42.7083C74.5724 42.6179 74.9199 42.5956 75.2614 42.6426C75.6046 42.6981 75.9348 42.8154 76.236 42.9888C76.5255 43.1911 76.7628 43.4592 76.9285 43.7711C77.208 44.3451 77.3402 44.9797 77.3132 45.6177C77.2071 46.7296 77.0142 47.8315 76.7361 48.9133L75.4538 54.3633C75.1076 55.9021 74.8126 57.1588 74.5818 58.018C74.5116 58.4427 74.3866 58.8565 74.2099 59.2491Z" fill="#EB996E"/>
<path d="M77.3903 57.4922C77.2344 56.2419 77.1701 54.9818 77.198 53.7221C77.198 53.2091 77.121 52.7219 77.0825 52.273C77.103 51.9353 76.998 51.6019 76.7876 51.3369C76.3516 51.0163 75.8258 51.0163 75.8515 50.9009C75.8771 50.7855 75.9669 50.8112 76.1721 50.7855C76.4815 50.742 76.7966 50.8005 77.0697 50.9522C77.2612 51.1067 77.4159 51.302 77.5223 51.5239C77.6288 51.7457 77.6845 51.9885 77.6852 52.2346C77.7812 52.7297 77.8412 53.2311 77.8648 53.7349C78.0438 55.0072 77.88 56.3043 77.3903 57.4922Z" fill="#EB996E"/>
<path d="M85.007 54.6326C85.007 54.6326 84.5838 55.1968 83.7246 55.9149C82.6392 56.8768 81.432 57.6917 80.134 58.3385C78.7814 58.9251 77.3358 59.2681 75.8638 59.3516C75.2667 59.4681 74.6527 59.4681 74.0557 59.3516C74.6097 59.1154 75.199 58.9724 75.7997 58.9284C77.1941 58.7182 78.5559 58.3303 79.8519 57.7743C81.1277 57.1564 82.3464 56.4269 83.4938 55.5943C84.3658 54.9275 84.9428 54.5556 85.007 54.6326Z" fill="#EB996E"/>
<path d="M206.869 200.282C206.869 200.282 224.129 199.769 234.465 196.691C244.801 193.614 284.477 184.175 284.477 184.175L348.145 173.558L349.428 190.023C349.428 190.023 290.273 207.322 278.783 211.259C267.293 215.196 214.781 233.213 204.856 230.93L198.7 218.273L206.869 200.282Z" fill="#FFBE9D"/>
<path d="M378.755 154.194C377.717 153.963 372.562 156.31 372.562 156.31C373.053 155.714 373.33 154.971 373.348 154.199C373.367 153.427 373.126 152.671 372.664 152.053L365.586 155.528C363.715 157.425 361.741 159.219 359.674 160.901C356.418 163.901 353.415 167.165 350.698 170.66L346.466 174.596L349.095 190.177C350.946 190.331 352.809 190.087 354.557 189.459C356.75 188.446 359.956 184.33 359.956 184.33L365.996 183.817C366.699 183.765 367.37 183.501 367.92 183.06C368.464 182.529 368.882 181.882 369.142 181.167C369.402 180.452 369.497 179.688 369.42 178.931C373.267 176.751 371.023 173.981 371.023 173.981C372.238 173.832 373.349 173.221 374.126 172.275C374.456 171.763 374.614 171.16 374.58 170.551C374.545 169.943 374.319 169.362 373.934 168.89C373.216 167.608 367.676 168.005 367.676 168.005L367.381 166.377C367.381 166.377 375.844 159.657 377.742 158.195C379.64 156.733 379.73 154.412 378.755 154.194Z" fill="#FFBE9D"/>
<path d="M372.665 156.118C372.056 157.333 371.179 158.394 370.1 159.221C369.003 160.159 367.97 161.17 367.009 162.247C365.942 163.632 365.17 165.221 364.74 166.915C364.294 168.688 363.658 170.408 362.842 172.044C362.142 173.353 361.281 174.568 360.277 175.661C359.599 176.389 358.856 177.054 358.059 177.648C357.78 177.884 357.464 178.071 357.122 178.2C357.045 178.11 358.328 177.225 359.931 175.34C360.856 174.242 361.652 173.042 362.303 171.762C363.069 170.166 363.679 168.5 364.124 166.787C364.574 165.008 365.4 163.346 366.548 161.914C367.551 160.832 368.64 159.833 369.805 158.926C370.814 158.049 371.769 157.111 372.665 156.118Z" fill="#EB996E"/>
<path d="M369.548 178.892C368.687 179.476 367.733 179.91 366.727 180.175C365.639 180.54 364.511 180.773 363.367 180.867C362.688 180.918 362.007 180.918 361.328 180.867C360.553 180.813 359.806 180.557 359.161 180.123C358.826 179.885 358.553 179.569 358.365 179.203C358.178 178.837 358.081 178.431 358.084 178.02C358.227 177.282 358.626 176.619 359.212 176.148C359.68 175.701 360.253 175.379 360.879 175.212C361.443 175.058 361.956 174.943 362.431 174.853C363.435 174.549 364.486 174.427 365.534 174.494C365.534 174.571 364.38 174.801 362.533 175.302L361.046 175.738C360.511 175.901 360.026 176.197 359.635 176.597C359.188 176.976 358.874 177.488 358.738 178.059C358.74 178.361 358.816 178.657 358.959 178.923C359.102 179.189 359.308 179.416 359.558 179.585C360.717 180.188 362.031 180.429 363.328 180.277C364.43 180.213 365.522 180.032 366.586 179.739C368.419 179.264 369.509 178.79 369.548 178.892Z" fill="#EB996E"/>
<path d="M371.228 173.981C370.558 174.355 369.814 174.579 369.048 174.635C368.231 174.775 367.402 174.835 366.573 174.814C366.029 174.853 365.483 174.772 364.973 174.578C364.463 174.383 364.003 174.078 363.624 173.686C363.299 173.224 363.114 172.679 363.091 172.115C363.069 171.551 363.209 170.992 363.495 170.506C363.928 169.743 364.587 169.134 365.38 168.762C366.052 168.371 366.81 168.155 367.586 168.133C367.586 168.236 366.778 168.492 365.611 169.172C364.948 169.552 364.405 170.112 364.047 170.788C363.831 171.168 363.725 171.601 363.741 172.038C363.757 172.475 363.894 172.899 364.137 173.263C364.462 173.578 364.848 173.823 365.271 173.984C365.695 174.145 366.146 174.218 366.599 174.199C367.397 174.252 368.198 174.252 368.997 174.199C369.734 174.07 370.48 173.998 371.228 173.981Z" fill="#EB996E"/>
<path d="M367.048 183.598C366.488 183.878 365.885 184.065 365.265 184.15C363.805 184.556 362.292 184.738 360.777 184.688C360.52 184.7 360.263 184.655 360.026 184.555C359.788 184.455 359.576 184.304 359.405 184.111C359.128 183.743 358.987 183.29 359.007 182.829C359.036 182.453 359.148 182.088 359.334 181.76C359.52 181.432 359.776 181.149 360.084 180.931C361.213 180.251 362.034 180.675 361.982 180.726C361.404 180.787 360.849 180.99 360.367 181.316C360.142 181.506 359.96 181.742 359.832 182.007C359.704 182.272 359.633 182.561 359.623 182.855C359.616 183.173 359.716 183.484 359.905 183.739C360.021 183.862 360.163 183.955 360.321 184.013C360.479 184.071 360.648 184.091 360.815 184.073C362.276 184.106 363.737 183.994 365.175 183.739C365.785 183.573 366.42 183.526 367.048 183.598Z" fill="#EB996E"/>
<path d="M177.593 254.949C177.224 255.233 176.819 255.466 176.387 255.641C175.252 256.171 174.072 256.6 172.861 256.923C168.829 258.101 164.576 258.312 160.448 257.539C156.325 256.762 152.449 255.002 149.15 252.41C148.159 251.635 147.237 250.777 146.393 249.845C146.066 249.514 145.781 249.144 145.547 248.742C145.649 248.652 146.906 250.178 149.394 252.051C152.699 254.487 156.506 256.156 160.538 256.936C164.57 257.694 168.72 257.558 172.694 256.539C175.759 255.757 177.516 254.859 177.593 254.949Z" fill="#32959D"/>
<path d="M148.445 207.527C148.445 207.527 189.019 194.55 190.532 194.14C192.045 193.729 227.835 196.922 227.835 196.922C227.835 196.922 226.322 220.633 235.299 228.314L208.972 237.804L200.675 260.642C200.675 260.642 196.046 269.952 199.726 278.685C206.689 295.214 218.769 321.297 216.987 324.285C216.794 324.593 215.704 315.309 198.534 310.385C193.327 308.91 183.876 308.884 175.323 310.615C138.52 318.027 124.311 334.98 120.182 337.942C120.182 337.942 127.761 278.48 124.183 269.196C120.605 259.911 116.809 253.807 119.759 245.587C122.708 237.368 127.132 224.082 127.132 224.082L112.629 207.668L132.89 173.981L151.433 189.369L148.445 207.527Z" fill="#32959D"/>
<path d="M161.935 262.617C161.471 262.677 161.001 262.677 160.537 262.617C159.265 262.566 157.999 262.403 156.755 262.13C152.612 261.23 148.792 259.222 145.701 256.321C142.62 253.4 140.451 249.65 139.456 245.523C139.16 244.261 138.988 242.972 138.943 241.676C138.902 241.213 138.928 240.747 139.02 240.292C139.221 241.992 139.521 243.679 139.917 245.344C141.017 249.324 143.175 252.931 146.162 255.782C149.183 258.596 152.866 260.599 156.87 261.604C159.948 262.553 161.935 262.553 161.935 262.617Z" fill="#263238"/>
<path d="M123.837 212.349C125.417 214.366 126.395 216.789 126.658 219.338C127.139 221.856 126.908 224.458 125.991 226.853C126.241 224.388 126.241 221.905 125.991 219.441C125.514 217.01 124.793 214.634 123.837 212.349Z" fill="#263238"/>
<path d="M209.947 219.376C209.947 219.479 209.113 220.056 207.882 221.248C206.289 222.791 205.005 224.623 204.099 226.647C203.2 228.668 202.712 230.847 202.663 233.059C202.663 234.764 202.83 235.816 202.663 235.841C202.298 234.96 202.119 234.013 202.137 233.059C202.042 230.754 202.481 228.459 203.42 226.352C204.349 224.242 205.738 222.367 207.485 220.864C208.197 220.207 209.034 219.701 209.947 219.376Z" fill="#263238"/>
<g opacity="0.3">
<path d="M155.909 261.732C151.995 260.955 148.435 258.941 145.752 255.987C143.932 254.238 142.442 252.174 141.354 249.896C140.431 253.923 146.034 261.065 151.497 263.694C154.266 264.985 157.298 265.613 160.352 265.528C163.406 265.443 166.398 264.649 169.091 263.207C164.659 263.16 160.242 262.666 155.909 261.732Z" fill="black"/>
</g>
<path d="M205.6 291.201C205.6 291.278 204.535 290.47 202.432 289.521C199.439 288.229 196.215 287.558 192.956 287.546C188.107 287.517 183.304 288.49 178.85 290.406C173.446 292.84 168.292 295.795 163.461 299.228C154.556 305.401 145.058 310.672 135.109 314.963C131.262 316.591 128.133 317.758 125.94 318.515C124.85 318.912 123.991 319.182 123.375 319.361C123.085 319.474 122.784 319.555 122.478 319.605C122.749 319.45 123.038 319.325 123.337 319.233L125.824 318.271C127.992 317.438 131.108 316.22 134.891 314.527C144.768 310.134 154.213 304.828 163.102 298.677C167.968 295.212 173.171 292.248 178.632 289.829C183.169 287.915 188.058 286.975 192.981 287.072C196.295 287.126 199.56 287.883 202.56 289.29C203.648 289.799 204.669 290.441 205.6 291.201Z" fill="white"/>
<path d="M198.264 269.939C197.494 269.255 196.68 268.621 195.828 268.041C193.435 266.575 190.717 265.72 187.915 265.553C183.754 265.356 179.603 266.12 175.784 267.785C171.089 269.824 166.505 272.11 162.05 274.633C157.554 277.13 152.917 279.365 148.163 281.326C144.247 282.896 140.157 283.989 135.98 284.584C133.167 284.977 130.316 285.024 127.491 284.725C126.724 284.64 125.962 284.516 125.209 284.353C124.941 284.314 124.678 284.245 124.426 284.148C124.426 284.083 125.529 284.301 127.517 284.468C130.321 284.66 133.137 284.544 135.916 284.122C140.036 283.463 144.068 282.336 147.932 280.762C152.647 278.787 157.253 276.561 161.73 274.094C166.209 271.564 170.824 269.282 175.554 267.259C179.465 265.594 183.711 264.865 187.954 265.13C190.817 265.34 193.578 266.285 195.969 267.875C196.847 268.425 197.624 269.124 198.264 269.939Z" fill="white"/>
<path d="M144.098 253.781C144.098 253.781 143.829 254.051 143.278 254.448C142.944 254.696 142.592 254.919 142.226 255.115C141.759 255.401 141.275 255.658 140.777 255.884C139.482 256.493 138.128 256.97 136.738 257.308C135.03 257.713 133.285 257.937 131.531 257.975C129.773 257.971 128.02 257.787 126.299 257.423C124.9 257.134 123.534 256.705 122.221 256.141C121.717 255.93 121.224 255.69 120.747 255.423C120.375 255.239 120.019 255.025 119.682 254.782C119.118 254.41 118.823 254.179 118.849 254.14C118.874 254.102 120.131 254.846 122.401 255.705C123.705 256.196 125.047 256.578 126.415 256.846C128.107 257.155 129.824 257.306 131.544 257.295C133.248 257.256 134.944 257.054 136.609 256.692C137.974 256.383 139.308 255.954 140.597 255.41C142.79 254.525 144.021 253.679 144.098 253.781Z" fill="white"/>
<path d="M204.381 250.563C204.234 250.729 204.066 250.876 203.881 250.999C203.372 251.382 202.832 251.721 202.265 252.012C200.176 253.098 197.892 253.756 195.546 253.948C192.076 254.222 188.585 253.901 185.223 252.999C181.376 252.076 177.387 250.576 173.092 249.357C165.725 247.31 158.014 246.812 150.445 247.896C148.149 248.222 145.875 248.689 143.636 249.293C142.059 249.717 141.187 249.986 141.174 249.935C141.161 249.883 141.366 249.819 141.777 249.665C142.187 249.511 142.777 249.281 143.572 249.05C145.795 248.345 148.066 247.805 150.368 247.434C158.005 246.196 165.82 246.633 173.271 248.716C177.606 249.999 181.606 251.461 185.364 252.397C188.662 253.315 192.09 253.679 195.507 253.474C197.807 253.325 200.059 252.751 202.15 251.781C203.624 251.076 204.343 250.499 204.381 250.563Z" fill="white"/>
<path d="M203.317 231.315C203.049 231.387 202.774 231.43 202.496 231.443C201.958 231.443 201.214 231.597 200.124 231.674C197.208 231.745 194.292 231.535 191.417 231.046C187.775 230.456 183.517 229.379 178.824 228.109C173.792 226.617 168.645 225.545 163.436 224.903C162.067 224.791 160.693 224.748 159.319 224.775C158.64 224.775 157.973 224.775 157.306 224.839L155.344 225.07C152.846 225.424 150.392 226.039 148.022 226.904C143.457 228.519 139.469 230.379 135.968 231.559C133.227 232.564 130.363 233.194 127.453 233.431C126.664 233.502 125.87 233.502 125.081 233.431C124.801 233.438 124.521 233.413 124.247 233.354C124.524 233.332 124.803 233.332 125.081 233.354C125.865 233.358 126.649 233.311 127.427 233.213C130.299 232.88 133.116 232.186 135.814 231.148C139.263 229.93 143.213 228.032 147.817 226.365C150.218 225.471 152.707 224.831 155.242 224.454L157.255 224.211C157.934 224.211 158.614 224.211 159.307 224.211C160.701 224.183 162.097 224.226 163.487 224.339C168.743 224.985 173.934 226.079 179.003 227.609C183.684 228.891 187.903 230.045 191.519 230.686C194.362 231.215 197.245 231.49 200.137 231.507L202.496 231.417C202.765 231.351 203.04 231.317 203.317 231.315Z" fill="white"/>
<path d="M216.063 196.909C216.179 196.973 214.871 198.846 213.64 202.244C212.028 206.677 211.586 211.452 212.357 216.106C213.194 220.745 215.188 225.098 218.153 228.763C220.436 231.571 222.27 232.93 222.18 233.033C221.718 232.776 221.288 232.466 220.898 232.11C219.78 231.185 218.746 230.164 217.807 229.058C214.669 225.402 212.562 220.975 211.703 216.234C210.909 211.486 211.414 206.612 213.165 202.128C213.696 200.791 214.344 199.504 215.101 198.281C215.367 197.788 215.69 197.327 216.063 196.909Z" fill="white"/>
<path d="M148.419 201C148.061 201.15 147.679 201.236 147.291 201.256C146.242 201.431 145.185 201.546 144.123 201.603C142.537 201.705 140.943 201.58 139.392 201.231C137.438 200.786 135.656 199.784 134.262 198.345C132.775 196.884 131.698 195.293 130.505 193.973C129.518 192.794 128.349 191.781 127.043 190.972C125.816 190.268 124.441 189.864 123.029 189.792C123.403 189.66 123.802 189.616 124.196 189.664C125.277 189.725 126.329 190.032 127.273 190.562C128.673 191.339 129.924 192.36 130.967 193.575C132.159 194.857 133.3 196.473 134.724 197.871C136.025 199.214 137.671 200.173 139.481 200.641C140.976 201.001 142.51 201.164 144.047 201.128C146.816 201 148.419 200.833 148.419 201Z" fill="white"/>
<path d="M380.07 269.222C383.915 253.426 374.227 237.504 358.431 233.659C342.635 229.815 326.714 239.503 322.869 255.299C319.024 271.094 328.712 287.016 344.508 290.861C360.304 294.706 376.226 285.017 380.07 269.222Z" fill="#EAF7FC"/>
<path opacity="0.5" d="M343.991 290.718C339.524 289.545 335.395 287.337 331.939 284.273C328.483 281.21 325.797 277.375 324.097 273.081C322.397 268.787 321.731 264.153 322.154 259.553C322.576 254.954 324.075 250.519 326.529 246.606C328.983 242.694 332.324 239.413 336.28 237.031C340.237 234.648 344.698 233.23 349.304 232.891C353.911 232.551 358.532 233.301 362.795 235.078C367.058 236.856 370.842 239.611 373.843 243.122C369.674 238.614 364.019 235.759 357.916 235.08C351.813 234.402 345.669 235.946 340.612 239.429C335.554 242.912 331.921 248.101 330.378 254.045C328.836 259.989 329.486 266.289 332.212 271.792C334.937 277.295 339.554 281.632 345.217 284.008C350.88 286.383 357.209 286.638 363.045 284.727C368.88 282.815 373.832 278.864 376.991 273.599C380.151 268.333 381.307 262.105 380.248 256.056C381.304 260.972 381.084 266.076 379.609 270.883C378.134 275.689 375.453 280.039 371.822 283.516C368.19 286.993 363.729 289.482 358.862 290.747C353.996 292.012 348.887 292.01 344.022 290.741L343.991 290.718Z" fill="#32959D" fill-opacity="0.5"/>
<path d="M370.544 261.228C370.336 262.02 369.898 262.732 369.286 263.275C368.674 263.817 367.914 264.166 367.103 264.278C366.293 264.389 365.467 264.258 364.731 263.9C363.995 263.542 363.382 262.974 362.968 262.268C362.555 261.562 362.36 260.749 362.409 259.932C362.457 259.115 362.747 258.331 363.241 257.679C363.734 257.026 364.411 256.535 365.184 256.267C365.957 255.999 366.792 255.965 367.584 256.172C368.111 256.309 368.605 256.549 369.039 256.877C369.473 257.206 369.838 257.617 370.113 258.086C370.387 258.556 370.567 259.075 370.641 259.614C370.715 260.153 370.682 260.702 370.544 261.228Z" fill="#32959D" fill-opacity="0.5"/>
<path d="M343.351 254.098C343.144 254.893 342.705 255.607 342.092 256.152C341.478 256.697 340.716 257.047 339.903 257.159C339.09 257.271 338.262 257.139 337.524 256.78C336.786 256.421 336.171 255.851 335.758 255.142C335.344 254.433 335.15 253.617 335.2 252.798C335.25 251.979 335.542 251.193 336.039 250.54C336.536 249.887 337.215 249.396 337.991 249.129C338.768 248.863 339.605 248.832 340.399 249.042C340.925 249.18 341.418 249.42 341.851 249.749C342.284 250.078 342.648 250.489 342.923 250.959C343.197 251.428 343.376 251.947 343.449 252.486C343.523 253.025 343.489 253.573 343.351 254.098Z" fill="#32959D" fill-opacity="0.5"/>
<path d="M346.149 252.973C346.14 254.76 346.648 256.51 347.613 258.014C348.62 259.383 350.082 260.348 351.737 260.735C353.356 261.251 355.109 261.155 356.662 260.465C358.259 259.657 359.617 258.446 360.601 256.95C360.04 258.808 358.82 260.398 357.171 261.421C356.305 261.937 355.337 262.257 354.334 262.361C353.336 262.44 352.331 262.34 351.367 262.068C350.41 261.799 349.504 261.375 348.685 260.812C347.865 260.223 347.185 259.46 346.696 258.577C345.79 256.851 345.594 254.841 346.149 252.973Z" fill="#32959D" fill-opacity="0.5"/>
<path d="M-17.592 200.715C-22.646 179.951 -9.91071 159.022 10.8531 153.968C31.6169 148.914 52.5464 161.649 57.6004 182.413C62.6544 203.177 49.9191 224.106 29.1552 229.16C8.39142 234.214 -12.5381 221.479 -17.592 200.715Z" fill="#EAF7FC"/>
<path opacity="0.5" d="M29.8349 228.972C35.7071 227.431 41.1341 224.529 45.6771 220.501C50.2201 216.474 53.7517 211.434 55.9863 205.789C58.2209 200.144 59.0958 194.052 58.5403 188.006C57.9848 181.961 56.0144 176.13 52.7886 170.987C49.5627 165.844 45.1717 161.532 39.9708 158.4C34.7699 155.268 28.905 153.403 22.8502 152.958C16.7954 152.512 10.7206 153.497 5.11705 155.833C-0.48653 158.17 -5.46165 161.792 -9.40611 166.408C-3.92544 160.481 3.50739 156.728 11.5303 155.836C19.5532 154.945 27.6287 156.974 34.277 161.552C40.9253 166.131 45.7011 172.952 47.729 180.765C49.757 188.578 48.9014 196.861 45.3189 204.095C41.7365 211.329 35.6673 217.029 28.2234 220.152C20.7795 223.274 12.4597 223.61 4.78852 221.097C-2.88264 218.584 -9.3913 213.391 -13.5447 206.469C-17.698 199.547 -19.2179 191.36 -17.8258 183.409C-19.2142 189.871 -18.9251 196.581 -16.9862 202.899C-15.0473 209.217 -11.523 214.934 -6.74907 219.505C-1.97512 224.076 3.88954 227.348 10.2863 229.011C16.6831 230.674 23.399 230.671 29.7944 229.003L29.8349 228.972Z" fill="#32959D" fill-opacity="0.5"/>
<path d="M-5.06962 190.208C-4.79649 191.248 -4.22112 192.184 -3.41615 192.898C-2.61119 193.611 -1.61278 194.07 -0.547095 194.216C0.518585 194.363 1.60371 194.19 2.57118 193.72C3.53865 193.249 4.34506 192.503 4.88847 191.575C5.43188 190.646 5.68792 189.578 5.62425 188.504C5.56057 187.43 5.18 186.399 4.53069 185.542C3.88138 184.684 2.99244 184.038 1.97618 183.686C0.959923 183.333 -0.13803 183.29 -1.17895 183.561C-1.87118 183.741 -2.52106 184.057 -3.09137 184.488C-3.66168 184.92 -4.14126 185.46 -4.50263 186.078C-4.86401 186.695 -5.10008 187.377 -5.19738 188.086C-5.29467 188.795 -5.25125 189.516 -5.06962 190.208Z" fill="#32959D" fill-opacity="0.5"/>
<path d="M30.6761 180.836C30.9486 181.879 31.5247 182.819 32.3315 183.535C33.1383 184.251 34.1395 184.712 35.2083 184.859C36.2771 185.006 37.3654 184.832 38.3355 184.36C39.3056 183.888 40.1138 183.139 40.6578 182.207C41.2017 181.275 41.457 180.203 41.3912 179.127C41.3255 178.05 40.9416 177.017 40.2883 176.158C39.635 175.299 38.7417 174.654 37.7214 174.304C36.701 173.953 35.5996 173.913 34.5566 174.189C33.8653 174.37 33.2165 174.686 32.6474 175.119C32.0782 175.551 31.5997 176.091 31.2393 176.708C30.879 177.326 30.6438 178.008 30.5471 178.716C30.4505 179.424 30.4943 180.144 30.6761 180.836Z" fill="#32959D" fill-opacity="0.5"/>
<path d="M26.9981 179.356C27.0098 181.705 26.3412 184.006 25.073 185.983C23.7495 187.782 21.8274 189.05 19.6524 189.559C17.5237 190.238 15.2199 190.112 13.1781 189.205C11.0785 188.143 9.29356 186.55 8.00067 184.585C8.73788 187.027 10.341 189.117 12.5094 190.461C13.6477 191.139 14.92 191.561 16.2379 191.697C17.5507 191.8 18.8714 191.67 20.1387 191.312C21.3966 190.959 22.5878 190.401 23.6646 189.661C24.7427 188.887 25.6355 187.883 26.2787 186.722C27.4691 184.455 27.7272 181.812 26.9981 179.356Z" fill="#32959D" fill-opacity="0.5"/>
<path d="M312.599 128.161C331.213 109.547 331.213 79.3674 312.599 60.7533C293.985 42.1393 263.806 42.1393 245.192 60.7533C226.578 79.3674 226.578 109.547 245.192 128.161C263.806 146.775 293.985 146.775 312.599 128.161Z" fill="#EAF7FC"/>
<path opacity="0.5" d="M293.413 139.862C286.295 142.131 278.742 142.695 271.366 141.508C263.989 140.32 256.995 137.414 250.949 133.025C244.903 128.636 239.973 122.887 236.559 116.241C233.144 109.595 231.341 102.24 231.293 94.7684C231.246 87.2971 232.957 79.9193 236.287 73.231C239.617 66.5426 244.473 60.7312 250.464 56.2659C256.454 51.8007 263.41 48.8068 270.771 47.526C278.132 46.2453 285.691 46.7136 292.838 48.8931C283.223 46.3524 273.014 47.3617 264.083 51.7361C255.152 56.1106 248.096 63.5571 244.209 72.711C240.322 81.8649 239.864 92.113 242.919 101.577C245.974 111.041 252.337 119.088 260.842 124.241C269.348 129.395 279.426 131.311 289.229 129.638C299.032 127.965 307.904 122.816 314.219 115.133C320.534 107.45 323.869 97.7489 323.612 87.8072C323.356 77.8655 319.525 68.3493 312.822 61.0025C318.545 66.8023 322.684 73.9725 324.845 81.8282C327.006 89.6839 327.117 97.9626 325.166 105.873C323.216 113.784 319.269 121.062 313.704 127.012C308.138 132.963 301.14 137.387 293.377 139.862H293.413Z" fill="#32959D" fill-opacity="0.5"/>
<path d="M260.735 90.3634C261.142 91.6285 261.165 92.9859 260.8 94.2637C260.435 95.5416 259.699 96.6824 258.685 97.5418C257.671 98.4012 256.426 98.9405 255.105 99.0915C253.785 99.2425 252.45 98.9983 251.268 98.3899C250.087 97.7815 249.112 96.8363 248.468 95.6738C247.824 94.5114 247.54 93.184 247.65 91.8597C247.761 90.5354 248.262 89.2737 249.091 88.2344C249.919 87.1951 251.037 86.4249 252.303 86.0213C253.997 85.4813 255.836 85.6352 257.417 86.4491C258.997 87.2631 260.191 88.6708 260.735 90.3634Z" fill="#32959D" fill-opacity="0.5"/>
<path d="M304.093 76.5008C304.499 77.7662 304.519 79.1234 304.153 80.4005C303.787 81.6777 303.05 82.8175 302.035 83.6756C301.021 84.5338 299.775 85.0718 298.454 85.2215C297.134 85.3712 295.799 85.1258 294.619 84.5166C293.438 83.9073 292.464 82.9615 291.821 81.7988C291.178 80.6361 290.895 79.3087 291.006 77.9848C291.118 76.6608 291.62 75.3997 292.448 74.361C293.277 73.3223 294.395 72.5528 295.661 72.1497C296.5 71.8813 297.384 71.7809 298.262 71.8544C299.141 71.9278 299.996 72.1736 300.779 72.5777C301.562 72.9818 302.258 73.5362 302.827 74.2094C303.395 74.8826 303.826 75.6612 304.093 76.5008Z" fill="#32959D" fill-opacity="0.5"/>
<path d="M285.035 80.4565C285.459 81.7267 285.626 83.0683 285.528 84.4037C285.429 85.7391 285.066 87.0416 284.46 88.2356C283.854 89.4296 283.017 90.4915 281.998 91.3595C280.978 92.2275 279.796 92.8844 278.521 93.292C277.245 93.6997 275.902 93.8501 274.568 93.7344C273.234 93.6187 271.936 93.2393 270.75 92.6181C269.563 91.9969 268.512 91.1463 267.658 90.1158C266.803 89.0852 266.161 87.8951 265.77 86.6146L285.035 80.4565Z" fill="#32959D" fill-opacity="0.5"/>
<path d="M284.837 87.1717C284.293 88.5829 283.44 89.8541 282.339 90.8918C281.239 91.9295 279.921 92.7073 278.48 93.1679C277.04 93.6285 275.514 93.7602 274.016 93.5533C272.518 93.3463 271.085 92.8061 269.824 91.9723C271.341 89.5119 273.689 87.6755 276.442 86.795C279.196 85.9146 282.173 86.0482 284.837 87.1717Z" fill="#32959D" fill-opacity="0.5"/>
</g>
<defs>
<clipPath id="clip0_560_1396">
<rect width="376" height="306" fill="white" transform="translate(0 0.0498047)"/>
</clipPath>
</defs>
</svg>
