<svg width="25" height="24" viewBox="0 0 25 24" fill="none" xmlns="http://www.w3.org/2000/svg">
<path d="M24.8448 11.3791C24.8448 11.2801 24.8118 11.1807 24.7787 11.0817C24.7457 11.0483 24.7127 10.9823 24.6794 10.9493C24.6464 10.9163 24.6464 10.883 24.6134 10.8499L20.415 6.6159C20.1176 6.31814 19.6547 6.31814 19.3573 6.6159C19.0598 6.91335 19.0598 7.47585 19.3573 7.77361L22.2994 10.8169H7.65496C7.25845 10.8169 6.89465 11.1477 6.89465 11.5778C6.89465 11.9746 7.22513 12.3384 7.65496 12.3384H22.2994L19.3573 15.2164C19.0598 15.5141 19.0598 15.9442 19.3573 16.242C19.6547 16.5398 20.1176 16.5067 20.415 16.209L24.6464 11.9746C24.6794 11.9416 24.7127 11.9086 24.7127 11.8423C24.7457 11.8093 24.7787 11.7762 24.7787 11.7099C24.8448 11.5778 24.8448 11.4785 24.8448 11.3791Z" fill="white"/>
<mask id="mask0_2206_1297" style="mask-type:luminance" maskUnits="userSpaceOnUse" x="0" y="0" width="17" height="24">
<path d="M0 0H16.5049V23.9167H0V0Z" fill="white"/>
</mask>
<g mask="url(#mask0_2206_1297)">
<path d="M14.9939 16.606V22.4282H1.53959V1.48849H14.9939V6.94689H16.4815V1.48849C16.4815 0.661551 15.8533 0 15.093 0H1.44024C0.679935 0 0.052002 0.661551 0.052002 1.48849V22.4282C0.052002 23.2551 0.679935 23.9167 1.44024 23.9167H15.093C15.8533 23.9167 16.4815 23.2551 16.4815 22.4282V16.606H14.9939Z" fill="white"/>
</g>
</svg>
