<svg width="78" height="78" viewBox="0 0 78 78" fill="none" xmlns="http://www.w3.org/2000/svg">
<g filter="url(#filter0_d_0_3666)">
<circle cx="39" cy="37" r="24" fill="white"/>
</g>
<path d="M22.0083 28.9249L39.0019 37.254L55.9955 28.9249C55.9326 27.8634 55.4581 26.8656 54.6692 26.1359C53.8802 25.4062 52.8366 24.9998 51.7519 25H26.2519C25.1673 24.9998 24.1236 25.4062 23.3347 26.1359C22.5457 26.8656 22.0712 27.8634 22.0083 28.9249Z" fill="#01818C"/>
<path d="M56 33.5791L39 41.9123L22 33.5791V45.8331C22 46.9382 22.4478 47.9979 23.2448 48.7793C24.0418 49.5607 25.1228 49.9997 26.25 49.9997H51.75C52.8772 49.9997 53.9582 49.5607 54.7552 48.7793C55.5522 47.9979 56 46.9382 56 45.8331V33.5791Z" fill="#01818C"/>
<defs>
<filter id="filter0_d_0_3666" x="0.101266" y="0.132911" width="77.7975" height="77.7975" filterUnits="userSpaceOnUse" color-interpolation-filters="sRGB">
<feFlood flood-opacity="0" result="BackgroundImageFix"/>
<feColorMatrix in="SourceAlpha" type="matrix" values="0 0 0 0 0 0 0 0 0 0 0 0 0 0 0 0 0 0 127 0" result="hardAlpha"/>
<feMorphology radius="1.35443" operator="dilate" in="SourceAlpha" result="effect1_dropShadow_0_3666"/>
<feOffset dy="2.03165"/>
<feGaussianBlur stdDeviation="6.77215"/>
<feComposite in2="hardAlpha" operator="out"/>
<feColorMatrix type="matrix" values="0 0 0 0 0.00392157 0 0 0 0 0.505882 0 0 0 0 0.54902 0 0 0 0.25 0"/>
<feBlend mode="normal" in2="BackgroundImageFix" result="effect1_dropShadow_0_3666"/>
<feBlend mode="normal" in="SourceGraphic" in2="effect1_dropShadow_0_3666" result="shape"/>
</filter>
</defs>
</svg>
