<svg width="375" height="315" viewBox="0 0 375 315" fill="none" xmlns="http://www.w3.org/2000/svg">
<mask id="mask0_233_1229" style="mask-type:luminance" maskUnits="userSpaceOnUse" x="-87" y="-5" width="549" height="275">
<path d="M461.466 269.47V-5H-86.9996V269.47H461.466Z" fill="white"/>
</mask>
<g mask="url(#mask0_233_1229)">
<path d="M187.473 269.47C35.9133 269.47 -86.9992 146.638 -86.9992 -5H461.942C461.942 146.638 339.108 269.47 187.473 269.47Z" fill="#EAF7FC"/>
</g>
<path d="M258.776 175.573C258.126 174.492 257.45 173.432 256.747 172.392C247.346 158.581 231.678 149.125 216.488 144.844C209.86 142.994 203.035 141.942 196.158 141.71C151.367 140.104 134.915 177.034 120.485 186.552C106.054 196.071 83.9071 212.338 86.7078 246.503C88.8151 272.481 103.594 297.319 130.579 308.62C133.627 309.899 136.756 310.979 139.944 311.851C146.403 313.604 153.039 314.625 159.726 314.895C180.13 315.804 196.699 310.884 212.904 298.498C216.672 295.619 220.42 292.372 225.309 292.015C228.862 291.757 232.23 293.034 228.517 296.469C224.149 300.504 229.187 308.443 240.268 302.928C258.776 293.715 266.391 273.84 269.979 253.632C274.366 228.825 272.231 197.994 258.776 175.573Z" fill="#A4DEDF"/>
<path d="M266.268 222.354L259.063 219.38L258.796 216.673C258.123 216.102 257.497 215.479 256.922 214.81L254.226 214.542L251.251 207.337L252.98 205.279C252.908 204.395 252.908 203.507 252.98 202.623L251.251 200.564L254.226 193.36L256.922 193.102C257.5 192.432 258.126 191.806 258.796 191.229L259.063 188.532L266.268 185.558L268.327 187.287C269.21 187.215 270.098 187.215 270.982 187.287L273.041 185.558L280.246 188.532L280.503 191.229C281.173 191.806 281.799 192.432 282.376 193.102L285.073 193.36L288.048 200.564L286.318 202.623C286.39 203.507 286.39 204.395 286.318 205.279L288.048 207.337L285.073 214.542L282.376 214.81C281.804 215.485 281.178 216.111 280.503 216.683L280.246 219.38L273.041 222.354L270.982 220.625C270.102 220.697 269.217 220.697 268.337 220.625L266.268 222.354ZM271.497 219.03L273.37 220.574L278.836 218.309L279.062 215.901L279.319 215.695C280.086 215.076 280.792 214.387 281.429 213.636L281.625 213.379L284.044 213.153L286.308 207.687L284.764 205.814V205.495C284.867 204.502 284.867 203.502 284.764 202.51V202.191L286.308 200.317L284.044 194.852L281.635 194.626L281.429 194.368C280.792 193.617 280.086 192.928 279.319 192.31L279.062 192.104L278.836 189.695L273.37 187.431L271.497 188.975H271.178C270.185 188.872 269.185 188.872 268.193 188.975H267.874L266.001 187.431L260.535 189.695L260.309 192.104L260.062 192.31C259.29 192.925 258.58 193.615 257.941 194.368L257.735 194.626L255.327 194.852L253.042 200.276L254.586 202.15V202.469C254.483 203.461 254.483 204.461 254.586 205.454V205.773L253.042 207.646L255.306 213.111L257.715 213.338L257.921 213.585C258.55 214.358 259.257 215.065 260.031 215.695L260.288 215.901L260.514 218.32L265.98 220.584L267.853 219.04H268.172C269.165 219.143 270.165 219.143 271.157 219.04L271.497 219.03Z" fill="#01818C"/>
<path d="M272.886 211.681C271.356 212.314 269.674 212.48 268.05 212.157C266.427 211.835 264.936 211.038 263.765 209.867C262.595 208.697 261.798 207.206 261.475 205.582C261.152 203.959 261.318 202.276 261.952 200.747C262.585 199.218 263.658 197.911 265.034 196.992C266.411 196.072 268.029 195.582 269.684 195.582C271.339 195.582 272.957 196.073 274.333 196.993C275.709 197.913 276.781 199.22 277.414 200.75C277.836 201.765 278.053 202.853 278.054 203.952C278.054 205.051 277.838 206.139 277.417 207.155C276.997 208.17 276.38 209.092 275.602 209.869C274.825 210.646 273.901 211.261 272.886 211.681Z" fill="#01818C"/>
<path d="M184.737 132.128C184.532 132.128 184.336 132.046 184.191 131.902C184.046 131.757 183.965 131.56 183.965 131.356C183.973 126.543 185.889 121.929 189.292 118.526C192.695 115.123 197.308 113.207 202.121 113.199C202.326 113.199 202.522 113.281 202.667 113.425C202.812 113.57 202.893 113.766 202.893 113.971C202.888 118.785 200.973 123.4 197.569 126.804C194.166 130.208 189.551 132.122 184.737 132.128ZM201.329 114.764C197.204 114.966 193.301 116.695 190.381 119.616C187.461 122.536 185.731 126.438 185.529 130.563C189.655 130.363 193.559 128.635 196.479 125.714C199.4 122.793 201.129 118.889 201.329 114.764Z" fill="#01818C"/>
<path d="M189.836 119.848C189.736 119.85 189.635 119.831 189.542 119.793C189.448 119.756 189.363 119.7 189.291 119.629C189.219 119.558 189.162 119.474 189.123 119.38C189.084 119.287 189.064 119.188 189.064 119.087C189.079 114.944 187.536 110.947 184.741 107.888C181.953 110.946 180.414 114.938 180.429 119.076C180.429 119.281 180.347 119.477 180.203 119.622C180.058 119.767 179.862 119.848 179.657 119.848C179.452 119.848 179.256 119.767 179.111 119.622C178.966 119.477 178.885 119.281 178.885 119.076C178.876 116.69 179.341 114.326 180.253 112.121C181.165 109.916 182.505 107.914 184.196 106.231C184.268 106.158 184.353 106.1 184.448 106.06C184.543 106.02 184.644 106 184.747 106C184.849 106 184.951 106.02 185.045 106.06C185.14 106.1 185.225 106.158 185.297 106.231C186.987 107.915 188.326 109.918 189.238 112.122C190.149 114.327 190.615 116.691 190.608 119.076C190.606 119.28 190.523 119.475 190.379 119.619C190.235 119.763 190.04 119.846 189.836 119.848Z" fill="#01818C"/>
<path d="M184.738 132.128C179.924 132.125 175.307 130.211 171.903 126.807C168.499 123.402 166.585 118.786 166.582 113.971C166.582 113.766 166.663 113.57 166.808 113.425C166.953 113.281 167.149 113.199 167.354 113.199C172.161 113.205 176.769 115.114 180.172 118.509C183.575 121.903 185.494 126.508 185.51 131.314C185.518 131.42 185.503 131.525 185.467 131.624C185.431 131.723 185.375 131.814 185.303 131.89C185.23 131.967 185.143 132.027 185.046 132.068C184.948 132.109 184.844 132.129 184.738 132.128ZM168.147 114.764C168.349 118.89 170.08 122.794 173.002 125.715C175.925 128.635 179.829 130.364 183.956 130.563C183.759 126.435 182.029 122.529 179.106 119.607C176.182 116.686 172.275 114.959 168.147 114.764Z" fill="#01818C"/>
<path d="M103.57 217.064H96.19C95.3149 217.066 94.4678 216.756 93.8002 216.19C93.1326 215.624 92.6881 214.839 92.5464 213.976L92.392 213.111C91.9074 210.329 90.7639 207.703 89.0571 205.454C87.2818 203.056 86.3712 200.128 86.4736 197.147C86.6131 193.74 88.0299 190.509 90.4424 188.099C92.8549 185.688 96.0863 184.274 99.494 184.137C101.997 184.049 104.474 184.665 106.644 185.914C108.814 187.164 110.59 188.998 111.769 191.207C112.949 193.416 113.485 195.912 113.316 198.41C113.148 200.909 112.282 203.31 110.816 205.34C109.091 207.635 107.921 210.299 107.399 213.122L107.255 213.976C107.112 214.847 106.661 215.637 105.985 216.204C105.309 216.77 104.452 217.075 103.57 217.064ZM99.8748 185.681H99.5351C96.5211 185.803 93.6632 187.054 91.5293 189.186C89.3954 191.318 88.1417 194.175 88.0175 197.188C87.9273 199.826 88.7327 202.416 90.3025 204.538C92.1519 206.982 93.3905 209.834 93.9153 212.854L94.0697 213.719C94.1506 214.222 94.4086 214.68 94.7974 215.011C95.1861 215.341 95.6799 215.521 96.19 215.52H103.57C104.079 215.519 104.572 215.338 104.96 215.008C105.349 214.678 105.607 214.221 105.69 213.719L105.834 212.864C106.4 209.809 107.661 206.925 109.519 204.435C110.79 202.663 111.548 200.575 111.708 198.4C111.869 196.226 111.426 194.049 110.429 192.11C109.432 190.171 107.919 188.545 106.057 187.41C104.194 186.276 102.055 185.678 99.8748 185.681Z" fill="#01818C"/>
<path d="M105.412 220.326C105.412 220.03 105.295 219.747 105.087 219.537C104.879 219.326 104.596 219.207 104.3 219.204H95.4587C95.3031 219.189 95.146 219.207 94.9976 219.256C94.8492 219.306 94.7127 219.386 94.597 219.491C94.4812 219.596 94.3888 219.724 94.3255 219.867C94.2622 220.01 94.2295 220.165 94.2295 220.321C94.2295 220.478 94.2622 220.632 94.3255 220.775C94.3888 220.918 94.4812 221.046 94.597 221.152C94.7127 221.257 94.8492 221.336 94.9976 221.386C95.146 221.435 95.3031 221.453 95.4587 221.438H95.6852C95.5145 221.62 95.4158 221.858 95.4073 222.107V222.333C95.4073 222.606 95.5157 222.868 95.7087 223.061C95.9018 223.254 96.1636 223.363 96.4366 223.363H103.364C103.637 223.363 103.898 223.254 104.091 223.061C104.284 222.868 104.393 222.606 104.393 222.333V222.107C104.387 221.859 104.292 221.621 104.125 221.438H104.352C104.637 221.422 104.905 221.298 105.102 221.092C105.299 220.885 105.41 220.612 105.412 220.326Z" fill="#01818C"/>
<path d="M101.875 216.672C101.773 216.667 101.677 216.622 101.608 216.547C101.538 216.472 101.501 216.373 101.504 216.271C101.686 212.045 102.216 207.842 103.089 203.703H102.894C102.374 203.862 101.821 203.877 101.294 203.746C100.766 203.616 100.284 203.345 99.8985 202.962C99.5352 203.336 99.0767 203.604 98.5724 203.736C98.0681 203.869 97.5372 203.861 97.0371 203.714C97.9069 207.835 98.4302 212.021 98.6016 216.23C98.6043 216.28 98.5969 216.331 98.5796 216.379C98.5624 216.427 98.5357 216.471 98.5011 216.509C98.4666 216.546 98.4249 216.576 98.3785 216.597C98.3321 216.618 98.2819 216.63 98.231 216.631C98.1795 216.637 98.1273 216.632 98.078 216.616C98.0286 216.6 97.9834 216.573 97.9453 216.538C97.9072 216.503 97.8771 216.46 97.8571 216.412C97.8372 216.364 97.8278 216.312 97.8296 216.26C97.6452 211.975 97.1012 207.712 96.2033 203.518C93.8051 202.787 91.057 200.718 90.9746 199.102C90.9746 198.66 91.1496 197.867 92.5288 197.538C92.8419 197.46 93.169 197.456 93.4837 197.528C93.7984 197.599 94.0918 197.744 94.3403 197.95C95.3696 198.752 96.2136 200.626 96.8209 202.89L97.1194 202.952C98.0046 203.106 99.1265 203.075 99.5382 202.056C99.5738 201.992 99.626 201.938 99.6894 201.901C99.7527 201.864 99.8249 201.844 99.8985 201.844C99.972 201.844 100.044 201.864 100.108 201.901C100.171 201.938 100.223 201.992 100.259 202.056C100.67 203.086 101.844 203.086 102.76 202.942C102.944 202.91 103.126 202.869 103.305 202.818C103.913 200.595 104.715 198.701 105.776 197.95C106.023 197.745 106.315 197.602 106.627 197.53C106.94 197.459 107.265 197.461 107.577 197.538C108.935 197.867 109.121 198.629 109.11 199.061C109.11 200.626 106.352 202.643 103.964 203.436C103.063 207.658 102.512 211.947 102.317 216.26C102.323 216.319 102.315 216.377 102.294 216.432C102.273 216.487 102.24 216.536 102.198 216.575C102.155 216.615 102.103 216.645 102.047 216.661C101.991 216.678 101.932 216.682 101.875 216.672ZM93.0126 198.289C92.9065 198.279 92.7996 198.279 92.6935 198.289C91.6642 198.526 91.726 198.938 91.726 199.082C91.726 200.111 93.7845 201.84 95.946 202.633C95.673 201.09 94.9578 199.66 93.8875 198.516C93.6306 198.342 93.3216 198.262 93.0126 198.289ZM107.062 198.289C106.753 198.296 106.455 198.408 106.218 198.608C105.166 199.708 104.451 201.087 104.16 202.581C106.311 201.748 108.277 200.049 108.277 199.082C108.277 198.732 107.968 198.485 107.34 198.33C107.249 198.31 107.156 198.296 107.062 198.289Z" fill="#01818C"/>
<path d="M264.777 176.459C264.586 176.458 264.401 176.399 264.246 176.288C264.091 176.177 263.974 176.021 263.912 175.841C259.753 164.068 253.014 153.374 244.188 144.543C235.361 135.711 224.672 128.965 212.901 124.799C212.672 124.717 212.485 124.548 212.38 124.328C212.276 124.108 212.264 123.855 212.345 123.626C212.427 123.397 212.597 123.209 212.817 123.105C213.037 123.001 213.29 122.988 213.519 123.07C225.555 127.319 236.487 134.208 245.513 143.233C254.54 152.258 261.431 163.188 265.683 175.224C265.725 175.337 265.744 175.458 265.739 175.579C265.734 175.7 265.704 175.818 265.652 175.928C265.601 176.037 265.527 176.135 265.437 176.215C265.347 176.296 265.241 176.358 265.127 176.397C265.016 176.443 264.897 176.464 264.777 176.459Z" fill="#01818C"/>
<path d="M104.714 176.479C104.608 176.478 104.503 176.457 104.405 176.417C104.291 176.378 104.185 176.316 104.094 176.236C104.004 176.155 103.93 176.058 103.877 175.948C103.824 175.839 103.794 175.721 103.787 175.6C103.781 175.479 103.798 175.358 103.839 175.244C108.089 163.205 114.981 152.271 124.009 143.244C133.038 134.217 143.973 127.327 156.013 123.08C156.242 122.998 156.495 123.011 156.715 123.115C156.935 123.219 157.105 123.406 157.186 123.636C157.268 123.865 157.256 124.117 157.152 124.337C157.047 124.558 156.86 124.727 156.631 124.809C144.849 128.967 134.149 135.711 125.315 144.545C116.48 153.379 109.737 164.08 105.579 175.861C105.516 176.041 105.4 176.197 105.245 176.308C105.09 176.419 104.904 176.478 104.714 176.479Z" fill="#01818C"/>
<g clip-path="url(#clip0_233_1229)">
<path d="M159.945 262.489C155.815 266.94 153.045 272.48 151.962 278.455C151.358 281.649 149.136 288.388 149.293 300.611C149.547 320.46 150.392 349.01 150.392 349.01C177.343 350.531 204.359 350.531 231.31 349.01C231.31 349.01 216.533 276.915 210.507 267.767L207.922 261.45L159.945 262.489Z" fill="#263238"/>
<path d="M159.943 262.489L160.776 262.459L163.246 262.387L172.763 262.151L207.944 261.336H208.022L208.052 261.408L210.637 267.719C211.369 268.984 211.987 270.312 212.485 271.686L213.251 273.788C213.487 274.5 213.729 275.219 213.97 275.937C214.906 278.842 215.782 281.861 216.639 284.965C218.354 291.179 219.997 297.761 221.651 304.633C224.936 318.389 228.233 333.316 231.494 348.992L231.53 349.174H231.349C226.41 349.451 221.162 349.699 215.854 349.886C192.352 350.707 170.051 350.285 150.383 349.162H150.257V349.029C149.967 335.877 149.701 323.745 149.466 312.948C149.405 310.251 149.347 307.634 149.29 305.098C149.242 302.574 149.158 300.134 149.212 297.779C149.273 293.463 149.7 289.161 150.486 284.917C150.848 282.996 151.283 281.191 151.694 279.482L152.237 277.006C152.412 276.203 152.654 275.448 152.841 274.711C153.631 272.253 154.695 269.891 156.011 267.67C156.842 266.291 157.777 264.977 158.807 263.739C159.161 263.315 159.54 262.911 159.943 262.532L159.653 262.846C159.472 263.051 159.194 263.359 158.844 263.782C157.83 265.029 156.91 266.349 156.09 267.731C154.783 269.961 153.732 272.331 152.956 274.796C152.751 275.527 152.515 276.281 152.352 277.079C152.189 277.876 152.002 278.703 151.821 279.554C151.434 281.257 150.999 283.057 150.649 284.989C149.886 289.225 149.482 293.518 149.441 297.821C149.393 300.164 149.484 302.604 149.538 305.134C149.592 307.664 149.659 310.273 149.725 312.984C149.979 323.781 150.257 335.931 150.565 349.065L150.432 348.926C170.093 350.025 192.382 350.442 215.872 349.62C221.18 349.433 226.422 349.186 231.361 348.914L231.216 349.101C227.962 333.401 224.67 318.497 221.398 304.748C219.755 297.87 218.113 291.287 216.41 285.08C215.552 281.97 214.689 278.957 213.759 276.058C213.517 275.339 213.282 274.621 213.046 273.908C212.811 273.196 212.539 272.507 212.285 271.813C211.798 270.454 211.192 269.14 210.474 267.888C209.568 265.678 208.692 263.522 207.895 261.571L208.004 261.644L172.829 262.272L163.3 262.453L160.818 262.489H159.943Z" fill="#455A64"/>
<path d="M192.967 343.092C192.898 342.948 192.839 342.798 192.792 342.645L192.357 341.347C191.983 340.212 191.433 338.581 190.733 336.571C189.332 332.549 187.261 327.042 184.664 321.088C182.067 315.133 179.422 309.874 177.418 306.112C176.421 304.234 175.606 302.718 175.002 301.679L174.344 300.472C174.261 300.336 174.192 300.192 174.139 300.043C174.234 300.17 174.321 300.303 174.398 300.442C174.579 300.737 174.815 301.124 175.105 301.649C175.709 302.67 176.572 304.167 177.593 306.039C179.646 309.777 182.315 315.031 184.918 320.997C187.52 326.963 189.561 332.47 190.914 336.528C191.59 338.551 192.122 340.194 192.442 341.359C192.599 341.909 192.732 342.343 192.822 342.676C192.882 342.81 192.931 342.949 192.967 343.092Z" fill="#455A64"/>
<path d="M194.46 296.1C194.538 296.136 193.252 299.12 191.591 302.797C189.931 306.475 188.53 309.397 188.439 309.337C188.348 309.276 189.647 306.318 191.307 302.646C192.968 298.975 194.381 296.052 194.46 296.1Z" fill="#455A64"/>
<path d="M162.412 154.784C160.818 156.358 159.629 158.295 158.945 160.428C158.262 162.562 158.105 164.829 158.487 167.037C158.874 169.174 159.725 171.565 158.487 173.353C157.249 175.14 154.544 175.358 153.391 177.169C152.032 179.301 153.644 182.097 153.336 184.609C153.153 185.782 152.558 186.851 151.659 187.625C150.759 188.399 149.614 188.829 148.427 188.836C151.426 190.801 154.909 191.902 158.493 192.018L160.83 188.28C159.93 189.597 160.401 191.499 161.525 192.634C162.648 193.769 164.236 194.283 165.794 194.609C169.538 195.349 173.403 195.216 177.088 194.219C180.773 193.222 184.177 191.388 187.038 188.86" fill="#263238"/>
<path d="M204.833 169.603C204.126 168.009 203.063 166.584 202.52 164.917C201.367 161.348 202.719 157.067 200.606 153.963C199.108 151.753 196.306 150.889 193.685 150.34C191.065 149.79 188.251 149.44 186.192 147.773C184.664 146.566 183.679 144.754 182.152 143.546C179.984 141.795 177.001 141.439 174.217 141.554C171.433 141.668 168.444 142.248 166.017 143.77C163.589 145.292 161.711 147.864 161.542 150.726C161.463 152.121 161.783 153.54 161.488 154.905C161.161 156.409 160.135 157.653 159.573 159.084C159.016 160.613 158.982 162.285 159.477 163.836C159.972 165.386 160.968 166.729 162.309 167.653L184.44 190.847C188.704 191.97 198.45 189.072 201.306 185.714C204.162 182.357 206.644 173.631 204.833 169.603Z" fill="#263238"/>
<path d="M162.484 164.409C162.696 158.606 166.349 151.384 172.146 151.843L190.341 155.919C191.19 155.987 191.983 156.371 192.563 156.995C193.143 157.618 193.468 158.437 193.475 159.289L194.809 201.788C194.854 201.762 194.907 201.751 194.959 201.758C195.011 201.765 195.06 201.789 195.096 201.827C195.133 201.864 195.156 201.913 195.162 201.965C195.168 202.017 195.157 202.07 195.129 202.115C193.318 205.394 184.773 219.802 174.097 216.782C171.681 216.106 173.493 208.624 172.949 205.979L172.545 199.113C172.412 195.605 172.376 194.162 172.37 194.192C172.364 194.222 164.93 193.159 163.143 183.534C162.219 178.745 162.249 170.859 162.484 164.409Z" fill="#FFBF9D"/>
<path d="M165.878 172.629C165.878 172.787 165.909 172.944 165.97 173.091C166.031 173.237 166.12 173.37 166.232 173.483C166.344 173.595 166.477 173.684 166.623 173.744C166.77 173.805 166.927 173.836 167.086 173.836C167.403 173.848 167.712 173.734 167.946 173.519C168.18 173.304 168.32 173.006 168.336 172.689C168.327 172.372 168.196 172.07 167.972 171.845C167.747 171.621 167.445 171.49 167.128 171.481C166.811 171.47 166.501 171.584 166.268 171.798C166.034 172.013 165.894 172.311 165.878 172.629Z" fill="#263238"/>
<path d="M178.064 173.033C178.064 173.353 178.192 173.66 178.418 173.887C178.645 174.113 178.952 174.241 179.272 174.241C179.59 174.252 179.899 174.138 180.133 173.923C180.367 173.709 180.507 173.41 180.522 173.093C180.522 172.773 180.395 172.466 180.168 172.239C179.942 172.013 179.635 171.886 179.314 171.886C178.997 171.874 178.688 171.988 178.454 172.203C178.22 172.417 178.08 172.716 178.064 173.033Z" fill="#263238"/>
<path d="M163.807 168.637C163.964 168.849 165.014 168.003 166.482 168.033C167.949 168.064 168.958 168.981 169.127 168.782C169.211 168.692 169.06 168.317 168.613 167.901C168.032 167.383 167.29 167.082 166.512 167.049C165.734 167.028 164.973 167.28 164.362 167.762C163.897 168.178 163.728 168.547 163.807 168.637Z" fill="#263238"/>
<path d="M176.737 168.812C176.93 168.999 177.945 168.069 179.515 167.972C181.085 167.876 182.25 168.636 182.401 168.425C182.48 168.328 182.281 167.978 181.761 167.622C181.073 167.172 180.256 166.96 179.436 167.018C178.622 167.071 177.849 167.394 177.238 167.936C176.785 168.353 176.647 168.727 176.737 168.812Z" fill="#263238"/>
<path d="M172.828 178.383C172.117 178.187 171.385 178.075 170.648 178.051C170.31 178.051 169.984 177.967 169.917 177.737C169.881 177.384 169.953 177.028 170.122 176.717L171.077 174.072C172.381 170.346 173.311 167.278 173.16 167.23C173.009 167.182 171.831 170.159 170.533 173.873C170.219 174.79 169.929 175.684 169.633 176.505C169.433 176.925 169.384 177.401 169.494 177.852C169.55 177.974 169.634 178.082 169.739 178.165C169.844 178.249 169.967 178.307 170.098 178.335C170.296 178.382 170.499 178.402 170.702 178.395C171.408 178.479 172.122 178.475 172.828 178.383Z" fill="#263238"/>
<path d="M172.339 194.192C176.895 194.134 181.345 192.813 185.195 190.376C185.195 190.376 182.121 197.242 172.423 196.596L172.339 194.192Z" fill="#6F4439"/>
<path d="M177.285 181.832C177.097 181.524 176.833 181.27 176.518 181.095C176.146 180.959 175.737 180.959 175.365 181.095C174.804 181.242 174.305 181.563 173.94 182.013C173.764 182.241 173.652 182.511 173.615 182.797C173.578 183.082 173.617 183.372 173.728 183.637C173.934 184.175 174.791 184.392 175.365 184.434C175.946 184.451 176.515 184.268 176.977 183.915C177.192 183.793 177.372 183.618 177.5 183.407C177.628 183.195 177.7 182.954 177.708 182.707C177.651 182.382 177.505 182.078 177.285 181.832Z" fill="#E8B671"/>
<path d="M176.821 179.995C176.603 179.995 176.64 181.433 175.426 182.495C174.212 183.558 172.666 183.437 172.66 183.643C172.66 183.733 173.01 183.914 173.663 183.914C174.512 183.903 175.331 183.593 175.975 183.039C176.59 182.505 176.975 181.754 177.05 180.943C177.086 180.34 176.917 179.983 176.821 179.995Z" fill="#263238"/>
<path d="M176.45 165.225C176.589 165.587 177.918 165.376 179.47 165.527C181.022 165.678 182.314 166.064 182.489 165.732C182.58 165.575 182.35 165.243 181.831 164.905C181.144 164.483 180.365 164.232 179.56 164.174C178.756 164.1 177.945 164.216 177.193 164.512C176.644 164.76 176.366 165.056 176.45 165.225Z" fill="#263238"/>
<path d="M164.624 163.202C164.901 163.498 165.94 163.153 167.202 163.105C168.464 163.057 169.539 163.25 169.781 162.924C169.883 162.767 169.708 162.471 169.231 162.193C168.579 161.865 167.853 161.713 167.124 161.752C166.395 161.791 165.689 162.02 165.077 162.417C164.642 162.707 164.503 163.027 164.624 163.202Z" fill="#263238"/>
<path d="M194.333 156.898C193.307 155.63 191.646 155.086 190.07 154.664C183.262 152.815 176.258 151.784 169.206 151.59C168.488 153.106 169.49 154.965 170.903 155.871C172.316 156.777 174.037 157.006 175.662 157.429C177.286 157.852 178.983 158.589 179.786 160.062C180.638 161.626 180.263 163.625 181.036 165.237C182.371 168.003 186.471 168.51 187.793 171.276C188.79 173.377 187.793 175.823 187.691 178.142C187.649 179.32 187.858 180.494 188.306 181.585C188.753 182.675 189.428 183.658 190.285 184.468C191.142 185.278 192.162 185.896 193.276 186.28C194.391 186.665 195.575 186.807 196.749 186.698C196.37 178.409 195.992 170.116 195.613 161.819C195.547 160.098 195.42 158.244 194.333 156.898Z" fill="#263238"/>
<path d="M213.103 176.004C211.677 174.971 209.944 174.132 209.25 172.513C208.241 170.164 209.902 167.079 208.411 165.019C207.058 163.117 203.688 163.57 202.408 161.614C201.406 160.092 202.215 158.564 201.756 157.181C201.297 155.798 199.153 154.766 197.728 155.086L188.163 172.598C187.686 178.178 186.955 181.203 188.441 184.283C189.268 185.973 190.283 187.598 190.729 189.428C191.176 191.257 190.917 193.401 189.522 194.657C196.309 194.488 202.251 190.309 207.728 186.3L213.525 182.072C214.164 181.68 214.696 181.134 215.071 180.484C215.814 178.848 214.497 177.036 213.103 176.004Z" fill="#263238"/>
<path d="M207.713 184.603C207.489 184.701 207.254 184.772 207.013 184.815C206.317 184.958 205.603 184.982 204.899 184.887C203.778 184.736 202.715 184.297 201.813 183.613C200.618 182.682 199.79 181.358 199.477 179.875C199.29 179.019 199.275 178.134 199.434 177.272C199.645 176.354 199.978 175.469 200.425 174.64C200.898 173.785 201.242 172.865 201.445 171.91C201.552 171.422 201.549 170.915 201.435 170.428C201.321 169.942 201.1 169.486 200.787 169.096C200.092 168.341 198.933 168.257 197.834 167.943C197.239 167.796 196.702 167.477 196.288 167.025C195.9 166.534 195.675 165.935 195.642 165.31C195.527 164.102 195.938 162.894 196.047 161.723C196.119 161.144 196.061 160.556 195.878 160.002C195.67 159.462 195.276 159.014 194.766 158.74C193.722 158.136 192.472 158.136 191.264 158.184C190.036 158.267 188.806 158.038 187.689 157.52C186.613 157.001 185.701 156.197 185.05 155.195C184.487 154.218 184.08 153.158 183.843 152.055C183.621 151.04 183.295 150.05 182.87 149.102C182.433 148.24 181.815 147.482 181.059 146.88C179.794 145.881 178.245 145.312 176.634 145.253C175.024 145.194 173.437 145.65 172.104 146.554C171.18 147.151 170.372 147.91 169.718 148.794C169.168 149.559 168.71 150.386 168.354 151.258C168.357 151.196 168.372 151.134 168.396 151.077C168.438 150.956 168.486 150.781 168.583 150.558C168.835 149.904 169.165 149.283 169.567 148.71C170.224 147.79 171.042 146.998 171.983 146.373C173.221 145.519 174.677 145.035 176.18 144.978C178.011 144.935 179.802 145.516 181.258 146.626C182.067 147.25 182.729 148.044 183.196 148.951C183.641 149.919 183.983 150.931 184.217 151.971C184.447 153.032 184.842 154.051 185.388 154.99C186.007 155.929 186.869 156.683 187.882 157.17C188.948 157.655 190.12 157.863 191.288 157.774C192.496 157.774 193.812 157.719 194.984 158.378C195.574 158.697 196.031 159.218 196.27 159.845C196.478 160.454 196.542 161.103 196.457 161.741C196.336 162.949 195.944 164.156 196.053 165.256C196.075 165.802 196.267 166.327 196.602 166.759C196.968 167.155 197.443 167.434 197.967 167.562C198.492 167.719 199.048 167.81 199.591 167.979C200.155 168.122 200.669 168.416 201.077 168.83C201.424 169.262 201.67 169.766 201.797 170.305C201.923 170.844 201.927 171.405 201.807 171.946C201.595 172.935 201.234 173.885 200.739 174.766C200.301 175.57 199.971 176.426 199.754 177.315C199.591 178.136 199.591 178.981 199.754 179.803C200.037 181.23 200.813 182.513 201.946 183.426C202.81 184.107 203.836 184.552 204.923 184.718C205.852 184.859 206.799 184.82 207.713 184.603Z" fill="#455A64"/>
<path d="M215.491 172.073C215.623 172.226 215.719 172.405 215.775 172.599C215.943 173.162 215.9 173.767 215.654 174.301C215.487 174.692 215.223 175.033 214.887 175.292C214.482 175.598 213.998 175.785 213.492 175.829C212.874 175.881 212.254 175.762 211.699 175.485C211.144 175.208 210.676 174.784 210.346 174.259C209.964 173.656 209.731 172.971 209.664 172.26C209.603 171.493 209.685 170.721 209.905 169.984C210.286 168.474 211.113 166.965 210.956 165.25C210.946 164.827 210.851 164.412 210.675 164.028C210.5 163.644 210.248 163.299 209.935 163.015C209.192 162.524 208.287 162.34 207.411 162.502C206.437 162.68 205.439 162.68 204.464 162.502C203.948 162.353 203.491 162.044 203.16 161.62C202.842 161.194 202.621 160.704 202.514 160.183C202.366 159.183 202.343 158.169 202.447 157.164C202.495 156.225 202.345 155.287 202.007 154.41C201.345 152.741 200.07 151.386 198.444 150.624C196.898 149.893 195.201 149.972 193.667 150.02C192.221 150.173 190.76 150.096 189.338 149.791C187.284 149.258 185.482 148.02 184.247 146.294C183.788 145.676 183.442 144.981 183.227 144.241C183.546 144.93 183.931 145.587 184.374 146.204C185.619 147.86 187.391 149.042 189.398 149.555C190.79 149.831 192.215 149.891 193.625 149.73C195.159 149.652 196.916 149.549 198.571 150.334C200.29 151.126 201.639 152.549 202.339 154.308C202.703 155.233 202.865 156.225 202.816 157.218C202.715 158.191 202.735 159.173 202.876 160.141C202.941 160.6 203.132 161.033 203.427 161.391C203.722 161.749 204.11 162.019 204.549 162.17C205.476 162.33 206.424 162.33 207.351 162.17C208.326 161.995 209.331 162.212 210.147 162.774C210.498 163.09 210.781 163.475 210.979 163.905C211.176 164.335 211.283 164.801 211.294 165.274C211.344 166.146 211.223 167.02 210.938 167.846C210.69 168.643 210.4 169.386 210.195 170.123C209.98 170.822 209.894 171.555 209.941 172.285C209.995 172.949 210.202 173.591 210.545 174.163C210.845 174.652 211.273 175.051 211.783 175.315C212.292 175.579 212.865 175.698 213.438 175.66C213.907 175.631 214.358 175.472 214.742 175.201C215.057 174.961 215.31 174.648 215.479 174.289C215.723 173.789 215.787 173.219 215.66 172.677C215.616 172.473 215.559 172.271 215.491 172.073Z" fill="#263238"/>
<path d="M144.965 183.444C144.835 184.036 144.908 184.655 145.17 185.201C145.317 185.515 145.532 185.792 145.8 186.012C146.067 186.233 146.38 186.391 146.716 186.475C147.165 186.56 147.629 186.518 148.056 186.354C148.483 186.19 148.855 185.91 149.131 185.545C149.443 185.12 149.597 184.599 149.566 184.072C149.523 183.491 149.376 182.922 149.131 182.393C148.654 181.294 147.797 180.129 147.755 178.631C147.726 177.871 147.858 177.113 148.141 176.407C148.424 175.7 148.852 175.061 149.397 174.531C149.97 173.969 150.644 173.52 151.384 173.208C152.14 172.902 152.934 172.699 153.745 172.605C154.526 172.514 155.296 172.35 156.046 172.115C156.749 171.894 157.351 171.43 157.743 170.805C158.082 170.174 158.237 169.461 158.189 168.746C158.154 168.045 158.024 167.353 157.803 166.687C157.386 165.37 156.849 164.102 156.788 162.81C156.731 161.618 157.032 160.436 157.652 159.416C158.181 158.602 158.862 157.897 159.657 157.339C160.232 156.914 160.775 156.448 161.281 155.944C161.699 155.501 162.026 154.98 162.241 154.41C162.241 154.41 162.241 154.452 162.241 154.531C162.218 154.649 162.183 154.764 162.139 154.875C161.973 155.308 161.727 155.705 161.414 156.047C160.92 156.575 160.385 157.064 159.814 157.508C159.057 158.068 158.412 158.764 157.912 159.561C157.341 160.538 157.07 161.662 157.133 162.792C157.199 163.999 157.736 165.207 158.165 166.578C158.405 167.273 158.545 167.999 158.582 168.734C158.637 169.52 158.468 170.305 158.093 170.998C157.657 171.703 156.985 172.229 156.197 172.484C155.423 172.726 154.629 172.896 153.823 172.991C153.046 173.083 152.283 173.274 151.553 173.559C150.862 173.842 150.229 174.252 149.687 174.766C149.177 175.26 148.776 175.854 148.509 176.511C148.242 177.168 148.114 177.874 148.135 178.583C148.135 179.954 148.956 181.071 149.445 182.206C149.706 182.776 149.856 183.391 149.886 184.017C149.912 184.61 149.73 185.193 149.373 185.666C149.063 186.062 148.648 186.364 148.175 186.535C147.702 186.707 147.19 186.743 146.698 186.638C146.336 186.541 146 186.362 145.717 186.117C145.433 185.871 145.209 185.564 145.061 185.219C144.868 184.792 144.797 184.32 144.856 183.854C144.873 183.713 144.909 183.575 144.965 183.444Z" fill="#263238"/>
<path d="M208.958 201.294L194.87 198.492C194.87 198.492 189.091 206.868 180.088 206.143C174.834 205.72 172.612 200.708 172.612 200.708L157.775 204.887L157.564 234.911L160.957 251.215L151.96 278.389C151.96 278.389 176.078 293.727 215.172 277.924L208.343 261.451L210.196 251.692C210.196 251.692 212.672 233.269 211.694 227.538C210.716 221.807 208.928 215.044 208.928 215.044L208.958 201.294Z" fill="#01818C"/>
<path d="M169.81 248.8C170.097 249.068 170.413 249.305 170.752 249.506C171.355 249.935 172.297 250.521 173.469 251.197C179.604 254.716 186.356 257.028 193.36 258.009C194.701 258.184 195.776 258.293 196.549 258.329C196.94 258.368 197.335 258.368 197.726 258.329C197.346 258.228 196.958 258.164 196.567 258.135C195.818 258.045 194.755 257.894 193.408 257.677C189.952 257.101 186.547 256.249 183.227 255.128C179.912 253.982 176.695 252.569 173.608 250.901C172.4 250.261 171.476 249.724 170.824 249.337C170.504 249.126 170.164 248.946 169.81 248.8Z" fill="#263238"/>
<g opacity="0.3">
<path d="M157.271 262.416C158.318 262.612 159.398 262.519 160.396 262.147C161.394 261.774 162.272 261.137 162.935 260.303C164.142 258.678 164.692 256.68 165.199 254.699C166.371 250.202 167.538 245.701 168.702 241.197C175.482 237.417 183.366 236.112 191.002 237.507C192.169 237.654 193.287 238.068 194.269 238.715C195.561 239.699 196.177 241.317 196.721 242.845C198.037 246.571 199.305 250.375 201.582 253.6C203.858 256.825 204.788 259.204 208.732 259.409L212.029 243.54L200.833 229.506L172.639 230.484L162.373 237.169L158.877 257.404L157.271 262.416Z" fill="black"/>
</g>
<path d="M207.315 201.245C207.315 201.245 213.861 200.52 218.275 208.401C221.518 214.186 225.6 225.78 225.6 225.78L210.063 230.098L206.705 214.929L207.315 201.245Z" fill="#01818C"/>
<path d="M157.775 204.917C157.775 204.917 152.998 205.787 150.311 209.796C147.624 213.806 142.92 227.912 142.92 227.912L159.224 229.681L160.74 213.498L157.775 204.917Z" fill="#01818C"/>
<path d="M211.626 217.043C211.424 217.681 211.295 218.339 211.24 219.006C211.023 220.394 210.775 222.025 210.503 223.758C210.232 225.491 209.948 227.121 209.718 228.51C209.567 229.162 209.484 229.828 209.471 230.497C209.733 229.879 209.922 229.233 210.032 228.571C210.31 227.363 210.636 225.696 210.95 223.83C211.264 221.964 211.445 220.274 211.554 219.042C211.653 218.38 211.678 217.71 211.626 217.043Z" fill="#263238"/>
<path d="M158.53 217.157C158.41 217.157 158.15 220.599 157.963 224.862C157.776 229.126 157.715 232.58 157.836 232.58C157.957 232.58 158.216 229.138 158.44 224.881C158.663 220.623 158.657 217.163 158.53 217.157Z" fill="#263238"/>
<path d="M187.821 201.849L190.756 225.11C190.796 225.497 190.683 225.883 190.441 226.188C190.2 226.492 189.849 226.691 189.464 226.74L174.567 228.872C174.179 228.936 173.782 228.845 173.46 228.619C173.138 228.393 172.918 228.051 172.846 227.664L168.927 203.395C168.897 203.192 168.91 202.984 168.965 202.786C169.021 202.588 169.117 202.404 169.248 202.245C169.378 202.086 169.541 201.957 169.725 201.865C169.909 201.773 170.11 201.72 170.315 201.71L186.203 200.575C186.584 200.542 186.964 200.655 187.265 200.892C187.565 201.128 187.765 201.471 187.821 201.849Z" fill="#263238"/>
<path d="M181.494 214.566C181.899 214.566 190.818 215.744 190.818 215.744L203.626 221.595L210.057 230.049L204.23 241.595L200.432 232C198.606 232.679 196.673 233.025 194.725 233.02C192.014 232.882 183.433 232.598 183.433 232.598L178.928 230.424C178.928 230.424 177.418 228.256 177.394 227.634C177.382 227.452 177.42 227.27 177.503 227.108C177.587 226.946 177.713 226.81 177.869 226.714C178.024 226.618 178.202 226.567 178.385 226.565C178.567 226.563 178.747 226.611 178.904 226.704C179.822 227.163 186.005 227.036 187.521 226.354C187.521 226.354 178.493 226.094 177.255 224.723C176.017 223.353 176.386 222.217 177.799 222.157C179.212 222.097 184.393 222.64 185.927 222.453C187.461 222.266 189.399 222.187 189.755 221.426C190.112 220.665 188.928 220.098 188.928 220.098L187.207 218.926C187.207 218.926 180.595 218.075 180.154 216.728C180.066 216.498 180.033 216.251 180.057 216.006C180.08 215.761 180.16 215.525 180.29 215.316C180.419 215.107 180.595 214.93 180.804 214.8C181.013 214.67 181.25 214.59 181.494 214.566Z" fill="#FFBF9D"/>
<path d="M178.468 214.253C178.468 214.253 171.017 215.739 170.534 216.21C170.051 216.681 161.053 228.245 161.053 228.245L158.837 230.449L165.087 237.943L166.258 237.194L174.549 232.429C175.404 232.027 176.296 231.709 177.212 231.481C177.212 231.481 185.715 229.839 186.228 228.824C186.741 227.81 186.415 227.617 185.775 227.472C185.135 227.327 180.038 228.112 178.909 228.359C177.781 228.513 176.641 228.559 175.503 228.498C175.503 228.498 179.024 227.556 179.815 227.254C180.606 226.952 188.493 224.917 188.311 223.553C188.13 222.188 187.104 221.741 182.188 223.22C179.481 224.088 176.683 224.64 173.849 224.863L184.718 220.72C184.718 220.72 189.102 219.168 187.623 218.003C186.144 216.838 176.753 219.742 176.753 219.742L172.617 221.439L173.704 218.951C173.704 218.951 179.61 217.007 180.346 216.397C181.264 215.648 181.367 214.984 180.63 214.428C179.894 213.873 178.468 214.253 178.468 214.253Z" fill="#FFBF9D"/>
<path d="M144.321 228.075L157.606 229.537V232.556L159.55 229.736L165.076 237.948C165.076 237.948 163.445 243.77 162.57 247.006C160.251 255.593 156.277 265.255 150.921 265.007C144.49 264.687 141.127 258.141 141.048 253.407C140.976 249.102 144.321 228.075 144.321 228.075Z" fill="#FFBF9D"/>
<path d="M224.684 226.004L213.488 229.21L210.064 230.068L206.743 225.653L202.009 235.526C202.009 235.526 204.086 241.203 205.209 244.343C208.229 252.743 212.927 262.096 218.247 261.408C224.629 260.587 229.026 253.093 228.736 248.365C228.47 244.071 224.684 226.004 224.684 226.004Z" fill="#FFBF9D"/>
<path d="M161.048 228.208C161.048 228.208 161.12 228.093 161.289 227.876L162.02 226.909C162.684 226.058 163.644 224.814 164.87 223.226L169.405 217.441L170.088 216.589L170.444 216.149C170.611 216.023 170.799 215.929 170.999 215.871C171.748 215.623 172.527 215.436 173.336 215.267C174.949 214.88 176.658 214.518 178.457 214.156C178.912 214.037 179.384 213.996 179.852 214.035C180.098 214.059 180.338 214.128 180.559 214.24C180.777 214.365 180.963 214.539 181.102 214.748C181.174 214.858 181.222 214.982 181.24 215.113C181.259 215.243 181.249 215.376 181.211 215.502C181.126 215.741 180.992 215.959 180.818 216.142C180.642 216.334 180.438 216.498 180.214 216.632C179.997 216.752 179.768 216.855 179.544 216.958C177.733 217.731 175.752 218.395 173.723 219.077L173.807 219.005L172.714 221.493L172.533 221.318L176.67 219.621C178.451 219.083 180.293 218.588 182.195 218.177C183.158 217.96 184.131 217.792 185.112 217.676C185.615 217.62 186.121 217.599 186.627 217.616C186.893 217.626 187.156 217.677 187.406 217.767C187.545 217.818 187.671 217.898 187.775 218.002C187.879 218.106 187.96 218.232 188.01 218.371C188.045 218.514 188.042 218.664 188.002 218.805C187.961 218.947 187.885 219.076 187.781 219.18C187.602 219.377 187.399 219.552 187.177 219.699C186.748 219.984 186.295 220.233 185.824 220.442C184.882 220.871 183.904 221.197 182.938 221.577L177.056 223.812L173.856 225.019L173.795 224.735C176.417 224.519 179.01 224.031 181.531 223.28C182.757 222.895 184.003 222.575 185.263 222.32C185.898 222.185 186.551 222.158 187.195 222.241C187.539 222.288 187.854 222.458 188.083 222.719C188.283 222.984 188.399 223.304 188.415 223.636C188.405 223.822 188.325 223.997 188.191 224.126C188.08 224.245 187.957 224.352 187.823 224.446C187.567 224.622 187.299 224.779 187.02 224.917C186.47 225.194 185.909 225.418 185.347 225.635C184.218 226.058 183.089 226.42 181.972 226.758L180.311 227.254C179.774 227.411 179.23 227.616 178.687 227.761C177.606 228.075 176.537 228.365 175.486 228.642V228.395C176.725 228.484 177.971 228.419 179.194 228.202C180.402 227.984 181.609 227.809 182.751 227.652C183.354 227.58 183.904 227.507 184.472 227.453C184.755 227.423 185.039 227.398 185.323 227.386C185.474 227.372 185.625 227.372 185.776 227.386C185.921 227.413 186.063 227.455 186.199 227.513C186.275 227.544 186.345 227.589 186.403 227.647C186.461 227.706 186.506 227.775 186.537 227.851C186.579 227.999 186.579 228.156 186.537 228.304C186.503 228.439 186.457 228.571 186.398 228.697L186.313 228.878C186.275 228.946 186.226 229.007 186.168 229.059C185.722 229.369 185.229 229.606 184.707 229.76C182.848 230.341 180.959 230.823 179.049 231.203L177.751 231.468C177.342 231.541 176.939 231.639 176.543 231.764C175.787 231.954 175.058 232.24 174.375 232.616L168.373 236.01L166.791 236.873L166.386 237.096L166.241 237.169C166.281 237.133 166.326 237.102 166.374 237.078L166.772 236.837L168.343 235.919C169.725 235.116 171.742 233.944 174.309 232.465C175.613 231.698 177.28 231.36 179.037 231.004C180.935 230.611 182.811 230.122 184.659 229.536C185.149 229.39 185.614 229.168 186.036 228.878C186.076 228.845 186.109 228.803 186.132 228.757L186.211 228.582C186.262 228.469 186.304 228.352 186.338 228.232C186.359 228.182 186.371 228.128 186.372 228.074C186.373 228.019 186.363 227.965 186.343 227.915C186.322 227.864 186.292 227.818 186.254 227.779C186.216 227.74 186.17 227.709 186.12 227.688C186.001 227.641 185.878 227.605 185.752 227.58C185.631 227.58 185.498 227.58 185.359 227.58L184.52 227.652C183.958 227.706 183.385 227.779 182.811 227.857C181.658 228.014 180.468 228.196 179.266 228.413C178.022 228.639 176.754 228.708 175.492 228.618C175.475 228.618 175.458 228.615 175.442 228.608C175.426 228.601 175.412 228.591 175.4 228.579C175.388 228.567 175.379 228.552 175.373 228.536C175.367 228.52 175.365 228.503 175.365 228.485C175.367 228.458 175.377 228.431 175.394 228.41C175.412 228.388 175.435 228.372 175.462 228.365C176.513 228.087 177.578 227.791 178.656 227.477C179.2 227.332 179.719 227.133 180.275 226.964L181.935 226.469C183.047 226.13 184.17 225.768 185.287 225.345C185.842 225.134 186.398 224.905 186.935 224.639C187.201 224.508 187.455 224.357 187.696 224.186C187.92 224.023 188.173 223.805 188.167 223.582C188.153 223.314 188.061 223.055 187.902 222.839C187.717 222.634 187.463 222.503 187.189 222.471C186.585 222.396 185.973 222.423 185.377 222.549C184.127 222.802 182.891 223.123 181.676 223.51C179.131 224.268 176.514 224.76 173.868 224.977C173.848 224.979 173.828 224.976 173.809 224.97C173.79 224.964 173.773 224.954 173.757 224.941C173.742 224.929 173.73 224.913 173.721 224.895C173.712 224.877 173.706 224.858 173.705 224.838C173.703 224.807 173.711 224.776 173.729 224.749C173.746 224.723 173.772 224.704 173.801 224.693L176.996 223.485L182.883 221.251C183.85 220.871 184.834 220.545 185.746 220.134C186.202 219.93 186.641 219.687 187.056 219.409C187.251 219.278 187.429 219.124 187.588 218.95C187.659 218.881 187.713 218.796 187.743 218.701C187.774 218.606 187.781 218.505 187.763 218.407C187.624 218.033 187.117 217.9 186.64 217.882C186.152 217.863 185.663 217.883 185.178 217.942C184.208 218.055 183.245 218.219 182.292 218.431C180.402 218.836 178.566 219.331 176.797 219.856L172.654 221.541C172.621 221.556 172.584 221.557 172.55 221.544C172.516 221.532 172.489 221.507 172.473 221.475C172.466 221.457 172.462 221.439 172.462 221.42C172.462 221.402 172.466 221.383 172.473 221.366L173.566 218.884C173.575 218.867 173.586 218.852 173.601 218.839C173.615 218.827 173.632 218.817 173.65 218.812C175.673 218.135 177.636 217.477 179.448 216.716C179.67 216.622 179.888 216.518 180.1 216.402C180.292 216.281 180.466 216.135 180.619 215.967C180.933 215.641 181.126 215.2 180.879 214.856C180.76 214.679 180.602 214.532 180.416 214.427C180.23 214.322 180.023 214.263 179.81 214.252C179.374 214.215 178.935 214.252 178.512 214.361C176.7 214.717 175.003 215.074 173.397 215.442C172.594 215.635 171.809 215.822 171.078 216.046C170.908 216.095 170.747 216.17 170.601 216.269L170.251 216.698L169.562 217.543C167.787 219.784 166.247 221.71 164.991 223.298C163.735 224.886 162.763 226.1 162.086 226.921L161.326 227.869C161.144 228.105 161.048 228.208 161.048 228.208Z" fill="#6F4439"/>
<path d="M159.18 230.273C159.271 230.339 155.557 235.182 150.883 241.094C146.209 247.006 142.338 251.74 142.248 251.668C142.157 251.595 145.871 246.758 150.551 240.852C155.231 234.947 159.089 230.23 159.18 230.273Z" fill="#6F4439"/>
<path d="M221.428 244.893C221.361 244.893 220.878 243.878 219.894 242.308C218.58 240.272 217.131 238.325 215.558 236.481C213.747 234.301 211.983 232.387 210.776 230.956C210.172 230.243 209.695 229.651 209.375 229.235C209.194 229.033 209.041 228.808 208.922 228.564C209.147 228.741 209.35 228.943 209.526 229.168L211.017 230.805C212.279 232.194 214.037 234.078 215.89 236.27C217.482 238.119 218.912 240.101 220.166 242.194C220.523 242.818 220.847 243.461 221.138 244.12C221.267 244.364 221.364 244.624 221.428 244.893Z" fill="#6F4439"/>
</g>
<defs>
<clipPath id="clip0_233_1229">
<rect width="92.3908" height="170.289" fill="white" transform="translate(141.047 140.931)"/>
</clipPath>
</defs>
</svg>
