<svg width="111" height="98" viewBox="0 0 111 98" fill="none" xmlns="http://www.w3.org/2000/svg">
<path opacity="0.3" d="M58.3664 5.56133C56.7618 5.11404 55.1543 4.67235 53.5329 4.28656C48.4059 3.06491 43.0916 2.77977 37.822 3.05373C26.679 3.6352 21.8176 9.45551 25.667 14.8844C29.5165 20.3134 34.3779 25.9408 29.1111 31.1796C23.8443 36.4185 3.99042 41.0702 6.01438 50.3794C8.03835 59.6885 25.8627 61.0471 24.4649 67.0603C23.0672 73.0735 13.9425 74.8208 18.3874 82.9669C22.8323 91.1131 39.2533 83.937 44.5201 88.203C49.7869 92.469 52.6272 95.9606 61.3353 97.3192C70.0434 98.6779 76.3277 88.0101 85.6564 83.937C94.9851 79.8639 104.498 78.5053 106.321 69.0005C108.144 59.4956 90.7219 53.2895 91.5326 43.5918C91.938 38.7444 95.2535 34.962 97.8394 31.0874C102.206 24.5374 105.807 12.7375 96.162 8.87684C91.9688 7.19951 87.1548 7.65239 82.7435 7.75862C78.1532 7.85646 73.3924 8.37084 68.8161 7.86765C65.2378 7.46509 61.8021 6.51181 58.3664 5.56133Z" fill="white"/>
<path d="M21.8663 66.9892L11.104 56.177L16.5154 46.2382C21.9269 39.3082 33.3843 39.7538 33.3843 39.7538C39.0367 39.3695 44.7151 39.7182 50.2781 40.7911C59.3791 42.5736 58.6447 48.5839 58.6447 48.5839L59.8639 70.8891L61.1722 89.052L27.6092 89.7293L21.8663 67.0034" fill="#32959D"/>
<path d="M39.9472 88.6667L9.88484 89.0232C8.22877 89.0425 6.59497 88.6405 5.13691 87.855C3.67885 87.0695 2.44437 85.9263 1.54943 84.5327C0.654478 83.1391 0.128433 81.5409 0.0206978 79.8883C-0.0870375 78.2356 0.227071 76.5827 0.933525 75.0847L13.7883 51.2466L25.4989 59.1605L17.51 75.7264L41.8437 76.1613L39.9472 88.6667Z" fill="#32959D"/>
<path d="M57.5825 44.9478L81.7058 82.1932L67.6318 83.113C67.6318 83.113 59.2259 69.8696 59.4148 70.1405C59.7499 70.6396 57.5825 44.9478 57.5825 44.9478Z" fill="#32959D"/>
<path d="M24.893 61.303C24.8939 61.2376 24.9047 61.1727 24.9251 61.1105C24.9607 60.9679 25 60.7897 25.0534 60.5687C25.1639 60.1017 25.3279 59.4244 25.4955 58.5831C25.663 57.7418 25.852 56.7293 25.9696 55.6029C26.1144 54.382 26.1144 53.1483 25.9696 51.9275C25.7762 50.7169 25.3539 49.5543 24.7255 48.5017C24.2204 47.6351 23.6227 46.8259 22.943 46.0883C22.4849 45.5841 21.9968 45.1079 21.4815 44.6623C21.285 44.5086 21.097 44.3444 20.9182 44.1704C20.9762 44.1992 21.0312 44.2339 21.0822 44.2738C21.182 44.3486 21.3424 44.452 21.5278 44.6053C22.0639 45.0286 22.569 45.4896 23.0393 45.9849C23.7419 46.7171 24.3591 47.5267 24.8788 48.3983C25.5293 49.4672 25.9652 50.6526 26.1621 51.8883C26.3033 53.1242 26.2937 54.3728 26.1336 55.6064C26.0132 56.6103 25.8418 57.6073 25.6202 58.5938C25.4349 59.4386 25.2638 60.1124 25.1176 60.5758C25.0534 60.8075 24.9964 60.9858 24.9572 61.107C24.9422 61.1742 24.9207 61.2399 24.893 61.303Z" fill="#263238"/>
<path d="M23.9232 62.5864C23.8718 62.7721 23.8025 62.9523 23.7165 63.1247C23.5739 63.4812 23.36 63.9589 23.0855 64.5506C22.5401 65.7591 21.7665 67.4203 20.8753 69.2384C19.9841 71.0565 19.1428 72.6856 18.5189 73.8727C18.2052 74.4573 17.9485 74.9422 17.7667 75.2523C17.6799 75.425 17.5798 75.5907 17.4673 75.7478C17.5313 75.5659 17.61 75.3894 17.7026 75.2202C17.8844 74.8637 18.1197 74.3861 18.4155 73.8121L20.722 69.1778C21.5954 67.3704 22.3903 65.7377 22.9821 64.515C23.2602 63.9411 23.4883 63.4634 23.6665 63.0891C23.7379 62.9146 23.8238 62.7465 23.9232 62.5864Z" fill="#263238"/>
<path d="M39.9471 88.6669C39.9471 88.6669 39.9471 88.6455 39.9471 88.6063C39.9471 88.5671 39.9471 88.4958 39.9471 88.4209C39.9649 88.2498 39.9898 88.011 40.0183 87.708C40.0896 87.0734 40.1895 86.1715 40.3142 85.0343C40.578 82.7279 40.9559 79.4839 41.3837 75.6588L41.4692 75.7515H32.5892L17.0786 75.7265L12.373 75.698L11.0932 75.6802H10.7581H10.644C10.6819 75.6756 10.7202 75.6756 10.7581 75.6802H11.0932L12.373 75.6624L17.0786 75.6338L32.6142 75.6089H41.4942H41.5904V75.7016C41.1199 79.5231 40.7242 82.7671 40.439 85.07C40.2964 86.2036 40.1788 87.1055 40.0825 87.74C40.0445 88.0395 40.0124 88.2771 39.9863 88.453L39.9577 88.6348C39.9542 88.6455 39.9506 88.6669 39.9471 88.6669Z" fill="#263238"/>
<path d="M17.7204 75.9902C17.5051 75.7524 17.3051 75.5011 17.1215 75.238C16.1608 74.0319 14.9711 73.0275 13.6208 72.2828C13.3325 72.1432 13.0516 71.9885 12.7795 71.8193C13.096 71.8935 13.3998 72.0136 13.6814 72.1758C15.0877 72.8706 16.3039 73.8971 17.2249 75.1667C17.4273 75.417 17.594 75.6941 17.7204 75.9902Z" fill="#263238"/>
<path d="M60.3632 78.3499C60.3371 78.2483 60.3204 78.1445 60.3133 78.0398C60.2883 77.8223 60.2563 77.5264 60.2135 77.1521C60.1315 76.3821 60.021 75.2663 59.9033 73.8867C59.6574 71.124 59.3757 67.3025 59.1262 63.0817C58.8767 58.8609 58.702 55.0323 58.6022 52.2624C58.5523 50.8757 58.5166 49.767 58.5024 48.9792C58.5024 48.6049 58.5024 48.309 58.4845 48.088C58.4791 47.9847 58.4791 47.8811 58.4845 47.7778C58.5043 47.8801 58.515 47.9839 58.5166 48.088C58.5166 48.3054 58.5451 48.6049 58.5665 48.9792C58.6057 49.7706 58.6592 50.8864 58.7269 52.2553C58.8588 55.0252 59.0549 58.8467 59.3045 63.071C59.554 67.2953 59.8178 71.1097 60.0174 73.876C60.1244 75.2414 60.2099 76.3714 60.2705 77.1486C60.299 77.505 60.3204 77.8188 60.3383 78.0362C60.3561 78.1398 60.3644 78.2448 60.3632 78.3499Z" fill="#263238"/>
<path d="M33.527 58.084C33.5285 57.9205 33.5416 57.7573 33.5662 57.5956C33.609 57.2569 33.6624 56.8042 33.7302 56.2481C33.887 55.0717 34.0867 53.4604 34.3505 51.5924L34.4859 51.6779L32.1795 53.2928L29.8338 54.9255L29.6663 55.0432L29.6948 54.84C29.98 52.9898 30.2224 51.3928 30.4077 50.2057C30.5004 49.6602 30.5717 49.2111 30.6288 48.876C30.6479 48.7153 30.6813 48.5566 30.7286 48.4019C30.7288 48.5644 30.7145 48.7267 30.6858 48.8867C30.643 49.2218 30.5896 49.6709 30.5183 50.2235C30.3578 51.3928 30.1333 52.9934 29.8766 54.8578L29.7411 54.7722L32.0832 53.1324L34.3932 51.5247L34.5608 51.407L34.5323 51.6102C34.2578 53.4711 34.0189 55.0824 33.8478 56.2445C33.7587 56.7971 33.6874 57.2498 33.6339 57.5849C33.6133 57.7541 33.5775 57.9211 33.527 58.084Z" fill="#E0E0E0"/>
<path d="M46.9452 59.5277C46.8167 59.4254 46.6974 59.3121 46.5887 59.189C46.357 58.9395 46.0433 58.608 45.6583 58.2016L42.4749 54.7508L42.6282 54.6973C42.5533 55.5707 42.4749 56.519 42.3929 57.5029C42.3109 58.4868 42.2253 59.4635 42.1505 60.3547L42.1327 60.5615L41.9972 60.4082L38.8993 56.9147L38.0153 55.8951C37.9028 55.7785 37.8024 55.6507 37.7158 55.5137C37.844 55.6227 37.9632 55.742 38.0723 55.8702L38.992 56.8541L42.1362 60.3013L41.9829 60.3547C42.0578 59.4671 42.1362 58.5046 42.2218 57.5029C42.3073 56.5011 42.3858 55.5707 42.4606 54.6973L42.4784 54.4941L42.6139 54.6439L45.751 58.141L46.6458 59.1641C46.7549 59.2773 46.855 59.3989 46.9452 59.5277Z" fill="#E0E0E0"/>
<path d="M53.6969 59.0503C53.6306 59.2006 53.5493 59.3439 53.4545 59.4781L52.7416 60.626L50.1963 64.5758L50.1107 64.4403L52.877 63.9626L55.6933 63.4885L55.8965 63.4529L55.8002 63.6062L53.1979 67.4776L52.4136 68.5969C52.3265 68.7339 52.2288 68.8639 52.1213 68.9855C52.1917 68.8395 52.2727 68.6989 52.3637 68.5649L53.0767 67.4241L55.6255 63.5028L55.7146 63.6382L52.8984 64.1266L50.1214 64.5972L49.9182 64.6293L50.0323 64.4617L52.6311 60.5404L53.3939 59.4175C53.4875 59.2891 53.5887 59.1665 53.6969 59.0503Z" fill="#E0E0E0"/>
<path d="M44.7169 65.9585C44.6499 66.1073 44.5687 66.2494 44.4745 66.3827L43.7615 67.5342L41.2198 71.4804L41.1307 71.345L43.9041 70.8673L46.7239 70.3896L46.9271 70.3575L46.8095 70.5251L44.2071 74.4L43.4407 75.5123C43.3556 75.6495 43.2577 75.7784 43.1484 75.8973C43.2197 75.7518 43.3007 75.6113 43.3908 75.4766C43.5762 75.1914 43.8186 74.81 44.1038 74.3394L46.6526 70.4181L46.7417 70.5536L43.9255 71.042L41.1485 71.509L40.9453 71.5446L41.0594 71.3735L43.6582 67.4522C43.9719 66.9887 44.2285 66.6109 44.4246 66.3292C44.5129 66.1988 44.6106 66.0748 44.7169 65.9585Z" fill="#E0E0E0"/>
<path d="M64.1202 58.9717C64.0495 59.1186 63.9685 59.2604 63.8778 59.3959L63.1648 60.5473L60.6231 64.4936L60.534 64.3582L63.3074 63.8805L66.1272 63.4028L66.3304 63.3707L66.2163 63.5382L63.6104 67.4132C63.2967 67.8695 63.04 68.2438 62.844 68.5219C62.7596 68.6607 62.6617 68.7909 62.5517 68.9105C62.6236 68.7646 62.7058 68.624 62.7976 68.4898L63.5106 67.3526L66.0595 63.4313L66.1486 63.5668L63.3324 64.0516L60.5553 64.5221L60.3557 64.5578L60.4662 64.3867L63.065 60.4653L63.8314 59.3424C63.9154 59.2097 64.0121 59.0856 64.1202 58.9717Z" fill="#E0E0E0"/>
<path d="M75.3139 76.9169C75.1865 76.8199 75.0672 76.7126 74.9574 76.596L73.9807 75.6549L70.6261 72.3681L70.7759 72.3075C70.7474 73.1845 70.7188 74.1327 70.6868 75.1202C70.6547 76.1077 70.6155 77.088 70.5834 77.9721V78.1788L70.4372 78.0327L67.1718 74.6995L66.2378 73.7264C66.1218 73.616 66.0145 73.4968 65.917 73.3699C66.044 73.4674 66.1631 73.5747 66.2735 73.6907L67.2431 74.6283L70.5584 77.915L70.4051 77.9756C70.4336 77.0844 70.4657 76.1219 70.4978 75.1238C70.5299 74.1256 70.5691 73.1881 70.6012 72.3111V72.1079L70.7438 72.2505L74.0484 75.5872L74.9931 76.564C75.1097 76.6724 75.217 76.7905 75.3139 76.9169Z" fill="#E0E0E0"/>
<path d="M18.6863 53.2466C18.6166 53.394 18.5356 53.5359 18.4439 53.6708L17.731 54.8222L15.1892 58.7721L15.1001 58.6366L17.8736 58.1554L20.6934 57.6812L20.8965 57.6456L20.7825 57.8167L18.1766 61.6881L17.4137 62.8004C17.3271 62.9366 17.2293 63.0654 17.1214 63.1854C17.1897 63.0394 17.2708 62.8999 17.3638 62.7683L18.0768 61.6275C18.722 60.6401 19.6061 59.2854 20.6256 57.7062L20.7147 57.8417L17.8985 58.3301L15.1215 58.8006L14.9219 58.8327L15.0324 58.6651C16.0769 57.0966 16.9752 55.742 17.6312 54.7438L18.3976 53.6209C18.4838 53.4887 18.5804 53.3636 18.6863 53.2466Z" fill="#E0E0E0"/>
<path d="M4.59106 79.9045C4.71117 80.0129 4.82097 80.1322 4.91903 80.261L5.78885 81.3055L8.74411 84.9523L8.58725 84.9951C8.71559 84.1288 8.85105 83.1877 8.99721 82.2074C9.14337 81.227 9.28596 80.261 9.41786 79.3804L9.44638 79.1772L9.57472 79.3412L12.448 83.0201L13.2643 84.0896C13.3681 84.2134 13.4611 84.3458 13.5424 84.4853C13.4253 84.3749 13.3169 84.2557 13.218 84.1288L12.3624 83.0879L9.45708 79.4482L9.61393 79.409C9.4856 80.2895 9.34657 81.2449 9.20041 82.2359C9.05425 83.2269 8.91522 84.1538 8.78332 85.02L8.7548 85.2232L8.62647 85.0628L5.71756 81.3768L4.88695 80.3073C4.77938 80.1798 4.68053 80.0452 4.59106 79.9045Z" fill="#E0E0E0"/>
<path d="M36.7818 62.6437C36.6221 62.6779 36.46 62.6994 36.297 62.7079L34.9423 62.8255L30.2581 63.182L30.3152 63.0323L32.3685 64.9573L34.4468 66.9179L34.5965 67.0605H34.3898L29.7305 67.3172L28.383 67.3742C28.2217 67.3882 28.0595 67.3882 27.8982 67.3742C28.0569 67.3424 28.2178 67.3221 28.3794 67.3136L29.7234 67.2067L34.3791 66.8858L34.3256 67.0356L32.2402 65.082L30.194 63.1499L30.0442 63.0073H30.2474L34.9352 62.7257L36.2898 62.6579C36.4532 62.6408 36.6177 62.636 36.7818 62.6437Z" fill="#E0E0E0"/>
<path d="M28.8821 80.6104C29.001 80.7222 29.1129 80.8413 29.2172 80.9669L30.1048 81.9936L33.1385 85.5798L32.9816 85.6226C33.0922 84.7528 33.2134 83.8117 33.3381 82.8313C33.4629 81.851 33.5912 80.8778 33.6946 79.9973L33.7231 79.7905L33.8515 79.9509L36.8032 83.5693L37.6409 84.6387C37.7447 84.7628 37.84 84.8938 37.9261 85.0308C37.8059 84.9214 37.695 84.8022 37.5946 84.6744L36.7176 83.6513L33.7231 80.0864L33.8764 80.0401C33.7659 80.9242 33.6447 81.8795 33.5199 82.8741C33.3952 83.8687 33.2704 84.7991 33.1635 85.669L33.1349 85.8721L33.0066 85.7153L30.0228 82.0863L29.1744 81.0168C29.0638 80.8913 28.9659 80.7552 28.8821 80.6104Z" fill="#E0E0E0"/>
<path d="M14.7617 67.4346C14.6022 67.4696 14.44 67.4911 14.2768 67.4988L12.9258 67.6128L8.24156 67.9693L8.29504 67.816L10.352 69.7446L12.4303 71.7053L12.58 71.8479H12.3732L7.71397 72.1045L6.36646 72.1616C6.2087 72.175 6.05009 72.175 5.89233 72.1616C6.05069 72.1275 6.21172 72.1072 6.37359 72.101L7.71753 71.994L12.3732 71.6696L12.3197 71.8229L10.2343 69.8694L8.18453 67.9372L8.03837 67.7947H8.24156L12.9293 67.5095L14.284 67.4453C14.4427 67.4298 14.6024 67.4262 14.7617 67.4346Z" fill="#E0E0E0"/>
<path d="M26.8929 80.2076C26.7333 80.2414 26.5711 80.2617 26.408 80.2682L25.0534 80.3858L20.3692 80.7423L20.4262 80.589L22.4796 82.5176L24.5579 84.4782L24.7076 84.6208H24.5044L19.8416 84.8739L18.4941 84.9345C18.3328 84.9485 18.1706 84.9485 18.0093 84.9345C18.1676 84.9004 18.3287 84.8802 18.4905 84.8739L19.8345 84.767L24.4902 84.4426L24.4367 84.5959L22.3513 82.6423L20.305 80.7173L20.1553 80.5783H20.3585L25.0463 80.2931L26.4045 80.2289C26.5663 80.2071 26.7298 80.1999 26.8929 80.2076Z" fill="#E0E0E0"/>
<path d="M54.2745 47.7103C54.1148 47.7446 53.9527 47.766 53.7896 47.7745L52.435 47.8886L47.7544 48.2451L47.8078 48.0953L49.8612 50.0204L51.9395 51.981L52.0892 52.1236H51.886L47.2232 52.3803L45.8757 52.4373C45.7144 52.4513 45.5522 52.4513 45.3909 52.4373C45.5492 52.4032 45.7102 52.3829 45.8721 52.3767L47.2161 52.2698L51.8753 51.9489L51.8183 52.0987L49.74 50.1487L47.6938 48.2166L47.544 48.074H47.7472L52.435 47.7888L53.7932 47.7246C53.953 47.7078 54.1139 47.703 54.2745 47.7103Z" fill="#E0E0E0"/>
<path d="M40.9561 80.2073C40.9561 80.2073 46.9522 78.4784 48.9378 77.9722C49.7113 77.7761 53.0231 79.5229 55.3117 80.9773C55.3117 80.9773 58.463 82.8453 58.2099 83.4193C57.9283 84.0538 56.784 83.9255 54.9124 83.0628C54.9124 83.0628 55.5612 84.9414 54.2886 84.8987C54.2886 84.8987 54.9196 86.9306 53.7289 87.1409C52.5383 87.3513 52.2602 84.7596 51.2121 84.6206C50.1641 84.4816 48.0038 84.339 48.0038 84.339C48.0038 84.339 46.1964 87.3335 44.7954 87.5473C43.3944 87.7612 40.1611 87.3798 40.1611 87.3798L40.9561 80.2073Z" fill="#FFBE9D"/>
<path d="M51.1907 80.6211C51.7777 80.8825 52.3387 81.1988 52.8661 81.5658C53.4258 81.8824 53.9535 82.2525 54.4418 82.6709C53.2936 82.0957 52.2046 81.4092 51.1907 80.6211Z" fill="#EB996E"/>
<path d="M50.8376 81.7866C51.5225 82.0022 52.188 82.2753 52.8268 82.603C53.4872 82.8713 54.124 83.1945 54.7305 83.569C54.0453 83.3558 53.3797 83.0839 52.7413 82.7563C52.0796 82.4893 51.4426 82.1648 50.8376 81.7866Z" fill="#EB996E"/>
<path d="M51.4795 84.5709C52.3851 84.5675 53.287 84.6875 54.1602 84.9274C53.2547 84.9299 52.3529 84.81 51.4795 84.5709Z" fill="#EB996E"/>
<path d="M33.1525 18.3325C33.2231 18.5635 33.2241 18.8101 33.1554 19.0417C33.0867 19.2733 32.9513 19.4795 32.7661 19.6346C32.581 19.7897 32.3542 19.8869 32.1142 19.914C31.8742 19.9411 31.6315 19.8969 31.4164 19.7869C30.6036 19.377 30.5002 18.254 30.6606 17.3593C30.8211 16.4645 31.1241 15.5055 30.7498 14.6749C30.461 14.0404 29.8372 13.6376 29.3524 13.1385C28.9245 12.7047 28.603 12.1776 28.4132 11.5987C28.2233 11.0198 28.1702 10.4047 28.2579 9.80179C28.3607 9.20067 28.6274 8.63958 29.0287 8.1804C29.4301 7.72121 29.9504 7.38176 30.5323 7.19945C31.7265 6.86792 33.1988 7.2351 34.0972 6.36884C34.7424 5.74143 34.7816 4.71832 35.2807 3.96971C36.0543 2.80757 37.6905 2.6222 39.0737 2.81113C40.4568 3.00007 41.8614 3.44567 43.216 3.10701C44.3461 2.82539 45.2729 2.03756 46.3353 1.55274C47.4931 1.02349 48.7873 0.869324 50.0371 1.11179C51.2868 1.35425 52.4295 1.98123 53.3054 2.90504C54.1813 3.82885 54.7466 5.0033 54.9222 6.26416C55.0978 7.52503 54.875 8.80925 54.2849 9.93725C53.8914 10.7627 53.2218 11.4247 52.3919 11.8088" fill="#263238"/>
<path d="M40.0328 47.7814C40.9418 47.7796 41.8415 47.5974 42.6796 47.2453C43.5178 46.8932 44.2777 46.3783 44.9153 45.7304C45.553 45.0825 46.0557 44.3144 46.3943 43.4708C46.7329 42.6271 46.9007 41.7247 46.888 40.8157L46.7988 34.2635C46.7988 34.2635 52.303 33.7109 52.6666 28.2567C53.0302 22.8025 52.77 10.2151 52.77 10.2151C49.7414 8.71261 46.3669 8.04509 42.9944 8.28133C39.622 8.51757 36.3735 9.64901 33.584 11.559L32.7427 12.1401L33.1526 40.9939C33.1742 42.8034 33.909 44.5313 35.1972 45.8022C36.4855 47.0731 38.2232 47.7843 40.0328 47.7814Z" fill="#FFBE9D"/>
<path d="M51.3298 20.1149C51.1307 20.092 50.947 19.9967 50.8137 19.8472C50.6804 19.6976 50.6067 19.5043 50.6067 19.3039C50.6067 19.1036 50.6804 18.9102 50.8137 18.7606C50.947 18.6111 51.1307 18.5158 51.3298 18.4929C51.3731 18.4822 51.4183 18.4822 51.4617 18.4929C51.6607 18.5158 51.8444 18.6111 51.9777 18.7606C52.111 18.9102 52.1847 19.1036 52.1847 19.3039C52.1847 19.5043 52.111 19.6976 51.9777 19.8472C51.8444 19.9967 51.6607 20.092 51.4617 20.1149C51.418 20.122 51.3734 20.122 51.3298 20.1149Z" fill="#263238"/>
<path d="M52.3991 18.3537C52.31 18.4464 51.7967 17.9972 51.0445 17.958C50.2923 17.9188 49.7255 18.2717 49.6506 18.1719C49.5758 18.0721 49.7041 17.9615 49.9536 17.794C50.2871 17.58 50.6804 17.4788 51.0757 17.5051C51.471 17.5314 51.8474 17.6839 52.1496 17.9401C52.3742 18.1398 52.4455 18.3323 52.3991 18.3537Z" fill="#263238"/>
<path d="M43.7045 18.5393C43.8338 18.6289 43.9337 18.7548 43.9914 18.9011C44.0492 19.0474 44.0622 19.2076 44.0289 19.3613C43.9956 19.515 43.9174 19.6554 43.8043 19.7647C43.6911 19.874 43.5481 19.9472 43.3933 19.9752C43.2385 20.0032 43.0789 19.9846 42.9347 19.9218C42.7904 19.859 42.6681 19.7548 42.5831 19.6225C42.4981 19.4901 42.4543 19.3355 42.4572 19.1782C42.4601 19.021 42.5096 18.8681 42.5994 18.7389C42.7196 18.5661 42.9035 18.448 43.1107 18.4106C43.3179 18.3732 43.5314 18.4195 43.7045 18.5393Z" fill="#263238"/>
<path d="M44.2 18.5714C44.1073 18.6641 43.594 18.215 42.8453 18.1757C42.0967 18.1365 41.5264 18.4895 41.4479 18.3896C41.4087 18.3433 41.505 18.1793 41.7509 18.0118C42.0844 17.7978 42.4777 17.6965 42.873 17.7228C43.2683 17.7491 43.6447 17.9017 43.9469 18.1579C44.1715 18.3576 44.2428 18.5322 44.2 18.5714Z" fill="#263238"/>
<path d="M46.888 24.9383C46.888 24.8812 47.355 24.8099 48.1179 24.7458C48.3139 24.7458 48.4744 24.6994 48.4922 24.596C48.5065 24.3995 48.4684 24.2026 48.3817 24.0257C48.2141 23.5159 48.0466 23.0025 47.8683 22.4643C47.1554 20.2434 46.6884 18.4146 46.7989 18.3789C46.9094 18.3433 47.5724 20.115 48.2747 22.3359C48.4387 22.8778 48.5991 23.4054 48.7524 23.9045C48.8656 24.164 48.8882 24.454 48.8166 24.7279C48.7848 24.8019 48.7359 24.8673 48.6739 24.9187C48.6119 24.9701 48.5387 25.0062 48.4601 25.0238C48.349 25.0486 48.2349 25.057 48.1214 25.0488C47.3514 25.0345 46.888 24.9989 46.888 24.9383Z" fill="#263238"/>
<path d="M46.8202 34.1852C44.2967 34.0952 41.857 33.2564 39.8118 31.7754C39.8118 31.7754 41.2805 35.793 46.7525 35.6005L46.8202 34.1852Z" fill="#EB996E"/>
<path d="M52.8163 11.5949C52.8163 11.5949 49.5188 13.2703 45.1519 11.1956C42.3 9.83382 38.9597 9.20285 38.2396 9.79105C37.5195 10.3792 37.4233 13.3024 34.6285 14.2115C34.6285 14.2115 34.9315 19.794 32.6999 19.6371C30.4683 19.4803 31.6946 10.807 31.6946 10.807L37.0882 8.04071L43.0094 6.80371L48.624 7.4846L52.9803 8.58613L52.8163 11.5949Z" fill="#263238"/>
<path d="M33.1062 17.8443C33.0171 17.7979 29.4166 16.5288 29.3346 20.2683C29.2526 24.0079 33.0206 23.3199 33.0277 23.2129C33.0349 23.106 33.1062 17.8443 33.1062 17.8443Z" fill="#FFBE9D"/>
<path d="M31.9155 21.7689C31.9155 21.7689 31.8477 21.8153 31.7372 21.8616C31.5806 21.9252 31.4054 21.9252 31.2488 21.8616C30.8567 21.7083 30.5359 21.0738 30.5359 20.4C30.5354 20.0789 30.6047 19.7614 30.7391 19.4696C30.7775 19.3538 30.8432 19.249 30.9307 19.164C31.0182 19.079 31.1249 19.0163 31.2417 18.9812C31.3172 18.9675 31.395 18.9785 31.4637 19.0125C31.5324 19.0466 31.5883 19.1019 31.6231 19.1702C31.6695 19.2736 31.6445 19.3484 31.6624 19.3555C31.6802 19.3627 31.7444 19.2949 31.7194 19.1417C31.6998 19.0484 31.6496 18.9643 31.5768 18.9028C31.4759 18.8235 31.3481 18.7864 31.2203 18.7994C31.066 18.8261 30.921 18.8918 30.7993 18.9904C30.6776 19.089 30.5832 19.2172 30.5252 19.3627C30.3605 19.6836 30.275 20.0393 30.2756 20.4C30.2756 21.1522 30.6535 21.8688 31.1882 22.0363C31.2882 22.0668 31.3937 22.075 31.4972 22.0602C31.6007 22.0454 31.6997 22.0081 31.7871 21.9508C31.9155 21.8616 31.9155 21.7761 31.9155 21.7689Z" fill="#EB996E"/>
<path d="M31.2026 6.14079C31.6292 6.01566 32.0848 6.03208 32.5013 6.18761C32.9177 6.34313 33.2725 6.62938 33.5127 7.00348C33.1803 6.75175 32.8217 6.53661 32.4432 6.36181C32.0385 6.24522 31.6227 6.17115 31.2026 6.14079Z" fill="#263238"/>
<path d="M33.452 3.90186C33.5197 3.90186 33.4163 4.68969 33.5447 5.62367C33.6556 6.1852 33.8314 6.73191 34.0687 7.2528C34.0687 7.2528 33.9118 7.12091 33.755 6.84285C33.5537 6.47279 33.4208 6.06944 33.3628 5.65219C33.259 5.06956 33.2895 4.47092 33.452 3.90186Z" fill="#263238"/>
<path d="M48.8129 16.5502C48.7915 16.5075 48.952 16.3756 49.255 16.2543C50.0594 15.9433 50.9524 15.9522 51.7504 16.2793C52.0498 16.4076 52.2102 16.5395 52.1888 16.5823C52.1425 16.6821 51.4224 16.4005 50.4991 16.4005C49.5758 16.4005 48.8557 16.6607 48.8129 16.5502Z" fill="#263238"/>
<path d="M40.4714 15.7727C40.45 15.73 40.6104 15.6016 40.9134 15.4769C41.3123 15.3227 41.7371 15.2464 42.1647 15.2523C42.5941 15.2522 43.0194 15.337 43.4159 15.5018C43.7154 15.6301 43.8722 15.762 43.8544 15.8084C43.8366 15.8547 43.088 15.6266 42.1611 15.623C41.2343 15.6194 40.5213 15.8726 40.4714 15.7727Z" fill="#263238"/>
<path d="M48.1677 17.1489C48.1756 17.2224 48.1756 17.2965 48.1677 17.37C48.1677 17.5268 48.1677 17.7264 48.1855 17.9724C48.2033 18.2184 48.1855 18.5499 48.2069 18.9064C48.1934 19.3178 48.2538 19.7283 48.3851 20.1184C48.557 20.6245 48.8546 21.0787 49.2498 21.4384C49.6451 21.7982 50.1252 22.0517 50.6452 22.1754C50.9436 22.2483 51.2514 22.2747 51.5578 22.2538C51.8766 22.2395 52.1908 22.1732 52.4882 22.0577C53.1224 21.8201 53.6627 21.3837 54.0283 20.8136C54.3743 20.2692 54.5482 19.6331 54.5273 18.9884C54.5273 18.3503 54.5273 17.7371 54.5273 17.1489L54.6129 17.2345L49.9786 17.1917L48.6346 17.1668H48.2782H48.1463C48.2989 17.1498 48.4525 17.1427 48.6061 17.1454L49.9287 17.1204L54.6129 17.0776H54.7305V17.1668C54.7305 17.755 54.7305 18.3681 54.7305 19.0062C54.7544 19.6861 54.5717 20.3573 54.2065 20.9312C53.8189 21.5348 53.246 21.9964 52.5738 22.2467C52.258 22.368 51.9244 22.4366 51.5863 22.4499C51.264 22.469 50.9407 22.439 50.6274 22.3607C50.0821 22.2289 49.5798 21.959 49.169 21.5769C48.7582 21.1948 48.4526 20.7134 48.2817 20.179C48.1537 19.7713 48.1006 19.3438 48.1249 18.9171C48.1249 18.5606 48.1249 18.2291 48.1427 17.9582C48.1605 17.6872 48.1427 17.5197 48.1605 17.3628C48.1572 17.2915 48.1596 17.2199 48.1677 17.1489Z" fill="#263238"/>
<path d="M39.4301 16.9636C39.4301 16.9636 39.4301 17.0456 39.4301 17.1846V17.7871C39.4301 18.0509 39.4301 18.3646 39.4479 18.7246C39.4386 19.1358 39.4988 19.5456 39.6262 19.9367C39.7904 20.4061 40.0599 20.8316 40.414 21.1808C40.8229 21.5782 41.3316 21.8578 41.8863 21.99C42.4996 22.1378 43.1433 22.0968 43.7329 21.8724C44.3652 21.635 44.9041 21.1999 45.2693 20.6318C45.6166 20.0878 45.7918 19.4517 45.772 18.8066C45.772 18.1685 45.772 17.5518 45.772 16.9636L45.8575 17.0491L41.2232 17.0064L39.8829 16.985H39.5264H39.3945C39.5459 16.9681 39.6984 16.961 39.8508 16.9636L41.1733 16.9422L45.8575 16.8994H45.9431V16.985C45.9431 17.5732 45.9431 18.1899 45.9431 18.828C45.9646 19.5081 45.7807 20.1789 45.4155 20.753C45.028 21.3545 44.4566 21.8146 43.7864 22.0649C43.4704 22.1859 43.1369 22.2545 42.7989 22.2681C42.4754 22.2871 42.1509 22.2571 41.8364 22.1789C41.2539 22.0355 40.7215 21.736 40.2964 21.3127C39.9287 20.9432 39.6527 20.4927 39.4907 19.9973C39.3627 19.5895 39.3095 19.162 39.3339 18.7353C39.3339 18.3788 39.3339 18.0473 39.3553 17.7764C39.3766 17.5054 39.3553 17.3379 39.3553 17.181C39.3683 17.105 39.3936 17.0315 39.4301 16.9636Z" fill="#263238"/>
<path d="M48.2464 17.4092C47.4311 17.5329 46.6019 17.5329 45.7866 17.4092C46.6015 17.2809 47.4315 17.2809 48.2464 17.4092Z" fill="#263238"/>
<path d="M32.6284 17.4553C33.7618 17.3608 34.8994 17.3263 36.0364 17.352C37.1742 17.3197 38.313 17.3471 39.448 17.434C38.3148 17.5329 37.177 17.5674 36.04 17.5373C34.9022 17.5737 33.7632 17.5463 32.6284 17.4553Z" fill="#263238"/>
<path d="M69.3 84.7275C70.1011 86.2142 71.3144 87.4381 72.7941 88.252C74.2739 89.0658 75.9572 89.4351 77.6418 89.3154C79.632 89.1761 81.5152 88.3624 82.9806 87.0085C84.446 85.6546 85.4059 83.8415 85.7019 81.8685L87.7695 58.2015L79.4884 56.1553L76.1053 74.6925C76.1053 74.6925 74.3372 82.4602 69.3 84.7275Z" fill="#FFBE9D"/>
<path d="M79.4136 57.87L79.6881 53.7169C79.6881 53.7169 80.8609 44.3984 80.8609 43.4858C80.8609 42.4377 81.3635 42.1811 81.7521 42.2096C82.3546 42.2488 82.7823 42.9939 82.8216 43.8958C82.8216 44.2059 82.793 49.1325 82.793 49.1325C83.0779 48.667 83.396 48.2226 83.7449 47.8028C84.4578 46.8795 86.1832 46.3519 87.9407 46.409C89.6981 46.466 90.1794 46.6371 90.1901 47.318C90.1839 47.4481 90.1486 47.5752 90.087 47.6899C90.0253 47.8047 89.9387 47.9041 89.8336 47.9811C89.5093 48.2514 89.0971 48.3935 88.675 48.3803C85.8624 48.3304 85.1102 49.8312 85.1102 49.8312L85.0745 50.3767C85.0745 50.3767 86.7821 49.1539 88.1439 49.6637C88.345 49.7381 88.5293 49.852 88.6857 49.9988C89.0692 50.0003 89.4455 50.1021 89.7775 50.2939C90.1095 50.4858 90.3856 50.7611 90.5783 51.0926C90.7711 51.424 90.8738 51.8001 90.8764 52.1836C90.8789 52.567 90.7812 52.9444 90.5929 53.2784C90.5196 53.4498 90.3956 53.5946 90.2376 53.6934C90.0795 53.7922 89.895 53.8402 89.7088 53.831C89.5203 53.7744 89.3496 53.67 89.2133 53.528C89.1335 53.4602 89.0489 53.3983 88.9602 53.3426L88.6465 54.8505C88.6465 54.8505 87.7589 58.2015 87.5379 59.7058" fill="#FFBE9D"/>
<path d="M80.2228 57.5456C80.7361 57.6882 81.2673 57.3103 81.5453 56.854C81.8234 56.3977 81.941 55.8594 82.1834 55.3817C82.9178 53.9558 84.6788 53.2785 85.3526 51.8169C85.4453 51.6137 85.4952 51.3357 85.3169 51.2002C85.1387 51.0647 84.9177 51.1752 84.7359 51.275L80.1016 53.8417" fill="#FFBE9D"/>
<path d="M80.0979 53.8348C80.2422 53.7068 80.4014 53.5967 80.572 53.5068C80.8857 53.3107 81.3456 53.0398 81.916 52.7083L83.9301 51.5568L84.5112 51.2289C84.7277 51.0576 85.0034 50.9794 85.2776 51.0114C85.3623 51.0388 85.4367 51.0914 85.4908 51.162C85.5449 51.2327 85.5763 51.3182 85.5806 51.4071C85.5899 51.5536 85.5642 51.7002 85.5058 51.8349C85.3986 52.0727 85.2646 52.2976 85.1065 52.5051C84.4648 53.3393 83.6342 53.8633 83.0353 54.4729C82.7441 54.7488 82.4965 55.0673 82.301 55.4176C82.1263 55.7455 82.0158 56.0878 81.8803 56.3979C81.7971 56.6568 81.6582 56.8943 81.4735 57.0938C81.2887 57.2933 81.0626 57.45 80.8109 57.5529C80.4294 57.667 80.2155 57.5529 80.2298 57.5315C80.4145 57.5372 80.5985 57.5069 80.7717 57.4424C80.9946 57.3286 81.1915 57.1697 81.3498 56.9757C81.5081 56.7818 81.6245 56.5571 81.6914 56.3159C81.8055 55.9706 81.9376 55.6315 82.0871 55.2999C82.2837 54.9204 82.5401 54.575 82.8464 54.2768C83.4595 53.6351 84.2723 53.0969 84.8712 52.3233C85.0123 52.1365 85.1319 51.9344 85.2277 51.7208C85.3168 51.5176 85.3026 51.3144 85.1885 51.293C85.0744 51.2716 84.8498 51.3679 84.6538 51.4784L84.062 51.7993L82.0193 52.9115C81.4347 53.2216 80.9499 53.464 80.6291 53.6244C80.4628 53.7193 80.284 53.7901 80.0979 53.8348Z" fill="#EB996E"/>
<path d="M85.0106 50.4161C85.0421 50.0788 85.1533 49.7538 85.335 49.4679C85.5461 49.1746 85.8461 48.9571 86.1905 48.8476C86.622 48.7058 87.0732 48.6336 87.5273 48.6337C87.9936 48.6384 88.4592 48.5978 88.9176 48.5125C89.3017 48.4342 89.6583 48.2558 89.9514 47.9956C90.0489 47.9057 90.1245 47.7947 90.1727 47.6712C90.2209 47.5477 90.2403 47.4148 90.2295 47.2826C90.2243 47.1855 90.1923 47.0917 90.1368 47.0117C90.119 47.0117 90.1368 47.1151 90.1546 47.2862C90.153 47.4057 90.1253 47.5234 90.0736 47.6311C90.0219 47.7388 89.9474 47.834 89.8552 47.9101C89.5702 48.1343 89.235 48.286 88.8784 48.3521C88.4296 48.4259 87.975 48.4593 87.5202 48.4519C87.0491 48.4468 86.5804 48.5203 86.1335 48.6694C85.7597 48.7995 85.4399 49.0503 85.2245 49.3823C85.0849 49.6058 85.0039 49.8608 84.9892 50.1238C84.9689 50.2213 84.9764 50.3226 85.0106 50.4161Z" fill="#EB996E"/>
<path d="M82.7966 43.5464C82.7664 43.8725 82.7664 44.2006 82.7966 44.5267C82.7966 45.1969 82.7966 45.999 82.8216 46.8831C82.8465 47.7672 82.8216 48.5693 82.8216 49.2394C82.8002 49.5662 82.8073 49.8942 82.843 50.2198C82.9209 49.9 82.9604 49.5721 82.9606 49.243C83.0034 48.6405 83.0319 47.8171 83.0283 46.8831C83.0248 45.9491 82.9891 45.122 82.9464 44.5196C82.9315 44.1907 82.8813 43.8645 82.7966 43.5464Z" fill="#EB996E"/>
<path d="M86.1225 51.5103C86.2221 51.4864 86.318 51.4492 86.4077 51.3998C86.5238 51.3404 86.6514 51.3065 86.7817 51.3003C86.912 51.2942 87.0422 51.3159 87.1634 51.3642C87.2379 51.4046 87.3007 51.4636 87.3456 51.5354C87.3906 51.6072 87.4163 51.6895 87.4201 51.7741C87.4315 51.9867 87.4159 52.1999 87.3738 52.4086C87.3148 52.671 87.3568 52.9459 87.4914 53.1787C87.5766 53.2983 87.6888 53.3961 87.8188 53.4642C87.9489 53.5324 88.0932 53.5689 88.24 53.5708C88.3843 53.5698 88.5269 53.5396 88.6593 53.482C88.7916 53.4244 88.9109 53.3406 89.01 53.2357C89.1959 53.0492 89.3203 52.8104 89.3665 52.5512C89.4224 52.132 89.4164 51.7068 89.3487 51.2893C89.3118 51.0069 89.2261 50.7331 89.0956 50.4801C88.9958 50.3018 88.9031 50.2341 88.8959 50.2412C88.8888 50.2484 88.953 50.3375 89.0278 50.5121C89.1257 50.7685 89.1869 51.0373 89.2097 51.3107C89.2565 51.7126 89.2505 52.1188 89.1918 52.5192C89.1465 52.7459 89.0289 52.9518 88.8566 53.106C88.6844 53.2603 88.4668 53.3545 88.2364 53.3747C88.1205 53.374 88.0063 53.3463 87.9029 53.2937C87.7996 53.2411 87.7099 53.1651 87.6411 53.0717C87.5334 52.8762 87.4992 52.6486 87.5449 52.43C87.5846 52.2054 87.5942 51.9764 87.5734 51.7491C87.5631 51.6406 87.5248 51.5366 87.4623 51.4473C87.3999 51.3579 87.3153 51.2863 87.2169 51.2394C87.0782 51.1866 86.929 51.1675 86.7815 51.1836C86.634 51.1997 86.4925 51.2506 86.3685 51.3321C86.2009 51.4319 86.1011 51.4854 86.1225 51.5103Z" fill="#EB996E"/>
<path d="M88.9282 53.086C88.9033 53.1791 88.9134 53.278 88.9568 53.3641C89.0069 53.4864 89.0844 53.5956 89.1832 53.6833C89.2821 53.7711 89.3997 53.835 89.5271 53.8703C89.7191 53.9115 89.9186 53.9024 90.106 53.8436C90.2934 53.7849 90.4624 53.6786 90.5966 53.5352C90.918 53.1821 91.0904 52.7184 91.0778 52.2412C91.0778 51.7696 90.9308 51.3098 90.6572 50.9257C90.4339 50.6125 90.1295 50.366 89.7767 50.2128C89.5452 50.1084 89.296 50.0491 89.0423 50.0381C88.8641 50.0381 88.7678 50.0381 88.7678 50.0666C89.0968 50.109 89.4176 50.2004 89.7196 50.3375C90.0362 50.4948 90.3083 50.7289 90.511 51.0184C90.748 51.3779 90.8721 51.8 90.8675 52.2305C90.8794 52.658 90.732 53.0747 90.454 53.3997C90.341 53.5277 90.1972 53.6246 90.0363 53.6814C89.8753 53.7382 89.7025 53.7529 89.5343 53.7241C89.422 53.699 89.3165 53.65 89.2249 53.5805C89.1332 53.511 89.0576 53.4226 89.0031 53.3213C88.9532 53.1858 88.9532 53.086 88.9282 53.086Z" fill="#EB996E"/>
<path d="M85.5414 56.3801C85.3883 56.3317 85.2239 56.3317 85.0708 56.3801C84.6695 56.4678 84.3085 56.6859 84.0441 57.0003L84.2081 57.0502C84.1865 56.8295 84.1507 56.6105 84.1012 56.3943C83.9593 55.6279 83.6076 54.9159 83.0852 54.3374C83.4343 55.0061 83.7116 55.7099 83.9122 56.4371C83.9621 56.6581 83.9978 56.872 84.0228 57.0716L84.0513 57.2927L84.1903 57.118C84.4267 56.8266 84.7424 56.6099 85.0993 56.4941C85.3667 56.4121 85.5414 56.405 85.5414 56.3801Z" fill="#EB996E"/>
<path d="M85.6306 47.999C85.5843 48.0204 85.7732 48.3555 86.2081 48.5587C86.643 48.7619 87.028 48.6443 87.0102 48.5944C86.9924 48.5445 86.6537 48.548 86.2972 48.3805C85.9408 48.2129 85.677 47.9634 85.6306 47.999Z" fill="#EB996E"/>
<path d="M77.9877 60.5581L88.3934 61.3032C88.3934 61.3032 86.7928 79.7156 86.4827 82.571C86.1725 85.4264 84.3438 89.7328 77.9877 89.7328C71.6315 89.7328 70.448 87.5689 67.6211 83.1129C70.9542 80.8028 76.248 73.9049 76.248 73.9049L77.9877 60.5581Z" fill="#32959D"/>
<path d="M82.8928 63.0356C82.8393 63.1909 82.775 63.3422 82.7003 63.4884L82.1192 64.7147L80.0659 68.9533L79.9625 68.8285L82.6611 68.0264L85.4025 67.2208L85.6021 67.1637L85.5058 67.3455L83.3669 71.4986L82.736 72.6928C82.6662 72.8387 82.5839 72.9782 82.49 73.1099C82.5445 72.9574 82.6088 72.8085 82.6825 72.6643C82.8322 72.3577 83.039 71.9513 83.2671 71.4487L85.3383 67.2671L85.4417 67.3919L82.7039 68.2047L80.0017 68.9961L79.8057 69.0531L79.8984 68.8713L82.0266 64.6755C82.2868 64.18 82.4971 63.7736 82.654 63.4706C82.7212 63.3191 82.8011 63.1736 82.8928 63.0356Z" fill="#E0E0E0"/>
<path d="M81.909 80.7457C81.7493 80.78 81.5872 80.8014 81.4242 80.8099L80.0695 80.9275L75.3853 81.284L75.4424 81.1307L77.4957 83.0558L79.574 85.0164L79.7237 85.159H79.517L74.8577 85.4157L73.5102 85.4727C73.3489 85.4867 73.1867 85.4867 73.0254 85.4727C73.1841 85.4413 73.345 85.4222 73.5066 85.4157L74.8506 85.3052L79.5063 84.9843L79.4528 85.1376L77.3674 83.1805L75.3212 81.2484L75.1714 81.1094H75.3746L80.0624 80.8277L81.4206 80.76C81.5828 80.7428 81.7461 80.7381 81.909 80.7457Z" fill="#E0E0E0"/>
<path d="M43.9302 26.9631C44.1149 26.8587 44.6198 28.3899 46.0564 28.9516C47.4931 29.5134 48.782 28.7031 48.8641 28.9119C48.9134 29.0014 48.6589 29.3543 48.0965 29.6476C47.3618 30.0155 46.5435 30.0578 45.7855 29.7669C45.0568 29.4872 44.4461 28.8759 44.082 28.0618C43.8234 27.4453 43.8398 27.0128 43.9302 26.9631Z" fill="#263238"/>
<path d="M70.8863 59.0537L59.0546 88.3139H37.719V89.6365H101.269L114.27 59.0537H70.8863Z" fill="#263238"/>
<path d="M88.9744 76.3287C88.5466 77.801 87.2989 78.7314 86.1866 78.4106C85.0744 78.0898 84.5219 76.6282 84.9496 75.1559C85.3774 73.6836 86.6287 72.7532 87.7409 73.074C88.8531 73.3949 89.4057 74.8564 88.9744 76.3287Z" fill="#FAFAFA"/>
<path d="M86.1188 35.237C94.6103 35.237 101.494 28.4044 101.494 19.9759C101.494 11.5475 94.6103 4.71484 86.1188 4.71484C77.6274 4.71484 70.7437 11.5475 70.7437 19.9759C70.7437 28.4044 77.6274 35.237 86.1188 35.237Z" fill="white"/>
<path d="M85.3452 24.7276C85.2005 24.6556 85.0791 24.544 84.9952 24.4058C84.9113 24.2677 84.8683 24.1086 84.8711 23.9469L84.9459 19.6691C84.9486 19.5367 84.9818 19.4068 85.0431 19.2894C85.1043 19.172 85.1918 19.0703 85.2988 18.9923C85.4057 18.9144 85.5293 18.8621 85.6598 18.8398C85.7903 18.8174 85.9242 18.8255 86.051 18.8635C86.4006 18.9617 86.7666 18.9873 87.1264 18.9389C87.4863 18.8905 87.8324 18.769 88.1436 18.5818C88.4304 18.424 88.6818 18.2091 88.8822 17.9504C89.0827 17.6916 89.2281 17.3946 89.3093 17.0775C89.3709 16.7544 89.3669 16.4223 89.2977 16.1008C89.2285 15.7794 89.0955 15.475 88.9065 15.2059C88.7102 14.901 88.4554 14.6381 88.1568 14.4325C87.8582 14.2269 87.5217 14.0827 87.1668 14.0081C85.7944 13.7657 84.2401 14.7211 83.7731 16.1221C83.6917 16.3263 83.535 16.4915 83.3354 16.5837C83.1358 16.676 82.9085 16.6881 82.7002 16.6178C82.4919 16.5474 82.3185 16.3999 82.2157 16.2056C82.1129 16.0112 82.0885 15.7849 82.1475 15.5731C82.8855 13.3914 85.2703 11.9334 87.4663 12.322C88.0475 12.436 88.5996 12.6663 89.0897 12.9989C89.5797 13.3315 89.9976 13.7597 90.3181 14.2577C90.6378 14.7207 90.8601 15.2438 90.9716 15.7953C91.0832 16.3468 91.0816 16.9152 90.9669 17.466C90.834 18.0126 90.59 18.5259 90.2503 18.9742C89.9105 19.4225 89.4822 19.7961 88.992 20.0719C88.2769 20.4935 87.4584 20.7071 86.6285 20.6887L86.5715 23.9755C86.5668 24.203 86.4724 24.4195 86.3088 24.5777C86.1452 24.736 85.9257 24.8232 85.6981 24.8203C85.5751 24.8154 85.4547 24.7838 85.3452 24.7276Z" fill="#32959D"/>
<path d="M86.4931 26.5421C86.4931 26.6831 86.4513 26.8209 86.3729 26.9382C86.2946 27.0554 86.1832 27.1468 86.0529 27.2008C85.9227 27.2547 85.7793 27.2688 85.641 27.2413C85.5027 27.2138 85.3757 27.1459 85.276 27.0462C85.1763 26.9465 85.1083 26.8195 85.0808 26.6812C85.0533 26.5429 85.0675 26.3995 85.1214 26.2692C85.1754 26.139 85.2668 26.0276 85.384 25.9493C85.5013 25.8709 85.6391 25.8291 85.7801 25.8291C85.9692 25.8291 86.1505 25.9042 86.2843 26.0379C86.418 26.1716 86.4931 26.353 86.4931 26.5421Z" fill="#32959D"/>
<path d="M70.7117 31.9963C70.7117 31.9963 70.8793 31.9963 71.1573 32.1032C71.545 32.2377 71.883 32.4862 72.127 32.8162C72.293 33.0452 72.4062 33.3082 72.4585 33.5862C72.5141 33.9037 72.477 34.2304 72.3515 34.5273C72.2219 34.8766 71.9884 35.1779 71.6825 35.3906C71.3767 35.6034 71.013 35.7174 70.6404 35.7174C70.2678 35.7174 69.9042 35.6034 69.5983 35.3906C69.2924 35.1779 69.059 34.8766 68.9293 34.5273C68.7999 34.2316 68.7602 33.9043 68.8152 33.5862C68.8648 33.308 68.9769 33.0447 69.1432 32.8162C69.3809 32.4775 69.7169 32.2199 70.1057 32.0783C70.2522 32.0336 70.4009 31.9967 70.5513 31.9678C70.5513 31.9678 70.5085 31.9678 70.4301 31.9678C70.3809 31.9695 70.332 31.9754 70.2839 31.9856C70.2176 31.9949 70.152 32.0092 70.0879 32.0284C69.7403 32.1385 69.4283 32.3392 69.1839 32.6099C68.9396 32.8805 68.7717 33.2114 68.6976 33.5684C68.6352 33.9094 68.6736 34.2613 68.8081 34.5808C68.9518 34.9351 69.1928 35.2416 69.5032 35.4649C69.8272 35.7235 70.2295 35.8643 70.644 35.8643C71.0585 35.8643 71.4607 35.7235 71.7847 35.4649C72.0905 35.2371 72.3284 34.9302 72.4728 34.5772C72.6061 34.2573 72.6421 33.9051 72.5761 33.5648C72.4999 33.2079 72.3299 32.8776 72.0837 32.6082C71.8374 32.3388 71.5238 32.1399 71.1751 32.0319C71.1111 32.0124 71.0455 31.9981 70.9791 31.9892C70.9305 31.9847 70.8815 31.9847 70.8329 31.9892C70.7545 31.9892 70.7117 31.9892 70.7117 31.9963Z" fill="#263238"/>
<path d="M66.1915 37.0868C66.1915 37.0868 66.2948 37.1046 66.4695 37.1652C66.7101 37.2562 66.9176 37.4177 67.0648 37.6287C67.1801 37.779 67.2534 37.9572 67.2772 38.1451C67.301 38.333 67.2745 38.5238 67.2003 38.6981C67.12 38.9131 66.9759 39.0984 66.7873 39.2293C66.5987 39.3601 66.3747 39.4302 66.1451 39.4302C65.9156 39.4302 65.6916 39.3601 65.503 39.2293C65.3144 39.0984 65.1703 38.9131 65.0899 38.6981C65.0148 38.5245 64.9871 38.3339 65.0096 38.1461C65.0322 37.9582 65.1042 37.7796 65.2183 37.6287C65.3636 37.4151 65.5716 37.252 65.8136 37.1617C65.9847 37.0975 66.0917 37.0939 66.0881 37.0833C65.9902 37.0647 65.8891 37.0733 65.7958 37.1082C65.5728 37.176 65.3722 37.3024 65.2148 37.4742C65.0574 37.646 64.949 37.857 64.901 38.085C64.8585 38.3032 64.882 38.5291 64.9687 38.7338C65.0563 38.9755 65.2162 39.1843 65.4267 39.3319C65.6372 39.4795 65.8881 39.5587 66.1451 39.5587C66.4022 39.5587 66.6531 39.4795 66.8635 39.3319C67.074 39.1843 67.2339 38.9755 67.3215 38.7338C67.4054 38.5283 67.4277 38.3029 67.3857 38.085C67.345 37.8972 67.2635 37.7207 67.1469 37.5681C66.9814 37.3486 66.7484 37.1896 66.4838 37.1153C66.3899 37.0831 66.2898 37.0733 66.1915 37.0868Z" fill="#263238"/>
<path d="M70.9005 22.1218C70.9005 22.1218 70.9005 22.0362 70.9005 21.8723C70.9005 21.7083 70.8685 21.4623 70.8435 21.1593C70.8435 20.9989 70.815 20.8206 70.7972 20.6246C70.7793 20.4285 70.7972 20.211 70.7972 19.9758C70.7972 19.7405 70.7972 19.4874 70.7972 19.22C70.7963 19.0805 70.8058 18.941 70.8257 18.8029C70.8435 18.6603 70.8578 18.5142 70.8756 18.3609C71.0263 16.8866 71.4014 15.444 71.9878 14.0831C72.7463 12.275 73.848 10.631 75.2318 9.24201L75.8165 8.66094C76.0232 8.47557 76.2478 8.30446 76.4653 8.12265L76.7968 7.85172C76.9091 7.75641 77.0283 7.66943 77.1533 7.59149L77.8876 7.10311C78.0124 7.02112 78.1336 6.93556 78.2619 6.85714L78.6576 6.64324L79.4669 6.21546C79.7414 6.07643 80.0372 5.97305 80.326 5.85898L80.7609 5.68074C80.8358 5.64865 80.9071 5.61657 80.9819 5.59162L81.2101 5.52388C81.8255 5.31692 82.4543 5.15255 83.0923 5.03193C83.4167 4.9749 83.7411 4.89647 84.0726 4.85369L85.0815 4.76457C85.2526 4.76457 85.438 4.72536 85.5948 4.72536H86.1082C86.4646 4.72536 86.7997 4.72536 87.1491 4.74675C87.8562 4.80195 88.5589 4.90437 89.2524 5.05332L89.7799 5.16384L90.0437 5.22444L90.304 5.30643L91.3449 5.64152C91.7014 5.76986 92.0258 5.92671 92.368 6.0693C92.5356 6.14773 92.7245 6.20833 92.8778 6.30102L93.3697 6.56838C94.0361 6.93243 94.678 7.33969 95.2912 7.78756C95.5883 8.02522 95.8842 8.27119 96.1788 8.52548L96.4034 8.71085C96.4747 8.77502 96.5389 8.84632 96.6102 8.91405L97.0201 9.32044L97.4337 9.73396L97.808 10.1903L98.1859 10.6466L98.3712 10.8783C98.4318 10.9567 98.4817 11.0423 98.5388 11.1242L99.2018 12.1188L99.7722 13.1883C101.251 16.1371 101.724 19.4885 101.12 22.7314C101.034 23.1271 100.952 23.5192 100.867 23.9113L100.51 25.0485L100.417 25.3337L100.303 25.6046L100.068 26.1501L99.8328 26.6919L99.5512 27.2053L99.2696 27.7186L99.1305 27.9717L98.9666 28.2141L98.3178 29.1695C97.8519 29.7689 97.3469 30.337 96.8063 30.8699L96.3927 31.2585C96.2608 31.3904 96.1075 31.4973 95.9685 31.615C95.6762 31.8467 95.3981 32.0927 95.1058 32.3279L94.1932 32.9375L93.9686 33.0908C93.8902 33.1372 93.8082 33.1764 93.7298 33.2191L93.2521 33.4758C92.6283 33.8098 91.9828 34.1016 91.32 34.3492C90.992 34.4668 90.6533 34.556 90.3254 34.6593L89.8299 34.8091C89.6659 34.8554 89.4948 34.8768 89.3308 34.9124L88.3362 35.1049C88.0047 35.1549 87.6731 35.1727 87.3452 35.2048C86.6982 35.2657 86.0479 35.2824 85.3988 35.2547H85.1599C85.0815 35.2547 85.0031 35.2547 84.9246 35.2297L84.4541 35.1798C84.1439 35.1406 83.8302 35.1192 83.5272 35.0657L82.6324 34.8732L82.1904 34.7805L81.7626 34.6486L80.9249 34.3813C80.7873 34.3392 80.6528 34.288 80.522 34.228L80.1263 34.0569C79.8661 33.9428 79.6059 33.8394 79.3528 33.7218L78.6398 33.3261C76.9269 32.3716 75.4139 31.0958 74.1838 29.5687C74.0483 29.4012 73.9093 29.2408 73.7809 29.0768C73.6526 28.9128 73.5528 28.7203 73.4244 28.567L73.1001 28.0501C73.0466 27.9681 72.9895 27.8897 72.9432 27.8077C72.8969 27.7257 72.8541 27.6437 72.8113 27.5617L72.3051 26.6242C72.1554 26.3212 72.0484 26.0182 71.9236 25.7401C71.8666 25.5975 71.8096 25.462 71.7525 25.3301C71.6956 25.203 71.648 25.072 71.6099 24.938C71.5315 24.6813 71.4602 24.4389 71.3889 24.225C71.3176 24.0112 71.2535 23.7973 71.2071 23.6048L71.1002 23.0772C71.036 22.7635 70.9897 22.5246 70.954 22.3642C70.9184 22.2038 70.9005 22.1218 70.9005 22.1218C70.9005 22.1218 70.9006 22.2038 70.9398 22.3678C70.979 22.5317 71.0146 22.7742 71.0717 23.0807C71.1037 23.2411 71.1358 23.4158 71.1715 23.6119C71.2071 23.808 71.2855 24.0112 71.3497 24.2357L71.5636 24.9487C71.6016 25.0839 71.6493 25.2161 71.7062 25.3444L71.8738 25.7579C71.995 26.036 72.1019 26.3426 72.2516 26.6456L72.7507 27.5867C72.7935 27.6722 72.8398 27.7542 72.8826 27.8362C72.9254 27.9182 72.986 27.9967 73.0394 28.0786L73.3674 28.5742C73.4815 28.7429 73.6003 28.914 73.7239 29.0875C73.8522 29.2515 73.9913 29.4155 74.1267 29.583C75.3522 31.1285 76.8639 32.4236 78.5792 33.3974L79.2922 33.7966C79.5453 33.9179 79.8091 34.0212 80.0729 34.1531L80.4686 34.3207C80.5995 34.384 80.7355 34.4364 80.875 34.4775L81.7198 34.7485L82.1476 34.8839L82.5932 34.9802L83.4951 35.1727C83.7981 35.2297 84.1118 35.2511 84.4255 35.2903L84.8997 35.3438C84.9781 35.3438 85.0601 35.3652 85.1385 35.3687H85.3774C86.0312 35.3977 86.6863 35.3822 87.338 35.3224C87.6696 35.2903 88.0047 35.2761 88.3398 35.2226L89.3415 35.0301C89.509 34.9944 89.698 34.973 89.8477 34.9267L90.3468 34.777C90.6783 34.6736 91.017 34.5845 91.3485 34.4668C92.0188 34.2177 92.6714 33.9235 93.302 33.5863L93.7797 33.3297C93.8617 33.2869 93.9437 33.2477 94.0221 33.1978L94.2503 33.048L95.17 32.4349C95.4659 32.2139 95.7475 31.9679 96.0398 31.7219C96.1824 31.6007 96.3393 31.4902 96.4712 31.3654L96.874 30.9662C97.4184 30.4276 97.9281 29.8548 98.3997 29.2515L99.0557 28.2854L99.2196 28.0466L99.3622 27.7863L99.6474 27.273L99.9326 26.7525L100.168 26.2071L100.403 25.6581L100.521 25.3836L100.614 25.0984C100.738 24.7134 100.859 24.332 100.97 23.947L101.227 22.7563C101.833 19.4853 101.355 16.1056 99.8649 13.1313L99.2909 12.0618C99.0664 11.7267 98.8453 11.3916 98.6208 11.0601L98.4532 10.8105L98.2643 10.5788L97.8828 10.119L97.505 9.6591L97.0879 9.23845L96.6993 8.79997L96.489 8.59321L96.2644 8.40428L95.3661 7.66279C94.7482 7.21045 94.1003 6.80074 93.4268 6.43648L92.9313 6.16556C92.7637 6.07287 92.5748 6.01227 92.4144 5.93384C92.0579 5.78768 91.7335 5.63083 91.3841 5.50249L90.3147 5.14601L90.0509 5.06402L89.7871 5.00698L89.2524 4.89291C88.5541 4.74394 87.8467 4.64153 87.1348 4.58633C86.7784 4.56494 86.4219 4.58633 86.0654 4.56494H85.5449C85.3738 4.56494 85.1884 4.5899 85.0316 4.60415L84.0156 4.69684C83.6805 4.73962 83.3525 4.81804 83.0281 4.87508C82.3856 4.99931 81.7521 5.16604 81.1316 5.37416L80.8999 5.44546C80.8251 5.47041 80.7502 5.50606 80.6789 5.53458L80.2654 5.73421C79.9766 5.85898 79.6808 5.96592 79.4027 6.09069L78.5899 6.5256L78.1906 6.73949L77.8128 6.98903L77.0784 7.48098C76.9536 7.56059 76.8345 7.64873 76.7219 7.74478L76.3904 8.01927C76.1694 8.20464 75.9448 8.37576 75.7345 8.56113L75.1641 9.15646C73.7769 10.5585 72.6741 12.2157 71.9165 14.0367C71.3368 15.4061 70.969 16.8558 70.8257 18.3359C70.8257 18.4857 70.7936 18.6354 70.7758 18.778C70.757 18.9162 70.7487 19.0556 70.7508 19.1951C70.7508 19.466 70.7508 19.7191 70.7508 19.9544C70.7508 20.1896 70.7508 20.4071 70.7508 20.6032C70.7508 20.7992 70.7865 20.981 70.8043 21.1415C70.8328 21.4587 70.8578 21.7011 70.8756 21.8544C70.8934 22.0077 70.9005 22.1218 70.9005 22.1218Z" fill="#263238"/>
</svg>
