<svg width="77" height="48" viewBox="0 0 77 48" fill="none" xmlns="http://www.w3.org/2000/svg">
<g id="Group 163049">
<g id="Group 163045">
<rect id="Rectangle 698" y="14.3403" width="29.4234" height="35.8198" rx="6.39639" transform="rotate(-20 0 14.3403)" fill="white"/>
<rect id="Rectangle 699" y="14.3403" width="29.4234" height="35.8198" rx="6.39639" transform="rotate(-20 0 14.3403)" fill="#455A64" fill-opacity="0.25"/>
<circle id="Ellipse 548" cx="19.7607" cy="26.5481" r="10.554" transform="rotate(-20 19.7607 26.5481)" fill="#455A64"/>
<g id="Group 163044">
<path id="Vector" d="M17.5113 18.8596C15.0908 19.7406 13.838 22.4272 14.719 24.8477C14.9708 25.5395 15.7382 25.8973 16.43 25.6455C17.1218 25.3937 17.4796 24.6264 17.2278 23.9345C16.8502 22.8971 17.387 21.7461 18.4244 21.3685C19.4624 20.9907 20.6129 21.5276 20.9905 22.5651C21.2987 23.412 21.0018 24.3654 20.2665 24.8849C19.3381 25.5414 18.9407 26.6901 19.3006 27.6788L19.8333 29.1424C20.0851 29.8342 20.8527 30.1927 21.5445 29.9408C22.2357 29.6893 22.5939 28.9211 22.3421 28.2293L21.8956 27.0025C23.5467 25.7767 24.207 23.5943 23.5004 21.6529C22.6189 19.2312 19.9318 17.9786 17.5113 18.8596Z" fill="white"/>
<path id="Vector_2" d="M22.7613 33.2852C23.4541 33.033 23.8113 32.267 23.5592 31.5742C23.307 30.8814 22.541 30.5242 21.8482 30.7763C21.1554 31.0285 20.7982 31.7945 21.0503 32.4873C21.3025 33.1801 22.0685 33.5373 22.7613 33.2852Z" fill="white"/>
</g>
</g>
<g id="Group 163046">
<rect id="Rectangle 698_2" x="22.3926" y="0.438965" width="29.4234" height="35.8198" rx="6.39639" fill="white"/>
<rect id="Rectangle 699_2" x="22.3926" y="0.438965" width="29.4234" height="35.8198" rx="6.39639" fill="#A4DEDF"/>
<circle id="Ellipse 548_2" cx="36.7835" cy="18.6688" r="10.554" fill="#01818C"/>
<g id="Group 163044_2">
<path id="Vector_3" d="M37.295 10.6733C34.7191 10.6733 32.623 12.7694 32.623 15.3453C32.623 16.0815 33.2217 16.6802 33.958 16.6802C34.6942 16.6802 35.2929 16.0815 35.2929 15.3453C35.2929 14.2412 36.191 13.3432 37.295 13.3432C38.3996 13.3432 39.297 14.2412 39.297 15.3453C39.297 16.2465 38.6919 17.0409 37.8233 17.2776C36.7263 17.577 35.96 18.5204 35.96 19.5726V21.1302C35.96 21.8664 36.5587 22.4657 37.295 22.4657C38.0306 22.4657 38.6299 21.8664 38.6299 21.1302V19.8247C40.6006 19.2375 41.9675 17.4126 41.9675 15.3465C41.9675 12.7694 39.8708 10.6733 37.295 10.6733Z" fill="white"/>
<path id="Vector_4" d="M37.2929 26.0248C38.0302 26.0248 38.6279 25.4272 38.6279 24.6899C38.6279 23.9526 38.0302 23.355 37.2929 23.355C36.5557 23.355 35.958 23.9526 35.958 24.6899C35.958 25.4272 36.5557 26.0248 37.2929 26.0248Z" fill="white"/>
</g>
</g>
<g id="Group 163047">
<rect id="Rectangle 698_3" x="49.3506" y="4.27686" width="29.4234" height="35.8198" rx="6.39639" transform="rotate(20 49.3506 4.27686)" fill="white"/>
<rect id="Rectangle 699_3" x="49.3506" y="4.27686" width="29.4234" height="35.8198" rx="6.39639" transform="rotate(20 49.3506 4.27686)" fill="#F7CF6A" fill-opacity="0.25"/>
<circle id="Ellipse 548_3" cx="56.6389" cy="26.3295" r="10.554" transform="rotate(20 56.6389 26.3295)" fill="#DF7550"/>
<g id="Group 163044_3">
<path id="Vector_5" d="M59.8638 18.9919C57.4433 18.111 54.7567 19.3637 53.8757 21.7842C53.6239 22.476 53.9818 23.2434 54.6736 23.4952C55.3654 23.747 56.1328 23.3892 56.3846 22.6974C56.7622 21.6599 57.9132 21.1232 58.9507 21.5008C59.9887 21.8786 60.5248 23.0294 60.1472 24.0669C59.839 24.9138 58.9987 25.4533 58.1015 25.3786C56.9683 25.2847 55.9255 25.9092 55.5656 26.898L55.0329 28.3616C54.7811 29.0534 55.1387 29.8214 55.8306 30.0732C56.5218 30.3247 57.29 29.9665 57.5418 29.2747L57.9883 28.0479C60.041 28.1702 61.9496 26.9229 62.6563 24.9814C63.5377 22.5597 62.2843 19.8729 59.8638 18.9919Z" fill="white"/>
<path id="Vector_6" d="M54.6167 33.4181C55.3095 33.6702 56.0755 33.313 56.3277 32.6202C56.5798 31.9274 56.2226 31.1614 55.5298 30.9092C54.837 30.6571 54.071 31.0143 53.8188 31.7071C53.5667 32.3999 53.9239 33.1659 54.6167 33.4181Z" fill="white"/>
</g>
</g>
</g>
</svg>
