<svg width="377" height="503" viewBox="0 0 377 503" fill="none" xmlns="http://www.w3.org/2000/svg">
<path d="M96.2603 495.568C101.14 491.016 103.308 483.429 102.007 476.167H82.5977V484.187H93.6579C93.2242 486.789 91.7061 488.956 89.5374 490.366L96.2603 495.568Z" fill="#4285F4"/>
<path d="M64.166 489.173C65.5925 491.982 67.6382 494.43 70.1489 496.334C72.6597 498.237 75.57 499.546 78.6605 500.162C81.751 500.778 84.941 500.684 87.99 499.888C91.0391 499.093 93.8676 497.615 96.2624 495.568L89.5395 490.365C83.7925 494.159 74.2504 492.75 70.9973 483.862L64.166 489.173Z" fill="#34A853"/>
<path d="M70.9958 483.862C70.1283 481.152 70.1283 478.659 70.9958 475.949L64.1644 470.638C61.6705 475.624 60.9114 482.669 64.1644 489.173L70.9958 483.862Z" fill="#FBBC02"/>
<path d="M70.9973 475.949C73.3829 468.47 83.5757 464.135 90.407 470.53L96.3708 464.677C87.913 456.548 71.4311 456.873 64.166 470.638L70.9973 475.949Z" fill="#EA4335"/>
<path d="M127.779 466.565H125.349L125.336 465.544H127.542C127.906 465.544 128.224 465.483 128.497 465.36C128.769 465.237 128.98 465.061 129.129 464.833C129.283 464.6 129.359 464.324 129.359 464.003C129.359 463.652 129.291 463.367 129.155 463.147C129.023 462.923 128.819 462.761 128.543 462.66C128.271 462.555 127.924 462.502 127.502 462.502H125.632V471.05H124.361V461.461H127.502C127.994 461.461 128.433 461.512 128.819 461.613C129.206 461.709 129.533 461.863 129.801 462.074C130.073 462.28 130.279 462.544 130.42 462.864C130.56 463.185 130.63 463.569 130.63 464.017C130.63 464.412 130.529 464.769 130.327 465.09C130.125 465.406 129.844 465.665 129.484 465.867C129.129 466.069 128.712 466.199 128.233 466.256L127.779 466.565ZM127.72 471.05H124.848L125.566 470.016H127.72C128.123 470.016 128.466 469.946 128.747 469.805C129.032 469.665 129.25 469.467 129.399 469.212C129.548 468.953 129.623 468.648 129.623 468.297C129.623 467.941 129.559 467.634 129.432 467.375C129.304 467.116 129.105 466.916 128.833 466.776C128.56 466.635 128.209 466.565 127.779 466.565H125.968L125.981 465.544H128.457L128.727 465.913C129.188 465.953 129.579 466.084 129.899 466.308C130.22 466.528 130.464 466.809 130.63 467.151C130.802 467.494 130.887 467.871 130.887 468.284C130.887 468.881 130.755 469.386 130.492 469.799C130.233 470.207 129.866 470.519 129.392 470.734C128.918 470.944 128.361 471.05 127.72 471.05ZM136.781 469.831V466.163C136.781 465.882 136.724 465.639 136.61 465.432C136.5 465.222 136.333 465.059 136.109 464.945C135.886 464.831 135.609 464.774 135.28 464.774C134.972 464.774 134.702 464.827 134.47 464.932C134.241 465.037 134.061 465.176 133.93 465.347C133.802 465.518 133.739 465.702 133.739 465.9H132.52C132.52 465.645 132.586 465.393 132.718 465.143C132.85 464.892 133.038 464.666 133.284 464.464C133.535 464.258 133.833 464.096 134.18 463.977C134.531 463.854 134.922 463.793 135.352 463.793C135.87 463.793 136.327 463.88 136.722 464.056C137.121 464.232 137.433 464.497 137.657 464.853C137.885 465.204 137.999 465.645 137.999 466.177V469.496C137.999 469.733 138.019 469.985 138.059 470.253C138.103 470.521 138.166 470.751 138.25 470.944V471.05H136.979C136.917 470.909 136.869 470.723 136.834 470.49C136.799 470.253 136.781 470.033 136.781 469.831ZM136.992 466.73L137.005 467.586H135.774C135.427 467.586 135.117 467.614 134.845 467.671C134.573 467.724 134.345 467.805 134.16 467.915C133.976 468.025 133.835 468.163 133.739 468.33C133.642 468.492 133.594 468.683 133.594 468.903C133.594 469.127 133.644 469.331 133.745 469.515C133.846 469.7 133.998 469.847 134.2 469.957C134.406 470.062 134.658 470.115 134.957 470.115C135.33 470.115 135.659 470.036 135.945 469.878C136.23 469.72 136.456 469.526 136.623 469.298C136.794 469.07 136.887 468.848 136.9 468.633L137.42 469.219C137.389 469.403 137.306 469.608 137.17 469.831C137.034 470.055 136.851 470.271 136.623 470.477C136.399 470.679 136.131 470.848 135.82 470.984C135.512 471.116 135.166 471.182 134.779 471.182C134.296 471.182 133.873 471.087 133.508 470.898C133.148 470.71 132.867 470.457 132.665 470.141C132.468 469.821 132.369 469.463 132.369 469.068C132.369 468.686 132.444 468.35 132.593 468.06C132.742 467.766 132.957 467.522 133.238 467.329C133.519 467.131 133.857 466.982 134.252 466.881C134.647 466.78 135.089 466.73 135.576 466.73H136.992ZM144.065 469.16C144.065 468.984 144.025 468.822 143.946 468.672C143.871 468.519 143.716 468.381 143.479 468.258C143.246 468.13 142.895 468.02 142.425 467.928C142.03 467.845 141.672 467.746 141.351 467.632C141.035 467.518 140.765 467.38 140.541 467.217C140.322 467.055 140.153 466.864 140.034 466.644C139.916 466.425 139.857 466.168 139.857 465.874C139.857 465.593 139.918 465.327 140.041 465.077C140.168 464.827 140.346 464.605 140.574 464.412C140.807 464.218 141.086 464.067 141.411 463.957C141.736 463.848 142.098 463.793 142.497 463.793C143.068 463.793 143.555 463.894 143.959 464.096C144.363 464.298 144.673 464.568 144.888 464.906C145.103 465.239 145.211 465.61 145.211 466.019H143.992C143.992 465.821 143.933 465.63 143.814 465.446C143.7 465.257 143.531 465.101 143.307 464.978C143.088 464.855 142.818 464.794 142.497 464.794C142.159 464.794 141.885 464.846 141.674 464.952C141.468 465.053 141.316 465.182 141.22 465.34C141.128 465.498 141.081 465.665 141.081 465.841C141.081 465.972 141.103 466.091 141.147 466.196C141.196 466.297 141.279 466.392 141.398 466.48C141.516 466.563 141.683 466.642 141.898 466.717C142.113 466.791 142.388 466.866 142.721 466.94C143.305 467.072 143.786 467.23 144.163 467.415C144.541 467.599 144.822 467.825 145.006 468.093C145.191 468.361 145.283 468.686 145.283 469.068C145.283 469.379 145.217 469.665 145.085 469.924C144.958 470.183 144.771 470.407 144.526 470.595C144.284 470.78 143.994 470.925 143.656 471.03C143.323 471.131 142.947 471.182 142.53 471.182C141.902 471.182 141.371 471.07 140.937 470.846C140.502 470.622 140.173 470.332 139.949 469.976C139.725 469.621 139.613 469.245 139.613 468.85H140.838C140.855 469.184 140.952 469.45 141.128 469.647C141.303 469.84 141.518 469.979 141.773 470.062C142.028 470.141 142.28 470.181 142.53 470.181C142.864 470.181 143.143 470.137 143.367 470.049C143.595 469.961 143.768 469.84 143.887 469.687C144.005 469.533 144.065 469.357 144.065 469.16ZM149.84 471.182C149.344 471.182 148.894 471.098 148.49 470.931C148.091 470.76 147.746 470.521 147.456 470.213C147.171 469.906 146.951 469.542 146.798 469.12C146.644 468.699 146.567 468.238 146.567 467.737V467.461C146.567 466.881 146.653 466.365 146.824 465.913C146.995 465.457 147.228 465.07 147.522 464.754C147.816 464.438 148.15 464.199 148.523 464.036C148.896 463.874 149.283 463.793 149.682 463.793C150.191 463.793 150.63 463.88 150.999 464.056C151.372 464.232 151.677 464.478 151.915 464.794C152.152 465.105 152.327 465.474 152.441 465.9C152.555 466.321 152.613 466.782 152.613 467.283V467.83H147.292V466.835H151.394V466.743C151.377 466.427 151.311 466.119 151.197 465.821C151.087 465.522 150.911 465.277 150.67 465.083C150.428 464.89 150.099 464.794 149.682 464.794C149.405 464.794 149.151 464.853 148.918 464.971C148.685 465.086 148.486 465.257 148.319 465.485C148.152 465.713 148.023 465.992 147.93 466.321C147.838 466.651 147.792 467.03 147.792 467.461V467.737C147.792 468.075 147.838 468.394 147.93 468.692C148.027 468.986 148.165 469.245 148.345 469.469C148.53 469.693 148.751 469.869 149.01 469.996C149.274 470.123 149.572 470.187 149.906 470.187C150.336 470.187 150.701 470.099 150.999 469.924C151.298 469.748 151.559 469.513 151.783 469.219L152.52 469.805C152.367 470.038 152.171 470.26 151.934 470.47C151.697 470.681 151.405 470.852 151.058 470.984C150.716 471.116 150.31 471.182 149.84 471.182ZM158.526 469.667V460.935H159.751V471.05H158.632L158.526 469.667ZM153.732 467.566V467.428C153.732 466.883 153.798 466.39 153.93 465.946C154.066 465.498 154.257 465.114 154.503 464.794C154.753 464.473 155.049 464.227 155.392 464.056C155.738 463.88 156.125 463.793 156.551 463.793C156.998 463.793 157.389 463.872 157.723 464.03C158.061 464.183 158.346 464.409 158.579 464.708C158.816 465.002 159.003 465.358 159.139 465.775C159.275 466.192 159.369 466.664 159.422 467.191V467.797C159.374 468.319 159.279 468.789 159.139 469.206C159.003 469.623 158.816 469.979 158.579 470.273C158.346 470.567 158.061 470.793 157.723 470.951C157.385 471.105 156.99 471.182 156.537 471.182C156.12 471.182 155.738 471.092 155.392 470.912C155.049 470.732 154.753 470.479 154.503 470.154C154.257 469.829 154.066 469.447 153.93 469.008C153.798 468.565 153.732 468.084 153.732 467.566ZM154.957 467.428V467.566C154.957 467.922 154.992 468.255 155.062 468.567C155.137 468.879 155.251 469.153 155.405 469.39C155.558 469.627 155.754 469.814 155.991 469.95C156.228 470.082 156.511 470.148 156.84 470.148C157.244 470.148 157.576 470.062 157.835 469.891C158.098 469.72 158.309 469.493 158.467 469.212C158.625 468.931 158.748 468.626 158.836 468.297V466.71C158.783 466.469 158.706 466.236 158.605 466.012C158.509 465.784 158.381 465.582 158.223 465.406C158.07 465.226 157.879 465.083 157.65 464.978C157.427 464.873 157.161 464.82 156.854 464.82C156.52 464.82 156.232 464.89 155.991 465.031C155.754 465.167 155.558 465.356 155.405 465.597C155.251 465.834 155.137 466.111 155.062 466.427C154.992 466.739 154.957 467.072 154.957 467.428ZM164.671 467.566V467.415C164.671 466.901 164.745 466.425 164.894 465.986C165.044 465.542 165.259 465.158 165.54 464.833C165.821 464.504 166.161 464.249 166.561 464.069C166.96 463.885 167.408 463.793 167.904 463.793C168.404 463.793 168.854 463.885 169.254 464.069C169.658 464.249 170 464.504 170.281 464.833C170.567 465.158 170.784 465.542 170.933 465.986C171.083 466.425 171.157 466.901 171.157 467.415V467.566C171.157 468.08 171.083 468.556 170.933 468.995C170.784 469.434 170.567 469.818 170.281 470.148C170 470.472 169.66 470.727 169.261 470.912C168.865 471.092 168.418 471.182 167.917 471.182C167.417 471.182 166.967 471.092 166.567 470.912C166.168 470.727 165.825 470.472 165.54 470.148C165.259 469.818 165.044 469.434 164.894 468.995C164.745 468.556 164.671 468.08 164.671 467.566ZM165.889 467.415V467.566C165.889 467.922 165.931 468.258 166.014 468.574C166.097 468.885 166.222 469.162 166.389 469.403C166.561 469.645 166.773 469.836 167.028 469.976C167.283 470.112 167.579 470.181 167.917 470.181C168.251 470.181 168.543 470.112 168.793 469.976C169.048 469.836 169.258 469.645 169.425 469.403C169.592 469.162 169.717 468.885 169.801 468.574C169.888 468.258 169.932 467.922 169.932 467.566V467.415C169.932 467.063 169.888 466.732 169.801 466.42C169.717 466.104 169.59 465.825 169.419 465.584C169.252 465.338 169.041 465.145 168.786 465.004C168.536 464.864 168.242 464.794 167.904 464.794C167.57 464.794 167.276 464.864 167.022 465.004C166.771 465.145 166.561 465.338 166.389 465.584C166.222 465.825 166.097 466.104 166.014 466.42C165.931 466.732 165.889 467.063 165.889 467.415ZM173.903 465.446V471.05H172.685V463.924H173.837L173.903 465.446ZM173.614 467.217L173.106 467.197C173.111 466.71 173.183 466.26 173.324 465.847C173.464 465.43 173.662 465.068 173.916 464.761C174.171 464.453 174.474 464.216 174.825 464.049C175.181 463.878 175.574 463.793 176.004 463.793C176.355 463.793 176.671 463.841 176.952 463.938C177.233 464.03 177.473 464.179 177.67 464.385C177.872 464.592 178.026 464.859 178.131 465.189C178.237 465.514 178.289 465.911 178.289 466.381V471.05H177.064V466.368C177.064 465.994 177.009 465.696 176.9 465.472C176.79 465.244 176.63 465.079 176.419 464.978C176.208 464.873 175.949 464.82 175.642 464.82C175.339 464.82 175.062 464.884 174.812 465.011C174.566 465.138 174.353 465.314 174.173 465.538C173.998 465.762 173.859 466.019 173.758 466.308C173.662 466.594 173.614 466.897 173.614 467.217ZM190.755 466.275V469.785C190.637 469.961 190.448 470.159 190.189 470.378C189.93 470.593 189.572 470.782 189.116 470.944C188.664 471.102 188.08 471.182 187.364 471.182C186.78 471.182 186.242 471.081 185.751 470.879C185.263 470.672 184.84 470.374 184.48 469.983C184.124 469.588 183.847 469.109 183.65 468.547C183.457 467.981 183.36 467.34 183.36 466.624V465.88C183.36 465.165 183.443 464.526 183.61 463.964C183.781 463.402 184.032 462.926 184.361 462.535C184.69 462.14 185.094 461.841 185.573 461.639C186.051 461.433 186.6 461.33 187.219 461.33C187.952 461.33 188.565 461.457 189.056 461.712C189.553 461.962 189.939 462.309 190.215 462.752C190.496 463.196 190.676 463.7 190.755 464.267H189.484C189.427 463.92 189.313 463.604 189.142 463.318C188.975 463.033 188.736 462.805 188.424 462.634C188.113 462.458 187.711 462.37 187.219 462.37C186.776 462.37 186.392 462.451 186.067 462.614C185.742 462.776 185.474 463.009 185.263 463.312C185.052 463.615 184.894 463.981 184.789 464.412C184.688 464.842 184.638 465.327 184.638 465.867V466.624C184.638 467.178 184.701 467.671 184.829 468.106C184.96 468.541 185.147 468.912 185.388 469.219C185.63 469.522 185.917 469.752 186.251 469.911C186.589 470.069 186.962 470.148 187.371 470.148C187.823 470.148 188.189 470.11 188.47 470.036C188.751 469.957 188.971 469.864 189.129 469.759C189.287 469.649 189.408 469.546 189.491 469.45V467.303H187.272V466.275H190.755ZM192.356 467.566V467.415C192.356 466.901 192.43 466.425 192.58 465.986C192.729 465.542 192.944 465.158 193.225 464.833C193.506 464.504 193.846 464.249 194.246 464.069C194.645 463.885 195.093 463.793 195.589 463.793C196.09 463.793 196.54 463.885 196.939 464.069C197.343 464.249 197.686 464.504 197.967 464.833C198.252 465.158 198.469 465.542 198.619 465.986C198.768 466.425 198.842 466.901 198.842 467.415V467.566C198.842 468.08 198.768 468.556 198.619 468.995C198.469 469.434 198.252 469.818 197.967 470.148C197.686 470.472 197.345 470.727 196.946 470.912C196.551 471.092 196.103 471.182 195.602 471.182C195.102 471.182 194.652 471.092 194.252 470.912C193.853 470.727 193.51 470.472 193.225 470.148C192.944 469.818 192.729 469.434 192.58 468.995C192.43 468.556 192.356 468.08 192.356 467.566ZM193.574 467.415V467.566C193.574 467.922 193.616 468.258 193.699 468.574C193.783 468.885 193.908 469.162 194.075 469.403C194.246 469.645 194.459 469.836 194.713 469.976C194.968 470.112 195.264 470.181 195.602 470.181C195.936 470.181 196.228 470.112 196.478 469.976C196.733 469.836 196.944 469.645 197.11 469.403C197.277 469.162 197.402 468.885 197.486 468.574C197.574 468.258 197.618 467.922 197.618 467.566V467.415C197.618 467.063 197.574 466.732 197.486 466.42C197.402 466.104 197.275 465.825 197.104 465.584C196.937 465.338 196.726 465.145 196.472 465.004C196.221 464.864 195.927 464.794 195.589 464.794C195.256 464.794 194.961 464.864 194.707 465.004C194.457 465.145 194.246 465.338 194.075 465.584C193.908 465.825 193.783 466.104 193.699 466.42C193.616 466.732 193.574 467.063 193.574 467.415ZM200.048 467.566V467.415C200.048 466.901 200.122 466.425 200.271 465.986C200.421 465.542 200.636 465.158 200.917 464.833C201.198 464.504 201.538 464.249 201.938 464.069C202.337 463.885 202.785 463.793 203.281 463.793C203.782 463.793 204.232 463.885 204.631 464.069C205.035 464.249 205.377 464.504 205.658 464.833C205.944 465.158 206.161 465.542 206.31 465.986C206.46 466.425 206.534 466.901 206.534 467.415V467.566C206.534 468.08 206.46 468.556 206.31 468.995C206.161 469.434 205.944 469.818 205.658 470.148C205.377 470.472 205.037 470.727 204.638 470.912C204.242 471.092 203.795 471.182 203.294 471.182C202.794 471.182 202.344 471.092 201.944 470.912C201.545 470.727 201.202 470.472 200.917 470.148C200.636 469.818 200.421 469.434 200.271 468.995C200.122 468.556 200.048 468.08 200.048 467.566ZM201.266 467.415V467.566C201.266 467.922 201.308 468.258 201.391 468.574C201.474 468.885 201.6 469.162 201.766 469.403C201.938 469.645 202.151 469.836 202.405 469.976C202.66 470.112 202.956 470.181 203.294 470.181C203.628 470.181 203.92 470.112 204.17 469.976C204.425 469.836 204.635 469.645 204.802 469.403C204.969 469.162 205.094 468.885 205.178 468.574C205.265 468.258 205.309 467.922 205.309 467.566V467.415C205.309 467.063 205.265 466.732 205.178 466.42C205.094 466.104 204.967 465.825 204.796 465.584C204.629 465.338 204.418 465.145 204.163 465.004C203.913 464.864 203.619 464.794 203.281 464.794C202.947 464.794 202.653 464.864 202.399 465.004C202.148 465.145 201.938 465.338 201.766 465.584C201.6 465.825 201.474 466.104 201.391 466.42C201.308 466.732 201.266 467.063 201.266 467.415ZM212.678 463.924H213.785V470.898C213.785 471.526 213.657 472.062 213.403 472.505C213.148 472.949 212.793 473.284 212.336 473.513C211.884 473.745 211.361 473.862 210.769 473.862C210.523 473.862 210.233 473.822 209.899 473.743C209.57 473.669 209.245 473.539 208.925 473.355C208.609 473.175 208.343 472.931 208.128 472.624L208.767 471.899C209.065 472.259 209.377 472.51 209.702 472.65C210.031 472.791 210.356 472.861 210.676 472.861C211.063 472.861 211.396 472.788 211.677 472.643C211.958 472.499 212.176 472.283 212.329 471.998C212.487 471.717 212.566 471.37 212.566 470.958V465.492L212.678 463.924ZM207.772 467.566V467.428C207.772 466.883 207.836 466.39 207.963 465.946C208.095 465.498 208.282 465.114 208.523 464.794C208.769 464.473 209.065 464.227 209.412 464.056C209.759 463.88 210.15 463.793 210.584 463.793C211.032 463.793 211.423 463.872 211.756 464.03C212.095 464.183 212.38 464.409 212.613 464.708C212.85 465.002 213.036 465.358 213.172 465.775C213.308 466.192 213.403 466.664 213.456 467.191V467.797C213.407 468.319 213.313 468.789 213.172 469.206C213.036 469.623 212.85 469.979 212.613 470.273C212.38 470.567 212.095 470.793 211.756 470.951C211.418 471.105 211.023 471.182 210.571 471.182C210.145 471.182 209.759 471.092 209.412 470.912C209.07 470.732 208.775 470.479 208.53 470.154C208.284 469.829 208.095 469.447 207.963 469.008C207.836 468.565 207.772 468.084 207.772 467.566ZM208.991 467.428V467.566C208.991 467.922 209.026 468.255 209.096 468.567C209.171 468.879 209.283 469.153 209.432 469.39C209.585 469.627 209.781 469.814 210.018 469.95C210.255 470.082 210.538 470.148 210.867 470.148C211.271 470.148 211.605 470.062 211.868 469.891C212.132 469.72 212.34 469.493 212.494 469.212C212.652 468.931 212.775 468.626 212.863 468.297V466.71C212.815 466.469 212.74 466.236 212.639 466.012C212.542 465.784 212.415 465.582 212.257 465.406C212.103 465.226 211.912 465.083 211.684 464.978C211.456 464.873 211.188 464.82 210.881 464.82C210.547 464.82 210.259 464.89 210.018 465.031C209.781 465.167 209.585 465.356 209.432 465.597C209.283 465.834 209.171 466.111 209.096 466.427C209.026 466.739 208.991 467.072 208.991 467.428ZM216.959 460.935V471.05H215.734V460.935H216.959ZM221.872 471.182C221.376 471.182 220.926 471.098 220.522 470.931C220.122 470.76 219.778 470.521 219.488 470.213C219.202 469.906 218.983 469.542 218.829 469.12C218.676 468.699 218.599 468.238 218.599 467.737V467.461C218.599 466.881 218.684 466.365 218.856 465.913C219.027 465.457 219.26 465.07 219.554 464.754C219.848 464.438 220.181 464.199 220.555 464.036C220.928 463.874 221.314 463.793 221.714 463.793C222.223 463.793 222.662 463.88 223.031 464.056C223.404 464.232 223.709 464.478 223.946 464.794C224.183 465.105 224.359 465.474 224.473 465.9C224.587 466.321 224.644 466.782 224.644 467.283V467.83H219.323V466.835H223.426V466.743C223.408 466.427 223.342 466.119 223.228 465.821C223.119 465.522 222.943 465.277 222.702 465.083C222.46 464.89 222.131 464.794 221.714 464.794C221.437 464.794 221.182 464.853 220.95 464.971C220.717 465.086 220.517 465.257 220.35 465.485C220.184 465.713 220.054 465.992 219.962 466.321C219.87 466.651 219.824 467.03 219.824 467.461V467.737C219.824 468.075 219.87 468.394 219.962 468.692C220.059 468.986 220.197 469.245 220.377 469.469C220.561 469.693 220.783 469.869 221.042 469.996C221.305 470.123 221.604 470.187 221.938 470.187C222.368 470.187 222.732 470.099 223.031 469.924C223.329 469.748 223.591 469.513 223.814 469.219L224.552 469.805C224.398 470.038 224.203 470.26 223.966 470.47C223.729 470.681 223.437 470.852 223.09 470.984C222.748 471.116 222.341 471.182 221.872 471.182ZM230.63 465.044V471.05H229.412V463.924H230.597L230.63 465.044ZM232.856 463.885L232.85 465.018C232.749 464.996 232.652 464.982 232.56 464.978C232.472 464.969 232.371 464.965 232.257 464.965C231.976 464.965 231.728 465.009 231.513 465.097C231.298 465.184 231.116 465.307 230.966 465.465C230.817 465.623 230.698 465.812 230.611 466.032C230.527 466.247 230.472 466.484 230.446 466.743L230.104 466.94C230.104 466.51 230.145 466.106 230.229 465.729C230.316 465.351 230.45 465.018 230.63 464.728C230.81 464.434 231.039 464.205 231.315 464.043C231.596 463.876 231.93 463.793 232.316 463.793C232.404 463.793 232.505 463.804 232.619 463.826C232.733 463.843 232.812 463.863 232.856 463.885ZM236.808 471.182C236.311 471.182 235.861 471.098 235.458 470.931C235.058 470.76 234.713 470.521 234.424 470.213C234.138 469.906 233.919 469.542 233.765 469.12C233.611 468.699 233.535 468.238 233.535 467.737V467.461C233.535 466.881 233.62 466.365 233.791 465.913C233.963 465.457 234.195 465.07 234.489 464.754C234.784 464.438 235.117 464.199 235.49 464.036C235.864 463.874 236.25 463.793 236.649 463.793C237.159 463.793 237.598 463.88 237.967 464.056C238.34 464.232 238.645 464.478 238.882 464.794C239.119 465.105 239.295 465.474 239.409 465.9C239.523 466.321 239.58 466.782 239.58 467.283V467.83H234.259V466.835H238.362V466.743C238.344 466.427 238.278 466.119 238.164 465.821C238.054 465.522 237.879 465.277 237.637 465.083C237.396 464.89 237.067 464.794 236.649 464.794C236.373 464.794 236.118 464.853 235.886 464.971C235.653 465.086 235.453 465.257 235.286 465.485C235.119 465.713 234.99 465.992 234.898 466.321C234.806 466.651 234.759 467.03 234.759 467.461V467.737C234.759 468.075 234.806 468.394 234.898 468.692C234.994 468.986 235.133 469.245 235.313 469.469C235.497 469.693 235.719 469.869 235.978 469.996C236.241 470.123 236.54 470.187 236.873 470.187C237.304 470.187 237.668 470.099 237.967 469.924C238.265 469.748 238.526 469.513 238.75 469.219L239.488 469.805C239.334 470.038 239.139 470.26 238.902 470.47C238.665 470.681 238.373 470.852 238.026 470.984C237.683 471.116 237.277 471.182 236.808 471.182ZM243.077 469.95L245.026 463.924H246.271L243.709 471.05H242.892L243.077 469.95ZM241.45 463.924L243.459 469.983L243.597 471.05H242.781L240.199 463.924H241.45ZM248.767 463.924V471.05H247.542V463.924H248.767ZM247.45 462.034C247.45 461.837 247.509 461.67 247.627 461.534C247.75 461.398 247.93 461.33 248.167 461.33C248.4 461.33 248.578 461.398 248.701 461.534C248.828 461.67 248.892 461.837 248.892 462.034C248.892 462.223 248.828 462.386 248.701 462.522C248.578 462.653 248.4 462.719 248.167 462.719C247.93 462.719 247.75 462.653 247.627 462.522C247.509 462.386 247.45 462.223 247.45 462.034ZM253.679 471.182C253.183 471.182 252.733 471.098 252.329 470.931C251.93 470.76 251.585 470.521 251.296 470.213C251.01 469.906 250.791 469.542 250.637 469.12C250.483 468.699 250.406 468.238 250.406 467.737V467.461C250.406 466.881 250.492 466.365 250.663 465.913C250.835 465.457 251.067 465.07 251.361 464.754C251.656 464.438 251.989 464.199 252.362 464.036C252.736 463.874 253.122 463.793 253.521 463.793C254.031 463.793 254.47 463.88 254.838 464.056C255.212 464.232 255.517 464.478 255.754 464.794C255.991 465.105 256.167 465.474 256.281 465.9C256.395 466.321 256.452 466.782 256.452 467.283V467.83H251.131V466.835H255.234V466.743C255.216 466.427 255.15 466.119 255.036 465.821C254.926 465.522 254.751 465.277 254.509 465.083C254.268 464.89 253.938 464.794 253.521 464.794C253.245 464.794 252.99 464.853 252.757 464.971C252.525 465.086 252.325 465.257 252.158 465.485C251.991 465.713 251.862 465.992 251.77 466.321C251.677 466.651 251.631 467.03 251.631 467.461V467.737C251.631 468.075 251.677 468.394 251.77 468.692C251.866 468.986 252.005 469.245 252.185 469.469C252.369 469.693 252.591 469.869 252.85 469.996C253.113 470.123 253.412 470.187 253.745 470.187C254.176 470.187 254.54 470.099 254.838 469.924C255.137 469.748 255.398 469.513 255.622 469.219L256.36 469.805C256.206 470.038 256.011 470.26 255.774 470.47C255.537 470.681 255.245 470.852 254.898 470.984C254.555 471.116 254.149 471.182 253.679 471.182ZM259.679 469.785L261.51 463.924H262.313L262.155 465.09L260.291 471.05H259.508L259.679 469.785ZM258.447 463.924L260.008 469.851L260.12 471.05H259.297L257.229 463.924H258.447ZM264.065 469.805L265.553 463.924H266.765L264.697 471.05H263.88L264.065 469.805ZM262.491 463.924L264.282 469.687L264.486 471.05H263.709L261.793 465.077L261.635 463.924H262.491ZM272.165 469.16C272.165 468.984 272.125 468.822 272.046 468.672C271.972 468.519 271.816 468.381 271.579 468.258C271.346 468.13 270.995 468.02 270.525 467.928C270.13 467.845 269.772 467.746 269.452 467.632C269.136 467.518 268.866 467.38 268.642 467.217C268.422 467.055 268.253 466.864 268.135 466.644C268.016 466.425 267.957 466.168 267.957 465.874C267.957 465.593 268.018 465.327 268.141 465.077C268.268 464.827 268.446 464.605 268.675 464.412C268.907 464.218 269.186 464.067 269.511 463.957C269.836 463.848 270.198 463.793 270.597 463.793C271.168 463.793 271.656 463.894 272.059 464.096C272.463 464.298 272.773 464.568 272.988 464.906C273.203 465.239 273.311 465.61 273.311 466.019H272.092C272.092 465.821 272.033 465.63 271.915 465.446C271.8 465.257 271.631 465.101 271.407 464.978C271.188 464.855 270.918 464.794 270.597 464.794C270.259 464.794 269.985 464.846 269.774 464.952C269.568 465.053 269.416 465.182 269.32 465.34C269.228 465.498 269.182 465.665 269.182 465.841C269.182 465.972 269.204 466.091 269.247 466.196C269.296 466.297 269.379 466.392 269.498 466.48C269.616 466.563 269.783 466.642 269.998 466.717C270.213 466.791 270.488 466.866 270.821 466.94C271.405 467.072 271.886 467.23 272.264 467.415C272.641 467.599 272.922 467.825 273.107 468.093C273.291 468.361 273.383 468.686 273.383 469.068C273.383 469.379 273.317 469.665 273.186 469.924C273.058 470.183 272.872 470.407 272.626 470.595C272.384 470.78 272.095 470.925 271.757 471.03C271.423 471.131 271.047 471.182 270.63 471.182C270.003 471.182 269.471 471.07 269.037 470.846C268.602 470.622 268.273 470.332 268.049 469.976C267.825 469.621 267.713 469.245 267.713 468.85H268.938C268.956 469.184 269.052 469.45 269.228 469.647C269.403 469.84 269.618 469.979 269.873 470.062C270.128 470.141 270.38 470.181 270.63 470.181C270.964 470.181 271.243 470.137 271.467 470.049C271.695 469.961 271.868 469.84 271.987 469.687C272.106 469.533 272.165 469.357 272.165 469.16Z" fill="#455A64"/>
<path d="M133.002 492.462V495.36H120.454L120.25 493.085L127.386 481.686H130.344L127.135 487.002L123.89 492.462H133.002ZM131.134 481.686V499.12H127.398V481.686H131.134ZM135.157 497.348C135.157 496.805 135.349 496.35 135.732 495.983C136.123 495.615 136.63 495.432 137.252 495.432C137.883 495.432 138.386 495.615 138.761 495.983C139.144 496.35 139.336 496.805 139.336 497.348C139.336 497.882 139.144 498.333 138.761 498.701C138.386 499.068 137.883 499.251 137.252 499.251C136.63 499.251 136.123 499.068 135.732 498.701C135.349 498.333 135.157 497.882 135.157 497.348ZM151.118 481.471H151.693V484.44H151.477C150.639 484.44 149.873 484.56 149.178 484.799C148.492 485.039 147.897 485.394 147.394 485.865C146.891 486.328 146.504 486.903 146.233 487.589C145.969 488.268 145.837 489.05 145.837 489.936V492.905C145.837 493.504 145.889 494.027 145.993 494.474C146.105 494.913 146.264 495.28 146.472 495.575C146.688 495.863 146.947 496.082 147.25 496.234C147.554 496.378 147.897 496.45 148.28 496.45C148.623 496.45 148.939 496.374 149.226 496.222C149.513 496.07 149.761 495.855 149.968 495.575C150.176 495.296 150.335 494.973 150.447 494.606C150.559 494.23 150.615 493.823 150.615 493.384C150.615 492.921 150.555 492.502 150.435 492.127C150.324 491.744 150.16 491.417 149.944 491.145C149.737 490.874 149.481 490.666 149.178 490.523C148.875 490.371 148.539 490.295 148.172 490.295C147.645 490.295 147.19 490.415 146.807 490.654C146.424 490.894 146.129 491.201 145.921 491.576C145.714 491.951 145.606 492.335 145.598 492.726L144.604 491.9C144.604 491.357 144.712 490.822 144.927 490.295C145.151 489.76 145.466 489.277 145.873 488.846C146.28 488.407 146.779 488.06 147.37 487.805C147.969 487.541 148.651 487.41 149.418 487.41C150.224 487.41 150.934 487.565 151.549 487.876C152.163 488.18 152.678 488.603 153.093 489.146C153.516 489.688 153.832 490.323 154.039 491.049C154.255 491.768 154.363 492.538 154.363 493.36C154.363 494.206 154.215 494.997 153.92 495.731C153.632 496.458 153.225 497.092 152.698 497.635C152.171 498.178 151.541 498.601 150.806 498.904C150.08 499.207 149.27 499.359 148.376 499.359C147.45 499.359 146.604 499.195 145.837 498.868C145.079 498.541 144.417 498.074 143.85 497.467C143.291 496.853 142.856 496.118 142.545 495.264C142.241 494.41 142.09 493.452 142.09 492.39V490.99C142.09 489.537 142.313 488.228 142.76 487.062C143.215 485.897 143.846 484.899 144.652 484.069C145.466 483.231 146.424 482.588 147.526 482.141C148.627 481.694 149.825 481.471 151.118 481.471Z" fill="#DF7550"/>
<path fill-rule="evenodd" clip-rule="evenodd" d="M175.798 482.231C176.289 481.05 177.965 481.05 178.457 482.231L180.74 487.721L186.668 488.196C187.945 488.298 188.462 489.89 187.489 490.723L182.974 494.59L184.352 500.372C184.65 501.617 183.295 502.601 182.202 501.934L177.127 498.835L172.052 501.934C170.96 502.601 169.605 501.616 169.902 500.372L171.281 494.59L166.765 490.723C165.792 489.89 166.31 488.298 167.587 488.196L173.514 487.721L175.798 482.231Z" fill="#F8BB36"/>
<path fill-rule="evenodd" clip-rule="evenodd" d="M205.38 482.231C205.871 481.05 207.547 481.05 208.039 482.231L210.322 487.721L216.25 488.196C217.527 488.298 218.044 489.89 217.071 490.723L212.556 494.59L213.934 500.372C214.232 501.617 212.877 502.601 211.784 501.934L206.709 498.835L201.634 501.934C200.542 502.601 199.187 501.616 199.484 500.372L200.863 494.59L196.347 490.723C195.374 489.89 195.892 488.298 197.169 488.196L203.096 487.721L205.38 482.231Z" fill="#F8BB36"/>
<path fill-rule="evenodd" clip-rule="evenodd" d="M234.789 482.232C235.28 481.051 236.956 481.051 237.448 482.232L239.731 487.722L245.659 488.196C246.936 488.298 247.453 489.89 246.481 490.724L241.965 494.591L243.343 500.372C243.641 501.618 242.286 502.601 241.194 501.934L236.118 498.836L231.043 501.934C229.951 502.601 228.596 501.616 228.893 500.372L230.272 494.591L225.756 490.724C224.783 489.89 225.301 488.298 226.578 488.196L232.505 487.722L234.789 482.232Z" fill="#F8BB36"/>
<path fill-rule="evenodd" clip-rule="evenodd" d="M264.198 482.231C264.69 481.05 266.366 481.05 266.857 482.231L269.141 487.721L275.068 488.196C276.345 488.298 276.863 489.89 275.89 490.723L271.374 494.59L272.753 500.372C273.05 501.617 271.695 502.601 270.603 501.934L265.528 498.835L260.452 501.934C259.36 502.601 258.005 501.616 258.303 500.372L259.681 494.59L255.166 490.723C254.193 489.89 254.71 488.298 255.987 488.196L261.915 487.721L264.198 482.231Z" fill="#F8BB36"/>
<mask id="mask0_2202_1178" style="mask-type:alpha" maskUnits="userSpaceOnUse" x="284" y="481" width="22" height="22">
<path fill-rule="evenodd" clip-rule="evenodd" d="M293.608 482.232C294.1 481.051 295.776 481.051 296.267 482.232L298.551 487.722L304.478 488.196C305.755 488.298 306.273 489.89 305.3 490.724L300.784 494.591L302.163 500.372C302.46 501.618 301.105 502.601 300.013 501.934L294.938 498.836L289.863 501.934C288.77 502.601 287.415 501.616 287.713 500.372L289.091 494.591L284.576 490.724C283.603 489.89 284.12 488.298 285.397 488.196L291.325 487.722L293.608 482.232Z" fill="#DF7550"/>
</mask>
<g mask="url(#mask0_2202_1178)">
<rect x="294.892" y="480.25" width="10.9642" height="23.0248" fill="#D9D9D9"/>
</g>
<path fill-rule="evenodd" clip-rule="evenodd" d="M294.892 481.347C294.365 481.363 293.847 481.658 293.608 482.232L291.325 487.721L285.397 488.196C284.12 488.298 283.603 489.89 284.576 490.723L289.091 494.59L287.713 500.372C287.415 501.616 288.77 502.601 289.863 501.934L294.892 498.864V481.347Z" fill="#F8BB36"/>
<path d="M376.393 38.5116C376.393 27.2996 376.393 14.2424 376.393 0.0498047C366.761 0.0498047 351.396 0.0575941 343.184 0.0498174H0.576172V237.011C75.7872 302.92 230.05 442.115 310.971 451.246C338.071 454.29 359.58 447.403 376.452 436.182L376.393 38.5116Z" fill="#EAF7FC"/>
<mask id="mask1_2202_1178" style="mask-type:alpha" maskUnits="userSpaceOnUse" x="0" y="0" width="377" height="452">
<path d="M376.393 38.5116C376.393 27.2996 376.393 14.2424 376.393 0.0498047C366.761 0.0498047 351.396 0.0575941 343.184 0.0498174H0.576172V237.011C75.7872 302.92 230.05 442.115 310.971 451.246C338.071 454.29 359.58 447.403 376.452 436.182L376.393 38.5116Z" fill="#EAF7FC"/>
</mask>
<g mask="url(#mask1_2202_1178)">
<path d="M177.174 36.879C195.46 36.879 210.178 51.597 210.178 69.883C210.178 88.169 195.46 102.887 177.174 102.887C158.888 102.887 144.17 88.169 144.17 69.883C144.17 51.597 158.888 36.879 177.174 36.879ZM177.174 27.959C153.982 27.959 135.25 46.691 135.25 69.883C135.25 93.075 153.982 111.807 177.174 111.807C200.366 111.807 219.098 93.075 219.098 69.883C219.098 46.691 200.366 27.959 177.174 27.959Z" fill="#455A64" fill-opacity="0.05"/>
<path d="M232.924 336.145C239.614 336.145 244.966 341.497 244.966 348.187C244.966 354.877 239.614 360.229 232.924 360.229C226.234 360.229 220.882 354.877 220.882 348.187C220.882 341.497 226.234 336.145 232.924 336.145ZM232.924 327.225C221.328 327.225 211.962 336.591 211.962 348.187C211.962 359.783 221.328 369.149 232.924 369.149C244.52 369.149 253.886 359.783 253.886 348.187C253.886 336.591 244.52 327.225 232.924 327.225Z" fill="#455A64" fill-opacity="0.05"/>
<path d="M2.78817 343.281C9.47817 343.281 14.8302 348.633 14.8302 355.323C14.8302 362.013 9.47817 367.365 2.78817 367.365C-3.90183 367.365 -9.25383 362.013 -9.25383 355.323C-9.25383 348.633 -3.90183 343.281 2.78817 343.281ZM2.78817 334.361C-8.80783 334.361 -18.1738 343.727 -18.1738 355.323C-18.1738 366.919 -8.80783 376.285 2.78817 376.285C14.3842 376.285 23.7502 366.919 23.7502 355.323C23.7502 343.727 14.3842 334.361 2.78817 334.361Z" fill="#455A64" fill-opacity="0.05"/>
<path d="M379.212 189.857C385.902 189.857 391.254 195.209 391.254 201.899C391.254 208.589 385.902 213.941 379.212 213.941C372.522 213.941 367.17 208.589 367.17 201.899C367.17 195.209 372.522 189.857 379.212 189.857ZM379.212 180.937C367.616 180.937 358.25 190.303 358.25 201.899C358.25 213.495 367.616 222.861 379.212 222.861C390.808 222.861 400.174 213.495 400.174 201.899C400.174 190.303 390.808 180.937 379.212 180.937Z" fill="#455A64" fill-opacity="0.05"/>
<path d="M384.564 343.281C393.93 343.281 401.958 350.863 401.958 360.675C401.958 370.041 394.376 378.069 384.564 378.069C375.198 378.069 367.17 370.487 367.17 360.675C367.17 350.863 374.752 343.281 384.564 343.281ZM384.564 334.361C370.292 334.361 358.25 345.957 358.25 360.675C358.25 375.393 369.846 386.989 384.564 386.989C399.282 386.989 410.878 375.393 410.878 360.675C410.878 345.957 398.836 334.361 384.564 334.361Z" fill="#455A64" fill-opacity="0.05"/>
<path d="M281.538 189.857C288.228 189.857 293.58 195.209 293.58 201.899C293.58 208.589 288.228 213.941 281.538 213.941C274.848 213.941 269.496 208.589 269.496 201.899C269.496 195.209 274.848 189.857 281.538 189.857ZM281.538 180.937C269.942 180.937 260.576 190.303 260.576 201.899C260.576 213.495 269.942 222.861 281.538 222.861C293.134 222.861 302.5 213.495 302.5 201.899C302.5 190.303 293.134 180.937 281.538 180.937Z" fill="#455A64" fill-opacity="0.05"/>
<path d="M121.424 120.281C185.648 120.281 237.83 172.463 237.83 236.687C237.83 300.911 185.648 353.539 121.424 353.539C57.1997 353.539 5.01766 300.911 5.01766 236.687C5.01766 172.463 57.1997 120.281 121.424 120.281ZM121.424 111.361C52.2937 111.361 -3.90234 167.557 -3.90234 236.687C-3.90234 305.817 52.2937 362.013 121.424 362.013C190.554 362.013 246.75 305.817 246.75 236.687C246.75 167.557 190.554 111.361 121.424 111.361Z" fill="#455A64" fill-opacity="0.05"/>
<path d="M51.848 -46.9692C92.88 -46.9692 126.33 -13.5192 126.33 27.9588C126.33 69.4368 92.88 102.441 51.848 102.441C10.816 102.441 -23.08 68.9908 -23.08 27.9588C-23.08 -13.0732 10.37 -46.9692 51.848 -46.9692ZM51.848 -55.8892C5.46399 -55.8892 -32 -18.4252 -32 27.9588C-32 74.3428 5.46399 111.807 51.848 111.807C98.232 111.807 135.696 74.3428 135.696 27.9588C135.696 -18.4252 97.786 -55.8892 51.848 -55.8892Z" fill="#455A64" fill-opacity="0.05"/>
<path d="M330.598 19.9307C371.63 19.9307 405.08 53.3807 405.08 94.8587C405.08 136.337 371.63 169.787 330.152 169.787C288.674 169.787 255.67 135.891 255.67 94.8587C255.67 53.8267 289.12 19.9307 330.598 19.9307ZM330.598 11.0107C284.214 11.0107 246.75 48.4747 246.75 94.8587C246.75 141.243 284.214 178.707 330.598 178.707C376.982 178.707 414 140.797 414 94.8587C414 48.9207 376.536 11.0107 330.598 11.0107Z" fill="#455A64" fill-opacity="0.05"/>
<path d="M330.598 224.645C360.48 224.645 384.564 248.729 384.564 278.611C384.564 308.493 360.48 332.577 330.598 332.577C300.716 332.577 276.632 308.493 276.632 278.611C276.632 248.729 300.716 224.645 330.598 224.645ZM330.598 215.725C295.81 215.725 267.712 243.823 267.712 278.611C267.712 313.399 295.81 341.497 330.598 341.497C365.386 341.497 393.038 313.399 393.038 278.611C393.038 243.823 364.94 215.725 330.598 215.725Z" fill="#455A64" fill-opacity="0.05"/>
<path d="M232.478 -46.9692C254.332 -46.9692 272.172 -29.1292 272.172 -7.27516C272.172 14.5788 254.332 32.4188 232.478 32.4188C210.624 32.4188 192.784 14.5788 192.784 -7.27516C192.784 -29.1292 210.624 -46.9692 232.478 -46.9692ZM232.478 -55.8892C205.718 -55.8892 183.864 -34.0352 183.864 -7.27516C183.864 19.4848 205.718 41.3388 232.478 41.3388C259.238 41.3388 281.092 19.4848 281.092 -7.27516C281.538 -34.0352 259.684 -55.8892 232.478 -55.8892Z" fill="#455A64" fill-opacity="0.05"/>
</g>
</svg>
