<svg width="377" height="452" viewBox="0 0 377 452" fill="none" xmlns="http://www.w3.org/2000/svg">
<path d="M376.393 38.5116C376.393 27.2996 376.393 14.2424 376.393 0.0498047C366.761 0.0498047 351.396 0.0575941 343.184 0.0498174H0.576172V237.011C75.7872 302.92 230.05 442.115 310.971 451.246C338.071 454.29 359.58 447.403 376.452 436.182L376.393 38.5116Z" fill="#EAF7FC"/>
<mask id="mask0_560_9685" style="mask-type:alpha" maskUnits="userSpaceOnUse" x="0" y="0" width="377" height="452">
<path d="M376.393 38.5116C376.393 27.2996 376.393 14.2424 376.393 0.0498047C366.761 0.0498047 351.396 0.0575941 343.184 0.0498174H0.576172V237.011C75.7872 302.92 230.05 442.115 310.971 451.246C338.071 454.29 359.58 447.403 376.452 436.182L376.393 38.5116Z" fill="#EAF7FC"/>
</mask>
<g mask="url(#mask0_560_9685)">
<path d="M177.174 36.879C195.46 36.879 210.178 51.597 210.178 69.883C210.178 88.169 195.46 102.887 177.174 102.887C158.888 102.887 144.17 88.169 144.17 69.883C144.17 51.597 158.888 36.879 177.174 36.879ZM177.174 27.959C153.982 27.959 135.25 46.691 135.25 69.883C135.25 93.075 153.982 111.807 177.174 111.807C200.366 111.807 219.098 93.075 219.098 69.883C219.098 46.691 200.366 27.959 177.174 27.959Z" fill="#455A64" fill-opacity="0.05"/>
<path d="M232.924 336.145C239.614 336.145 244.966 341.497 244.966 348.187C244.966 354.877 239.614 360.229 232.924 360.229C226.234 360.229 220.882 354.877 220.882 348.187C220.882 341.497 226.234 336.145 232.924 336.145ZM232.924 327.225C221.328 327.225 211.962 336.591 211.962 348.187C211.962 359.783 221.328 369.149 232.924 369.149C244.52 369.149 253.886 359.783 253.886 348.187C253.886 336.591 244.52 327.225 232.924 327.225Z" fill="#455A64" fill-opacity="0.05"/>
<path d="M2.78817 343.281C9.47817 343.281 14.8302 348.633 14.8302 355.323C14.8302 362.013 9.47817 367.365 2.78817 367.365C-3.90183 367.365 -9.25383 362.013 -9.25383 355.323C-9.25383 348.633 -3.90183 343.281 2.78817 343.281ZM2.78817 334.361C-8.80783 334.361 -18.1738 343.727 -18.1738 355.323C-18.1738 366.919 -8.80783 376.285 2.78817 376.285C14.3842 376.285 23.7502 366.919 23.7502 355.323C23.7502 343.727 14.3842 334.361 2.78817 334.361Z" fill="#455A64" fill-opacity="0.05"/>
<path d="M379.212 189.857C385.902 189.857 391.254 195.209 391.254 201.899C391.254 208.589 385.902 213.941 379.212 213.941C372.522 213.941 367.17 208.589 367.17 201.899C367.17 195.209 372.522 189.857 379.212 189.857ZM379.212 180.937C367.616 180.937 358.25 190.303 358.25 201.899C358.25 213.495 367.616 222.861 379.212 222.861C390.808 222.861 400.174 213.495 400.174 201.899C400.174 190.303 390.808 180.937 379.212 180.937Z" fill="#455A64" fill-opacity="0.05"/>
<path d="M384.564 343.281C393.93 343.281 401.958 350.863 401.958 360.675C401.958 370.041 394.376 378.069 384.564 378.069C375.198 378.069 367.17 370.487 367.17 360.675C367.17 350.863 374.752 343.281 384.564 343.281ZM384.564 334.361C370.292 334.361 358.25 345.957 358.25 360.675C358.25 375.393 369.846 386.989 384.564 386.989C399.282 386.989 410.878 375.393 410.878 360.675C410.878 345.957 398.836 334.361 384.564 334.361Z" fill="#455A64" fill-opacity="0.05"/>
<path d="M281.538 189.857C288.228 189.857 293.58 195.209 293.58 201.899C293.58 208.589 288.228 213.941 281.538 213.941C274.848 213.941 269.496 208.589 269.496 201.899C269.496 195.209 274.848 189.857 281.538 189.857ZM281.538 180.937C269.942 180.937 260.576 190.303 260.576 201.899C260.576 213.495 269.942 222.861 281.538 222.861C293.134 222.861 302.5 213.495 302.5 201.899C302.5 190.303 293.134 180.937 281.538 180.937Z" fill="#455A64" fill-opacity="0.05"/>
<path d="M121.424 120.281C185.648 120.281 237.83 172.463 237.83 236.687C237.83 300.911 185.648 353.539 121.424 353.539C57.1997 353.539 5.01766 300.911 5.01766 236.687C5.01766 172.463 57.1997 120.281 121.424 120.281ZM121.424 111.361C52.2937 111.361 -3.90234 167.557 -3.90234 236.687C-3.90234 305.817 52.2937 362.013 121.424 362.013C190.554 362.013 246.75 305.817 246.75 236.687C246.75 167.557 190.554 111.361 121.424 111.361Z" fill="#455A64" fill-opacity="0.05"/>
<path d="M51.848 -46.9692C92.88 -46.9692 126.33 -13.5192 126.33 27.9588C126.33 69.4368 92.88 102.441 51.848 102.441C10.816 102.441 -23.08 68.9908 -23.08 27.9588C-23.08 -13.0732 10.37 -46.9692 51.848 -46.9692ZM51.848 -55.8892C5.46399 -55.8892 -32 -18.4252 -32 27.9588C-32 74.3428 5.46399 111.807 51.848 111.807C98.232 111.807 135.696 74.3428 135.696 27.9588C135.696 -18.4252 97.786 -55.8892 51.848 -55.8892Z" fill="#455A64" fill-opacity="0.05"/>
<path d="M330.598 19.9307C371.63 19.9307 405.08 53.3807 405.08 94.8587C405.08 136.337 371.63 169.787 330.152 169.787C288.674 169.787 255.67 135.891 255.67 94.8587C255.67 53.8267 289.12 19.9307 330.598 19.9307ZM330.598 11.0107C284.214 11.0107 246.75 48.4747 246.75 94.8587C246.75 141.243 284.214 178.707 330.598 178.707C376.982 178.707 414 140.797 414 94.8587C414 48.9207 376.536 11.0107 330.598 11.0107Z" fill="#455A64" fill-opacity="0.05"/>
<path d="M330.598 224.645C360.48 224.645 384.564 248.729 384.564 278.611C384.564 308.493 360.48 332.577 330.598 332.577C300.716 332.577 276.632 308.493 276.632 278.611C276.632 248.729 300.716 224.645 330.598 224.645ZM330.598 215.725C295.81 215.725 267.712 243.823 267.712 278.611C267.712 313.399 295.81 341.497 330.598 341.497C365.386 341.497 393.038 313.399 393.038 278.611C393.038 243.823 364.94 215.725 330.598 215.725Z" fill="#455A64" fill-opacity="0.05"/>
<path d="M232.478 -46.9692C254.332 -46.9692 272.172 -29.1292 272.172 -7.27516C272.172 14.5788 254.332 32.4188 232.478 32.4188C210.624 32.4188 192.784 14.5788 192.784 -7.27516C192.784 -29.1292 210.624 -46.9692 232.478 -46.9692ZM232.478 -55.8892C205.718 -55.8892 183.864 -34.0352 183.864 -7.27516C183.864 19.4848 205.718 41.3388 232.478 41.3388C259.238 41.3388 281.092 19.4848 281.092 -7.27516C281.538 -34.0352 259.684 -55.8892 232.478 -55.8892Z" fill="#455A64" fill-opacity="0.05"/>
</g>
</svg>
