<svg width="117" height="128" viewBox="0 0 117 128" fill="none" xmlns="http://www.w3.org/2000/svg">
    <path d="m22.93 87.454-7.758 14.274.64-34.657a12.143 12.143 0 0 1 2.149-6.133 12.684 12.684 0 0 1 1.866-2.231c.912-.771 2.13-1.748 2.966-2.077 1.036-.41 1.068-1.848.105-2.099-.963-.25-3.847.808-6.357 3.382-2.51 2.573-1.943-2.99-1.77-5.02.173-2.03.406-8.327-.178-8.857-.853-.78-1.87 0-1.994 2.045-.123 2.044-.913 8.1-1.994 7.985-1.082-.114-.037-10.436-.037-10.436s.575-2.18-.652-2.354c-2.218-.315-2.487 10.718-2.487 11.772 0 .73-1.164.648-1.123-.136.041-.785 1.25-10.286-1.003-10.623-1.73-.26-.306 9.076-1.648 10.951-1.341 1.876-.356-7.21-2.021-7.392-.616-.069-1.09-.032-.913 5.234.1 2.834 1.37 7.068 1.14 12.535l-.054 1.414c-1.31 10.226-7.21 63.875 13.1 62.419 0 0 15.41-2.14 23.976-30.185l-15.953-9.81z" fill="#FFBE9D"/>
    <path d="M5.548 61.266c0 .05.342.091.849.356a3.194 3.194 0 0 1 1.501 1.651l.16.407.178-.397a5.102 5.102 0 0 1 1.054-1.52 6.005 6.005 0 0 1 3.13-1.684c.913-.187 1.506-.082 1.515-.155a2.856 2.856 0 0 0-1.56-.118 5.732 5.732 0 0 0-3.368 1.683 5.28 5.28 0 0 0-1.104 1.648h.337a3.194 3.194 0 0 0-1.747-1.72 1.534 1.534 0 0 0-.945-.151z" fill="#EB996E"/>
    <path d="m115.569 94.12 8.629 16.254 7.881 15.158H114.26l-11.043-22.756" fill="#FFBE9D"/>
    <path d="M47.99 125.531c1.698-5.782.585-6.694-1.24-12.435l-3.925-12.32-8.588 12.685L15.98 98.786l6.056-13.657c11.312-25.636 29.66-23.815 29.66-23.815l23.381-4.463s14.958-1.369 24.641 7.42c3.158 2.866 17.5 28.684 17.5 28.684l-17.623 12.347-4.321-7.369-1.196 10.016c-.94 5.476-.88 12.444 1.196 17.582" fill="#455A64"/>
    <path d="M45.952 70.041c0 .064-3.847.913-8.616 1.894-4.768.981-8.67 1.725-8.67 1.66 0-.063 3.842-.912 8.616-1.893 4.773-.98 8.656-1.734 8.67-1.66zM97.364 62.658c0 .068-3.773.821-8.46 1.683-4.686.863-8.492 1.515-8.505 1.447-.014-.069 3.778-.817 8.464-1.68 4.686-.862 8.492-1.514 8.501-1.45zM104.568 71.004c0 .064-5.872 1.369-13.146 2.952-7.274 1.584-13.178 2.784-13.192 2.738-.014-.046 5.868-1.369 13.142-2.952 7.273-1.584 13.164-2.788 13.196-2.738zM111.779 83.867l-.247.05-.721.127-2.788.457L97.77 86.18l-33.85 5.43c-13.232 2.094-25.202 3.96-33.88 5.266a873.862 873.862 0 0 1-10.281 1.506c-1.214.164-2.159.287-2.802.356-.32.07-.65.088-.977.054.327-.005.652-.038.972-.1l2.793-.401 10.272-1.58 33.867-5.338L97.73 86.01l10.267-1.606 2.792-.424.73-.105.261-.01zM94.557 103.846c0 .063-10.87 1.537-24.29 3.285-13.42 1.748-24.307 3.112-24.317 3.048-.009-.064 10.865-1.533 24.29-3.285 13.425-1.752 24.29-3.112 24.317-3.048zM92.479 120.928c0 .068-9.728.059-21.72 0-11.992-.06-21.725-.183-21.725-.251 0-.069 9.724-.06 21.725 0 12 .059 21.72.187 21.72.251zM52.638 80.6a1.583 1.583 0 0 1-.314.07l-.913.15-3.331.529c-2.816.456-6.699 1.1-10.952 1.898a446.02 446.02 0 0 0-10.92 2.195l-3.316.707-.913.188a1.47 1.47 0 0 1-.32.05c.099-.042.201-.075.306-.096l.927-.233c.775-.192 1.898-.456 3.285-.78a297.99 297.99 0 0 1 10.91-2.282c4.28-.816 8.168-1.419 10.988-1.825 1.415-.205 2.556-.36 3.35-.456l.912-.105c.1-.013.201-.016.301-.01z" fill="#FAFAFA"/>
    <path d="M72.706 6.964c-.561 6.762 8.501 11.563 7.694 18.298-.224 1.871-1.196 3.906-.206 5.512 1.187 1.93 4.075 1.524 6.183 2.36 2.597 1.026 3.925 4.152 3.532 6.913-.392 2.76-2.181 5.147-4.285 6.986A20.989 20.989 0 0 1 73.76 52.13c-2.035.182-4.161.036-5.977-.913-1.817-.949-3.254-2.779-3.263-4.823" fill="#263238"/>
    <path d="M73.602 60.73a822.787 822.787 0 0 1-2.368-11.864s7.169-2.811 6.653-12.827c-.488-9.555-6.534-30.573-6.534-30.573-11.613-2.094-23.665 3.49-29.478 13.69l10.554 46.698c1.223 5.421 6.845 8.67 12.654 7.333 5.854-1.396 9.665-6.958 8.52-12.457z" fill="#FFBE9D"/>
    <path d="M72.138 22.721a1.274 1.274 0 0 1-.936 1.506 1.213 1.213 0 0 1-1.52-.849 1.273 1.273 0 0 1 .913-1.51 1.22 1.22 0 0 1 1.543.853z" fill="#263238"/>
    <path d="M73.541 21.469c-.118.196-1.209-.301-2.546 0-1.337.301-2.176 1.163-2.354 1.031-.087-.06 0-.383.37-.785a3.472 3.472 0 0 1 1.825-1.026 3.34 3.34 0 0 1 2.067.214c.483.215.684.48.638.566zM58.483 25.857a1.273 1.273 0 0 1-.913 1.51 1.219 1.219 0 0 1-1.52-.852 1.269 1.269 0 0 1 .913-1.506 1.215 1.215 0 0 1 1.52.848z" fill="#263238"/>
    <path d="M59.85 24.589c-.12.191-1.21-.306-2.547 0-1.337.305-2.172 1.163-2.355 1.031-.086-.055 0-.383.37-.785a3.523 3.523 0 0 1 1.825-1.027 3.381 3.381 0 0 1 2.072.215c.502.214.707.474.634.566zM66.962 33.237c-.023-.077.78-.397 2.09-.853.333-.11.643-.242.652-.488a1.798 1.798 0 0 0-.456-.963l-1.56-2.386c-2.191-3.41-3.852-6.238-3.71-6.325.141-.087 2.021 2.605 4.207 6.01l1.524 2.409c.298.369.46.83.456 1.305a.872.872 0 0 1-.456.616 2.37 2.37 0 0 1-.562.205c-1.323.36-2.162.543-2.185.47z" fill="#263238"/>
    <path d="M71.255 48.865a25.22 25.22 0 0 1-13.689-.716s4.563 5.991 14.068 3.03l-.379-2.314z" fill="#EB996E"/>
    <path d="M67.079 36.575a2.46 2.46 0 0 0-2.35-.433 2.223 2.223 0 0 0-1.346 1.136 1.419 1.419 0 0 0 .228 1.615 1.652 1.652 0 0 0 1.825.073 5.197 5.197 0 0 0 1.497-1.369c.125-.133.225-.288.296-.456a.456.456 0 0 0-.11-.502" fill="#FF725E"/>
    <path d="M63.215 34.99c.22-.059.53 1.392 1.99 2.163 1.46.772 2.97.279 3.025.457.041.087-.283.356-.935.51a3.682 3.682 0 0 1-2.51-.319 3.194 3.194 0 0 1-1.57-1.825c-.173-.58-.1-.972 0-.985z" fill="#263238"/>
    <path d="M47.706 29.064a5.885 5.885 0 0 0-3.08.862 4.106 4.106 0 0 0-1.826 2.555 4.298 4.298 0 0 0 .63 3.103 7.27 7.27 0 0 0 2.318 2.232 4.91 4.91 0 0 0 2.145.848 2.355 2.355 0 0 0 2.09-.79" fill="#FFBE9D"/>
    <path d="M48.444 35.473c.127 0-.192.735-1.191.68a2.063 2.063 0 0 1-1.37-.776 4.687 4.687 0 0 1-.88-1.61 2.761 2.761 0 0 1 .05-1.917 1.825 1.825 0 0 1 1.191-1.09c.972-.229 1.415.382 1.31.424-.105.04-.516-.174-1.118.114-.602.287-1.013 1.213-.657 2.231.356 1.018.958 1.93 1.579 2.053.62.124 1.022-.182 1.086-.11z" fill="#EB996E"/>
    <path d="M68.52 3.328a7.2 7.2 0 0 1-1.478 8.501c-2.318 2.086-5.677 2.382-8.67 3.254-2.994.871-6.202 3.075-6.065 6.192.082 1.89 1.424 3.705.94 5.53-.56 2.14-3.294 3.053-4.065 5.125-1.237 3.331 3.29 6.329 3.089 9.874-.119 2.104-1.898 3.82-2.095 5.933-.282 2.984 2.647 6.155 1.018 8.67-1.25 1.934-4.162 1.656-6.297.816-2.136-.84-4.472-2.035-6.612-1.195-1.287.502-2.195 1.652-3.34 2.427a6.388 6.388 0 0 1-9.861-6.493c.347-1.825 1.45-3.39 2.34-5.02.89-1.628 1.598-3.531 1.064-5.306-.415-1.37-1.483-2.4-2.332-3.541-.849-1.141-1.51-2.642-.963-3.952.959-2.304 4.632-2.104 5.964-4.212 1.826-2.897-2.409-6.584-1.323-9.833 1.232-3.678 7.757-3.021 8.999-6.699.456-1.337 0-2.81.123-4.216.324-3.194 3.696-5.27 6.876-5.823 3.18-.552 6.503-.141 9.624-.963 1.706-.456 3.304-1.264 4.983-1.825 1.68-.561 3.54-.84 5.202-.223 1.66.616 2.989 2.354 2.655 4.106" fill="#263238"/>
    <path d="M67.085 10.185a12.09 12.09 0 0 0 8.844 5.932c-.06-2.446-.188-4.91-.85-7.26-.66-2.35-1.902-4.627-3.819-6.119-1.916-1.492-4.627-2.113-6.899-1.223" fill="#263238"/>
    <path d="M78.83 57.086c.827.11 5.445 27.197-12.283 30.204C49.768 90.14 44.58 62.31 44.58 62.31s11.303-8.291 34.25-5.225z" fill="#FFBE9D"/>
    <path d="M68.678 20.003c.106.196 1.018-.096 2.154-.224 1.137-.128 2.086-.064 2.14-.278.055-.215-.912-.653-2.23-.498-1.32.155-2.168.845-2.064 1zM55.124 22.102c.041-.036.036-.114 0-.237v.205a9.323 9.323 0 0 1 2.063-.757c1.259-.274 2.327.027 2.413-.178.037-.096-.191-.31-.657-.456a3.577 3.577 0 0 0-1.912-.11 3.131 3.131 0 0 0-2.099 1.31l-.082.164.069.037c.09.05.169.05.205.022z" fill="#263238"/>
    <path d="M47.47 21.315a20.523 20.523 0 0 1-3.094-.196 19.57 19.57 0 0 1-3.066-.434 20.575 20.575 0 0 1 3.094.196c1.031.067 2.056.212 3.066.434zM45.967 23.043a7.355 7.355 0 0 1-2.341.128 7.337 7.337 0 0 1-2.31-.38c0-.063 1.046.074 2.323.142 1.278.069 2.323.037 2.328.11z" fill="#FF725E"/>
    <path d="M68.672 8.856a1.178 1.178 0 0 1-.09.283 2.604 2.604 0 0 1-.457.721 4.422 4.422 0 0 1-2.83 1.25c-.72.08-1.449.069-2.167-.036-.771-.096-1.588-.238-2.446-.301a6.047 6.047 0 0 0-2.642.287 5.32 5.32 0 0 0-2.208 1.775c-.625.776-1.15 1.606-1.766 2.341a7.418 7.418 0 0 1-1.009.995c-.36.279-.756.509-1.177.684-.78.29-1.587.5-2.41.625-.704.108-1.398.275-2.075.498a4.33 4.33 0 0 0-2.369 1.825c-.169.336-.273.702-.305 1.077a1.133 1.133 0 0 1 0-.297c.029-.285.107-.563.232-.821a4.34 4.34 0 0 1 2.391-1.967 12.93 12.93 0 0 1 2.1-.534c.806-.129 1.596-.341 2.358-.634a5.358 5.358 0 0 0 2.095-1.624c.602-.717 1.123-1.552 1.757-2.341a5.595 5.595 0 0 1 2.313-1.826 6.26 6.26 0 0 1 2.738-.287c1.748.155 3.276.57 4.563.392a4.394 4.394 0 0 0 2.797-1.131c.251-.285.456-.606.607-.954zM30.591 58.87c.138-.028.273-.066.406-.113.368-.169.658-.47.813-.844.253-.591.266-1.257.036-1.857-.219-.712-.643-1.47-.967-2.373a12.119 12.119 0 0 1-.653-6.63 8.866 8.866 0 0 1 1.67-3.6 7.653 7.653 0 0 1 1.533-1.461 9.075 9.075 0 0 1 1.926-1 6.023 6.023 0 0 0 1.825-1.04 2.282 2.282 0 0 0 .703-1.793c-.078-1.328-.803-2.546-.78-3.86a3.983 3.983 0 0 1 .483-1.826c.284-.515.633-.99 1.04-1.414.736-.74 1.52-1.43 2.346-2.067 1.46-1.205 2.368-2.515 2.61-3.546a3.585 3.585 0 0 0 0-1.624c.018.032.03.068.037.105 0 .068.05.173.077.31.067.41.053.828-.04 1.232a4.978 4.978 0 0 1-.827 1.766c-.508.698-1.099 1.33-1.76 1.884a24.51 24.51 0 0 0-2.31 2.072 6.64 6.64 0 0 0-1.004 1.369 3.806 3.806 0 0 0-.456 1.716c.023.634.142 1.262.351 1.861.23.644.383 1.311.457 1.99a2.502 2.502 0 0 1-.772 1.976 6.177 6.177 0 0 1-1.893 1.086 9.068 9.068 0 0 0-1.876 1.017c-.559.4-1.06.877-1.487 1.415a8.668 8.668 0 0 0-1.638 3.5c-.406 2.188-.2 4.446.593 6.525.31.913.725 1.657.94 2.396.104.343.153.7.146 1.058-.014.305-.09.603-.224.877-.173.386-.488.69-.88.848a.913.913 0 0 1-.425.046z" fill="#455A64"/>
</svg>
