<svg width="126" height="157" viewBox="0 0 126 157" fill="none" xmlns="http://www.w3.org/2000/svg">
<path d="M11.2415 99.2497C14.6769 99.2421 17.4557 96.451 17.4481 93.0156C17.4405 89.5801 14.6493 86.8014 11.2139 86.809C7.77849 86.8166 4.9997 89.6077 5.00732 93.0431C5.01493 96.4786 7.80606 99.2573 11.2415 99.2497Z" fill="white" fill-opacity="0.5"/>
<path d="M6.89428 86.956C9.96516 86.9492 12.4491 84.4542 12.4423 81.3833C12.4355 78.3124 9.94051 75.8285 6.86964 75.8353C3.79876 75.8421 1.31484 78.3371 1.32165 81.408C1.32846 84.4788 3.82341 86.9628 6.89428 86.956Z" fill="white" fill-opacity="0.5"/>
<path d="M5.06344 74.0035C7.76977 73.9975 9.95882 71.7987 9.95283 69.0924C9.94683 66.3861 7.74805 64.197 5.04172 64.203C2.33539 64.209 0.146342 66.4078 0.15234 69.1141C0.158338 71.8204 2.35711 74.0095 5.06344 74.0035Z" fill="white" fill-opacity="0.5"/>
<path d="M5.76678 60.9363C8.10857 60.9311 10.0028 59.0285 9.99756 56.6867C9.99237 54.3449 8.08977 52.4507 5.74799 52.4559C3.4062 52.4611 1.51202 54.3637 1.51721 56.7055C1.5224 59.0473 3.425 60.9415 5.76678 60.9363Z" fill="white" fill-opacity="0.5"/>
<path d="M9.00369 48.2802C10.9809 48.2758 12.5802 46.6694 12.5759 44.6922C12.5715 42.7149 10.9651 41.1156 8.98782 41.12C7.01058 41.1244 5.41127 42.7308 5.41565 44.708C5.42003 46.6853 7.02645 48.2846 9.00369 48.2802Z" fill="white" fill-opacity="0.5"/>
<path d="M14.651 36.5561C16.264 36.5525 17.5686 35.2421 17.565 33.6292C17.5614 32.0163 16.251 30.7116 14.6381 30.7152C13.0252 30.7188 11.7205 32.0292 11.7241 33.6421C11.7277 35.255 13.0381 36.5597 14.651 36.5561Z" fill="white" fill-opacity="0.5"/>
<path d="M22.4495 26.2296C23.6978 26.2268 24.7076 25.2126 24.7048 23.9642C24.7021 22.7159 23.6878 21.7061 22.4395 21.7089C21.1911 21.7116 20.1813 22.7259 20.1841 23.9742C20.1869 25.2226 21.2011 26.2324 22.4495 26.2296Z" fill="white" fill-opacity="0.5"/>
<path d="M32.0593 17.7039C32.9431 17.7019 33.658 16.9839 33.6561 16.1001C33.6541 15.2162 32.936 14.5013 32.0522 14.5033C31.1684 14.5052 30.4535 15.2233 30.4555 16.1071C30.4574 16.991 31.1755 17.7059 32.0593 17.7039Z" fill="white" fill-opacity="0.5"/>
<path d="M114.927 106.235C118.362 106.227 121.141 103.436 121.133 100.001C121.126 96.5655 118.334 93.7867 114.899 93.7943C111.464 93.8019 108.685 96.5931 108.692 100.028C108.7 103.464 111.491 106.243 114.927 106.235Z" fill="white" fill-opacity="0.5"/>
<path d="M106.946 115.084C110.013 115.078 112.494 112.586 112.487 109.519C112.481 106.451 109.989 103.971 106.922 103.977C103.855 103.984 101.374 106.476 101.38 109.543C101.387 112.61 103.879 115.091 106.946 115.084Z" fill="white" fill-opacity="0.5"/>
<path d="M97.1872 122.095C99.886 122.089 102.069 119.896 102.063 117.197C102.057 114.499 99.8643 112.316 97.1656 112.322C94.4668 112.328 92.2839 114.52 92.2899 117.219C92.2959 119.918 94.4885 122.101 97.1872 122.095Z" fill="white" fill-opacity="0.5"/>
<path d="M86.056 126.935C88.3865 126.93 90.2714 125.036 90.2663 122.706C90.2611 120.375 88.3677 118.49 86.0373 118.496C83.7069 118.501 81.8219 120.394 81.8271 122.724C81.8323 125.055 83.7256 126.94 86.056 126.935Z" fill="white" fill-opacity="0.5"/>
<path d="M74.0301 129.355C75.9922 129.35 77.5792 127.756 77.5749 125.794C77.5705 123.832 75.9764 122.245 74.0143 122.249C72.0523 122.254 70.4652 123.848 70.4695 125.81C70.4739 127.772 72.068 129.359 74.0301 129.355Z" fill="white" fill-opacity="0.5"/>
<path d="M61.6135 129.242C63.2072 129.238 64.4963 127.943 64.4928 126.349C64.4893 124.756 63.1944 123.467 61.6007 123.47C60.0069 123.474 58.7178 124.769 58.7214 126.362C58.7249 127.956 60.0197 129.245 61.6135 129.242Z" fill="white" fill-opacity="0.5"/>
<path d="M49.3428 126.584C50.5682 126.581 51.5594 125.585 51.5566 124.36C51.5539 123.134 50.5583 122.143 49.3329 122.146C48.1075 122.149 47.1163 123.144 47.1191 124.37C47.1218 125.595 48.1174 126.586 49.3428 126.584Z" fill="white" fill-opacity="0.5"/>
<path d="M37.7548 121.953C38.8999 121.951 39.8262 121.02 39.8236 119.875C39.8211 118.73 38.8907 117.804 37.7456 117.806C36.6004 117.809 35.6742 118.739 35.6767 119.884C35.6793 121.03 36.6096 121.956 37.7548 121.953Z" fill="white" fill-opacity="0.5"/>
<path d="M69.685 12.6179C73.1204 12.6103 75.8992 9.81914 75.8916 6.38372C75.8839 2.9483 73.0928 0.169518 69.6574 0.177132C66.222 0.184746 63.4432 2.97588 63.4508 6.4113C63.4584 9.84672 66.2495 12.6255 69.685 12.6179Z" fill="white" fill-opacity="0.5"/>
<path d="M82.3732 14.2552C85.4269 14.2484 87.8969 11.7674 87.8902 8.7137C87.8834 5.65999 85.4024 3.18996 82.3487 3.19673C79.295 3.2035 76.8249 5.6845 76.8317 8.73821C76.8385 11.7919 79.3195 14.2619 82.3732 14.2552Z" fill="white" fill-opacity="0.5"/>
<path d="M94.2439 18.5531C96.9159 18.5472 99.0772 16.3763 99.0713 13.7043C99.0653 11.0323 96.8945 8.87105 94.2225 8.87697C91.5505 8.88289 89.3892 11.0538 89.3951 13.7258C89.401 16.3978 91.5719 18.559 94.2439 18.5531Z" fill="white" fill-opacity="0.5"/>
<path d="M104.787 25.2817C107.077 25.2766 108.93 23.4159 108.924 21.1256C108.919 18.8353 107.059 16.9828 104.768 16.9879C102.478 16.993 100.626 18.8537 100.631 21.144C100.636 23.4343 102.496 25.2868 104.787 25.2817Z" fill="white" fill-opacity="0.5"/>
<path d="M113.511 34.0792C115.42 34.0749 116.963 32.5243 116.959 30.6157C116.955 28.7072 115.404 27.1634 113.496 27.1676C111.587 27.1719 110.043 28.7225 110.048 30.6311C110.052 32.5396 111.602 34.0834 113.511 34.0792Z" fill="white" fill-opacity="0.5"/>
<path d="M120.018 44.5153C121.545 44.5119 122.78 43.2714 122.777 41.7445C122.773 40.2177 121.533 38.9827 120.006 38.9861C118.479 38.9894 117.244 40.2299 117.247 41.7568C117.251 43.2837 118.491 44.5187 120.018 44.5153Z" fill="white" fill-opacity="0.5"/>
<path d="M123.99 56.0901C125.135 56.0875 126.061 55.1572 126.058 54.012C126.056 52.8669 125.126 51.9406 123.98 51.9432C122.835 51.9457 121.909 52.8761 121.912 54.0212C121.914 55.1664 122.844 56.0926 123.99 56.0901Z" fill="white" fill-opacity="0.5"/>
<path d="M125.249 68.925C126.394 68.9225 127.321 67.9921 127.318 66.847C127.315 65.7018 126.385 64.7756 125.24 64.7781C124.095 64.7807 123.169 65.711 123.171 66.8562C123.174 68.0013 124.104 68.9276 125.249 68.925Z" fill="white" fill-opacity="0.5"/>
<path d="M51.7494 109.038C54.1505 109.033 56.0926 107.082 56.0873 104.681C56.082 102.28 54.1312 100.338 51.7301 100.343C49.329 100.348 47.3869 102.299 47.3922 104.7C47.3975 107.101 49.3483 109.043 51.7494 109.038Z" fill="white" fill-opacity="0.5"/>
<path d="M43.851 104.975C45.9975 104.971 47.7337 103.227 47.7289 101.08C47.7242 98.9338 45.9803 97.1976 43.8338 97.2023C41.6873 97.2071 39.9511 98.951 39.9559 101.097C39.9606 103.244 41.7045 104.98 43.851 104.975Z" fill="white" fill-opacity="0.5"/>
<path d="M36.8708 99.3431C38.7624 99.3389 40.2925 97.802 40.2883 95.9104C40.2841 94.0188 38.7472 92.4887 36.8556 92.4929C34.964 92.4971 33.4339 94.034 33.4381 95.9256C33.4423 97.8172 34.9792 99.3473 36.8708 99.3431Z" fill="white" fill-opacity="0.5"/>
<path d="M31.0857 92.4012C32.7224 92.3976 34.0464 91.0677 34.0427 89.431C34.0391 87.7942 32.7093 86.4703 31.0725 86.4739C29.4358 86.4775 28.1118 87.8073 28.1155 89.4441C28.1191 91.0809 29.4489 92.4048 31.0857 92.4012Z" fill="white" fill-opacity="0.5"/>
<path d="M26.756 84.4103C28.1382 84.4072 29.2561 83.2843 29.2531 81.9022C29.25 80.52 28.1271 79.402 26.7449 79.4051C25.3628 79.4082 24.2448 80.5311 24.2479 81.9132C24.2509 83.2954 25.3739 84.4134 26.756 84.4103Z" fill="white" fill-opacity="0.5"/>
<path d="M24.0787 75.6886C25.206 75.6861 26.1178 74.7703 26.1153 73.643C26.1128 72.5157 25.1969 71.6038 24.0696 71.6063C22.9423 71.6088 22.0305 72.5247 22.033 73.652C22.0355 74.7793 22.9513 75.6911 24.0787 75.6886Z" fill="white" fill-opacity="0.5"/>
<path d="M23.1554 66.5949C24.0279 66.593 24.7336 65.8841 24.7317 65.0117C24.7297 64.1392 24.0209 63.4335 23.1484 63.4355C22.276 63.4374 21.5703 64.1462 21.5722 65.0187C21.5742 65.8911 22.283 66.5968 23.1554 66.5949Z" fill="white" fill-opacity="0.5"/>
<path d="M24.0178 57.4961C24.6356 57.4947 25.1354 56.9928 25.134 56.375C25.1326 55.7571 24.6307 55.2574 24.0128 55.2588C23.395 55.2601 22.8953 55.7621 22.8966 56.3799C22.898 56.9977 23.4 57.4975 24.0178 57.4961Z" fill="white" fill-opacity="0.5"/>
<path d="M106.448 61.246C108.849 61.2407 110.791 59.2899 110.785 56.8888C110.78 54.4877 108.829 52.5456 106.428 52.5509C104.027 52.5562 102.085 54.507 102.09 56.9081C102.096 59.3092 104.046 61.2514 106.448 61.246Z" fill="white" fill-opacity="0.5"/>
<path d="M107.207 69.4261C109.35 69.4214 111.084 67.6797 111.08 65.5359C111.075 63.3921 109.333 61.658 107.189 61.6628C105.046 61.6675 103.311 63.4093 103.316 65.5531C103.321 67.6969 105.063 69.4309 107.207 69.4261Z" fill="white" fill-opacity="0.5"/>
<path d="M106.178 77.5776C108.064 77.5734 109.59 76.0409 109.585 74.1547C109.581 72.2684 108.049 70.7426 106.162 70.7468C104.276 70.751 102.75 72.2835 102.755 74.1698C102.759 76.0561 104.291 77.5818 106.178 77.5776Z" fill="white" fill-opacity="0.5"/>
<path d="M103.398 85.3336C105.026 85.33 106.344 84.0067 106.34 82.3779C106.337 80.7492 105.013 79.4317 103.385 79.4354C101.756 79.439 100.438 80.7623 100.442 82.391C100.446 84.0198 101.769 85.3372 103.398 85.3336Z" fill="white" fill-opacity="0.5"/>
<path d="M98.9782 92.3359C100.35 92.3329 101.459 91.2187 101.456 89.8472C101.453 88.4758 100.339 87.3665 98.9672 87.3695C97.5958 87.3725 96.4865 88.4868 96.4895 89.8582C96.4926 91.2297 97.6068 92.339 98.9782 92.3359Z" fill="white" fill-opacity="0.5"/>
<path d="M93.1147 98.2804C94.2287 98.2779 95.1297 97.3729 95.1272 96.259C95.1247 95.145 94.2197 94.244 93.1058 94.2465C91.9919 94.249 91.0909 95.154 91.0933 96.2679C91.0958 97.3818 92.0008 98.2828 93.1147 98.2804Z" fill="white" fill-opacity="0.5"/>
<path d="M86.0663 102.894C86.9227 102.892 87.6154 102.196 87.6135 101.34C87.6116 100.483 86.9158 99.7906 86.0594 99.7925C85.203 99.7944 84.5103 100.49 84.5122 101.347C84.5141 102.203 85.2099 102.896 86.0663 102.894Z" fill="white" fill-opacity="0.5"/>
<path d="M78.1221 106.302C78.9226 106.3 79.57 105.65 79.5682 104.85C79.5665 104.049 78.9161 103.402 78.1157 103.404C77.3153 103.405 76.6678 104.056 76.6696 104.856C76.6714 105.657 77.3217 106.304 78.1221 106.302Z" fill="white" fill-opacity="0.5"/>
<path d="M37.8179 37.3364C40.219 37.331 42.1611 35.3803 42.1558 32.9792C42.1505 30.5781 40.1997 28.6359 37.7986 28.6412C35.3975 28.6466 33.4554 30.5973 33.4607 32.9984C33.466 35.3995 35.4168 37.3417 37.8179 37.3364Z" fill="white" fill-opacity="0.5"/>
<path d="M45.2398 31.7331C47.3742 31.7284 49.1007 29.9942 49.0959 27.8598C49.0912 25.7254 47.3571 23.9989 45.2226 24.0036C43.0882 24.0084 41.3617 25.7425 41.3665 27.8769C41.3712 30.0114 43.1053 31.7378 45.2398 31.7331Z" fill="white" fill-opacity="0.5"/>
<path d="M53.5726 27.8482C55.4402 27.8441 56.9507 26.3268 56.9466 24.4593C56.9425 22.5917 55.4252 21.0811 53.5576 21.0853C51.6901 21.0894 50.1795 22.6067 50.1836 24.4743C50.1878 26.3418 51.7051 27.8524 53.5726 27.8482Z" fill="white" fill-opacity="0.5"/>
<path d="M62.4492 25.8208C64.0498 25.8173 65.3445 24.5168 65.341 22.9162C65.3374 21.3155 64.037 20.0208 62.4363 20.0243C60.8357 20.0279 59.541 21.3283 59.5445 22.929C59.5481 24.5297 60.8485 25.8244 62.4492 25.8208Z" fill="white" fill-opacity="0.5"/>
<path d="M71.4508 25.7141C72.7848 25.7112 73.8638 24.6274 73.8608 23.2934C73.8579 21.9594 72.774 20.8804 71.4401 20.8833C70.1061 20.8863 69.0271 21.9701 69.03 23.3041C69.033 24.6381 70.1168 25.7171 71.4508 25.7141Z" fill="white" fill-opacity="0.5"/>
<path d="M80.1655 27.5138C81.2326 27.5115 82.0957 26.6445 82.0933 25.5774C82.091 24.5103 81.224 23.6472 80.1569 23.6495C79.0898 23.6519 78.2266 24.5189 78.229 25.586C78.2314 26.6531 79.0984 27.5162 80.1655 27.5138Z" fill="white" fill-opacity="0.5"/>
<path d="M88.1905 31.1303C88.9909 31.1285 89.6384 30.4782 89.6366 29.6778C89.6348 28.8773 88.9845 28.2299 88.1841 28.2317C87.3836 28.2334 86.7362 28.8837 86.738 29.6842C86.7397 30.4846 87.39 31.1321 88.1905 31.1303Z" fill="white" fill-opacity="0.5"/>
<path d="M95.1564 36.851C95.9569 36.8492 96.6043 36.1989 96.6025 35.3985C96.6008 34.598 95.9504 33.9506 95.15 33.9524C94.3496 33.9541 93.7021 34.6045 93.7039 35.4049C93.7057 36.2053 94.356 36.8528 95.1564 36.851Z" fill="white" fill-opacity="0.5"/>
<path d="M31.9298 116.504L24.1725 130.778L24.8114 96.1208C24.9573 93.9192 25.7003 91.799 26.9606 89.9879C27.4951 89.175 28.1213 88.4263 28.8269 87.7566C29.7395 86.9854 30.9579 86.0089 31.793 85.6804C32.8288 85.2697 32.8607 83.8323 31.8979 83.5813C30.9351 83.3303 28.0512 84.389 25.5415 86.9626C23.0318 89.5362 23.5976 83.9737 23.771 81.9432C23.9444 79.9126 24.1771 73.6155 23.593 73.0861C22.7397 72.3058 21.7221 73.0861 21.5989 75.1304C21.4757 77.1747 20.6863 83.23 19.6049 83.1159C18.5234 83.0018 19.5684 72.68 19.5684 72.68C19.5684 72.68 20.1433 70.4989 18.9158 70.3255C16.6982 70.0106 16.4289 81.0442 16.4289 82.0983C16.4289 82.8284 15.2653 82.7463 15.3064 81.9614C15.3475 81.1766 16.5567 71.6761 14.3025 71.3385C12.5731 71.0784 13.9968 80.4145 12.6552 82.2899C11.3137 84.1654 12.2993 75.0802 10.6338 74.8977C10.0177 74.8293 9.54318 74.8658 9.72114 80.1316C9.82153 82.9653 11.0901 87.1999 10.8619 92.6665L10.8072 94.0811C9.49755 104.307 3.59744 157.956 23.9079 156.5C23.9079 156.5 39.3175 154.36 47.8825 126.315L31.9298 116.504Z" fill="#FFBE9D"/>
<path d="M14.548 90.3154C14.548 90.3656 14.8902 90.4067 15.3967 90.6713C16.0795 91.0235 16.6125 91.61 16.898 92.3232L17.0577 92.7293L17.2357 92.3323C17.4915 91.7658 17.8487 91.2509 18.2897 90.8128C19.1393 89.9485 20.2306 89.3615 21.42 89.129C22.3327 88.9419 22.9259 89.0469 22.935 88.9739C22.436 88.7898 21.8955 88.7487 21.3744 88.8552C20.0943 89.0212 18.9077 89.6145 18.0068 90.539C17.538 91.0134 17.1633 91.5724 16.9025 92.1863H17.2402C17.0766 91.7986 16.838 91.447 16.538 91.1518C16.2381 90.8565 15.8828 90.6235 15.4925 90.466C15.2018 90.3164 14.8708 90.2636 14.548 90.3154Z" fill="#EB996E"/>
<path d="M124.569 123.169L133.198 139.423L141.078 154.582H123.259L112.217 131.826" fill="#FFBE9D"/>
<path d="M56.9908 154.58C58.6882 148.799 57.5748 147.886 55.7496 142.146L51.8253 129.826L43.2375 142.511L24.9805 127.836L31.0357 114.179C42.3477 88.543 60.696 90.3637 60.696 90.3637L84.0774 85.901C84.0774 85.901 99.0353 84.532 108.718 93.3206C111.876 96.1862 126.218 122.004 126.218 122.004L108.595 134.352L104.274 126.983L103.078 136.999C102.138 142.475 102.198 149.442 104.274 154.58" fill="#455A64"/>
<path d="M54.9515 99.0913C54.9515 99.1552 51.1048 100.004 46.3363 100.985C41.5678 101.966 37.6664 102.71 37.6664 102.646C37.6664 102.582 41.5085 101.733 46.2816 100.752C51.0546 99.7712 54.9378 99.0183 54.9515 99.0913Z" fill="#FAFAFA"/>
<path d="M106.364 91.7074C106.364 91.7759 102.59 92.5288 97.9041 93.3912C93.2178 94.2537 89.4122 94.9062 89.3985 94.8377C89.3848 94.7693 93.1767 94.0209 97.8631 93.1585C102.549 92.2961 106.355 91.6436 106.364 91.7074Z" fill="#FAFAFA"/>
<path d="M113.568 100.054C113.568 100.118 107.696 101.423 100.422 103.006C93.1484 104.589 87.2437 105.79 87.23 105.744C87.2163 105.698 93.0982 104.375 100.372 102.792C107.645 101.208 113.536 100.004 113.568 100.054Z" fill="#FAFAFA"/>
<path d="M120.779 112.917L120.532 112.967L119.811 113.094L117.023 113.551L106.77 115.23L72.9206 120.66C59.6876 122.755 47.7185 124.621 39.0394 125.926C34.7045 126.583 31.1909 127.094 28.7587 127.432C27.5449 127.596 26.6004 127.719 25.957 127.788C25.6364 127.858 25.3068 127.876 24.9805 127.842C25.3067 127.837 25.632 127.804 25.9524 127.742L28.745 127.341L39.0166 125.762L72.8841 120.423L106.729 115.061L116.996 113.455L119.788 113.031L120.518 112.926L120.779 112.917Z" fill="#FAFAFA"/>
<path d="M103.557 132.895C103.557 132.959 92.6874 134.433 79.2673 136.181C65.8472 137.928 54.9596 139.293 54.9504 139.229C54.9413 139.165 65.8152 137.696 79.2399 135.943C92.6646 134.191 103.529 132.831 103.557 132.895Z" fill="#FAFAFA"/>
<path d="M101.479 149.978C101.479 150.046 91.7505 150.037 79.7586 149.978C67.7667 149.918 58.0336 149.795 58.0336 149.727C58.0336 149.658 67.7576 149.667 79.7586 149.727C91.7596 149.786 101.479 149.914 101.479 149.978Z" fill="#FAFAFA"/>
<path d="M61.6384 109.651C61.5361 109.684 61.4306 109.707 61.3236 109.719L60.411 109.87L57.0799 110.399C54.2644 110.855 50.3812 111.499 46.1284 112.297C41.8756 113.096 37.9969 113.894 35.2089 114.492L31.8915 115.199L30.9788 115.386C30.8745 115.415 30.7674 115.432 30.6594 115.437C30.7579 115.395 30.8603 115.362 30.9652 115.341L31.8915 115.108C32.6672 114.916 33.7897 114.652 35.1769 114.328C37.9558 113.684 41.8071 112.863 46.0873 112.046C50.3675 111.229 54.2553 110.627 57.0753 110.221C58.4899 110.016 59.6307 109.861 60.4246 109.765L61.3373 109.66C61.4371 109.647 61.538 109.644 61.6384 109.651Z" fill="#FAFAFA"/>
<path d="M81.7063 36.0137C81.145 42.7762 90.2073 47.5766 89.3997 54.3118C89.1761 56.1827 88.2041 58.2178 89.1943 59.824C90.3807 61.7542 93.2692 61.3481 95.3774 62.1832C97.9738 63.2099 99.3016 66.3356 98.9092 69.0963C98.5168 71.857 96.728 74.2435 94.6244 76.0824C91.3036 78.9858 87.1524 80.7693 82.7603 81.1794C80.7252 81.362 78.5988 81.2159 76.7826 80.2668C74.9665 79.3177 73.5291 77.4879 73.52 75.4436" fill="#263238"/>
<path d="M82.6022 89.7796C81.3976 84.0072 80.234 77.9155 80.234 77.9155C80.234 77.9155 87.4026 75.1046 86.887 65.0885C86.3988 55.5334 80.3526 34.5156 80.3526 34.5156C68.7395 32.4212 56.6883 38.0064 50.8749 48.205L61.4294 94.9039C62.6523 100.325 68.2741 103.574 74.0829 102.237C79.9374 100.841 83.7476 95.2781 82.6022 89.7796Z" fill="#FFBE9D"/>
<path d="M81.1379 51.7707C81.2082 52.0941 81.1499 52.4321 80.9753 52.7132C80.8007 52.9943 80.5235 53.1964 80.2024 53.2766C80.0469 53.323 79.8837 53.3377 79.7224 53.32C79.5612 53.3022 79.4051 53.2523 79.2634 53.1732C79.1217 53.094 78.9974 52.9873 78.8977 52.8593C78.798 52.7313 78.7249 52.5846 78.6829 52.4278C78.6104 52.1069 78.6649 51.7704 78.8351 51.4889C79.0052 51.2073 79.2777 51.0025 79.5955 50.9174C79.7528 50.8682 79.9184 50.8514 80.0823 50.868C80.2462 50.8846 80.4051 50.9343 80.5493 51.0141C80.6935 51.0939 80.82 51.202 80.9211 51.3321C81.0223 51.4621 81.096 51.6114 81.1379 51.7707Z" fill="#263238"/>
<path d="M82.5415 50.5188C82.4229 50.7151 81.3323 50.2177 79.9953 50.5188C78.6583 50.82 77.8187 51.6824 77.6407 51.5501C77.554 51.4908 77.6407 51.1668 78.0103 50.7652C78.4986 50.2433 79.136 49.8848 79.8356 49.7385C80.5299 49.5884 81.254 49.6635 81.9027 49.953C82.3864 50.1675 82.5871 50.4321 82.5415 50.5188Z" fill="#263238"/>
<path d="M67.4826 54.9073C67.5551 55.2281 67.5006 55.5646 67.3305 55.8462C67.1603 56.1278 66.8878 56.3326 66.57 56.4176C66.4142 56.4633 66.2508 56.4774 66.0895 56.4591C65.9282 56.4407 65.7722 56.3903 65.6306 56.3108C65.4891 56.2313 65.3648 56.1243 65.2652 55.9962C65.1656 55.868 65.0926 55.7211 65.0505 55.5643C64.9781 55.244 65.0328 54.9081 65.203 54.6273C65.3732 54.3465 65.6457 54.1426 65.9631 54.0585C66.1186 54.0121 66.2818 53.9973 66.4431 54.0151C66.6044 54.0329 66.7605 54.0828 66.9021 54.1619C67.0438 54.241 67.1682 54.3478 67.2679 54.4758C67.3676 54.6038 67.4406 54.7505 67.4826 54.9073Z" fill="#263238"/>
<path d="M68.8491 53.6387C68.7305 53.8304 67.6399 53.333 66.3029 53.6387C64.9659 53.9444 64.1309 54.8023 63.9483 54.67C63.8616 54.6152 63.9483 54.2867 64.318 53.8851C64.8082 53.3658 65.4448 53.0077 66.1432 52.8584C66.8391 52.7101 67.5641 52.7852 68.2149 53.0729C68.7168 53.2873 68.9221 53.5474 68.8491 53.6387Z" fill="#263238"/>
<path d="M75.9618 62.2874C75.939 62.2099 76.7421 61.8904 78.0517 61.4341C78.3848 61.3246 78.6951 61.1923 78.7042 60.9459C78.6529 60.5862 78.4938 60.2505 78.2479 59.983L76.6873 57.5965C74.497 54.1879 72.8361 51.3588 72.9775 51.2721C73.119 51.1854 74.999 53.8776 77.1847 57.2817L78.7088 59.691C79.0075 60.06 79.1688 60.5213 79.1651 60.9961C79.141 61.1267 79.0874 61.2502 79.0083 61.3569C78.9292 61.4637 78.8268 61.551 78.7088 61.6121C78.5311 61.704 78.3425 61.773 78.1475 61.8174C76.8242 62.1779 75.9846 62.3604 75.9618 62.2874Z" fill="#263238"/>
<path d="M80.2555 77.9151C75.7138 78.9448 70.9756 78.6968 66.5662 77.1987C66.5662 77.1987 71.1293 83.1901 80.6343 80.2286L80.2555 77.9151Z" fill="#EB996E"/>
<path d="M76.0787 65.6251C75.7562 65.3591 75.3711 65.1796 74.9599 65.1038C74.5487 65.0279 74.125 65.0582 73.7287 65.1916C73.4387 65.2793 73.1698 65.4253 72.9383 65.6207C72.7068 65.8161 72.5177 66.0567 72.3826 66.3278C72.2499 66.5879 72.2005 66.8825 72.2414 67.1716C72.2822 67.4607 72.4112 67.7301 72.6108 67.9432C72.8741 68.1335 73.1877 68.242 73.5124 68.255C73.837 68.2679 74.1583 68.1849 74.436 68.0162C75.02 67.6626 75.5285 67.1974 75.9327 66.6473C76.058 66.5141 76.1584 66.3595 76.2293 66.191C76.2636 66.106 76.2714 66.0126 76.2519 65.9231C76.2324 65.8336 76.1863 65.752 76.1198 65.689" fill="#FF725E"/>
<path d="M72.2153 64.0403C72.4343 63.981 72.7446 65.4321 74.2048 66.2033C75.665 66.9744 77.1754 66.4816 77.2301 66.6596C77.2712 66.7463 76.9472 67.0155 76.2947 67.1706C75.4467 67.3639 74.5576 67.2507 73.785 66.8512C73.0437 66.4708 72.4804 65.8158 72.2153 65.026C72.0419 64.4465 72.1149 64.054 72.2153 64.0403Z" fill="#263238"/>
<path d="M56.7055 58.1133C55.6189 58.111 54.5528 58.4095 53.6254 58.9757C52.7025 59.5521 52.046 60.4711 51.8002 61.5311C51.6076 62.6078 51.8328 63.7175 52.4299 64.634C53.0262 65.5416 53.8183 66.3041 54.7479 66.8654C55.3853 67.3146 56.1205 67.6055 56.8926 67.7141C57.2791 67.7659 57.6724 67.7208 58.0371 67.583C58.4019 67.4452 58.7268 67.219 58.9825 66.9247" fill="#FFBE9D"/>
<path d="M57.4437 64.5228C57.5715 64.5228 57.2521 65.2575 56.2528 65.2027C55.7119 65.1352 55.2197 64.8563 54.8838 64.427C54.4869 63.9534 54.1876 63.406 54.0031 62.8162C53.7904 62.1919 53.8082 61.512 54.0533 60.8997C54.1549 60.6388 54.3151 60.4047 54.5217 60.2155C54.7282 60.0264 54.9754 59.8874 55.2443 59.8091C56.2163 59.581 56.6589 60.1924 56.5539 60.2335C56.449 60.2746 56.0383 60.0601 55.436 60.3476C54.8336 60.6351 54.423 61.5614 54.7789 62.5789C55.1348 63.5965 55.7371 64.5091 56.3577 64.6323C56.9783 64.7556 57.3799 64.4498 57.4437 64.5228Z" fill="#EB996E"/>
<path d="M77.5201 32.3781C78.2249 33.7647 78.4618 35.3422 78.1953 36.8746C77.9288 38.407 77.1732 39.812 76.0417 40.8792C73.7236 42.9645 70.3652 43.2611 67.3717 44.1327C64.3783 45.0042 61.1705 47.2082 61.3074 50.3248C61.3895 52.214 62.7311 54.0301 62.2474 55.8553C61.6861 57.9954 58.9528 58.9081 58.1816 60.9797C56.945 64.3108 61.4716 67.3088 61.2709 70.8543C61.1522 72.9579 59.3726 74.6736 59.1764 76.7864C58.8935 79.7706 61.823 82.942 60.194 85.4563C58.9437 87.3911 56.0324 87.1127 53.8969 86.2731C51.7613 85.4335 49.425 84.2379 47.2849 85.0776C45.9981 85.5795 45.09 86.7294 43.9447 87.5051C42.8988 88.215 41.6658 88.5987 40.4017 88.6075C39.1376 88.6164 37.8994 88.25 36.8436 87.5548C35.7879 86.8596 34.9621 85.8668 34.4708 84.7021C33.9795 83.5374 33.8449 82.2531 34.0838 81.0118C34.4306 79.1866 35.5349 77.6214 36.4247 75.9924C37.3145 74.3634 38.0218 72.4605 37.4879 70.6855C37.0726 69.3165 36.0049 68.2853 35.1561 67.1445C34.3074 66.0037 33.6457 64.5025 34.1933 63.1928C35.1516 60.8885 38.8249 61.0892 40.1573 58.9811C41.9826 56.0835 37.748 52.3965 38.834 49.1476C40.066 45.4697 46.5913 46.1268 47.8325 42.4489C48.2888 41.1119 47.8325 39.638 47.9557 38.2326C48.2797 35.0384 51.6518 32.9622 54.8323 32.41C58.0128 31.8579 61.3347 32.2686 64.4559 31.4472C66.1625 30.9909 67.7596 30.1832 69.4388 29.622C71.1181 29.0607 72.9798 28.7824 74.6408 29.3984C76.3018 30.0144 77.6296 31.7529 77.2965 33.5052" fill="#263238"/>
<path d="M76.0853 39.235C77.0088 40.8331 78.2859 42.1986 79.8188 43.2268C81.3517 44.2551 83.0996 44.9188 84.9286 45.167C84.8693 42.7212 84.7415 40.2571 84.0798 37.9071C83.4182 35.5571 82.177 33.2801 80.2605 31.788C78.344 30.2958 75.6335 29.6752 73.3611 30.565" fill="#263238"/>
<path d="M87.8309 86.136C88.6568 86.2456 93.2747 113.332 75.5469 116.339C58.7683 119.191 53.5801 91.3608 53.5801 91.3608C53.5801 91.3608 64.8829 83.0696 87.8309 86.136Z" fill="#FFBE9D"/>
<path d="M77.6785 49.0524C77.7835 49.2486 78.6961 48.9566 79.8323 48.8288C80.9686 48.701 81.9177 48.7649 81.9724 48.5504C82.0272 48.336 81.0598 47.8979 79.7411 48.0531C78.4223 48.2082 77.5736 48.8972 77.6785 49.0524Z" fill="#263238"/>
<path d="M64.124 51.1522C64.1651 51.1157 64.1605 51.0381 64.124 50.9149V51.1203C64.7792 50.7873 65.4716 50.5331 66.1865 50.3628C67.446 50.089 68.5137 50.3902 68.6004 50.1848C68.6369 50.089 68.4088 49.8745 67.9433 49.7285C67.3278 49.5189 66.6668 49.4811 66.0314 49.619C65.6109 49.6832 65.2079 49.8325 64.847 50.0576C64.4861 50.2828 64.1749 50.5792 63.9324 50.9286L63.8502 51.0929L63.9187 51.1294C64.0099 51.1796 64.0875 51.1796 64.124 51.1522Z" fill="#263238"/>
<path d="M56.47 50.3646C55.4353 50.3773 54.4011 50.3117 53.3762 50.1684C52.3442 50.1051 51.3189 49.9602 50.3098 49.7349C51.3445 49.7224 52.3788 49.788 53.4036 49.9311C54.4352 49.998 55.4603 50.143 56.47 50.3646Z" fill="#FF725E"/>
<path d="M54.9667 52.0927C54.1983 52.2602 53.4079 52.3033 52.6258 52.2205C51.8409 52.2186 51.0613 52.0907 50.3169 51.8417C50.3169 51.7779 51.3619 51.9148 52.6395 51.9832C53.9172 52.0517 54.9622 52.0197 54.9667 52.0927Z" fill="#FF725E"/>
<path d="M77.6724 37.9058C77.654 38.0035 77.6234 38.0986 77.5811 38.1887C77.4697 38.4524 77.3155 38.696 77.1248 38.9096C76.363 39.6534 75.3585 40.0974 74.2957 40.1599C73.5746 40.2406 72.8461 40.2283 72.1282 40.1234C71.357 40.0276 70.5402 39.8862 69.6824 39.8223C68.7913 39.721 67.8888 39.8192 67.0403 40.1097C66.1572 40.4909 65.394 41.1044 64.8318 41.8848C64.2066 42.6605 63.6819 43.491 63.0658 44.2257C62.7622 44.5887 62.4245 44.9218 62.0574 45.2204C61.6966 45.4992 61.3008 45.7293 60.8801 45.9049C60.1004 46.1948 59.2931 46.4043 58.4708 46.5301C57.7661 46.6379 57.0716 46.8043 56.3946 47.0274C55.4135 47.3354 54.574 47.9824 54.0263 48.8527C53.8572 49.1891 53.7534 49.5545 53.7206 49.9296C53.7076 49.8311 53.7076 49.7314 53.7206 49.633C53.7495 49.3477 53.8283 49.0697 53.9533 48.8116C54.4814 47.8844 55.3326 47.1842 56.3444 46.8449C57.0279 46.6085 57.73 46.4299 58.4434 46.311C59.2496 46.1819 60.0403 45.9693 60.8025 45.6768C61.6257 45.3193 62.3459 44.7607 62.897 44.0523C63.4993 43.3359 64.0195 42.5008 64.6538 41.7114C65.248 40.9072 66.0469 40.2769 66.9673 39.8862C67.8473 39.5884 68.7825 39.4902 69.7052 39.5987C71.4529 39.7538 72.9815 40.1691 74.2683 39.9911C75.305 39.9559 76.2959 39.555 77.0655 38.8595C77.3161 38.575 77.5208 38.2532 77.6724 37.9058Z" fill="#455A64"/>
<path d="M39.5911 87.9209C39.7289 87.8919 39.8645 87.8538 39.9972 87.8068C40.3649 87.6381 40.6551 87.3365 40.8095 86.9626C41.063 86.3719 41.0761 85.7057 40.846 85.1055C40.627 84.3936 40.2026 83.6361 39.8786 82.7326C39.046 80.6269 38.8199 78.33 39.2261 76.1024C39.5036 74.7915 40.0746 73.5606 40.8962 72.5021C41.3371 71.9467 41.8531 71.4553 42.4294 71.0419C43.029 70.633 43.6755 70.2975 44.355 70.0426C45.0197 69.8054 45.6375 69.4533 46.1803 69.0022C46.4211 68.7726 46.6088 68.4931 46.7302 68.1833C46.8515 67.8736 46.9037 67.541 46.883 67.2089C46.8054 65.881 46.0799 64.6627 46.1027 63.3485C46.1153 62.7101 46.2812 62.0841 46.5864 61.5233C46.8697 61.0082 47.2195 60.5326 47.6268 60.1087C48.3622 59.3687 49.1457 58.6782 49.9722 58.0416C51.4324 56.8369 52.3405 55.5273 52.5823 54.4961C52.7066 53.9617 52.7066 53.4059 52.5823 52.8716C52.6002 52.9043 52.6125 52.9398 52.6188 52.9765C52.6188 53.045 52.669 53.1499 52.6964 53.2868C52.7628 53.6963 52.7489 54.1148 52.6553 54.5189C52.4991 55.1562 52.2184 55.7563 51.8294 56.2848C51.3215 56.9826 50.73 57.6155 50.0681 58.1694C49.2554 58.8105 48.4843 59.5024 47.7591 60.241C47.3673 60.6525 47.0299 61.1125 46.7552 61.61C46.47 62.1379 46.3136 62.7258 46.2989 63.3257C46.3222 63.9604 46.4407 64.5879 46.6503 65.1874C46.8798 65.8304 47.0329 66.4982 47.1066 67.177C47.1307 67.5427 47.0741 67.9092 46.9409 68.2507C46.8076 68.5921 46.6009 68.9001 46.3354 69.1528C45.7737 69.6243 45.1324 69.9921 44.4417 70.2388C43.7787 70.503 43.1492 70.8446 42.5663 71.2564C42.0074 71.6568 41.5068 72.1329 41.0787 72.671C40.2763 73.6995 39.7163 74.8958 39.4406 76.1709C39.0354 78.3592 39.2407 80.6168 40.0338 82.6961C40.344 83.6088 40.7593 84.3525 40.9738 85.0918C41.0776 85.4348 41.1269 85.7921 41.1198 86.1504C41.1058 86.4546 41.0297 86.7528 40.8962 87.0265C40.7232 87.4125 40.4076 87.7167 40.0155 87.8753C39.8796 87.9238 39.7342 87.9394 39.5911 87.9209Z" fill="#455A64"/>
</svg>
