<svg width="72" height="68" viewBox="0 0 72 68" fill="none" xmlns="http://www.w3.org/2000/svg">
<rect width="72" height="68" rx="8" fill="url(#paint0_linear_420_1009)"/>
<path d="M25.5823 64H52.3896C51.2625 58.6949 49.9154 49.966 50.495 47.8264C51.4504 44.1972 54.5395 41.4588 55.6989 38.5501C61.6027 23.7619 54.3898 10.8887 38.0724 9.1805C23.6657 7.67189 15.6515 15.8724 14.5259 24.3445C14.4056 25.2514 14.5259 26.1583 14.953 27.099C12.9733 30.197 8.41661 34.7668 8.02478 36.9579C7.78558 38.2757 9.33822 38.738 10.0896 39.2003C10.8057 39.4395 11.5909 39.2692 12.0678 39.8504C12.4098 40.2789 11.949 40.998 11.8462 41.5277C11.8301 42.4009 10.8057 42.828 10.9085 43.6337C11.0112 44.3175 11.5909 44.5919 12.1192 45.019C12.6827 45.4637 10.6869 46.3207 11.3341 47.1073C12.0003 47.8777 12.9733 48.7671 12.6314 49.8633C12.1368 51.5568 11.1814 53.3208 11.9666 54.6386C12.7517 55.9389 13.8435 56.7093 15.5327 57.0513C18.1771 57.0513 20.8392 57.1026 23.5013 57.1026C24.4215 57.9068 25.0701 60.5088 25.5823 64Z" fill="white"/>
<path d="M30.609 34.004H20.8365C20.246 34.004 19.7637 33.5168 19.7637 32.9247C19.7637 27.8348 22.1777 23.3159 25.9119 20.4609L27.2732 20.5092L32.638 28.0666L32.4006 29.0597L30.609 34.004Z" fill="#F06D81"/>
<path d="M32.4389 29.0681L25.9512 20.4721C28.5635 18.4654 31.8233 17.2832 35.3574 17.2832C38.8923 17.2832 42.1521 18.4654 44.7644 20.4721L45.0118 21.5994L39.112 29.1543L38.2759 29.0681H32.4389Z" fill="#FAE80C"/>
<path d="M38.3242 29.0597L44.8494 20.4609C48.6041 23.3159 51.0313 27.8348 51.0313 32.9247C51.0313 33.5168 50.5447 34.004 49.9527 34.004H40.1257L38.3242 29.0597Z" fill="#A4DEDF"/>
<path d="M40.1624 32.9325C40.1624 33.3029 40.1186 33.6608 40.0444 34.0043H30.5819C30.5087 33.6608 30.4648 33.3029 30.4648 32.9325C30.4648 31.3685 31.2197 29.9742 32.3814 29.0948C33.0343 28.5925 33.8254 28.259 34.6839 28.1523H35.9425C36.8018 28.259 37.5929 28.5925 38.2449 29.0948C39.4067 29.9742 40.1624 31.3685 40.1624 32.9325Z" fill="#CAE5DF"/>
<path d="M36.9854 32.8908C36.9854 33.7829 36.2742 34.5041 35.3966 34.5041C34.5198 34.5041 33.8086 33.7829 33.8086 32.8908C33.8086 31.649 34.7491 28.1759 35.1838 26.6414C35.2459 26.4242 35.5481 26.4242 35.6102 26.6414C36.044 28.1759 36.9854 31.649 36.9854 32.8908Z" fill="#567577"/>
<path d="M49.885 33.4001H40.7232C40.74 33.2203 40.7526 33.0422 40.7526 32.8642C40.7526 31.3312 40.0957 29.9309 39.0381 28.9464L44.8963 21.252C48.2672 24.0055 50.4218 28.1887 50.4218 32.8642C50.4218 33.159 50.1807 33.4001 49.885 33.4001ZM39.6421 33.4001H37.4514C37.4976 33.2245 37.5286 33.0439 37.5286 32.8558C37.5286 32.0351 37.1599 30.3744 36.755 28.8044C38.4669 29.3798 39.6782 31.0002 39.6782 32.8642C39.6782 33.0422 39.6631 33.2203 39.6421 33.4001ZM35.3799 33.936C34.7886 33.936 34.3056 33.4505 34.3056 32.8558C34.3056 32.1359 34.7004 30.287 35.3799 27.8141C36.0603 30.287 36.4543 32.1359 36.4543 32.8558C36.4543 33.4505 35.9721 33.936 35.3799 33.936ZM33.2312 32.8558C33.2312 33.0439 33.2631 33.2245 33.3093 33.4001H31.1186C31.0976 33.2203 31.0825 33.0422 31.0825 32.8642C31.0825 31.0002 32.2938 29.3798 34.0057 28.8044C33.6008 30.3744 33.2312 32.0351 33.2312 32.8558ZM26.7178 20.601C29.2294 18.8336 32.245 17.8559 35.3799 17.8559C38.603 17.8559 41.5892 18.8756 44.0403 20.6052L38.1838 28.2971C37.6546 27.9754 37.0692 27.7402 36.44 27.615C36.3241 27.19 36.2115 26.7943 36.1124 26.4482C36.02 26.1181 35.7243 25.8955 35.3799 25.8955C35.0364 25.8955 34.7398 26.1181 34.6474 26.4482C34.5492 26.7943 34.4358 27.19 34.3207 27.615C33.6907 27.7402 33.1052 27.9754 32.5768 28.2971L26.7178 20.601ZM35.3799 16.7832C30.6776 16.7832 26.2222 18.8252 23.1546 22.3843C22.9614 22.6086 22.9866 22.948 23.2108 23.1403C23.4376 23.3327 23.7753 23.3083 23.9685 23.084C24.5481 22.412 25.184 21.8005 25.8619 21.2478L31.7226 28.9464C30.665 29.9309 30.0081 31.3312 30.0081 32.8642C30.0081 33.0422 30.0207 33.2203 30.0375 33.4001H20.8756C20.58 33.4001 20.338 33.159 20.338 32.8642C20.338 29.9032 21.2007 27.0413 22.8312 24.5834C22.995 24.3382 22.9278 24.0055 22.68 23.84C22.433 23.6762 22.0987 23.7451 21.9357 23.9929C20.1877 26.6246 19.2637 29.6923 19.2637 32.8642C19.2637 33.752 19.9861 34.4719 20.8756 34.4719H33.9763C34.3543 34.8012 34.8406 35.0078 35.3799 35.0078C35.9192 35.0078 36.4064 34.8012 36.7844 34.4719H49.885C50.7746 34.4719 51.4962 33.752 51.4962 32.8642C51.4962 23.9971 44.2671 16.7832 35.3799 16.7832Z" fill="white"/>
<path d="M33.8106 22.1329C34.0867 22.1329 34.3118 21.8823 34.3118 21.575V21.018C34.3118 20.7115 34.0867 20.4609 33.8106 20.4609C33.5337 20.4609 33.3086 20.7115 33.3086 21.018V21.575C33.3086 21.8823 33.5337 22.1329 33.8106 22.1329Z" fill="#2B2C2D"/>
<path d="M36.9864 22.1329C37.2625 22.1329 37.4876 21.8823 37.4876 21.575V21.018C37.4876 20.7115 37.2625 20.4609 36.9864 20.4609C36.7103 20.4609 36.4844 20.7115 36.4844 21.018V21.575C36.4844 21.8823 36.7103 22.1329 36.9864 22.1329Z" fill="#2B2C2D"/>
<path d="M33.8086 24.3043C33.8086 24.5811 34.0462 24.8059 34.3376 24.8059H36.4555C36.7478 24.8059 36.9854 24.5811 36.9854 24.3043C36.9854 24.0284 36.7478 23.8027 36.4555 23.8027H34.3376C34.0462 23.8027 33.8086 24.0284 33.8086 24.3043Z" fill="#2B2C2D"/>
<path d="M44.0083 28.5971V28.0398C44.0083 27.7323 43.7447 27.4824 43.4226 27.4824C43.1005 27.4824 42.8379 27.7323 42.8379 28.0398V28.5971C42.8379 28.9037 43.1005 29.1544 43.4226 29.1544C43.7447 29.1544 44.0083 28.9037 44.0083 28.5971Z" fill="#2B2C2D"/>
<path d="M46.6828 29.1544C46.9597 29.1544 47.1848 28.9037 47.1848 28.5971V28.0398C47.1848 27.7323 46.9597 27.4824 46.6828 27.4824C46.4068 27.4824 46.1816 27.7323 46.1816 28.0398V28.5971C46.1816 28.9037 46.4068 29.1544 46.6828 29.1544Z" fill="#2B2C2D"/>
<path d="M45.9067 30.343C45.4961 30.8155 44.6987 30.8155 44.2881 30.343C44.0887 30.1151 43.7451 30.095 43.5228 30.2994C43.298 30.5046 43.2811 30.8591 43.4804 31.0879C43.891 31.5604 44.4806 31.8302 45.0974 31.8302C45.7141 31.8302 46.3029 31.5604 46.7143 31.0879C46.9137 30.8591 46.8967 30.5046 46.6719 30.2994C46.4497 30.095 46.1061 30.1151 45.9067 30.343Z" fill="#2B2C2D"/>
<path d="M24.1106 27.4824C23.8345 27.4824 23.6094 27.7323 23.6094 28.0398V28.5971C23.6094 28.9037 23.8345 29.1544 24.1106 29.1544C24.3867 29.1544 24.6126 28.9037 24.6126 28.5971V28.0398C24.6126 27.7323 24.3867 27.4824 24.1106 27.4824Z" fill="#2B2C2D"/>
<path d="M27.7903 28.5971V28.0398C27.7903 27.7323 27.5652 27.4824 27.2883 27.4824C27.0122 27.4824 26.7871 27.7323 26.7871 28.0398V28.5971C26.7871 28.9037 27.0122 29.1544 27.2883 29.1544C27.5652 29.1544 27.7903 28.9037 27.7903 28.5971Z" fill="#2B2C2D"/>
<path d="M24.0852 30.9003C23.8833 31.1291 23.9028 31.4818 24.125 31.6861C24.3497 31.8931 24.6932 31.8738 24.8916 31.6451C25.3054 31.1727 26.0975 31.1727 26.5104 31.6451C26.6181 31.7665 26.7648 31.8302 26.9132 31.8302C27.0421 31.8302 27.1736 31.7822 27.277 31.6861C27.5001 31.4818 27.517 31.1291 27.3177 30.9003C26.9065 30.428 26.3179 30.1582 25.7015 30.1582C25.085 30.1582 24.4956 30.428 24.0852 30.9003Z" fill="#2B2C2D"/>
<defs>
<linearGradient id="paint0_linear_420_1009" x1="36" y1="0" x2="36" y2="68" gradientUnits="userSpaceOnUse">
<stop stop-color="#32959D"/>
<stop offset="1" stop-color="#036696" stop-opacity="0.8"/>
</linearGradient>
</defs>
</svg>
