<svg width="63" height="71" viewBox="0 0 63 71" fill="none" xmlns="http://www.w3.org/2000/svg">
<path d="M22.6947 69.6422C20.087 68.1629 17.852 66.1255 16.1558 63.6813C14.4596 61.2372 13.3458 58.4491 12.897 55.5241L10.8122 41.9288C10.415 39.3367 9.49461 36.8486 8.10497 34.6106C6.71534 32.3727 4.8845 30.43 2.71995 28.8967L0 26.9702V28.4952L1.47025 29.5408C3.62924 31.0713 5.45623 33.0089 6.84461 35.2405C8.23298 37.472 9.15491 39.9529 9.55659 42.5382L11.6826 56.2289C12.1359 59.1471 13.2512 61.9279 14.9461 64.3656C16.641 66.8034 18.8721 68.8357 21.4744 70.3123L22.6888 70.9997V69.6451L22.6947 69.6422Z" fill="#EBEBEB"/>
<path d="M46.3392 36.5568L44.2544 22.9615C43.8574 20.3696 42.9374 17.8817 41.5483 15.6438C40.1592 13.4059 38.329 11.4631 36.1651 9.92939L33.4451 8L0 26.9705L2.71995 28.8999C4.8845 30.4332 6.71534 32.3758 8.10497 34.6138C9.49461 36.8517 10.415 39.3398 10.8122 41.932L12.897 55.5273C13.3458 58.4522 14.4596 61.2403 16.1558 63.6845C17.852 66.1286 20.087 68.166 22.6947 69.6454L56.1398 50.6778C53.5308 49.1989 51.2947 47.1614 49.5979 44.7166C47.9011 42.2718 46.7873 39.4827 46.3392 36.5568Z" fill="#FAFAFA"/>
<path d="M33.4275 8.34371L35.9916 10.1633C38.1193 11.6795 39.9197 13.5951 41.2886 15.7994C42.6575 18.0036 43.5675 20.4527 43.9662 23.0048L46.0481 36.6001C46.4836 39.4878 47.5615 42.2457 49.2051 44.6779C50.8486 47.11 53.0176 49.1565 55.5576 50.672L22.6947 69.3074C20.1578 67.8481 17.9864 65.8484 16.3406 63.4555C14.6949 61.0626 13.6166 58.3376 13.1852 55.4811L11.1033 41.8858C10.6931 39.2575 9.75634 36.7353 8.34712 34.4651C6.93789 32.195 5.08423 30.2219 2.89344 28.6601L0.541049 26.9936L33.4275 8.34371ZM33.4451 8L0 26.9705L2.71995 28.8999C4.8845 30.4332 6.71534 32.3758 8.10497 34.6138C9.49461 36.8517 10.415 39.3398 10.8122 41.932L12.897 55.5273C13.3458 58.4522 14.4596 61.2403 16.1558 63.6845C17.852 66.1286 20.087 68.166 22.6947 69.6454L56.1398 50.6778C53.5311 49.1992 51.2953 47.1621 49.5985 44.7179C47.9017 42.2736 46.7877 39.4851 46.3392 36.5597L44.2544 22.9644C43.8578 20.372 42.9379 17.8835 41.5488 15.6451C40.1597 13.4067 38.3293 11.4634 36.1651 9.92939L33.4451 8Z" fill="#E0E0E0"/>
<path d="M22.6946 69.6424L56.1397 50.6748V52.0294L22.6946 70.997V69.6424Z" fill="#F5F5F5"/>
<path d="M6.24821 25.948C5.07201 26.4362 4.95734 27.4355 5.96887 28.1865C6.54264 28.5641 7.19898 28.8036 7.88462 28.8854C8.57026 28.9672 9.26587 28.889 9.915 28.6573C11.0912 28.172 11.2088 27.1698 10.2091 26.4217C9.63406 26.0406 8.97522 25.799 8.28667 25.7166C7.59811 25.6343 6.89949 25.7136 6.24821 25.948Z" fill="#01818C"/>
<path d="M7.51289 27.1642C7.41517 27.1747 7.31656 27.1747 7.21884 27.1642C7.00055 27.1458 6.79083 27.0721 6.61015 26.9504C6.33963 26.7511 6.36903 26.4912 6.68367 26.3728C6.89 26.2967 7.1127 26.2739 7.33057 26.3063C7.54871 26.3274 7.75798 26.4019 7.93926 26.523C8.20978 26.7222 8.17744 26.9822 7.86575 27.1006C7.75266 27.1414 7.63333 27.1629 7.51289 27.1642Z" fill="white"/>
<path d="M9.16827 27.1378C8.82371 27.0868 8.47162 27.1226 8.14498 27.2418L7.85094 27.3689C7.31871 27.5941 7.26284 28.036 7.72744 28.3769L7.8921 28.4982C8.44879 28.5784 9.01675 28.534 9.55348 28.3682C10.0592 28.1776 10.368 27.9581 10.4121 27.6432L10.1857 27.4959C9.88308 27.2935 9.5329 27.1702 9.16827 27.1378Z" fill="white"/>
<path d="M11.6796 23.8163L21.5008 18.2448C21.6929 18.1451 21.9089 18.0983 22.1258 18.1095C22.3427 18.1207 22.5525 18.1894 22.7329 18.3083L22.8211 18.3776C22.8938 18.4234 22.9525 18.4878 22.9908 18.5638C23.0292 18.6398 23.0457 18.7246 23.0388 18.8092C23.0318 18.8937 23.0016 18.9748 22.9514 19.0438C22.9011 19.1128 22.8327 19.1671 22.7535 19.2008L12.9411 24.7839C12.751 24.8779 12.5381 24.918 12.3261 24.8996C12.1142 24.8812 11.9117 24.8052 11.7413 24.6799C11.7061 24.654 11.6708 24.628 11.6384 24.5991C11.5647 24.5602 11.5037 24.5016 11.4627 24.4301C11.4216 24.3585 11.402 24.2769 11.4063 24.1949C11.4107 24.1128 11.4386 24.0337 11.487 23.9666C11.5354 23.8996 11.6022 23.8475 11.6796 23.8163Z" fill="#455A64"/>
<path d="M13.8381 26.0637L18.7546 23.2764C18.794 23.2575 18.828 23.229 18.8533 23.1938C18.8787 23.1585 18.8945 23.1176 18.8995 23.0747C18.9045 23.0318 18.8984 22.9884 18.8818 22.9485C18.8652 22.9085 18.8387 22.8733 18.8046 22.8461L18.7163 22.7623C18.6374 22.6927 18.5384 22.649 18.4331 22.6371C18.3277 22.6252 18.2212 22.6457 18.1282 22.6959L13.2382 25.5033C13.1988 25.5227 13.1648 25.5514 13.1396 25.5869C13.1143 25.6224 13.0984 25.6636 13.0935 25.7066C13.0885 25.7497 13.0946 25.7933 13.1111 25.8334C13.1277 25.8736 13.1542 25.909 13.1882 25.9366L13.25 25.9943C13.329 26.0636 13.4278 26.1074 13.5329 26.1198C13.6381 26.1322 13.7446 26.1126 13.8381 26.0637Z" fill="#455A64"/>
<path opacity="0.2" d="M10.6238 31.3577L37.1235 16.324C37.2982 16.2277 37.5028 16.1977 37.6985 16.2398C37.8941 16.2818 38.0673 16.393 38.185 16.5522L38.2409 16.6302C38.294 16.7075 38.3302 16.7948 38.3471 16.8866C38.364 16.9784 38.3614 17.0726 38.3392 17.1633C38.3171 17.254 38.276 17.3392 38.2186 17.4135C38.1612 17.4878 38.0887 17.5496 38.0057 17.5948L11.4913 32.6401C11.3189 32.7344 11.1167 32.7615 10.9249 32.716C10.7331 32.6705 10.5658 32.5558 10.4562 32.3946L10.4003 32.3108C10.3461 32.2354 10.3086 32.1496 10.2904 32.059C10.2723 31.9685 10.2738 31.8751 10.2949 31.7851C10.316 31.6951 10.3562 31.6105 10.4129 31.5369C10.4695 31.4632 10.5414 31.4022 10.6238 31.3577Z" fill="black"/>
<path opacity="0.2" d="M12.2323 33.9228L38.7614 18.8833C38.8431 18.8352 38.9341 18.8045 39.0287 18.7931C39.1232 18.7817 39.2191 18.7898 39.3103 18.817C39.4014 18.8443 39.4857 18.8899 39.5578 18.9511C39.6299 19.0122 39.6881 19.0875 39.7288 19.1721L39.7699 19.2559C39.849 19.4369 39.8587 19.64 39.797 19.8274C39.7354 20.0149 39.6067 20.1741 39.4347 20.2755L12.8997 35.3352C12.8206 35.3823 12.7322 35.4123 12.6403 35.4232C12.5485 35.4341 12.4553 35.4256 12.367 35.3982C12.2788 35.3709 12.1975 35.3254 12.1286 35.2647C12.0597 35.204 12.0048 35.1295 11.9676 35.0463L11.9206 34.9539C11.83 34.7752 11.8118 34.5694 11.8696 34.378C11.9275 34.1867 12.0571 34.024 12.2323 33.9228Z" fill="black"/>
<path opacity="0.2" d="M13.4261 36.7097L39.9787 21.6529C40.0541 21.6041 40.1403 21.5737 40.2301 21.5642C40.3199 21.5547 40.4107 21.5665 40.4949 21.5984C40.5792 21.6303 40.6545 21.6815 40.7145 21.7477C40.7746 21.814 40.8177 21.8933 40.8403 21.9792L40.8755 22.1092C40.9248 22.3086 40.9087 22.5182 40.8295 22.708C40.7503 22.8979 40.612 23.0583 40.4345 23.1663L13.8936 38.2347C13.8199 38.2829 13.7353 38.3125 13.6472 38.3209C13.5591 38.3293 13.4702 38.3162 13.3885 38.2827C13.3068 38.2493 13.2347 38.1966 13.1787 38.1293C13.1227 38.0619 13.0844 37.9821 13.0673 37.8968C13.0673 37.8505 13.0409 37.8043 13.0262 37.7581C12.9712 37.5643 12.9803 37.3583 13.0522 37.1699C13.1241 36.9815 13.255 36.8203 13.4261 36.7097Z" fill="black"/>
<path opacity="0.2" d="M14.1878 39.7484L29.6224 30.994C29.691 30.9437 29.7724 30.9129 29.8576 30.9049C29.9428 30.8969 30.0286 30.9121 30.1057 30.9488C30.1827 30.9854 30.2481 31.0421 30.2946 31.1127C30.341 31.1834 30.3669 31.2652 30.3693 31.3492L30.4016 31.5514C30.424 31.7608 30.3866 31.9722 30.2936 32.162C30.2007 32.3517 30.0558 32.5123 29.8753 32.6259L14.4406 41.389C14.3722 41.4392 14.2911 41.47 14.2061 41.4781C14.1212 41.4861 14.0356 41.4712 13.9586 41.4349C13.8816 41.3986 13.8163 41.3423 13.7696 41.2721C13.7229 41.2019 13.6967 41.1205 13.6938 41.0366C13.6938 40.9644 13.6732 40.8951 13.6614 40.8229C13.6414 40.6137 13.6798 40.4031 13.7726 40.2138C13.8653 40.0245 14.0089 39.8636 14.1878 39.7484Z" fill="black"/>
<path d="M46.1037 47.9858L20.8478 62.3118C20.4988 62.5095 20.0875 62.5728 19.6936 62.4896C19.2997 62.4063 18.9514 62.1824 18.716 61.8612C17.1183 59.4582 16.0519 56.4649 15.5167 52.8815L14.5081 46.299C14.4645 45.8799 14.5398 45.457 14.7256 45.0773C14.9114 44.6975 15.2004 44.3756 15.5608 44.1472L40.849 29.798C41.5518 29.3994 42.2223 29.7172 42.3428 30.5057L43.3514 37.091C43.687 40.2901 44.7763 43.3685 46.533 46.0824C46.6413 46.2321 46.7164 46.4025 46.7536 46.5826C46.7907 46.7626 46.789 46.9483 46.7485 47.1277C46.7081 47.307 46.6298 47.4761 46.5187 47.6239C46.4076 47.7717 46.2663 47.895 46.1037 47.9858Z" fill="#01818C"/>
<path opacity="0.7" d="M46.1037 47.9858L20.8478 62.3118C20.4988 62.5095 20.0875 62.5728 19.6936 62.4896C19.2997 62.4063 18.9514 62.1824 18.716 61.8612C17.1183 59.4582 16.0519 56.4649 15.5167 52.8815L14.5081 46.299C14.4645 45.8799 14.5398 45.457 14.7256 45.0773C14.9114 44.6975 15.2004 44.3756 15.5608 44.1472L40.849 29.798C41.5518 29.3994 42.2223 29.7172 42.3428 30.5057L43.3514 37.091C43.687 40.2901 44.7763 43.3685 46.533 46.0824C46.6413 46.2321 46.7164 46.4025 46.7536 46.5826C46.7907 46.7626 46.789 46.9483 46.7485 47.1277C46.7081 47.307 46.6298 47.4761 46.5187 47.6239C46.4076 47.7717 46.2663 47.895 46.1037 47.9858Z" fill="white"/>
<path d="M20.8479 62.3117L46.1038 47.9857C46.2663 47.8948 46.4077 47.7715 46.5188 47.6237C46.6298 47.4759 46.7081 47.3069 46.7486 47.1276C46.789 46.9482 46.7907 46.7625 46.7536 46.5825C46.7165 46.4024 46.6414 46.232 46.5331 46.0823C45.707 44.8246 45.034 43.4762 44.5277 42.0646L36.6912 39.8926L33.2127 47.4773L36.9912 50.4609L23.806 43.6445L17.0635 58.7013C17.5078 59.806 18.0613 60.8653 18.716 61.864C18.9518 62.1847 19.3004 62.408 19.6943 62.4907C20.0881 62.5735 20.4992 62.5096 20.8479 62.3117Z" fill="#01818C"/>
<path d="M31.4395 38.2838C32.3687 37.7582 33.2538 38.1943 33.4185 39.2601C33.4815 39.8205 33.3852 40.3871 33.1402 40.8969C32.8952 41.4068 32.5111 41.84 32.0306 42.1484C31.1014 42.6769 30.2163 42.2379 30.0546 41.1721C29.9909 40.612 30.0866 40.0455 30.3311 39.5356C30.5756 39.0256 30.9593 38.5923 31.4395 38.2838Z" fill="#01818C"/>
<path d="M39.1084 56.4747C39.0243 56.4818 38.9396 56.4818 38.8555 56.4747C38.672 56.4576 38.496 56.395 38.3439 56.2927C38.1204 56.1281 38.1468 55.9115 38.4056 55.8017C38.5773 55.7387 38.7625 55.7198 38.9437 55.7468C39.1266 55.7644 39.3024 55.8259 39.4554 55.9259C39.6788 56.0934 39.6524 56.31 39.3936 56.4198C39.3025 56.4541 39.206 56.4727 39.1084 56.4747Z" fill="#01818C"/>
<path d="M40.4934 56.4547C40.2054 56.4109 39.9107 56.4407 39.6377 56.5413L39.3819 56.6453C38.9379 56.833 38.8909 57.2028 39.279 57.4887L39.4143 57.5898C39.8804 57.6559 40.3557 57.6184 40.8051 57.48C41.2256 57.3212 41.4844 57.1363 41.5226 56.8735L41.3315 56.7522C41.0826 56.5842 40.7941 56.4818 40.4934 56.4547Z" fill="#01818C"/>
<path d="M40.9788 55.3657L40.032 55.4119L39.7761 55.6286C39.7657 55.637 39.7572 55.6475 39.7515 55.6595C39.7457 55.6715 39.7427 55.6846 39.7427 55.6979C39.7427 55.7111 39.7457 55.7242 39.7515 55.7362C39.7572 55.7482 39.7657 55.7588 39.7761 55.7672L40.032 55.9665L40.9935 55.9289L40.9788 55.3657ZM39.9673 55.7585C39.9581 55.7585 39.9491 55.7567 39.9407 55.7532C39.9323 55.7497 39.9247 55.7445 39.9184 55.7381C39.9121 55.7316 39.9071 55.7239 39.9039 55.7155C39.9007 55.7071 39.8992 55.6982 39.8996 55.6892C39.8996 55.6716 39.9068 55.6547 39.9194 55.6422C39.9321 55.6298 39.9493 55.6228 39.9673 55.6228C39.9764 55.6224 39.9855 55.6238 39.994 55.627C40.0026 55.6301 40.0104 55.635 40.017 55.6412C40.0236 55.6474 40.0288 55.6549 40.0324 55.6631C40.036 55.6714 40.0378 55.6802 40.0378 55.6892C40.0378 55.7076 40.0304 55.7252 40.0172 55.7382C40.0039 55.7512 39.986 55.7585 39.9673 55.7585Z" fill="#01818C"/>
<path d="M45.8803 53.7192C45.8803 53.8607 45.695 53.9792 45.5863 54.0369C45.381 54.1494 45.1552 54.2211 44.9217 54.2478C44.6982 53.9907 45.1275 53.543 45.8803 53.7192Z" fill="#01818C"/>
<path d="M45.9159 52.8095C45.222 52.2463 44.134 52.0383 43.3695 52.4687C42.605 52.899 42.455 53.8088 43.1578 54.3721C43.8605 54.9353 45.1161 54.9497 45.8748 54.5136C46.6334 54.0775 46.6128 53.3698 45.9159 52.8095ZM44.7692 52.6766C44.8333 52.6461 44.9054 52.6356 44.9758 52.6464C45.0462 52.6572 45.1116 52.689 45.1632 52.7373C45.1858 52.7558 45.2034 52.7795 45.2142 52.8064C45.2251 52.8333 45.229 52.8624 45.2255 52.8911C45.222 52.9198 45.2112 52.9472 45.1942 52.9708C45.1771 52.9944 45.1543 53.0134 45.1279 53.0261C45.0635 53.0609 44.9897 53.0754 44.9166 53.0677C44.8435 53.0599 44.7746 53.0303 44.7192 52.9828C44.6966 52.9618 44.6796 52.9357 44.6696 52.9067C44.6596 52.8778 44.6569 52.8469 44.6619 52.8167C44.6668 52.7866 44.6791 52.758 44.6978 52.7336C44.7165 52.7092 44.741 52.6896 44.7692 52.6766ZM43.3754 53.728C43.3521 53.707 43.3346 53.6807 43.3242 53.6515C43.3138 53.6222 43.311 53.5909 43.3159 53.5603C43.3209 53.5297 43.3335 53.5007 43.3525 53.4761C43.3716 53.4514 43.3966 53.4318 43.4253 53.4189C43.489 53.3882 43.5607 53.3776 43.6307 53.3885C43.7007 53.3993 43.7655 53.4311 43.8164 53.4796C43.8392 53.4979 43.8569 53.5214 43.868 53.5482C43.8791 53.5749 43.8832 53.6039 43.88 53.6326C43.8768 53.6613 43.8664 53.6888 43.8496 53.7125C43.8328 53.7362 43.8103 53.7554 43.7841 53.7684C43.7196 53.8085 43.6437 53.8273 43.5676 53.8221C43.4914 53.8169 43.4189 53.788 43.3607 53.7395L43.3754 53.728ZM45.6807 54.1497C45.3552 54.3202 44.991 54.4067 44.6221 54.401C44.3016 54.4056 43.984 54.3395 43.6929 54.2074L45.6689 53.1128C45.7736 53.1795 45.8614 53.2689 45.9256 53.374C45.9898 53.4791 46.0287 53.5972 46.0394 53.7193C46.018 53.8171 45.9729 53.9083 45.9079 53.9852C45.8428 54.0622 45.7599 54.1225 45.666 54.1612L45.6807 54.1497Z" fill="#01818C"/>
<path d="M50.0618 50.2705C49.9917 50.1605 49.9032 50.0628 49.8001 49.9817C49.558 49.7776 49.2611 49.6465 48.9451 49.6039C48.629 49.5614 48.3072 49.6093 48.0181 49.742C47.8932 49.7982 47.7853 49.8854 47.705 49.9949C47.6246 50.1044 47.5746 50.2325 47.5598 50.3667C47.545 50.5009 47.5659 50.6366 47.6204 50.7605C47.675 50.8844 47.7614 50.9922 47.8711 51.0735C47.9328 51.1214 47.9988 51.164 48.0681 51.2006C48.9503 51.6945 50.5528 51.7551 50.5528 51.7551C50.5376 51.2242 50.3671 50.7088 50.0618 50.2705ZM49.2943 50.8164C49.1529 50.8905 48.9936 50.9254 48.8335 50.9172C48.6734 50.9091 48.5186 50.8583 48.3857 50.7702C48.3335 50.731 48.2925 50.6792 48.2667 50.6199C48.2408 50.5605 48.231 50.4957 48.238 50.4315C48.2451 50.3674 48.2689 50.3061 48.3072 50.2536C48.3454 50.2011 48.3967 50.1592 48.4563 50.1319C48.5947 50.0686 48.7487 50.0458 48.9 50.0663C49.0512 50.0868 49.1932 50.1497 49.309 50.2474C49.5442 50.4351 49.5531 50.672 49.2972 50.8164H49.2943Z" fill="#01818C"/>
<path d="M28.6947 61.6422C26.087 60.1629 23.852 58.1255 22.1558 55.6813C20.4596 53.2372 19.3458 50.4491 18.897 47.5241L16.8122 33.9288C16.415 31.3367 15.4946 28.8486 14.105 26.6106C12.7153 24.3727 10.8845 22.43 8.71995 20.8967L6 18.9702V20.4952L7.47025 21.5408C9.62924 23.0713 11.4562 25.0089 12.8446 27.2405C14.233 29.472 15.1549 31.9529 15.5566 34.5382L17.6826 48.2289C18.1359 51.1471 19.2512 53.9279 20.9461 56.3656C22.641 58.8034 24.8721 60.8357 27.4744 62.3123L28.6888 62.9997V61.6451L28.6947 61.6422Z" fill="#EBEBEB"/>
<path d="M52.3392 28.5568L50.2544 14.9615C49.8574 12.3696 48.9374 9.88169 47.5483 7.6438C46.1592 5.4059 44.329 3.46309 42.1651 1.92939L39.4451 0L6 18.9705L8.71995 20.8999C10.8845 22.4332 12.7153 24.3758 14.105 26.6138C15.4946 28.8517 16.415 31.3398 16.8122 33.932L18.897 47.5273C19.3458 50.4522 20.4596 53.2403 22.1558 55.6845C23.852 58.1286 26.087 60.166 28.6947 61.6454L62.1398 42.6778C59.5308 41.1989 57.2947 39.1614 55.5979 36.7166C53.9011 34.2718 52.7873 31.4827 52.3392 28.5568Z" fill="#FAFAFA"/>
<path d="M39.4275 0.343706L41.9916 2.16335C44.1193 3.67946 45.9197 5.5951 47.2886 7.79936C48.6575 10.0036 49.5675 12.4527 49.9662 15.0048L52.0481 28.6001C52.4836 31.4878 53.5615 34.2457 55.2051 36.6779C56.8486 39.11 59.0176 41.1565 61.5576 42.672L28.6947 61.3074C26.1578 59.8481 23.9864 57.8484 22.3406 55.4555C20.6949 53.0626 19.6166 50.3376 19.1852 47.4811L17.1033 33.8858C16.6931 31.2575 15.7563 28.7353 14.3471 26.4651C12.9379 24.195 11.0842 22.2219 8.89344 20.6601L6.54105 18.9936L39.4275 0.343706ZM39.4451 0L6 18.9705L8.71995 20.8999C10.8845 22.4332 12.7153 24.3758 14.105 26.6138C15.4946 28.8517 16.415 31.3398 16.8122 33.932L18.897 47.5273C19.3458 50.4522 20.4596 53.2403 22.1558 55.6845C23.852 58.1286 26.087 60.166 28.6947 61.6454L62.1398 42.6778C59.5311 41.1992 57.2953 39.1621 55.5985 36.7179C53.9017 34.2736 52.7877 31.4851 52.3392 28.5597L50.2544 14.9644C49.8578 12.372 48.9379 9.88352 47.5488 7.6451C46.1597 5.40669 44.3293 3.46342 42.1651 1.92939L39.4451 0Z" fill="#E0E0E0"/>
<path d="M28.6946 61.6424L62.1397 42.6748V44.0294L28.6946 62.997V61.6424Z" fill="#F5F5F5"/>
<path d="M12.2482 17.948C11.072 18.4362 10.9573 19.4355 11.9689 20.1865C12.5426 20.5641 13.199 20.8036 13.8846 20.8854C14.5703 20.9672 15.2659 20.889 15.915 20.6573C17.0912 20.172 17.2088 19.1698 16.2091 18.4217C15.6341 18.0406 14.9752 17.799 14.2867 17.7166C13.5981 17.6343 12.8995 17.7136 12.2482 17.948Z" fill="#01818C"/>
<path d="M13.5129 19.1642C13.4152 19.1747 13.3166 19.1747 13.2188 19.1642C13.0005 19.1458 12.7908 19.0721 12.6102 18.9504C12.3396 18.7511 12.369 18.4912 12.6837 18.3728C12.89 18.2967 13.1127 18.2739 13.3306 18.3063C13.5487 18.3274 13.758 18.4019 13.9393 18.523C14.2098 18.7222 14.1774 18.9822 13.8657 19.1006C13.7527 19.1414 13.6333 19.1629 13.5129 19.1642Z" fill="white"/>
<path d="M15.1683 19.1378C14.8237 19.0868 14.4716 19.1226 14.145 19.2418L13.8509 19.3689C13.3187 19.5941 13.2628 20.036 13.7274 20.3769L13.8921 20.4982C14.4488 20.5784 15.0167 20.534 15.5535 20.3682C16.0592 20.1776 16.368 19.9581 16.4121 19.6432L16.1857 19.4959C15.8831 19.2935 15.5329 19.1702 15.1683 19.1378Z" fill="white"/>
<path d="M17.6796 15.8163L27.5008 10.2448C27.6929 10.1451 27.9089 10.0983 28.1258 10.1095C28.3427 10.1207 28.5525 10.1894 28.7329 10.3083L28.8211 10.3776C28.8938 10.4234 28.9525 10.4878 28.9908 10.5638C29.0292 10.6398 29.0457 10.7246 29.0388 10.8092C29.0318 10.8937 29.0016 10.9748 28.9514 11.0438C28.9011 11.1128 28.8327 11.1671 28.7535 11.2008L18.9411 16.7839C18.751 16.8779 18.5381 16.918 18.3261 16.8996C18.1142 16.8812 17.9117 16.8052 17.7413 16.6799C17.7061 16.654 17.6708 16.628 17.6384 16.5991C17.5647 16.5602 17.5037 16.5016 17.4627 16.4301C17.4216 16.3585 17.402 16.2769 17.4063 16.1949C17.4107 16.1128 17.4386 16.0337 17.487 15.9666C17.5354 15.8996 17.6022 15.8475 17.6796 15.8163Z" fill="#455A64"/>
<path d="M19.8381 18.0637L24.7546 15.2764C24.794 15.2575 24.828 15.229 24.8533 15.1938C24.8787 15.1585 24.8945 15.1176 24.8995 15.0747C24.9045 15.0318 24.8984 14.9884 24.8818 14.9485C24.8652 14.9085 24.8387 14.8733 24.8046 14.8461L24.7163 14.7623C24.6374 14.6927 24.5384 14.649 24.4331 14.6371C24.3277 14.6252 24.2212 14.6457 24.1282 14.6959L19.2382 17.5033C19.1988 17.5227 19.1648 17.5514 19.1396 17.5869C19.1143 17.6224 19.0984 17.6636 19.0935 17.7066C19.0885 17.7497 19.0946 17.7933 19.1111 17.8334C19.1277 17.8736 19.1542 17.909 19.1882 17.9366L19.25 17.9943C19.329 18.0636 19.4278 18.1074 19.5329 18.1198C19.6381 18.1322 19.7446 18.1126 19.8381 18.0637Z" fill="#455A64"/>
<path opacity="0.2" d="M16.6238 23.3577L43.1235 8.32399C43.2982 8.22767 43.5028 8.19769 43.6985 8.23976C43.8941 8.28182 44.0673 8.39299 44.185 8.55217L44.2409 8.63015C44.294 8.70747 44.3302 8.7948 44.3471 8.88658C44.364 8.97836 44.3614 9.0726 44.3392 9.16331C44.3171 9.25402 44.276 9.33923 44.2186 9.41351C44.1612 9.4878 44.0887 9.54955 44.0057 9.59485L17.4913 24.6401C17.3189 24.7344 17.1167 24.7615 16.9249 24.716C16.7331 24.6705 16.5658 24.5558 16.4562 24.3946L16.4003 24.3108C16.3461 24.2354 16.3086 24.1496 16.2904 24.059C16.2723 23.9685 16.2738 23.8751 16.2949 23.7851C16.316 23.6951 16.3562 23.6105 16.4129 23.5369C16.4695 23.4632 16.5414 23.4022 16.6238 23.3577Z" fill="black"/>
<path opacity="0.2" d="M18.2323 25.9228L44.7614 10.8833C44.8431 10.8352 44.9341 10.8045 45.0287 10.7931C45.1232 10.7817 45.2191 10.7898 45.3103 10.817C45.4014 10.8443 45.4857 10.8899 45.5578 10.9511C45.6299 11.0122 45.6881 11.0875 45.7288 11.1721L45.7699 11.2559C45.849 11.4369 45.8587 11.64 45.797 11.8274C45.7354 12.0149 45.6067 12.1741 45.4347 12.2755L18.8997 27.3352C18.8206 27.3823 18.7322 27.4123 18.6403 27.4232C18.5485 27.4341 18.4553 27.4256 18.367 27.3982C18.2788 27.3709 18.1975 27.3254 18.1286 27.2647C18.0597 27.204 18.0048 27.1295 17.9676 27.0463L17.9206 26.9539C17.83 26.7752 17.8118 26.5694 17.8696 26.378C17.9275 26.1867 18.0571 26.024 18.2323 25.9228Z" fill="black"/>
<path opacity="0.2" d="M19.4261 28.7097L45.9787 13.6529C46.0541 13.6041 46.1403 13.5737 46.2301 13.5642C46.3199 13.5547 46.4107 13.5665 46.4949 13.5984C46.5792 13.6303 46.6545 13.6815 46.7145 13.7477C46.7746 13.814 46.8177 13.8933 46.8403 13.9792L46.8755 14.1092C46.9248 14.3086 46.9087 14.5182 46.8295 14.708C46.7503 14.8979 46.612 15.0583 46.4345 15.1663L19.8936 30.2347C19.8199 30.2829 19.7353 30.3125 19.6472 30.3209C19.5591 30.3293 19.4702 30.3162 19.3885 30.2827C19.3068 30.2493 19.2347 30.1966 19.1787 30.1293C19.1227 30.0619 19.0844 29.9821 19.0673 29.8968C19.0673 29.8505 19.0409 29.8043 19.0262 29.7581C18.9712 29.5643 18.9803 29.3583 19.0522 29.1699C19.1241 28.9815 19.255 28.8203 19.4261 28.7097Z" fill="black"/>
<path opacity="0.2" d="M20.1878 31.7484L35.6224 22.994C35.691 22.9437 35.7724 22.9129 35.8576 22.9049C35.9428 22.8969 36.0286 22.9121 36.1057 22.9488C36.1827 22.9854 36.2481 23.0421 36.2946 23.1127C36.341 23.1834 36.3669 23.2652 36.3693 23.3492L36.4016 23.5514C36.424 23.7608 36.3866 23.9722 36.2936 24.162C36.2007 24.3517 36.0558 24.5123 35.8753 24.6259L20.4406 33.389C20.3722 33.4392 20.2911 33.47 20.2061 33.4781C20.1212 33.4861 20.0356 33.4712 19.9586 33.4349C19.8816 33.3986 19.8163 33.3423 19.7696 33.2721C19.7229 33.2019 19.6967 33.1205 19.6938 33.0366C19.6938 32.9644 19.6732 32.8951 19.6614 32.8229C19.6414 32.6137 19.6798 32.4031 19.7726 32.2138C19.8653 32.0245 20.0089 31.8636 20.1878 31.7484Z" fill="black"/>
<path d="M52.1037 39.9858L26.8478 54.3118C26.4988 54.5095 26.0875 54.5728 25.6936 54.4896C25.2997 54.4063 24.9514 54.1824 24.716 53.8612C23.1183 51.4582 22.0519 48.4649 21.5167 44.8815L20.5081 38.299C20.4645 37.8799 20.5398 37.457 20.7256 37.0773C20.9114 36.6975 21.2004 36.3756 21.5608 36.1472L46.849 21.798C47.5518 21.3994 48.2223 21.7172 48.3428 22.5057L49.3514 29.091C49.687 32.2901 50.7763 35.3685 52.533 38.0824C52.6413 38.2321 52.7164 38.4025 52.7536 38.5826C52.7907 38.7626 52.789 38.9483 52.7485 39.1277C52.7081 39.307 52.6298 39.4761 52.5187 39.6239C52.4076 39.7717 52.2663 39.895 52.1037 39.9858Z" fill="#01818C"/>
<path opacity="0.7" d="M52.1037 39.9858L26.8478 54.3118C26.4988 54.5095 26.0875 54.5728 25.6936 54.4896C25.2997 54.4063 24.9514 54.1824 24.716 53.8612C23.1183 51.4582 22.0519 48.4649 21.5167 44.8815L20.5081 38.299C20.4645 37.8799 20.5398 37.457 20.7256 37.0773C20.9114 36.6975 21.2004 36.3756 21.5608 36.1472L46.849 21.798C47.5518 21.3994 48.2223 21.7172 48.3428 22.5057L49.3514 29.091C49.687 32.2901 50.7763 35.3685 52.533 38.0824C52.6413 38.2321 52.7164 38.4025 52.7536 38.5826C52.7907 38.7626 52.789 38.9483 52.7485 39.1277C52.7081 39.307 52.6298 39.4761 52.5187 39.6239C52.4076 39.7717 52.2663 39.895 52.1037 39.9858Z" fill="white"/>
<path d="M26.8479 54.3117L52.1038 39.9857C52.2663 39.8948 52.4077 39.7715 52.5188 39.6237C52.6298 39.4759 52.7081 39.3069 52.7486 39.1276C52.789 38.9482 52.7907 38.7625 52.7536 38.5825C52.7165 38.4024 52.6414 38.232 52.5331 38.0823C51.707 36.8246 51.034 35.4762 50.5277 34.0646L42.6912 31.8926L39.2127 39.4773L42.9912 42.4609L29.806 35.6445L23.0635 50.7013C23.5078 51.806 24.0613 52.8653 24.716 53.864C24.9518 54.1847 25.3004 54.408 25.6943 54.4907C26.0881 54.5735 26.4992 54.5096 26.8479 54.3117Z" fill="#01818C"/>
<path d="M37.4395 30.2838C38.3687 29.7582 39.2538 30.1943 39.4185 31.2601C39.4815 31.8205 39.3852 32.3871 39.1402 32.8969C38.8952 33.4068 38.5111 33.84 38.0306 34.1484C37.1014 34.6769 36.2163 34.2379 36.0546 33.1721C35.9909 32.612 36.0866 32.0455 36.3311 31.5356C36.5756 31.0256 36.9593 30.5923 37.4395 30.2838Z" fill="#01818C"/>
<path d="M45.1084 48.4747C45.0243 48.4818 44.9396 48.4818 44.8555 48.4747C44.672 48.4576 44.496 48.395 44.3439 48.2927C44.1204 48.1281 44.1468 47.9115 44.4056 47.8017C44.5773 47.7387 44.7625 47.7198 44.9437 47.7468C45.1266 47.7644 45.3024 47.8259 45.4554 47.9259C45.6788 48.0934 45.6524 48.31 45.3936 48.4198C45.3025 48.4541 45.206 48.4727 45.1084 48.4747Z" fill="#01818C"/>
<path d="M46.4934 48.4547C46.2054 48.4109 45.9107 48.4407 45.6377 48.5413L45.3819 48.6453C44.9379 48.833 44.8909 49.2028 45.279 49.4887L45.4143 49.5898C45.8804 49.6559 46.3557 49.6184 46.8051 49.48C47.2256 49.3212 47.4844 49.1363 47.5226 48.8735L47.3315 48.7522C47.0826 48.5842 46.7941 48.4818 46.4934 48.4547Z" fill="#01818C"/>
<path d="M46.9788 47.3657L46.032 47.4119L45.7761 47.6286C45.7657 47.637 45.7572 47.6475 45.7515 47.6595C45.7457 47.6715 45.7427 47.6846 45.7427 47.6979C45.7427 47.7111 45.7457 47.7242 45.7515 47.7362C45.7572 47.7482 45.7657 47.7588 45.7761 47.7672L46.032 47.9665L46.9935 47.9289L46.9788 47.3657ZM45.9673 47.7585C45.9581 47.7585 45.9491 47.7567 45.9407 47.7532C45.9323 47.7497 45.9247 47.7445 45.9184 47.7381C45.9121 47.7316 45.9071 47.7239 45.9039 47.7155C45.9007 47.7071 45.8992 47.6982 45.8996 47.6892C45.8996 47.6716 45.9068 47.6547 45.9194 47.6422C45.9321 47.6298 45.9493 47.6228 45.9673 47.6228C45.9764 47.6224 45.9855 47.6238 45.994 47.627C46.0026 47.6301 46.0104 47.635 46.017 47.6412C46.0236 47.6474 46.0288 47.6549 46.0324 47.6631C46.036 47.6714 46.0378 47.6802 46.0378 47.6892C46.0378 47.7076 46.0304 47.7252 46.0172 47.7382C46.0039 47.7512 45.986 47.7585 45.9673 47.7585Z" fill="#01818C"/>
<path d="M51.8803 45.7192C51.8803 45.8607 51.695 45.9792 51.5863 46.0369C51.381 46.1494 51.1552 46.2211 50.9217 46.2478C50.6982 45.9907 51.1275 45.543 51.8803 45.7192Z" fill="#01818C"/>
<path d="M51.9159 44.8095C51.222 44.2463 50.134 44.0383 49.3695 44.4687C48.605 44.899 48.455 45.8088 49.1578 46.3721C49.8605 46.9353 51.1161 46.9497 51.8748 46.5136C52.6334 46.0775 52.6128 45.3698 51.9159 44.8095ZM50.7692 44.6766C50.8333 44.6461 50.9054 44.6356 50.9758 44.6464C51.0462 44.6572 51.1116 44.689 51.1632 44.7373C51.1858 44.7558 51.2034 44.7795 51.2142 44.8064C51.2251 44.8333 51.229 44.8624 51.2255 44.8911C51.222 44.9198 51.2112 44.9472 51.1942 44.9708C51.1771 44.9944 51.1543 45.0134 51.1279 45.0261C51.0635 45.0609 50.9897 45.0754 50.9166 45.0677C50.8435 45.0599 50.7746 45.0303 50.7192 44.9828C50.6966 44.9618 50.6796 44.9357 50.6696 44.9067C50.6596 44.8778 50.6569 44.8469 50.6619 44.8167C50.6668 44.7866 50.6791 44.758 50.6978 44.7336C50.7165 44.7092 50.741 44.6896 50.7692 44.6766ZM49.3754 45.728C49.3521 45.707 49.3346 45.6807 49.3242 45.6515C49.3138 45.6222 49.311 45.5909 49.3159 45.5603C49.3209 45.5297 49.3335 45.5007 49.3525 45.4761C49.3716 45.4514 49.3966 45.4318 49.4253 45.4189C49.489 45.3882 49.5607 45.3776 49.6307 45.3885C49.7007 45.3993 49.7655 45.4311 49.8164 45.4796C49.8392 45.4979 49.8569 45.5214 49.868 45.5482C49.8791 45.5749 49.8832 45.6039 49.88 45.6326C49.8768 45.6613 49.8664 45.6888 49.8496 45.7125C49.8328 45.7362 49.8103 45.7554 49.7841 45.7684C49.7196 45.8085 49.6437 45.8273 49.5676 45.8221C49.4914 45.8169 49.4189 45.788 49.3607 45.7395L49.3754 45.728ZM51.6807 46.1497C51.3552 46.3202 50.991 46.4067 50.6221 46.401C50.3016 46.4056 49.984 46.3395 49.6929 46.2074L51.6689 45.1128C51.7736 45.1795 51.8614 45.2689 51.9256 45.374C51.9898 45.4791 52.0287 45.5972 52.0394 45.7193C52.018 45.8171 51.9729 45.9083 51.9079 45.9852C51.8428 46.0622 51.7599 46.1225 51.666 46.1612L51.6807 46.1497Z" fill="#01818C"/>
<path d="M56.0618 42.2705C55.9917 42.1605 55.9032 42.0628 55.8001 41.9817C55.558 41.7776 55.2611 41.6465 54.9451 41.6039C54.629 41.5614 54.3072 41.6093 54.0181 41.742C53.8932 41.7982 53.7853 41.8854 53.705 41.9949C53.6246 42.1044 53.5746 42.2325 53.5598 42.3667C53.545 42.5009 53.5659 42.6366 53.6204 42.7605C53.675 42.8844 53.7614 42.9922 53.8711 43.0735C53.9328 43.1214 53.9988 43.164 54.0681 43.2006C54.9503 43.6945 56.5528 43.7551 56.5528 43.7551C56.5376 43.2242 56.3671 42.7088 56.0618 42.2705ZM55.2943 42.8164C55.1529 42.8905 54.9936 42.9254 54.8335 42.9172C54.6734 42.9091 54.5186 42.8583 54.3857 42.7702C54.3335 42.731 54.2925 42.6792 54.2667 42.6199C54.2408 42.5605 54.231 42.4957 54.238 42.4315C54.2451 42.3674 54.2689 42.3061 54.3072 42.2536C54.3454 42.2011 54.3967 42.1592 54.4563 42.1319C54.5947 42.0686 54.7487 42.0458 54.9 42.0663C55.0512 42.0868 55.1932 42.1497 55.309 42.2474C55.5442 42.4351 55.5531 42.672 55.2972 42.8164H55.2943Z" fill="#01818C"/>
</svg>
