<svg width="43" height="60" viewBox="0 0 43 60" fill="none" xmlns="http://www.w3.org/2000/svg">
<g id="Frame 1376">
<g id="Group 1501">
<path id="Vector" d="M31.6697 43.7882L31.6467 41.4632L29.5975 41.3778L29.1641 44.8719C29.1641 44.8719 31.2297 45.0657 31.6697 43.7882Z" fill="#FFBEB3"/>
<path id="Vector_2" d="M29.2643 18.1506C28.96 20.7665 28.8174 23.3987 28.8374 26.0321C28.9359 29.5689 28.509 41.1086 28.509 41.1086C28.509 41.1086 31.2413 42.4222 32.8832 41.6472C32.8832 41.6472 33.54 33.9694 33.6221 31.4309C33.7042 28.8924 33.1854 18.3707 33.1854 18.3707" fill="#01818C"/>
<path id="Vector_3" d="M31.6692 43.7896C31.6692 43.7896 30.3852 44.7748 29.4953 44.5417C29.4953 44.5417 29.8466 43.5565 29.5971 43.2281C29.3475 42.8997 29.1701 43.1591 29.0256 43.5072C28.9066 43.7911 28.7604 44.0627 28.5889 44.3183C28.5579 44.3533 28.5226 44.3842 28.4838 44.4103C27.6333 45.5071 25.5086 45.1032 25.7122 46.4168C25.7548 46.7025 26.3886 47.0046 26.6317 47.0736C27.0635 47.1763 27.5134 47.1763 27.9452 47.0736C29.0782 46.7649 29.3311 46.0424 30.3359 46.2756C31.3408 46.5087 31.6495 45.98 31.8071 45.6188C31.9648 45.2576 31.6692 43.7896 31.6692 43.7896Z" fill="#050817"/>
<path id="Vector_4" d="M34.9044 40.1396C35.3018 42.7504 35.8338 46.7634 35.8108 47.1246C35.7779 47.6369 36.7467 49.7189 37.5414 47.0228C37.5414 47.0228 37.6202 42.7832 37.5874 40.1988C36.6927 40.2276 35.797 40.2079 34.9044 40.1396Z" fill="#FFBEB3"/>
<path id="Vector_5" d="M35.1563 47.5346C35.1563 47.5346 35.0151 46.7267 35.5602 46.6775C36.1054 46.6282 36.7293 46.7431 36.8048 47.1832C36.8526 47.4986 36.8812 47.8166 36.8902 48.1355C36.8902 48.1355 37.547 46.1652 37.7079 46.1652C37.8688 46.1652 38.0757 46.822 38.0626 47.0748C37.9864 47.9432 37.8581 48.8063 37.6784 49.6593C37.5404 50.0468 36.6932 51.4227 35.5208 51.5968C34.3484 51.7708 33.7278 51.0385 33.9183 50.5065C34.1087 49.9745 35.1464 48.9729 35.1563 47.5346Z" fill="#050817"/>
<path id="Vector_6" d="M31.4695 19.1328C31.4695 19.1328 32.1821 28.4624 32.4777 31.4607C32.7732 34.4589 34.2674 44.4979 34.2674 44.4979C34.2674 44.4979 36.6187 45.135 38.6318 44.2615C38.6318 44.2615 37.8338 28.6004 37.3839 24.6662C36.7927 19.5104 35.7419 17.0114 35.7419 17.0114" fill="#01818C"/>
<path id="Vector_7" d="M35.0254 9.15952C35.0254 9.15952 39.4357 8.60782 39.9513 8.19404C40.4669 7.78027 40.306 2.4373 40.3684 2.02024C40.4308 1.60318 41.8428 1.26493 42.0891 1.71812C42.3354 2.1713 43.0086 7.56353 42.6671 8.97562C42.3256 10.3877 35.3998 13.3564 35.3998 13.3564L35.0254 9.15952Z" fill="#FFBEB3"/>
<path id="Vector_8" d="M29.031 8.87364C28.6698 9.48445 27.7174 13.0672 27.7174 13.0672L26.3612 10.1117C26.0163 9.34174 25.6304 8.59083 25.2052 7.86218L23.6716 8.45658C24.5156 11.0049 25.1625 13.5204 26.5451 15.8487C26.6592 16.0055 26.7978 16.143 26.9556 16.2559C28.3677 17.1426 29.9899 15.9571 30.2822 15.6747L31.4414 8.04608C31.2116 7.68485 29.3923 8.26282 29.031 8.87364Z" fill="#FFBEB3"/>
<path id="Vector_9" d="M35.8471 9.51388C34.209 8.92003 32.5127 8.50065 30.7866 8.2627H30.5698C30.3054 9.60039 29.7443 10.8617 28.9279 11.9538C29.6667 12.2166 33.9556 13.4447 35.5286 13.7797C37.5778 9.18548 36.9571 10.949 35.8471 9.51388Z" fill="#FFBEB3"/>
<path id="Vector_10" d="M25.374 8.12205C25.374 8.12205 25.5711 6.0269 25.3543 5.85613C25.1376 5.68537 24.911 5.93495 24.911 5.93495C24.8776 5.77861 24.7964 5.6365 24.6788 5.52826C24.5611 5.42002 24.4128 5.35099 24.2542 5.3307C23.7058 5.28801 22.7469 6.109 22.6582 6.53591C22.5695 6.96282 23.7485 8.55553 23.7485 8.55553L25.374 8.12205Z" fill="#FFBEB3"/>
<path id="Vector_11" d="M31.9609 7.82856C31.8164 7.80557 29.8789 7.66108 29.0316 8.79075C28.5044 9.51355 28.0892 10.3118 27.8002 11.1585L29.3863 12.3144L28.9331 19.7558C28.9331 19.7558 31.1202 20.9676 32.8377 20.8034C34.5552 20.6392 36.542 19.6475 36.542 19.6475V12.6757L39.5862 11.1618L38.9459 8.32115C38.9459 8.32115 35.7604 8.78419 35.1956 8.71522C34.6308 8.64626 34.6406 8.25219 31.9609 7.82856Z" fill="#FFC866"/>
<path id="Vector_12" d="M34.4019 6.02271L31.9324 6.61053V9.0899C32.2865 9.30966 32.6933 9.42991 33.1099 9.438C33.5266 9.44609 33.9377 9.34172 34.3001 9.13588C34.3307 8.09815 34.3647 7.06043 34.4019 6.02271Z" fill="#EFA49A"/>
<path id="Vector_13" d="M37.8573 2.54238C37.8293 2.33873 37.7608 2.14273 37.656 1.96588C37.5512 1.78904 37.4122 1.63491 37.247 1.51255C37.0818 1.39019 36.8938 1.30206 36.6941 1.25333C36.4944 1.20461 36.287 1.19627 36.084 1.22881C35.7672 1.25744 35.4608 1.3563 35.187 1.51819C34.9132 1.68008 34.6789 1.90095 34.5011 2.16473C33.1153 1.59004 31.5062 2.18443 30.8625 3.03497C30.6309 3.29817 30.5032 3.63673 30.5032 3.98731C30.5032 4.33789 30.6309 4.67646 30.8625 4.93966L33.3846 7.80982C33.8345 7.71061 34.2742 7.5699 34.6982 7.38947C35.4173 7.06108 36.0117 5.67854 36.0117 4.43393C36.2793 4.48627 36.556 4.46585 36.813 4.37482C37.1723 4.23743 37.4727 3.97968 37.6631 3.64552C37.8536 3.31136 37.9222 2.92148 37.8573 2.54238Z" fill="#050817"/>
<path id="Vector_14" d="M30.8508 4.93921C30.8508 4.93921 30.9132 8.57781 31.905 8.81426C32.2744 8.8867 32.6573 8.83947 32.9981 8.67943C33.3388 8.51939 33.6197 8.25487 33.7998 7.92431C33.9037 7.72037 33.962 7.49625 33.9706 7.26752C33.9706 7.26752 34.8934 6.8636 34.7292 6.32831C34.565 5.79303 33.9968 6.50236 33.8458 6.42683C33.6626 6.36605 33.5053 6.24497 33.3998 6.08334C33.2942 5.92172 33.2465 5.72909 33.2645 5.53689C33.2448 4.84397 31.7408 5.56316 30.8508 4.93921Z" fill="#FFBEB3"/>
<path id="Vector_15" d="M8.9001 19.4867C8.9001 19.4867 6.17443 14.2947 9.16282 14.344L15.5895 10.2949L15.6387 5.59888L17.0377 4.76147C17.0377 4.76147 18.6041 9.54289 18.302 11.2604C17.9999 12.9779 13.6782 16.2027 12.6077 16.9317C11.1627 17.9136 8.9001 19.4867 8.9001 19.4867Z" fill="#FFBEB3"/>
<path id="Vector_16" d="M10.0337 13.6875L13.0516 11.7073L14.6673 15.648L13.0516 17.996" fill="#01818C"/>
<path id="Vector_17" d="M10.3957 53.692C10.3444 53.8462 10.3289 54.0101 10.3506 54.1711C10.3722 54.3322 10.4303 54.4862 10.5205 54.6214C10.8325 54.976 14.2872 56.838 15.9127 56.3881C17.5383 55.9382 17.3576 55.4029 17.3412 55.1337" fill="#2648A9"/>
<path id="Vector_18" d="M5.54537 55.6017C5.42217 55.9603 5.40507 56.3468 5.49611 56.7149C5.65374 57.2896 7.10853 59.7493 8.38598 59.9463C9.66343 60.1434 10.8654 59.815 10.7931 58.7707" fill="#2648A9"/>
<path id="Vector_19" d="M9.28547 41.0857C9.28547 41.0857 8.6878 44.2809 8.54988 45.3548C8.41195 46.4286 7.89309 54.9242 7.89309 54.9242C7.89309 54.9242 6.76013 56.4841 6.23142 56.1031C5.7027 55.7222 5.27578 48.8785 5.52865 46.1396C5.78151 43.4008 6.27739 39.5028 6.27739 39.5028" fill="#FFBEB3"/>
<path id="Vector_20" d="M13.585 37.9764C13.6506 38.1242 12.5801 52.8001 12.5801 52.8001C12.5801 52.8001 11.7624 53.7196 10.8002 53.2008C10.8002 53.2008 9.56871 43.2767 10.8462 39.2736" fill="#FFBEB3"/>
<path id="Vector_21" d="M6.52252 26.0092C6.52252 26.0092 5.35673 31.3226 5.17283 33.2338C4.98892 35.1451 5.25492 41.9002 5.25492 41.9002C5.25492 41.9002 9.04787 43.8968 10.4009 40.8C10.4009 40.8 11.1627 41.6736 14.3219 39.8149C14.3219 39.8149 14.4073 29.3621 13.3203 27.0929C12.2333 24.8237 6.85092 25.1553 6.52252 26.0092Z" fill="#050817"/>
<path id="Vector_22" d="M5.16406 14.7051C4.08321 15.3431 3.29561 16.3794 2.97039 17.5917C2.4154 19.6376 1.28901 23.6407 1.1478 24.2646C1.00659 24.8886 0.556695 30.0936 0.556695 30.0936C0.556695 30.0936 0.00170898 31.7356 0.00170898 32.1756C0.0218473 32.5506 0.0801648 32.9225 0.175757 33.2856C0.175757 33.2856 0.832545 33.8767 1.16094 33.8767C1.48933 33.8767 2.40884 33.7388 2.44496 33.5286C2.48108 33.3184 1.75205 33.0426 1.85385 32.4876C1.95565 31.9326 2.36614 31.9326 2.59602 32.1592C2.8259 32.3858 3.10175 31.8801 3.10175 31.8801C3.10175 31.8801 2.26763 30.8752 1.85385 30.4581C1.85385 30.4581 3.38088 25.0626 3.65673 24.2745C3.93258 23.4863 5.00643 21.0102 5.33811 20.7902C5.66979 20.5702 6.84872 20.9873 7.71568 18.4192C8.58264 15.8512 5.16406 14.7051 5.16406 14.7051Z" fill="#FFBEB3"/>
<path id="Vector_23" d="M13.4333 16.493C13.3348 15.3436 12.9013 13.9578 11.6534 13.5933C11.275 13.4951 10.8808 13.4738 10.4942 13.5309L8.98354 13.7575L7.03288 14.0497C7.03288 14.0497 5.50256 14.2763 5.1676 14.7065C5.1676 14.7065 7.02959 15.626 6.95078 17.6226C6.89824 19.0216 6.31698 20.9066 5.32852 20.8048C5.32852 20.8048 5.67661 27.2085 6.07725 28.1312C6.07725 28.1312 10.4941 29.1427 13.5876 27.0344C13.5876 27.0377 13.6303 18.7655 13.4333 16.493Z" fill="#01818C"/>
<path id="Vector_24" d="M7.6175 11.7073C7.67115 12.1622 7.67115 12.6218 7.6175 13.0767C7.52165 13.4545 7.31866 13.7966 7.03296 14.0619C7.03296 14.0619 9.08542 16.6266 10.7011 16.3606C12.3168 16.0946 10.0443 13.7138 10.0443 13.7138C10.0443 13.7138 10.2217 13.7696 10.1954 13.0274" fill="#FFBEB3"/>
<path id="Vector_25" d="M6.05665 53.8842C6.05665 53.8842 6.23727 55.7264 6.57223 55.3652C6.90719 55.004 6.45401 53.8973 7.0484 53.9203C7.64279 53.9433 7.99418 53.8053 8.05985 54.0812C8.12553 54.357 8.79217 56.3799 9.80034 57.2206C10.8085 58.0613 11.2354 58.9611 10.2207 59.0202C9.95833 59.0518 9.71309 59.167 9.52121 59.3486C9.23879 59.6343 8.0303 59.4669 7.52786 58.9283C7.02542 58.3897 5.5575 56.0778 5.5575 55.6049C5.5575 55.1321 5.60347 53.9925 6.05665 53.8842Z" fill="#050817"/>
<path id="Vector_26" d="M12.2799 52.9873C12.2799 52.9873 11.9745 52.2353 12.3127 52.0908C12.651 51.9463 12.9892 51.7624 13.1567 51.966C13.3242 52.1696 13.426 52.5834 13.5573 52.7049C13.6887 52.8264 16.5851 54.2615 17.0186 54.6753C17.4521 55.089 17.3634 55.3518 17.2321 55.2697C17.1007 55.1876 16.9267 55.0693 16.8413 55.2697C16.7559 55.47 16.769 56.1662 16.2239 56.1301C15.6788 56.0939 14.6213 56.1892 14.0335 55.6999C13.4457 55.2105 11.9646 54.8362 11.4064 54.5735C10.8481 54.3107 10.3949 54.0677 10.3949 53.6934C10.3949 53.319 10.4376 52.1138 10.6806 52.0744C10.9236 52.035 10.8382 52.7542 11.2225 52.9446C11.5644 53.055 11.9301 53.0698 12.2799 52.9873Z" fill="#050817"/>
<path id="Vector_27" d="M10.0676 13.7105L10.0479 13.6875L8.40588 12.2163L7.7688 12.722C7.92428 12.931 8.09206 13.1306 8.27124 13.3197C8.82623 13.7992 9.56183 14.1965 10.0676 13.7105Z" fill="#CC7158"/>
<path id="Vector_28" d="M11.5391 7.8491C11.405 7.70349 11.2278 7.60454 11.0334 7.56668C10.9914 7.49587 10.9419 7.42981 10.8856 7.36965C10.6626 7.12587 10.3548 6.97665 10.0252 6.95259C9.90239 6.9455 9.77963 6.96803 9.6673 7.01827C9.47832 6.90464 9.26619 6.83505 9.04663 6.81466C8.82359 6.79361 8.60003 6.84921 8.41283 6.97229C8.10301 6.85634 7.76019 6.86577 7.45721 6.99856C7.24843 7.09414 7.07579 7.25412 6.96462 7.45503C6.78806 7.48724 6.62105 7.5589 6.47605 7.66466C6.33105 7.77042 6.21181 7.90756 6.12721 8.06584C6.05971 8.18062 6.01618 8.3079 5.99925 8.43997C5.98231 8.57205 5.99233 8.70619 6.02869 8.83428C5.92792 8.97142 5.86617 9.13329 5.84998 9.3027C5.83379 9.47211 5.86377 9.64274 5.93674 9.79648C6.00182 9.93428 6.09592 10.0564 6.21259 10.1544C6.21024 10.1872 6.21024 10.2201 6.21259 10.2529C6.28289 10.6995 6.44745 11.126 6.69533 11.5041C6.80033 11.6618 6.92139 11.8082 7.05657 11.9409C7.14523 12.0296 7.23718 12.1117 7.33242 12.1938C7.42765 12.2758 7.40794 12.3185 7.39809 12.2463C7.40932 12.3524 7.45003 12.4532 7.51562 12.5374C7.5812 12.6215 7.66904 12.6857 7.76918 12.7225C8.20855 12.4331 8.55158 12.0191 8.75436 11.5337C8.76594 11.5124 8.78303 11.4947 8.80383 11.4823C8.82464 11.47 8.84839 11.4635 8.87258 11.4635C8.89678 11.4635 8.92053 11.47 8.94133 11.4823C8.96214 11.4947 8.97923 11.5124 8.9908 11.5337L10.7773 9.62243C10.9912 9.57388 11.1892 9.47146 11.3524 9.3249C11.5156 9.17835 11.6387 8.99251 11.7099 8.78503C11.765 8.6276 11.7782 8.45856 11.7483 8.29448C11.7184 8.13041 11.6463 7.97693 11.5391 7.8491Z" fill="#583228"/>
<path id="Vector_29" d="M11.2583 9.09053C11.3535 8.90662 11.9676 13.3399 10.5358 13.6552C9.10404 13.9705 8.29291 12.2595 8.29291 12.2595C8.29291 12.2595 6.93336 11.4878 7.63612 11.0051C8.33888 10.5223 8.66071 11.1922 8.66071 11.1922C8.66071 11.1922 8.33231 9.28428 9.22226 9.44519C10.1122 9.6061 10.8807 9.81628 11.2583 9.09053Z" fill="#FFBEB3"/>
<path id="Vector_30" d="M5.25781 41.8931L5.43843 52.5396C5.43843 52.5396 7.62225 52.9993 9.15585 52.5396L10.2691 41.5417L9.94071 50.7958C9.94071 50.7958 11.9866 51.3672 13.5727 50.7531L14.3379 39.811" fill="#050817"/>
<path id="Vector_31" d="M5.58756 14.4275C5.58756 14.4275 3.87334 15.3142 3.13774 16.8904C2.57618 18.0956 1.7749 20.5028 1.7749 20.5028L4.5761 22.1021L5.83713 20.9691C5.83713 20.9691 7.39044 18.9987 7.43313 17.8691C7.47582 16.7394 6.98651 14.4997 5.58756 14.4275Z" fill="#01818C"/>
<path id="Vector_32" d="M15.6491 5.60018C15.6491 5.60018 14.641 4.54603 14.664 4.23078C14.6771 4.1369 14.7143 4.04799 14.7718 3.97264C14.8293 3.89729 14.9053 3.83803 14.9924 3.80058C14.9924 3.80058 14.664 2.9993 15.393 2.7136C16.122 2.42789 17.2517 2.3852 17.3929 2.7136C17.5341 3.04199 17.0382 4.76277 17.0382 4.76277C17.0382 4.76277 16.1417 6.1683 15.6491 5.60018Z" fill="#FFBEB3"/>
<path id="Vector_33" d="M40.6927 3.11715C40.6927 3.11715 39.6846 2.063 39.7075 1.74774C39.7207 1.65387 39.7578 1.56496 39.8154 1.48961C39.8729 1.41426 39.9488 1.355 40.0359 1.31755C40.0359 1.31755 39.7075 0.516266 40.4366 0.230564C41.1656 -0.0551389 42.2953 -0.0978301 42.4365 0.230564C42.5777 0.558958 42.0818 2.27974 42.0818 2.27974C42.0818 2.27974 41.1853 3.68527 40.6927 3.11715Z" fill="#FFBEB3"/>
</g>
</g>
</svg>
