<svg width="375" height="209" viewBox="0 0 375 209" fill="none" xmlns="http://www.w3.org/2000/svg">
<g clip-path="url(#clip0_0_3515)">
<rect width="375" height="209" fill="white"/>
<path opacity="0.2" d="M118.072 -104.162C118.072 -104.162 157.957 -136.738 209.832 -122.316C261.707 -107.895 283.429 -63.1638 313.171 -32.4351C328.753 -16.3485 351.769 -10.4206 370.279 1.96404C429.479 41.5649 420.702 130.625 375.063 164.172C335.549 193.251 286.176 196.29 221.932 174.844C157.688 153.398 111.717 140.516 71.8798 79.0819C32.0421 17.6481 68.9355 -59.9513 118.072 -104.162Z" fill="#036696"/>
<path d="M243.734 36.9174C242.589 35.7724 240.385 31.4344 242.497 29.3917C244.61 27.349 246.491 29.2036 246.636 30.198C246.781 31.1925 246.394 39.5729 243.734 36.9174Z" fill="#263238"/>
<path d="M243.249 192.962L238.448 193.005L237.142 181.91L241.937 181.867L243.249 192.962Z" fill="#FF8B7B"/>
<path d="M238.441 192.452L243.677 192.403C243.773 192.405 243.867 192.437 243.944 192.495C244.022 192.553 244.078 192.634 244.107 192.726L245.375 196.978C245.409 197.077 245.419 197.182 245.403 197.286C245.387 197.389 245.347 197.487 245.285 197.572C245.223 197.656 245.142 197.724 245.048 197.771C244.955 197.817 244.851 197.84 244.747 197.838C242.86 197.838 240.118 197.736 237.758 197.757C234.985 197.757 233.748 197.951 230.491 197.983C228.523 197.983 227.803 196.016 228.636 195.833C232.329 194.978 234.237 194.865 237.328 192.839C237.654 192.604 238.04 192.47 238.441 192.452Z" fill="#263238"/>
<path opacity="0.2" d="M237.142 181.916L237.819 187.636L242.614 187.593L241.942 181.873L237.142 181.916Z" fill="black"/>
<path d="M236.459 193.307C236.976 193.297 237.492 193.234 237.996 193.119C238.02 193.115 238.042 193.104 238.059 193.086C238.075 193.068 238.085 193.046 238.088 193.022C238.09 192.999 238.085 192.975 238.073 192.955C238.062 192.935 238.044 192.919 238.023 192.909C237.797 192.796 235.782 191.834 235.228 192.172C235.177 192.205 235.135 192.251 235.107 192.304C235.078 192.358 235.065 192.418 235.067 192.479C235.065 192.582 235.088 192.685 235.133 192.778C235.177 192.871 235.243 192.953 235.325 193.016C235.661 193.235 236.059 193.337 236.459 193.307ZM237.609 192.963C236.572 193.145 235.782 193.108 235.459 192.85C235.403 192.806 235.359 192.75 235.33 192.685C235.301 192.62 235.288 192.55 235.292 192.479C235.289 192.457 235.293 192.434 235.302 192.414C235.312 192.394 235.327 192.377 235.346 192.366C235.647 192.183 236.787 192.613 237.609 192.963Z" fill="#01818C"/>
<path d="M237.976 193.151C238.002 193.149 238.026 193.139 238.046 193.124C238.063 193.112 238.075 193.095 238.082 193.076C238.088 193.057 238.089 193.036 238.084 193.016C238.084 192.93 237.708 190.866 236.568 190.995C236.267 191.027 236.181 191.183 236.165 191.301C236.084 191.839 237.315 192.882 237.928 193.14L237.976 193.151ZM236.665 191.215C237.353 191.215 237.697 192.339 237.815 192.828C237.181 192.473 236.342 191.656 236.391 191.334C236.391 191.334 236.391 191.242 236.595 191.221L236.665 191.215Z" fill="#01818C"/>
<path d="M239.857 61.1437L239.362 61.6813L238.9 62.1382C238.594 62.4392 238.276 62.7241 237.959 63.0037C237.329 63.5699 236.684 64.1074 236.024 64.6163C234.693 65.6739 233.293 66.6401 231.831 67.5083C231.095 67.9437 230.337 68.3576 229.568 68.7501C228.799 69.1425 227.988 69.4811 227.171 69.8252C225.495 70.4936 223.75 70.9714 221.967 71.2497L221.569 71.3088C221.311 71.3421 221.051 71.3582 220.79 71.3572C220.191 71.3516 219.599 71.2349 219.043 71.0131C218.492 70.7918 217.987 70.469 217.554 70.0617C217.209 69.7332 216.909 69.3609 216.662 68.9543C216.318 68.3645 216.06 67.7293 215.893 67.0675C215.763 66.555 215.667 66.0342 215.608 65.5086C215.51 64.6001 215.483 63.6853 215.527 62.7725C215.565 61.9017 215.635 61.0631 215.732 60.2407C215.936 58.5904 216.226 57.0154 216.581 55.4027C216.936 53.7901 217.339 52.3011 217.86 50.7422L221.392 51.441C221.263 54.462 221.118 57.5583 221.215 60.4826C221.232 61.8404 221.376 63.1937 221.645 64.5249C221.698 64.7708 221.771 65.0118 221.865 65.2452C221.94 65.428 222.032 65.5409 222.026 65.4925C221.995 65.4106 221.946 65.3371 221.881 65.2775C221.735 65.136 221.564 65.023 221.376 64.9442C221.183 64.863 220.978 64.814 220.769 64.7991C220.672 64.7991 220.629 64.7991 220.57 64.7991H220.629L220.742 64.7668C222.015 64.4397 223.254 63.9897 224.44 63.423C225.681 62.824 226.883 62.1452 228.036 61.391C229.203 60.617 230.353 59.7784 231.46 58.8914C231.998 58.4506 232.562 57.9883 233.073 57.5207L233.858 56.8111L234.234 56.4617L234.562 56.1499L239.857 61.1437Z" fill="#FF8B7B"/>
<path d="M242.7 59.2463C242.517 54.1772 238.357 52.414 233.143 55.8705C230.844 57.3279 228.631 58.9163 226.515 60.6278L229.885 71.454C229.885 71.454 236.336 69.406 240.066 65.3851C242.577 62.6544 242.765 60.9718 242.7 59.2463Z" fill="#263238"/>
<path opacity="0.2" d="M236.35 61.4082C236.35 61.4082 233.237 65.8591 232.135 70.5895C233.665 69.937 235.14 69.1604 236.543 68.2673L236.35 61.4082Z" fill="black"/>
<path d="M221.216 53.05L223.022 48.97L217.91 47.4756C217.91 47.4756 217.034 49.4269 217.534 52.7758L221.216 53.05Z" fill="#FF8B7B"/>
<path d="M223.564 44.1846L219.118 44.7167L217.909 47.4744L223.021 48.9687L223.564 44.1846Z" fill="#FF8B7B"/>
<path d="M236.383 95.9934C236.383 95.9934 233.083 123.656 232.717 138.46C232.341 153.839 235.356 184.861 235.356 184.861L244.016 184.678C244.016 184.678 245.059 151.468 246.317 136.25C247.682 119.662 251.123 95.6924 251.123 95.6924L236.383 95.9934Z" fill="#01818C"/>
<path opacity="0.6" d="M236.383 95.9934C236.383 95.9934 233.083 123.656 232.717 138.46C232.341 153.839 235.356 184.861 235.356 184.861L244.016 184.678C244.016 184.678 245.059 151.468 246.317 136.25C247.682 119.662 251.123 95.6924 251.123 95.6924L236.383 95.9934Z" fill="white"/>
<path opacity="0.2" d="M246.7 103.826C242.83 112.357 243.867 131.413 246.066 139.584C246.146 138.396 246.232 137.272 246.318 136.235C247.216 125.301 249.006 111.169 250.14 102.799C249.087 101.273 247.909 101.154 246.7 103.826Z" fill="black"/>
<path d="M245.08 185.049L234.899 185.254L234.146 181.873L244.957 181.846L245.08 185.049Z" fill="#01818C"/>
<path d="M264.638 192.962L259.843 193.005L258.537 181.91L263.332 181.867L264.638 192.962Z" fill="#FF8B7B"/>
<path d="M259.832 192.452L265.073 192.403C265.169 192.406 265.262 192.438 265.34 192.496C265.417 192.553 265.474 192.634 265.503 192.726L266.771 196.978C266.804 197.077 266.812 197.182 266.796 197.285C266.78 197.388 266.739 197.485 266.678 197.569C266.616 197.653 266.536 197.722 266.443 197.768C266.35 197.815 266.247 197.839 266.143 197.838C264.25 197.838 261.514 197.736 259.154 197.757C256.381 197.757 255.139 197.951 251.887 197.983C249.919 197.983 249.199 196.016 250.032 195.833C253.72 194.978 255.628 194.865 258.724 192.839C259.048 192.604 259.433 192.47 259.832 192.452Z" fill="#263238"/>
<path opacity="0.2" d="M258.537 181.916L259.209 187.636L264.009 187.593L263.337 181.873L258.537 181.916Z" fill="black"/>
<path d="M257.853 193.307C258.371 193.297 258.886 193.234 259.391 193.119C259.414 193.115 259.435 193.103 259.451 193.086C259.467 193.068 259.476 193.045 259.477 193.022C259.48 192.999 259.476 192.976 259.466 192.956C259.455 192.935 259.438 192.919 259.417 192.909C259.186 192.796 257.17 191.834 256.622 192.172C256.57 192.204 256.528 192.25 256.499 192.303C256.471 192.357 256.458 192.418 256.461 192.479C256.46 192.582 256.482 192.683 256.526 192.777C256.569 192.87 256.634 192.952 256.714 193.016C257.052 193.234 257.452 193.336 257.853 193.307ZM259.004 192.963C257.966 193.145 257.176 193.108 256.853 192.85C256.798 192.806 256.753 192.749 256.724 192.685C256.694 192.62 256.679 192.55 256.681 192.479C256.678 192.457 256.682 192.434 256.691 192.414C256.701 192.394 256.716 192.377 256.735 192.366C257.036 192.183 258.165 192.613 259.004 192.963Z" fill="#01818C"/>
<path d="M259.363 193.151C259.38 193.15 259.396 193.146 259.411 193.139C259.426 193.131 259.439 193.121 259.449 193.109C259.46 193.096 259.468 193.081 259.473 193.065C259.477 193.049 259.478 193.033 259.476 193.016C259.476 192.93 259.1 190.866 257.96 190.995C257.659 191.027 257.573 191.183 257.552 191.301C257.476 191.839 258.707 192.882 259.32 193.14L259.363 193.151ZM258.057 191.215C258.74 191.215 259.089 192.339 259.207 192.828C258.573 192.473 257.729 191.656 257.777 191.334C257.777 191.334 257.777 191.242 257.982 191.221L258.057 191.215Z" fill="#01818C"/>
<path d="M244.833 95.8118C244.833 95.8118 247.226 125.576 248.973 140.262C250.784 155.539 256.751 184.846 256.751 184.846L265.411 184.663C265.411 184.663 263.035 151.389 262.116 136.144C261.11 119.507 260.852 95.4463 260.852 95.4463L244.833 95.8118Z" fill="#01818C"/>
<path opacity="0.6" d="M244.833 95.8118C244.833 95.8118 247.226 125.576 248.973 140.262C250.784 155.539 256.751 184.846 256.751 184.846L265.411 184.663C265.411 184.663 263.035 151.389 262.116 136.144C261.11 119.507 260.852 95.4463 260.852 95.4463L244.833 95.8118Z" fill="white"/>
<path d="M266.476 185.049L256.29 185.254L255.542 181.873L266.353 181.846L266.476 185.049Z" fill="#01818C"/>
<path d="M235.786 54.5438C235.786 54.5438 232.244 67.6922 236.383 95.9941C244.113 95.8275 257.095 95.5265 260.852 95.4566C260.949 91.5164 258.041 72.1969 261.444 53.5708C258.996 53.1481 256.52 52.9074 254.036 52.8505C250.401 52.7178 246.761 52.7968 243.135 53.087C240.651 53.3809 238.194 53.8679 235.786 54.5438Z" fill="#263238"/>
<path opacity="0.2" d="M259.961 66.8274L255.957 63.5107C256.22 66.1017 258.564 72.4502 259.8 75.6647C259.779 72.848 259.805 69.8753 259.961 66.8274Z" fill="black"/>
<path d="M245.635 62.1665L241.265 70.8157C241.173 70.9973 241.14 71.2035 241.173 71.4047C241.205 71.6058 241.301 71.7914 241.445 71.9349C241.59 72.0784 241.776 72.1722 241.978 72.2029C242.179 72.2336 242.385 72.1996 242.566 72.1058L245.42 70.5362C245.576 70.4527 245.751 70.4145 245.927 70.4259C246.103 70.4373 246.272 70.4979 246.415 70.6007L249.226 72.6272C249.388 72.7447 249.583 72.8071 249.782 72.8051C249.982 72.8032 250.176 72.7371 250.335 72.6165C250.494 72.4959 250.61 72.3273 250.666 72.1356C250.722 71.944 250.715 71.7394 250.645 71.5521L247.361 62.3171C247.304 62.1414 247.196 61.9864 247.052 61.8714C246.907 61.7565 246.732 61.6866 246.548 61.6706C246.364 61.6545 246.179 61.693 246.017 61.7812C245.855 61.8694 245.722 62.0034 245.635 62.1665Z" fill="white"/>
<path d="M252.693 40.5723C252.08 44.0986 251.532 50.5384 254.037 52.823C254.037 52.823 253.306 56.016 246.635 57.1234C242.152 55.6827 243.135 53.081 243.135 53.081C247.027 52.0597 246.861 49.1623 246.124 46.453L252.693 40.5723Z" fill="#FF8B7B"/>
<path opacity="0.2" d="M250.016 42.9648L246.125 46.4267C246.306 47.0578 246.432 47.7035 246.501 48.3565C247.995 48.1092 250.011 46.4213 250.135 44.857C250.211 44.2244 250.171 43.5831 250.016 42.9648Z" fill="black"/>
<path d="M254.827 36.2345C253.531 40.8144 253.01 43.5613 250.15 45.4373C245.85 48.2541 240.576 44.8998 240.474 40.0134C240.378 35.627 242.506 28.8701 247.462 28.01C248.551 27.8169 249.671 27.9049 250.716 28.2658C251.761 28.6266 252.697 29.2483 253.434 30.072C254.172 30.8957 254.687 31.894 254.931 32.9725C255.174 34.0509 255.139 35.1737 254.827 36.2345Z" fill="#FF8B7B"/>
<path d="M252.07 39.0411C251.468 37.579 251.032 32.7625 253.543 31.5799C256.053 30.3973 258.66 33.2839 257.999 34.6493C256.983 36.7673 253.468 42.4276 252.07 39.0411Z" fill="#263238"/>
<path d="M253.57 33.2777C252.952 31.6651 245.582 30.7512 244.55 29.0149C243.325 26.9508 248.351 26.7035 251.807 27.7517C254.844 28.6763 256.871 29.5686 256.516 31.8263C256.317 33.1057 253.57 33.2777 253.57 33.2777Z" fill="#263238"/>
<path d="M255.173 31.6178C255.173 31.6178 256.786 32.0586 257.668 30.876C257.388 32.0478 256.017 33.2304 255.173 31.6178Z" fill="#263238"/>
<path d="M247.792 26.6449C245.578 24.9247 242.562 26.9459 242.847 29.1875C243.132 31.4291 250.598 33.1331 250.598 33.1331C250.598 33.1331 250.733 28.9295 247.792 26.6449Z" fill="#263238"/>
<path d="M242.85 29.1984C243.188 30.7681 244.333 31.999 246.65 32.9129C245.309 31.9213 244.293 30.5536 243.731 28.9834L242.85 29.1984Z" fill="#263238"/>
<path d="M244.548 35.5625C243.846 36.6199 243.001 37.5751 242.038 38.4008C242.575 39.1695 243.774 39.1318 243.774 39.1318L244.548 35.5625Z" fill="#FF5652"/>
<path d="M247.501 36.0032C247.42 36.3849 247.157 36.6483 246.909 36.5945C246.662 36.5408 246.528 36.186 246.608 35.8097C246.689 35.4334 246.958 35.17 247.205 35.2238C247.452 35.2775 247.587 35.6484 247.501 36.0032Z" fill="#043953" stroke="#043953" stroke-width="0.3"/>
<path d="M243.235 35.0796C243.149 35.4559 242.885 35.7193 242.638 35.6655C242.391 35.6118 242.256 35.2624 242.337 34.8861C242.418 34.5098 242.686 34.2464 242.934 34.2948C243.181 34.3432 243.315 34.7033 243.235 35.0796Z" fill="#043953" stroke="#043953" stroke-width="0.3"/>
<path d="M244.647 40.4167C245.152 40.5421 245.68 40.5435 246.185 40.4209C246.691 40.2983 247.159 40.0553 247.55 39.7125C247.561 39.702 247.569 39.6895 247.575 39.6756C247.581 39.6618 247.584 39.6469 247.584 39.6319C247.584 39.6169 247.581 39.602 247.575 39.5882C247.569 39.5743 247.561 39.5618 247.55 39.5513C247.528 39.5309 247.499 39.5195 247.47 39.5195C247.44 39.5195 247.411 39.5309 247.389 39.5513C247.022 39.8602 246.588 40.0789 246.121 40.19C245.654 40.3011 245.168 40.3014 244.701 40.191C244.671 40.1845 244.64 40.1903 244.614 40.2069C244.589 40.2236 244.571 40.2497 244.564 40.2797C244.558 40.3096 244.563 40.3409 244.58 40.3666C244.597 40.3923 244.623 40.4103 244.653 40.4167H244.647Z" fill="#043953" stroke="#043953" stroke-width="0.3"/>
<path d="M249.085 34.9071C249.126 34.9153 249.169 34.9121 249.209 34.8979C249.248 34.8837 249.283 34.8589 249.31 34.8263C249.336 34.7936 249.353 34.7544 249.359 34.7127C249.365 34.6711 249.36 34.6286 249.343 34.5899C249.198 34.2588 248.976 33.9671 248.695 33.739C248.415 33.5109 248.084 33.353 247.73 33.2783C247.671 33.2705 247.61 33.2865 247.562 33.3226C247.514 33.3587 247.482 33.4123 247.472 33.4718C247.468 33.5011 247.469 33.531 247.476 33.5598C247.483 33.5887 247.496 33.6158 247.513 33.6398C247.531 33.6637 247.553 33.684 247.578 33.6995C247.603 33.7149 247.631 33.7252 247.661 33.7298C247.939 33.7911 248.2 33.9182 248.419 34.1006C248.639 34.2829 248.812 34.5152 248.924 34.778C248.939 34.8106 248.961 34.8392 248.989 34.8616C249.017 34.8839 249.05 34.8995 249.085 34.9071Z" fill="#043953" stroke="#043953" stroke-width="0.3"/>
<path d="M241.673 33.2027C241.716 33.2144 241.76 33.2129 241.802 33.1985C241.843 33.1841 241.879 33.1574 241.905 33.1221C242.075 32.8937 242.296 32.7086 242.551 32.5816C242.806 32.4546 243.087 32.3893 243.372 32.391C243.432 32.3967 243.492 32.3784 243.538 32.3401C243.584 32.3018 243.614 32.2466 243.619 32.1867C243.625 32.1269 243.607 32.0672 243.568 32.0208C243.53 31.9744 243.475 31.9452 243.415 31.9395C243.054 31.9288 242.697 32.0053 242.372 32.1625C242.047 32.3197 241.765 32.553 241.55 32.8425C241.531 32.8655 241.516 32.8922 241.508 32.9208C241.5 32.9495 241.497 32.9795 241.501 33.0092C241.504 33.0389 241.514 33.0675 241.529 33.0934C241.543 33.1192 241.563 33.1418 241.587 33.1597C241.612 33.1812 241.641 33.1961 241.673 33.2027Z" fill="#043953" stroke="#043953" stroke-width="0.3"/>
<path d="M262.617 57.2373C263.595 58.9467 264.412 60.6024 265.261 62.3064C266.111 64.0104 266.874 65.7252 267.6 67.4776C268.325 69.23 269.03 71.0093 269.642 72.8531C270.28 74.6919 270.818 76.5634 271.255 78.4597L271.583 79.9272C271.726 80.6164 271.788 81.3201 271.766 82.0237C271.72 83.3309 271.43 84.6181 270.911 85.8188C269.998 87.8418 268.7 89.6677 267.089 91.1942C265.652 92.5817 264.086 93.8291 262.412 94.9194C261.601 95.457 260.762 95.9515 259.918 96.4246C259.074 96.8976 258.236 97.333 257.295 97.747L255.51 94.6238C256.161 94.0863 256.876 93.5487 257.542 92.9681C258.209 92.3876 258.859 91.7963 259.504 91.205C260.75 90.0495 261.905 88.8005 262.961 87.469C263.899 86.3272 264.627 85.0276 265.111 83.6309C265.277 83.1106 265.343 82.5632 265.304 82.0183C265.289 81.7992 265.247 81.5826 265.181 81.3732L264.815 80.1691C263.729 76.8292 262.436 73.56 260.945 70.3804C260.208 68.7677 259.424 67.1551 258.639 65.5424C257.854 63.9298 257.026 62.3171 256.225 60.7851L262.617 57.2373Z" fill="#FF8B7B"/>
<path d="M261.628 53.5967C266.111 54.5643 269.229 66.2614 269.229 66.2614L261.214 73.5344C258.666 70.6994 256.662 67.4194 255.301 63.8585C253.178 58.0046 256.833 52.5539 261.628 53.5967Z" fill="#263238"/>
<path d="M256.485 94.0693L251.33 94.1231L254.555 99.3212C254.555 99.3212 258.226 98.4127 258.554 96.5689L256.485 94.0693Z" fill="#FF8B7B"/>
<path d="M248.118 97.1925L250.961 101.364L254.525 99.3211L251.327 94.123L248.118 97.1925Z" fill="#FF8B7B"/>
<path d="M256.237 40.4278C255.664 41.4816 254.698 42.2661 253.549 42.6102C252.023 43.0564 251.243 41.6964 251.652 40.2504C252.023 38.9495 253.264 37.1487 254.791 37.3369C256.318 37.525 256.92 39.1323 256.237 40.4278Z" fill="#FF8B7B"/>
<path d="M210.547 129.369L204.816 129.785L204.855 130.321L210.586 129.905L210.547 129.369Z" fill="#455A64"/>
<path d="M215.697 128.999L212.882 129.203L212.921 129.739L215.735 129.535L215.697 128.999Z" fill="#455A64"/>
<path d="M240.427 65.8985L145.517 72.7415C143.542 72.8956 141.707 73.8225 140.411 75.321C139.115 76.8195 138.462 78.7687 138.594 80.7456L141.819 125.48C141.972 127.459 142.9 129.297 144.401 130.594C145.902 131.892 147.854 132.544 149.834 132.409L155.209 132.022C155.6 131.994 155.986 132.122 156.282 132.378C156.578 132.634 156.761 132.997 156.79 133.388L157.392 141.677C157.402 141.837 157.459 141.991 157.557 142.119C157.655 142.246 157.789 142.342 157.942 142.392C158.094 142.443 158.259 142.447 158.414 142.404C158.568 142.361 158.707 142.272 158.811 142.15L167.81 131.748C168.188 131.313 168.723 131.044 169.299 131.001L244.727 125.566C246.704 125.414 248.54 124.487 249.837 122.989C251.135 121.49 251.788 119.54 251.656 117.562L248.431 72.8275C248.278 70.8512 247.352 69.015 245.853 67.7177C244.355 66.4203 242.405 65.7666 240.427 65.8985Z" fill="#455A64"/>
<path d="M159.383 93.2754L164.511 92.9044L164.93 98.71L170.532 98.3068L170.112 92.5013L175.262 92.125L176.461 108.714L171.311 109.085L170.827 102.376L165.226 102.785L165.71 109.493L160.587 109.864L159.383 93.2754Z" fill="white"/>
<path opacity="0.2" d="M145.517 72.742C143.542 72.8961 141.707 73.823 140.411 75.3215C139.115 76.8199 138.462 78.7692 138.594 80.7461L141.819 125.481C141.972 127.459 142.9 129.297 144.401 130.595C145.902 131.892 147.854 132.545 149.834 132.41L150.624 132.351C151.937 132.256 153.182 131.73 154.166 130.855C155.149 129.981 155.817 128.806 156.064 127.513L166.874 71.1992L145.517 72.742Z" fill="black"/>
<path d="M192.547 102.662L183.311 103.328C183.382 103.927 183.634 104.489 184.032 104.941C184.26 105.181 184.541 105.366 184.853 105.479C185.164 105.593 185.498 105.633 185.827 105.597C186.28 105.564 186.717 105.416 187.096 105.167C187.392 104.942 187.646 104.665 187.843 104.35L192.412 104.441C191.915 105.568 191.108 106.53 190.085 107.215C189.146 107.81 187.759 108.168 185.924 108.29C184.641 108.439 183.341 108.302 182.118 107.887C181.138 107.475 180.296 106.79 179.694 105.914C179.003 104.916 178.606 103.745 178.549 102.533C178.453 101.691 178.534 100.839 178.788 100.03C179.042 99.222 179.462 98.4759 180.022 97.84C181.14 96.5929 182.752 95.8923 184.86 95.7382C186.255 95.5724 187.669 95.7381 188.988 96.2219C189.998 96.6534 190.849 97.3878 191.423 98.3238C192.081 99.4862 192.449 100.79 192.498 102.124L192.547 102.662ZM187.709 100.791C187.643 100.092 187.342 99.4361 186.854 98.9312C186.608 98.7421 186.326 98.6055 186.025 98.5298C185.725 98.4542 185.412 98.4412 185.106 98.4916C184.8 98.542 184.507 98.6548 184.247 98.8229C183.986 98.9909 183.763 99.2108 183.591 99.4687C183.304 99.9745 183.159 100.548 183.172 101.13L187.709 100.791Z" fill="white"/>
<path d="M193.97 90.7766L198.588 90.4434L199.786 107.027L195.169 107.36L193.97 90.7766Z" fill="white"/>
<path d="M201.687 90.2171L206.305 89.8838L207.503 106.467L202.891 106.8L201.687 90.2171Z" fill="white"/>
<path d="M209.448 100.324C209.361 99.4824 209.452 98.6321 209.715 97.8282C209.978 97.0243 210.407 96.2848 210.975 95.6578C212.125 94.3784 213.754 93.6617 215.861 93.5076C218.262 93.3356 220.129 93.9018 221.462 95.2062C222.57 96.374 223.209 97.9078 223.26 99.5163C223.31 101.125 222.768 102.696 221.737 103.931C220.597 105.199 218.945 105.916 216.78 106.081C215.099 106.283 213.4 105.883 211.985 104.952C211.233 104.43 210.612 103.74 210.172 102.937C209.731 102.133 209.484 101.239 209.448 100.324ZM214.066 99.9797C214.057 100.828 214.348 101.653 214.888 102.307C215.106 102.53 215.369 102.703 215.661 102.814C215.952 102.925 216.264 102.971 216.574 102.95C216.885 102.928 217.188 102.84 217.461 102.69C217.734 102.54 217.971 102.332 218.156 102.081C218.591 101.333 218.754 100.458 218.619 99.6034C218.624 98.7719 218.337 97.9651 217.807 97.3242C217.6 97.0971 217.343 96.9208 217.057 96.8089C216.771 96.697 216.463 96.6526 216.157 96.6791C215.837 96.694 215.526 96.7822 215.246 96.937C214.967 97.0917 214.726 97.3088 214.544 97.5715C214.111 98.2946 213.949 99.1482 214.087 99.9797H214.066Z" fill="white"/>
<path d="M224.714 88.5511L229.632 88.1963L229.907 91.9591L229.503 99.6192L226.461 99.8396L224.983 92.3139L224.714 88.5511ZM225.789 101.065L230.38 100.732L230.675 104.796L226.079 105.124L225.789 101.065Z" fill="white"/>
<path d="M144.204 58.0132C144.18 58.8001 144.221 59.5876 144.328 60.3676C139.457 61.9943 134.262 62.4058 129.196 61.5664C129.439 60.6469 129.586 59.7048 129.636 58.755C129.467 59.7114 129.134 60.6315 128.653 61.475C127.696 61.2922 127.158 61.1363 127.158 61.1363C127.158 61.1363 128.137 55.8469 126.373 51.998C124.61 48.1492 125.492 45.999 126.825 45.3915C129.298 37.7906 138.592 38.9893 141.737 42.0749C145.725 45.9882 145.747 57.0133 146.456 59.5344C145.87 59.7871 145.295 60.0182 144.72 60.2225C144.432 59.5181 144.258 58.7723 144.204 58.0132Z" fill="#263238"/>
<path d="M148.046 69.8447L148.53 71.3767C148.708 71.9143 148.885 72.4518 149.068 72.9625C149.428 74.0376 149.804 75.1127 150.207 76.1448C150.611 77.1769 150.998 78.2627 151.417 79.3163L152.04 80.929L152.196 81.3268L152.234 81.4181C152.167 81.36 152.091 81.3144 152.008 81.2838C151.89 81.2408 151.842 81.2838 151.917 81.2838C152.046 81.2832 152.175 81.2633 152.298 81.2246C152.719 81.0914 153.123 80.9111 153.503 80.6871C154.419 80.1529 155.296 79.5529 156.126 78.8917C156.997 78.2144 157.851 77.4887 158.69 76.7415C159.528 75.9943 160.372 75.2148 161.184 74.4515L162.834 75.8491C162.146 76.8382 161.421 77.7413 160.684 78.6605C159.948 79.5797 159.12 80.4398 158.271 81.2945C157.396 82.1868 156.445 82.9999 155.427 83.7242C154.845 84.1322 154.219 84.4747 153.562 84.7456C153.144 84.9129 152.707 85.0249 152.261 85.0788C151.655 85.1543 151.04 85.0709 150.476 84.837C149.861 84.575 149.338 84.1375 148.971 83.5791C148.89 83.4555 148.815 83.3318 148.756 83.2189L148.611 82.9287L148.417 82.5362C148.165 81.9987 147.88 81.4611 147.659 80.9559C147.17 79.8808 146.681 78.8057 146.235 77.7306C145.789 76.6555 145.353 75.5481 144.939 74.4408C144.746 73.9032 144.552 73.3173 144.37 72.7529C144.187 72.1884 144.009 71.6348 143.832 70.9736L148.046 69.8447Z" fill="#FFC3BD"/>
<path d="M146.774 65.0716C148.628 65.5447 149.924 73.1671 149.924 73.1671L144.817 76.6397C144.817 76.6397 139.925 68.9474 141.35 66.9101C142.834 64.7921 144.07 64.3836 146.774 65.0716Z" fill="#01818C"/>
<path d="M146.774 65.0716C148.628 65.5447 149.924 73.1671 149.924 73.1671L144.817 76.6397C144.817 76.6397 139.925 68.9474 141.35 66.9101C142.834 64.7921 144.07 64.3836 146.774 65.0716Z" fill="#01818C"/>
<path opacity="0.4" d="M146.774 65.0716C148.628 65.5447 149.924 73.1671 149.924 73.1671L144.817 76.6397C144.817 76.6397 139.925 68.9474 141.35 66.9101C142.834 64.7921 144.07 64.3836 146.774 65.0716Z" fill="white"/>
<path opacity="0.3" d="M146.609 66.7744L148.034 74.456L145.163 76.4019L146.609 66.7744Z" fill="black"/>
<path d="M161.1 74.6342L162.804 70.5273L164.905 74.6342C164.905 74.6342 163.54 76.6769 161.739 76.177L161.1 74.6342Z" fill="#FFC3BD"/>
<path d="M164.681 70.1025L167.38 71.1884L164.907 74.6341L162.8 70.5272L164.681 70.1025Z" fill="#FFC3BD"/>
<path d="M136.749 193.395H141.248L141.549 182.982H137.05L136.749 193.395Z" fill="#FFC3BD"/>
<path d="M106.582 179.982L110.716 181.745L116.129 172.736L111.99 170.973L106.582 179.982Z" fill="#FFC3BD"/>
<path d="M111.511 181.133L107.21 178.488C107.137 178.441 107.048 178.422 106.962 178.436C106.876 178.45 106.798 178.495 106.743 178.563L104.157 181.665C104.093 181.746 104.046 181.84 104.021 181.941C103.996 182.041 103.993 182.146 104.012 182.248C104.031 182.35 104.071 182.446 104.131 182.531C104.19 182.616 104.267 182.687 104.356 182.74C105.872 183.638 106.646 183.992 108.538 185.154C109.704 185.874 111.328 187.035 112.935 188.024C114.542 189.013 115.623 187.487 115.026 186.922C112.419 184.433 112.494 183.251 112.005 181.778C111.924 181.51 111.748 181.281 111.511 181.133Z" fill="#263238"/>
<path d="M141.4 192.873H136.352C136.265 192.872 136.181 192.903 136.115 192.959C136.049 193.015 136.005 193.094 135.992 193.179L135.417 197.179C135.403 197.281 135.411 197.386 135.441 197.485C135.472 197.584 135.523 197.675 135.592 197.752C135.661 197.83 135.746 197.891 135.841 197.932C135.936 197.973 136.039 197.993 136.142 197.991C137.906 197.964 138.755 197.856 140.98 197.856C142.346 197.856 145.173 198.001 147.06 198.001C148.947 198.001 149.044 196.136 148.259 195.964C144.738 195.206 143.351 194.163 142.163 193.169C141.953 192.981 141.681 192.876 141.4 192.873Z" fill="#263238"/>
<path opacity="0.2" d="M141.541 182.987L141.391 188.352H136.892L137.047 182.987H141.541Z" fill="black"/>
<path opacity="0.2" d="M111.989 170.979L116.123 172.737L113.333 177.382L109.199 175.619L111.989 170.979Z" fill="black"/>
<path d="M146.774 65.0712C146.774 65.0712 148.924 65.8237 144.624 92.2013H126.347C126.654 84.7723 126.665 80.1924 123.122 64.9422C125.678 64.414 128.268 64.0727 130.874 63.9208C133.635 63.7217 136.407 63.7217 139.168 63.9208C142.737 64.2434 146.774 65.0712 146.774 65.0712Z" fill="#01818C"/>
<path opacity="0.4" d="M146.774 65.0712C146.774 65.0712 148.924 65.8237 144.624 92.2013H126.347C126.654 84.7723 126.665 80.1924 123.122 64.9422C125.678 64.414 128.268 64.0727 130.874 63.9208C133.635 63.7217 136.407 63.7217 139.168 63.9208C142.737 64.2434 146.774 65.0712 146.774 65.0712Z" fill="white"/>
<path d="M130.886 63.9149C133.647 63.7211 136.419 63.7211 139.18 63.9149C139.626 63.9579 140.083 64.0063 140.535 64.0601C140.723 64.3426 140.843 64.6644 140.887 65.0009C140.931 65.3374 140.897 65.6794 140.787 66.0006C140.201 67.4466 138.099 67.6133 136.573 67.6133C130.923 67.6133 129.966 64.3127 129.929 64.1729L129.875 63.9741L130.886 63.9149Z" fill="white"/>
<path d="M131.706 54.583C132.244 57.2708 132.754 62.1409 130.884 63.9202C130.884 63.9202 131.615 66.608 136.571 66.608C142.022 66.608 139.178 63.9202 139.178 63.9202C136.2 63.2107 136.281 61.0013 136.797 58.9318L131.706 54.583Z" fill="#FFC3BD"/>
<path d="M132.25 52.6855C131.61 54.7981 132.497 59.7973 133.814 61.7325C131.218 60.2435 130.342 55.7066 130.342 55.7066L132.25 52.6855Z" fill="#263238"/>
<path opacity="0.2" d="M133.781 56.3574L136.797 58.9269C136.665 59.4086 136.578 59.9018 136.539 60.3998C135.405 60.2331 133.851 58.986 133.722 57.798C133.655 57.3182 133.675 56.8302 133.781 56.3574Z" fill="black"/>
<path d="M129.245 49.8206C130.287 54.1586 130.632 56.0185 133.244 57.8838C137.173 60.6844 142.275 58.459 142.549 53.8952C142.796 49.7883 141.055 43.3861 136.459 42.397C135.446 42.1734 134.393 42.2124 133.4 42.5101C132.406 42.8078 131.505 43.3545 130.783 44.0982C130.06 44.842 129.539 45.7581 129.27 46.7596C129.001 47.7611 128.992 48.8147 129.245 49.8206Z" fill="#FFC3BD"/>
<path d="M144.629 92.2012C144.629 92.2012 148.171 126.83 147.854 140.538C147.547 154.793 142.323 187.304 142.323 187.304H136.248C136.248 187.304 137.21 155.616 136.673 141.613C136.087 126.346 131.238 92.1904 131.238 92.1904L144.629 92.2012Z" fill="#01818C"/>
<path opacity="0.4" d="M144.629 92.2012C144.629 92.2012 148.171 126.83 147.854 140.538C147.547 154.793 142.323 187.304 142.323 187.304H136.248C136.248 187.304 137.21 155.616 136.673 141.613C136.087 126.346 131.238 92.1904 131.238 92.1904L144.629 92.2012Z" fill="black"/>
<path d="M135.743 187.53H142.871L143.398 185.256L135.41 184.977L135.743 187.53Z" fill="#01818C"/>
<path opacity="0.2" d="M136.752 100.818C141.235 109.838 137.649 126.292 136.064 132.415C135.252 123.223 133.881 111.988 132.812 103.726C133.489 99.0813 134.682 96.657 136.752 100.818Z" fill="black"/>
<path d="M139.809 92.2012C139.809 92.2012 135.67 128.217 132.547 139.758C128.843 153.482 114.743 176.849 114.743 176.849L109.104 174.451C109.104 174.451 117.829 147.918 120.667 140.688C126.715 125.26 121.538 102.269 126.371 92.2012H139.809Z" fill="#01818C"/>
<path opacity="0.4" d="M139.809 92.2012C139.809 92.2012 135.67 128.217 132.547 139.758C128.843 153.482 114.743 176.849 114.743 176.849L109.104 174.451C109.104 174.451 117.829 147.918 120.667 140.688C126.715 125.26 121.538 102.269 126.371 92.2012H139.809Z" fill="black"/>
<path d="M108.323 174.468L115.322 177.446L117.005 175.564L108.931 171.688L108.323 174.468Z" fill="#01818C"/>
<path d="M139.188 49.9717C139.65 50.7303 140.214 51.4214 140.866 52.0251C140.706 52.1866 140.513 52.3116 140.301 52.3914C140.088 52.4712 139.861 52.504 139.635 52.4874L139.188 49.9717Z" fill="#ED847E"/>
<path d="M130.765 47.2777C130.883 48.4208 131.062 49.5567 131.303 50.6803C131.303 50.6803 133.99 47.2777 134.436 45.4554C134.33 46.1728 134.122 46.8715 133.818 47.5303C133.818 47.5303 137.436 46.7401 137.791 44.3534C137.785 45.4219 137.666 46.4868 137.436 47.5303C137.436 47.5303 140.887 46.1757 140.57 43.8857C140.253 41.5958 134.952 40.7088 132.507 41.4829C130.061 42.257 127.669 44.7673 128.389 48.2184C129.109 51.6694 130.491 52.9649 130.491 52.9649C130.491 52.9649 129.496 49.487 130.765 47.2777Z" fill="#263238"/>
<path d="M129.057 53.0894C129.389 53.8856 130.023 54.5178 130.82 54.8472C131.896 55.2772 132.535 54.358 132.347 53.2937C132.18 52.3314 131.423 50.9553 130.31 50.9768C130.066 50.9876 129.829 51.0589 129.62 51.1842C129.411 51.3094 129.237 51.4848 129.112 51.6945C128.988 51.9041 128.918 52.1414 128.908 52.385C128.899 52.6285 128.95 52.8706 129.057 53.0894Z" fill="#FFC3BD"/>
<path d="M131.416 45.6221C130.878 47.7723 131.996 52.7177 133.404 54.583C130.717 53.223 129.642 48.7291 129.642 48.7291L131.416 45.6221Z" fill="#263238"/>
<path d="M141.618 46.9878C141.645 46.9889 141.672 46.9842 141.697 46.974C141.722 46.9638 141.744 46.9483 141.763 46.9286C141.802 46.8884 141.824 46.8344 141.824 46.7781C141.824 46.7218 141.802 46.6678 141.763 46.6276C141.534 46.3795 141.249 46.1889 140.933 46.0712C140.616 45.9536 140.276 45.9121 139.941 45.9503C139.913 45.9555 139.886 45.9661 139.862 45.9816C139.838 45.9971 139.818 46.0172 139.802 46.0407C139.786 46.0642 139.775 46.0907 139.769 46.1185C139.763 46.1463 139.763 46.175 139.769 46.2029C139.78 46.2573 139.813 46.305 139.859 46.3361C139.905 46.3672 139.961 46.3792 140.016 46.3696C140.281 46.34 140.548 46.3733 140.798 46.4667C141.047 46.5601 141.271 46.711 141.451 46.9071C141.471 46.9321 141.497 46.9523 141.525 46.9663C141.554 46.9802 141.586 46.9876 141.618 46.9878Z" fill="#043953"/>
<path d="M125.354 71.3229C124.606 73.6828 123.892 76.1609 123.284 78.6013C122.673 81.0105 122.226 83.4584 121.946 85.9281L121.903 86.3797C121.903 86.5248 121.903 86.5571 121.903 86.6861C121.909 86.9396 121.928 87.1926 121.962 87.444C122.03 88.0328 122.129 88.6177 122.257 89.1964C122.51 90.3952 122.795 91.6315 123.16 92.8571C123.526 94.0827 123.838 95.3299 124.203 96.5662L125.278 100.275L123.284 101.098C122.059 98.754 120.994 96.3673 120 93.9054C119.521 92.669 119.054 91.4219 118.667 90.1049C118.473 89.4491 118.29 88.7771 118.129 88.0461C118.052 87.6589 117.999 87.2676 117.968 86.8742C117.968 86.6753 117.968 86.3797 117.968 86.2023V85.6647C118.013 84.295 118.139 82.9291 118.344 81.574C118.521 80.2301 118.785 78.9185 119.07 77.6123C119.629 74.9962 120.347 72.4165 121.22 69.8877L125.354 71.3229Z" fill="#FFC3BD"/>
<path d="M123.132 64.9423C121.304 65.4799 119.105 71.7961 119.105 71.7961L126.201 76.8705C126.201 76.8705 128.792 71.6133 128.023 69.2481C127.222 66.7861 125.223 64.308 123.132 64.9423Z" fill="#01818C"/>
<path opacity="0.4" d="M123.132 64.9423C121.304 65.4799 119.105 71.7961 119.105 71.7961L126.201 76.8705C126.201 76.8705 128.792 71.6133 128.023 69.2481C127.222 66.7861 125.223 64.308 123.132 64.9423Z" fill="white"/>
<path d="M113.328 182.843C113.415 182.812 113.495 182.762 113.561 182.697C113.626 182.632 113.677 182.553 113.709 182.466C113.74 182.41 113.757 182.348 113.757 182.284C113.757 182.22 113.74 182.157 113.709 182.101C113.387 181.628 111.758 181.665 111.559 181.671C111.538 181.671 111.518 181.677 111.501 181.689C111.484 181.7 111.471 181.716 111.462 181.735C111.452 181.752 111.446 181.772 111.446 181.792C111.446 181.812 111.452 181.831 111.462 181.848C111.887 182.273 112.683 182.966 113.242 182.859L113.328 182.843ZM111.817 181.864C112.468 181.864 113.338 181.956 113.51 182.208C113.525 182.233 113.533 182.261 113.533 182.289C113.533 182.317 113.525 182.345 113.51 182.37C113.487 182.435 113.447 182.493 113.396 182.538C113.344 182.584 113.282 182.617 113.215 182.633C112.919 182.708 112.403 182.402 111.817 181.864Z" fill="#01818C"/>
<path d="M112.296 181.751C112.791 181.595 113.318 181.321 113.431 181.015C113.459 180.935 113.459 180.848 113.432 180.768C113.404 180.688 113.351 180.62 113.28 180.574C113.217 180.522 113.144 180.484 113.065 180.465C112.985 180.445 112.903 180.444 112.823 180.461C112.183 180.574 111.495 181.671 111.469 181.719C111.459 181.735 111.454 181.754 111.454 181.773C111.454 181.792 111.459 181.81 111.469 181.826C111.478 181.842 111.492 181.855 111.507 181.865C111.523 181.874 111.541 181.879 111.56 181.88C111.81 181.873 112.058 181.83 112.296 181.751ZM112.791 180.676H112.861C112.911 180.666 112.964 180.666 113.014 180.679C113.064 180.691 113.111 180.714 113.151 180.746C113.259 180.832 113.248 180.897 113.232 180.945C113.124 181.241 112.307 181.595 111.764 181.665C112.011 181.252 112.366 180.914 112.791 180.687V180.676Z" fill="#01818C"/>
<path d="M143.087 193.658C143.466 193.689 143.844 193.592 144.162 193.383C144.236 193.317 144.292 193.233 144.326 193.139C144.36 193.045 144.37 192.945 144.356 192.846C144.351 192.788 144.332 192.731 144.3 192.683C144.268 192.634 144.224 192.594 144.173 192.566C143.635 192.265 141.834 193.179 141.63 193.281C141.61 193.289 141.594 193.303 141.582 193.321C141.57 193.339 141.563 193.359 141.563 193.381C141.563 193.402 141.57 193.423 141.582 193.441C141.594 193.458 141.61 193.472 141.63 193.48C142.108 193.588 142.597 193.648 143.087 193.658ZM143.888 192.728C143.956 192.723 144.025 192.736 144.087 192.765C144.108 192.777 144.126 192.794 144.138 192.815C144.15 192.836 144.157 192.859 144.157 192.884C144.167 192.945 144.161 193.009 144.14 193.068C144.12 193.127 144.085 193.18 144.038 193.222C143.764 193.47 143.022 193.512 142.028 193.346C142.608 193.036 143.237 192.827 143.888 192.728Z" fill="#01818C"/>
<path d="M141.694 193.502H141.738C142.275 193.26 143.35 192.292 143.253 191.781C143.253 191.658 143.146 191.513 142.85 191.48C142.744 191.469 142.637 191.479 142.536 191.51C142.434 191.542 142.34 191.594 142.259 191.663C141.721 192.136 141.592 193.346 141.587 193.394C141.586 193.413 141.59 193.432 141.599 193.449C141.607 193.466 141.62 193.48 141.635 193.491C141.653 193.502 141.674 193.506 141.694 193.502ZM142.77 191.679H142.834C143.028 191.679 143.044 191.781 143.044 191.803C143.097 192.109 142.377 192.878 141.829 193.206C141.872 192.695 142.073 192.21 142.404 191.819C142.503 191.729 142.631 191.68 142.764 191.679H142.77Z" fill="#01818C"/>
<path d="M126.095 91.132L125.632 92.7446C125.568 92.8683 125.718 92.9973 125.928 92.9973H144.742C144.909 92.9973 145.043 92.9166 145.054 92.8145L145.221 91.2019C145.221 91.089 145.086 90.9922 144.909 90.9922H126.396C126.338 90.9877 126.28 90.9982 126.227 91.0227C126.174 91.0472 126.129 91.0848 126.095 91.132Z" fill="#263238"/>
<path d="M128.58 93.1953H128.08C127.983 93.1953 127.908 93.1469 127.913 93.0824L128.144 90.9322C128.144 90.8731 128.241 90.8193 128.338 90.8193H128.833C128.935 90.8193 129.005 90.8731 128.999 90.9322L128.768 93.0824C128.768 93.1684 128.682 93.1953 128.58 93.1953Z" fill="#01818C"/>
<path opacity="0.4" d="M128.58 93.1953H128.08C127.983 93.1953 127.908 93.1469 127.913 93.0824L128.144 90.9322C128.144 90.8731 128.241 90.8193 128.338 90.8193H128.833C128.935 90.8193 129.005 90.8731 128.999 90.9322L128.768 93.0824C128.768 93.1684 128.682 93.1953 128.58 93.1953Z" fill="black"/>
<path d="M143.322 93.1953H142.827C142.73 93.1953 142.655 93.1469 142.66 93.0824L142.897 90.9322C142.897 90.8731 142.988 90.8193 143.085 90.8193H143.58C143.682 90.8193 143.757 90.8731 143.746 90.9322L143.515 93.0824C143.51 93.1684 143.424 93.1953 143.322 93.1953Z" fill="#01818C"/>
<path opacity="0.4" d="M143.322 93.1953H142.827C142.73 93.1953 142.655 93.1469 142.66 93.0824L142.897 90.9322C142.897 90.8731 142.988 90.8193 143.085 90.8193H143.58C143.682 90.8193 143.757 90.8731 143.746 90.9322L143.515 93.0824C143.51 93.1684 143.424 93.1953 143.322 93.1953Z" fill="black"/>
<path d="M135.953 93.1953H135.459C135.357 93.1953 135.281 93.1469 135.292 93.0824L135.523 90.9322C135.523 90.8731 135.615 90.8193 135.717 90.8193H136.211C136.308 90.8193 136.383 90.8731 136.378 90.9322L136.147 93.0824C136.141 93.1684 136.05 93.1953 135.953 93.1953Z" fill="#01818C"/>
<path opacity="0.4" d="M135.953 93.1953H135.459C135.357 93.1953 135.281 93.1469 135.292 93.0824L135.523 90.9322C135.523 90.8731 135.615 90.8193 135.717 90.8193H136.211C136.308 90.8193 136.383 90.8731 136.378 90.9322L136.147 93.0824C136.141 93.1684 136.05 93.1953 135.953 93.1953Z" fill="black"/>
<path d="M136.139 49.8797C136.204 50.2345 136.44 50.4925 136.677 50.4495C136.913 50.4065 137.048 50.084 136.983 49.7292C136.919 49.3744 136.682 49.1164 136.446 49.154C136.209 49.1917 136.048 49.5196 136.139 49.8797Z" fill="#043953" stroke="#043953" stroke-width="0.2"/>
<path d="M140.152 49.1707C140.212 49.5255 140.453 49.7835 140.69 49.7405C140.927 49.6975 141.066 49.375 141.002 49.0202C140.937 48.6654 140.701 48.4074 140.464 48.4451C140.228 48.4827 140.088 48.8106 140.152 49.1707Z" fill="#043953" stroke="#043953" stroke-width="0.2"/>
<path d="M140.361 48.4871L141.173 48.084C141.173 48.084 140.85 48.8312 140.361 48.4871Z" fill="#043953" stroke="#043953" stroke-width="0.2"/>
<path d="M138.018 54.1702C138.221 54.1698 138.425 54.1518 138.625 54.1164C138.64 54.1158 138.656 54.1119 138.669 54.105C138.683 54.0981 138.695 54.0883 138.705 54.0763C138.714 54.0643 138.721 54.0504 138.725 54.0356C138.729 54.0207 138.729 54.0051 138.727 53.99C138.724 53.9749 138.718 53.9605 138.709 53.9479C138.701 53.9353 138.689 53.9246 138.676 53.9168C138.663 53.9089 138.648 53.9039 138.633 53.9022C138.618 53.9005 138.602 53.902 138.587 53.9068C138.145 53.995 137.688 53.9772 137.253 53.8548C136.819 53.7324 136.419 53.5089 136.088 53.2026C136.068 53.1829 136.041 53.1719 136.013 53.1719C135.984 53.1719 135.957 53.1829 135.937 53.2026C135.927 53.2122 135.919 53.2238 135.913 53.2368C135.907 53.2497 135.904 53.2637 135.904 53.2779C135.904 53.292 135.907 53.306 135.913 53.319C135.919 53.3319 135.927 53.3435 135.937 53.3531C136.498 53.8852 137.244 54.1782 138.018 54.1702Z" fill="#043953" stroke="#043953" stroke-width="0.2"/>
<path d="M134.667 48.6549C134.695 48.6466 134.72 48.6327 134.742 48.6143C134.765 48.5958 134.783 48.5731 134.796 48.5474C134.909 48.3049 135.079 48.0927 135.29 47.9283C135.501 47.7638 135.748 47.6518 136.011 47.6013C136.067 47.5933 136.117 47.5643 136.152 47.5204C136.187 47.4764 136.204 47.4208 136.199 47.3648C136.196 47.3367 136.188 47.3094 136.175 47.2846C136.161 47.2598 136.143 47.238 136.121 47.2204C136.099 47.2028 136.073 47.1899 136.046 47.1824C136.019 47.1749 135.991 47.1729 135.963 47.1767C135.629 47.2345 135.314 47.3716 135.045 47.5765C134.776 47.7814 134.559 48.048 134.414 48.3539C134.396 48.3913 134.389 48.4331 134.394 48.4744C134.399 48.5157 134.416 48.5546 134.443 48.5865C134.47 48.6184 134.505 48.6418 134.545 48.6539C134.585 48.6661 134.627 48.6664 134.667 48.6549Z" fill="#043953" stroke="#043953" stroke-width="0.2"/>
<path d="M136.324 49.1927L137.136 48.7949C137.136 48.7949 136.813 49.5421 136.324 49.1927Z" fill="#043953" stroke="#043953" stroke-width="0.2"/>
<path d="M125.127 99.668L128.981 102.624L124.514 103.608C124.514 103.608 122.617 101.458 123.273 99.6841L125.127 99.668Z" fill="#FFC3BD"/>
<path d="M129.927 106.286L126.142 106.904L124.078 103.023L128.981 102.625L129.927 106.286Z" fill="#FFC3BD"/>
</g>
<defs>
<clipPath id="clip0_0_3515">
<rect width="375" height="209" fill="white"/>
</clipPath>
</defs>
</svg>
