<svg width="97" height="83" viewBox="0 0 97 83" fill="none" xmlns="http://www.w3.org/2000/svg">
<g id="Frame 2060">
<g id="Group 2411">
<g id="freepik--Device--inject-83">
<g id="freepik--Mobile--inject-83">
<path id="Vector" d="M41.7009 1.77031L16.3926 16.3766C16.1419 16.5402 15.9337 16.7609 15.7848 17.0205C15.6359 17.2801 15.5507 17.5714 15.5361 17.8703V77.4694C15.5361 78.015 15.9207 78.2364 16.3926 77.9613L41.7009 63.3506C41.9498 63.1873 42.157 62.9679 42.3057 62.7101C42.4545 62.4522 42.5406 62.163 42.5573 61.8658V2.25778C42.5573 1.71217 42.1727 1.48856 41.7009 1.77031ZM41.3252 57.4495C41.3252 57.9168 40.9965 58.2142 40.5918 58.4468L17.4167 71.8321C17.0142 72.0557 16.6833 71.8769 16.6833 71.4073V21.8439C16.6833 21.5876 16.751 21.3359 16.8794 21.1141C17.0077 20.8923 17.1923 20.7082 17.4145 20.5805L40.5895 7.19288C40.6639 7.14968 40.7483 7.12683 40.8343 7.12663C40.9203 7.12642 41.0049 7.14886 41.0794 7.1917C41.154 7.23454 41.216 7.29627 41.2591 7.37066C41.3023 7.44506 41.3251 7.5295 41.3252 7.61551V57.4495Z" fill="#455A64"/>
<path id="Vector_2" d="M41.3265 57.4499C41.3265 57.9173 40.9978 58.2147 40.5931 58.4472L17.418 71.8326C17.0155 72.0562 16.6846 71.8773 16.6846 71.4077V21.8443C16.6847 21.5881 16.7523 21.3363 16.8807 21.1145C17.009 20.8927 17.1936 20.7087 17.4158 20.5809L40.5908 7.19333C40.6652 7.15013 40.7496 7.12728 40.8356 7.12708C40.9216 7.12687 41.0062 7.14932 41.0807 7.19215C41.1553 7.23499 41.2173 7.29672 41.2604 7.37111C41.3036 7.44551 41.3264 7.52996 41.3265 7.61596V57.4499Z" fill="#263238"/>
<path id="Vector_3" d="M17.418 71.832L40.5931 58.4511C40.7558 58.3631 40.9061 58.2541 41.0403 58.1268L16.6846 44.4105V71.4071C16.6846 71.8767 17.0155 72.0645 17.418 71.832Z" fill="#37474F"/>
<path id="Vector_4" d="M39.4504 56.5799V7.85278L17.4158 20.5807C17.1936 20.7085 17.009 20.8925 16.8807 21.1143C16.7523 21.3361 16.6847 21.5879 16.6846 21.8441V70.2984L38.717 57.5772C39.1217 57.3446 39.4504 57.0472 39.4504 56.5799Z" fill="#AED5E8"/>
<path id="Vector_5" d="M16.2869 78.023C16.0313 78.1307 15.7554 78.1818 15.4782 78.1725C15.201 78.1632 14.9291 78.0939 14.6813 77.9693L13.7019 77.4036C13.452 77.2417 13.2439 77.023 13.0947 76.7653C12.9454 76.5077 12.8593 76.2184 12.8433 75.921V16.3063C12.8489 16.0854 12.8991 15.8678 12.9908 15.6668C13.0222 15.5975 13.0557 15.5304 13.0937 15.4611L15.777 17.0263C15.7206 17.1271 15.6713 17.2317 15.6295 17.3394C15.5643 17.5087 15.5288 17.688 15.5244 17.8694V77.4706C15.5378 77.9738 15.8642 78.2019 16.2869 78.023Z" fill="#263238"/>
<path id="Vector_6" d="M29.8051 66.015C30.3529 66.015 30.4111 66.63 30.4111 66.8938C30.3783 67.4225 30.2234 67.9364 29.9583 68.395C29.6933 68.8536 29.3255 69.2445 28.8838 69.5369C28.7066 69.6495 28.5032 69.7142 28.2935 69.7247C27.7456 69.7247 27.6875 69.1098 27.6875 68.8459C27.7205 68.3173 27.8753 67.8034 28.1399 67.3445C28.4044 66.8856 28.7716 66.4941 29.2125 66.2006C29.3913 66.0898 29.5951 66.026 29.8051 66.015Z" fill="#AED5E8"/>
<path id="Vector_7" d="M29.0304 10.0239C29.254 9.88978 29.4485 9.99711 29.4485 10.2654C29.4404 10.4105 29.3983 10.5516 29.3257 10.6775C29.2531 10.8033 29.1519 10.9104 29.0304 10.9899C28.8068 11.1219 28.61 11.0145 28.61 10.7484C28.6176 10.603 28.6598 10.4615 28.7328 10.3355C28.8059 10.2096 28.9079 10.1028 29.0304 10.0239Z" fill="#263238"/>
<path id="Vector_8" d="M26.3308 13.555C26.5365 13.4365 26.702 13.5327 26.702 13.7787C26.6952 13.9073 26.658 14.0326 26.5935 14.1441C26.5289 14.2557 26.4389 14.3503 26.3308 14.4204C26.1251 14.5389 25.9596 14.4428 25.9596 14.1968C25.9668 14.0682 26.0041 13.9431 26.0686 13.8316C26.1331 13.7201 26.2229 13.6254 26.3308 13.555Z" fill="#263238"/>
<path id="Vector_9" d="M27.57 12.8214L31.7269 10.4221C31.9506 10.2902 32.1384 10.3841 32.1384 10.63C32.1275 10.7682 32.0847 10.9019 32.0132 11.0206C31.9418 11.1394 31.8438 11.2399 31.7269 11.3143L27.57 13.7136C27.3464 13.8456 27.1586 13.7517 27.1586 13.5057C27.1695 13.3676 27.2123 13.2338 27.2837 13.1151C27.3551 12.9964 27.4531 12.8958 27.57 12.8214Z" fill="#263238"/>
<path id="Vector_10" d="M42.5516 2.12104C42.4889 1.67382 42.1334 1.51505 41.7063 1.76326L16.3935 16.3762C16.1402 16.5335 15.9322 16.7539 15.7898 17.0158L13.1064 15.4505C13.2511 15.1907 13.4597 14.9721 13.7124 14.8154L39.0096 0.204693C39.275 0.0701259 39.5684 0 39.866 0C40.1636 0 40.457 0.0701259 40.7224 0.204693L41.7063 0.768193C41.9356 0.920297 42.1297 1.11973 42.2754 1.35307C42.4212 1.58642 42.5154 1.84828 42.5516 2.12104Z" fill="#37474F"/>
<g id="freepik--device--inject-83">
<g id="freepik--mobile--inject-83">
<path id="Vector_11" d="M35.908 3.93277C35.7766 4.00293 35.6305 4.04093 35.4816 4.04365C35.3328 4.04637 35.1854 4.01374 35.0515 3.94843C35.0067 3.92931 34.9679 3.89844 34.9392 3.85908C34.9104 3.81972 34.8929 3.77333 34.8883 3.72482C34.8883 3.6622 34.8883 3.42965 34.8883 3.3648C34.8955 3.309 34.917 3.256 34.9507 3.21095C34.9844 3.16589 35.0291 3.13031 35.0806 3.10765L37.793 1.54237C37.9249 1.47271 38.0713 1.43501 38.2205 1.43229C38.3696 1.42957 38.5173 1.46191 38.6517 1.52672C38.6957 1.54673 38.7337 1.57788 38.7619 1.61711C38.7902 1.65633 38.8077 1.70226 38.8127 1.75033C38.8127 1.81518 38.8127 2.05668 38.8127 2.11929C38.8057 2.17542 38.7843 2.22878 38.7506 2.27422C38.7169 2.31966 38.672 2.35564 38.6204 2.37868L35.908 3.93277Z" fill="#AED5E8"/>
<path id="Vector_12" opacity="0.25" d="M35.908 3.93277C35.7766 4.00293 35.6305 4.04093 35.4816 4.04365C35.3328 4.04637 35.1854 4.01374 35.0515 3.94843C35.0067 3.92931 34.9679 3.89844 34.9392 3.85908C34.9104 3.81972 34.8929 3.77333 34.8883 3.72482C34.8883 3.6622 34.8883 3.42965 34.8883 3.3648C34.8955 3.309 34.917 3.256 34.9507 3.21095C34.9844 3.16589 35.0291 3.13031 35.0806 3.10765L37.793 1.54237C37.9249 1.47271 38.0713 1.43501 38.2205 1.43229C38.3696 1.42957 38.5173 1.46191 38.6517 1.52672C38.6957 1.54673 38.7337 1.57788 38.7619 1.61711C38.7902 1.65633 38.8077 1.70226 38.8127 1.75033C38.8127 1.81518 38.8127 2.05668 38.8127 2.11929C38.8057 2.17542 38.7843 2.22878 38.7506 2.27422C38.7169 2.31966 38.672 2.35564 38.6204 2.37868L35.908 3.93277Z" fill="black"/>
<path id="Vector_13" d="M35.9094 3.57511L38.6218 2.00983C38.8678 1.86672 38.879 1.64534 38.6509 1.51341C38.5165 1.44861 38.3688 1.41626 38.2197 1.41898C38.0705 1.4217 37.9241 1.45941 37.7922 1.52906L35.0798 3.09434C34.8361 3.23522 34.8227 3.45659 35.053 3.58852C35.1868 3.65365 35.334 3.68637 35.4828 3.68404C35.6316 3.68171 35.7777 3.64439 35.9094 3.57511Z" fill="#AED5E8"/>
<path id="Vector_14" opacity="0.3" d="M35.9094 3.57511L38.6218 2.00983C38.8678 1.86672 38.879 1.64534 38.6509 1.51341C38.5165 1.44861 38.3688 1.41626 38.2197 1.41898C38.0705 1.4217 37.9241 1.45941 37.7922 1.52906L35.0798 3.09434C34.8361 3.23522 34.8227 3.45659 35.053 3.58852C35.1868 3.65365 35.334 3.68637 35.4828 3.68404C35.6316 3.68171 35.7777 3.64439 35.9094 3.57511Z" fill="black"/>
</g>
</g>
<g id="freepik--device--inject-83_2">
<g id="freepik--mobile--inject-83_2">
<path id="Vector_15" d="M14.5382 25.2883C14.5329 25.1395 14.4925 24.994 14.4202 24.8638C14.3479 24.7336 14.2458 24.6224 14.1223 24.5392C14.0819 24.5093 14.0339 24.4912 13.9838 24.4869C13.9337 24.4825 13.8833 24.4921 13.8383 24.5146C13.7869 24.5459 13.5812 24.6599 13.5275 24.6935C13.4826 24.7275 13.4473 24.7726 13.4249 24.8243C13.4026 24.876 13.394 24.9326 13.4001 24.9887V31.6344C13.4055 31.7829 13.4457 31.9281 13.5176 32.0582C13.5894 32.1884 13.6909 32.2998 13.8137 32.3835C13.8542 32.4107 13.9009 32.427 13.9495 32.4309C13.998 32.4348 14.0468 32.4262 14.091 32.4058C14.1492 32.3768 14.3571 32.256 14.413 32.2225C14.4579 32.1885 14.4933 32.1434 14.5156 32.0917C14.5379 32.0399 14.5465 31.9833 14.5405 31.9273L14.5382 25.2883Z" fill="#AED5E8"/>
<path id="Vector_16" opacity="0.3" d="M14.5382 25.2883C14.5329 25.1395 14.4925 24.994 14.4202 24.8638C14.3479 24.7336 14.2458 24.6224 14.1223 24.5392C14.0819 24.5093 14.0339 24.4912 13.9838 24.4869C13.9337 24.4825 13.8833 24.4921 13.8383 24.5146C13.7869 24.5459 13.5812 24.6599 13.5275 24.6935C13.4826 24.7275 13.4473 24.7726 13.4249 24.8243C13.4026 24.876 13.394 24.9326 13.4001 24.9887V31.6344C13.4055 31.7829 13.4457 31.9281 13.5176 32.0582C13.5894 32.1884 13.6909 32.2998 13.8137 32.3835C13.8542 32.4107 13.9009 32.427 13.9495 32.4309C13.998 32.4348 14.0468 32.4262 14.091 32.4058C14.1492 32.3768 14.3571 32.256 14.413 32.2225C14.4579 32.1885 14.4933 32.1434 14.5156 32.0917C14.5379 32.0399 14.5465 31.9833 14.5405 31.9273L14.5382 25.2883Z" fill="black"/>
<path id="Vector_17" d="M14.2305 25.4754V32.1211C14.2305 32.4028 14.0449 32.5236 13.8146 32.3916C13.6917 32.308 13.5903 32.1966 13.5184 32.0664C13.4465 31.9363 13.4063 31.7911 13.4009 31.6426V24.9901C13.4009 24.7061 13.5865 24.5854 13.8146 24.7173C13.939 24.8016 14.0416 24.9144 14.114 25.0462C14.1863 25.178 14.2262 25.3251 14.2305 25.4754Z" fill="#AED5E8"/>
<path id="Vector_18" opacity="0.4" d="M14.2305 25.4754V32.1211C14.2305 32.4028 14.0449 32.5236 13.8146 32.3916C13.6917 32.308 13.5903 32.1966 13.5184 32.0664C13.4465 31.9363 13.4063 31.7911 13.4009 31.6426V24.9901C13.4009 24.7061 13.5865 24.5854 13.8146 24.7173C13.939 24.8016 14.0416 24.9144 14.114 25.0462C14.1863 25.178 14.2262 25.3251 14.2305 25.4754Z" fill="black"/>
<path id="Vector_19" d="M14.5382 34.1938C14.5329 34.045 14.4925 33.8995 14.4202 33.7693C14.3479 33.6391 14.2458 33.5279 14.1223 33.4447C14.0819 33.4148 14.0339 33.3967 13.9838 33.3924C13.9337 33.388 13.8833 33.3976 13.8383 33.4201C13.7869 33.4514 13.5812 33.5655 13.5275 33.599C13.4826 33.633 13.4473 33.6781 13.4249 33.7298C13.4026 33.7815 13.394 33.8382 13.4001 33.8942V37.0247C13.4058 37.1729 13.4462 37.3176 13.5181 37.4474C13.5899 37.5771 13.6912 37.6881 13.8137 37.7716C13.8528 37.8005 13.899 37.8184 13.9473 37.8236C13.9957 37.8287 14.0445 37.8208 14.0888 37.8007C14.1469 37.7716 14.3549 37.6508 14.4108 37.6173C14.4555 37.5836 14.4908 37.539 14.5131 37.4876C14.5354 37.4363 14.5441 37.38 14.5382 37.3244V34.1938Z" fill="#AED5E8"/>
<path id="Vector_20" opacity="0.3" d="M14.5382 34.1938C14.5329 34.045 14.4925 33.8995 14.4202 33.7693C14.3479 33.6391 14.2458 33.5279 14.1223 33.4447C14.0819 33.4148 14.0339 33.3967 13.9838 33.3924C13.9337 33.388 13.8833 33.3976 13.8383 33.4201C13.7869 33.4514 13.5812 33.5655 13.5275 33.599C13.4826 33.633 13.4473 33.6781 13.4249 33.7298C13.4026 33.7815 13.394 33.8382 13.4001 33.8942V37.0247C13.4058 37.1729 13.4462 37.3176 13.5181 37.4474C13.5899 37.5771 13.6912 37.6881 13.8137 37.7716C13.8528 37.8005 13.899 37.8184 13.9473 37.8236C13.9957 37.8287 14.0445 37.8208 14.0888 37.8007C14.1469 37.7716 14.3549 37.6508 14.4108 37.6173C14.4555 37.5836 14.4908 37.539 14.5131 37.4876C14.5354 37.4363 14.5441 37.38 14.5382 37.3244V34.1938Z" fill="black"/>
<path id="Vector_21" d="M14.2305 34.3632V37.4937C14.2305 37.7755 14.0449 37.8985 13.8146 37.7643C13.6917 37.6806 13.5903 37.5692 13.5184 37.4391C13.4465 37.309 13.4063 37.1638 13.4009 37.0152V33.8847C13.4009 33.6029 13.5865 33.4799 13.8146 33.6118C13.9379 33.6958 14.0397 33.8075 14.112 33.938C14.1842 34.0685 14.2248 34.2141 14.2305 34.3632Z" fill="#AED5E8"/>
<path id="Vector_22" opacity="0.4" d="M14.2305 34.3632V37.4937C14.2305 37.7755 14.0449 37.8985 13.8146 37.7643C13.6917 37.6806 13.5903 37.5692 13.5184 37.4391C13.4465 37.309 13.4063 37.1638 13.4009 37.0152V33.8847C13.4009 33.6029 13.5865 33.4799 13.8146 33.6118C13.9379 33.6958 14.0397 33.8075 14.112 33.938C14.1842 34.0685 14.2248 34.2141 14.2305 34.3632Z" fill="black"/>
</g>
</g>
</g>
<g id="freepik--Doctor--inject-83">
<path id="Vector_23" d="M21.9492 28.643C21.9715 28.7516 22.0013 28.8584 22.0387 28.9628C22.184 29.3563 22.4456 29.7275 22.4233 30.1479C22.3987 30.622 22.0253 30.9887 21.739 31.3666C21.3671 31.8663 21.1191 32.4472 21.0157 33.0614C20.9123 33.6757 20.9564 34.3058 21.1442 34.8997C21.4192 35.6231 21.8005 36.3014 22.2757 36.9122L23.3557 38.4439C23.6823 38.8728 24.0991 39.2247 24.5767 39.4747C25.5047 39.9993 26.5402 40.3052 27.6044 40.3692C29.3535 40.4873 31.0934 40.0311 32.5596 39.07C34.1137 38.0414 33.4294 35.4028 35.0193 34.439C36.9424 33.2762 37.8592 29.2378 35.5023 27.5518C35.5023 27.5518 35.8824 25.0787 35.1848 24.4481C34.4895 23.8663 33.6292 23.5175 32.725 23.4508C31.4773 23.3211 30.2273 23.5648 28.9818 23.5604C27.6996 23.5562 26.4186 23.6361 25.1469 23.7996C24.6996 23.86 24.0691 24.0232 23.8276 24.4593C23.7594 24.6303 23.7408 24.8171 23.7739 24.9982C23.7704 25.2855 23.6677 25.5628 23.4832 25.783C23.2059 26.1185 22.8124 26.3443 22.5172 26.6596C22.2736 26.9225 22.0953 27.239 21.9967 27.5836C21.898 27.9281 21.8817 28.291 21.9492 28.643Z" fill="#263238"/>
<path id="Vector_24" d="M34.3593 32.2145C36.3718 32.2704 36.6334 32.6997 38.4357 34.4841C39.9339 35.9667 44.898 40.5485 44.898 40.5485L50.8461 42.1316L49.4418 45.7608C49.4418 45.7608 48.1002 45.7049 45.4168 45.7027C43.7688 45.7027 43.1964 45.3337 41.5372 44.2269C40.6919 43.6611 35.9223 40.5395 35.9223 40.5395L34.3593 32.2145Z" fill="#E6E6E6"/>
<path id="Vector_25" d="M57.4264 34.7904L46.5254 38.632L43.52 51.6015L43.7638 51.8609L54.1281 47.9946L57.6679 35.0498L57.4264 34.7904Z" fill="#F2C617"/>
<path id="Vector_26" opacity="0.35" d="M46.7669 38.8911L43.7638 51.8605L43.52 51.6012L46.5254 38.6317L46.7669 38.8911Z" fill="black"/>
<path id="Vector_27" opacity="0.25" d="M57.6687 35.0509L46.7676 38.8925L43.7645 51.862L54.1289 47.9958L57.6687 35.0509Z" fill="black"/>
<g id="Group" opacity="0.2">
<path id="Vector_28" d="M52.5046 45.3591C52.6053 45.614 53.4416 46.1752 54.6513 46.0746L54.8548 45.3278L52.5046 45.3591Z" fill="black"/>
</g>
<g id="Group_2" opacity="0.1">
<path id="Vector_29" d="M54.3861 37.7121L54.4755 37.276C54.5247 37.0367 53.8852 37.162 53.0466 37.5578L51.0789 38.1526C50.2403 38.5484 49.4487 38.8435 49.3973 39.0828L49.3079 39.5166L54.3861 37.7121Z" fill="black"/>
</g>
<path id="Vector_30" d="M55.0328 35.7415C55.0641 35.5917 54.8092 35.623 54.4671 35.7147L53.8387 35.9271C53.8387 35.9271 54.0959 35.2965 52.6089 35.7035C50.9743 36.1507 50.9385 36.9624 50.9385 36.9624C50.6828 37.0733 50.4207 37.1689 50.1536 37.2486C49.6102 37.4253 49.5521 37.5304 49.5074 37.6824L49.4269 37.9575L54.9836 36.0031C54.9836 36.0031 55.0104 35.8913 55.0328 35.7415Z" fill="#37474F"/>
<path id="Vector_31" d="M54.4475 36.5757C53.9332 36.7993 53.7208 36.9223 53.6425 37.2935C53.5553 37.7161 53.5374 37.8928 53.5374 37.8928L50.6439 39.0332C50.6439 39.0332 50.8004 38.4093 50.8384 38.2013C50.8764 37.9934 50.4941 37.9934 49.9932 38.2237L50.1117 37.7049L54.613 36.0345L54.4475 36.5757Z" fill="#37474F"/>
<path id="Vector_32" d="M54.532 37.7148C54.532 37.7148 54.5745 37.5202 54.6237 37.2787C54.6729 37.0372 54.0334 37.1647 53.1948 37.5605L51.2271 38.1553C50.3885 38.5511 49.5947 38.8462 49.5455 39.0855L49.4561 39.5327L54.532 37.7148Z" fill="#37474F"/>
<path id="Vector_33" d="M56.4583 39.4874C56.4583 39.4874 56.0715 40.9096 55.9686 41.2763C55.8658 41.643 54.0814 42.4592 53.1891 42.571C51.4808 42.7834 51.2862 43.1524 51.6954 44.3599C52.0756 45.4779 53.1869 45.9028 54.7298 45.7217C55.4543 45.6367 56.4539 44.9949 56.8474 43.8746C57.3483 42.4435 57.071 40.9163 57.279 40.0733C57.487 39.2302 56.8921 38.9887 56.4583 39.4874Z" fill="#FFA8A7"/>
<path id="Vector_34" d="M39.5671 59.0452L38.411 59.716L37.9258 59.9955L31.5663 63.665L30.6987 64.1569L29.234 65.0022L29.6812 60.4383L30.5354 51.6012V51.5095L30.5757 51.1137L31.6937 39.5597L32.1834 34.5038L32.3556 32.6904L32.4138 32.1045H32.4451C32.963 31.9604 33.5103 31.9604 34.0282 32.1045C34.1437 32.1395 34.2559 32.1844 34.3636 32.2387C35.0345 32.5718 35.4817 33.2203 35.8529 33.9023C35.9441 34.0684 36.0263 34.2394 36.0989 34.4144C36.3746 35.0772 36.5872 35.7645 36.7339 36.4672C37.0269 37.7641 37.4048 39.0901 37.5546 41.1809C37.5782 41.719 37.5497 42.2582 37.4696 42.7909C37.3688 44.2003 37.3517 45.6146 37.4182 47.0261C37.606 50.2237 38.411 51.6727 39.5671 59.0452Z" fill="#E0E0E0"/>
<path id="Vector_35" d="M37.9217 59.9929L31.5622 63.6624L30.6946 64.1588L29.23 65.004L28.2215 65.5854L22.099 69.1185C22.1638 66.6587 22.1929 63.9911 22.1348 61.471C22.1169 60.628 22.1102 59.7671 22.146 58.886C22.2622 55.827 22.8436 52.5466 24.9277 49.0941L25.0238 48.9197C25.2698 50.3799 27.5059 51.328 29.5184 51.5516L29.742 51.5717C29.9947 51.5963 30.2563 51.6075 30.5269 51.6075H30.6968C32.3985 51.5918 34.4133 51.1916 36.7343 50.4067C36.958 51.7036 37.1816 53.4053 37.4208 55.3955C37.5282 56.2899 37.637 57.2432 37.7473 58.2554C37.792 58.8212 37.8613 59.4003 37.9217 59.9929Z" fill="#FFA8A7"/>
<path id="Vector_36" d="M38.4079 59.7114L37.9226 59.9909L31.5631 63.6603L30.6955 64.1568L29.2309 65.002L28.2224 65.5834L22.0999 69.1165L21.4291 69.5033C21.4626 66.8557 21.485 64.2619 21.4827 62.634C21.4827 61.1201 21.5163 59.774 21.599 58.5799C21.7623 56.223 22.1021 54.4498 22.6701 53.1081C23.3365 51.6397 24.1249 50.2297 25.027 48.8931C25.027 48.8931 25.586 50.7803 29.7675 51.0778H29.7944C30.0403 51.0956 30.2997 51.1068 30.5725 51.1113H30.8901C36.0957 51.1113 36.6704 49.7987 36.6704 49.7987C37.1789 51.7288 37.5813 53.6854 37.8757 55.6595C37.986 56.3572 38.0926 57.1026 38.1954 57.8956C38.2715 58.477 38.343 59.0808 38.4079 59.7114Z" fill="#F2C617"/>
<path id="Vector_37" opacity="0.4" d="M38.4079 59.7114L37.9226 59.9909L31.5631 63.6603L30.6955 64.1568L29.2309 65.002L28.2224 65.5834L22.0999 69.1165L21.4291 69.5033C21.4626 66.8557 21.485 64.2619 21.4827 62.634C21.4827 61.1201 21.5163 59.774 21.599 58.5799C21.7623 56.223 22.1021 54.4498 22.6701 53.1081C23.3365 51.6397 24.1249 50.2297 25.027 48.8931C25.027 48.8931 25.586 50.7803 29.7675 51.0778H29.7944C30.0403 51.0956 30.2997 51.1068 30.5725 51.1113H30.8901C36.0957 51.1113 36.6704 49.7987 36.6704 49.7987C37.1789 51.7288 37.5813 53.6854 37.8757 55.6595C37.986 56.3572 38.0926 57.1026 38.1954 57.8956C38.2715 58.477 38.343 59.0808 38.4079 59.7114Z" fill="black"/>
<path id="Vector_38" opacity="0.2" d="M35.4232 56.7458C35.4232 56.7458 34.8418 58.5929 32.3955 59.6282L32.2792 60.1939L31.5637 63.6621L30.696 64.1586L31.2148 60.3326L31.4384 58.6689C32.9503 58.5121 34.3598 57.8319 35.4232 56.7458Z" fill="black"/>
<path id="Vector_39" d="M27.9831 32.6398L25.5234 32.8992C23.8955 33.2972 23.1598 34.0172 22.9921 35.455C22.9139 36.1259 22.5091 37.9148 23.0771 40.1509C23.5914 42.1813 24.9644 47.1499 24.9644 47.1499C24.9644 47.1499 21.8047 51.2733 21.2323 58.3439C27.0149 62.1184 35.8855 60.0903 38.2849 57.8094C38.0836 55.6493 36.704 49.7214 36.5318 47.7961C36.5318 47.7961 36.6592 44.7886 36.8985 43.4849C38.7276 41.4881 38.4951 39.5784 37.6744 38.0377C36.1583 35.1934 33.873 32.6934 33.1329 32.6957L27.9831 32.6398Z" fill="#F2C617"/>
<path id="Vector_40" opacity="0.7" d="M27.9831 32.6398L25.5234 32.8992C23.8955 33.2972 23.1598 34.0172 22.9921 35.455C22.9139 36.1259 22.5091 37.9148 23.0771 40.1509C23.5914 42.1813 24.9644 47.1499 24.9644 47.1499C24.9644 47.1499 21.8047 51.2733 21.2323 58.3439C27.0149 62.1184 35.8855 60.0903 38.2849 57.8094C38.0836 55.6493 36.704 49.7214 36.5318 47.7961C36.5318 47.7961 36.6592 44.7886 36.8985 43.4849C38.7276 41.4881 38.4951 39.5784 37.6744 38.0377C36.1583 35.1934 33.873 32.6934 33.1329 32.6957L27.9831 32.6398Z" fill="white"/>
<path id="Vector_41" d="M30.1152 48.0356C30.1152 48.0803 30.1152 48.1206 30.1152 48.1541V48.2123C30.1166 48.2309 30.1166 48.2496 30.1152 48.2682C30.0302 49.1626 29.9296 50.113 29.8223 51.0812C29.8223 51.0812 29.8223 51.0812 29.8223 51.0946C29.8066 51.2512 29.7887 51.4077 29.7708 51.5664C29.4421 54.4846 29.0508 57.6039 28.7489 60.4438C28.6751 61.1325 28.608 61.8034 28.5477 62.4563C28.4538 63.4335 28.3531 64.5046 28.2503 65.5869L22.1278 69.1199L21.457 69.5068L19.7463 70.4929C20.0907 67.1052 20.8935 59.2564 21.3407 55.7144C21.3921 55.3142 21.4592 54.9139 21.5352 54.5159L21.5956 54.2252L21.6224 54.1067C21.6515 53.9725 21.6806 53.8428 21.7119 53.7109C21.7432 53.5789 21.7723 53.4671 21.8013 53.3486C21.8706 53.0781 21.9444 52.812 22.0249 52.5526C22.0629 52.4274 22.0987 52.3021 22.139 52.1791C22.1792 52.0562 22.2128 51.9332 22.253 51.8124C22.3335 51.5709 22.4118 51.3339 22.4945 51.1036C22.4935 51.0991 22.4935 51.0946 22.4945 51.0902C22.5325 50.9806 22.5728 50.8665 22.613 50.7637C22.6667 50.6116 22.7226 50.464 22.7785 50.3165L22.8456 50.1398C22.8791 50.0593 22.9082 49.981 22.9395 49.9028C23.0491 49.6277 23.1631 49.3661 23.2637 49.1224C23.2861 49.0687 23.3107 49.015 23.3331 48.9636C23.3554 48.9122 23.3912 48.8362 23.418 48.7735C23.4851 48.617 23.5522 48.4717 23.617 48.3263C23.6439 48.2637 23.6729 48.2033 23.6998 48.1452C23.7266 48.0871 23.7646 48.011 23.7937 47.9484L23.8362 47.859L23.8809 47.7718C23.8838 47.7603 23.8892 47.7497 23.8966 47.7405C23.9027 47.7242 23.9101 47.7085 23.9189 47.6935C23.9243 47.6835 23.9288 47.673 23.9323 47.6622C23.951 47.6306 23.9674 47.5977 23.9815 47.5638L24.1313 47.2731C24.1313 47.2575 24.147 47.2463 24.1515 47.2329L24.2096 47.1255L22.3492 39.4109L21.4234 35.5783V35.5156C21.4659 35.1758 21.7499 33.5725 23.3867 33.085C24.3108 32.8464 25.2574 32.7055 26.2109 32.6646C26.5777 32.6422 26.9086 32.6333 27.1792 32.6266H27.6063H27.8634C27.864 32.6318 27.864 32.637 27.8634 32.6422C27.8768 32.6758 27.9149 32.7764 27.973 32.9329C27.9793 32.9591 27.9883 32.9846 27.9998 33.009C28 33.0127 28 33.0164 27.9998 33.0201C28.4023 34.1248 29.5316 37.3403 30.0928 40.1332C30.1912 40.6162 30.2717 41.088 30.3298 41.5353C30.4976 42.9328 30.3746 45.2718 30.1152 48.0356Z" fill="#FAFAFA"/>
<path id="Vector_42" d="M24.2687 43.4286C24.2687 43.4286 24.4923 42.3262 24.821 39.9448C25.2034 37.1988 25.067 35.8415 24.6533 34.9739L22.3211 39.4215L24.1815 47.1361C24.1815 47.1361 22.2696 50.6378 21.4982 54.5153C23.3273 49.3476 25.3286 47.8069 25.3286 47.8069L24.2687 43.4286Z" fill="#E6E6E6"/>
<path id="Vector_43" d="M32.4399 30.9172C33.1644 30.9172 33.2494 31.038 33.8733 31.8743C34.2445 32.3729 36.5946 36.2526 36.5946 36.2526C36.5946 36.2526 34.7252 33.7929 33.3143 33.046C33.0426 32.8868 32.7487 32.7692 32.4422 32.6972L32.4399 30.9172Z" fill="#EBEBEB"/>
<path id="Vector_44" d="M27.085 39.164C27.085 38.9404 27.0627 38.4574 27.0247 37.8491C26.8391 34.8662 26.7496 32.1828 27.7559 31.9592L27.8431 32.3707C27.1096 32.5294 27.3511 36.3688 27.4428 37.8134C27.4831 38.435 27.5144 38.9314 27.5032 39.1729L27.085 39.164Z" fill="#F2C617"/>
<path id="Vector_45" d="M23.7285 19.6289L25.2938 20.9102C25.3789 20.8128 25.4432 20.699 25.4828 20.5759C25.5224 20.4528 25.5365 20.3229 25.5241 20.1941C25.5118 20.0654 25.4733 19.9405 25.411 19.8272C25.3487 19.7138 25.2639 19.6144 25.1619 19.535C24.9561 19.3648 24.693 19.2797 24.4265 19.2972C24.1601 19.3146 23.9103 19.4333 23.7285 19.6289Z" fill="#263238"/>
<path id="Vector_46" d="M27.8152 31.1072C27.8152 30.1256 25.5277 28.6475 24.347 26.5836C23.1664 24.5196 23.7567 21.1252 25.3756 20.6042C25.3891 20.6042 25.4338 20.1682 25.4405 20.1369C25.53 19.743 25.6809 19.3657 25.8877 19.0188C26.5474 17.8829 27.9449 17.0063 29.2419 16.8229C34.3693 16.0761 36.7261 18.0685 37.6675 20.2599C37.9727 20.997 38.1087 21.7932 38.0656 22.5899C38.0392 23.175 37.8221 23.7354 37.4474 24.1856C37.0727 24.6358 36.561 24.951 35.9905 25.0831L27.8152 31.1072Z" fill="#263238"/>
<path id="Vector_47" d="M34.9302 19.5261C35.9343 19.9733 36.8891 21.5006 36.8734 25.7984C36.86 29.4433 35.742 30.3645 35.1785 30.6351C34.615 30.9057 33.5125 30.767 32.4415 30.6038V32.6968C32.4415 32.6968 33.2442 33.4862 32.9625 33.9826C32.6807 34.479 31.6409 34.8994 30.0242 34.3918C28.1928 33.8171 27.7747 32.6029 27.7747 32.6029L27.7322 28.0099C27.7322 28.0099 27.1173 28.6562 26.0328 27.7081C25.1383 26.9232 24.8163 25.5793 25.4894 24.8414C26.1625 24.1034 27.0256 24.0453 27.8038 24.8704L28.3628 24.5753C29.3601 24.459 30.8225 24.2913 31.9003 23.7479C34.6641 22.3414 34.9504 20.8164 34.9302 19.5261Z" fill="#FFA8A7"/>
<path id="Vector_48" d="M27.8197 24.2739L27.8331 26.2864C27.9624 26.2899 28.0909 26.2668 28.2109 26.2187C28.331 26.1706 28.4399 26.0985 28.531 26.0068C28.6221 25.915 28.6934 25.8056 28.7407 25.6853C28.788 25.565 28.8101 25.4362 28.8058 25.307C28.8034 25.0418 28.7001 24.7874 28.517 24.5955C28.3338 24.4037 28.0845 24.2887 27.8197 24.2739Z" fill="#263238"/>
<path id="Vector_49" d="M35.0239 24.5622C35.0249 24.6567 35.0535 24.7489 35.1064 24.8274C35.1593 24.9058 35.234 24.9669 35.3213 25.0033C35.4086 25.0396 35.5046 25.0495 35.5975 25.0318C35.6904 25.0141 35.776 24.9695 35.8438 24.9035C35.9115 24.8376 35.9584 24.7532 35.9787 24.6608C35.9989 24.5684 35.9916 24.4722 35.9577 24.3839C35.9237 24.2957 35.8646 24.2193 35.7876 24.1644C35.7107 24.1094 35.6193 24.0782 35.5248 24.0747C35.4598 24.0732 35.3951 24.0847 35.3345 24.1085C35.2739 24.1323 35.2187 24.168 35.1721 24.2134C35.1255 24.2587 35.0883 24.313 35.0629 24.3729C35.0375 24.4327 35.0242 24.4971 35.0239 24.5622Z" fill="black"/>
<path id="Vector_50" d="M31.1648 24.7772C31.1609 24.8465 31.1707 24.916 31.1936 24.9815C31.2166 25.047 31.2522 25.1074 31.2985 25.1591C31.3449 25.2108 31.4009 25.2529 31.4636 25.2829C31.5262 25.3129 31.5941 25.3303 31.6634 25.334C31.7338 25.3346 31.8036 25.3213 31.8688 25.2948C31.934 25.2684 31.9934 25.2293 32.0434 25.1799C32.0935 25.1304 32.1333 25.0716 32.1606 25.0067C32.1879 24.9418 32.202 24.8722 32.2023 24.8018C32.2045 24.7337 32.1933 24.6658 32.1693 24.602C32.1452 24.5382 32.1089 24.4798 32.0623 24.4301C32.0156 24.3803 31.9597 24.3403 31.8976 24.3122C31.8355 24.2841 31.7685 24.2685 31.7003 24.2663C31.6322 24.2641 31.5643 24.2753 31.5005 24.2993C31.4367 24.3234 31.3783 24.3597 31.3286 24.4064C31.2789 24.453 31.2388 24.5089 31.2107 24.571C31.1826 24.6331 31.167 24.7001 31.1648 24.7683V24.7772Z" fill="black"/>
<path id="Vector_51" d="M36.3013 23.661L35.0558 23.1668C35.0846 23.083 35.1304 23.0061 35.1903 22.9408C35.2502 22.8755 35.3229 22.8233 35.404 22.7874C35.485 22.7515 35.5725 22.7327 35.6611 22.7322C35.7497 22.7317 35.8375 22.7495 35.9189 22.7844C36.083 22.8535 36.2143 22.983 36.2855 23.1462C36.3567 23.3094 36.3623 23.4937 36.3013 23.661Z" fill="black"/>
<path id="Vector_52" d="M33.8424 24.1703L33.7798 27.1533L35.3831 26.7977L33.8424 24.1703Z" fill="#F28F8F"/>
<path id="Vector_53" d="M31.9517 27.759L33.5169 28.2443C33.4942 28.351 33.4497 28.4519 33.3863 28.5407C33.3229 28.6295 33.2419 28.7043 33.1484 28.7605C33.0549 28.8167 32.9508 28.8531 32.8427 28.8673C32.7345 28.8816 32.6245 28.8735 32.5196 28.8435C32.3048 28.7689 32.1265 28.6151 32.021 28.4137C31.9155 28.2122 31.8907 27.9781 31.9517 27.759Z" fill="#B16668"/>
<path id="Vector_54" d="M32.8195 28.8734C32.8178 28.6558 32.7301 28.4476 32.5755 28.2943C32.421 28.141 32.2121 28.055 31.9944 28.055C31.9728 28.0539 31.9512 28.0539 31.9296 28.055C31.9376 28.2297 31.998 28.398 32.1028 28.538C32.2077 28.6779 32.3522 28.7831 32.5177 28.8399C32.6149 28.872 32.7177 28.8834 32.8195 28.8734Z" fill="#F28F8F"/>
<path id="Vector_55" d="M32.4415 30.6147C31.3123 30.4806 28.9845 29.8321 28.6066 28.8862C28.758 29.361 29.0486 29.7794 29.4406 30.087C30.1428 30.6908 32.4415 31.3191 32.4415 31.3191V30.6147Z" fill="#F28F8F"/>
<path id="Vector_56" d="M27.7625 30.9286C27.4674 30.8682 27.2058 30.9979 26.9643 31.4049C26.7228 31.8119 26.1928 32.6795 26.1928 32.6795C26.1928 32.6795 25.9178 35.5395 26.1928 36.2573C26.4298 36.8744 29.0438 39.1888 29.0438 39.1888C29.0438 39.1888 28.3618 41.7581 28.3372 42.6011C28.3126 43.4441 29.9025 46.644 30.0948 48.2808C30.0948 48.2808 30.6605 43.1378 30.4168 41.284C29.9964 38.0707 28.4893 33.9205 27.7782 32.6012L27.7625 30.9286Z" fill="#EBEBEB"/>
<path id="Vector_57" d="M29.3598 41.5731C29.1853 41.1579 28.9797 40.7565 28.7448 40.3723C28.3736 39.7574 27.9152 39.167 27.5015 39.015C27.4388 38.9901 27.3722 38.9764 27.3048 38.9747H27.2824C27.2143 38.9786 27.1475 38.9953 27.0856 39.0239C26.7592 39.1693 26.4148 39.6143 26.1353 40.1263C25.849 40.6405 25.6131 41.1812 25.4309 41.7408C25.3236 42.0874 25.3705 42.8231 25.498 43.6639C25.7484 45.2962 26.3052 47.3356 26.6161 47.738C26.8439 48.0193 27.113 48.2643 27.4143 48.4648C27.2298 48.5868 27.0308 48.6852 26.8218 48.7577C26.7036 48.8008 26.5787 48.8228 26.4528 48.8226V49.1155H26.4886C26.6215 49.1134 26.7534 49.0915 26.8799 49.0506C27.173 48.9555 27.4498 48.816 27.7006 48.637C27.9653 48.7946 28.2526 48.9107 28.5525 48.9813C28.6937 49.0152 28.8398 49.0243 28.9841 49.0082L28.9483 48.7175C28.8231 48.7281 28.697 48.7182 28.5749 48.6884C28.3598 48.6323 28.1525 48.5497 27.9577 48.4424C28.2415 48.2165 28.4902 47.9498 28.6956 47.6508C28.8701 47.3847 29.0847 46.4679 29.2457 45.4147C29.3441 44.7864 29.4246 44.1111 29.4693 43.4961C29.5185 42.6375 29.4962 41.9018 29.3598 41.5731ZM28.4362 47.4898C28.2264 47.7925 27.9689 48.0591 27.6737 48.2792C27.3601 48.0855 27.0806 47.8415 26.8464 47.5569C26.5557 47.179 26.019 45.1889 25.7775 43.6191C25.6545 42.8253 25.6098 42.1388 25.7082 41.8302C25.8905 41.2639 26.1319 40.7183 26.4282 40.2024C26.7368 39.6702 27.0655 39.2788 27.2936 39.2699C27.5642 39.2699 28.0024 39.7596 28.4116 40.388C28.4944 40.5109 28.5726 40.6451 28.6487 40.7793C28.8155 41.0682 28.9648 41.3669 29.0959 41.6737C29.2189 41.9778 29.2323 42.6643 29.1764 43.4626C29.1451 43.9098 29.0959 44.3772 29.0333 44.8423C28.8633 46.0565 28.6241 47.1947 28.4362 47.4831V47.4898Z" fill="#455A64"/>
<path id="Vector_58" d="M29.3869 48.8365C29.3904 48.9218 29.3685 49.0063 29.3239 49.0792C29.2794 49.152 29.2142 49.2101 29.1366 49.2459C29.0591 49.2817 28.9727 49.2937 28.8883 49.2803C28.8039 49.267 28.7254 49.2289 28.6627 49.1709C28.6 49.1129 28.5559 49.0376 28.536 48.9545C28.5161 48.8714 28.5214 48.7843 28.551 48.7042C28.5807 48.6241 28.6335 48.5546 28.7027 48.5045C28.7719 48.4544 28.8544 48.426 28.9397 48.4228C29.0538 48.4185 29.165 48.4597 29.2488 48.5372C29.3326 48.6148 29.3823 48.7224 29.3869 48.8365Z" fill="#263238"/>
<path id="Vector_59" d="M26.88 48.9513C26.8839 49.0367 26.8624 49.1213 26.8181 49.1945C26.7739 49.2677 26.7089 49.326 26.6314 49.3622C26.5539 49.3983 26.4674 49.4107 26.3829 49.3976C26.2984 49.3845 26.2196 49.3466 26.1567 49.2887C26.0938 49.2308 26.0495 49.1555 26.0294 49.0724C26.0093 48.9892 26.0144 48.902 26.044 48.8218C26.0736 48.7416 26.1263 48.6719 26.1955 48.6217C26.2648 48.5715 26.3473 48.543 26.4328 48.5398C26.4892 48.5374 26.5455 48.5462 26.5985 48.5656C26.6515 48.5849 26.7002 48.6146 26.7417 48.6528C26.7833 48.691 26.8169 48.737 26.8406 48.7883C26.8643 48.8395 26.8777 48.8949 26.88 48.9513Z" fill="#263238"/>
<path id="Vector_60" d="M29.4353 43.4902L29.1871 43.4723C29.1618 43.4701 29.1383 43.4581 29.1217 43.4389C29.105 43.4197 29.0964 43.3949 29.0976 43.3695C29.1491 42.5488 29.1222 41.9451 29.0216 41.7036C28.5878 40.6437 27.6799 39.3154 27.2976 39.3311C26.9152 39.3467 26.1236 40.7488 25.7792 41.84C25.701 42.0904 25.7256 42.6942 25.8441 43.5081C25.848 43.533 25.842 43.5584 25.8273 43.5789C25.8127 43.5994 25.7906 43.6133 25.7658 43.6177L25.5199 43.6557C25.4941 43.6589 25.4681 43.6517 25.4476 43.6358C25.427 43.6199 25.4136 43.5965 25.4103 43.5707C25.2739 42.6584 25.2582 42.0323 25.3611 41.708C25.5444 41.1222 26.4098 38.9286 27.2797 38.8928C28.1495 38.857 29.1983 40.9679 29.4308 41.5381C29.5583 41.8512 29.5963 42.4773 29.5381 43.3963C29.5364 43.4222 29.5248 43.4464 29.5056 43.4639C29.4864 43.4814 29.4612 43.4909 29.4353 43.4902Z" fill="#F2C617"/>
<path id="Vector_61" d="M24.0731 33.0555C22.4362 33.0287 21.6804 33.581 20.6429 34.9696C19.82 36.072 16.6179 42.029 15.5557 43.7687L9.77314 40.6784C8.60365 39.8712 8.22575 38.5966 7.48559 37.852C6.74544 37.1073 5.97846 36.9575 5.16451 36.3426C4.35057 35.7276 4.01962 35.2491 3.78483 35.8238C3.55004 36.3985 4.45566 37.3287 4.62784 37.559C4.80003 37.7893 5.70789 38.3014 4.52946 38.3193C3.35103 38.3372 1.01876 37.1163 0.45079 36.8994C-0.117182 36.6825 -0.0836403 37.36 0.195874 37.7938C0.475387 38.2276 0.461971 39.453 0.93379 40.1619C1.43244 40.9132 1.70525 41.2397 2.8166 41.7271C3.84968 42.1744 6.01871 42.3532 7.11664 43.0397C8.21457 43.7262 10.9359 46.1457 12.5906 47.5969C14.6948 49.4417 16.1461 49.7794 17.3178 48.6725C18.456 47.4806 19.6098 46.0831 20.1733 45.3742C21.6916 43.4624 24.0932 39.1131 24.0932 39.1131C24.0932 39.1131 25.133 36.877 24.0731 33.0555Z" fill="#FFA8A7"/>
<path id="Vector_62" d="M24.3007 32.8923C21.8902 32.8923 21.1701 33.7644 19.9358 35.7792C18.7015 37.7939 15.5351 43.5608 15.5351 43.5608L10.9757 41.1727C10.9757 41.1727 10.155 42.9794 9.28296 44.8421C9.28296 44.8421 11.8634 47.0782 13.0843 48.1359C14.3053 49.1936 15.9242 50.0232 17.4246 48.7285C19.0279 47.3466 24.2269 40.1664 24.2269 40.1664C25.4612 37.9258 25.1862 34.5292 24.3007 32.8923Z" fill="#F0F0F0"/>
<path id="Vector_63" d="M15.5328 43.561C16.2775 44.4376 17.1786 45.4237 17.1384 46.1996C17.1384 46.1996 17.6482 45.5109 15.8571 42.9729L15.5328 43.561Z" fill="#E0E0E0"/>
</g>
</g>
<g id="freepik--Character--inject-83">
<g id="freepik--character--inject-83">
<path id="Vector_64" d="M70.3849 80.653C70.2932 80.956 70.2855 81.2783 70.3625 81.5854C70.4519 81.7732 71.011 82.3904 72.1514 82.614C73.2918 82.8376 74.8593 82.614 75.5346 82.5738C76.2099 82.5335 78.3298 82.7974 79.0028 82.8824C80.0627 83.0255 80.8767 82.7929 81.2725 82.4105C81.3366 82.3336 81.3838 82.2442 81.4112 82.1479C81.4385 82.0516 81.4454 81.9506 81.4312 81.8515C81.4289 81.5964 81.3913 81.3428 81.3194 81.0979L70.3849 80.653Z" fill="#263238"/>
<path id="Vector_65" d="M81.1447 79.9898C81.1648 80.077 81.1849 80.1664 81.2028 80.2559C81.306 80.7058 81.3385 81.169 81.299 81.6289C81.1626 81.9643 80.7892 82.1499 80.4873 82.2438C79.689 82.4987 79.083 82.4674 78.1997 82.2907C77.3114 82.1613 76.4139 82.106 75.5164 82.1253C74.821 82.1722 73.8639 82.3064 73.1685 82.2416C72.5771 82.2169 71.9936 82.0976 71.44 81.8882C70.9771 81.6915 70.503 81.441 70.389 80.958C70.2526 79.9518 70.6752 79.509 71.1515 79.2273C71.6278 78.9455 72.3053 78.9679 73.0298 78.9209C73.685 78.8762 74.1636 78.8762 74.7472 78.8315C75.2518 78.8069 75.7532 78.7373 76.2454 78.6235C76.6926 78.4849 77.1398 77.9236 77.3232 77.9035C77.3232 77.9035 80.2413 77.8811 80.5186 77.9035C80.8406 77.9303 80.939 78.9276 80.9792 79.1445C81.0105 79.3145 81.0172 79.4978 81.062 79.6611C81.091 79.7706 81.1179 79.8802 81.1447 79.9898Z" fill="#37474F"/>
<path id="Vector_66" d="M72.1523 82.1063C72.0607 81.3818 71.9287 79.8121 73.2704 78.9042H73.4381C72.8355 78.7298 72.1959 78.7298 71.5933 78.9042C70.5267 79.1882 70.0526 80.0513 70.3187 80.9637C70.3232 80.9547 70.5602 81.838 72.1523 82.1063Z" fill="#FAFAFA"/>
<path id="Vector_67" d="M76.0472 78.6734C75.6156 79.0558 75.4658 79.9257 75.4658 79.9257C75.4099 80.2521 74.8195 80.3013 74.8754 79.986C74.9656 79.5525 75.1395 79.1408 75.3875 78.7741C75.5898 78.6673 75.8222 78.6319 76.0472 78.6734Z" fill="#FAFAFA"/>
<path id="Vector_68" d="M74.837 78.8235C74.5116 79.1422 74.2989 79.5582 74.231 80.0086C74.1707 80.3217 73.6787 80.3172 73.7145 80.0086C73.7145 80.0086 73.7704 79.2372 74.231 78.8771C74.3203 78.82 74.4219 78.7853 74.5275 78.776C74.633 78.7667 74.7392 78.7829 74.837 78.8235Z" fill="#FAFAFA"/>
<path id="Vector_69" d="M80.6075 75.7802C80.6075 75.7802 80.5292 77.6563 80.4263 78.2712C80.3637 78.6379 79.883 79.0225 78.6867 78.9823C77.8459 78.9532 77.184 79.0225 77.2175 78.3651L77.2913 76.4487L80.6075 75.7802Z" fill="#FFA8A7"/>
<path id="Vector_70" d="M82.4833 71.3486C82.4408 71.8607 82.3715 72.3236 82.5816 72.8871C82.8813 73.6966 83.5163 74.0677 83.8898 74.3853C84.2826 74.7745 84.6452 75.1931 84.9743 75.6375C85.341 76.0847 85.4372 76.3508 85.9872 76.8383C86.2614 77.0493 86.5856 77.1856 86.9281 77.2338C87.2707 77.282 87.6199 77.2405 87.9416 77.1133C88.4179 76.9098 88.5834 76.7488 88.5543 76.0176C88.5252 75.2864 86.1952 75.0382 86.1952 75.0382L82.4833 71.3486Z" fill="#263238"/>
<path id="Vector_71" d="M88.253 73.8384C88.452 73.91 88.5012 74.27 88.5325 74.9855C88.5549 75.5267 88.7941 76.3272 88.0093 76.6604C87.3765 76.9354 86.3657 76.752 85.9386 76.2422C85.4064 75.6049 85.0442 75.0437 84.2839 74.2677C83.6131 73.5969 82.9422 73.3733 82.6448 72.0204C82.4548 71.1528 82.6046 70.795 83.2173 70.5468C84.0603 70.2047 85.3818 71.3205 86.0437 71.4972C86.6117 71.647 88.054 73.7668 88.253 73.8384Z" fill="#37474F"/>
<path id="Vector_72" d="M86.0443 71.4983L85.9324 71.4603C85.5554 71.4744 85.1887 71.5868 84.8686 71.7865C84.5485 71.9862 84.2862 72.2661 84.1078 72.5985C83.996 72.8333 84.3314 73.0167 84.555 72.8333C85.0246 71.9389 85.9906 71.7465 86.3774 71.7041C86.2822 71.6126 86.1687 71.5425 86.0443 71.4983Z" fill="#FAFAFA"/>
<path id="Vector_73" d="M86.5891 71.9069C86.2352 71.94 85.895 72.0606 85.5992 72.2577C85.3033 72.4548 85.061 72.7222 84.8941 73.0361C84.7823 73.2597 85.1289 73.4542 85.3413 73.2597C85.5009 72.9799 85.7197 72.7383 85.9823 72.5517C86.2449 72.3652 86.5451 72.2382 86.8619 72.1797C86.7657 72.0902 86.6763 71.9941 86.5891 71.9069Z" fill="#FAFAFA"/>
<path id="Vector_74" d="M88.368 72.5449L88.254 74.0543C88.254 74.0543 87.2947 74.7542 85.9195 74.1124C85.8792 74.0297 85.7629 72.6791 85.7629 72.6791L88.368 72.5449Z" fill="#FFA8A7"/>
<path id="Vector_75" d="M83.0322 73.018C83.0322 73.018 83.0971 71.4147 85.3757 71.1934L85.5076 71.2627C85.2483 70.8607 84.8505 70.5678 84.3896 70.4398C83.6337 70.2453 83.0345 70.4398 82.6364 70.9183C82.2384 71.3969 82.6387 72.7072 83.0322 73.018Z" fill="#FAFAFA"/>
<path id="Vector_76" d="M89.0318 62.4937C88.7053 59.8528 88.5846 58.3815 88.5846 58.3815C88.5846 58.3815 88.5197 54.6628 88.7456 51.2259C88.844 49.7188 88.8954 48.0506 88.9267 46.5301C88.9684 44.8556 88.835 43.1814 88.5287 41.5346C88.5287 41.5346 76.836 39.2091 76.6907 43.4979C76.514 48.641 76.5364 57.4311 76.3374 60.7875C76.2278 62.6726 76.4179 64.2356 76.5364 67.8984C76.6326 70.935 76.6035 78.4081 76.6035 78.4081C77.8915 80.1768 80.9326 78.8285 80.9326 78.8285C80.9326 78.8285 81.8718 68.3344 82.0104 66.1654C82.158 63.8331 81.912 62.6524 81.912 62.6524L83.1173 51.7872C83.1173 51.7872 83.209 55.2733 83.3118 57.1538C83.4147 59.0344 83.6897 60.1905 84.1794 63.6989C84.6043 66.7445 85.5077 74.5172 85.5077 74.5172C87.073 75.443 88.5846 74.5172 88.5846 74.5172C88.5846 74.5172 89.3583 65.1345 89.0318 62.4937Z" fill="#04547B"/>
<path id="Vector_77" d="M87.4351 47.4872C87.4351 47.4872 85.9704 49.3566 84.0809 50.1593C84.0809 50.1593 83.2625 56.7313 83.2692 56.6016L83.0568 49.9872C83.0568 49.9872 85.8698 48.7439 87.4351 47.4872Z" fill="#37474F"/>
<path id="Vector_78" d="M87.3944 26.3613C88.6533 26.0796 90.0777 26.9785 91.0258 28.9843C91.9426 30.9029 94.4471 35.7485 94.5074 37.1059C94.5723 38.5124 88.3156 42.7789 88.4699 42.6961C88.5191 42.6715 87.3899 39.4694 87.3899 39.4694L90.4288 36.9538L88.7763 33.5504L87.3944 26.3613Z" fill="#FFA8A7"/>
<path id="Vector_79" d="M86.7333 26.0601C87.7932 25.9304 89.714 26.3306 90.4475 27.6052C91.5118 29.45 92.4823 31.5833 93.7189 34.3404C93.7189 34.3404 92.8021 36.3261 90.1635 36.5139L88.5825 33.7411L86.7333 26.0601Z" fill="#04547B"/>
<path id="Vector_80" d="M81.3953 24.4001L81.5786 28.3133L85.456 28.1053L85.3375 23.5593L81.3953 24.4001Z" fill="#FFA8A7"/>
<path id="Vector_81" d="M89.2663 28.0301C88.9398 26.9635 87.8128 26.0847 86.3884 26.0422C86.0709 26.0422 85.4045 26.0422 85.4045 26.0422C85.2435 26.7019 83.2243 26.9367 81.498 26.5409C80.977 26.6795 78.8147 27.2117 78.3675 27.3459C77.1264 27.7573 76.7441 29.023 76.5518 33.0703C76.5518 33.0703 76.5898 41.0488 76.5518 44.8569C78.7342 46.0085 82.1063 45.8654 84.5056 45.6216C88.2757 45.2415 88.837 43.8752 88.837 43.8752C88.6782 41.6548 88.7743 40.8185 88.837 38.6271C88.8839 36.9791 89.358 35.2371 89.5078 33.37C89.7292 30.595 89.4877 28.7636 89.2663 28.0301Z" fill="#F2C617"/>
<g id="freepik--Scarf--inject-83">
<path id="Vector_82" d="M80.7905 25.1429C79.896 25.0803 78.778 25.7937 78.4895 27.3209L79.2185 27.1264L80.7905 25.1429Z" fill="#F2C617"/>
<path id="Vector_83" opacity="0.3" d="M80.7905 25.1429C79.896 25.0803 78.778 25.7937 78.4895 27.3209L79.2185 27.1264L80.7905 25.1429Z" fill="black"/>
<path id="Vector_84" d="M81.4441 25.4697C82.1149 25.6933 84.0715 25.662 84.7267 25.4697C85.3818 25.2774 85.3751 24.9867 85.3751 24.9867V24.658C85.753 24.6569 86.1221 24.7716 86.4328 24.9867C86.851 25.3266 87.571 26.552 87.5509 27.1401C87.5307 27.7281 86.2741 29.28 83.8501 29.242C81.4262 29.204 80.0644 28.3073 79.6462 27.717L79.2258 27.1244C79.2258 27.1244 79.8005 25.9437 80.3662 25.4473C80.6563 25.1661 81.0283 24.9845 81.4284 24.9285L81.4441 25.4697Z" fill="#F2C617"/>
<path id="Vector_85" opacity="0.2" d="M81.4441 25.4697C82.1149 25.6933 84.0715 25.662 84.7267 25.4697C85.3818 25.2774 85.3751 24.9867 85.3751 24.9867V24.658C85.753 24.6569 86.1221 24.7716 86.4328 24.9867C86.851 25.3266 87.571 26.552 87.5509 27.1401C87.5307 27.7281 86.2741 29.28 83.8501 29.242C81.4262 29.204 80.0644 28.3073 79.6462 27.717L79.2258 27.1244C79.2258 27.1244 79.8005 25.9437 80.3662 25.4473C80.6563 25.1661 81.0283 24.9845 81.4284 24.9285L81.4441 25.4697Z" fill="black"/>
</g>
<path id="Vector_86" d="M78.7901 19.6011C78.7901 19.6011 77.8666 21.0031 77.9717 21.1395C78.0768 21.2759 78.7566 21.4034 78.7566 21.4034L78.7901 19.6011Z" fill="#F28F8F"/>
<path id="Vector_87" d="M81.3532 15.7197C79.4838 16.1154 78.737 16.6633 78.6207 19.8587C78.5089 22.9669 78.9002 23.991 79.3072 24.4092C79.5822 24.6909 81.1139 24.7424 81.8854 24.5277C82.8514 24.2616 85.0361 23.4879 86.058 21.9271C87.261 20.089 87.5763 17.598 86.2816 16.5761C84.4771 15.1383 82.1157 15.5587 81.3532 15.7197Z" fill="#FFA8A7"/>
<path id="Vector_88" d="M79.3085 24.4048C79.5321 24.6284 80.6032 24.7134 81.4082 24.615L81.397 24.1521C80.7301 24.3981 80.0148 24.4847 79.3085 24.4048Z" fill="#F28F8F"/>
<path id="Vector_89" d="M78.3759 16.9197C78.8416 17.2536 79.4193 17.3924 79.9859 17.3066C79.9747 17.5571 80.0419 17.8049 80.1782 18.0154C80.368 18.3025 80.6557 18.5107 80.9876 18.6013C80.7829 19.0024 80.6742 19.4456 80.6701 19.896C80.6575 20.0373 80.6879 20.1792 80.7573 20.3029C80.7788 20.3479 80.8125 20.3859 80.8547 20.4125C80.8968 20.4391 80.9456 20.4532 80.9955 20.4532C81.0453 20.4532 81.0941 20.4391 81.1363 20.4125C81.1784 20.3859 81.2122 20.3479 81.2336 20.3029C81.3388 20.0651 81.4708 19.84 81.6272 19.6321C81.8298 19.3896 82.1149 19.2303 82.4277 19.1849C83.6017 19.0574 83.7492 20.5936 83.2797 21.2309C82.5104 22.273 81.8575 21.5663 81.8575 21.5663C81.8275 22.0548 81.9017 22.5441 82.0752 23.0017C82.2487 23.4593 82.5175 23.8748 82.8637 24.2206C83.6982 24.4665 84.5827 24.4889 85.4286 24.2855C86.4706 22.8521 87.1258 22.1544 87.6826 20.9179C88.8588 18.2994 88.2908 16.6558 87.3807 15.9627C87.2018 14.7574 86.2515 14.2163 85.1669 13.968C83.548 13.5946 82.0364 14.5561 80.4309 14.1917C80.1674 14.1365 79.9069 14.0678 79.6505 13.9859C79.5517 13.9396 79.439 13.9324 79.3352 13.9658C79.2776 14.004 79.2325 14.0583 79.2055 14.1219C79.1785 14.1855 79.1707 14.2556 79.1831 14.3236C79.2032 14.6322 79.5163 14.9743 79.6751 15.1398C79.3244 15.1718 78.971 15.1515 78.6263 15.0794C78.5066 15.057 78.3838 15.057 78.2641 15.0794C78.1327 15.1329 78.0217 15.2266 77.947 15.3472C77.8723 15.4677 77.8377 15.6088 77.8481 15.7502C77.8495 15.9712 77.8971 16.1895 77.988 16.3909C78.0789 16.5923 78.2111 16.7725 78.3759 16.9197Z" fill="#263238"/>
<path id="Vector_90" d="M87.4083 16.351L88.5264 15.6802C88.4374 15.5319 88.2932 15.425 88.1255 15.3831C87.9577 15.3412 87.7802 15.3676 87.6319 15.4566C87.4837 15.5455 87.3768 15.6897 87.3349 15.8575C87.293 16.0252 87.3194 16.2027 87.4083 16.351Z" fill="#263238"/>
<path id="Vector_91" d="M72.8379 33.965C72.5845 32.9692 72.34 31.9719 72.1045 30.9731C71.8809 30.054 71.5365 28.9897 71.8518 28.0505C72.031 27.6403 72.256 27.2517 72.5226 26.8922C72.7533 26.5132 72.948 26.1134 73.104 25.6981C73.1823 25.4969 73.2538 25.2911 73.3276 25.0876C73.4014 24.8842 73.5065 24.7679 73.4573 24.5733C73.2941 23.9361 72.4712 24.7724 72.3035 25.034C72.2291 25.1713 72.1423 25.3016 72.0441 25.4231C71.9368 25.5371 71.6751 25.6802 71.5499 25.5125C71.5082 25.4452 71.485 25.3681 71.4828 25.2889C71.3979 24.3072 71.7512 23.4285 72.0441 22.5116C72.0904 22.3913 72.1183 22.2646 72.1268 22.136C72.1322 22.0717 72.1235 22.0071 72.1015 21.9465C72.0795 21.8859 72.0447 21.8308 71.9994 21.7849C71.9265 21.729 71.8401 21.6933 71.749 21.6815C71.6579 21.6698 71.5653 21.6823 71.4806 21.7178C71.3151 21.7737 71.172 21.8788 71.0065 21.9303C70.8411 21.9817 70.7181 21.9817 70.5727 22.0197C70.2279 22.0966 69.8958 22.2223 69.5866 22.3931C69.0499 22.7084 68.8129 23.1691 68.672 23.7549C68.5028 24.4745 68.4455 25.2159 68.5021 25.953C68.5401 26.4427 68.6273 26.9257 68.6877 27.4087L68.8889 29.0254C69.0253 30.1032 69.0656 35.4878 69.2512 36.5589C69.4368 37.63 69.7946 38.3478 70.6421 38.7033C71.8719 39.2042 73.8598 36.9413 74.9891 35.7696L72.8379 33.965Z" fill="#FFA8A7"/>
<path id="Vector_92" d="M72.3897 33.3556C71.5981 33.9482 70.612 34.9343 70.413 35.9226C70.413 35.9226 70.2162 34.1449 72.3897 32.5685V33.3556Z" fill="#F28F8F"/>
<path id="Vector_93" d="M78.3053 27.3715C77.5451 27.443 76.2928 27.4699 75.0183 28.8406C73.5402 30.4416 71.2616 33.599 71.2616 33.599C71.2616 33.599 71.559 36.1124 73.9785 37.0136C73.9785 37.0136 77.4959 33.6594 78.2517 32.2149C79.0075 30.7703 79.1774 28.3755 78.3053 27.3715Z" fill="#04547B"/>
<g id="freepik--Pain--inject-83">
<path id="Vector_94" d="M77.294 22.0547L76.3325 21.5382L76.8848 21.0664L74.8879 20.1317L75.76 19.6263L73.6089 18.4814L74.8879 19.6107L73.8482 20.1317L76.1938 21.1469L75.6147 21.726L77.294 22.0547Z" fill="#F2C617"/>
<path id="Vector_95" d="M77.7845 20.7879L77.1584 20.1886L77.5005 19.9359L76.9504 19.283L77.4782 19.1041L77.2948 18.2767L77.666 19.1689L77.2948 19.3299L77.8896 19.9829L77.4871 20.2691L77.7845 20.7879Z" fill="#F2C617"/>
<path id="Vector_96" d="M77.4188 23.002L76.2381 23.9232L75.8021 23.2815L74.769 23.8427L74.3464 23.0489L72.7476 23.4581L74.5968 22.5726L75.1268 23.3038L75.9854 22.8432L76.3432 23.4581L77.4188 23.002Z" fill="#F2C617"/>
</g>
<path id="Vector_97" d="M69.2096 39.4918C69.2456 39.462 69.2919 39.4476 69.3384 39.4518C69.3849 39.456 69.4278 39.4784 69.4579 39.5142C69.6865 39.7709 69.9835 39.9573 70.3141 40.0516C70.6447 40.1458 70.9954 40.144 71.325 40.0464C71.3475 40.0384 71.3714 40.0351 71.3951 40.0367C71.4189 40.0382 71.4422 40.0445 71.4635 40.0553C71.4847 40.0661 71.5036 40.081 71.519 40.0993C71.5343 40.1175 71.5458 40.1387 71.5528 40.1615C71.5597 40.1843 71.562 40.2083 71.5594 40.232C71.5568 40.2557 71.5495 40.2786 71.5378 40.2994C71.5262 40.3202 71.5104 40.3384 71.4915 40.353C71.4726 40.3675 71.451 40.3781 71.4279 40.384C71.0325 40.501 70.612 40.5026 70.2158 40.3885C69.8196 40.2744 69.4643 40.0494 69.1918 39.74C69.1764 39.7226 69.1647 39.7024 69.1573 39.6804C69.1499 39.6585 69.147 39.6353 69.1486 39.6122C69.1503 39.5891 69.1566 39.5665 69.167 39.5458C69.1775 39.5252 69.192 39.5068 69.2096 39.4918Z" fill="#E0E0E0"/>
<path id="Vector_98" d="M69.386 40.6719C69.4173 40.6457 69.4569 40.6313 69.4978 40.6313C69.5386 40.6313 69.5782 40.6457 69.6096 40.6719C69.7916 40.8035 70.0002 40.8937 70.2208 40.9362C70.4413 40.9787 70.6685 40.9724 70.8864 40.9179C70.9326 40.9093 70.9803 40.9193 71.0193 40.9457C71.0582 40.972 71.0851 41.0126 71.0943 41.0587C71.0989 41.0814 71.0989 41.1047 71.0944 41.1273C71.0898 41.1499 71.0809 41.1714 71.068 41.1906C71.0551 41.2097 71.0385 41.2261 71.0193 41.2388C71 41.2514 70.9784 41.2602 70.9557 41.2645C70.6863 41.327 70.4065 41.3296 70.136 41.272C69.8655 41.2144 69.611 41.0981 69.3904 40.9313C69.3728 40.9163 69.3583 40.8979 69.3478 40.8772C69.3373 40.8566 69.3311 40.834 69.3294 40.8109C69.3278 40.7878 69.3307 40.7646 69.3381 40.7427C69.3455 40.7207 69.3572 40.7005 69.3725 40.6831C69.3765 40.6788 69.381 40.675 69.386 40.6719Z" fill="#E0E0E0"/>
<path id="Vector_99" d="M91.3436 27.1183C91.3229 27.129 91.3003 27.1355 91.2772 27.1374C91.254 27.1392 91.2307 27.1364 91.2086 27.1291C91.1865 27.1218 91.1661 27.1102 91.1486 27.0949C91.131 27.0796 91.1168 27.061 91.1065 27.0401C90.9433 26.7375 90.6977 26.4874 90.3981 26.3187C90.0984 26.1501 89.7572 26.0699 89.4138 26.0875C89.3906 26.0888 89.3674 26.0855 89.3454 26.0779C89.3235 26.0702 89.3033 26.0583 89.2859 26.0428C89.2509 26.0116 89.2298 25.9677 89.2271 25.9209C89.2244 25.874 89.2405 25.828 89.2717 25.793C89.303 25.758 89.3468 25.7368 89.3937 25.7342C89.8059 25.7126 90.2156 25.8091 90.5749 26.0123C90.9341 26.2155 91.2279 26.5169 91.4218 26.8813C91.4422 26.9232 91.4455 26.9714 91.4309 27.0157C91.4163 27.06 91.3849 27.0968 91.3436 27.1183Z" fill="#E0E0E0"/>
<path id="Vector_100" d="M91.4417 25.9377C91.4042 25.9574 91.3609 25.9628 91.3198 25.953C91.2786 25.9431 91.2425 25.9186 91.2181 25.8841C91.0737 25.7154 90.8947 25.5798 90.6933 25.4864C90.4919 25.3931 90.2728 25.3441 90.0508 25.3429C90.0276 25.3421 90.0048 25.3366 89.9837 25.3269C89.9626 25.3172 89.9436 25.3035 89.9279 25.2864C89.9121 25.2694 89.8998 25.2495 89.8917 25.2277C89.8837 25.2059 89.88 25.1828 89.8809 25.1596C89.8817 25.1364 89.8872 25.1136 89.8969 25.0925C89.9066 25.0714 89.9203 25.0524 89.9373 25.0366C89.9544 25.0208 89.9743 25.0086 89.9961 25.0005C90.0179 24.9924 90.041 24.9887 90.0642 24.9896C90.34 24.9924 90.6118 25.0555 90.8606 25.1745C91.1093 25.2934 91.329 25.4654 91.5043 25.6783C91.5295 25.7162 91.5389 25.7624 91.5306 25.8071C91.5222 25.8518 91.4967 25.8914 91.4596 25.9176L91.4417 25.9377Z" fill="#E0E0E0"/>
<path id="Vector_101" d="M94.5678 38.8245C94.5454 38.7835 94.5401 38.7354 94.5531 38.6905C94.5661 38.6457 94.5963 38.6078 94.6371 38.5852C94.9316 38.4081 95.1698 38.151 95.3238 37.8438C95.4778 37.5366 95.5413 37.1919 95.507 36.85C95.5042 36.8269 95.506 36.8035 95.5124 36.7811C95.5188 36.7587 95.5297 36.7379 95.5442 36.7197C95.5588 36.7016 95.5769 36.6866 95.5974 36.6755C95.6179 36.6645 95.6403 36.6577 95.6635 36.6554C95.7101 36.6504 95.7567 36.6641 95.7932 36.6934C95.8297 36.7228 95.853 36.7654 95.8581 36.812C95.8979 37.2209 95.821 37.6327 95.6361 37.9996C95.4513 38.3666 95.1661 38.6735 94.8138 38.8848C94.7938 38.8974 94.7714 38.9057 94.7481 38.9095C94.7248 38.9132 94.701 38.9122 94.678 38.9066C94.6551 38.901 94.6335 38.8908 94.6146 38.8767C94.5957 38.8626 94.5798 38.8448 94.5678 38.8245Z" fill="#E0E0E0"/>
<path id="Vector_102" d="M95.7539 38.8659C95.7339 38.8295 95.7272 38.7873 95.735 38.7465C95.7427 38.7057 95.7644 38.6688 95.7963 38.6423C95.9586 38.4905 96.086 38.3054 96.1698 38.0996C96.2535 37.8939 96.2917 37.6724 96.2816 37.4505C96.2816 37.4036 96.3002 37.3587 96.3333 37.3255C96.3665 37.2924 96.4114 37.2738 96.4582 37.2738C96.5051 37.2738 96.55 37.2924 96.5831 37.3255C96.6163 37.3587 96.6349 37.4036 96.6349 37.4505C96.6445 37.7257 96.5943 37.9998 96.4878 38.2539C96.3812 38.5079 96.2208 38.7358 96.0177 38.9218C95.9995 38.9362 95.9787 38.9469 95.9563 38.9532C95.934 38.9595 95.9106 38.9614 95.8876 38.9587C95.8645 38.956 95.8423 38.9488 95.822 38.9375C95.8017 38.9262 95.7839 38.911 95.7695 38.8927L95.7539 38.8659Z" fill="#E0E0E0"/>
<path id="Vector_103" d="M75.1883 60.1294C75.2301 60.1506 75.2619 60.1872 75.2769 60.2315C75.292 60.2758 75.2891 60.3243 75.2688 60.3665C75.1272 60.6795 75.0776 61.0264 75.1259 61.3665C75.1743 61.7067 75.3184 62.0261 75.5416 62.2873C75.5719 62.3233 75.5867 62.3698 75.5829 62.4166C75.5792 62.4635 75.5571 62.507 75.5215 62.5377C75.4861 62.5681 75.4402 62.5833 75.3937 62.5799C75.3472 62.5766 75.3039 62.555 75.2733 62.5198C75.0052 62.2055 74.8325 61.8211 74.7754 61.4118C74.7184 61.0026 74.7794 60.5856 74.9513 60.2099C74.9724 60.1682 75.0091 60.1364 75.0534 60.1213C75.0977 60.1063 75.1461 60.1092 75.1883 60.1294Z" fill="#E0E0E0"/>
<path id="Vector_104" d="M74.1852 60.7644C74.2234 60.7824 74.2539 60.8135 74.2711 60.8521C74.2884 60.8906 74.2912 60.9341 74.2792 60.9746C74.2322 61.1918 74.2329 61.4166 74.2811 61.6336C74.3294 61.8505 74.4241 62.0544 74.5587 62.2313C74.585 62.2697 74.5954 62.3169 74.5874 62.3629C74.5795 62.4088 74.5539 62.4499 74.5162 62.4772C74.4779 62.5042 74.4305 62.5148 74.3844 62.5069C74.3383 62.4989 74.2972 62.473 74.2702 62.4347C74.1045 62.2136 73.989 61.959 73.9318 61.6887C73.8746 61.4183 73.8772 61.1387 73.9393 60.8695C73.9461 60.847 73.9574 60.8262 73.9724 60.8082C73.9874 60.7901 74.0059 60.7753 74.0267 60.7644C74.0475 60.7536 74.0703 60.747 74.0937 60.7451C74.117 60.7432 74.1406 60.7459 74.1629 60.7532L74.1852 60.7644Z" fill="#E0E0E0"/>
</g>
</g>
</g>
</g>
</svg>
