<svg width="40" height="40" viewBox="0 0 40 40" fill="none" xmlns="http://www.w3.org/2000/svg">
<circle cx="20" cy="20" r="20" fill="#043953"/>
<path d="M27.7991 16.6C28.7738 16.6 29.7253 16.3034 30.5273 15.7494C31.3292 15.1955 31.9435 14.4106 32.2885 13.4991C32.6335 12.5875 32.6928 11.5925 32.4586 10.6465C32.2244 9.70038 31.7077 8.84802 30.9772 8.20272C30.2468 7.55743 29.3372 7.14978 28.3695 7.034C27.4018 6.91821 26.4217 7.09976 25.5596 7.55452C24.6976 8.00928 23.9944 8.71568 23.5436 9.5798C23.0928 10.4439 22.9157 11.4248 23.0359 12.392L15.1319 16.344C14.4539 15.6902 13.5985 15.2503 12.6722 15.0791C11.746 14.908 10.7898 15.0131 9.92292 15.3814C9.056 15.7498 8.31662 16.3651 7.79688 17.1506C7.27713 17.9362 7 18.8573 7 19.7992C7 20.7411 7.27713 21.6622 7.79688 22.4478C8.31662 23.2333 9.056 23.8486 9.92292 24.217C10.7898 24.5853 11.746 24.6905 12.6722 24.5193C13.5985 24.3481 14.4539 23.9082 15.1319 23.2544L23.0359 27.2064C22.8959 28.33 23.1576 29.4669 23.7748 30.4162C24.3919 31.3655 25.3248 32.066 26.4085 32.3941C27.4922 32.7221 28.657 32.6565 29.697 32.2088C30.737 31.7611 31.5852 30.9601 32.0918 29.9475C32.5984 28.9349 32.7308 27.7758 32.4654 26.675C32.2001 25.5743 31.5541 24.6028 30.6418 23.9322C29.7294 23.2617 28.6094 22.9352 27.4796 23.0106C26.3499 23.0859 25.2831 23.5582 24.4679 24.344L16.5639 20.392C16.6123 19.9988 16.6123 19.6012 16.5639 19.208L24.4679 15.256C25.3287 16.088 26.5031 16.6 27.7991 16.6Z" fill="white"/>
</svg>
