<svg width="49" height="66" viewBox="0 0 49 66" fill="none" xmlns="http://www.w3.org/2000/svg">
<path d="M28.5553 65.9544C39.4663 65.9544 48.3115 57.5158 48.3115 47.1063C48.3115 36.6968 39.4663 28.2583 28.5553 28.2583C17.6442 28.2583 8.79907 36.6968 8.79907 47.1063C8.79907 57.5158 17.6442 65.9544 28.5553 65.9544Z" fill="#E0E0E0"/>
<path d="M24.5305 1.6748C21.3998 1.8391 20.1676 5.1067 19.7933 5.83689C19.4719 6.59373 19.3014 7.40606 19.2913 8.22826C19.2818 9.05155 19.0752 9.86058 18.6889 10.5877C17.9998 11.6875 16.5486 12.258 16.1561 13.4948C15.6997 14.8958 16.8543 16.3927 16.5486 17.8303C16.3843 18.6015 15.8229 19.2359 15.6358 19.998C15.4632 20.8127 15.6155 21.6625 16.0602 22.3666C17.0871 24.1373 19.2229 25.0226 21.2674 25.1048C23.3119 25.1869 25.3108 24.5663 27.2687 23.9639" fill="#263238"/>
<path d="M38.3216 5.72754C38.2014 6.07354 38.1805 6.44627 38.2611 6.80356C38.3418 7.16085 38.5208 7.48843 38.778 7.74925C39.3037 8.25337 39.8717 8.71142 40.4757 9.11836C40.7774 9.3263 41.0352 9.59177 41.2341 9.89955C41.433 10.2073 41.5692 10.5514 41.6349 10.9119C41.6942 11.5782 41.3565 12.2445 41.4478 12.9062C41.6851 14.6176 44.4096 15.1287 44.5511 16.8447C44.6515 17.9902 43.474 19.0444 43.8026 20.1442C43.9804 20.5568 44.2105 20.9449 44.4872 21.2988C45.263 22.5858 44.7382 24.3565 43.6155 25.3514C42.4928 26.3463 40.9412 26.6977 39.4443 26.7661C38.1847 26.8209 36.7517 26.6155 36.0124 25.5978C35.3324 24.6623 35.4739 23.3936 35.6062 22.2481C36.2406 16.8994 36.1311 11.496 36.0261 6.11089" fill="#263238"/>
<path d="M25.3564 30.4762C25.3792 27.665 25.3564 24.7077 25.3564 24.7077C25.3564 24.7077 21.7465 24.0642 21.0483 19.3363C20.3865 14.8228 21.5046 5.12036 21.5046 5.12036C26.7392 3.05301 32.6355 3.85165 36.3001 8.06394L35.7251 30.8824C35.6612 33.5293 33.3292 35.583 30.4951 35.4917C27.6337 35.3959 25.3336 33.1642 25.3564 30.4762Z" fill="#FFBE9D"/>
<path d="M21.5776 13.0247C21.5738 13.1826 21.6317 13.3358 21.7391 13.4517C21.8465 13.5676 21.9948 13.6371 22.1526 13.6454C22.2297 13.6522 22.3074 13.6437 22.3812 13.6202C22.455 13.5968 22.5234 13.5589 22.5824 13.5088C22.6415 13.4587 22.6899 13.3974 22.7251 13.3284C22.7602 13.2594 22.7812 13.1841 22.7869 13.1068C22.7895 12.9485 22.7306 12.7953 22.6224 12.6795C22.5143 12.5637 22.3655 12.4944 22.2074 12.4862C22.1305 12.4793 22.053 12.4879 21.9795 12.5114C21.9059 12.5349 21.8379 12.5728 21.7792 12.623C21.7205 12.6731 21.6725 12.7345 21.6379 12.8035C21.6032 12.8725 21.5827 12.9477 21.5776 13.0247Z" fill="#263238"/>
<path d="M21.5182 12.1028C21.5912 12.1804 22.0521 11.8473 22.7047 11.8564C23.9324 12.0344 23.9095 12.2215 23.9004 12.1165C23.9369 12.0846 23.8639 11.9386 23.654 11.788C23.3762 11.5876 23.0427 11.4791 22.7002 11.4776C22.3604 11.4742 22.0283 11.578 21.7509 11.7743C21.5501 11.9249 21.4817 12.0663 21.5182 12.1028Z" fill="#263238"/>
<path d="M28.2499 13.2212C28.2462 13.3787 28.3043 13.5314 28.4118 13.6466C28.5193 13.7617 28.6676 13.8302 28.825 13.8373C28.902 13.8448 28.9797 13.8367 29.0535 13.8135C29.1273 13.7902 29.1956 13.7523 29.2544 13.7021C29.3132 13.6518 29.3613 13.5902 29.3957 13.5209C29.4301 13.4516 29.4502 13.3761 29.4547 13.2988C29.4585 13.1409 29.4006 12.9877 29.2932 12.8718C29.1858 12.7559 29.0375 12.6864 28.8797 12.6782C28.8026 12.6719 28.725 12.6811 28.6515 12.7051C28.5779 12.7291 28.5099 12.7675 28.4513 12.818C28.3927 12.8686 28.3447 12.9302 28.3102 12.9994C28.2756 13.0687 28.2551 13.144 28.2499 13.2212Z" fill="#263238"/>
<path d="M28.3136 12.3265C28.3866 12.4086 28.8521 12.0709 29.5001 12.08C30.1482 12.0892 30.6274 12.4223 30.7004 12.3447C30.7734 12.2672 30.6593 12.1667 30.454 12.0116C30.1745 11.8117 29.8392 11.7047 29.4956 11.7058C29.1562 11.6998 28.8237 11.8021 28.5463 11.9979C28.3455 12.1713 28.2771 12.29 28.3136 12.3265Z" fill="#263238"/>
<path d="M25.8902 17.0044C25.5498 16.8882 25.1951 16.8191 24.836 16.799C24.6717 16.799 24.512 16.7443 24.4846 16.6302C24.475 16.4578 24.5163 16.2864 24.6033 16.1373L25.1098 14.8777C25.5765 13.8076 25.9595 12.703 26.2553 11.5736C26.1823 11.5462 25.5525 12.9838 24.8451 14.7682C24.6763 15.2246 24.5165 15.6353 24.3614 16.0369C24.2524 16.236 24.2184 16.4675 24.2655 16.6895C24.2885 16.7493 24.3253 16.8027 24.3729 16.8456C24.4205 16.8884 24.4775 16.9194 24.5394 16.936C24.6295 16.964 24.7234 16.9778 24.8177 16.977C25.1727 17.0312 25.533 17.0404 25.8902 17.0044Z" fill="#263238"/>
<path d="M25.3516 24.7077C27.5744 24.7677 29.7703 24.2101 31.6951 23.0967C31.6951 23.0967 30.1252 26.3232 25.4018 25.8349L25.3516 24.7077Z" fill="#EB996E"/>
<path d="M26.1413 18.5607C26.2677 18.4064 26.431 18.2865 26.6162 18.2123C26.8013 18.1381 27.0022 18.1119 27.2001 18.1363C27.3505 18.1493 27.4965 18.1939 27.6286 18.267C27.7607 18.3401 27.8759 18.4402 27.9668 18.5607C28.0525 18.671 28.1023 18.8049 28.1097 18.9444C28.117 19.0839 28.0815 19.2223 28.0079 19.3411C27.9009 19.4558 27.7624 19.5365 27.6098 19.573C27.4573 19.6095 27.2973 19.6003 27.1499 19.5464C26.8438 19.4339 26.563 19.2617 26.3239 19.0399C26.2517 18.986 26.1898 18.9196 26.1413 18.8436C26.117 18.808 26.104 18.7659 26.104 18.7227C26.104 18.6796 26.117 18.6374 26.1413 18.6018" fill="#EB996E"/>
<path d="M27.8071 17.4742C27.6975 17.4742 27.6884 18.177 27.0769 18.6699C26.4653 19.1628 25.7078 19.0806 25.7078 19.1765C25.7078 19.2723 25.8766 19.3179 26.1915 19.3271C26.6071 19.3415 27.0138 19.2054 27.337 18.9437C27.6459 18.6953 27.847 18.3373 27.8983 17.9443C27.9303 17.6476 27.8527 17.4696 27.8071 17.4742Z" fill="#263238"/>
<path d="M34.2462 4.69614C32.5212 7.16053 27.9438 9.69338 24.6625 10.2821C25.0413 9.78009 27.0539 8.53877 27.4372 8.03676C25.954 9.14118 23.8273 10.6289 21.8604 10.7248C21.6283 10.7588 21.3914 10.7223 21.1804 10.6198C21.07 10.5315 20.9816 10.4188 20.9222 10.2905C20.8628 10.1622 20.834 10.0218 20.8381 9.88049C20.7262 8.45289 20.7721 7.01729 20.975 5.59976C21.1311 4.40182 21.7403 3.30922 22.6773 2.54665C23.9414 1.57002 25.7441 1.33271 27.4464 1.29163C28.8711 1.19909 30.3 1.39147 31.6495 1.85753C32.9547 2.36866 34.0728 3.38636 34.2645 4.59574" fill="#263238"/>
<path d="M39.2024 15.7356C39.4186 14.6932 39.571 13.6385 39.6588 12.5776C39.8002 10.1405 39.0974 1.16833 30.6957 1.87114L30.3534 4.43136C30.3534 4.43136 29.0573 13.1891 34.4927 13.253C34.858 15.2084 35.8136 17.005 37.2309 18.4008C37.2309 18.4008 38.6548 18.3597 39.1659 15.7356" fill="#263238"/>
<path d="M34.5064 13.2531C35.014 13.1533 35.5391 13.1927 36.0261 13.3672C36.5138 13.551 36.9091 13.9201 37.126 14.394C37.3153 14.8782 37.3153 15.4159 37.126 15.9C36.9305 16.3794 36.6313 16.8096 36.2497 17.1596C35.9983 17.4298 35.6851 17.6349 35.337 17.7574C35.1614 17.818 34.9735 17.8339 34.7902 17.8036C34.607 17.7733 34.4341 17.6978 34.2874 17.584" fill="#FFBE9D"/>
<path d="M34.7483 16.3195C34.689 16.3195 34.908 16.6435 35.369 16.5248C35.493 16.4856 35.6079 16.4217 35.7067 16.337C35.8055 16.2523 35.8862 16.1486 35.944 16.032C36.0869 15.7756 36.1769 15.4932 36.2087 15.2014C36.2524 14.8823 36.1794 14.5582 36.0033 14.2886C35.9321 14.176 35.8357 14.0814 35.7216 14.0125C35.6075 13.9436 35.479 13.9022 35.3461 13.8916C34.8898 13.8916 34.7209 14.2019 34.7711 14.2111C34.8213 14.2202 34.9947 14.0833 35.3051 14.1609C35.4949 14.2347 35.6517 14.3746 35.7465 14.555C35.8413 14.7353 35.8676 14.9438 35.8208 15.142C35.7614 15.6623 35.5561 16.1369 35.2777 16.251C34.9993 16.3651 34.7802 16.2784 34.7483 16.3195Z" fill="#EB996E"/>
<path d="M35.4238 3.77402C36.0752 4.14364 36.8453 4.24362 37.5695 4.05256C38.2936 3.86151 38.9142 3.39459 39.2984 2.75175C39.5643 2.34839 39.6595 1.85606 39.5631 1.38264C39.4553 1.07341 39.2684 0.797798 39.021 0.583223C38.7736 0.368648 38.4743 0.222585 38.1529 0.15957C37.6936 0.0396657 37.2117 0.0348253 36.7501 0.145468C36.2884 0.256111 35.8611 0.478834 35.506 0.793929C35.1587 1.11917 34.9102 1.53582 34.7891 1.99598C34.668 2.45615 34.6792 2.94115 34.8214 3.39523C34.9827 3.84141 35.279 4.22623 35.6692 4.49615C36.0593 4.76607 36.5239 4.90767 36.9983 4.90125" fill="#263238"/>
<path d="M36.1815 17.3921C35.7007 17.7113 35.2621 18.0901 34.8763 18.5193C34.4902 18.9558 34.2889 19.5253 34.315 20.1075C34.3857 20.422 34.4209 20.7435 34.4199 21.0659C34.2811 21.4881 34.0558 21.8766 33.7582 22.2068C33.4826 22.7119 33.3751 23.2918 33.4514 23.8621C33.5277 24.4325 33.7839 24.9637 34.1826 25.3785C35.0111 26.1931 36.1287 26.646 37.2905 26.6381C37.9589 26.6952 38.6279 26.5352 39.1981 26.1818C39.9831 25.6341 40.2843 24.6027 40.3071 23.6398" fill="#263238"/>
<path d="M36.7564 5.65918C36.6402 5.97024 36.4737 6.2601 36.2635 6.51716C35.7996 7.17277 35.2553 7.76764 34.6434 8.28787C34.0361 8.81385 33.3663 9.26295 32.6491 9.62503C32.3652 9.7915 32.0573 9.91311 31.7363 9.98556C32.7061 9.434 33.6308 8.80683 34.5019 8.10988C35.3162 7.35303 36.07 6.53363 36.7564 5.65918Z" fill="#455A64"/>
<path d="M37.6283 5.60889C37.6412 5.99939 37.5903 6.38938 37.4777 6.7635C37.2526 7.67731 36.8927 8.5525 36.4098 9.36024C35.9236 10.1657 35.319 10.8934 34.6162 11.5189C34.338 11.7934 34.0175 12.0214 33.667 12.1943C34.6427 11.3279 35.4963 10.333 36.2044 9.23702C36.8431 8.09865 37.3222 6.87783 37.6283 5.60889Z" fill="#455A64"/>
<path d="M19.3871 9.43311C19.4555 9.43311 19.5468 10.2181 19.8434 11.1536C20.1401 12.0892 20.455 12.8057 20.3911 12.8376C19.6848 11.8471 19.3313 10.6483 19.3871 9.43311Z" fill="#455A64"/>
<path d="M39.5173 25.5613C39.7241 25.6971 39.9638 25.7744 40.211 25.7849C40.4981 25.781 40.7776 25.6921 41.0142 25.5293C41.3175 25.3059 41.5325 24.9827 41.6212 24.6166C41.7305 24.1668 41.7305 23.6973 41.6212 23.2475C41.5253 22.75 41.3336 22.2389 41.1648 21.6776C40.9581 21.0927 40.8879 20.4683 40.9594 19.8521C41.0644 19.1858 41.4979 18.6427 41.7079 18.0266C41.8071 17.7325 41.8466 17.4215 41.8238 17.1119C41.8011 16.8023 41.7167 16.5004 41.5755 16.224C41.3158 15.6998 40.8699 15.2914 40.3251 15.0785C40.0575 14.9785 39.7955 14.8642 39.5401 14.7362C39.2853 14.6104 39.0692 14.418 38.9149 14.1794C38.6884 13.736 38.5904 13.2381 38.6319 12.7419C38.6625 12.355 38.6472 11.9659 38.5863 11.5827C38.5361 11.2976 38.4187 11.0286 38.244 10.7977C38.0868 10.6053 37.8701 10.4705 37.6279 10.4144C37.6939 10.3983 37.7628 10.3983 37.8287 10.4144C38.018 10.4636 38.1881 10.5686 38.317 10.7156C38.5107 10.9542 38.648 11.2334 38.7187 11.5325C38.7966 11.9244 38.8242 12.3247 38.8008 12.7236C38.7686 13.1841 38.8667 13.6443 39.0837 14.0516C39.3393 14.4715 39.8687 14.6449 40.4072 14.8594C41.0032 15.0868 41.4919 15.5299 41.7763 16.1007C41.9327 16.4048 42.027 16.7369 42.0537 17.0777C42.0803 17.4186 42.0388 17.7613 41.9315 18.0859C41.6942 18.7386 41.2743 19.2588 41.183 19.8567C41.1135 20.4429 41.1775 21.0374 41.3702 21.5954C41.5299 22.1431 41.717 22.6679 41.8265 23.1836C41.9284 23.6668 41.9143 24.1672 41.7854 24.644C41.6769 25.0449 41.4294 25.3943 41.0872 25.6297C40.8262 25.8003 40.5178 25.8834 40.2064 25.867C40.0111 25.8583 39.8219 25.7968 39.6588 25.6891C39.6031 25.6569 39.5549 25.6133 39.5173 25.5613Z" fill="#455A64"/>
<path d="M36.2225 25.2372C36.2225 25.2372 36.2818 25.3832 36.5009 25.4882C36.6544 25.5519 36.8247 25.5627 36.985 25.5189C37.1453 25.4751 37.2865 25.3792 37.3863 25.2463C37.504 25.0237 37.5594 24.7735 37.5465 24.522C37.5337 24.2706 37.453 24.0273 37.3132 23.8179C37.0531 23.3022 36.5374 22.7956 36.4005 22.0426C36.3632 21.8592 36.3663 21.6699 36.4096 21.4878C36.453 21.3057 36.5355 21.1353 36.6515 20.9884C36.8751 20.7146 37.1398 20.532 37.3087 20.3084C37.6009 19.8816 37.7155 19.3578 37.6281 18.848C37.5717 18.4958 37.4847 18.1492 37.368 17.8121C37.3149 17.6896 37.278 17.5607 37.2585 17.4287C37.2585 17.4287 37.3452 17.5474 37.4501 17.7801C37.6095 18.112 37.7245 18.4634 37.7924 18.8252C37.8509 19.1006 37.8539 19.3848 37.8014 19.6614C37.7489 19.938 37.6419 20.2014 37.4867 20.4362C37.2904 20.7009 37.0303 20.8926 36.8386 21.1344C36.7428 21.2559 36.6747 21.3969 36.6392 21.5475C36.6038 21.6981 36.6017 21.8546 36.6333 22.0061C36.7428 22.6587 37.2265 23.1561 37.5049 23.7175C37.655 23.9627 37.7344 24.2446 37.7344 24.5321C37.7344 24.8196 37.655 25.1015 37.5049 25.3467C37.4357 25.4368 37.3484 25.5114 37.2485 25.5656C37.1487 25.6199 37.0386 25.6526 36.9253 25.6616C36.7585 25.6814 36.5897 25.6495 36.4416 25.5703C36.2134 25.406 36.2134 25.2326 36.2225 25.2372Z" fill="#455A64"/>
<path d="M18.3327 24.0369C18.1928 23.93 18.0671 23.8057 17.9585 23.6672C17.6328 23.311 17.3648 22.906 17.1644 22.4669C17.0292 22.1531 16.9638 21.8137 16.9727 21.4721C16.9748 21.0672 17.1167 20.6754 17.3743 20.3631C17.6573 20.0391 18.068 19.8656 18.3144 19.5599C18.4339 19.392 18.5129 19.1988 18.5454 18.9954C18.5778 18.7919 18.5628 18.5837 18.5016 18.387C18.3902 17.965 18.2229 17.5598 18.0041 17.1822C17.79 16.8085 17.636 16.4035 17.5477 15.9819C17.4738 15.5829 17.5572 15.1708 17.7805 14.8319C17.9798 14.5614 18.2129 14.3175 18.4742 14.1063C18.8517 13.8329 19.1265 13.4408 19.2546 12.9927C19.2855 12.8268 19.2855 12.6566 19.2546 12.4907C19.2546 12.4907 19.2911 12.5272 19.323 12.6094C19.3688 12.7364 19.3829 12.8727 19.3641 13.0064C19.2654 13.4914 18.9967 13.9251 18.6065 14.2295C18.3658 14.44 18.1499 14.6773 17.963 14.9369C17.7739 15.2367 17.7085 15.5983 17.7805 15.9454C17.8744 16.3422 18.0283 16.7223 18.2369 17.0727C18.4673 17.4672 18.6438 17.8908 18.7617 18.3322C18.8292 18.5634 18.8429 18.807 18.8017 19.0443C18.7606 19.2816 18.6657 19.5064 18.5244 19.7014C18.214 20.0664 17.8033 20.2262 17.566 20.5046C17.335 20.7748 17.2044 21.1166 17.1963 21.4721C17.1824 21.7835 17.2337 22.0944 17.3469 22.3848C17.5262 22.818 17.7659 23.2236 18.0589 23.5896C18.1644 23.7295 18.2561 23.8793 18.3327 24.0369Z" fill="#455A64"/>
<path d="M37.3634 4.36764C37.0373 3.92519 36.6639 3.51967 36.2499 3.15826C35.79 2.85903 35.2988 2.61112 34.7849 2.41895C35.3659 2.42818 35.9288 2.62197 36.3923 2.97228C36.8559 3.3226 37.1959 3.81127 37.3634 4.36764Z" fill="#32959D"/>
<path d="M38.007 0C38.0343 0 38.1849 0.164295 38.3082 0.515699C38.4659 0.983231 38.4803 1.48727 38.3494 1.96302C38.2184 2.43877 37.9482 2.8645 37.5734 3.18545C37.2813 3.42733 37.0623 3.50035 37.0486 3.47753C37.0349 3.45471 37.2174 3.32237 37.4547 3.0668C37.7707 2.74051 37.9997 2.34018 38.1209 1.90247C38.2421 1.46476 38.2516 1.00365 38.1484 0.561332C38.0851 0.378673 38.0378 0.190857 38.007 0Z" fill="#455A64"/>
<path opacity="0.3" d="M14.8459 56.1377C14.8459 56.1377 26.1867 66.908 32.9273 64.9547C39.6678 63.0015 41.6576 57.9495 41.6576 57.9495L41.8219 56.124L41.1465 55.6676L15.1882 53.5957L14.8459 56.1377Z" fill="black"/>
<path d="M8.14209 46.0523L10.3281 40.4663L18.1639 45.3905L11.1815 56.1563C11.1815 56.1563 8.34289 52.4505 8.14209 46.0523Z" fill="#EB996E"/>
<path d="M16.9818 30.5629C20.6327 28.6553 25.3516 28.1077 25.3516 28.1077C26.7207 30.8459 31.0425 31.1973 33.6575 29.3262L35.8663 27.8338C36.1711 27.8293 36.4759 27.8431 36.7791 27.8749C39.2981 28.1114 41.674 29.153 43.5547 30.8455C45.4354 32.538 46.7209 34.7913 47.2208 37.2715C47.6563 39.2176 47.8419 41.2113 47.773 43.2043C47.4855 48.1924 42.3239 48.6443 42.3239 48.6443C42.3239 48.6443 42.0592 53.5685 41.7078 57.5526C41.6322 58.9404 41.1693 60.2793 40.3715 61.4174C39.5738 62.5555 38.4731 63.4474 37.1944 63.9919C35.3867 64.896 33.4424 65.4958 31.4395 65.7672C28.313 66.2565 25.1141 65.9715 22.1233 64.9372C19.1324 63.9028 16.4409 62.1507 14.2846 59.8344C15.0696 55.0882 15.818 48.9409 15.7633 48.6625C15.7544 48.6327 15.7544 48.601 15.7633 48.5712L10.6474 44.0304L7.74487 41.5934C7.74487 41.5934 14.134 32.1465 16.9727 30.5949" fill="#32959D"/>
<path d="M23.3254 33.6206C22.9394 33.4012 22.5052 33.2805 22.0613 33.2692C21.5869 33.2681 21.1264 33.4291 20.7561 33.7255C20.5457 33.9187 20.3504 34.1277 20.1719 34.3508C19.9683 34.6234 19.6763 34.817 19.3459 34.8984C19.0039 34.9414 18.6586 34.8497 18.3829 34.6428C18.1182 34.474 17.8946 34.2914 17.6619 34.1591C17.4617 34.0414 17.2379 33.9697 17.0067 33.9491C16.7754 33.9286 16.5424 33.9598 16.3247 34.0404C16.0197 34.1442 15.7495 34.3306 15.5443 34.5789C15.4029 34.7569 15.3527 34.8756 15.3298 34.8664C15.347 34.7421 15.3957 34.6243 15.4713 34.5242C15.6625 34.2333 15.9403 34.0098 16.2654 33.8852C16.5059 33.7823 16.7668 33.7362 17.028 33.7504C17.2892 33.7647 17.5436 33.8389 17.7714 33.9674C18.027 34.1043 18.2552 34.2914 18.5062 34.4466C18.7347 34.6187 19.0204 34.6971 19.3048 34.6656C19.5815 34.5946 19.827 34.4342 20.0031 34.2093C20.1882 33.9777 20.3945 33.7638 20.6191 33.5704C21.0308 33.2525 21.5417 33.0909 22.0613 33.114C22.4046 33.126 22.7398 33.2216 23.0379 33.3924C23.2478 33.5202 23.3345 33.6206 23.3254 33.6206Z" fill="#FAFAFA"/>
<path d="M28.5237 40.466C28.2289 40.133 27.8555 39.8788 27.4375 39.7267C26.9938 39.5748 26.5121 39.5748 26.0684 39.7267C25.8099 39.8447 25.5598 39.9804 25.32 40.1329C25.0391 40.3252 24.7009 40.4154 24.3616 40.3884C24.0233 40.3197 23.7253 40.1216 23.531 39.8362C23.3348 39.5944 23.1796 39.3479 23.0016 39.1471C22.8496 38.9721 22.6607 38.8329 22.4484 38.7398C22.2361 38.6467 22.0057 38.6019 21.774 38.6086C21.4519 38.6118 21.1366 38.7016 20.8612 38.8687C20.6696 38.992 20.5829 39.0878 20.5646 39.0741C20.5464 39.0604 20.6239 38.9463 20.811 38.7912C21.1601 38.5289 21.5939 38.4052 22.0288 38.444C22.4637 38.4828 22.8688 38.6812 23.1659 39.0011C23.3621 39.2156 23.5219 39.4575 23.709 39.6902C23.8734 39.9212 24.1171 40.0837 24.3935 40.1466C24.6814 40.1618 24.9664 40.0834 25.2059 39.923C25.4558 39.7619 25.7201 39.6244 25.9954 39.5122C26.489 39.3436 27.0268 39.3581 27.5105 39.5533C27.8342 39.6717 28.1229 39.8694 28.3503 40.1283C28.4872 40.3154 28.5328 40.4387 28.5237 40.466Z" fill="#FAFAFA"/>
<path d="M40.0741 30.4718C39.6502 30.3402 39.2007 30.3135 38.7643 30.3942C38.2997 30.4929 37.8827 30.7473 37.5823 31.1153C37.4205 31.348 37.2757 31.592 37.1488 31.8454C37.0059 32.1563 36.7612 32.4091 36.4551 32.5619C36.1289 32.6707 35.7738 32.6528 35.4602 32.5118C35.1681 32.4022 34.908 32.2699 34.6524 32.1877C34.4313 32.1162 34.1971 32.0947 33.9666 32.1246C33.7362 32.1546 33.5153 32.2354 33.3198 32.3611C33.0459 32.5285 32.8221 32.7666 32.6718 33.0503C32.5714 33.2511 32.544 33.3834 32.5258 33.3789C32.5075 33.3743 32.5258 33.2419 32.5896 33.0092C32.7549 32.6047 33.0643 32.2759 33.4579 32.0862C33.8516 31.8966 34.3015 31.8596 34.7209 31.9824C34.9993 32.0645 35.264 32.1923 35.5378 32.2927C35.7969 32.4139 36.0929 32.4302 36.3638 32.3383C36.6205 32.2064 36.826 31.9929 36.948 31.7314C37.0773 31.4672 37.23 31.2152 37.4043 30.9783C37.7419 30.581 38.2091 30.3159 38.7232 30.2299C39.0613 30.1668 39.4099 30.1903 39.7364 30.2984C39.862 30.3262 39.9783 30.3859 40.0741 30.4718Z" fill="#FAFAFA"/>
<path d="M34.7438 37.9563C34.5169 37.7049 34.2382 37.5056 33.9269 37.3721C33.5911 37.2413 33.2204 37.23 32.8773 37.3402C32.6737 37.4184 32.4768 37.513 32.2885 37.6231C32.0595 37.7648 31.7892 37.8243 31.5218 37.792C31.2581 37.7278 31.0292 37.5643 30.8829 37.3356C30.7415 37.1394 30.6319 36.9431 30.5041 36.7834C30.3958 36.644 30.2575 36.5306 30.0996 36.4516C29.9416 36.3727 29.768 36.3301 29.5914 36.327C29.2539 36.329 28.9248 36.4323 28.6467 36.6237C28.6467 36.6237 28.6924 36.5233 28.8384 36.4092C29.1172 36.2142 29.4586 36.1301 29.7961 36.1731C30.1335 36.2161 30.4429 36.3833 30.6639 36.6419C30.8099 36.8153 30.9286 37.0116 31.0609 37.1896C31.1737 37.3725 31.3513 37.5061 31.5584 37.5638C31.9782 37.6368 32.3616 37.258 32.7997 37.1348C33.1913 37.0208 33.6109 37.0516 33.9817 37.2215C34.6252 37.509 34.7712 37.9654 34.7438 37.9563Z" fill="#FAFAFA"/>
<path d="M22.9921 44.2631C22.7627 44.0124 22.4827 43.8133 22.1707 43.6789C21.8332 43.5526 21.4626 43.5461 21.121 43.6607C20.9178 43.7398 20.721 43.8344 20.5323 43.9436C20.3005 44.091 20.0243 44.1524 19.7519 44.117C19.49 44.0514 19.2631 43.8881 19.1176 43.6607C18.9715 43.4644 18.862 43.2682 18.7388 43.113C18.6297 42.9743 18.4913 42.8615 18.3335 42.7826C18.1757 42.7037 18.0024 42.6607 17.826 42.6567C17.4882 42.6563 17.1584 42.7599 16.8813 42.9533C16.8813 42.9533 16.9224 42.8529 17.073 42.7388C17.2915 42.5782 17.5549 42.4904 17.826 42.4878C18.0314 42.4799 18.2358 42.5194 18.4233 42.6033C18.6109 42.6872 18.7766 42.8132 18.9076 42.9716C19.0537 43.145 19.1678 43.3412 19.3047 43.5192C19.4153 43.7021 19.5916 43.836 19.7975 43.8934C20.2174 43.9664 20.6053 43.5877 21.0434 43.4644C21.4335 43.3503 21.8517 43.3811 22.2209 43.5512C22.8689 43.8158 23.0149 44.2722 22.9921 44.2631Z" fill="#FAFAFA"/>
<path d="M33.9771 44.4093C33.6831 44.2386 33.3535 44.1386 33.0142 44.1172C32.654 44.1041 32.3001 44.2135 32.0102 44.4276C31.846 44.5671 31.6934 44.7198 31.5538 44.8839C31.3824 45.0912 31.146 45.2343 30.8829 45.2901C30.6108 45.3101 30.3414 45.2252 30.1299 45.0528C29.9291 44.9159 29.7648 44.7653 29.5914 44.6557C29.4435 44.5606 29.2763 44.4994 29.102 44.4765C28.9276 44.4536 28.7503 44.4696 28.5828 44.5234C28.2639 44.6357 27.9858 44.8407 27.7842 45.1121C27.7842 45.1121 27.7842 45.0026 27.8983 44.8429C28.055 44.6213 28.2766 44.4538 28.5326 44.3637C28.724 44.2897 28.9299 44.2612 29.1342 44.2802C29.3385 44.2992 29.5356 44.3652 29.7101 44.4732C29.9017 44.5873 30.0751 44.7379 30.2623 44.8611C30.4265 44.9985 30.6374 45.0672 30.851 45.0528C31.2708 44.9889 31.5127 44.5052 31.8869 44.245C32.2209 44.0118 32.6269 43.9051 33.0324 43.9438C33.2147 43.9455 33.3943 43.9882 33.5579 44.0688C33.7214 44.1494 33.8647 44.2658 33.9771 44.4093Z" fill="#FAFAFA"/>
<path d="M30.3489 49.42C30.0523 49.2552 29.724 49.1556 29.3859 49.1279C29.0244 49.1152 28.6692 49.2245 28.3773 49.4383C28.2142 49.5789 28.0617 49.7315 27.921 49.8946C27.7501 50.1024 27.5134 50.2457 27.2501 50.3008C26.9788 50.3202 26.7101 50.2372 26.4971 50.068C26.2963 49.9266 26.132 49.776 25.9586 49.671C25.8114 49.5742 25.6444 49.5116 25.4699 49.4879C25.2953 49.4642 25.1177 49.48 24.95 49.5341C24.6302 49.6446 24.3516 49.85 24.1514 50.1228C24.1616 50.0245 24.1995 49.9311 24.2609 49.8535C24.4624 49.573 24.7625 49.379 25.1011 49.3105C25.4396 49.2419 25.7916 49.3039 26.0864 49.4839C26.2826 49.598 26.456 49.7486 26.6431 49.8718C26.8073 50.0092 27.0182 50.0778 27.2319 50.0635C27.6517 49.9996 27.8936 49.5158 28.2678 49.2557C28.6025 49.024 29.008 48.9174 29.4133 48.9545C29.5939 48.9585 29.7714 49.0023 29.9331 49.0827C30.0948 49.1632 30.2368 49.2784 30.3489 49.42Z" fill="#FAFAFA"/>
<path d="M22.6867 61.8607C22.4533 61.6128 22.1703 61.4168 21.8561 61.2856C21.5165 61.1659 21.1461 61.1659 20.8065 61.2856C20.6042 61.369 20.4089 61.4682 20.2223 61.5823C19.9957 61.7259 19.7266 61.7871 19.4602 61.7557C19.1945 61.693 18.9637 61.5293 18.8167 61.2993C18.6707 61.1076 18.5566 60.9114 18.4288 60.7562C18.3191 60.6182 18.1806 60.5059 18.0229 60.4271C17.8652 60.3482 17.6923 60.3048 17.516 60.2999C17.1776 60.3046 16.849 60.4147 16.5759 60.6148C16.5759 60.6148 16.617 60.5098 16.763 60.3911C16.9819 60.2308 17.2448 60.1416 17.516 60.1356C17.7199 60.1237 17.9238 60.1586 18.1121 60.2377C18.3004 60.3168 18.468 60.438 18.6022 60.592C18.7482 60.7654 18.8669 60.9616 19.0038 61.135C19.1184 61.3164 19.298 61.447 19.5058 61.5001C19.9257 61.5686 20.3045 61.1852 20.7426 61.0438C21.1327 60.9262 21.5519 60.9521 21.9246 61.1168C22.5544 61.4134 22.7095 61.8652 22.6867 61.8607Z" fill="#FAFAFA"/>
<path d="M31.6543 64.5076C31.3639 64.3369 31.0401 64.2311 30.705 64.1972C30.345 64.1798 29.9897 64.2844 29.6964 64.4939C29.5321 64.6333 29.3795 64.7859 29.2401 64.9503C29.0659 65.1538 28.8278 65.2922 28.5646 65.3427C28.2932 65.3622 28.0249 65.2754 27.8162 65.1009C27.6154 64.9594 27.4511 64.8042 27.2822 64.6947C27.1355 64.5971 26.9691 64.533 26.7947 64.5069C26.6204 64.4809 26.4425 64.4936 26.2737 64.5441C25.9539 64.6524 25.674 64.8543 25.4705 65.1237C25.4705 65.1237 25.4705 65.0142 25.5846 64.859C25.7465 64.6457 25.9692 64.4866 26.2235 64.4026C26.4168 64.3344 26.6229 64.3105 26.8267 64.3326C27.0305 64.3547 27.2267 64.4223 27.4009 64.5304C27.5926 64.6491 27.766 64.7997 27.9485 64.9274C28.113 65.0653 28.3229 65.1369 28.5373 65.1282C28.9571 65.0644 29.2081 64.5897 29.5823 64.3342C29.9203 64.1069 30.3272 64.0052 30.7324 64.0467C30.9103 64.0521 31.0849 64.0961 31.244 64.1757C31.4032 64.2553 31.5432 64.3685 31.6543 64.5076Z" fill="#FAFAFA"/>
<path d="M2.09978 26.7749C2.3736 27.0989 12.4092 40.5162 12.4092 40.5162L10.999 41.3194L0.69873 28.0847L2.09978 26.7749Z" fill="#263238"/>
<path d="M41.2608 36.3588C41.2608 36.3588 31.8505 52.5918 31.2207 52.8884C29.9657 53.4772 15.5262 40.9955 14.148 39.8043C13.9609 39.5488 13.5684 39.0148 12.7789 37.9515C12.7789 37.9515 11.6425 32.7352 10.424 33.1368C9.2055 33.5384 11.0903 35.7883 10.3008 37.7689C9.51127 39.7496 5.88314 35.0307 5.7371 34.6017L4.82436 33.3787C4.82436 33.3787 3.84317 36.158 3.91163 37.3217C4.12156 41.0411 7.64016 45.4633 7.64016 45.4633C7.64016 45.4633 21.9428 63.3804 32.7678 63.9873C35.8848 64.1653 41.8404 55.1885 45.5462 48.5529C47.7824 44.546 46.7418 40.4798 43.0361 37.7735L41.2608 36.3588Z" fill="#FFBE9D"/>
<path d="M5.6777 37.956C5.06001 37.1332 4.59618 36.2056 4.30859 35.2178C4.3451 35.2178 4.61436 35.8339 4.99315 36.5869C5.37193 37.3399 5.70965 37.9377 5.6777 37.956Z" fill="#EB996E"/>
<path d="M40.818 31.8228C40.4484 32.0464 31.6907 48.2931 31.6907 48.2931L42.9584 57.1147C44.6808 52.836 46.1737 48.4684 47.4308 44.0306C47.8507 42.4379 47.6362 38.18 47.0429 36.5371C46.2032 34.205 44.9345 34.7846 43.0314 33.42L40.818 31.8228Z" fill="#32959D"/>
<g opacity="0.7">
<path d="M44.5189 31.8227C44.5189 31.8227 44.4094 31.7588 44.1995 31.6538C43.8936 31.4981 43.5517 31.4272 43.2091 31.4484C42.6688 31.4993 42.1565 31.7125 41.7396 32.06C41.1818 32.5061 40.6928 33.032 40.2884 33.6208C39.7926 34.357 39.3356 35.1187 38.9193 35.9026C38.4629 36.7286 37.9426 37.614 37.4133 38.545C36.3499 40.4024 35.1771 42.4469 33.954 44.5919C33.201 45.8925 32.4754 47.1567 31.7908 48.3432L31.7634 48.1972L39.3848 54.2213L41.5982 55.9965L42.1823 56.4803C42.2538 56.5325 42.3196 56.5922 42.3786 56.6583C42.3007 56.6172 42.2273 56.5683 42.1595 56.5122L41.548 56.0559L39.2935 54.3308L31.6219 48.398L31.5398 48.3341L31.6174 48.2246C32.3019 47.038 33.0276 45.7739 33.7714 44.4686C35.0036 42.3283 36.1811 40.2929 37.249 38.4355L38.7732 35.8022C39.1891 35.018 39.6461 34.2563 40.1423 33.5204C40.5657 32.9157 41.0799 32.38 41.6666 31.9322C42.1084 31.5806 42.646 31.3706 43.2091 31.3298C43.5663 31.317 43.9196 31.4073 44.2268 31.5899C44.3067 31.6342 44.383 31.6845 44.455 31.7405C44.5007 31.7953 44.5235 31.8181 44.5189 31.8227Z" fill="black"/>
</g>
<path d="M41.1559 47.0559C40.9304 46.8029 40.6513 46.6034 40.339 46.4718C40.0033 46.3416 39.6334 46.3287 39.2894 46.4352C39.0857 46.5151 38.8889 46.6113 38.7007 46.7228C38.4709 46.8624 38.2012 46.9218 37.934 46.8916C37.6702 46.8274 37.4413 46.664 37.295 46.4352C37.1536 46.239 37.044 46.0428 36.9163 45.883C36.8079 45.7436 36.6696 45.6303 36.5117 45.5513C36.3537 45.4723 36.1801 45.4297 36.0035 45.4267C35.666 45.4287 35.3369 45.532 35.0588 45.7233C35.0588 45.7233 35.1045 45.6229 35.2505 45.5043C35.473 45.3488 35.7367 45.2631 36.0081 45.2578C36.2128 45.2499 36.4165 45.2895 36.6033 45.3734C36.7902 45.4573 36.9551 45.5833 37.0851 45.7416C37.2312 45.915 37.3498 46.1112 37.4822 46.2892C37.5963 46.4709 37.7734 46.6042 37.9796 46.6634C38.3995 46.7364 38.7828 46.3577 39.2209 46.2345C39.612 46.119 40.0316 46.1482 40.4029 46.3166C41.0373 46.6041 41.2016 47.0605 41.1559 47.0559Z" fill="#FAFAFA"/>
<path d="M46.3035 44.957C46.1581 44.6482 45.9424 44.3778 45.6737 44.1674C45.385 43.954 45.0332 43.8432 44.6743 43.8525C44.4574 43.8776 44.2424 43.9173 44.0308 43.9712C43.7714 44.0442 43.495 44.0281 43.2459 43.9256C43.0091 43.7894 42.8342 43.567 42.7576 43.3049C42.6754 43.0767 42.6206 42.8485 42.5431 42.6751C42.4754 42.512 42.3724 42.3659 42.2413 42.2475C42.1103 42.1291 41.9546 42.0414 41.7855 41.9906C41.4597 41.9014 41.1145 41.9125 40.7952 42.0225C40.7952 42.0225 40.8636 41.9358 41.037 41.8673C41.2911 41.7707 41.5693 41.7579 41.8311 41.8308C42.0313 41.8784 42.2178 41.9715 42.3761 42.1029C42.5344 42.2343 42.6603 42.4004 42.7439 42.5884C42.8351 42.7938 42.8945 43.0128 42.9766 43.2228C43.0354 43.4282 43.171 43.6031 43.3554 43.7111C43.7387 43.8982 44.2088 43.638 44.6652 43.6335C45.0719 43.633 45.4659 43.7751 45.7787 44.0351C45.9298 44.1395 46.0554 44.2766 46.1463 44.4362C46.2371 44.5957 46.2909 44.7737 46.3035 44.957Z" fill="#FAFAFA"/>
<path d="M46.5684 38.239C46.4207 37.933 46.2054 37.6646 45.9386 37.4541C45.6509 37.2387 45.2984 37.1277 44.9392 37.1392C44.7216 37.1598 44.5063 37.1995 44.2957 37.2579C44.036 37.3316 43.7589 37.3139 43.5108 37.2076C43.2753 37.0722 43.1005 36.8518 43.0224 36.5916C42.9403 36.3634 42.8855 36.1352 42.808 35.9572C42.7387 35.7951 42.6351 35.6499 42.5043 35.5317C42.3735 35.4136 42.2187 35.3252 42.0504 35.2726C41.7246 35.1835 41.3794 35.1946 41.0601 35.3046C41.0601 35.3046 41.1285 35.2225 41.3019 35.1494C41.5564 35.055 41.834 35.0422 42.096 35.1129C42.2952 35.1627 42.4807 35.2566 42.6387 35.3877C42.7967 35.5189 42.9232 35.6839 43.0088 35.8705C43.1 36.0759 43.1594 36.2995 43.2415 36.5048C43.3001 36.7115 43.4356 36.8879 43.6203 36.9977C44.0036 37.1803 44.4737 36.9201 44.9301 36.9201C45.3375 36.9153 45.733 37.0579 46.0436 37.3217C46.1939 37.4259 46.319 37.5623 46.4098 37.721C46.5006 37.8797 46.5548 38.0567 46.5684 38.239Z" fill="#FAFAFA"/>
<path d="M44.0765 53.7009C43.9267 53.3962 43.7117 53.1282 43.4467 52.916C43.1575 52.7 42.8034 52.5889 42.4427 52.6011C42.2266 52.6217 42.0128 52.6614 41.8038 52.7197C41.5444 52.7927 41.268 52.7767 41.0188 52.6741C40.7839 52.5358 40.6096 52.3143 40.5305 52.0534C40.4438 51.8252 40.3936 51.5971 40.3114 51.4191C40.2432 51.2571 40.1405 51.112 40.0105 50.9937C39.8804 50.8755 39.7262 50.7871 39.5584 50.7345C39.2327 50.6423 38.8862 50.6551 38.5681 50.771C38.5681 50.771 38.6366 50.6843 38.81 50.6113C39.1325 50.497 39.4861 50.5077 39.8012 50.6412C40.1163 50.7746 40.3699 51.0212 40.5123 51.3324C40.6081 51.5377 40.6674 51.7614 40.7496 51.9667C40.8078 52.1723 40.9415 52.3482 41.1238 52.4596C41.5117 52.6421 41.9818 52.382 42.4381 52.382C42.8456 52.3771 43.2411 52.5198 43.5517 52.7836C43.7019 52.8878 43.827 53.0242 43.9178 53.1829C44.0086 53.3416 44.0628 53.5186 44.0765 53.7009Z" fill="#FAFAFA"/>
</svg>
