<svg width="43" height="55" viewBox="0 0 43 55" fill="none" xmlns="http://www.w3.org/2000/svg">
<g id="freepik--Clipboard--inject-71">
<path id="Vector" d="M37.899 3.54492H1.17188V52.3268H37.899V3.54492Z" fill="#01818C"/>
<g id="Group" opacity="0.1">
<path id="Vector_2" d="M42.0326 0.871582H1.28027V54.9998H42.0326V0.871582Z" fill="#020100"/>
</g>
<path id="Vector_3" d="M40.9262 0.871582H0.173828V54.9998H40.9262V0.871582Z" fill="#01818C"/>
<path id="Vector_4" d="M38.6074 3.03237L2.63477 3.49072L3.25609 52.2543L39.2287 51.7959L38.6074 3.03237Z" fill="#EBEBEB"/>
<path id="Vector_5" d="M2.92742 2.88063L1.87207 51.6367L37.8392 52.4152L38.8945 3.65915L2.92742 2.88063Z" fill="#DBDBDB"/>
<path id="Vector_6" d="M38.3661 3.26074H2.39062V52.0283H38.3661V3.26074Z" fill="white"/>
<g id="Group 163057">
<path id="Vector_7" d="M12.2101 22.088C10.494 22.1311 7.16446 22.1974 5.44834 22.2172C5.4119 20.2295 5.42184 17.4499 5.40527 15.4489V15.2832H5.57092C7.58189 15.3031 10.3549 15.2832 12.3393 15.323C12.3161 17.0424 12.2565 20.3719 12.2101 22.088ZM12.2101 22.088C12.167 20.4316 12.1074 17.1186 12.0842 15.4621L12.2101 15.588C10.2919 15.6112 7.51895 15.6178 5.58418 15.6277L5.74983 15.4621C5.74983 17.4201 5.73326 20.1698 5.71007 22.088L5.58418 21.9621C7.24066 21.982 10.5702 22.0483 12.2101 22.088Z" fill="#C7C7C7"/>
<g id="Group 163056">
<path id="Vector_8" d="M15.7393 16.5855C20.606 16.3602 25.5125 16.3602 30.3793 16.5855C25.5092 16.8141 20.606 16.8107 15.7393 16.5855Z" fill="#C7C7C7"/>
<path id="Vector_9" d="M15.875 18.3175C22.5997 17.8078 30.0757 17.823 36.8057 18.3175C30.0739 18.8044 22.6015 18.8197 15.875 18.3175Z" fill="#C7C7C7"/>
<path id="Vector_10" d="M6.0625 18.4239C6.30766 18.6293 6.53957 18.8413 6.77148 19.0566C7.00339 19.272 7.22536 19.4939 7.43407 19.7192C7.88133 20.1598 8.31201 20.6137 8.73607 21.0742L7.9774 21.1239C8.5798 19.862 9.27061 18.6442 10.0447 17.4797C10.429 16.901 10.8376 16.3356 11.2705 15.7834C11.7073 15.2256 12.181 14.6976 12.6884 14.2031C12.4857 14.8815 12.2378 15.5456 11.9463 16.1909C11.6647 16.8303 11.3533 17.4565 11.0187 18.066C10.351 19.2887 9.60056 20.4642 8.77251 21.5844L8.35508 22.141L8.02378 21.6341C7.67261 21.114 7.32806 20.5905 6.99676 20.0571C6.83774 19.7855 6.66547 19.5204 6.51307 19.2455C6.36067 18.9705 6.19833 18.7088 6.0625 18.4239Z" fill="#263238"/>
<path id="Vector_11" d="M12.2121 34.5382C10.496 34.5813 7.16642 34.6476 5.4503 34.6674C5.41385 32.6797 5.42379 29.9034 5.40723 27.899V27.7334H5.57288C7.58385 27.7533 10.3568 27.7334 12.3413 27.7765C12.3181 29.4959 12.2585 32.8221 12.2121 34.5382ZM12.2121 34.5382C12.169 32.8818 12.1094 29.5688 12.0862 27.9123L12.2121 28.0415C10.2939 28.0647 7.5209 28.068 5.58613 28.0779L5.75178 27.9123C5.75178 29.8703 5.73522 32.6233 5.71202 34.5382L5.58613 34.4123C7.24261 34.4322 10.5721 34.4985 12.2121 34.5382Z" fill="#C7C7C7"/>
<path id="Vector_12" d="M15.7393 29.0252C20.606 28.7999 25.5125 28.7966 30.3793 29.0252C25.5092 29.2505 20.606 29.2505 15.7393 29.0252Z" fill="#C7C7C7"/>
<path id="Vector_13" d="M6.0625 30.861C6.30766 31.0664 6.53957 31.2784 6.77148 31.4938C7.00339 31.7091 7.22536 31.9311 7.43407 32.1564C7.88133 32.6003 8.31201 33.0542 8.73607 33.5147L7.9774 33.5611C8.58123 32.3063 9.27201 31.0952 10.0447 29.9367C10.429 29.358 10.8376 28.7926 11.2705 28.2404C11.7065 27.6819 12.1802 27.1539 12.6884 26.6602C12.4858 27.3386 12.2379 28.0027 11.9463 28.6479C11.6647 29.2907 11.3533 29.9135 11.0187 30.5264C10.351 31.7479 9.60054 32.9224 8.77251 34.0415L8.35508 34.6013L8.02378 34.0911C7.67261 33.5743 7.32806 33.0509 6.99676 32.5142C6.83774 32.2425 6.66547 31.9775 6.51307 31.7025C6.36067 31.4275 6.19833 31.1459 6.0625 30.861Z" fill="#263238"/>
<path id="Vector_14" d="M12.2121 46.9653C10.496 47.0084 7.16642 47.0746 5.4503 47.0945C5.41385 45.1067 5.42379 42.3272 5.40723 40.3261V40.1704H5.57288C7.58385 40.1903 10.3568 40.1704 12.3413 40.2102C12.3181 41.9296 12.2585 45.2558 12.2121 46.9752V46.9653ZM12.2121 46.9653C12.169 45.3088 12.1094 41.9959 12.0862 40.3394L12.2121 40.4653C10.2939 40.4885 7.5209 40.4951 5.58613 40.505L5.75178 40.3394C5.75178 42.2973 5.73522 45.0471 5.71202 46.9653L5.58613 46.8394C7.24261 46.8593 10.5721 46.9256 12.2121 46.9653Z" fill="#C7C7C7"/>
<path id="Vector_15" d="M15.7393 41.4624C20.606 41.2371 25.5125 41.2371 30.3793 41.4624C25.5092 41.6877 20.606 41.6877 15.7393 41.4624Z" fill="#C7C7C7"/>
<path id="Vector_16" d="M15.875 42.9855C22.5997 42.4758 30.0757 42.491 36.8057 42.9855C30.0739 43.4724 22.6015 43.4876 15.875 42.9855Z" fill="#C7C7C7"/>
</g>
</g>
<path id="Vector_17" d="M15.3368 10.371H14.8874V11.8745C14.8874 11.9157 14.8711 11.9552 14.8419 11.9844C14.8128 12.0135 14.7733 12.0299 14.7321 12.0299C14.6909 12.0299 14.6514 12.0135 14.6222 11.9844C14.5931 11.9552 14.5767 11.9157 14.5767 11.8745V10.371H14.129C14.0876 10.3706 14.0481 10.3538 14.019 10.3244C13.99 10.295 13.9736 10.2553 13.9736 10.214C13.9734 10.1935 13.9773 10.1732 13.985 10.1542C13.9927 10.1353 14.0042 10.1181 14.0186 10.1036C14.0331 10.0891 14.0503 10.0777 14.0693 10.07C14.0882 10.0622 14.1085 10.0584 14.129 10.0586H15.3368C15.3573 10.0584 15.3776 10.0622 15.3965 10.07C15.4155 10.0777 15.4327 10.0891 15.4472 10.1036C15.4616 10.1181 15.4731 10.1353 15.4808 10.1542C15.4885 10.1732 15.4924 10.1935 15.4922 10.214C15.4898 10.2546 15.4728 10.2929 15.4442 10.3218C15.4156 10.3507 15.3774 10.3682 15.3368 10.371Z" fill="#01818C"/>
<path id="Vector_18" d="M16.6993 11.5704H16.0127L15.874 11.9379C15.8623 11.9672 15.8419 11.9923 15.8157 12.0099C15.7895 12.0274 15.7586 12.0367 15.727 12.0365C15.7089 12.0364 15.6908 12.0336 15.6735 12.0281C15.6355 12.0118 15.6048 11.9819 15.5875 11.9442C15.5702 11.9066 15.5675 11.8638 15.58 11.8243L16.2048 10.1537C16.2178 10.1247 16.2389 10.1 16.2656 10.0825C16.2922 10.065 16.3233 10.0556 16.3551 10.0552C16.387 10.0556 16.4181 10.065 16.4447 10.0825C16.4713 10.1 16.4924 10.1247 16.5055 10.1537L17.1303 11.8243C17.1427 11.8638 17.1401 11.9066 17.1228 11.9442C17.1055 11.9819 17.0748 12.0118 17.0367 12.0281C17.0194 12.0336 17.0014 12.0364 16.9833 12.0365C16.9519 12.0368 16.9211 12.0276 16.8951 12.01C16.8691 11.9924 16.8492 11.9672 16.8379 11.9379L16.6993 11.5704ZM16.584 11.2596L16.3551 10.6516L16.1263 11.2596H16.584Z" fill="#01818C"/>
<path id="Vector_19" d="M17.4029 11.5451C17.4151 11.5302 17.4302 11.5178 17.4473 11.5087C17.4644 11.4996 17.483 11.494 17.5023 11.4921C17.5215 11.4903 17.5409 11.4922 17.5594 11.4979C17.5779 11.5035 17.5951 11.5128 17.61 11.5251C17.7615 11.6542 17.9509 11.7304 18.1496 11.7422C18.2758 11.7452 18.3997 11.7084 18.5038 11.637C18.5386 11.6155 18.5678 11.5859 18.5887 11.5507C18.6097 11.5155 18.6218 11.4758 18.624 11.4349C18.6248 11.4025 18.6161 11.3705 18.599 11.343C18.5772 11.3092 18.548 11.2806 18.5138 11.2595C18.3941 11.1923 18.2635 11.147 18.1279 11.1258C18.0022 11.105 17.8798 11.0679 17.7637 11.0156C17.6566 10.9685 17.5651 10.892 17.4998 10.795C17.4572 10.7251 17.4352 10.6447 17.4363 10.5628C17.439 10.4812 17.4609 10.4014 17.5 10.3297C17.5392 10.2581 17.5946 10.1966 17.6618 10.1502C17.8057 10.0513 17.9767 9.99935 18.1513 10.0015C18.3748 10.0129 18.5896 10.0915 18.7677 10.2271C18.7992 10.2487 18.8208 10.2819 18.828 10.3194C18.8352 10.3569 18.8274 10.3958 18.8061 10.4275C18.7961 10.4439 18.7829 10.458 18.7672 10.4691C18.7516 10.4802 18.7339 10.488 18.7152 10.492C18.6964 10.4961 18.6771 10.4963 18.6583 10.4927C18.6394 10.4891 18.6215 10.4817 18.6057 10.471C18.4765 10.3651 18.3178 10.3015 18.1513 10.2889C18.0379 10.2872 17.927 10.3211 17.8339 10.3858C17.803 10.4044 17.7772 10.4302 17.7585 10.4611C17.7399 10.4919 17.7291 10.5269 17.727 10.5628C17.725 10.591 17.732 10.6191 17.747 10.643C17.7668 10.6723 17.7924 10.6974 17.8222 10.7165C17.9314 10.7797 18.0515 10.8216 18.1763 10.8401C18.311 10.8636 18.4423 10.9035 18.5672 10.9588C18.6815 11.0093 18.7793 11.0909 18.8496 11.1943C18.8941 11.2667 18.9178 11.3499 18.9181 11.4349C18.9153 11.522 18.8917 11.6072 18.8492 11.6833C18.8068 11.7595 18.7468 11.8243 18.6742 11.8726C18.522 11.9823 18.3389 12.0408 18.1513 12.0396C17.8857 12.0277 17.6314 11.9284 17.4279 11.7573C17.4123 11.7451 17.3992 11.7298 17.3894 11.7125C17.3797 11.6952 17.3735 11.6762 17.3712 11.6564C17.3688 11.6367 17.3704 11.6167 17.3759 11.5976C17.3813 11.5785 17.3905 11.5607 17.4029 11.5451Z" fill="#01818C"/>
<path id="Vector_20" d="M19.3525 11.881V10.2271C19.3525 10.1859 19.3689 10.1464 19.398 10.1173C19.4272 10.0881 19.4667 10.0718 19.5079 10.0718C19.5491 10.0718 19.5886 10.0881 19.6178 10.1173C19.6469 10.1464 19.6633 10.1859 19.6633 10.2271V11.039L20.5787 10.1202C20.5931 10.1055 20.6102 10.0937 20.6291 10.0857C20.6481 10.0777 20.6684 10.0736 20.689 10.0736C20.7095 10.0736 20.7299 10.0777 20.7488 10.0857C20.7678 10.0937 20.7849 10.1055 20.7992 10.1202C20.8282 10.1496 20.8445 10.1892 20.8445 10.2305C20.8445 10.2717 20.8282 10.3114 20.7992 10.3407L20.1778 10.9588L20.8059 11.7824C20.8192 11.798 20.8291 11.8161 20.8352 11.8356C20.8412 11.8552 20.8432 11.8757 20.841 11.896C20.8388 11.9164 20.8325 11.936 20.8224 11.9538C20.8124 11.9716 20.7988 11.9872 20.7825 11.9996C20.7554 12.0237 20.7203 12.0368 20.684 12.0364C20.6618 12.0359 20.64 12.0305 20.62 12.0207C20.6001 12.0109 20.5826 11.9969 20.5687 11.9796L19.9573 11.1794L19.6633 11.4801V11.881C19.6633 11.9222 19.6469 11.9617 19.6178 11.9908C19.5886 12.02 19.5491 12.0364 19.5079 12.0364C19.4667 12.0364 19.4272 12.02 19.398 11.9908C19.3689 11.9617 19.3525 11.9222 19.3525 11.881Z" fill="#01818C"/>
<path id="Vector_21" d="M21.2858 11.5451C21.2978 11.53 21.3127 11.5175 21.3296 11.5083C21.3466 11.4991 21.3652 11.4934 21.3843 11.4916C21.4035 11.4897 21.4228 11.4917 21.4412 11.4975C21.4596 11.5032 21.4766 11.5126 21.4913 11.5251C21.6429 11.654 21.8323 11.7302 22.0309 11.7422C22.1571 11.7452 22.281 11.7084 22.3851 11.637C22.4203 11.6158 22.4499 11.5863 22.4711 11.5511C22.4924 11.5158 22.5047 11.476 22.507 11.4349C22.5079 11.4022 22.4985 11.3701 22.4803 11.343C22.4587 11.3095 22.4302 11.2811 22.3968 11.2595C22.2766 11.192 22.1453 11.1467 22.0092 11.1258C21.8835 11.105 21.7611 11.0679 21.645 11.0156C21.5381 10.9689 21.4471 10.8923 21.3827 10.795C21.3389 10.7256 21.3163 10.6449 21.3176 10.5628C21.3203 10.4812 21.3422 10.4014 21.3813 10.3297C21.4205 10.2581 21.4759 10.1966 21.5431 10.1502C21.687 10.0513 21.858 9.99935 22.0326 10.0015C22.2561 10.0126 22.4711 10.0912 22.649 10.2271C22.6813 10.2492 22.7036 10.2833 22.7108 10.3218C22.718 10.3604 22.7096 10.4002 22.6874 10.4325C22.6653 10.4649 22.6312 10.4871 22.5926 10.4943C22.5541 10.5015 22.5143 10.4931 22.4819 10.471C22.3528 10.3651 22.1941 10.3015 22.0276 10.2889C21.9142 10.2872 21.8032 10.3211 21.7101 10.3858C21.6796 10.4047 21.654 10.4306 21.6354 10.4614C21.6168 10.4922 21.6058 10.527 21.6032 10.5628C21.6021 10.5909 21.6091 10.6188 21.6233 10.643C21.6438 10.6723 21.6699 10.6973 21.7001 10.7165C21.8087 10.7797 21.9284 10.8216 22.0526 10.8401C22.1867 10.8639 22.3174 10.9037 22.4419 10.9588C22.5561 11.0093 22.6539 11.0909 22.7242 11.1943C22.7695 11.2663 22.7933 11.3498 22.7927 11.4349C22.7899 11.522 22.7663 11.6072 22.7239 11.6833C22.6814 11.7595 22.6214 11.8243 22.5488 11.8726C22.3967 11.9825 22.2135 12.0411 22.0259 12.0396C21.7604 12.0269 21.5064 11.9278 21.3025 11.7573C21.2873 11.7446 21.2748 11.729 21.2656 11.7114C21.2565 11.6938 21.251 11.6745 21.2495 11.6547C21.2479 11.635 21.2503 11.6151 21.2566 11.5963C21.2628 11.5774 21.2728 11.56 21.2858 11.5451Z" fill="#01818C"/>
<path id="Vector_22" d="M26.1471 2.6543H10.2217V7.50893H26.1471V2.6543Z" fill="#C7C7C7"/>
<path id="Vector_23" d="M23.0531 0H13.1701L12.7324 2.65451H23.6378L23.0531 0ZM18.1834 1.90443C18.0681 1.90443 17.9554 1.87024 17.8595 1.80618C17.7637 1.74211 17.6889 1.65106 17.6448 1.54452C17.6007 1.43799 17.5891 1.32076 17.6116 1.20767C17.6341 1.09457 17.6896 0.990687 17.7712 0.909149C17.8527 0.827612 17.9566 0.772084 18.0697 0.749588C18.1828 0.727092 18.3 0.738638 18.4066 0.782766C18.5131 0.826893 18.6041 0.901621 18.6682 0.997499C18.7323 1.09338 18.7665 1.2061 18.7665 1.32141C18.7667 1.39803 18.7518 1.47395 18.7225 1.54478C18.6933 1.61562 18.6504 1.67998 18.5962 1.73416C18.542 1.78834 18.4777 1.83128 18.4068 1.8605C18.336 1.88972 18.2601 1.90465 18.1834 1.90443Z" fill="#C7C7C7"/>
<path id="Vector_24" d="M23.6378 2.65457H12.7324L12.831 2.06152H23.5058L23.6378 2.65457Z" fill="#A6A6A6"/>
</g>
</svg>
