<svg width="173" height="141" viewBox="0 0 173 141" fill="none" xmlns="http://www.w3.org/2000/svg">
<path opacity="0.2" d="M26.9059 15.3384C26.9059 15.3384 43.9205 1.44191 66.0499 7.59382C88.1792 13.7457 97.4458 32.8278 110.134 45.9363C116.78 52.7987 126.599 55.3275 134.495 60.6107C159.749 77.504 156.005 115.496 136.536 129.807C119.68 142.212 98.6176 143.508 71.2118 134.36C43.806 125.211 24.1953 119.715 7.20097 93.5084C-9.7934 67.3013 5.94499 34.1982 26.9059 15.3384Z" fill="#036696"/>
<path d="M57.9454 5.52885C57.7095 4.82413 57.2654 4.20758 56.6716 3.76071C56.0779 3.31384 55.3625 3.05769 54.6201 3.02612C55.0051 1.9454 54.2657 0.698415 53.2156 0.243374C52.6768 0.0485165 52.1031 -0.030756 51.5317 0.0107046C50.9603 0.0521653 50.404 0.213432 49.899 0.484022C49.1683 0.829678 48.4858 1.31097 47.7113 1.49036C46.6744 1.72663 45.6024 1.39848 44.5435 1.36347C43.4569 1.3428 42.3855 1.62123 41.4464 2.16833C40.5073 2.71543 39.7366 3.51015 39.2187 4.46563C38.8643 5.13506 38.6455 5.8745 38.2561 6.52643C37.9411 7.0471 37.5298 7.50215 37.2191 8.02719C36.7854 8.79583 36.5881 9.67535 36.6519 10.5556C36.7157 11.4359 37.0378 12.2777 37.5779 12.9758L52.4936 9.54983C53.1067 9.97383 53.8368 10.1959 54.5821 10.1849C55.3274 10.174 56.0507 9.93062 56.651 9.48881C57.2513 9.04699 57.6987 8.42877 57.9308 7.72043C58.1628 7.01209 58.1679 6.24898 57.9454 5.5376V5.52885Z" fill="#263238"/>
<path d="M92.3055 60.4488L77.9236 59.0225L77.0923 66.4913L93.3337 65.9268L92.3055 60.4488Z" fill="#FFBF9D"/>
<path d="M103.23 64.8243C103.138 64.9538 103.011 65.0535 102.863 65.1111C102.715 65.1687 102.554 65.1815 102.399 65.1481C102.332 65.1303 102.267 65.1054 102.206 65.0737C101.768 64.8593 101.965 63.9449 101.965 63.9449L99.8564 63.2536C99.8564 63.2536 96.7587 64.6187 95.5686 65.6644C94.3785 66.7101 91.9808 65.3319 91.9808 65.3319L91.8232 60.5802L96.3736 57.6093C96.3736 57.6093 96.0936 57.7887 96.4743 57.1718C96.8549 56.5549 98.0669 56.9924 98.0669 56.9924C98.3163 56.6905 99.152 56.6992 99.152 56.6992L102.578 57.6531C102.927 57.75 103.25 57.9241 103.523 58.1627C103.795 58.4013 104.011 58.6982 104.153 59.0313L105.26 61.5997C105.26 61.5997 105.776 63.4067 105.588 63.7874C105.508 63.9404 105.375 64.0587 105.214 64.12C105.053 64.1813 104.874 64.1813 104.713 64.1199C104.713 64.1199 104.363 65.1963 104.07 65.1919C103.774 65.1294 103.492 65.0122 103.239 64.8462L103.23 64.8243Z" fill="#FFBF9D"/>
<path d="M96.4489 65.0423C96.5314 65.0073 96.6105 64.9648 96.6852 64.9154L97.3415 64.5391C98.1657 64.0827 99.016 63.6751 99.888 63.3184H99.8355L101.94 64.0272L101.879 63.9222C101.846 64.0997 101.832 64.28 101.835 64.4604C101.833 64.6575 101.889 64.8508 101.997 65.0161C102.066 65.1007 102.159 65.163 102.264 65.1955C102.359 65.2373 102.462 65.2596 102.566 65.2611C102.78 65.2614 102.988 65.1854 103.152 65.0467C103.193 65.0121 103.231 64.9741 103.266 64.9329L103.292 64.9023L103.156 64.9286L103.222 64.9679C103.307 65.0212 103.394 65.0694 103.485 65.1123C103.576 65.1588 103.671 65.1983 103.769 65.2305C103.82 65.2502 103.873 65.2649 103.926 65.2742C103.994 65.2938 104.065 65.2938 104.132 65.2742C104.239 65.2144 104.329 65.1267 104.39 65.0204C104.447 64.9305 104.498 64.8369 104.543 64.7404C104.634 64.5484 104.713 64.3511 104.78 64.1497L104.64 64.2154C104.781 64.2711 104.935 64.2871 105.084 64.2616C105.234 64.2362 105.374 64.1702 105.488 64.071C105.607 63.9635 105.684 63.8181 105.707 63.6597C105.723 63.5143 105.723 63.3676 105.707 63.2222C105.63 62.6647 105.513 62.1134 105.357 61.5726L104.767 60.2031L104.395 59.3281C104.28 59.0287 104.133 58.7427 103.957 58.4749C103.77 58.2148 103.532 57.9958 103.257 57.8317C102.983 57.6802 102.688 57.571 102.382 57.5079L99.1485 56.6328H99.1223C98.921 56.6352 98.7204 56.6557 98.5229 56.6941C98.3119 56.7222 98.1156 56.8173 97.9628 56.9653H98.0897C97.9251 56.8557 97.7362 56.7881 97.5394 56.7682C97.3426 56.7484 97.144 56.777 96.9608 56.8516C96.6352 57.0177 96.3861 57.3029 96.2652 57.6479L96.3002 57.6041L93.163 59.6387L92.3186 60.2031C92.2173 60.266 92.1208 60.3362 92.0298 60.4132C92.1401 60.3667 92.2456 60.3095 92.3448 60.2425L93.2199 59.7175L96.392 57.7485V57.7223C96.5003 57.4234 96.7175 57.1764 97.0002 57.031C97.1563 56.9713 97.3245 56.9502 97.4905 56.9692C97.6565 56.9882 97.8155 57.0469 97.9541 57.1404L98.0241 57.1841L98.0809 57.1229C98.2037 57.0141 98.356 56.944 98.5185 56.9216C98.7016 56.8862 98.8877 56.8686 99.0742 56.8691L102.299 57.7792C102.582 57.8387 102.855 57.9405 103.108 58.0811C103.356 58.2313 103.571 58.4309 103.738 58.6674C103.903 58.9211 104.038 59.1926 104.141 59.4768C104.268 59.7656 104.39 60.0544 104.517 60.3519L105.108 61.7214C105.261 62.2507 105.377 62.7902 105.453 63.3359C105.466 63.4625 105.466 63.59 105.453 63.7166C105.438 63.8244 105.385 63.9234 105.305 63.9966C105.219 64.0683 105.116 64.1158 105.006 64.1343C104.896 64.1528 104.783 64.1415 104.679 64.1016L104.574 64.0666L104.539 64.1672C104.478 64.3605 104.404 64.5491 104.316 64.7317C104.255 64.9001 104.153 65.0505 104.018 65.1692C103.988 65.173 103.957 65.173 103.926 65.1692L103.8 65.1342C103.712 65.1036 103.625 65.0642 103.537 65.0248C103.452 64.9839 103.368 64.9387 103.288 64.8892L103.226 64.8542L103.091 64.8804V64.9067C103.062 64.938 103.032 64.9673 102.999 64.9942C102.877 65.0994 102.722 65.1597 102.561 65.1648C102.48 65.1645 102.4 65.1481 102.325 65.1167C102.252 65.0995 102.187 65.0578 102.141 64.9986C101.997 64.7084 101.963 64.3757 102.045 64.0622V63.9791L101.971 63.9572L99.8617 63.2747H99.8355H99.8092C98.9382 63.646 98.0933 64.0758 97.2803 64.561C96.9959 64.7317 96.7815 64.8717 96.6371 64.9723C96.5728 64.9912 96.5099 65.0146 96.4489 65.0423Z" fill="#FF9A6C"/>
<path d="M98.4668 58.3047C98.7982 58.5211 99.1573 58.6918 99.5344 58.8122C100.451 59.1573 101.408 59.3809 102.383 59.4773L102.278 59.381C102.313 59.5648 102.343 59.7529 102.392 59.9455C102.64 61.0311 103.094 62.059 103.73 62.9732C103.922 63.2471 104.133 63.5073 104.36 63.7521C104.522 63.9271 104.623 64.0102 104.636 64.0015C104.649 63.9927 104.312 63.5858 103.866 62.8814C103.285 61.9625 102.864 60.9521 102.619 59.893C102.575 59.7092 102.54 59.521 102.51 59.346V59.2542H102.422C101.465 59.1606 100.52 58.9655 99.6044 58.6722C99.2326 58.5279 98.8528 58.4052 98.4668 58.3047Z" fill="#FF9A6C"/>
<path d="M101.458 60.8595C101.558 62.3276 102.223 63.6998 103.313 64.688C103.37 64.6398 102.731 63.9135 102.224 62.8547C101.716 61.7958 101.528 60.8464 101.458 60.8595Z" fill="#FF9A6C"/>
<path d="M91.5127 63.8041C91.5127 63.8041 91.5433 63.8391 91.6133 63.8872C91.7174 63.9564 91.8255 64.0192 91.9371 64.0754C92.361 64.2823 92.8192 64.4098 93.2891 64.4517C94.0107 64.5171 94.7361 64.376 95.3805 64.0447C96.2025 63.6236 96.8533 62.9311 97.2226 62.0846L97.0826 62.1502C97.8894 62.4407 98.7337 62.6145 99.5897 62.6665C99.9074 62.684 100.226 62.684 100.543 62.6665C100.862 62.6673 101.178 62.6155 101.48 62.5134C101.648 62.4568 101.79 62.3399 101.878 62.1852C101.915 62.1055 101.936 62.0193 101.94 61.9314C101.944 61.8436 101.93 61.7559 101.9 61.6733C101.838 61.5099 101.714 61.3777 101.554 61.3058L101.169 61.1395C100.15 60.702 99.209 60.3825 98.4171 60.1244C97.6251 59.8662 96.9688 59.6869 96.5181 59.5731C96.2861 59.5001 96.0471 59.4517 95.805 59.4287C96.0291 59.5198 96.2584 59.5972 96.4919 59.6606C96.9294 59.8006 97.577 60.0063 98.3645 60.2819C99.1521 60.5576 100.075 60.9076 101.086 61.3408L101.467 61.507C101.569 61.5552 101.65 61.6415 101.69 61.7477C101.712 61.801 101.724 61.8583 101.724 61.9161C101.724 61.9739 101.712 62.0312 101.69 62.0846C101.625 62.1903 101.524 62.2682 101.405 62.3033C101.123 62.3951 100.827 62.4394 100.53 62.4346C100.224 62.4346 99.9134 62.4346 99.5984 62.4346C98.7638 62.3833 97.9406 62.2154 97.1526 61.9358L97.0519 61.9008L97.0126 61.9971C96.6612 62.8057 96.0436 63.4697 95.2624 63.8785C94.6509 64.2026 93.9626 64.3539 93.2716 64.316C92.8202 64.2868 92.3767 64.1833 91.959 64.0097C91.6702 63.896 91.5214 63.8041 91.5127 63.8041Z" fill="#FF9A6C"/>
<path d="M45.6539 41.9676C43.9473 41.9298 42.3235 41.2246 41.1309 40.0034C39.9383 38.7821 39.2719 37.1421 39.2746 35.4351L39.0033 13.7726C38.7495 7.95767 41.8298 2.95661 47.4872 2.86035H48.0122C53.2846 3.0835 57.5024 7.42825 57.7081 12.8494C57.9006 17.8942 58.1062 22.764 57.9662 25.4592C57.6731 31.0422 52.1557 31.5848 52.1557 31.5848C52.1557 31.5848 52.1557 33.6631 52.1557 35.3039C52.1702 36.1668 52.0133 37.024 51.6941 37.8259C51.375 38.6277 50.8999 39.3583 50.2964 39.9753C49.6928 40.5922 48.9729 41.0833 48.1783 41.42C47.3836 41.7567 46.5301 41.9324 45.667 41.9369L45.6539 41.9676Z" fill="#FFBF9D"/>
<path d="M52.157 31.6494C49.6408 31.5345 47.214 30.6825 45.1782 29.1992C45.1782 29.1992 46.7096 33.4696 52.1438 33.194L52.157 31.6494Z" fill="#FF9A6C"/>
<path d="M55.709 17.832C55.7034 18.0364 55.6195 18.2308 55.4745 18.375C55.3295 18.5192 55.1346 18.6021 54.9302 18.6065C54.8299 18.61 54.7299 18.5934 54.6362 18.5577C54.5424 18.522 54.4567 18.4679 54.3841 18.3986C54.3116 18.3293 54.2536 18.2462 54.2136 18.1541C54.1736 18.0621 54.1525 17.963 54.1514 17.8627C54.1537 17.6572 54.2366 17.4609 54.3823 17.316C54.528 17.1712 54.7247 17.0893 54.9302 17.0882C55.0303 17.0853 55.13 17.1023 55.2235 17.1382C55.3171 17.1741 55.4025 17.2283 55.475 17.2974C55.5474 17.3666 55.6054 17.4495 55.6456 17.5413C55.6858 17.633 55.7073 17.7319 55.709 17.832Z" fill="#263238"/>
<path d="M56.4581 15.2865C56.3574 15.3871 55.7886 14.9146 54.9529 14.884C54.1172 14.8533 53.4916 15.2515 53.4041 15.1421C53.3165 15.0327 53.4697 14.9102 53.741 14.7046C54.111 14.4643 54.5472 14.3465 54.9879 14.3677C55.4217 14.3799 55.8396 14.5335 56.1781 14.8052C56.4275 15.0502 56.5062 15.2384 56.4581 15.2865Z" fill="#263238"/>
<path d="M48.1358 17.8328C48.1324 18.0379 48.0491 18.2336 47.9037 18.3782C47.7582 18.5229 47.5621 18.605 47.357 18.6073C47.2568 18.609 47.1574 18.5909 47.0643 18.5539C46.9712 18.5169 46.8864 18.4618 46.8148 18.3918C46.7432 18.3218 46.6861 18.2383 46.647 18.1461C46.6079 18.0539 46.5875 17.9549 46.5869 17.8547C46.5903 17.6496 46.6736 17.454 46.819 17.3093C46.9645 17.1647 47.1606 17.0825 47.3657 17.0803C47.466 17.0779 47.5658 17.0957 47.6591 17.1325C47.7524 17.1692 47.8375 17.2243 47.9092 17.2944C47.981 17.3645 48.038 17.4483 48.0769 17.5407C48.1158 17.6332 48.1358 17.7325 48.1358 17.8328Z" fill="#263238"/>
<path d="M48.2749 15.1371C48.1742 15.2377 47.6011 14.7652 46.7697 14.7345C45.9384 14.7039 45.3084 15.1021 45.2209 14.9927C45.1333 14.8833 45.2821 14.7608 45.5578 14.5552C45.9278 14.3149 46.364 14.1971 46.8047 14.2182C47.2382 14.2321 47.6556 14.3855 47.9948 14.6558C48.2399 14.9008 48.323 15.0933 48.2749 15.1371Z" fill="#263238"/>
<path d="M51.0004 21.8577C51.4454 21.7358 51.9042 21.6711 52.3655 21.6652C52.5799 21.6652 52.8031 21.6171 52.8249 21.4683C52.8509 21.2427 52.8099 21.0144 52.7068 20.812C52.5274 20.2738 52.3393 19.7094 52.1468 19.1187C51.3636 16.7035 50.8341 14.7433 50.9042 14.6952C50.9742 14.6471 51.7092 16.5898 52.488 19.005C52.6762 19.6 52.8556 20.1644 53.0218 20.707C53.1503 20.9803 53.1782 21.2902 53.1006 21.5821C53.067 21.6567 53.0168 21.7227 52.9539 21.775C52.891 21.8273 52.8169 21.8646 52.7374 21.884C52.6186 21.9126 52.4965 21.9258 52.3743 21.9234C51.9154 21.9599 51.4537 21.9378 51.0004 21.8577Z" fill="#263238"/>
<path d="M48.6514 12.4688C48.5289 12.6832 47.7282 12.4163 46.7437 12.355C45.7592 12.2938 44.9323 12.4119 44.8404 12.18C44.801 12.0706 44.976 11.8825 45.3305 11.7424C45.7953 11.5446 46.3015 11.4635 46.805 11.5062C47.3087 11.535 47.7981 11.6851 48.2313 11.9437C48.5595 12.1494 48.7039 12.3638 48.6514 12.4688Z" fill="#263238"/>
<path d="M56.5991 12.7658C56.4197 12.9583 55.724 12.7352 54.9277 12.7045C54.1314 12.6739 53.4182 12.7964 53.2651 12.5864C53.1951 12.4858 53.3088 12.2932 53.6151 12.1182C54.0376 11.9066 54.5078 11.8087 54.9796 11.834C55.4515 11.8593 55.9086 12.007 56.306 12.2626C56.586 12.4683 56.6779 12.6739 56.5991 12.7658Z" fill="#263238"/>
<path d="M39.275 17.9241C39.1831 17.8803 35.5909 16.6334 35.5559 20.4531C35.5209 24.2728 39.2575 23.5158 39.2662 23.4152C39.275 23.3146 39.275 17.9241 39.275 17.9241Z" fill="#FFBF9D"/>
<path d="M38.1516 21.9536C38.1516 21.9536 38.0859 22.0017 37.9766 22.0499C37.8996 22.082 37.8171 22.0985 37.7337 22.0985C37.6504 22.0985 37.5678 22.082 37.4909 22.0499C37.1015 21.8967 36.7733 21.2535 36.7646 20.5622C36.7556 20.2357 36.8199 19.9112 36.9527 19.6128C36.9874 19.4949 37.0501 19.3872 37.1354 19.2988C37.2207 19.2104 37.3262 19.144 37.4428 19.1052C37.5182 19.0855 37.5983 19.0936 37.6682 19.1282C37.7382 19.1628 37.7933 19.2214 37.8234 19.2934C37.8759 19.3984 37.8497 19.4771 37.8715 19.4815C37.8934 19.4859 37.9503 19.4203 37.9197 19.2627C37.9027 19.1675 37.8513 19.0819 37.7753 19.0221C37.7271 18.9806 37.6704 18.95 37.6092 18.9327C37.548 18.9153 37.4837 18.9115 37.4209 18.9215C37.2667 18.9517 37.1229 19.0211 37.0034 19.123C36.8838 19.2249 36.7925 19.3559 36.7383 19.5034C36.5778 19.8344 36.4983 20.1988 36.5064 20.5666C36.5064 21.3367 36.9002 22.063 37.434 22.2293C37.5333 22.2591 37.6381 22.266 37.7405 22.2493C37.8428 22.2326 37.94 22.1929 38.0247 22.133C38.1428 22.0455 38.1647 21.9624 38.1516 21.9536Z" fill="#FF9A6C"/>
<path d="M41.944 8.38643C42.0308 7.89786 42.2495 7.44232 42.5765 7.06906C42.9035 6.69581 43.3263 6.41906 43.7992 6.26875C44.6142 5.9945 45.4982 6.0053 46.3063 6.29938C48.4021 7.0607 51.9943 8.20267 52.9087 7.47198C54.2476 6.42189 54.5714 5.72182 54.5714 5.72182L55.3108 6.52689C55.9102 6.18561 54.1076 4.18168 52.6287 3.49037C50.3973 2.44903 46.9888 1.80585 44.928 2.40528C42.4472 3.12722 40.3864 4.39171 39.1394 6.71504C37.9384 9.08681 37.373 11.7295 37.4986 14.3851C37.4986 15.1945 37.3717 17.5135 38.1505 17.6929C38.7587 17.8285 39.5332 18.0998 39.4894 19.2636C39.4591 19.6885 39.5974 20.1083 39.8744 20.4319C40.5526 21.1757 41.384 20.4756 41.769 19.7756C42.5872 18.2792 42.6791 16.494 42.7491 14.7789C42.8656 13.5623 42.7873 12.3349 42.5172 11.1429C42.2349 10.3846 42.034 9.59847 41.9177 8.79772C41.9121 8.66009 41.921 8.52224 41.944 8.38643Z" fill="#263238"/>
<path d="M51.1461 23.9229C51.168 23.9798 50.9973 24.1242 50.6517 24.1985C50.1932 24.2899 49.7172 24.2154 49.3084 23.9885C48.8983 23.7657 48.5771 23.409 48.3984 22.9778C48.2671 22.6497 48.289 22.4309 48.3502 22.4134C48.4115 22.3959 48.7571 23.1397 49.5403 23.5641C50.3235 23.9885 51.1111 23.796 51.1461 23.9229Z" fill="#043953" stroke="#043953" stroke-width="0.528068"/>
<path d="M55.027 74.8957L37.2542 70.9841L25.83 42.6797C25.83 42.6797 10.5643 46.0662 8.04847 54.6157C5.86078 61.9883 1.37163 94.5762 11.5925 114.664C12.8949 117.194 14.8714 119.315 17.3036 120.793C19.7357 122.271 22.5291 123.048 25.375 123.038H103.156C107.899 123.039 112.475 121.291 116.01 118.131C119.546 114.97 121.792 110.617 122.32 105.904C122.758 101.966 123.064 98.234 123.003 95.8013L110.516 86.2192L55.027 74.8957Z" fill="#455A64"/>
<g opacity="0.3">
<path opacity="0.3" d="M102.543 84.741C108.017 91.8904 114.676 98.3047 122.64 102.514L123.02 92.8092L108.31 82.3389L102.543 84.741Z" fill="black"/>
</g>
<path d="M43.8404 37.176C43.8404 37.6923 47.8832 39.3637 49.7077 38.6287C52.4905 37.5173 52.1448 35.334 52.1448 35.334L53.6894 36.9616L69.1651 60.545L80.668 68.1363L62.2564 73.9687L42.9521 51.7942L43.8404 37.176Z" fill="#F5F5F5"/>
<path d="M38.9611 29.2607L38.5542 30.0221L36.7166 33.448L29.0728 38.3222L44.7935 57.0095L51.9648 73.9685L69.1601 79.3502C69.1601 79.3502 60.9781 66.771 58.436 60.3391C55.8939 53.9073 55.6357 54.2136 53.3168 49.4969C51.7404 46.174 50.3384 42.7712 49.1164 39.3023L38.9611 29.2607Z" fill="#01818C"/>
<path d="M75.7936 62.9295L79.167 66.0755L80.1208 68.0181L67.581 62.1857L58.5283 49.4971C58.5283 49.4971 55.3036 42.3433 54.1966 39.7794C53.0284 37.0841 52.1577 35.5571 52.1577 35.5571V33.4307L56.7212 37.5523L60.5322 38.6855L66.9028 48.7489L75.7936 62.9295Z" fill="#01818C"/>
<path d="M71.9302 51.0635C71.9302 51.0635 70.4075 47.817 69.1649 45.1173C66.3647 39.0356 59.7622 38.458 59.7622 38.458L67.0604 58.6985L75.9993 65.0385C75.9993 65.0385 78.5457 65.9136 78.8652 65.0385C78.8652 65.0385 80.7247 58.3267 80.6678 58.3004C80.6109 58.2741 74.306 56.3883 74.306 56.3883L71.7683 50.7003" fill="#01818C"/>
<path d="M85.3736 44.7454L76.6885 59.2148L85.7849 58.9479L93.805 45.5418C93.8755 45.4242 93.9135 45.29 93.9151 45.1529C93.9168 45.0158 93.882 44.8808 93.8144 44.7615C93.7468 44.6423 93.6487 44.5431 93.5302 44.4742C93.4117 44.4052 93.277 44.369 93.1399 44.3691H86.0387C85.9048 44.369 85.7731 44.4036 85.6565 44.4696C85.54 44.5355 85.4425 44.6306 85.3736 44.7454Z" fill="#263238"/>
<path d="M51.9634 61.1094L73.7047 58.5235L77.3581 52.1223L80.2196 50.5516C80.4569 50.4204 80.7267 50.3598 80.9972 50.3768C81.2677 50.3939 81.5278 50.4879 81.7467 50.6478L82.0179 50.8447L84.14 50.5778C84.5017 50.5304 84.8689 50.6027 85.1857 50.7835L86.6908 51.6586C86.7993 51.7222 86.8894 51.8129 86.9523 51.9218C87.0152 52.0307 87.0487 52.1541 87.0496 52.2799C87.0495 52.3857 87.026 52.4902 86.981 52.586C86.936 52.6818 86.8704 52.7665 86.789 52.8341C86.7076 52.9017 86.6123 52.9506 86.5099 52.9773C86.4075 53.004 86.3005 53.0079 86.1964 52.9887L84.735 52.7218L82.4948 53.4525C82.4948 53.4525 83.9387 53.6056 84.1225 54.6995C84.3063 55.7933 83.5756 55.8196 83.5756 55.8196C83.5756 55.8196 85.0938 56.6946 84.0131 58.0073C84.0131 58.0073 85.282 58.8517 83.86 60.4531C82.9018 61.5382 75.9843 65.0735 75.9843 65.0735L51.9634 73.9687V61.1094Z" fill="#FFBF9D"/>
<path d="M83.9784 57.999C83.9784 57.999 84.1403 57.999 84.3328 58.1959C84.458 58.341 84.5448 58.5151 84.5853 58.7024C84.6258 58.8896 84.6187 59.0841 84.5647 59.2679C84.3745 59.7881 84.0517 60.2496 83.6284 60.6068C83.156 61.0693 82.6452 61.4909 82.1014 61.8669C81.1078 62.5329 80.0581 63.1112 78.9642 63.5951C78.5259 63.8224 78.0675 64.0084 77.5947 64.1508C78.0161 63.8883 78.4546 63.6544 78.9073 63.4508C79.9674 62.9305 80.9907 62.3385 81.9701 61.6787C82.5062 61.3108 83.0124 60.9012 83.484 60.4536C83.89 60.1277 84.2075 59.7049 84.4072 59.2241C84.4625 59.0627 84.4787 58.8905 84.4543 58.7216C84.43 58.5527 84.3659 58.392 84.2672 58.2528C84.1832 58.1552 84.086 58.0698 83.9784 57.999Z" fill="#FF9A6C"/>
<path d="M81.9404 50.9013C81.6082 51.1063 81.2399 51.2459 80.8553 51.3126C80.489 51.4494 80.0999 51.5147 79.709 51.5051C80.0403 51.2984 80.409 51.1587 80.7941 51.0938C81.1604 50.9571 81.5495 50.8917 81.9404 50.9013Z" fill="#FF9A6C"/>
<path d="M84.7399 52.7041C84.2667 52.9776 83.759 53.1866 83.2304 53.3254C82.7233 53.5322 82.1905 53.6691 81.6465 53.7323C82.1176 53.4547 82.6259 53.2455 83.156 53.111C83.6622 52.9017 84.1954 52.7647 84.7399 52.7041Z" fill="#FF9A6C"/>
<path d="M82.1541 55.6043C82.0885 55.6043 82.0579 55.4074 81.9835 55.193C81.9091 54.9786 81.8216 54.8123 81.8697 54.7555C81.9179 54.6986 82.1104 54.843 82.1979 55.1099C82.2854 55.3768 82.1935 55.613 82.1541 55.6043Z" fill="#FF9A6C"/>
<path d="M82.8766 58.116C82.811 58.116 82.8373 57.7878 82.7454 57.4334C82.6535 57.079 82.496 56.8077 82.5441 56.764C82.5922 56.7202 82.8635 56.9565 82.9816 57.3765C83.0998 57.7966 82.9335 58.116 82.8766 58.116Z" fill="#FF9A6C"/>
<path d="M29.6856 37.9326C28.9593 38.3702 22.8119 42.5705 23.7088 49.4486C24.6058 56.3268 38.2132 71.8769 41.0529 72.1744L51.9694 73.9683V61.1091L46.719 60.8115L39.8584 47.3528L29.6856 37.9326Z" fill="#01818C"/>
<path d="M51.9631 60.4872C51.8346 60.5108 51.7043 60.5225 51.5737 60.5222L50.4711 60.566L46.5595 60.6535H46.507L46.472 60.6097L43.7067 56.8907C42.0572 54.6636 40.5783 52.6378 39.5151 51.1633L38.2681 49.4131C38.1043 49.2038 37.9579 48.9814 37.8306 48.748C38.0153 48.9372 38.185 49.1406 38.3381 49.3562L39.6507 51.0626C40.749 52.5065 42.276 54.5192 43.8992 56.7506L46.6426 60.4828L46.5551 60.4391H50.4667H51.5693C51.702 60.4388 51.8343 60.455 51.9631 60.4872Z" fill="#263238"/>
<path d="M49.312 40.9819C49.2297 40.8584 49.158 40.7281 49.0976 40.5925L48.5595 39.4636H48.6776C48.2804 40.0412 47.9279 40.6482 47.6231 41.2794C47.2372 42.1197 46.779 42.9249 46.2536 43.6859L46.1661 43.8084L46.0742 43.6903C45.3654 42.8152 44.556 41.892 43.6853 40.9425C41.782 38.873 39.9618 37.0791 38.6623 35.7665L37.1266 34.2044C36.9324 34.0212 36.7539 33.8222 36.5928 33.6094C36.8073 33.7702 37.0091 33.9472 37.1966 34.1388L38.7848 35.6439C40.0975 36.9259 41.957 38.7067 43.869 40.7763C44.7441 41.7301 45.5492 42.6664 46.2536 43.5459H46.0699C46.5922 42.7959 47.0545 42.0059 47.4525 41.1832C47.7712 40.5495 48.1445 39.9449 48.5682 39.3761L48.6382 39.2799L48.682 39.3849C48.8789 39.8574 49.0408 40.2381 49.1633 40.54C49.2316 40.6803 49.2815 40.8288 49.312 40.9819Z" fill="#263238"/>
<path d="M56.7765 37.6926C56.9224 37.8879 57.0334 38.107 57.1046 38.3402C57.3288 38.9315 57.5201 39.5348 57.6778 40.1472L57.8266 40.681L57.4853 40.2435C56.997 39.6377 56.4615 39.0715 55.8839 38.5502C55.3763 38.0864 54.8819 37.6751 54.4313 37.2638L54.615 37.1938C54.5517 37.911 54.5298 38.6312 54.5494 39.3509C54.566 39.6367 54.5289 39.9231 54.44 40.1953C54.4138 40.1953 54.44 39.8847 54.4094 39.3553C54.3525 38.6271 54.3525 37.8957 54.4094 37.1676L54.4313 36.9619L54.5931 37.0976C55.0307 37.4782 55.5557 37.9026 56.0676 38.3752C56.6572 38.9076 57.1962 39.4935 57.6778 40.1253L57.4853 40.2172C57.2971 39.4603 57.144 38.8302 57.004 38.397C56.9115 38.1679 56.8354 37.9325 56.7765 37.6926Z" fill="#263238"/>
<path d="M72.568 58.6596C72.3815 58.5138 72.2074 58.3528 72.0473 58.1783L70.7041 56.8045C70.1397 56.2138 69.4702 55.5531 68.7352 54.7349C68.3983 54.2974 68.1007 53.8292 67.7507 53.3698C67.3955 52.8734 67.0906 52.3428 66.8406 51.7859C66.32 50.657 65.9262 49.5413 65.5718 48.5306C65.2174 47.5199 64.9067 46.6054 64.6223 45.8529C64.3379 45.1003 64.0754 44.4965 63.8741 44.1027C63.7556 43.8997 63.6503 43.6893 63.5591 43.4727C63.5591 43.4727 63.6072 43.5164 63.6728 43.6127C63.7766 43.7525 63.8716 43.8986 63.9572 44.0502C64.2711 44.6148 64.5473 45.1994 64.7842 45.8004C65.0948 46.5529 65.423 47.4586 65.7862 48.465C66.1493 49.4713 66.5475 50.5783 67.0638 51.694C67.3061 52.2353 67.5991 52.7525 67.9388 53.2385C68.2933 53.7067 68.5908 54.1924 68.9102 54.608C69.5971 55.3912 70.2841 56.1 70.8222 56.6951L72.113 58.1171C72.2798 58.2847 72.432 58.4662 72.568 58.6596Z" fill="#263238"/>
<path d="M78.877 65.9179L120.146 64.7585C120.799 64.7412 121.449 64.8619 122.053 65.1129C123.554 65.7517 126.254 67.3924 128.104 71.3215C130.787 77.0096 143.3 101.074 143.3 101.074L130.647 107.559L115.127 78.7685L67.2778 74.6993L67.8335 70.8753L78.877 65.9179Z" fill="#263238"/>
<path d="M126.889 102.488L133.483 113.807L133.92 116.668C133.984 117.085 134.129 117.484 134.347 117.844C134.565 118.204 134.852 118.518 135.191 118.767C135.53 119.016 135.916 119.196 136.324 119.296C136.733 119.396 137.158 119.415 137.574 119.351L157.644 116.288C157.881 116.256 158.108 116.171 158.306 116.038C158.505 115.905 158.671 115.728 158.791 115.521C158.91 115.313 158.981 115.082 158.997 114.843C159.012 114.604 158.973 114.365 158.882 114.144C158.796 113.948 158.664 113.775 158.499 113.64C158.333 113.505 158.137 113.41 157.928 113.365C156.248 112.927 143.297 108.18 143.297 108.18L137.898 97.3467L126.889 102.488Z" fill="#E0E0E0"/>
<path d="M132.414 105.109C131.863 104.551 131.366 103.941 130.93 103.289C130.429 102.682 129.989 102.027 129.618 101.333C130.166 101.892 130.662 102.502 131.097 103.153C131.598 103.761 132.039 104.416 132.414 105.109Z" fill="#263238"/>
<path d="M136.352 103.525C135.799 102.961 135.333 102.318 134.969 101.617C134.541 100.954 134.211 100.232 133.989 99.4734C134.051 99.4428 134.514 100.388 135.166 101.504C135.818 102.619 136.409 103.486 136.352 103.525Z" fill="#263238"/>
<path d="M139.106 118.988C139.062 118.988 138.957 118.598 138.668 118.007C138.282 117.241 137.731 116.57 137.056 116.04C136.381 115.511 135.597 115.137 134.761 114.945C134.118 114.792 133.702 114.787 133.702 114.743C134.064 114.661 134.439 114.661 134.8 114.743C135.685 114.892 136.518 115.261 137.224 115.815C137.929 116.369 138.485 117.091 138.839 117.916C139.004 118.249 139.095 118.615 139.106 118.988Z" fill="#263238"/>
<path d="M152.63 117.041C152.464 116.821 152.354 116.564 152.311 116.292C152.152 115.639 152.186 114.954 152.407 114.319C152.635 113.696 152.991 113.128 153.453 112.652C153.623 112.438 153.834 112.259 154.074 112.127C154.1 112.158 153.894 112.389 153.593 112.775C153.197 113.266 152.881 113.817 152.656 114.407C152.455 115 152.399 115.633 152.494 116.253C152.56 116.512 152.605 116.775 152.63 117.041Z" fill="#263238"/>
<path d="M66.2402 71.5481C66.2402 71.5481 108.826 67.2777 110.895 67.4483C114.715 67.7634 121.759 73.7883 134.26 82.1803C140.737 86.5817 146.747 91.6322 152.199 97.2535L148.204 106.372C148.204 106.372 120.202 96.164 115.805 92.4931C112.155 89.4303 105.496 85.0987 105.496 85.0987L89.0709 85.2649L76.8592 86.3413C73.847 86.6079 70.8163 86.1087 68.0486 84.8902C65.281 83.6716 62.8664 81.7731 61.0291 79.3713L56.2905 73.1801L66.2402 71.5481Z" fill="#263238"/>
<path d="M105.292 84.9727C105.292 84.9727 105.362 85.0121 105.489 85.0996L106.062 85.4934L108.272 87.0466C110.192 88.4161 113.01 90.385 116.467 92.9971C116.685 93.159 116.904 93.3472 117.123 93.4916L117.827 93.9291C118.335 94.1829 118.842 94.4629 119.381 94.7123L121.026 95.478L122.776 96.2437C125.142 97.2675 127.692 98.3351 130.429 99.4465C135.889 101.665 142.015 104.076 148.626 106.618L148.481 106.683L152.1 97.495L152.126 97.6263L147.156 92.5596C145.987 91.5489 144.736 90.4725 143.458 89.4093C135.838 83.1293 127.868 77.2861 119.586 71.9078C118.465 70.9477 117.255 70.0965 115.972 69.3657C114.755 68.6565 113.458 68.0926 112.109 67.6855C111.776 67.598 111.444 67.528 111.116 67.4449L110.122 67.2917L109.129 67.2392H104.316L91.4569 67.213L83.1087 67.178H80.921H80.3522C80.2881 67.1818 80.2238 67.1818 80.1597 67.178H80.3522H80.921H83.1087L91.4569 67.1474L104.316 67.1211H109.129L110.14 67.1692L111.155 67.3224C111.487 67.4055 111.824 67.4755 112.161 67.5674C113.528 67.973 114.841 68.5399 116.073 69.2563C117.372 69.9908 118.597 70.8495 119.731 71.8203C128.029 77.191 136.011 83.0345 143.638 89.3218C144.92 90.385 146.171 91.4614 147.339 92.4765L152.31 97.5476L152.362 97.6044L152.336 97.6788L148.705 106.867L148.665 106.972L148.56 106.933C141.949 104.382 135.823 101.958 130.367 99.7265C127.641 98.6108 125.086 97.5388 122.723 96.5018L120.973 95.7274L119.311 94.8698C118.777 94.6117 118.265 94.3316 117.757 94.0735L117.035 93.636C116.799 93.4916 116.598 93.3034 116.379 93.1415C112.94 90.5163 110.131 88.5255 108.228 87.1341L106.04 85.5546L105.48 85.1433C105.344 85.0252 105.292 84.9727 105.292 84.9727Z" fill="#455A64"/>
<path d="M139.147 104.059L150.961 108.701L152.926 110.827C153.212 111.137 153.556 111.386 153.939 111.563C154.321 111.739 154.735 111.838 155.156 111.854C155.577 111.87 155.997 111.803 156.392 111.657C156.787 111.511 157.149 111.289 157.458 111.002L172.361 97.2113C172.54 97.0519 172.679 96.8537 172.769 96.632C172.859 96.4103 172.897 96.1709 172.88 95.9323C172.863 95.6936 172.792 95.4619 172.672 95.2551C172.551 95.0483 172.385 94.8718 172.186 94.7392C172.005 94.6264 171.799 94.5577 171.586 94.5387C171.374 94.5197 171.159 94.5509 170.961 94.6298C169.329 95.2161 155.936 98.5282 155.936 98.5282L146.953 91.3701L139.147 104.059Z" fill="#E0E0E0"/>
<path d="M139.147 104.059C139.147 104.059 139.187 103.984 139.274 103.836L139.672 103.179C140.027 102.589 140.548 101.735 141.208 100.642C142.556 98.4232 144.499 95.2379 146.896 91.3263L146.944 91.2432L147.023 91.3044L156.006 98.4451H155.914L163.903 96.4324L168.126 95.3342C168.839 95.1416 169.561 94.9535 170.278 94.7435L170.812 94.5772C170.998 94.506 171.192 94.4604 171.39 94.4416C171.596 94.4331 171.801 94.4677 171.994 94.543C172.186 94.6184 172.36 94.7328 172.505 94.8791C172.79 95.1639 172.963 95.5414 172.993 95.9429C173.022 96.3444 172.907 96.7433 172.667 97.0668C172.548 97.2254 172.413 97.3719 172.265 97.5043L171.858 97.8806L171.048 98.6288L167.872 101.565L161.864 107.113L159.069 109.694L157.73 110.932C157.512 111.143 157.275 111.332 157.021 111.497C156.398 111.879 155.666 112.044 154.94 111.964C154.214 111.885 153.534 111.567 153.009 111.059C152.256 110.276 151.574 109.51 150.904 108.788H150.935C147.29 107.336 144.341 106.163 142.289 105.341L139.961 104.4L139.357 104.155L139.161 104.072C139.161 104.072 139.239 104.094 139.384 104.151L140.001 104.382L142.363 105.293L150.992 108.64C151.665 109.357 152.361 110.127 153.096 110.893C153.491 111.269 153.977 111.536 154.507 111.666C155.037 111.795 155.591 111.784 156.115 111.632C156.388 111.554 156.649 111.437 156.89 111.287C157.132 111.127 157.358 110.944 157.563 110.74C158.001 110.333 158.439 109.917 158.902 109.502C159.807 108.662 160.737 107.798 161.694 106.911C163.602 105.161 165.61 103.28 167.692 101.355C168.731 100.389 169.788 99.4091 170.865 98.4144L171.674 97.6662C171.949 97.4281 172.209 97.1739 172.453 96.9049C172.661 96.6249 172.763 96.2795 172.739 95.9312C172.715 95.5828 172.567 95.2546 172.322 95.006C172.197 94.8832 172.048 94.7878 171.885 94.726C171.721 94.6642 171.547 94.6374 171.372 94.6472C171.195 94.665 171.021 94.7078 170.856 94.7741L170.309 94.9404C169.587 95.1504 168.869 95.3385 168.152 95.5311L163.925 96.6249L155.936 98.6244H155.883L155.844 98.5938L146.909 91.4357H147.036L141.309 100.65L139.721 103.184L139.283 103.844C139.204 103.976 139.147 104.059 139.147 104.059Z" fill="#263238"/>
<path d="M158.509 109.843C158.478 109.873 158.167 109.602 157.585 109.282C156.837 108.863 156.005 108.613 155.148 108.552C154.292 108.491 153.433 108.619 152.632 108.928C152.015 109.16 151.665 109.387 151.639 109.366C151.9 109.102 152.215 108.898 152.562 108.766C153.378 108.395 154.275 108.234 155.169 108.298C156.063 108.362 156.927 108.649 157.682 109.134C158.007 109.305 158.29 109.547 158.509 109.843Z" fill="#263238"/>
<path d="M168.625 100.658C168.366 100.567 168.131 100.417 167.938 100.221C167.444 99.7672 167.09 99.181 166.919 98.5319C166.759 97.8876 166.735 97.2171 166.849 96.563C166.869 96.2908 166.945 96.0257 167.072 95.7842C167.094 96.0515 167.082 96.3205 167.037 96.5849C166.98 97.2138 167.026 97.8477 167.173 98.4619C167.338 99.0678 167.647 99.6247 168.074 100.085C168.402 100.435 168.651 100.619 168.625 100.658Z" fill="#263238"/>
<path d="M98.0501 84.9782C97.1356 80.6422 95.2673 76.2055 91.5701 73.7684C88.7655 71.9133 85.2958 71.4582 81.9443 71.0469L12.1743 62.4668C11.5486 73.4621 16.2566 87.1484 21.0607 97.063C21.8046 98.6031 22.6665 100.178 24.0929 101.119C25.843 102.265 28.0657 102.252 30.1484 102.2C53.6224 101.6 77.1051 100.603 100.448 98.0343C99.1352 93.8033 98.9602 89.3098 98.0501 84.9782Z" fill="#455A64"/>
<path d="M37.8455 65.6203C37.5704 65.6237 37.2954 65.6061 37.0229 65.5678L34.7915 65.3271C32.9101 65.1084 30.3154 64.7889 27.4539 64.3952C24.5924 64.0014 22.0022 63.6032 20.1383 63.2751C19.202 63.1088 18.4494 62.9732 17.9506 62.8375C17.6791 62.7922 17.4114 62.7264 17.1499 62.6406C17.4248 62.6535 17.6983 62.6871 17.9681 62.7413L20.182 63.0825C22.0547 63.3626 24.6406 63.7345 27.5021 64.1283L34.8308 65.1302L37.0535 65.4496C37.3216 65.4857 37.5864 65.5427 37.8455 65.6203Z" fill="#263238"/>
<path d="M38.2023 123.016C38.1749 122.974 38.1514 122.928 38.1323 122.881C38.0798 122.78 38.0186 122.645 37.9398 122.478L37.231 120.916L36.7191 119.809C36.5441 119.372 36.3734 118.934 36.1765 118.435C35.8002 117.451 35.3277 116.34 34.9252 115.066C34.7152 114.436 34.4876 113.776 34.2645 113.084C34.0413 112.393 33.8269 111.658 33.6301 110.897C33.1925 109.396 32.8162 107.759 32.4137 106.044C30.7903 98.5588 30.2583 90.8777 30.8342 83.2398C30.9961 81.4897 31.123 79.8183 31.368 78.2694C31.4861 77.4949 31.5649 76.7424 31.6961 76.0248C31.8274 75.3072 31.9587 74.6247 32.0812 73.9684C32.3043 72.6558 32.6193 71.4875 32.8556 70.4681C32.9825 69.9518 33.0875 69.4748 33.2056 69.0373C33.3238 68.5998 33.4507 68.206 33.5557 67.8472C33.7613 67.1428 33.9276 66.5915 34.0413 66.2021L34.177 65.7645C34.1894 65.7147 34.207 65.6663 34.2295 65.6201C34.2262 65.6709 34.2159 65.7209 34.1989 65.7689L34.0895 66.2064L33.6519 67.8603L33.3238 69.0548C33.2144 69.4923 33.1138 69.978 32.9956 70.4899C32.7681 71.5225 32.4662 72.6776 32.2562 73.9902C32.1424 74.6422 32.0155 75.3291 31.8887 76.0423C31.7618 76.7555 31.6874 77.5081 31.578 78.2825C31.3374 79.827 31.2192 81.494 31.0617 83.2442C30.5212 90.8645 31.0514 98.523 32.6368 105.996C33.035 107.707 33.3807 109.343 33.8313 110.84C34.0457 111.592 34.2251 112.323 34.4483 113.027C34.6714 113.732 34.8858 114.379 35.0958 115.01C35.4852 116.283 35.9446 117.394 36.3078 118.387C36.5003 118.882 36.6622 119.346 36.8328 119.766L37.3229 120.899L37.9879 122.478L38.1586 122.894C38.1774 122.933 38.1921 122.974 38.2023 123.016Z" fill="#263238"/>
<path d="M37.4648 100.847C36.5522 100.93 35.634 100.93 34.7214 100.847C33.8028 100.846 32.8861 100.762 31.9824 100.597C32.8966 100.517 33.816 100.517 34.7302 100.597C35.6473 100.6 36.5623 100.684 37.4648 100.847Z" fill="#263238"/>
<path d="M36.8296 104.058C35.8553 103.973 34.9025 103.723 34.0118 103.318C33.0904 102.99 32.232 102.506 31.4741 101.888C31.5135 101.826 32.6248 102.496 34.0994 103.091C35.5739 103.686 36.8427 103.962 36.8296 104.058Z" fill="#263238"/>
<path d="M30.7157 82.1291C30.1703 82.4717 29.5437 82.6635 28.8999 82.6848C28.2635 82.7842 27.6121 82.7163 27.0098 82.4879C27.0098 82.4135 27.8542 82.5404 28.8781 82.4398C29.9019 82.3391 30.6895 82.0635 30.7157 82.1291Z" fill="#263238"/>
<path d="M32.1137 81.0788C31.4362 81.2201 30.7308 81.1308 30.1098 80.825C29.4569 80.5938 28.9016 80.148 28.5347 79.5605C29.0575 79.9587 29.6172 80.3059 30.2061 80.5975C31.2037 81.0307 32.1137 81.0001 32.1137 81.0788Z" fill="#263238"/>
<path d="M56.6803 6.1201C56.5063 5.66645 56.2259 5.2612 55.8627 4.93838C55.4996 4.61557 55.0642 4.38462 54.5933 4.26494C53.6456 4.03038 52.6511 4.06677 51.723 4.36995L42.6572 6.44388C43.9698 7.31896 46.6695 8.14153 48.2183 8.3078C50.4804 8.54844 52.0731 8.57032 53.4207 7.7915C53.5084 8.01496 53.6424 8.21729 53.814 8.38514C53.9856 8.55298 54.1909 8.68252 54.4162 8.76522C54.6416 8.84792 54.8819 8.88189 55.1213 8.86488C55.3608 8.84788 55.5939 8.78029 55.8053 8.66658C56.2142 8.40047 56.5224 8.00531 56.681 7.54391C56.8395 7.08251 56.8393 6.58136 56.6803 6.1201Z" fill="#263238"/>
<path d="M147.255 101.223C145.412 100.841 143.641 100.174 142.004 99.2453C142.031 99.1841 143.186 99.6829 144.63 100.225C146.074 100.768 147.272 101.162 147.255 101.223Z" fill="#263238"/>
<path d="M149.251 97.3462C148.458 97.0198 147.683 96.6532 146.927 96.248C146.139 95.9132 145.369 95.5364 144.622 95.1191C145.458 95.3273 146.267 95.6374 147.028 96.0423C147.821 96.3806 148.568 96.8188 149.251 97.3462Z" fill="#263238"/>
<path d="M77.0391 69.891L95.3151 70.1141L117.385 65.7387C117.731 65.6662 118.048 65.4902 118.292 65.2339C118.537 64.9777 118.698 64.6533 118.754 64.3036L121.756 44.4306C121.79 44.2025 121.769 43.9696 121.696 43.7508C121.623 43.532 121.5 43.3336 121.335 43.1716C121.171 43.0096 120.971 42.8886 120.752 42.8184C120.532 42.7483 120.299 42.731 120.071 42.7679L97.5159 46.4389C97.2034 46.4901 96.9157 46.6408 96.6957 46.8686C96.4758 47.0965 96.3353 47.3892 96.2952 47.7034L93.7793 67.9133L77.0653 67.8302C76.7922 67.8302 76.5302 67.9384 76.3367 68.1311C76.1432 68.3238 76.0339 68.5853 76.0327 68.8584C76.0315 69.1281 76.1363 69.3875 76.3246 69.5806C76.5128 69.7738 76.7694 69.8852 77.0391 69.891Z" fill="#E0E0E0"/>
<path d="M77.0398 69.8907C76.9217 69.8993 76.8032 69.8798 76.6941 69.8338C76.5286 69.7743 76.3811 69.6735 76.2655 69.5411C76.1499 69.4086 76.07 69.2488 76.0334 69.0768C76.0038 68.936 76.0032 68.7906 76.0316 68.6495C76.0601 68.5085 76.117 68.3747 76.1989 68.2563C76.2808 68.138 76.386 68.0376 76.508 67.9612C76.63 67.8849 76.7663 67.8342 76.9085 67.8124C77.5779 67.7861 78.3349 67.8124 79.2012 67.8124L93.7756 67.8473L93.6969 67.9174C94.4144 62.1025 95.2676 55.2287 96.2083 47.5806C96.2629 47.3253 96.3798 47.0874 96.5485 46.8882C96.7172 46.6889 96.9325 46.5345 97.1753 46.4386C97.4142 46.3617 97.6606 46.3104 97.9104 46.2854L98.6367 46.1629L101.581 45.686L107.65 44.6928L113.937 43.6777L117.149 43.157L118.772 42.8901L119.586 42.7589C119.865 42.6983 120.149 42.6675 120.435 42.667C120.747 42.6941 121.045 42.8127 121.29 43.0081C121.535 43.2035 121.717 43.4668 121.813 43.7652C121.896 44.0604 121.905 44.3714 121.839 44.6709L121.708 45.5197C121.539 46.6515 121.37 47.776 121.201 48.8932C120.864 51.1202 120.531 53.3211 120.203 55.4781C119.875 57.6352 119.555 59.7485 119.245 61.8224L119.008 63.3626C118.969 63.6207 118.934 63.8745 118.895 64.1283C118.87 64.3971 118.797 64.6593 118.68 64.9027C118.557 65.144 118.383 65.355 118.169 65.5207C117.955 65.6863 117.706 65.8025 117.442 65.8609L115.963 66.1541L95.3333 70.2144L81.9358 70.0176L78.3174 69.9519L77.3417 69.93H77.0223H77.3417H78.2824L81.9052 69.9519L95.3026 70.0788L115.924 65.9659L117.398 65.6684C117.632 65.6177 117.851 65.5156 118.04 65.3695C118.23 65.2234 118.384 65.0371 118.492 64.824C118.599 64.6015 118.662 64.3611 118.68 64.1151L118.798 63.3495C118.873 62.8375 118.952 62.3212 119.03 61.8049L119.984 55.4606C120.308 53.305 120.639 51.1173 120.977 48.8975C121.144 47.7833 121.313 46.6588 121.485 45.5241L121.612 44.6753C121.68 44.4127 121.68 44.1372 121.612 43.8746C121.531 43.619 121.375 43.3932 121.166 43.2258C120.956 43.0583 120.702 42.9568 120.435 42.9339C120.169 42.9362 119.903 42.9655 119.643 43.0214L118.825 43.157L117.206 43.4196L113.99 43.9402L107.707 44.9641L101.638 45.9485L98.6936 46.4254L97.9673 46.5436C97.7309 46.5667 97.4976 46.6151 97.2716 46.688C97.0618 46.7696 96.8758 46.9024 96.7306 47.0744C96.5854 47.2464 96.4856 47.452 96.4402 47.6724C95.4776 55.2944 94.6113 62.1768 93.8806 67.9874V68.0574H93.8063L79.2318 67.9524C78.3568 67.9524 77.5998 67.9261 76.9479 67.9524C76.8006 67.9727 76.6598 68.0257 76.5356 68.1074C76.4115 68.1892 76.3072 68.2977 76.2303 68.4249C76.1546 68.5504 76.1072 68.6908 76.0914 68.8365C76.0756 68.9822 76.0918 69.1296 76.1389 69.2683C76.186 69.4071 76.2628 69.5339 76.364 69.6399C76.4652 69.7458 76.5883 69.8285 76.7247 69.8819C76.829 69.8972 76.9348 69.9002 77.0398 69.8907Z" fill="#263238"/>
<path d="M98.2474 47.0772C98.3086 47.0772 97.7048 52.3583 96.8954 58.8601C96.0859 65.3619 95.3815 70.6255 95.3159 70.6168C95.2502 70.608 95.8628 65.3357 96.6722 58.8338C97.4817 52.332 98.1861 47.0684 98.2474 47.0772Z" fill="#263238"/>
<path d="M108.057 55.2816C107.597 56.2398 107.851 57.3161 108.621 57.688C109.391 58.0599 110.371 57.5786 110.848 56.6204C111.325 55.6622 111.054 54.5859 110.284 54.2183C109.514 53.8508 108.516 54.3233 108.057 55.2816Z" fill="white"/>
<path d="M116.365 12.8106H74.2824C73.7022 12.8106 73.1458 13.041 72.7355 13.4513C72.3252 13.8616 72.0947 14.418 72.0947 14.9982V34.1712C72.0947 34.7514 72.3252 35.3079 72.7355 35.7181C73.1458 36.1284 73.7022 36.3589 74.2824 36.3589H91.9371L95.6868 41.1718L98.8152 36.3589H116.369C116.95 36.3589 117.506 36.1284 117.916 35.7181C118.326 35.3079 118.557 34.7514 118.557 34.1712V15.0026C118.558 14.7146 118.501 14.4293 118.391 14.1631C118.281 13.8969 118.12 13.655 117.916 13.4513C117.713 13.2476 117.471 13.0862 117.204 12.9762C116.938 12.8663 116.653 12.81 116.365 12.8106Z" fill="white"/>
<path d="M116.364 12.8101H116.574C116.78 12.8254 116.982 12.8711 117.174 12.9457C117.489 13.0653 117.772 13.2571 118.001 13.5058C118.321 13.8504 118.522 14.2892 118.574 14.7572C118.613 16.8442 118.604 19.8807 118.617 23.7267C118.617 25.6475 118.617 27.7739 118.617 30.0754C118.617 31.2261 118.617 32.425 118.617 33.6632C118.631 33.9818 118.616 34.301 118.574 34.6171C118.51 34.9421 118.374 35.2486 118.176 35.514C117.976 35.7888 117.716 36.0151 117.417 36.1764C117.118 36.3377 116.787 36.4298 116.447 36.446H98.7882L98.8757 36.3978L95.7517 41.2108L95.6685 41.3376L95.5767 41.2195L91.8226 36.4066L91.9101 36.4503H74.9336C74.6273 36.4503 74.3385 36.4503 74.0147 36.4503C73.5399 36.396 73.0937 36.1954 72.7378 35.8764C72.382 35.5574 72.134 35.1356 72.0283 34.6696C71.9752 34.3678 71.9561 34.0611 71.9714 33.7551V32.88C71.9714 30.5027 71.9714 28.1692 71.9714 25.8794V19.0932C71.9714 17.9847 71.9714 16.8909 71.9714 15.8116V15.0022C71.9717 14.5805 72.0882 14.1671 72.3082 13.8074C72.5282 13.4477 72.8432 13.1556 73.2184 12.9633C73.464 12.8354 73.7309 12.7539 74.006 12.7226C74.2816 12.6964 74.5354 12.7226 74.7979 12.7226H79.4008H85.2201H95.6729L110.807 12.7576L114.92 12.7795H115.992H116.355H115.992H114.92L110.807 12.8014L95.6729 12.8364H85.2201H74.8067C74.5485 12.8364 74.2816 12.8364 74.0366 12.8364C73.7871 12.863 73.5449 12.9372 73.3234 13.0551C72.9838 13.2307 72.6989 13.4961 72.4998 13.8225C72.3008 14.1488 72.1952 14.5236 72.1946 14.9059V18.9969C72.1946 21.2065 72.1946 23.4686 72.1946 25.7656V33.672C72.1801 33.9647 72.1977 34.2581 72.2471 34.547C72.3113 34.825 72.4317 35.0867 72.6011 35.3163C72.7704 35.5458 72.985 35.7382 73.2315 35.8815C73.4779 36.0267 73.7523 36.1177 74.0366 36.1484C74.3166 36.1747 74.6317 36.1484 74.9117 36.1484H91.9757L92.0063 36.1922L95.756 41.0051H95.581L98.7094 36.1922L98.74 36.1441H98.7969H116.447C116.916 36.1234 117.364 35.9468 117.721 35.6425C118.077 35.3381 118.322 34.9233 118.416 34.4639C118.457 34.158 118.472 33.8491 118.46 33.5407C118.46 32.3025 118.46 31.1036 118.46 29.9529C118.46 27.6514 118.46 25.525 118.46 23.6042C118.46 19.7626 118.491 16.713 118.46 14.639C118.417 14.2478 118.269 13.8754 118.032 13.5612C117.794 13.247 117.477 13.0027 117.112 12.8539C116.866 12.8036 116.614 12.7888 116.364 12.8101Z" fill="#263238"/>
<path d="M84.1526 17.002H79.9609C79.6516 17.002 79.4009 17.2527 79.4009 17.562V20.5548C79.4009 20.8641 79.6516 21.1148 79.9609 21.1148H84.1526C84.4619 21.1148 84.7126 20.8641 84.7126 20.5548V17.562C84.7126 17.2527 84.4619 17.002 84.1526 17.002Z" fill="#01818C"/>
<path d="M79.4882 17.1109L81.5096 19.268C81.6178 19.4145 81.7718 19.5207 81.9472 19.5698C82.0569 19.5865 82.1691 19.5743 82.2726 19.5344C82.3762 19.4945 82.4676 19.4283 82.5378 19.3423C82.9054 18.966 83.2554 18.5766 83.6142 18.196C83.973 17.8153 84.2967 17.474 84.6336 17.1109C84.6408 17.0999 84.644 17.0869 84.6427 17.0739C84.6413 17.0609 84.6355 17.0487 84.6263 17.0395C84.6171 17.0302 84.6049 17.0244 84.5919 17.0231C84.5789 17.0218 84.5658 17.025 84.5549 17.0321L82.6253 19.0886C82.5368 19.2033 82.4338 19.3063 82.3191 19.3948C82.0303 19.5786 81.7853 19.3948 81.5927 19.1892C81.2252 18.8042 80.8621 18.4147 80.4989 18.0253L79.5713 17.0321C79.5232 16.984 79.4444 17.0584 79.4926 17.1109H79.4882Z" fill="white"/>
<path d="M79.4665 21.0883L81.0898 19.2419L81.3173 18.9838C81.3655 18.9313 81.2867 18.8525 81.243 18.905C80.7004 19.5219 80.1579 20.1345 79.6197 20.7514L79.3878 21.0096C79.344 21.0621 79.4184 21.1408 79.4665 21.0883Z" fill="white"/>
<path d="M84.6294 20.9265L83.1111 19.1763L82.8923 18.9226C82.8442 18.8657 82.7698 18.9226 82.8136 18.9969L84.3318 20.7471C84.4062 20.8346 84.4806 20.9177 84.5506 21.0052C84.6206 21.0927 84.6775 20.979 84.6294 20.9265Z" fill="white"/>
<path d="M88.6331 20.4583V19.0976L87.9636 20.2177H87.7273L87.0623 19.1238V20.4583H86.5679V18.1875H87.0054L87.8455 19.6139L88.6812 18.2006H89.1187V20.4715L88.6331 20.4583Z" fill="#263238"/>
<path d="M91.3455 19.7278H90.0329C90.0597 19.8365 90.125 19.9319 90.2167 19.9962C90.3084 20.0606 90.4203 20.0895 90.5317 20.0778C90.6121 20.0816 90.6925 20.0689 90.7678 20.0402C90.843 20.0116 90.9116 19.9678 90.9692 19.9116L91.2405 20.2047C91.1478 20.3011 91.0351 20.3761 90.9105 20.4245C90.7858 20.4729 90.652 20.4934 90.5185 20.4847C90.3929 20.4976 90.2659 20.4839 90.1458 20.4447C90.0256 20.4056 89.915 20.3417 89.8211 20.2572C89.7271 20.1727 89.6519 20.0695 89.6002 19.9542C89.5485 19.8389 89.5215 19.7141 89.521 19.5878C89.517 19.4657 89.5387 19.3442 89.5846 19.231C89.6304 19.1178 89.6995 19.0155 89.7872 18.9306C89.875 18.8457 89.9796 18.7801 90.0942 18.7381C90.2089 18.696 90.3311 18.6785 90.4529 18.6865C90.5739 18.6838 90.694 18.7063 90.8058 18.7524C90.9177 18.7986 91.0187 18.8674 91.1026 18.9546C91.1864 19.0417 91.2513 19.1453 91.2931 19.2588C91.335 19.3723 91.3528 19.4933 91.3455 19.614C91.3455 19.614 91.3455 19.6884 91.3455 19.7278ZM90.0329 19.4346H90.908C90.908 19.3186 90.8619 19.2073 90.7798 19.1253C90.6978 19.0432 90.5865 18.9971 90.4704 18.9971C90.3544 18.9971 90.2431 19.0432 90.161 19.1253C90.079 19.2073 90.0329 19.3186 90.0329 19.4346Z" fill="#263238"/>
<path d="M91.5034 20.2968L91.6741 19.9337C91.8562 20.0442 92.0649 20.1031 92.2779 20.1043C92.5141 20.1043 92.6016 20.0387 92.6016 19.9424C92.6016 19.658 91.5472 19.9424 91.5472 19.2511C91.5472 18.923 91.8447 18.6867 92.3522 18.6867C92.5859 18.683 92.817 18.7355 93.0261 18.8398L92.8554 19.1986C92.7018 19.1127 92.5282 19.0689 92.3522 19.0717C92.1247 19.0717 92.0285 19.1417 92.0285 19.2336C92.0285 19.5312 93.0829 19.2336 93.0829 19.9293C93.0829 20.2531 92.781 20.485 92.2604 20.485C91.9957 20.4916 91.7342 20.4266 91.5034 20.2968Z" fill="#263238"/>
<path d="M93.2275 20.2969L93.3938 19.9337C93.5777 20.0438 93.7877 20.1027 94.002 20.1044C94.2339 20.1044 94.3214 20.0388 94.3214 19.9425C94.3214 19.6581 93.2669 19.9425 93.2669 19.2512C93.2669 18.923 93.5644 18.6868 94.0764 18.6868C94.3087 18.6825 94.5384 18.7351 94.7458 18.8399L94.5795 19.1987C94.4257 19.1133 94.2523 19.0696 94.0764 19.0718C93.8488 19.0718 93.7526 19.1418 93.7526 19.2337C93.7526 19.5312 94.8071 19.2337 94.8071 19.9294C94.8071 20.2531 94.5052 20.485 93.9801 20.485C93.7169 20.4911 93.4569 20.4261 93.2275 20.2969Z" fill="#263238"/>
<path d="M96.6627 19.4614V20.459H96.1858V20.2402C96.1282 20.3254 96.0485 20.3932 95.9552 20.4364C95.8619 20.4796 95.7585 20.4965 95.6563 20.4852C95.2451 20.4852 95.0044 20.2577 95.0044 19.9558C95.0044 19.6539 95.2188 19.4351 95.7526 19.4351H96.1595C96.1595 19.2164 96.0282 19.0895 95.757 19.0895C95.5762 19.0882 95.3999 19.1449 95.2538 19.2514L95.0744 18.897C95.2987 18.7534 95.5608 18.6803 95.827 18.6869C96.352 18.6869 96.6627 18.9363 96.6627 19.4614ZM96.1551 19.8989V19.7195H95.8095C95.5732 19.7195 95.4944 19.807 95.4944 19.9252C95.4944 20.0433 95.6038 20.1352 95.7832 20.1352C95.862 20.1422 95.9409 20.1239 96.0086 20.083C96.0763 20.0421 96.1291 19.9807 96.1595 19.9077L96.1551 19.8989Z" fill="#263238"/>
<path d="M98.9364 18.7119V20.1645C98.9486 20.2949 98.9313 20.4264 98.8859 20.5492C98.8405 20.672 98.7681 20.7831 98.674 20.8742C98.5799 20.9653 98.4666 21.0342 98.3424 21.0757C98.2182 21.1172 98.0863 21.1303 97.9563 21.114C97.6464 21.1293 97.3398 21.045 97.0813 20.8733L97.2825 20.5102C97.4626 20.6386 97.6783 20.7075 97.8995 20.7071C98.2582 20.7071 98.4114 20.5452 98.4114 20.2302V20.1558C98.3409 20.2301 98.2551 20.2882 98.1599 20.326C98.0647 20.3638 97.9624 20.3804 97.8601 20.3745C97.6361 20.3745 97.4213 20.2856 97.263 20.1272C97.1046 19.9688 97.0156 19.7541 97.0156 19.5301C97.0156 19.3061 97.1046 19.0913 97.263 18.933C97.4213 18.7746 97.6361 18.6856 97.8601 18.6856C97.9691 18.6796 98.078 18.699 98.1782 18.7423C98.2785 18.7856 98.3673 18.8516 98.4376 18.935V18.7119H98.9364ZM98.4376 19.5301C98.4419 19.4375 98.4182 19.3458 98.3694 19.267C98.3206 19.1881 98.2491 19.1259 98.1644 19.0885C98.0796 19.051 97.9854 19.0401 97.8943 19.0571C97.8032 19.0741 97.7194 19.1183 97.6539 19.1839C97.5883 19.2494 97.5441 19.3332 97.5271 19.4243C97.5101 19.5154 97.521 19.6096 97.5585 19.6944C97.5959 19.7791 97.6581 19.8506 97.737 19.8994C97.8158 19.9482 97.9075 19.9719 98.0001 19.9676C98.1161 19.9676 98.2274 19.9215 98.3095 19.8395C98.3915 19.7574 98.4376 19.6461 98.4376 19.5301Z" fill="#263238"/>
<path d="M101.107 19.7275H99.7941C99.821 19.8363 99.8863 19.9316 99.978 19.9959C100.07 20.0603 100.182 20.0893 100.293 20.0775C100.373 20.0816 100.454 20.069 100.529 20.0403C100.604 20.0117 100.673 19.9678 100.73 19.9113L101.002 20.2044C100.909 20.3008 100.796 20.3758 100.672 20.4242C100.547 20.4726 100.413 20.4931 100.28 20.4845C100.154 20.4966 100.028 20.4825 99.9083 20.443C99.7888 20.4036 99.6787 20.3396 99.5852 20.2552C99.4918 20.1708 99.4169 20.0678 99.3655 19.9528C99.3141 19.8379 99.2872 19.7134 99.2866 19.5875C99.2827 19.4658 99.3043 19.3447 99.3499 19.2318C99.3955 19.119 99.4641 19.0169 99.5514 18.9321C99.6387 18.8472 99.7427 18.7815 99.8568 18.7392C99.971 18.6969 100.093 18.6788 100.214 18.6862C100.335 18.6813 100.455 18.7013 100.567 18.745C100.679 18.7888 100.782 18.8552 100.867 18.9403C100.952 19.0253 101.019 19.1271 101.064 19.2392C101.108 19.3513 101.129 19.4714 101.124 19.5919C101.115 19.6138 101.111 19.6881 101.107 19.7275ZM99.7941 19.4344H100.669C100.669 19.3183 100.623 19.207 100.541 19.125C100.459 19.0429 100.348 18.9968 100.232 18.9968C100.116 18.9968 100.004 19.0429 99.9223 19.125C99.8402 19.207 99.7941 19.3183 99.7941 19.4344Z" fill="#263238"/>
<path d="M101.283 20.2968L101.453 19.9337C101.637 20.0443 101.847 20.1033 102.062 20.1043C102.293 20.1043 102.381 20.0387 102.381 19.9424C102.381 19.658 101.326 19.9424 101.326 19.2511C101.326 18.923 101.624 18.6867 102.136 18.6867C102.368 18.683 102.598 18.7355 102.805 18.8398L102.639 19.1986C102.485 19.1136 102.312 19.0699 102.136 19.0717C101.908 19.0717 101.808 19.1417 101.808 19.2336C101.808 19.5312 102.862 19.2336 102.862 19.9293C102.862 20.2531 102.565 20.485 102.04 20.485C101.775 20.4909 101.514 20.426 101.283 20.2968Z" fill="#263238"/>
<path d="M103.987 19.3253C103.973 19.077 104.034 18.8303 104.161 18.6169C104.289 18.4036 104.478 18.2335 104.703 18.1286C104.929 18.0237 105.181 17.9889 105.426 18.0287C105.672 18.0684 105.899 18.1809 106.08 18.3516C106.261 18.5222 106.387 18.7432 106.441 18.986C106.494 19.2287 106.474 19.4821 106.383 19.7132C106.291 19.9444 106.132 20.1428 105.927 20.2826C105.721 20.4225 105.478 20.4975 105.229 20.4979C105.07 20.5068 104.91 20.4831 104.76 20.4283C104.61 20.3734 104.472 20.2885 104.356 20.1788C104.24 20.0691 104.147 19.9368 104.084 19.7901C104.02 19.6433 103.987 19.4852 103.987 19.3253ZM105.938 19.3253C105.936 19.1847 105.892 19.0479 105.811 18.9323C105.731 18.8167 105.619 18.7273 105.488 18.6755C105.357 18.6236 105.214 18.6116 105.076 18.6409C104.939 18.6703 104.813 18.7397 104.715 18.8403C104.617 18.941 104.55 19.0685 104.524 19.2068C104.498 19.345 104.514 19.4879 104.569 19.6173C104.624 19.7468 104.716 19.8571 104.833 19.9344C104.951 20.0117 105.089 20.0525 105.229 20.0516C105.325 20.0535 105.419 20.0359 105.507 19.9998C105.595 19.9638 105.675 19.91 105.741 19.842C105.808 19.7739 105.859 19.6929 105.893 19.6041C105.927 19.5152 105.942 19.4203 105.938 19.3253Z" fill="#263238"/>
<path d="M107.303 18.6162H106.577V18.1787H108.554V18.6162H107.828V20.4583H107.303V18.6162Z" fill="#263238"/>
<path d="M110.806 19.0101C110.806 19.5176 110.425 19.8326 109.817 19.8326H109.38V20.4583H108.846V18.1875H109.826C110.425 18.1875 110.806 18.5025 110.806 19.0101ZM110.272 19.0101C110.272 18.7607 110.11 18.6163 109.791 18.6163H109.353V19.4039H109.791C110.11 19.4039 110.272 19.2595 110.272 19.0101Z" fill="#263238"/>
<path d="M79.0947 27.1005C79.0947 24.9566 80.2848 23.7402 81.8775 23.7402C83.4701 23.7402 84.6646 24.9566 84.6646 27.1005C84.6646 29.2445 83.4832 30.4608 81.8775 30.4608C80.2717 30.4608 79.0947 29.2401 79.0947 27.1005ZM83.1507 27.1005C83.1507 25.626 82.63 25.0135 81.8775 25.0135C81.1249 25.0135 80.6174 25.626 80.6174 27.1005C80.6174 28.575 81.138 29.1876 81.8775 29.1876C82.6169 29.1876 83.1551 28.575 83.1551 27.1005H83.1507Z" fill="#263238"/>
<path d="M90.839 28.4662C90.839 29.6913 89.7451 30.4614 88.0956 30.4614C86.4461 30.4614 85.3653 29.6913 85.3653 28.4662C85.3616 28.1427 85.4529 27.8251 85.6279 27.5529C85.8029 27.2807 86.0539 27.0658 86.3498 26.9349C86.1197 26.802 85.9288 26.6105 85.7966 26.38C85.6644 26.1494 85.5956 25.888 85.5972 25.6222C85.5972 24.4803 86.6167 23.7627 88.0956 23.7627C89.5745 23.7627 90.6071 24.4803 90.6071 25.6222C90.6078 25.8888 90.5377 26.1509 90.4039 26.3815C90.2702 26.6121 90.0775 26.8031 89.8457 26.9349C90.1443 27.0631 90.3981 27.2771 90.5749 27.5497C90.7518 27.8223 90.8437 28.1413 90.839 28.4662ZM89.3207 28.4181C89.3207 27.8449 88.8438 27.4905 88.0956 27.4905C87.3474 27.4905 86.888 27.8449 86.888 28.4181C86.888 28.9913 87.3518 29.3588 88.0956 29.3588C88.8394 29.3588 89.3207 28.9957 89.3207 28.4181ZM87.0936 25.6616C87.0936 26.156 87.483 26.4623 88.0956 26.4623C88.7081 26.4623 89.115 26.156 89.115 25.6616C89.115 25.1672 88.7213 24.8653 88.0956 24.8653C87.4699 24.8653 87.0936 25.1541 87.0936 25.6616Z" fill="#263238"/>
<path d="M96.9683 28.4662C96.9683 29.6913 95.8701 30.4614 94.2206 30.4614C92.5711 30.4614 91.4903 29.6913 91.4903 28.4662C91.4866 28.1427 91.5779 27.8251 91.7529 27.5529C91.9279 27.2807 92.1789 27.0658 92.4748 26.9349C92.2447 26.802 92.0538 26.6105 91.9216 26.38C91.7894 26.1494 91.7206 25.888 91.7222 25.6222C91.7222 24.4803 92.7461 23.7627 94.2206 23.7627C95.6951 23.7627 96.7364 24.4803 96.7364 25.6222C96.7363 25.8887 96.6658 26.1503 96.5321 26.3808C96.3984 26.6113 96.2063 26.8024 95.9751 26.9349C96.2734 27.0635 96.5268 27.2777 96.7036 27.5502C96.8803 27.8227 96.9725 28.1414 96.9683 28.4662ZM95.4457 28.4181C95.4457 27.8449 94.9732 27.4905 94.2206 27.4905C93.468 27.4905 93.013 27.8449 93.013 28.4181C93.013 28.9913 93.4768 29.3588 94.2206 29.3588C94.9644 29.3588 95.4457 28.9957 95.4457 28.4181ZM93.2186 25.6616C93.2186 26.156 93.608 26.4623 94.2206 26.4623C94.8331 26.4623 95.24 26.156 95.24 25.6616C95.24 25.1672 94.8463 24.8653 94.2206 24.8653C93.5949 24.8653 93.2186 25.1541 93.2186 25.6616Z" fill="#263238"/>
<path d="M100.163 23.8535V30.351H98.6583V25.0611H97.3457V23.8535H100.163Z" fill="#263238"/>
<path d="M106.148 29.1259V30.351H101.238V29.3753L103.741 27.0082C104.319 26.4612 104.419 26.1331 104.419 25.8093C104.419 25.3018 104.069 25.0042 103.382 25.0042C103.122 24.9937 102.863 25.0472 102.628 25.1601C102.393 25.273 102.189 25.4418 102.035 25.6518L100.941 24.9474C101.239 24.5491 101.63 24.2304 102.08 24.0198C102.531 23.8091 103.026 23.7129 103.522 23.7398C104.966 23.7398 105.933 24.4836 105.933 25.6606C105.933 26.295 105.758 26.8682 104.848 27.7126L103.352 29.1259H106.148Z" fill="#263238"/>
<path d="M111.569 28.3645C111.569 29.4584 110.724 30.4604 108.878 30.4604C108.001 30.4766 107.138 30.2347 106.397 29.7647L106.983 28.6139C107.524 29.0008 108.174 29.206 108.838 29.2002C109.591 29.2002 110.055 28.894 110.055 28.3645C110.055 27.8351 109.692 27.5638 108.838 27.5638H108.152V26.5706L109.49 25.0611H106.725V23.8535H111.271V24.8292L109.805 26.4962C110.974 26.6844 111.569 27.4063 111.569 28.3645Z" fill="#263238"/>
</svg>
